<?xml version="1.0" encoding="UTF-8"?>
<svg width="177.73mm" height="336.55mm" version="1.1" viewBox="0 0 177.73 336.55" xmlns="http://www.w3.org/2000/svg" xmlns:xlink="http://www.w3.org/1999/xlink"><defs><linearGradient id="ag" x1="379.39" x2="296.93" y1="908.44" y2="396.68" gradientTransform="scale(1.1038 .90595)" gradientUnits="userSpaceOnUse" xlink:href="#a"/><linearGradient id="ah" x1="-977.63" x2="977.05" y1="-186.29" y2="308.11" gradientTransform="scale(.86146 1.1608)" gradientUnits="userSpaceOnUse" xlink:href="#ae"/><linearGradient id="ak" x1="608.27" x2="572.03" y1="584.18" y2="586.69" gradientTransform="scale(.64452 1.5515)" gradientUnits="userSpaceOnUse" spreadMethod="reflect" xlink:href="#c"/><linearGradient id="ai" x1="204.28" x2="205.18" y1="30.893" y2="465.49" gradientTransform="scale(1.1895 .84071)" gradientUnits="userSpaceOnUse" xlink:href="#b"/><linearGradient id="ba" x1="309.16" x2="302.31" y1="893.16" y2="951.29" gradientTransform="scale(1.2191 .82028)" gradientUnits="userSpaceOnUse" xlink:href="#ad"/><linearGradient id="af" x1="293.24" x2="310.45" y1="916.3" y2="919.6" gradientTransform="scale(1.2191 .82028)" gradientUnits="userSpaceOnUse" xlink:href="#a"/><linearGradient id="bb" x1="299.34" x2="301.38" y1="952.39" y2="937.79" gradientTransform="scale(1.2191 .82028)" gradientUnits="userSpaceOnUse" xlink:href="#a"/><linearGradient id="bc" x1="293.05" x2="311.93" y1="893.98" y2="930.35" gradientTransform="scale(1.2191 .82028)" gradientUnits="userSpaceOnUse" xlink:href="#a"/><linearGradient id="aj" x1="420.54" x2="444.71" y1="614.15" y2="654.18" gradientTransform="scale(.8284 1.2071)" gradientUnits="userSpaceOnUse" spreadMethod="reflect" xlink:href="#c"/><linearGradient id="b"><stop stop-color="#fff" offset="0"/><stop stop-color="#fff" stop-opacity="0" offset="1"/></linearGradient><linearGradient id="a"><stop offset="0"/><stop stop-opacity="0" offset="1"/></linearGradient><linearGradient id="c"><stop stop-color="#525252" offset="0"/><stop stop-color="#d9d9d9" offset="1"/></linearGradient><linearGradient id="al" x1="389.26" x2="408.06" y1="1004" y2="1010.1" gradientTransform="scale(.98068 1.0197)" gradientUnits="userSpaceOnUse" spreadMethod="reflect" xlink:href="#c"/><linearGradient id="am" x1="259.57" x2="265.94" y1="1352" y2="1382.6" gradientTransform="scale(1.3556 .73767)" gradientUnits="userSpaceOnUse" xlink:href="#a"/><linearGradient id="ad"><stop stop-color="#ff6f34" offset="0"/><stop stop-color="#ff0016" offset="1"/></linearGradient><linearGradient id="an" x1="370.8" x2="381.53" y1="747.38" y2="754.62" gradientTransform="scale(1.0154 .98488)" gradientUnits="userSpaceOnUse" spreadMethod="reflect" xlink:href="#a"/><linearGradient id="ae"><stop stop-color="#5f0000" stop-opacity="0" offset="0"/><stop stop-color="#f00" stop-opacity="0" offset=".5"/><stop stop-color="#860000" offset="1"/></linearGradient><radialGradient id="aq" cx="269.79" cy="1031.8" r="32.826" gradientTransform="matrix(1.3309 -.20558 .10261 .47158 -91.365 302.37)" gradientUnits="userSpaceOnUse" xlink:href="#a"/><radialGradient id="aw" cx="370.71" cy="771.55" r="27.48" gradientTransform="matrix(1.0154 0 0 .98487 0 -6)" gradientUnits="userSpaceOnUse" xlink:href="#c"/><radialGradient id="ap" cx="378.57" cy="752.36" r="8.5714" gradientTransform="matrix(.4687 -.17161 .34381 .93904 -50.684 103.73)" gradientUnits="userSpaceOnUse" xlink:href="#b"/><radialGradient id="ay" cx="462.46" cy="233.67" r="330.33" gradientTransform="matrix(.96831 -.21503 .29652 1.3353 -211.6 -61.667)" gradientUnits="userSpaceOnUse" xlink:href="#ad"/><radialGradient id="ar" cx="457.14" cy="263.79" r="94.286" gradientTransform="matrix(.41416 -.091969 .091969 .41416 88.064 73.647)" gradientUnits="userSpaceOnUse" xlink:href="#b"/><radialGradient id="as" cx="457.14" cy="263.79" r="94.286" gradientTransform="matrix(1.1833 -.26277 .26277 1.1833 -308.6 -51.166)" gradientUnits="userSpaceOnUse" xlink:href="#b"/><radialGradient id="ao" cx="214.76" cy="1378.8" r="15.406" gradientTransform="matrix(1.4686 0 0 .42526 72.665 179.83)" gradientUnits="userSpaceOnUse" xlink:href="#b"/><radialGradient id="at" cx="480.13" cy="516.87" r="175.44" gradientTransform="matrix(.70161 -.4618 .65455 .99446 -404.37 218.18)" gradientUnits="userSpaceOnUse" xlink:href="#b"/><radialGradient id="au" cx="480.13" cy="516.87" r="175.44" gradientTransform="matrix(.41814 -.27522 .3667 .55713 -79.096 415.27)" gradientUnits="userSpaceOnUse" xlink:href="#b"/><radialGradient id="az" cx="247.71" cy="1161.1" r="14.647" fy="1161.4" gradientTransform="scale(1.5804 .63276)" gradientUnits="userSpaceOnUse" xlink:href="#a"/><radialGradient id="av" cx="413.89" cy="440.37" r="359.53" gradientTransform="matrix(.96831 -.21503 .29652 1.3353 -211.6 -61.667)" gradientUnits="userSpaceOnUse"><stop stop-color="#650000" stop-opacity="0" offset="0"/><stop stop-color="#7b0000" stop-opacity="0" offset=".5"/><stop stop-color="#760000" stop-opacity="0" offset=".75"/><stop stop-color="#700" offset="1"/></radialGradient><radialGradient id="ax" cx="478.66" cy="290.04" r="372.49" gradientTransform="matrix(.96831 -.21503 .29652 1.3353 -211.6 -61.667)" gradientUnits="userSpaceOnUse" xlink:href="#ae"/></defs><g transform="translate(-1.5863 26.247)"><g transform="matrix(.32432 0 0 .32432 -4.5615 -30.386)"><g fill-rule="evenodd"><g stroke-linecap="round" stroke-linejoin="round" stroke-width=".625"><path d="m558.54 282.83c39.66 178.6-67.947 439.47-174.54 466.06-103.81 25.979-315.74-169.78-355.4-348.38s46.86-349.91 193.13-382.39 297.16 86.108 336.82 264.71z" fill="url(#ay)" opacity=".75"/><path d="m558.54 282.83c39.66 178.6-67.947 439.47-174.54 466.06-103.81 25.979-315.74-169.78-355.4-348.38s46.86-349.91 193.13-382.39 297.16 86.108 336.82 264.71z" fill="url(#ax)"/></g><path d="m171.19 67.388c-12.157 0.12379-36.516 19.763-45.87 30.673-19.234 22.433-30.838 37.65-41.846 61.974-16.9 37.343 4.575 39.084 32.847 16.12 21.599-17.544-12.858 35.603-15.812 47.412-4.934 19.723-24.964 31.75-34.405 42.761-9.848 11.486-7.2461 33.213-27.588 47.101-22.198 15.154 18.255 23.315 29.746 28.515 18.362 8.3097-10.76 46.533 27.888 20.148 22.79-15.558 16.77-31.547 31.92-1.2348 4.9966 9.997 47.588-37.134 49.59-40.28 2.3396-3.6754-3.8543-56.896-4.6394-60.431-0.0159-0.0718 13.061-19.124 28.823-15.181 24.45 6.1164 16.739 28.761 38.737 3.1049 11.176-13.035 25.825 50.398 26.334 52.687 7.2909 32.832 48.788-4.8665 62.29 3.7282 14.421 9.1801 9.0842 39.312 25.714 49.898 13.119 8.3514 43.278-30.363 47.42-36.871 13.556-21.296 0.68903-23.511 38.118 0.31567 26.363 16.782 22.406-31.973 58.262-1.2308 21.82 18.709 6.7702-20.076 7.1328-33.778 0.61194-23.122-11.942-57.191-20.132-77.478-4.6345-11.481 44.373 16.124 36.567 6.5134-14.238-17.529-32.694-32.145-45.858-48.351-17.055-20.997-24.405-34.878-36.559-59.197-10.501-21.011-5.9465-25.34-22.617-35.952-17.603-11.206-33.648 17.928-44.935-4.6553-7.8512-15.708-37.869 9.4224-52.683-8e-3 -4.1717-2.6556-16.656-32.666-19.828-36.571-6.9822-8.5961-42.542 3.5936-54.234 6.1898l-11.157 2.4775c-12.796 2.8416-28.611 3.4267-42.457 6.5015-1.0072 0.22366-12.546 19.486-20.767 25.099z" fill="url(#ai)" opacity=".6"/><g stroke-linecap="round" stroke-linejoin="round" stroke-width=".625"><path d="m340.7 132.18a40 40 0 1 1-78.098 17.343 40 40 0 1 1 78.098-17.343z" fill="url(#ar)"/><path d="m413.22 116.08a114.29 114.29 0 1 1-223.14 49.55 114.29 114.29 0 1 1 223.14-49.55z" fill="url(#as)" opacity=".6"/><path d="m221.72 18.128c-146.27 32.48-232.8 203.77-193.14 382.37s251.61 374.37 355.42 348.39c106.6-26.598 214.21-287.48 174.55-466.08s-190.56-297.16-336.83-264.68zm-5.245 5.3581c5.2-1.6039 11.041-2.4297 17.65-2.2548 19.368 0.5126 32.663 26.514 38.091 26.658 20.479 0.5421 30.721-19.317 45.575-18.924 18.58 0.4917 21.189 8.7208 32.842 16.139 10.824 6.8899 24.287 20.228 38.738 29.427 11.838 7.5353 32.715 24.002 47.104 27.601 13.508 3.38 31.702 11.003 34.698 24.498 6.333 28.517-14.448 21.376-14.899 38.425-0.62 23.426 41.676 16.277 48.04 44.936 6.58 29.629-30.816 41.326-22.019 45.864 0.17801 0.092 72.199 61.527 30.995 60.437-23.066-0.61099-67.778-34.504-74.697-6.845-2.515 10.051-25.863 61.413-44.016 39.065-38.873-47.858-17.132 7.841-68.795 6.473-17.014-0.44998-14.751-19.046-14.254-37.809 2.072-78.29-54.609-11.471-55.159-37.496-1.659-78.521 6.577-10.145-17.647-39.969-14.593-17.967-25.614-36.775-52.063-23.555-40.782 20.383-6.405 29.476-4.951 56.703 1.353 25.316-31.748 21.715-17.675 39.041 4.725 5.817 30.882 53.188 22.316 47.735-3.408-2.17-6.844-4.356-10.252-6.526-36.746-23.392-37.038 43.629-65.062-3.095-21.787-36.323-21.001 20.857-50.222 37.498-11.176 33.51-15.372 9.771-19.197-7.453-3.4558-15.562-0.4943-28.606-4.3283-45.871-6.2542-28.164 15.771-21.031 28.811-41.514 7.5872-11.919 36.258-30.446 9.3166-37.186-14.15-3.539-37.511 6.534-19.844-10.222 11.358-10.773 59.758-50.389 37.207-69.724-12.698-10.888-49.658-41.663-8.3747-50.831 36.848-8.183 45.988-9.051 46.798-39.65 0.66-24.917 38.08-10.894 51.462-31.915 8.28-13.008 18.212-24.848 33.811-29.66z" fill="url(#ah)" opacity=".4"/><path d="m401.73 408.73a151.3 214.46 0 1 1-274.46 180.65 151.3 214.46 0 1 1 274.46-180.65z" fill="url(#at)" opacity=".53"/><path d="m389.49 510.86a91.22 121.54 0 1 1-163.57 107.66 91.22 121.54 0 1 1 163.57-107.66z" fill="url(#au)" opacity=".3"/></g><path d="m223.16 647.36c-18.336-24.262-60.967-66.679-84.57-101.25-13.367-19.579-23.259-50.613 1.3223-49.962 37.268 0.98636 32.963 59.584 31.556-7.0075-0.0903-4.2743 28.978 44.927 54.782 4.3909 20.491-32.189 27.586 49.668 31.545 67.498 1.5402 6.9357 35.923 12.726 49.962 1.3224 35.296-28.67 6.933 34.372 6.5667 48.21-0.89096 33.662 73.164-41.607 76.704-46.006 32.961-40.966 50.845-10.706 72.759-45.13 23.006-36.141 48.395-65.382 66.192-93.341 14.1-22.149-23.01-31.227 10.087-47.769 25.06-12.525 21.8 45.562 16.208 54.347-13.638 21.424-38.608 14.175-39.451 46.012-0.52716 19.917-0.87958 33.317 4.374 56.975 4.6926 21.132-20.482 53.457-30.251 68.803-13.828 21.722-3.488 30.228-31.562 44.26-19.256 9.6243-21.792 50.293-39.451 46.012-13.722 11.146-36.205 27.079-46.023 35.054-18.363 14.915-39.258-16.116-68.368-9.6522-21.973 4.8795-45.83-9.4892-58.286-20.169-11.998-10.287-20.75-37.527-24.097-52.596z" fill="url(#ag)" opacity=".1"/><g stroke-linecap="round" stroke-linejoin="round" stroke-width=".625"><path d="m558.54 282.83c39.66 178.6-67.947 439.47-174.54 466.06-103.81 25.979-315.74-169.78-355.4-348.38s46.86-349.91 193.13-382.39 297.16 86.108 336.82 264.71z" fill="url(#av)"/><path d="m417.26 726.76a47.659 16.887 0 1 1-87.376 13.497 47.659 16.887 0 1 1 87.376-13.497z" fill="url(#aq)" opacity=".3"/></g><path d="m372.75 735.24c-5.9356 3.6492-15.409 17.308-18.183 24.244-1.5433 3.8583-9.0917 5.051-13.132 7.0711-7.9485 3.9742-3.7394 11.112 4.0406 11.112 10.363 0 20.274 0.0143 30.305 2.0203 7.5648 1.513 15.433 1.0102 23.234 1.0102 7.9438 0 8.9786-5.2764 7.0711-9.0914-1.7358-3.4716-10.956-7.7692-13.132-12.122-2.0656-4.1312-1.8953-18.342-7.0711-22.223-0.38092-0.28571-6.7176-5.9639-13.132-2.0203z" fill="url(#ba)"/><path d="m372.75 735.24c-5.9356 3.6492-15.409 17.308-18.183 24.244-1.5433 3.8583-9.0917 5.051-13.132 7.0711-7.9485 3.9742-3.7394 11.112 4.0406 11.112 10.363 0 20.274 0.0143 30.305 2.0203 7.5648 1.513 15.433 1.0102 23.234 1.0102 7.9438 0 8.9786-5.2764 7.0711-9.0914-1.7358-3.4716-10.956-7.7692-13.132-12.122-2.0656-4.1312-1.8953-18.342-7.0711-22.223-0.38092-0.28571-6.7176-5.9639-13.132-2.0203z" fill="url(#bb)"/><path d="m372.75 735.24c-5.9356 3.6492-15.409 17.308-18.183 24.244-1.5433 3.8583-9.0917 5.051-13.132 7.0711-7.9485 3.9742-3.7394 11.112 4.0406 11.112 10.363 0 20.274 0.0143 30.305 2.0203 7.5648 1.513 15.433 1.0102 23.234 1.0102 7.9438 0 8.9786-5.2764 7.0711-9.0914-1.7358-3.4716-10.956-7.7692-13.132-12.122-2.0656-4.1312-1.8953-18.342-7.0711-22.223-0.38092-0.28571-6.7176-5.9639-13.132-2.0203z" fill="url(#bc)" opacity=".468"/><path d="m372.75 735.24c-5.9356 3.6492-15.409 17.308-18.183 24.244-1.5433 3.8583-9.0917 5.051-13.132 7.0711-7.9485 3.9742-3.7394 11.112 4.0406 11.112 10.363 0 20.274 0.0143 30.305 2.0203 7.5648 1.513 15.433 1.0102 23.234 1.0102 7.9438 0 8.9786-5.2764 7.0711-9.0914-1.7358-3.4716-10.956-7.7692-13.132-12.122-2.0656-4.1312-1.8953-18.342-7.0711-22.223-0.38092-0.28571-6.7176-5.9639-13.132-2.0203z" fill="url(#af)" opacity=".509"/><path d="m358.6 766.36c3.3826 0.43799 11.266-0.30615 16.576-1.5378 4.4948-1.0425 7.2171-1.3132 9.9457-3.8447 3.9482-3.6629 3.8424-0.52887 9.1169 1.895 2.9303 3.1287 7.1762 2.0828 10.147 8.1011 2.9303 2.7186-11.804 0-15.948 0-4.452 0-8.2997-0.76898-12.432-0.76898-2.8509 0-8.6656-1.0487-10.774-1.5378-3.2818-0.76117-1.5859-1.3707-6.6305-2.3068z" fill="url(#ao)" opacity=".676"/><path d="m389.44 743.79a4.084 8.1821 0 1 1-8.0349 2.9419 4.084 8.1821 0 1 1 8.0349-2.9419z" fill="url(#ap)" opacity=".468" stroke-linecap="round" stroke-linejoin="round" stroke-width=".625"/></g><path d="m384.1 745.83c-0.3158 0.0821-0.62775-0.17841-0.94162-0.26758 7.0312 1.4633 0.11249-0.14807 1.1834-1.5578-0.28867-0.20966-0.10013 0.0979-0.23016 0.22504l4.0129-9.4232c1.896 1.2204 3.96 1.8661 5.0791 4.0618 4.6622 11.939-2.839 20.797-15.457 15.351-8.5854-7.9009-5.3668-17.927 6.3536-18.753v10.365z" fill="url(#aw)"/><path d="m389.82 848.98c19.503 32.603-40.167 32.936-38.799 67.422 1.3817 34.843 32.218 19.788 50.782 50.331l1.3578 12.088c-27.176-37.964-52.844-27.652-53.919-61.72-1.0752-34.068 45.612-45.57 41.37-61.82l-0.7912-6.3017z" fill="url(#ak)"/><path d="m395.35 1000.7c-9.2864 13.302-47.781 27.059-47.63 11.59 0.35989-36.898 55.373-18.881 56.594 11.288 0.59378 14.678-36.308 13.992-42.145 26.91l-1.0611-8.4871c4.8986-11.006 39.145-9.5745 37.448-17.73-5.8074-27.907-35.524-27.016-46.194-18.353 1.285 15.131 34.93 0.8015 42.614-12.701l0.3751 7.4821z" fill="url(#al)"/><path d="m395.35 1000.7c-9.2864 13.302-47.781 27.059-47.63 11.59l4.641-6.3715c1.285 15.131 34.93 0.8015 42.614-12.701l0.3751 7.4821z" fill="url(#am)"/><path d="m384.1 745.83c-0.3158 0.0821-0.62775-0.17841-0.94162-0.26758 7.0312 1.4633 0.11249-0.14807 1.1834-1.5578-0.28867-0.20966-0.10013 0.0979-0.23016 0.22504l4.0129-9.4232c1.896 1.2204 3.96 1.8661 5.0791 4.0618 4.6622 11.939-2.839 20.797-15.457 15.351-8.5854-7.9009-5.3668-17.927 6.3536-18.753v10.365z" fill="url(#an)"/><path d="m392.33 736.55c-9.7508 22.191-12.99 1.4424-21.293 2.7533-12.743-0.0248-32.129 6.3088-38.989 16.556-9.4043 14.048-13.051 28.868-5.669 47.75 7.4303 19.005 31.709 25.712 55.78 39.274l0.3111 4.0082c-18.274-14.306-51.053-14.918-61.218-36.509-10.303-21.883-9.6147-39.626 10.162-58.705 10.473-9.7433 22.831-17.617 37.494-17.937l23.422 2.8103z" fill="url(#aj)"/><path d="m392.33 736.55c-9.7508 22.191-12.99 1.4424-21.293 2.7533-12.743-0.0248-16.792-5.2438-2.1289-5.5636l23.422 2.8103z" fill="url(#az)" opacity=".639"/></g></g></svg>
