<?xml version="1.0" encoding="UTF-8"?>
<svg width="76.649mm" height="80.75mm" version="1.1" viewBox="0 0 76.649 80.75" xmlns="http://www.w3.org/2000/svg" xmlns:xlink="http://www.w3.org/1999/xlink"><defs><linearGradient id="linearGradient3943" x1="8786.4" x2="7964.5" y1="15826" y2="13479" gradientTransform="matrix(1.0836 0 0 1.0836 -457.18 -4076.8)" gradientUnits="userSpaceOnUse"><stop stop-color="#f60" offset="0"/><stop stop-color="#fc0" offset="1"/></linearGradient><clipPath id="id0-2"><path d="m10500 13017c1292 0 2340 1048 2340 2341 0 1292-1048 2340-2340 2340s-2340-1048-2340-2340c0-1293 1048-2341 2340-2341z"/></clipPath></defs><g transform="translate(-70.532 -85.78)"><g transform="matrix(.3763 0 0 -.3763 102.91 146.12)"><g transform="scale(.1)"><g transform="translate(-2.3375 1.1773)"><g transform="matrix(.37718 0 0 -.39736 -3958.5 5521.9)" fill-rule="evenodd"><path class="fil3" d="m10920 9864.3c1491 0 2700.2 1208.2 2700.2 2700.2 0 1491-1209.3 2700.2-2700.2 2700.2-1491 0-2700.2-1209.3-2700.2-2700.2 0-1492.1 1209.3-2700.2 2700.2-2700.2z" fill="url(#linearGradient3943)" fill-rule="evenodd"/><g transform="matrix(1.0875 0 0 1.0875 -498.35 -4157.3)" clip-path="url(#id0-2)" fill-rule="evenodd"><g fill="none" stroke="#000" stroke-width="100"><path class="fil2 str1" d="m12225 13441s-367 1437-3450 3690"/><path class="fil2 str1" d="m10899 12626s32 2396 2253 2620"/><path class="fil2 str1" d="m7848 15485s2596-1184 3295-424-994 3028-994 3028"/><path class="fil2 str1" d="m8458 13474s3770 0 3898 3898"/></g></g><path class="fil2 str2" d="m10920 9971.2c1431.3 0 2592.3 1161 2592.3 2593.4 0 1431.3-1161 2592.3-2592.3 2592.3-1431.3 0-2592.3-1161-2592.3-2592.3 0-1432.4 1161-2593.4 2592.3-2593.4z" fill="none" stroke="#000" stroke-width="138.48"/></g></g></g></g></g></svg>
