<?xml version="1.0" encoding="UTF-8"?>
<svg width="196.17mm" height="145.85mm" version="1.1" viewBox="0 0 196.17 145.85" xmlns="http://www.w3.org/2000/svg" xmlns:xlink="http://www.w3.org/1999/xlink"><defs><linearGradient id="a"><stop offset="0"/><stop stop-opacity="0" offset="1"/></linearGradient><linearGradient id="h"><stop stop-color="#fff" offset="0"/><stop stop-color="#fff" stop-opacity="0" offset="1"/></linearGradient><linearGradient id="s" x1="-56.015" x2="184.4" y1="423.02" y2="307.06" gradientUnits="userSpaceOnUse"><stop stop-color="#333" offset="0"/><stop stop-color="#333" stop-opacity="0" offset="1"/></linearGradient><linearGradient id="u" x1="629.88" x2="192.44" y1="128.87" y2="144.42" gradientUnits="userSpaceOnUse" xlink:href="#a"/><linearGradient id="t" x1="563.41" x2="427.65" y1="68.055" y2="93.511" gradientUnits="userSpaceOnUse" xlink:href="#a"/><linearGradient id="r" x1="68.436" x2="314.51" y1="585.66" y2="333.93" gradientUnits="userSpaceOnUse" xlink:href="#a"/><linearGradient id="q" x1="605.84" x2="530.82" y1="-49.324" y2="123.21" gradientUnits="userSpaceOnUse" xlink:href="#a"/><linearGradient id="p" x1="629.88" x2="690.69" y1="249.07" y2="290.41" gradientUnits="userSpaceOnUse" xlink:href="#a"/><linearGradient id="d" x1="874.54" x2="655.33" y1="507.88" y2="113.31" gradientUnits="userSpaceOnUse" xlink:href="#a"/><linearGradient id="i" x1="874.54" x2="675.13" y1="-32.354" y2="29.872" gradientUnits="userSpaceOnUse" xlink:href="#a"/><linearGradient id="o" x1="982.02" x2="979.19" y1="299.99" y2="294.33" gradientUnits="userSpaceOnUse" xlink:href="#h"/><linearGradient id="n" x1="257.94" x2="512.5" y1="608.29" y2="341.74" gradientUnits="userSpaceOnUse" xlink:href="#a"/><linearGradient id="m" x1="30.252" x2="912.72" y1="538.99" y2="438.58" gradientUnits="userSpaceOnUse" xlink:href="#a"/><linearGradient id="b" x1="-34.802" x2="325.82" y1="560.2" y2="347.99" gradientUnits="userSpaceOnUse" xlink:href="#a"/><linearGradient id="c" x1="414.92" x2="348.1" y1="575.76" y2="360.8" gradientUnits="userSpaceOnUse" xlink:href="#a"/><linearGradient id="l" x1="238.14" x2="260.77" y1="66.641" y2="189.68" gradientUnits="userSpaceOnUse" xlink:href="#h"/><linearGradient id="k" x1="313.09" x2="225.41" y1="451.31" y2="328.27" gradientUnits="userSpaceOnUse" xlink:href="#a"/><linearGradient id="j" x1="50.051" x2="184.4" y1="154.32" y2="254.73" gradientUnits="userSpaceOnUse" xlink:href="#a"/></defs><g transform="translate(-2.2714 -96.313)"><g transform="matrix(.22004 0 0 .26458 2.2832 96.326)" style="stroke-width:1.0966"><path d="m383.74 513.2s-20.169 9.8831-29.267 12.954c-9.3939 3.1711-22.408 5.811-32.145 7.6765-8.8564 1.6967-20.736 3.9521-29.746 4.318-15.995 0.64956-37.588-0.0739-53.256-3.3585-23.397-4.9049-74.846-27.347-74.846-27.347l-70.528-35.983s-37.703-25.506-51.816-38.862c-10.24-9.6902-24.474-23.112-30.226-35.983-2.9068-6.5044-3.3585-23.509-3.3585-23.509l4.7978-5.7574s-4.855-5.6559-5.7574-8.636c-0.45881-1.5153-0.12073-3.6989 0-5.2776 0.14435-1.8876 1.0657-4.347 0.95956-6.2371-0.49321-8.785-6.8157-19.55-7.6765-28.307-0.81859-8.3279-0.3638-19.777 1.9191-27.827 2.6171-9.229 9.4575-20.389 14.873-28.307 10.771-15.747 27.718-35.042 41.741-47.978 13.013-12.004 32.111-26.266 47.498-35.024 12.221-6.9556 30.057-13.181 43.18-18.232 22.048-8.4853 74.366-25.908 74.366-25.908s34.293-17.608 50.377-18.711c2.6478-0.18161 5.9822 1.8947 8.6361 1.9191 1.8427 0.0169 4.7462 0.1098 6.0198-1.2221 1.1737-1.2274-0.1822-4.2651 0.8771-5.5924 3.3465-4.193 11.878-4.0964 16.612-6.6194 5.8486-3.1167 12.83-8.6341 18.232-12.474 9.4786-6.7392 21.074-17.283 31.186-23.029 17.779-10.104 43.299-20.394 62.851-26.388 16.841-5.1624 40.628-6.706 57.574-11.515 5.1698-1.4671 11.787-4.282 16.792-6.2371 14.49-5.6597 33.289-14.55 47.978-19.671 5.3767-1.8744 12.584-4.5503 18.232-5.2776 5.5693-0.71717 13.114 0.02933 18.711 0.47978 11.728 0.94384 27.178 3.8906 38.862 5.2776 8.4764 1.0063 19.773 3.0738 28.307 2.8787 3.9276-0.08982 9.0277-1.787 12.954-1.9191 10.823-0.36407 25.279 1.238 35.983 2.8787 21.744 3.3327 50.305 10.38 71.487 16.312 11.396 3.1913 26.94 6.982 37.423 12.474 4.4622 2.338 10.123 6.2787 13.434 10.075 1.948 2.2337 2.4994 6.7648 4.7978 8.636 11.227 9.1398 33.673 6.8991 46.059 14.393 4.3539 2.6344 9.74 7.4323 11.994 11.994 4.8248 9.7635 4.7978 35.983 4.7978 35.983l-0.4798 21.11-3.8382 14.873s-3.7428-17.537-7.6765-23.989c-2.0134-3.3021-8.6128-4.7599-12.298-5.9338-6.5384-2.0829-14.392-0.8388-20.428 2.424-7.2574 3.9225-15.743 14.063-21.624 21.164s-11.069 14.579-16.178 24.566-9.997 28.586-12.474 38.862-2.2841 13.493-2.8532 22.372c-0.2672 4.168-0.0253 14.394 1.3635 18.333 0.4787 1.3574 0.559 3.1273 1.2877 4.3686 0.7177 1.2225 1.13 4.9177 0.6817 6.2626-4.4828 13.448-41.261 23.029-41.261 23.029l-56.614 32.145-51.816 27.827-136.26 85.881c8.1733-20.907 6.7948-19.338 8.2256-34.626 1.9936-16.904-0.0891-23.761-0.7954-36.615-7.8746-19.153-8.6519-19.676-19.109-30.39-7.9963-1.2794-10.374-2.5588-21.742-2.1526-17.859 5.3554-18.863 6.2158-32.789 15.504-10.149 8.7011-21.312 20.417-32.694 34.531-7.0069 8.6888-13.084 22.906-19.835 39.506-4.3074 10.591-6.1861 24.888-6.9632 36.312-0.8221 12.085-0.6241 24.421 0.4798 36.463 0.6553 7.149 3.1985 14.074 4.7978 21.11z" style="fill-rule:evenodd;fill:#d40000;stroke-width:1.0966;stroke:#000"/><path d="m7.5563 371.48s9.8338 20.444 15.732 28.094c8.153 10.573 21.609 22.552 32.027 30.903 17.655 14.152 43.314 30.299 62.93 41.579 17.122 9.8453 40.811 21.513 58.997 29.217 14.825 6.2807 34.991 13.908 50.568 17.98 11.582 3.0278 27.459 5.2067 39.331 6.7425 9.5652 1.2373 21.268 1.5594 30.903 1.1237 15.227-0.68857 36.306-3.7602 51.13-7.3043 10.27-2.4552 33.712-10.114 33.712-10.114" style="fill:none;stroke-width:1.0966;stroke:#000"/><path d="m40.707 418.67-5.0568-20.789s21.385 16.855 30.903 23.599c10.528 7.4602 24.672 17.348 35.96 23.599 12.009 6.65 28.754 14.209 41.579 19.104 8.5679 3.27 29.217 8.99 29.217 8.99l-0.56187-1.1237" style="fill:none;stroke-width:1.0966;stroke:#000"/><path d="m323.33 509.7-20.227-20.789c-2.5143-5.9423-3.0421-6.9184-3.3713-10.676-0.8059-4.0013-1.0159-4.2282 0.5619-8.4281 2.2361-4.0354 2.6844-3.899 7.3044-6.7425l35.96-10.114 22.475-8.4281c-0.7832 13.218-0.7718 13.127-0.5618 24.16 0.3405 11.317 0.2837 11.112 2.8093 29.779l-44.95 11.237z" style="fill:none;stroke-width:1.0966;stroke:#000"/><path d="m367.72 497.9-35.96-8.4281-1.6857-32.589v-0.56187" style="fill:none;stroke-width:1.0966;stroke:#000"/><path d="m331.3 488.87-2.8434 2.6789c-1.8522 1.7973-9.7695 3.3773-17.418 5.6187" style="fill:none;stroke-width:1.0966;stroke:#000"/><path d="m183.54 503.94-9.5353-30.99c-6.8301-11.735-5.6089-19.522-1.5892-30.99 0 0 16.112-22.708 23.838-31.784 11.802-13.865 28.155-32.013 42.114-43.703 21.34-17.871 53.128-37.464 77.077-51.649 17.797-10.541 42.073-23.873 61.185-31.784 4.3886-1.8167 15.098-4.7676 15.098-4.7676" style="fill:none;stroke-width:1.0966;stroke:#000"/><path d="m188.79 436.85s12.928-18.152 19.865-24.633c8.505-7.946 21.229-17.344 31.784-22.249 10.959-5.093 26.966-8.664 38.936-10.33 13.696-1.9062 32.261-1.0267 46.087-0.79461 14.081 0.23632 46.882 2.3838 46.882 2.3838s-30.184 26.094-43.703 36.552c-9.7321 7.528-22.409 18.255-33.374 23.838-8.7327 4.4469-21.316 8.7601-30.99 10.33-6.8238 1.1074-16.173 0.76342-23.044 0-9.7139-1.0793-22.431-4.3169-31.784-7.1515-6.3552-1.9259-20.66-7.9461-20.66-7.9461z" style="fill:none;stroke-width:1.0966;stroke:#000"/><path d="m372.63 381.56c4.9068 0.38514 3.071-0.35347 8.8206 0.3126 5.0164-0.36402 13.404 1.5194 18.14 5.9313" style="fill:none;stroke-width:1.0966;stroke:#000"/><path d="m19.917 343.38s18.335-15.082 23.599-23.599c4.4838-7.2549 7.3444-18.601 8.99-26.97 1.9557-9.9457 2.6836-23.586 2.2475-33.712-0.38158-8.8601-4.495-29.217-4.495-29.217s-32.631 32.253-41.579 49.445c-2.4163 4.6424-3.9232 11.654-4.495 16.856-0.8848 8.0495-1.5276 19.318 1.1237 26.97 2.4508 7.0728 14.609 20.227 14.609 20.227z" style="fill:none;stroke-width:1.0966;stroke:#000"/><path d="m18.794 342.26s15.328 15.401 22.475 21.351c10.572 8.8016 25.382 19.738 37.084 26.97 17.444 10.781 41.76 23.562 60.682 31.465 11.117 4.6428 38.207 12.361 38.207 12.361" style="fill:none;stroke-width:1.0966;stroke:#000"/><path d="m307.69 107.24-75.75 53-31.75 32-7.25 14.75 1 13.5 7.25 9.75 17 15.5s29.258 18.302 42.75 24.25c5.9898 2.6408 14.355 5.3526 20.75 6.75 12.688 2.7724 30.021 4.5474 43 5 16.282 0.56774 38.062-0.66367 54.25-2.5 19.163-2.1738 44.492-7.0196 63.25-11.5 23.288-5.5624 54.059-14.403 76.5-22.75 13.183-4.9031 30.624-12.123 42.75-19.25 16.682-9.8049 36.842-26.164 51.75-38.5 7.6885-6.3618 24.5-22.5 24.5-22.5l3.4999-15.25-3.7499-19-3.75-14.75s-28.02 8.511-40 12.25c-16.302 5.088-37.684 13.1-54.25 17.25-9.9884 2.5025-23.541 4.9048-33.75 6.25-16.037 2.113-37.59 2.4589-53.75 1.75-17.171-0.75326-39.737-3.2022-56.5-7-14.076-3.1892-32.859-7.8654-46.25-13.25-5.6651-2.278-12.785-6.3243-18-9.5-4.3714-2.662-14-9.75-14-9.75l-4.5-6.75-1.25-1.75z" style="fill-rule:evenodd;fill:#916f6f;stroke-width:1.0966;stroke:#000"/><path d="m32.345 354.89 79.196-77.782 86.267-82.024" style="fill:none;stroke-width:1.0966;stroke:#000"/><path d="m6.8894 341.11s16.214 17.976 24.042 24.749c11.487 9.94 28.215 21.514 41.012 29.698 16.803 10.746 40.565 24.767 57.983 32.527 15.704 6.9962 42.666 17.259 59.397 21.213 19.759 4.6692 62.225 14.142 62.225 14.142l26.87-5.6568s16.152-5.2243 22.628-8.4853c7.6726-3.8641 17.221-10.333 24.042-15.556 9.0633-6.941 13.773-10.492 30.406-24.042 16.974-13.827 38.107-39.429 55.861-55.154 16.226-14.371 37.618-33.93 55.154-46.669 16.955-12.318 41.351-26.115 59.397-36.77 13.413-7.9196 45.255-25.456 45.255-25.456" style="fill:none;stroke-width:1.0966;stroke:#000"/><path d="m195.55 479.61c-0.12122 1.0078 0.18124 2.383 0.5019 3.346 0.46821 1.4062 1.4166 3.1923 2.3422 4.3498 1.9107 2.3896 5.1996 4.923 7.6958 6.692 2.7326 1.9365 6.6692 4.1028 9.7034 5.5209 3.2516 1.5197 8.543 4.1466 11.919 5.3655 5.3001 1.9136 11.567 3.6041 17.024 5.0071 3.5003 0.89984 8.277 1.7054 11.878 2.0076 4.3512 0.36512 10.457 1.5065 14.555 0 1.2366-0.45452 2.7227-1.6835 3.3461-2.8441 0.5979-1.1134 0.6625-2.929 0.5019-4.1825-0.3839-2.9953-2.2205-6.7256-3.6807-9.3688-1.7182-3.1106-4.4554-7.0831-7.0266-9.5361-1.7021-1.6239-4.3835-3.3753-6.5247-4.3498-2.6042-1.1853-6.3947-1.9542-9.2016-2.5095-3.9695-0.78527-9.3714-1.1506-13.384-1.673-4.8215-0.62779-11.225-1.6675-16.061-2.1749-3.3537-0.35189-7.8382-0.75012-11.209-0.8365-2.158-0.0553-7.1939 0.1673-7.1939 0.1673s-2.8336 0.5242-3.6806 1.3384c-0.8601 0.82674-1.3632 2.4961-1.5057 3.6806z" style="fill:none;stroke-width:1.0966;stroke:#000"/><path d="m209.8 474.39s1.189 5.6886 2.3422 7.8631c0.66843 1.2604 1.9701 2.7054 3.0114 3.6806 1.2605 1.1806 3.1648 2.5255 4.6844 3.346 2.321 1.2532 5.7124 2.2951 8.1977 3.1787 3.5294 1.2548 8.3116 2.7037 11.878 3.8479 4.2623 1.3673 9.9533 3.1656 14.221 4.5171 3.8134 1.2078 8.8277 3.071 12.715 4.0152 1.4353 0.34866 3.3748 0.83239 4.8517 0.83651 0.9159 3e-3 3.0115-0.50191 3.0115-0.50191" style="fill:none;stroke-width:1.0966;stroke:#000"/><path d="m530.02 242.16 4.2588 11.83s3.4673 15.48 3.7856 22.24c0.4486 9.5272-1.7571 22.186-2.366 31.704-0.6807 10.64-1.7154 24.829-1.8928 35.49-0.1181 7.0984-1.8799 16.962 0.4732 23.66 1.5435 4.3934 5.0491 10.822 9.4639 12.303 5.7207 1.9194 8.6182-0.44197 19.638-7.098 3.3189-2.0046 7.5139-5.4598 10.174-8.281 3.6359-3.8565 4.4132-10.176 7.5712-14.433 13.28-17.9 44.125-28.491 59.15-44.954 2.7084-2.9676 5.508-7.667 7.098-11.357 1.3354-3.0988 1.0852-8.0008 2.8391-10.884 7.9415-13.053 37.856-34.07 37.856-34.07s18.495-37.184 22.24-54.418c0.7542-3.4708 1.2768-8.3702 0.4732-11.83-0.8766-3.7743-3.3099-8.7226-6.1516-11.357-4.334-4.0175-17.982-8.0444-17.982-8.0444l-17.035-4.732s-9.6058-22.09-15.142-30.758c-2.5541-3.9984-6.4951-9.0378-9.9371-12.303-3.6875-3.4982-13.723-9.9372-13.723-9.9372s-27.804 10.983-39.749 15.616c-11.479 4.4514-25.561 9.3373-37.383 12.776-8.2069 2.3874-28.865 7.5712-28.865 7.5712v104.1l5.2052-2.8392z" style="fill:none;stroke-width:1.0966;stroke:#000"/><path d="m536.01 250.57s19.305-8.6937 27.437-12.715c3.8639-1.9106 8.9731-4.5519 12.715-6.692 23.165-13.249 53.726-31.586 75.62-46.844 17.133-11.94 38.608-29.734 54.875-42.829 10.772-8.6721 25.253-19.686 36.472-27.772 7.0954-5.1141 16.361-12.396 23.757-17.065 7.8643-4.9646 59.559-35.468 59.559-35.468" style="fill:none;stroke-width:1.0966;stroke:#000"/><path d="m578.29 355.26 11.357 0.9464 40.695-27.445 60.569-35.963 35.963-26.499 21.767-43.534 9.464-35.017-58.676 39.749" style="fill:none;stroke-width:1.0966;stroke:#000"/><path d="m751.48 191.53-11.357 35.017-6.6248 11.357s-5.9014 1.8064-8.5176 1.8928c-3.7323 0.12325-9.2854 0.30697-12.303-1.8928-2.0521-1.4959-2.5636-5.3451-3.7856-7.5712-0.7967-1.4512-2.3973-3.1365-2.8392-4.732-0.0758-0.27361 0-0.94639 0-0.94639" style="fill:none;stroke-width:1.0966;stroke:#000"/><path d="m737.29 230.33-9.4639 23.66-9.464 13.25-99.372 64.355-26.499 18.928" style="fill:none;stroke-width:1.0966;stroke:#000"/><path d="m741.25 101.49s-14.556-5.53-24.606-9.464c-8.5344-3.3406-20.277-7.1446-29.338-8.5176-15.442-2.3396-36.504-2.4226-52.052-0.94639-16.464 1.5631-38.072 6.7131-53.944 11.357-10.78 3.1538-24.468 9.3928-35.017 13.25-4.8072 1.7576-16.089 5.6784-16.089 5.6784" style="fill:none;stroke-width:1.0966;stroke:#000"/><path d="m578.94 73.688c0.9464-8.5176-18.109-8.1457-26.978-10.057-11.41-2.4587-27.142-3.3545-38.802-2.8392-12.357 0.54614-28.551 4.2754-40.695 6.6248-13.999 2.7082-32.793 6.0652-46.373 10.41-5.5747 1.7837-17.982 7.5712-17.982 7.5712s-3.4088 4.5389-2.8392 6.6248c1.3912 5.0946 9.425 8.1456 14.196 10.41 7.1541 3.3961 25.553 6.6248 25.553 6.6248l16.089-1.8928s29.137-8.6544 41.641-12.303c16.735-4.8831 35.954-12.127 53.009-15.735 7.1496-1.5124 14.866-3.9522 23.323-5.0918s17.656-0.97887 24.943-1.533c18.404-1.3994 45.903-2.0553 64.344-1.2999 11.686 0.47864 27.479 1.0554 38.802 3.7856s21.564 4.934 27.478 9.5997 6.689 4.3887 7.5087 6.9891-0.0985 0.5787 0.5303 4.1499-0.7729 6.67-1.0089 6.1979" style="fill:none;stroke-width:1.0966;stroke:#000"/><path d="m418.92 101.75c-8.0092-2.5113-17.842-8.2815-19.55-14.574 2.2755-6.6472 7.7859-9.1358 12.505-10.951 0 0 24.078-7.8289 34.799-11.018 11.021-3.2783 18.54-4.3915 29.904-6.1376 13.436-2.0644 30.104-4.5405 43.694-4.2448 10.012 0.21781 32.122 1.4316 42.059 2.6768 17.522 2.1958 23.537 5.0289 23.537 5.0289 3.123 5.1735 5.2995 6.5614 5.1101 9.842" style="fill:none;stroke-width:1.0966;stroke:#000"/><path d="m804.86 56.153-77.812-25.645-76.658-13.25-7.5712 0.94639-17.035 4.732 133.44 38.802 0.3018 17.201" style="fill:none;stroke-width:1.0966;stroke:#000"/><path d="m580.36 219.79 62.462-38.802 29.338-23.66 65.301-49.213 22.714-29.338 58.25-25.917" style="fill:none;stroke-width:1.0966;stroke:#000"/><path d="m631.97 60.384s-25.307-12.083-36.77-15.556c-8.68-2.6303-20.73-4.3065-29.698-5.6569-15.196-2.288-35.545-5.8118-50.912-5.6568-16.26 0.16399-39.089-1.1016-55.154 1.4142" style="fill:none;stroke-width:1.0966;stroke:#000"/><path d="m626.31 57.556-33.941 14.142" style="fill:none;stroke-width:1.0966;stroke:#000"/><path d="m634.8 8.0584-69.296 28.284" style="fill:none;stroke-width:1.0966;stroke:#000"/><path d="m633.39 29.272-31.113 15.556" style="fill:none;stroke-width:1.0966;stroke:#000"/><path d="m525.36 140.61s-26.791 4.5565-38.5 5.5c-8.3942 0.6764-22.579 0.91735-31 1-8.7112 0.0855-17.848-1.4796-26.5-2.5-12.272-1.4473-28.521-4.4693-40.5-7.5-9.9332-2.5131-23.225-6.1451-32.5-10.5-8.3622-3.9264-15.899-6.7496-23.5-12-3.7026-2.5576-11.802-9.8987-14.5-13.5-0.7685-1.0256-1.5-4-1.5-4l-1 0.5" style="fill:none;stroke-width:1.0966;stroke:#000"/><path d="m439.39 107.3c-10.732-2.2098-19.088-4.6676-20.468-6.0202-0.2413-0.2365-1.0368-0.6214-1.7678-0.85534-2.4156-0.77309-6.8087-3.2356-8.5247-4.7784-0.929-0.83523-1.9826-2.1697-2.3415-2.9655l-0.6525-1.4469 2.6606-5.2416 4.4716-2.0196c14.866-6.7141 20.616-8.2562 58.389-15.661 34.053-6.6754 35.399-6.8616 49.497-6.8502 11.059 0.0089 20.215 0.75753 29.064 2.3764 2.5853 0.47297 6.6098 1.1093 8.9432 1.4141 9.8272 1.2835 13.841 2.1693 16.588 3.6607 1.8136 0.98473 3.0312 2.5233 3.0334 3.8329 2e-3 0.82248-8e-3 0.82603-4.2413 1.5434-3.4784 0.58949-25.314 5.8172-30.936 7.4066-4.9566 1.4012-12.638 3.7734-29.533 9.1208-4.9646 1.5714-18.805 5.7475-30.756 9.2804l-21.73 6.4234-16.161 1.9193-5.534-1.1395z" style="fill:#916f6f;stroke-width:1.0966"/><path transform="matrix(1.0792 0 -.15576 1.2552 339.31 -308.46)" d="m569.93 410.77a48.084 68.59 0 1 1-96.167 0 48.084 68.59 0 1 1 96.167 0z" style="fill:#280b0b;stroke-width:1.0966"/><path d="m815.62 290.73-34.737-19.799" style="fill:none;stroke-width:1.0966;stroke:#000"/><path d="m793.38 277.9-12.13-7.0595 3.6721-2.446c-0.311-0.68273 4.6602-4.1162 2.2921-4.4162-0.4137-0.0524 2.7845-0.40521 1.8562-3.0564-0.6046-1.7265 0.6433-2.6662-0.9761-6.0796-0.8168-1.7216-1.7136-5.6355-1.8701-6.7052-0.9349-6.3925-0.5215-6.9296-0.6062-8.4853l0.553-2.3865 4.2369 20.594c5.3193 13.425 0.2635 0.58536 5.3868 12.872 0.8914 2.1377 13.788 16.89 13.629 16.721-0.1091-0.11679-9.3584-5.1736-15.69-9.7288l-0.3536 0.17678z" style="fill:#483737;stroke-width:1.0966"/><path transform="matrix(.87554 0 -.12637 1 432.37 -202.67)" d="m569.93 410.77a48.084 68.59 0 1 1-96.167 0 48.084 68.59 0 1 1 96.167 0z" style="fill:#e3dbdb;stroke-width:1.0966"/><path transform="matrix(.73298 0 -.10579 .8688 498.32 -150.27)" d="m569.93 410.77a48.084 68.59 0 1 1-96.167 0 48.084 68.59 0 1 1 96.167 0z" style="stroke-width:1.0966"/><path transform="matrix(.21021 0 -.03034 .24917 740.46 106.23)" d="m569.93 410.77a48.084 68.59 0 1 1-96.167 0 48.084 68.59 0 1 1 96.167 0z" style="fill:#e3dbdb;stroke-width:1.0966"/><path transform="matrix(1.4874 0 -.21467 1.6705 -238.51 -249.58)" d="m569.93 410.77a48.084 68.59 0 1 1-96.167 0 48.084 68.59 0 1 1 96.167 0z" style="fill:#280b0b;stroke-width:1.0966"/><path d="m417.93 547.9-47.874-26.351" style="fill:none;stroke-width:1.4851;stroke:#000"/><path d="m387.28 530.82-16.718-9.3956 5.0609-3.2555c-0.4287-0.90866 6.4225-5.4783 3.1589-5.8776-0.5702-0.0698 3.8376-0.5393 2.5582-4.0678-0.8333-2.2978 0.8866-3.5485-1.3453-8.0914-1.1257-2.2913-2.3616-7.5004-2.5773-8.9241-1.2885-8.5078-0.7187-9.2228-0.8355-11.293l0.7622-3.1762 5.8393 27.409c7.3309 17.867 0.3631 0.77906 7.424 17.131 1.2285 2.8451 19.002 22.48 18.783 22.254-0.1504-0.15544-12.898-6.8857-21.624-12.948l-0.4872 0.23529z" style="fill:#483737;stroke-width:1.0966"/><path transform="matrix(1.2067 0 -.17416 1.3309 -110.25 -108.77)" d="m569.93 410.77a48.084 68.59 0 1 1-96.167 0 48.084 68.59 0 1 1 96.167 0z" style="fill:#e3dbdb;stroke-width:1.0966"/><path transform="matrix(1.0102 0 -.1458 1.1563 -19.365 -39.028)" d="m569.93 410.77a48.084 68.59 0 1 1-96.167 0 48.084 68.59 0 1 1 96.167 0z" style="fill:#ac9393;stroke-width:1.0966"/><path transform="matrix(.28972 0 -.041815 .33162 314.08 301.06)" d="m569.93 410.77a48.084 68.59 0 1 1-96.167 0 48.084 68.59 0 1 1 96.167 0z" style="fill:#e3dbdb;stroke-width:1.0966"/><path transform="matrix(1 0 -.049021 .9988 0 0)" d="m843.79 217.27h6.364v57.699h-6.364z" style="fill:#e3dbdb;stroke-width:1.0966"/><path id="g" transform="matrix(.76407 .64514 -.68182 .73152 0 0)" d="m750.56-387.98h6.364v57.699h-6.364z" style="fill:#e3dbdb;stroke-width:1.0966"/><use transform="translate(33.941,-34.648)" width="1044" height="782" style="stroke-width:1.0966" xlink:href="#g"/><path id="f" transform="matrix(1 0 -.049021 .9988 0 0)" d="m843.65 142.23h6.364v57.699h-6.364z" style="fill:#e3dbdb;stroke-width:1.0966"/><use id="e" transform="matrix(.80328 0 .55195 .60736 84.771 120.48)" width="1044" height="782" style="stroke-width:1.0966" xlink:href="#f"/><use transform="matrix(1 0 0 .94949 -30.759 -21.378)" width="1044" height="782" style="stroke-width:1.0966" xlink:href="#e"/><path d="m420.83 547.96-45.67-25.982" style="fill:none;stroke-width:1.4403;stroke:#000"/><path d="m391.59 531.12-15.948-9.2641 4.8279-3.2099c-0.4089-0.89592 6.127-5.4016 3.0135-5.7954-0.5439-0.0688 3.6609-0.53177 2.4404-4.0108-0.7949-2.2657 0.8458-3.4989-1.2834-7.9782-1.0739-2.2592-2.2528-7.3954-2.4586-8.7992-1.2292-8.3887-0.6856-9.0936-0.797-11.135l0.7271-3.1317 5.5704 27.026c6.9935 17.617 0.3464 0.76814 7.0822 16.891 1.172 2.8053 18.127 22.165 17.919 21.942-0.1434-0.15327-12.304-6.7893-20.628-12.767l-0.4649 0.23198z" style="fill:#483737;stroke-width:1.0966"/><path transform="matrix(1.1511 0 -.16614 1.3123 -83.038 -99.514)" d="m569.93 410.77a48.084 68.59 0 1 1-96.167 0 48.084 68.59 0 1 1 96.167 0z" style="fill:#e3dbdb;stroke-width:1.0966"/><path transform="matrix(.96368 0 -.13909 1.1401 3.6626 -30.751)" d="m569.93 410.77a48.084 68.59 0 1 1-96.167 0 48.084 68.59 0 1 1 96.167 0z" style="stroke-width:1.0966"/><path transform="matrix(.27638 0 -.03989 .32698 322.01 305.85)" d="m569.93 410.77a48.084 68.59 0 1 1-96.167 0 48.084 68.59 0 1 1 96.167 0z" style="fill:#e3dbdb;stroke-width:1.0966"/><path transform="matrix(1 0 -.049112 .99879 0 0)" d="m464.71 453.18h8.367v75.717h-8.367z" style="fill:#e3dbdb;stroke-width:1.0966"/><path transform="matrix(.76466 .64443 -.6825 .73089 0 0)" d="m622.9 40.234h8.3605v75.783h-8.3605z" style="fill:#e3dbdb;stroke-width:1.0966"/><use transform="matrix(1.3147,4.1513e-8,4.5911e-8,1.3123,-608.29,122.39)" width="1044" height="782" style="stroke-width:1.0966" xlink:href="#g"/><path transform="matrix(1 0 -.049112 .99879 0 0)" d="m464.53 354.7h8.367v75.717h-8.367z" style="fill:#e3dbdb;stroke-width:1.0966"/><use transform="matrix(1.0561 0 .72567 .79703 -541.46 325.95)" width="1044" height="782" style="stroke-width:1.0966" xlink:href="#f"/><use transform="matrix(1.3147,0,0,1.246,-693.35,139.8)" width="1044" height="782" style="stroke-width:1.0966" xlink:href="#e"/><path d="m560.03 223.98c4.5156 2.0028 10.983 3.883 15.91 4.2426 2.7687 0.20209 6.4877-0.43567 9.1924-1.0607 3.7261-0.86099 8.5007-2.7482 12.021-4.2426 3.9297-1.6682 10.087-3.0098 12.728-6.364 0.8754-1.1118 0.8654-3.1946 1.0606-4.5962 0.293-2.1037 0.7573-4.9858 0.3536-7.0711-0.2886-1.491-1.2314-3.3656-2.1213-4.5962-1.2754-1.7634-3.4124-3.8725-5.3033-4.9497-3.9371-2.2429-10.155-2.9442-14.496-4.2426-3.8252-1.1442-8.7353-3.8789-12.728-3.8891-2.2147-6e-3 -5.0702 1.1718-7.071 2.1213-3.9334 1.8667-8.9032 5.0926-12.021 8.1317-1.3067 1.2738-2.8928 3.2419-3.5356 4.9497-1.1264 2.9929-1.1393 7.4097-1.0606 10.607 0.0528 2.1444-0.1018 5.2683 1.0606 7.0711s4.0472 3.0184 6.0104 3.8891z" style="fill:none;stroke-width:1.0966;stroke:#000"/><path d="m576.33 228.54 1.0208 12.758s-6.0892 2.3264-8.8389 2.4749c-1.9327 0.10433-4.5233-0.46211-6.3639-1.0607-1.1278-0.36672-2.7422-0.88645-3.5356-1.7678-0.6063-0.6735-0.9347-1.931-1.0606-2.8284-0.3698-2.6343 0.7071-8.8388 0.7071-8.8388l0.9162-5.368" style="fill:none;stroke-width:1.0966;stroke:#000"/><path d="m560.52 224s15.256 0.6848 19.659-0.0248c4.3755-0.7052 9.9105-3.1578 13.789-5.3033 3.7123-2.0539 8.1086-5.7055 11.314-8.4853 1.8131-1.5725 5.6568-5.6569 5.6568-5.6569" style="fill:none;stroke-width:1.0966;stroke:#000"/><path d="m561.89 223.31c-2.3254-0.2649-5.5546-2.0375-6.573-3.608-1.0393-1.6029-1.231-3.3796-1.0296-9.5436 0.2211-6.7695 0.6825-8.2057 3.6736-11.437 4.1862-4.5216 12.772-9.658 17.795-10.646 2.272-0.44699 3.9961-0.0876 9.4985 1.9804 2.3586 0.8864 6.9322 2.2604 10.163 3.0534 3.5944 0.88208 6.6369 1.8136 7.8374 2.3995 2.4652 1.2032 5.7471 4.4447 6.962 6.8764l0.8593 1.7199-2.338 2.3738c-4.4788 4.5474-11.093 9.7261-15.555 12.18-2.9386 1.6158-8.3284 3.7122-11.182 4.3494-2.1577 0.48175-3.6454 0.55604-10.499 0.52421-4.3919-0.0204-8.7172-0.12046-9.6118-0.22238z" style="stroke-width:1.0966"/><path d="m573.43 227.14c-2.8382-0.51677-8.2359-1.9327-8.5446-2.2414-0.0706-0.0707 3.3868-0.12117 7.6831-0.11227 7.4953 0.0155 7.9234-0.0145 10.575-0.74225 4.6716-1.2821 9.9768-3.6454 13.946-6.2128 3.0623-1.9806 7.8814-5.9247 11.164-9.1373l3.0314-2.9664-9e-3 1.7567c-0.0124 2.3279-0.7252 7.5731-1.1325 8.3343-0.9193 1.7177-3.0432 2.8637-10.941 5.903-14.608 5.6218-19.271 6.6023-25.773 5.4184z" style="stroke-width:1.0966"/><path d="m564.26 242.44c-3.0092-0.80103-4.4303-1.5796-5.0278-2.7544-0.6421-1.2627-0.5345-5.0625 0.2955-10.434 0.6606-4.275 0.7356-4.5256 1.3116-4.384 0.3361 0.0826 1.969 0.63137 3.6287 1.2194 3.2092 1.1371 8.8172 2.5131 10.291 2.5251 0.488 4e-3 1.0383 0.10498 1.2229 0.22449 0.2884 0.18674 1.4704 11.83 1.2241 12.059-0.0445 0.0414-1.4118 0.49675-3.0385 1.0119-4.0063 1.2688-6.6154 1.4091-9.9075 0.5327z" style="stroke-width:1.0966"/><path d="m301.79 99.205c-1.7992 1.8503-5.8838 1.2978-8.3651 2.0076-2.7467 0.7858-6.1856 2.7945-9.0342 3.0114-3.5543 0.2706-8.3593-0.79442-11.711-2.0076-2.0722-0.75006-5.2227-1.7914-6.3574-3.6806-1.448-2.411-1.3386-6.7417-0.3346-9.3688 1.2926-3.3821 5.5473-6.426 8.365-8.6996 4.3144-3.4812 10.183-9.7629 15.726-9.7034 2.0324 0.02181 4.2881 2.2072 5.6882 3.6806 2.0756 2.1842 3.9013 5.9016 5.0191 8.6996 1.1109 2.7809 2.2982 6.7091 2.3422 9.7034 0.0286 1.9488 0.0203 4.96-1.3384 6.3574z" style="fill:none;stroke-width:1.0966;stroke:#000"/><path d="m278.81 103.17s-1.4062 11.179 0.5043 14.827c0.5639 1.0767 2.0463 1.5663 3.0256 1.6849 1.7731 0.21473 4.1959-0.65013 5.7991-1.6849 0.9681-0.62483 2.3744-1.6987 2.7735-3.0328 1.132-3.784-1.2607-13.479-1.2607-13.479l0.5043 2.0219" style="fill:none;stroke-width:.95526;stroke:#000"/><path d="m277.83 102.96c-4.7931-1.0285-9.8998-3.2258-10.843-4.6656-1.4175-2.1634-1.2628-7.401 0.2965-10.039 1.0553-1.7852 2.9393-3.5644 9.6861-9.1467 6.4213-5.3131 8.8643-6.8895 11.536-7.4442 1.717-0.35645 1.9809-0.32597 3.3176 0.38316 5.7638 3.0577 11.772 16.814 10.455 23.938-0.4993 2.7012-1.2961 3.4284-4.2326 3.8628-1.2728 0.18829-3.2928 0.57335-4.489 0.85567s-2.5996 0.55649-3.1187 0.60925c-0.5191 0.0528-1.1213 0.32448-1.3384 0.60381-1.1046 1.4214-6.9742 1.9648-11.269 1.0432z" style="stroke-width:1.0966"/><path d="m281.24 118.72c-0.6864-0.30792-1.2682-0.9064-1.5476-1.5918-0.6534-1.6033-0.9467-5.5634-0.6853-9.2511l0.2285-3.2237h3.5598c2.6229 0 3.9359-0.15411 4.9887-0.58555 0.7858-0.32206 1.484-0.58555 1.5514-0.58555 0.3782 0 1.013 5.0203 1.0231 8.0905 0.0116 3.513-5e-3 3.591-0.9818 4.6121-2.1098 2.2055-6.1 3.4487-8.1368 2.535z" style="stroke-width:1.0966"/><path d="m169.86 304.11 57.75-53.25-18.5 15.5 33.5 15.75 17.75-11.25-67.75 46.25 39.25-27-25.75-11-5.25 3.25-8.25 6-10.25 7.25z" style="fill:none;stroke-width:1.0966;stroke:#000"/><path d="m207.61 279.86 1-13.25" style="fill:none;stroke-width:1.0966;stroke:#000"/><path d="m503.36 321.61s31.559-24.73 46-34c21.922-14.072 54.005-28.042 76-42 40.636-25.787 91.809-64.714 130-94 19.631-15.054 42.25-40.212 64-52 15.514-8.4084 56-18 56-18" style="fill:none;stroke-width:1.0966;stroke:#000"/><path d="m307.69 107.24-75.75 53-31.75 32-7.25 14.75 1 13.5 7.25 9.75 17 15.5s29.258 18.302 42.75 24.25c5.9898 2.6408 14.355 5.3526 20.75 6.75 12.688 2.7724 30.021 4.5474 43 5 16.282 0.56774 38.062-0.66367 54.25-2.5 19.163-2.1738 44.492-7.0196 63.25-11.5 23.288-5.5624 54.059-14.403 76.5-22.75 13.183-4.9031 30.624-12.123 42.75-19.25 16.682-9.8049 36.842-26.164 51.75-38.5 7.6885-6.3618 24.5-22.5 24.5-22.5l3.4999-15.25-3.7499-19-3.75-14.75s-28.02 8.511-40 12.25c-16.302 5.088-37.684 13.1-54.25 17.25-9.9884 2.5025-23.541 4.9048-33.75 6.25-16.037 2.113-37.59 2.4589-53.75 1.75-17.171-0.75326-39.737-3.2022-56.5-7-14.076-3.1892-32.859-7.8654-46.25-13.25-5.6651-2.278-12.785-6.3243-18-9.5-4.3714-2.662-14-9.75-14-9.75l-4.5-6.75-1.25-1.75z" style="fill-rule:evenodd;fill:url(#u);stroke-width:1.0966;stroke:#000"/><path d="m439.39 107.3c-10.732-2.2098-19.088-4.6676-20.468-6.0202-0.2413-0.2365-1.0368-0.6214-1.7678-0.85534-2.4156-0.77309-6.8087-3.2356-8.5247-4.7784-0.929-0.83523-1.9826-2.1697-2.3415-2.9655l-0.6525-1.4469 2.6606-5.2416 4.4716-2.0196c14.866-6.7141 20.616-8.2562 58.389-15.661 34.053-6.6754 35.399-6.8616 49.497-6.8502 11.059 0.0089 20.215 0.75753 29.064 2.3764 2.5853 0.47297 6.6098 1.1093 8.9432 1.4141 9.8272 1.2835 13.841 2.1693 16.588 3.6607 1.8136 0.98473 3.0312 2.5233 3.0334 3.8329 2e-3 0.82248-8e-3 0.82603-4.2413 1.5434-3.4784 0.58949-25.314 5.8172-30.936 7.4066-4.9566 1.4012-12.638 3.7734-29.533 9.1208-4.9646 1.5714-18.805 5.7475-30.756 9.2804l-21.73 6.4234-16.161 1.9193-5.534-1.1395z" style="fill:url(#t);stroke-width:1.0966"/><path d="m307.27 492.1c-9.2032-10.104-8.9176-23.948 0.57075-27.67 5.8112-2.2794 20.364-6.2573 20.835-5.6951 0.22327 0.26644 0.80937 6.9116 1.3025 14.767 1.0193 16.238 0.44029 17.445-9.6963 20.217-8.0126 2.1911-9.7366 1.9765-13.012-1.6193h-3e-5z" style="fill-opacity:.84666;fill:#333;stroke-width:1.0966"/><path d="m247.45 497.62c-12.834-4.1007-25.451-8.5729-28.037-9.9382-4.3279-2.2844-9.8499-10.999-7.5156-11.861 0.55046-0.20331 10.011 0.82889 21.023 2.2937 23.49 3.1245 28.928 5.4222 35.389 14.951 4.2757 6.3061 5.999 12.186 3.5355 12.063-0.58336-0.0291-11.561-3.408-24.395-7.5087v2e-5z" style="fill-opacity:.84666;fill:#333;stroke-width:1.0966"/><path d="m148.46 486.38c-40.579-20.354-77.734-43.731-99.846-62.821-6.0793-5.2485-7.7475-7.6992-9.1116-13.386-0.9184-3.8285-1.3514-7.2793-0.96217-7.6685s7.3022 4.3266 15.362 10.48c38.652 29.507 70.594 46.731 106.73 57.55l12.876 3.8554 3.7405 12.496c2.0574 6.8727 3.7406 12.848 3.7406 13.278 0 2.0851-5.7298-0.34302-32.527-13.784v4e-5z" style="fill-opacity:.84666;fill:#333;stroke-width:1.0966"/><path d="m715.92 237.86c-2.9037-1.1673-10.206-13.32-8.7566-14.575 1.1225-0.97161 40.195-27.092 41.215-27.552 1.6241-0.73346-9.5397 31.113-12.86 36.686-2.3774 3.9902-4.2187 5.3165-8.3225 5.9948-6.5116 1.0764-7.3171 1.0368-11.275-0.55434l-2e-5 -2e-5z" style="fill:url(#s);stroke-width:1.0966"/><path d="m220.08 284.15c-10.916-4.5154-10.96-4.5548-10.96-9.8369 2e-5 -3.3072 0.66709-5.3033 1.7723-5.3033 0.97479 0 8.3143 3.1171 16.31 6.927l14.538 6.927-4.8096 2.9725c-2.6453 1.6349-5.0527 2.9444-5.3498 2.9099s-5.4722-2.1027-11.5-4.5962l-3e-5 -1e-5z" style="fill-opacity:.84666;fill:#333;stroke-width:1.0966"/><path d="m715.82 237.88c-3.3318-1.3414-9.5342-11.956-8.2245-14.075 1.3035-2.109 39.075-27.232 39.821-26.486 1.2794 1.2796-6.8183 25.659-10.955 32.981-3.1971 5.659-5.0634 7.4421-8.5114 8.1317-5.6372 1.1274-8.2566 1.0084-12.131-0.55129z" style="fill-opacity:.84666;stroke-width:1.0966"/><path d="m223.97 456.28c-36.874-8.4723-50.205-12.08-50.205-13.588 0-2.3388 21.525-29.893 36.283-46.446 22.533-25.273 41.421-40.506 80.145-64.634 54.259-33.808 91.656-52.14 111.97-54.888 21.483-2.9057 66.589-14.208 99.465-24.924 11.926-3.8871 22.033-6.718 22.46-6.2909s1.8955 0.17778 3.263-0.55409c2.7293-1.4607 2.8979-1.132 6.2956 12.279l1.8528 7.313-21.3 12.38c-27.332 15.886-46.814 28.752-61.543 40.643-6.4526 5.2097-14.408 11.123-17.678 13.141s-16.128 14.164-28.573 26.993l-22.627 23.324-25.15-1.56c-13.832-0.85797-36.581-1.56-50.553-1.56-47.008 0-71.722 8.1483-97.729 32.222-4.8028 4.4457-11.851 12.202-15.663 17.237-8.3669 11.051-8.7855 10.506 13.524 17.586 36.217 11.492 57.573 11.023 85.062-1.8703 11.89-5.5767 26.471-16.375 59.62-44.153 14.276-11.963 21.074-16.778 23.688-16.778 2.0161 0 3.6656 0.49056 3.6656 1.0902 0 2.6024-26.399 26.796-44.859 41.112-29.213 22.654-43.457 29.916-68.278 34.81-6.6114 1.3036-12.975 2.5775-14.142 2.831s-14.213-2.3174-28.991-5.7129v3e-5z" style="fill:url(#r);stroke-width:1.0966"/><path d="m662.78 141.37c-8.2386-16.792-15.107-25.748-25.394-33.111l-6.2557-4.4778-23.268 9.1104c-58.805 23.025-90.989 30.757-135.81 32.629-40.68 1.699-93.813-8.8479-126.18-25.046-12.421-6.2168-26.843-17.559-26.167-20.578 0.23347-1.042 7.4249-7.3583 15.981-14.036 29.237-22.82 69.02-39.412 113.84-47.482 24.044-4.3285 25.614-4.4347 55.154-3.7291 29.613 0.70738 49.756 2.9666 79.657 8.9342 9.3136 1.8588 30.541 9.3017 37.272 13.069 1.2019 0.67263-3.7655 3.4181-13.663 7.5516l-15.552 6.4948-2.8977-4.6886c-2.4914-4.0312-4.2287-4.9898-12.391-6.8373-24.914-5.6393-67.116-6.3213-97.882-1.5817-29.39 4.5278-70.234 16.975-76.604 23.346-5.0531 5.0531-5.0305 7.2242 0.12879 12.383 5.497 5.497 17.791 11.177 31.046 14.342 16.374 3.9109 23.349 2.5247 85.028-16.897 38.848-12.233 54.157-15.372 83.439-17.108 14.39-0.85344 41.755-1.2202 60.811-0.81504 30.374 0.64576 36.313 1.1563 48.145 4.1388 20.568 5.1846 32.728 13.397 30.452 20.567-0.86296 2.719-1.4525 2.6132-15.252-2.7381-27.885-10.813-36.314-12.673-61.224-13.504-13.654-0.4558-27.479-0.10829-34.86 0.87633-20.055 2.6751-49.945 10.704-74.034 19.888-12.445 4.7443-23.514 8.9413-24.598 9.3267s-1.6289 1.042-1.2118 1.4591 11.05-3.1065 23.628-7.8303c44.796-16.823 68.033-21.648 104.71-21.743 22.419-0.05807 26.013 0.28337 38.184 3.6272 7.3893 2.0302 20.305 6.363 28.702 9.6284 14.731 5.7287 15.182 6.0305 12.859 8.5973-1.3241 1.4631-16.467 13.264-33.651 26.224s-31.943 24.093-32.797 24.74c-1.03 0.78044-4.1813-4.1798-9.3567-14.728v1e-5z" style="fill:url(#q);stroke-width:1.0966"/><path d="m435.39 150.94c-22.779-1.7108-59.209-9.5735-81.163-17.517-14.012-5.0701-35.845-18.963-39.399-25.07-3.0334-5.213-3.0384-5.4193-0.15942-6.524 1.5849-0.60817 4.8504 1.5294 10.35 6.7748 17.511 16.702 53.958 29.693 103.48 36.884 25.019 3.6326 62.675 2.4245 91.389-2.9319 4.0049-0.7471 4.5962-0.47327 4.5962 2.1284 0 1.6422-0.4773 3.006-1.0607 3.0307s-7.4246 0.96688-15.203 2.0938c-12.905 1.8697-54.418 2.5148-72.832 1.1318v1e-5z" style="fill-opacity:.84666;stroke-width:1.0966"/><path d="m607.5 197.48c-2.1265-2.3498-1.75-2.9478 5.7912-9.1966 4.4361-3.6758 12.008-10.341 16.827-14.811 7.9911-7.4131 8.9102-8.8734 10.455-16.613 1.4957-7.4953 1.3233-10.234-1.4767-23.477-1.7434-8.2457-3.6984-15.848-4.3446-16.893-1.1903-1.9261-6.0695-0.5411-77.343 21.955-11.059 3.4906-22.738 6.7672-25.952 7.2813-5.1365 0.82133-5.7845 0.62543-5.3482-1.6167 0.37546-1.9293 4.0118-3.4959 14.916-6.426 19.844-5.3324 33.689-10.006 63.174-21.327 13.897-5.3357 25.868-9.7012 26.601-9.7012 2.3326 0 13.89 9.509 18.362 15.108 3.6026 4.5099 19.571 34.244 19.571 36.442 0 1.76-27.839 22.724-42.132 31.728-8.7831 5.5328-16.162 10.06-16.398 10.06s-1.452-1.131-2.703-2.5132l-3e-5 1e-5z" style="fill-opacity:.84666;stroke-width:1.0966"/><path d="m582.55 354.31-3.4569-0.96485 5.5782-6.2173c3.068-3.4195 14.806-12.285 26.084-19.701 29.245-19.23 35.953-26.075 38.894-39.688 1.3045-6.0374 12.641-18.241 28.418-30.594 9.8869-7.7405 11.987-10.18 15.371-17.856 3.444-7.8104 8.0824-13.712 10.853-13.809 0.49766-0.0173 2.2608 2.853 3.9179 6.3785 3.5744 7.6043 7.8741 9.7318 17.451 8.6349 3.6946-0.42321 6.7175-0.53398 6.7175-0.2462s-1.2752 3.4982-2.8338 7.1344c-6.5304 15.235-8.8721 17.2-59.281 49.759-57.383 37.063-78.05 51.463-77.211 53.798 0.34504 0.96042-0.57994 2.3923-2.0555 3.182-2.9531 1.5805-3.4239 1.591-8.4469 0.18895l-1e-5 -1e-5z" style="fill:url(#p);stroke-width:1.0966"/><path d="m522.6 405.4c-2.2819-38.301-16.195-67.201-37.71-78.326-8.5569-4.4248-10.105-4.7484-22.399-4.6811-9.5203 0.0521-12.659-0.34265-11.245-1.4142 1.0786-0.81752 5.8835-4.5279 10.677-8.2452 10.157-7.8755 32.071-21.866 56.448-36.038l17.219-10.01 0.96138 5.6907c0.52883 3.1299 0.52545 9.7622-7e-3 14.739l-0.96892 9.0479-16.291 12.114c-8.9599 6.663-15.974 12.431-15.587 12.818s7.5819-4.4036 15.989-10.646 15.392-11.216 15.523-11.052-0.61073 13.979-1.6476 30.702c-1.3498 21.77-1.4643 31.988-0.40336 35.977 1.7466 6.5672 9.5466 14.935 13.922 14.935 7.1057 0 31.147-17.503 31.147-22.677 0-0.75076 2.7528-1.365 6.1173-1.365 5.383 0 8.3964-1.552 25.102-12.928 10.442-7.1104 32.986-21.245 50.098-31.411s39.537-24.705 49.834-32.311l18.722-13.828 10.481-20.927c7.7334-15.441 11.816-25.769 15.573-39.399 2.801-10.16 5.0924-18.921 5.0924-19.469s-12.771 7.6911-28.38 18.309-28.734 18.952-29.166 18.52 0.9471-5.109 3.0652-10.393 4.9014-13.837 6.1852-19.007l2.3342-9.4001 24.042-18.338c13.223-10.086 29.724-23.356 36.669-29.491 40.362-35.649 45.28-38.574 82.871-49.291 9.5457-2.7215 17.738-5.3514 18.204-5.8441 2.3193-2.4487-33.942 7.8037-47.774 13.507-14.917 6.1511-21.556 11.067-57.649 42.683-7.6653 6.7144-23.801 19.661-35.857 28.769l-21.92 16.561-1.2382-4.2795c-1.8099-6.2558-7.9018-11.365-17.844-14.965l-8.7661-3.1741 16.046-12.751c38.534-30.623 64.395-48.912 94.526-66.848l31.578-18.797 14.267 3.1227c21.682 4.7454 27.016 6.7857 33.049 12.641 7.251 7.0368 8.7397 13.02 9.7674 39.257 1.0447 26.673 0.51874 28.528-5.6341 19.874-27.844-39.164-76.573-5.8188-90.094 61.651-2.6119 13.034-2.9502 42.692-0.60486 53.04 2.1442 9.46 1.6627 11.732-3.4702 16.377-1.6094 1.4564-2.6094 3.1604-2.2223 3.7867 0.83566 1.3521-13.822 8.4256-24.812 11.974-4.278 1.3812-21.461 10.261-38.184 19.732s-40.906 22.844-53.74 29.717c-17.902 9.5865-131.16 79.222-139.44 85.735-1.0954 0.86144-1.8184-3.2501-2.4574-13.976l-3e-5 2e-5z" style="fill:url(#d);stroke-width:1.0966"/><path d="m544.01 377.89c-2.5172-0.85712-4.8766-3.5062-6.9648-7.8199-3.1466-6.5-3.1521-6.6409-1.5033-38.925 0.91007-17.821 2.0154-32.985 2.4562-33.698 1.614-2.6115 17.366-12.447 35.981-22.467 40.103-21.585 50.72-27.703 67.175-38.706 18.021-12.05 46.976-32.616 60.458-42.942 6.4744-4.9587 8.128-5.7068 8.1135-3.6705-0.0335 4.706-5.7013 20.774-13.788 39.09l-8.0124 18.147-12.073 9.6274c-16.335 13.027-26.331 23.817-27.629 29.827-2.8929 13.39-10.22 20.991-37.143 38.533-22.702 14.792-29.605 20.94-33.647 29.968-3.6363 8.1227-8.2946 12.88-18.304 18.693-9.4747 5.5023-10.691 5.8516-15.12 4.3432l3e-5 -2e-5z" style="fill:url(#d);stroke-width:1.0966"/><path d="m538.63 281.59c0-6.6373-0.31737-12.915-0.70526-13.951-0.46353-1.238 4.9882-5.1028 15.91-11.279 9.1384-5.1673 16.481-10.025 16.317-10.794s1.5483-1.7686 3.8052-2.22c3.6657-0.73314 4.1502-1.4653 4.541-6.8621l0.43741-6.0414 13.77-4.9709c14.594-5.2685 19.428-8.3342 19.522-12.382 0.0379-1.6235 6.3066-6.4221 18.031-13.802 9.8852-6.2225 25.455-16.882 34.599-23.688s17.553-12.374 18.685-12.374c4.5396 0 17.425 5.8991 20.972 9.6012 5.3389 5.5726 6.2105 11.674 2.0848 14.593-1.7672 1.2504-11.748 8.5073-22.179 16.127-22.209 16.222-54.13 38.038-65.121 44.506-4.2454 2.4984-18.564 10.3-31.82 17.337-22.119 11.742-34.782 18.981-44.961 25.702l-3.8891 2.5678v-12.068z" style="fill:url(#d);stroke-width:1.0966"/><path d="m543.67 35.165c-6.9525-1.0104-24.301-2.0436-38.552-2.2961s-24.791-0.91043-23.422-1.4621 15.715-6.4197 31.88-13.04c36.411-14.913 41.303-16.373 54.659-16.319 9.8514 0.03966 57.497 5.9742 58.854 7.3306 0.32482 0.32483-13.24 6.212-30.144 13.083s-30.946 13.034-31.206 13.696c-0.60672 1.549-6.3718 1.2902-22.069-0.99101l3e-5 1e-5z" style="fill:url(#i);stroke-width:1.0966"/><path d="m743.69 94.704c0-10.949-24.672-20.637-60.104-23.602-11.25-0.94134-31.533-1.1797-52.264-0.61422-18.633 0.50826-33.558 0.60376-33.167 0.21225s6.9086-3.2909 14.482-6.443c10.947-4.5559 14.341-5.4261 16.55-4.2437 1.5287 0.81814 2.7794 0.91956 2.7794 0.22545s-7.789-4.587-17.309-8.6508c-15.756-6.726-37.49-12.736-46.26-12.792-2.0235-0.01293-2.906-0.52497-2.1213-1.2309 0.73894-0.66481 16.299-7.2308 34.578-14.591l33.234-13.382 27.577 0.1987c31.115 0.22421 41.546 1.805 84.633 12.825 32.666 8.3549 47.526 12.888 55.516 16.938 6.9909 3.5425 15.414 10.058 15.414 11.923 0 2.099-10.372 5.407-12.678 4.0435-1.1944-0.70623-18.4-6.6912-38.234-13.3-33.894-11.293-38.482-12.441-76.302-19.085-42.993-7.553-45.133-7.6253-60.713-2.051-4.0883 1.4628-4.6185 2.0321-2.6432 2.8386 1.359 0.5549 31.27 9.3762 66.468 19.603l63.997 18.594 0.70711 8.6999 0.70711 8.7-7.4246 9.4619c-6.5844 8.3911-7.4246 9.0387-7.4246 5.7228v-2e-5zm-110.7-65.282c-0.93371-0.93365-30.718 13.943-30.718 15.343 0 0.607 7.0675-2.4408 15.705-6.773s15.394-8.1885 15.012-8.5697l3e-5 -1e-5z" style="fill:url(#i);stroke-width:1.0966"/><path d="m804.86 56.153-77.812-25.645-76.658-13.25-7.5712 0.94639-17.035 4.732 133.44 38.802 0.3018 17.201" style="fill-rule:evenodd;fill:url(#o);stroke-width:1.0966;stroke:#000"/><path d="m239.81 450.6c-15.981-2.2016-43.737-10.443-47.487-14.1-3.3867-3.303 22.804-30.182 38.926-39.949 20.914-12.67 40.381-16.699 79.486-16.452 15.665 0.099 35.445 0.57625 43.955 1.0607l15.472 0.88074-20.422 17.065c-30.093 25.147-46.078 36.951-57.277 42.298-17.532 8.3706-35.662 11.537-52.653 9.1963l4e-5 3e-5z" style="fill:url(#m);stroke-width:1.0966"/><path d="m12.818 332.9c-4.43-5.9744-6.859-10.848-7.4953-15.039-1.3075-8.6131 0.20925-26.484 2.8946-34.105 2.8767-8.1631 13.045-21.676 28.877-38.374l12.547-13.233 1.9296 10.601c3.8985 21.418 1.1816 53.62-5.9382 70.383-2.4765 5.8307-22.701 28.606-25.402 28.606-0.47231 0-3.808-3.9775-7.4127-8.8388z" style="fill:url(#n);stroke-width:1.0966"/><path d="m152.7 465.89c-31.753-10.645-63.189-28.251-98.811-55.34-9.6218-7.317-17.797-13.001-18.167-12.631s-0.02032 3.7326 0.77727 7.4723 1.2635 6.9861 1.0354 7.2142c-1.4355 1.4355-16.844-18.185-21.874-27.855-5.7403-11.034-5.9246-11.756-3.6421-14.279 2.27-2.5083 2.2375-2.9266-0.58164-7.488-3.0244-4.8934-3.8552-11.546-1.8386-14.721 0.76062-1.1973 4.3832 1.5761 11.646 8.9157 27.758 28.053 89.341 65.816 133.72 81.997l14.282 5.2076-0.14001 9.3774c-0.077 5.1576 0.40636 11.127 1.074 13.266 1.5803 5.0625 0.8815 5.017-17.477-1.1375v5e-5z" style="fill:url(#b);stroke-width:1.0966"/><path d="m148.32 434.36c-46.846-18.659-99.663-52.007-127.27-80.359-9.5951-9.8534-12.796-14.219-15.203-20.738-4.2317-11.461-3.9492-16.363 0.40431-7.0121 6.2399 13.402 35.501 40.959 63.015 59.344 26.26 17.548 62.902 35.665 88.388 43.702 9.3338 2.9433 17.216 5.5381 17.516 5.7661 0.80463 0.61184-3.9712 7.5784-5.1739 7.5472-0.5654-0.0146-10.319-3.7272-21.675-8.2502l2e-5 -1e-5z" style="fill:url(#b);stroke-width:1.0966"/><path d="m251.7 535.89c-26.008-3.1949-68.345-19.593-123.04-47.656-45.131-23.157-76.779-45.338-99.339-69.62-11.725-12.621-17.447-22.761-18.768-33.258l-0.88953-7.0711 5.9484 10.607c7.331 13.072 27.027 33.123 47.501 48.357 50.371 37.481 128.62 75.361 175.86 85.13 39.604 8.191 82.296 6.2959 123.19-5.4686 6.6966-1.9266 13.22-3.9037 14.497-4.3937s2.3215-0.23303 2.3215 0.57098c0 3.8894-28.907 14.196-54.511 19.436-20.479 4.1911-53.59 5.7234-72.768 3.3675v3e-5z" style="fill:url(#b);stroke-width:1.0966"/><path d="m267.96 525.1c-23.834-3.0929-41.873-7.1909-61.232-13.91-11.986-4.1601-21.928-7.7632-22.095-8.007s-3.4154-9.9656-7.2194-21.604c-6.6453-20.331-8.3724-31.807-5.2558-34.924 0.61051-0.61047 5.233 0.0987 10.272 1.576 5.039 1.4773 22.467 5.6936 38.729 9.3695l29.567 6.6835 13.567-2.5076c17.328-3.203 35.654-10.212 48.621-18.596 15.856-10.252 45.727-34.491 58.96-47.844 11.137-11.238 16.788-14.541 18.884-11.038 0.34898 0.58337-1.8461 8.4694-4.8779 17.524s-6.458 22.738-7.6138 30.406c-2.8773 19.09-2.7897 53.113 0.16702 64.884 1.2568 5.0034 1.96 9.9441 1.5628 10.979-0.81294 2.1185-25.561 9.6049-42.739 12.929-22.669 4.3862-53.117 6.1783-69.296 4.0786v2e-5zm5.0427-13.218c7.5079-4.0181-1.7475-23.898-14.1-30.286-5.3692-2.7766-38.063-7.7771-51.117-7.8186-10.344-0.0329-12.657 1.3397-12.657 7.511 0 12.536 39.837 31.33 67.622 31.903 4.1347 0.0852 8.7486-0.50383 10.253-1.309l-1e-5 2e-5zm73.195-6.9218c11.918-3.019 21.985-5.8049 22.371-6.1909s-0.0272-6.9733-0.91837-14.639c-0.89112-7.6657-1.412-19.821-1.1574-27.012 0.30311-8.5629-0.0548-13.074-1.0368-13.072-0.82483 2e-3 -5.5978 1.6178-10.607 3.5912s-17.062 5.7898-26.785 8.4808c-20.666 5.7198-25.961 8.1453-28.118 12.88-4.0736 8.9406-0.41082 17.791 12.939 31.267 5.5869 5.6392 10.492 10.238 10.9 10.219s10.493-2.5042 22.411-5.5232l-1e-5 -4e-5z" style="fill:url(#b);stroke-width:1.0966"/><path d="m253.15 510.32c-32.541-5.3928-63.881-24.49-54.912-33.46 0.93336-0.93339 3.6693-1.697 6.0799-1.697 3.7341 0 4.6506 0.74052 6.1919 5.003 1.0925 3.0213 3.8659 6.3391 7.0016 8.3761 4.8874 3.175 46.413 17.044 53.894 18 3.2872 0.42002 3.3316 0.55483 0.95964 2.9153-2.7009 2.6879-7.0258 2.8819-19.215 0.86185l2e-5 3e-5z" style="fill:url(#c);stroke-width:1.0966"/><path d="m347.51 492.36-15.203-3.6612-0.0123-8.5384c-7e-3 -4.696-0.3639-11.72-0.7936-15.609l-0.78124-7.0711 16.506-5.3832c9.0781-2.9608 16.671-5.1882 16.872-4.9498s0.69704 11.411 1.1009 24.829c0.53541 17.785 0.29803 24.348-0.87588 24.22-0.88562-0.0961-8.4515-1.8224-16.813-3.836v-3e-5z" style="fill:url(#c);stroke-width:1.0966"/><path d="m318.42 503c-4.4937-4.6364-4.6328-6.6246-0.46336-6.6246 1.1804 0 4.852-1.3099 8.1592-2.9108l6.0129-2.9108 32 7.7085-18.385 4.676c-10.112 2.5717-19.374 4.6927-20.582 4.7134s-4.2427-2.0726-6.7424-4.6517l1e-5 3e-5z" style="fill:url(#c);stroke-width:1.0966"/><path d="m26.819 348.41-4.8186-4.9716 10.765-10.938c11.581-11.767 15.152-17.623 18.782-30.798 3.1749-11.524 4.3988-42.505 2.2577-57.148-2.5091-17.16-2.2142-16.934-10.896-8.3595-4.171 4.1191-7.5835 6.8046-7.5835 5.9678 0-3.1335 30.981-32.817 45.962-44.036 24.887-18.638 45.448-27.903 115-51.818 15.024-5.166 33.479-12.146 41.012-15.512 25.429-11.362 32.708-13.208 44.433-11.27l5.2812 0.873-27.909 19.509c-23.267 16.264-30.849 22.498-45.586 37.483-9.7227 9.8856-43.134 42.33-74.246 72.098s-67.699 65.322-81.302 79.008-25.093 24.884-25.532 24.884-2.9668-2.2372-5.6171-4.9716h-3e-5z" style="fill:url(#l);stroke-width:1.0966"/><path d="m154.71 426.33c-25.021-8.4043-59.246-25.635-84.033-42.305-11.948-8.0357-32.665-23.864-35.144-26.851-1.3193-1.5897 5.9116-9.4331 37.615-40.801 21.587-21.358 52.931-51.794 69.654-67.636s35.425-33.62 41.561-39.506 10.628-9.4305 9.9849-7.8748-1.4181 6.3668-1.7212 10.691c-0.51876 7.4028-0.21994 8.2818 5.1052 15.019 5.5002 6.9582 22.186 22.067 25.938 23.485 1.2198 0.46128-0.0903 2.3459-3.791 5.4532-3.1102 2.6116-9.4742 8.5667-14.142 13.234s-14.692 14.154-22.276 21.082-13.789 13.175-13.789 13.882c0 1.1843 11.605-6.4218 29.026-19.024l7.1058-5.1403 11.161 4.8532c6.1385 2.6692 11.414 5.1065 11.724 5.4162s-7.7342 6.1964-17.875 13.082-18.455 13.034-18.476 13.663c-0.0494 1.4933-1.5337 2.4488 36.22-23.317l32.722-22.332 8.1282 2.7965c18.143 6.2421 31.814 7.7308 70.528 7.6803l36.62-0.0478-12.578 5.851c-28.294 13.161-87.488 48.831-114.08 68.741-17.254 12.92-45.519 41.602-61.46 62.367-5.8525 7.6232-11.625 13.78-12.909 13.77s-10.647-2.8142-20.821-6.2314h4e-5z" style="fill-opacity:.84666;fill:#f00;stroke-width:1.0966"/><path d="m154.71 426.33c-25.021-8.4043-59.246-25.635-84.033-42.305-11.948-8.0357-32.665-23.864-35.144-26.851-1.3193-1.5897 5.9116-9.4331 37.615-40.801 21.587-21.358 52.931-51.794 69.654-67.636s35.425-33.62 41.561-39.506 10.628-9.4305 9.9849-7.8748-1.4181 6.3668-1.7212 10.691c-0.51876 7.4028-0.21994 8.2818 5.1052 15.019 5.5002 6.9582 22.186 22.067 25.938 23.485 1.2198 0.46128-0.0903 2.3459-3.791 5.4532-3.1102 2.6116-9.4742 8.5667-14.142 13.234s-14.692 14.154-22.276 21.082-13.789 13.175-13.789 13.882c0 1.1843 11.605-6.4218 29.026-19.024l7.1058-5.1403 11.161 4.8532c6.1385 2.6692 11.414 5.1065 11.724 5.4162s-7.7342 6.1964-17.875 13.082-18.455 13.034-18.476 13.663c-0.0494 1.4933-1.5337 2.4488 36.22-23.317l32.722-22.332 8.1282 2.7965c18.143 6.2421 31.814 7.7308 70.528 7.6803l36.62-0.0478-12.578 5.851c-28.294 13.161-87.488 48.831-114.08 68.741-17.254 12.92-45.519 41.602-61.46 62.367-5.8525 7.6232-11.625 13.78-12.909 13.77s-10.647-2.8142-20.821-6.2314h4e-5z" style="fill:url(#k);stroke-width:1.0966"/><path d="m154.71 426.33c-25.021-8.4043-59.246-25.635-84.033-42.305-11.948-8.0357-32.665-23.864-35.144-26.851-1.3193-1.5897 5.9116-9.4331 37.615-40.801 21.587-21.358 52.931-51.794 69.654-67.636s35.425-33.62 41.561-39.506 10.628-9.4305 9.9849-7.8748-1.4181 6.3668-1.7212 10.691c-0.51876 7.4028-0.21994 8.2818 5.1052 15.019 5.5002 6.9582 22.186 22.067 25.938 23.485 1.2198 0.46128-0.0903 2.3459-3.791 5.4532-3.1102 2.6116-9.4742 8.5667-14.142 13.234s-14.692 14.154-22.276 21.082-13.789 13.175-13.789 13.882c0 1.1843 11.605-6.4218 29.026-19.024l7.1058-5.1403 11.161 4.8532c6.1385 2.6692 11.414 5.1065 11.724 5.4162s-7.7342 6.1964-17.875 13.082-18.455 13.034-18.476 13.663c-0.0494 1.4933-1.5337 2.4488 36.22-23.317l32.722-22.332 8.1282 2.7965c18.143 6.2421 31.814 7.7308 70.528 7.6803l36.62-0.0478-12.578 5.851c-28.294 13.161-87.488 48.831-114.08 68.741-17.254 12.92-45.519 41.602-61.46 62.367-5.8525 7.6232-11.625 13.78-12.909 13.77s-10.647-2.8142-20.821-6.2314h4e-5z" style="fill:url(#j);stroke-width:1.0966"/></g></g></svg>
