<?xml version="1.0" encoding="UTF-8"?>
<svg width="86.534mm" height="85.632mm" version="1.1" viewBox="0 0 86.534 85.632" xmlns="http://www.w3.org/2000/svg" xmlns:xlink="http://www.w3.org/1999/xlink"><defs><filter id="filter11193" x="-.30296" y="-.10228" width="1.6059" height="1.2046"><feGaussianBlur stdDeviation="18.143585"/></filter><filter id="filter11189" x="-.17762" y="-.10558" width="1.3552" height="1.2112"><feGaussianBlur stdDeviation="18.143585"/></filter><filter id="filter11185" x="-.13204" y="-.12123" width="1.2641" height="1.2425"><feGaussianBlur stdDeviation="18.143585"/></filter><filter id="filter11181" x="-.1086" y="-.15457" width="1.2172" height="1.3091"><feGaussianBlur stdDeviation="18.143585"/></filter><clipPath id="clipPath4248"><path d="m372.84 260.94c-117.49 0-212.84 95.34-212.84 212.84s95.35 212.88 212.84 212.88c117.5 0 212.88-95.38 212.88-212.88s-95.38-212.84-212.88-212.84zm0 160c29.18 0 52.88 23.66 52.88 52.84s-23.7 52.88-52.88 52.88c-29.17 0-52.84-23.7-52.84-52.88s23.67-52.84 52.84-52.84z" color="#000000" fill="#666" opacity=".79008"/></clipPath><clipPath id="clipPath4244"><path d="m372.84 260.94c-117.49 0-212.84 95.34-212.84 212.84s95.35 212.88 212.84 212.88c117.5 0 212.88-95.38 212.88-212.88s-95.38-212.84-212.88-212.84zm0 160c29.18 0 52.88 23.66 52.88 52.84s-23.7 52.88-52.88 52.88c-29.17 0-52.84-23.7-52.84-52.88s23.67-52.84 52.84-52.84z" color="#000000" fill="#666" opacity=".79008"/></clipPath><clipPath id="clipPath4240"><path d="m372.84 260.94c-117.49 0-212.84 95.34-212.84 212.84s95.35 212.88 212.84 212.88c117.5 0 212.88-95.38 212.88-212.88s-95.38-212.84-212.88-212.84zm0 160c29.18 0 52.88 23.66 52.88 52.84s-23.7 52.88-52.88 52.88c-29.17 0-52.84-23.7-52.84-52.88s23.67-52.84 52.84-52.84z" color="#000000" fill="#666" opacity=".79008"/></clipPath><clipPath id="clipPath4236"><path d="m372.84 260.94c-117.49 0-212.84 95.34-212.84 212.84s95.35 212.88 212.84 212.88c117.5 0 212.88-95.38 212.88-212.88s-95.38-212.84-212.88-212.84zm0 160c29.18 0 52.88 23.66 52.88 52.84s-23.7 52.88-52.88 52.88c-29.17 0-52.84-23.7-52.84-52.88s23.67-52.84 52.84-52.84z" color="#000000" fill="#666" opacity=".79008"/></clipPath><clipPath id="clipPath4232"><path d="m372.84 260.94c-117.49 0-212.84 95.34-212.84 212.84s95.35 212.88 212.84 212.88c117.5 0 212.88-95.38 212.88-212.88s-95.38-212.84-212.88-212.84zm0 160c29.18 0 52.88 23.66 52.88 52.84s-23.7 52.88-52.88 52.88c-29.17 0-52.84-23.7-52.84-52.88s23.67-52.84 52.84-52.84z" color="#000000" fill="#666" opacity=".79008"/></clipPath><linearGradient id="linearGradient5241"><stop stop-color="#7c7c7c" offset="0"/><stop stop-color="#c6c6c6" offset="1"/></linearGradient><linearGradient id="linearGradient3280" x1="-73.263" x2="-3.5969" y1="514.97" y2="521.38" gradientTransform="translate(235.87,-28.363)" gradientUnits="userSpaceOnUse" spreadMethod="reflect" xlink:href="#linearGradient5241"/><linearGradient id="linearGradient3282" x1="-73.263" x2="-3.5969" y1="514.97" y2="521.38" gradientTransform="translate(241.36,-29.278)" gradientUnits="userSpaceOnUse" spreadMethod="reflect" xlink:href="#linearGradient5241"/><linearGradient id="linearGradient3284" x1="390.2" x2="213.74" y1="473.8" y2="368.66" gradientUnits="userSpaceOnUse" spreadMethod="reflect"><stop stop-color="#6f6f6f" offset="0"/><stop stop-color="#f5f5f5" offset="1"/></linearGradient></defs><g transform="translate(-71.638 -78.803)"><g transform="matrix(.26458 0 0 .26458 47.919 47.965)"><g transform="matrix(.74601 0 0 .74601 -31.657 -84.297)"><path d="m379.05 273.75c-117.5 0-212.85 95.35-212.85 212.84 0 117.5 95.35 212.88 212.85 212.88 117.49 0 212.87-95.38 212.87-212.88 0-117.49-95.38-212.84-212.87-212.84zm0 160c29.17 0 52.87 23.67 52.87 52.84 0 29.18-23.7 52.88-52.87 52.88-29.18 0-52.85-23.7-52.85-52.88 0-29.17 23.67-52.84 52.85-52.84z" color="#000000" fill="none" stroke="url(#linearGradient3280)" stroke-linejoin="round" stroke-width="7.2"/><path d="m384.54 272.83c-117.5 0-212.85 95.35-212.85 212.85 0 117.49 95.35 212.87 212.85 212.87 117.49 0 212.87-95.38 212.87-212.87 0-117.5-95.38-212.85-212.87-212.85zm0 160c29.17 0 52.87 23.67 52.87 52.85 0 29.17-23.7 52.87-52.87 52.87-29.18 0-52.85-23.7-52.85-52.87 0-29.18 23.67-52.85 52.85-52.85z" color="#000000" fill="none" stroke="url(#linearGradient3282)" stroke-linejoin="round" stroke-width="7.2"/><path transform="translate(8.9468,11.896)" d="m372.84 260.94c-117.49 0-212.84 95.34-212.84 212.84s95.35 212.88 212.84 212.88c117.5 0 212.88-95.38 212.88-212.88s-95.38-212.84-212.88-212.84zm0 160c29.18 0 52.88 23.66 52.88 52.84s-23.7 52.88-52.88 52.88c-29.17 0-52.84-23.7-52.84-52.88s23.67-52.84 52.84-52.84z" clip-path="url(#clipPath4248)" color="#000000" fill="url(#linearGradient3284)"/><path transform="rotate(4.3498 218.42 597.53)" d="m328.93 254.86 41.51 216.98 87.63 202.8-45.85 14.1-41.52-216.98-87.63-202.8z" clip-path="url(#clipPath4244)" color="#000000" fill="#f00" filter="url(#filter11193)" opacity=".27099"/><path transform="matrix(.99994 -.011097 .011097 .99994 3.7343 16.037)" d="m293.55 264.71 76.9 207.15 120.65 185.11-43.51 21.91-76.9-207.14-120.65-185.12z" clip-path="url(#clipPath4240)" color="#000000" fill="#ff0" filter="url(#filter11189)" opacity=".27099"/><path transform="matrix(.99501 -.09973 .09973 .99501 -36.224 51.154)" d="m260.93 279.9 109.53 191.98 149.02 163.06-38.27 28.02-110.53-191.24-150.01-162.32z" clip-path="url(#clipPath4236)" color="#000000" fill="#0f0" filter="url(#filter11185)" opacity=".27099"/><path transform="matrix(.97849 -.20631 .20631 .97849 -80.326 98.389)" d="m233.04 298.24 137.44 173.66 176.43 133.56-37.83 38.89-138.41-172.65-177.4-132.56z" clip-path="url(#clipPath4232)" color="#000000" fill="#00f" filter="url(#filter11181)" opacity=".27099"/><circle transform="matrix(.88601 0 0 .88601 29.475 60.037)" cx="397.14" cy="480.93" r="74.286" color="#000000" fill="none" opacity=".38931" stroke="#d2d2d2" stroke-linejoin="round" stroke-width="20"/></g></g></g></svg>
