<?xml version="1.0" encoding="UTF-8"?>
<svg width="16.845mm" height="16.845mm" version="1.1" viewBox="0 0 16.845 16.845" xmlns="http://www.w3.org/2000/svg"><g transform="translate(-91.363 -112.44)"><g transform="matrix(.26458 0 0 .26458 93.366 114.75)"><circle cx="24.264" cy="23.105" r="31.833" color="#000000" fill="#ffcb00" fill-rule="evenodd"/><path transform="matrix(-.96593 -.25882 .25882 -.96593 0 0)" d="m-28.725-2.546a5.1823 5.072 0 0 1-3.841 4.8992 5.1823 5.072 0 0 1-5.8292-2.3632" fill="none" stroke="#555753" stroke-width="1.7642"/><path transform="matrix(-.96593 -.25882 .25882 -.96593 0 0)" d="m-13.815-6.5412a5.1823 5.072 0 0 1-3.841 4.8992 5.1823 5.072 0 0 1-5.8292-2.3632" fill="none" stroke="#555753" stroke-width="1.7642"/><path d="m-2.3334 19.471c-2.7149 13.349 8.2784 30.285 26.201 30.285 18.076 0 29.116-14.872 25.967-30.176l-52.17-0.10938z" color="#000000" fill="#fff"/><g fill="none"><g stroke="#000" stroke-linecap="square" stroke-width="1.7642px"><path d="m24.68 20.325v29.733" opacity=".538"/><path d="m10.567 20.219v24.808" opacity=".538"/><path d="m38.794 20.346v24.554" opacity=".538"/></g><path d="m-1.8863 18.714c-3.1413 15.563 9.1015 31.91 26.126 31.91 17.649 0 29.377-16.899 25.355-32.021l-51.48 0.11114z" color="#000000" stroke="#d29400" stroke-width="1.764"/></g></g></g></svg>
