<?xml version="1.0" encoding="UTF-8"?>
<svg width="177.07mm" height="180.19mm" version="1.1" viewBox="0 0 177.07 180.19" xmlns="http://www.w3.org/2000/svg"><defs><filter id="j"><feGaussianBlur stdDeviation=".8501"/></filter><linearGradient id="g" x1="-612.15" x2="-594.11" y1="-1053.7" y2="-1065" gradientUnits="userSpaceOnUse"><stop offset="0"/><stop stop-color="#4d4d4d" offset="1"/></linearGradient><linearGradient id="f" x1="-668.57" x2="-553.98" gradientUnits="userSpaceOnUse"><stop stop-color="#999" offset="0"/><stop stop-color="#d0d0d0" offset=".1367"/><stop stop-color="#fff" offset=".25"/><stop stop-color="#fff" stop-opacity=".498" offset=".4016"/><stop stop-color="#fff" offset="1"/></linearGradient><linearGradient id="e" x1="-501.4" x2="-625.31" y1="-1229" y2="-1083.1" gradientUnits="userSpaceOnUse"><stop stop-color="#fff" offset="0"/><stop stop-color="#fff" stop-opacity="0" offset="1"/></linearGradient><radialGradient id="d" cx="-634.48" cy="-599.07" r="32.342" gradientTransform="matrix(.78572 -1.1289 1.9049 1.3258 1049.5 -967.54)" gradientUnits="userSpaceOnUse"><stop stop-color="#1a1a1a" offset="0"/><stop stop-color="#333" offset="1"/></radialGradient><radialGradient id="c" cx="-617.06" cy="-629.24" r="58.412" gradientTransform="matrix(2.2353 .09294 -.07803 1.8767 765.66 164.31)" gradientUnits="userSpaceOnUse"><stop stop-color="#ffa900" offset="0"/><stop stop-color="#ff8c00" offset="1"/></radialGradient><radialGradient id="b" cx="-619.17" cy="-564.91" r="50.751" gradientTransform="matrix(1.2938 -.46693 .20517 .56849 347.84 -981.91)" gradientUnits="userSpaceOnUse"><stop stop-color="#4d4d4d" offset="0"/><stop offset="1"/></radialGradient><radialGradient id="a" cx="-731.37" cy="-638.02" r="2.8996" gradientUnits="userSpaceOnUse"><stop stop-color="#fff" offset="0"/><stop stop-color="#ccc" offset="1"/></radialGradient></defs><g transform="translate(-20.632 -65.715)"><g transform="matrix(1.0945 0 0 1.0945 753.13 1338.4)"><path d="m-666.78-1032.7s2.4073-10.509 5.5222-14.726c5.3719-7.2719 21.475-16.567 21.475-16.567l5.5222-31.272 56.449 11.024-11.044 53.995-59.517 8.5901z" fill="url(#d)"/><path d="m-648.37-999.74s49.027-4.3433 71.789-12.885c23.448-8.7992 51.483-17.215 64.426-38.656 3.3723-5.5864 6.2918-45.19 3.6815-58.29-3.4775-17.452-17.446-32.88-32.52-42.337-13.625-8.5487-31.226-11.261-47.246-9.8173-18.459 1.6633-37.965 8.2434-51.541 20.862-11.189 10.4-20.248 41.11-20.248 41.11s20.023 5.8007 30.065 8.5901c12.859 3.5718 29.345 0.8686 38.656 10.431 4.2565 4.3717 5.1082 11.747 4.295 17.794-0.90272 6.7137-4.6515 13.412-9.8173 17.794-7.9421 6.7373-19.27 8.2419-29.452 10.431-12.039 2.5882-36.815 3.0679-36.815 3.0679l-3.6815-4.2951s-0.14233 10.587 1.8407 15.34c3.4194 8.1952 16.567 20.862 16.567 20.862z" fill="url(#c)"/><path d="m-510.61-1054.1c-17.879 19.91-42.982 29.629-64.477 37.657-25.366 7.0511-51.41 11.407-75.134 15.044 1.4458 1.4796 2.407 2.407 2.407 2.407l0.90264 0.85966 1.2465-0.12888s12.329-1.059 27.509-3.2237c15.18-2.1647 33.157-5.3548 45.003-9.8001 23.313-8.7485 47.782-14.96 61.468-37.633 0.50649-0.8533 0.79828-4.4048 1.0746-5.1823z" fill="url(#b)"/><path d="m-660.43-1101.1c-0.0894 0.2944-0.2579 0.7737-0.2579 0.7737l-0.77369 2.622 2.6649 0.7737s20.006 5.7962 30.088 8.5965c6.894 1.915 14.335 2.1152 21.019 3.0518s12.421 2.5555 16.419 6.6624c3.3058 3.3952 4.2646 10.014 3.5246 15.517-0.80079 5.9563-4.2424 12.163-8.8545 16.076-7.1122 6.0333-17.944 7.5774-28.283 9.8001-10.84 2.3304-38.607 2.2639-40.671 2.315-1.9418-2.8244-1.1163 4.8817-0.95572 5.9357 3.3-0.062 31.041-0.3095 42.788-2.8349 10.026-2.1553 21.918-3.6053 30.69-11.047 5.7197-4.852 9.7411-12.043 10.746-19.514 0.8862-6.5914 0.13479-14.725-5.072-20.073-5.3117-5.4555-12.455-7.3004-19.557-8.2957-18.34-1.7402-37.573-6.6429-53.514-10.359z" fill="url(#g)"/><path d="m-660.93-1103.9s21.637 6.6952 32.757 8.6773c12.156 2.1668 24.564 4.3639 36.879 3.471 10.985-0.7966 23.114-6.0092 32.106-7.8096 1.9026-0.381 5.2064 2.6032 5.2064 2.6032l-2.6032 44.254s-25.125 11.302-38.18 15.619c-12.189 4.0308-24.605 7.7224-37.313 9.5451-8.3081 1.1916-16.778 1.205-25.164 0.8677-3.7821-0.1521-11.281-1.3016-11.281-1.3016s-0.36712-27.55 1.0847-41.217c1.2434-11.706 6.508-34.709 6.508-34.709z" fill="url(#f)" opacity=".4" stroke="#fff" stroke-width="1.3754"/><path transform="matrix(1.3754,0,0,1.3754,443.88,-212.65)" d="m-728.47-638.02c0 1.6014-1.2982 2.8996-2.8996 2.8996s-2.8996-1.2982-2.8996-2.8996 1.2982-2.8996 2.8996-2.8996 2.8996 1.2982 2.8996 2.8996z" fill="url(#a)"/><path d="m-583.43-1158c-21.7 1.4247-45.646 8.0848-58.846 26.752-0.96456 2.6202-5.5607 6.8727-3.1542 8.5916 38.108 14.691 82.865 13.941 120-3.4375 3.7648-1.0964 4.7121-3.0062 1.5625-5.5625-14.224-17.865-36.723-28.002-59.562-26.344z" fill="url(#e)" filter="url(#j)"/></g></g></svg>
