<?xml version="1.0" encoding="UTF-8"?>
<svg width="86.118mm" height="106.37mm" version="1.1" viewBox="0 0 86.118 106.37" xmlns="http://www.w3.org/2000/svg" xmlns:xlink="http://www.w3.org/1999/xlink"><defs><linearGradient id="b" y2="1"><stop stop-color="#F6111F" offset="0"/><stop stop-color="#f00" offset="1"/></linearGradient><linearGradient id="a"><stop stop-color="#D3B864" offset="0"/><stop stop-color="#EFE395" offset="1"/></linearGradient><radialGradient id="h" cx="319.16" cy="306.87" r="298.89" gradientTransform="scale(1.0398 .96177)" gradientUnits="userSpaceOnUse"><stop stop-color="#FAF0AE" offset="0"/><stop stop-color="#FFFBB7" offset="1"/></radialGradient><radialGradient id="i" cx="334.11" cy="128.03" r="310.55" gradientTransform="scale(1.0398 .96177)" gradientUnits="userSpaceOnUse"><stop stop-color="#FFF9A2" offset="0"/><stop stop-color="#D0B253" offset="1"/></radialGradient><radialGradient id="j" cx="159.74" cy="275.12" r="266.2" gradientTransform="scale(1.0398 .96177)" gradientUnits="userSpaceOnUse"><stop stop-color="#D5BA5C" offset="0"/><stop stop-color="#FFFBB7" offset="1"/></radialGradient><radialGradient id="g" cx="354.44" cy="164.17" r="337" gradientTransform="scale(1.0398 .96177)" gradientUnits="userSpaceOnUse"><stop stop-color="#FFF9A2" offset="0"/><stop stop-color="#D0B253" offset="1"/></radialGradient><linearGradient id="linearGradient912" x1="861.02" x2="992.47" y1="26.473" y2="157.93" gradientTransform="scale(.45644 2.1909)" gradientUnits="userSpaceOnUse" xlink:href="#b"/><linearGradient id="linearGradient914" x1="861.02" x2="992.47" y1="26.473" y2="26.473" gradientTransform="scale(.45644 2.1909)" gradientUnits="userSpaceOnUse" xlink:href="#a"/></defs><g transform="translate(-67.31 -67.68)"><g transform="matrix(.26458 0 0 .26458 67.102 67.421)"><path transform="translate(-64,50)" d="m260 194 0.3 0.3" fill="none" stroke="#f4eead" stroke-linecap="round" stroke-width="2"/><path transform="translate(-64,50)" d="m193 232 0.3 0.3" fill="none" stroke="#f4eead" stroke-linecap="round" stroke-width="2"/><g transform="rotate(155.5 265.93 140.05)"><path d="m393 58h60v288h-60z" fill="url(#linearGradient912)"/><path transform="matrix(.18333 0 0 1 310.95 0)" d="m393 58h60v288h-60z" fill="url(#linearGradient914)"/><path transform="matrix(-.18333 0 0 1 535.5 0)" d="m393 58h60v288h-60z" fill="url(#linearGradient914)"/></g><g transform="matrix(-.91356 -.40669 .40669 -.91356 535.45 505.55)"><path d="m393 58h60v288h-60z" fill="url(#linearGradient912)"/><path transform="matrix(.18333 0 0 1 310.95 0)" d="m393 58h60v288h-60z" fill="url(#linearGradient914)"/><path transform="matrix(-.18333 0 0 1 535.5 0)" d="m393 58h60v288h-60z" fill="url(#linearGradient914)"/></g><g transform="translate(42.75,149.55)" stroke-width="2"><path transform="matrix(.90643 -.00076693 .00082635 .97665 -88.85 -71.6)" d="m239 75c38.349 0 73.099 14.399 98.262 37.661 25.162 23.262 40.738 55.387 40.738 90.839s-15.576 67.577-40.738 90.839c-25.163 23.262-59.913 37.661-98.262 37.661s-73.099-14.399-98.262-37.661c-25.162-23.262-40.738-55.387-40.738-90.839s15.576-67.577 40.738-90.839c25.163-23.262 59.913-37.661 98.262-37.661z" fill="url(#h)" stroke="url(#i)"/><path transform="matrix(.85986 -.00072752 .00078389 .92647 -77.65 -61.35)" d="m239 75c38.349 0 73.099 14.399 98.262 37.661 25.162 23.262 40.738 55.387 40.738 90.839s-15.576 67.577-40.738 90.839c-25.163 23.262-59.913 37.661-98.262 37.661s-73.099-14.399-98.262-37.661c-25.162-23.262-40.738-55.387-40.738-90.839s15.576-67.577 40.738-90.839c25.163-23.262 59.913-37.661 98.262-37.661z" fill="url(#j)" stroke="url(#g)"/></g></g></g></svg>
