<?xml version="1.0" encoding="UTF-8"?>
<svg width="149.6mm" height="69.687mm" version="1.1" viewBox="0 0 149.6 69.687" xmlns="http://www.w3.org/2000/svg"><g transform="translate(-20.452 -129.69)"><g transform="matrix(.26458 0 0 .26458 19.923 129.1)"><path d="m122.2 57.506c19.384 19.953 3.458 56.022-6.692 77.797-20.197 43.322-19.343-29.204-66.043-46.179-23.212-8.438-40.966-8.166-47.22-40.547-2.497-12.925 14.667-75.233 36.733-30.307 32.074 65.307 29.472 26.961 83.222 39.236" fill="#161715"/><path d="m104.27 76.543c13.088 21.373 18.01 60.918-16.056 23.068-31.99-35.545-66.482 0.445-75.656-50.558-3.524-19.598-0.463-46.581 19.933-18.257 38.297 53.178 32.256 10.477 71.779 45.747" fill="#74ad4b"/><path d="m109.61 116.15c-9.806 8.391-13.165-22.151-40.842-30.681-42.686-13.156-69.22-8.505-52.576-66.31 12.714 41.119-7.029 45.692 56.067 54.794 28.847 4.162 49.934 4.208 37.351 42.197" fill="#4a7f3d"/><path d="m416.97 98.003c-21.888-40.585-94.2 3.275-157.88-35.198-78.976-47.719-134.36-107.77-172.32 28.249-28.868 103.43 26.11 134.77 122.33 135.57 67.854 0.562 150.33-23.122 189.59-81.617l5.702-8.5c8.655-14.121 11.261-22.321 12.585-38.505" fill="#161715"/><path d="m407.01 114.98c4.018-14.372-0.588-18.633-17.404-21.481-71.953-7.107-77.621 29.248-149.5-24.102-65.474-48.595-117.85-82.448-147.21 25.948-44.786 165.34 256.73 123.52 306.95 36.368l7.165-16.733" fill="#ea882d"/><path d="m292.38 162.22c-76.41 14.668-46.014-39.669-131.62-33.103-14.878 1.156-23.899 2.589-36.845-5.367-9.058-5.57-32.599-19.804-35.934-1.715-2.987 22.698 7.347 55.216 27.284 68.047 33.343 20.555 88.8 25.784 127.64 18.166 14.771-2.898 33.311-6.981 47.807-10.695 27.217-7.137 64.69-19.979 85.744-37.882 9.812-8.343 39.126-36.576 33.073-51.36-6.871-16.776-65.025 23.183-75.743 29.438-12.848 7.5-25.284 15.068-38.023 22.641-1.2 0.713-2.134 1.232-3.378 1.83" fill="#e1742b"/><path d="m351.03 107.18c40.193 4.924-59.911 44.975-110.63 12.367-51.849-33.333-12.14-30.048-82.23-46.471-89.106-20.877-4.048-68.011 62.203-11.704 69.222 58.83 34.634 50.517 130.66 45.808" fill="#ee9f41"/><path d="m230.39 71.331c-4.309-6.587-13.824-19.491-22.884-18.821-22.414 1.655 29.468 38.785 22.884 18.821zm-67.974-34.257c33.438-1.365 51.983 22.317-0.478 14.457-31.933-4.785-26.491-11.434 0.478-14.457" fill="#fbe6c3"/><path d="m32.062 38.81c5.274 5.32 41.972 41.716 9.26 23.181-5.071-2.874-43.219-62.874-9.26-23.181" fill="#a6ce79"/><path d="m279.35 180.77c5.737-0.916 30.503-3.775 15.97 8.027-23.568 19.138-44.323-1.509-15.97-8.027zm-74.135 12.557c16.74 14.615 68.456 6.924 28.51-4.581-10.79-3.108-18.831-3.611-28.631 1.91zm-49.932-23.457c-21.659-2.264-65.539 5.427-16.433 9.278 16.069 1.261 51.52 21.459 51.344-7.5-0.063-10.363-5.365 9.153-15.855 5.565-6.055-2.071-12.4-5.032-19.056-7.343zm164.49 4.859c11.088 10.432 52.321-15.231 18.152-10.504-5.546 0.77-16.613 4.477-18.152 10.504" fill="#97592d"/><path d="m489.89 172.21c-10.705 3.617-20.687 4.701-31.932 4.263-14.037-0.811-15.34 6.217-17.662 19.211-1.732 11.402-2.106 31.715 14.857 30.067 16.997-2.695 10.922-20.445 36.349-30.999 12.141-4.598 19.372-6.109 31.778-8.925 15.472-3.513 25.235-10.899 37.217-20.696 12.185-9.964 6.015-15.848-1.538-26.876-11.586-16.914-16.802-13.53-26.212 3.468-11.58 20.923-18.767 22.077-40.224 29.566l-2.633 0.921" fill="#161715"/><path d="m551.84 163.24c7.114-7.382 5.578-15.252 0.983-23.673-4.892-8.966-11.011 5.973-14.762 10.748-19.652 22.097-32.694 19.376-57.7 28.865-13.957 5.296-23.364 5.718-28.712 21.833-3.456 10.418 3.329 13.559 12.121 5.146 14.607-13.983 17.544-18.992 38.689-20.827 2.63-0.231 5.186-0.493 7.809-0.785 21.142-2.557 26.574-6.098 41.572-21.307" fill="#74ad4b"/><path d="m551.84 163.24c7.114-7.382 5.578-15.252 0.983-23.673-0.651-1.192-1.324-1.96-2.011-2.386 0.101 0.529 0.211 1.071 0.33 1.625 2.724 12.696-1.299 19.383-11.357 27.337-18.84 14.904-31.985 9.994-52.894 15.571-4.928 1.765-9.566 3.475-14.577 5.067-5.138 1.587-10.534 3.029-15.849 4.722-1.869 2.395-3.471 5.457-4.816 9.51-3.456 10.418 3.329 13.559 12.121 5.146 14.607-13.983 17.544-18.992 38.689-20.827 2.63-0.231 5.186-0.493 7.809-0.785 21.142-2.557 26.574-6.098 41.572-21.307" fill="#4a7f3d"/><path d="m281.38 199.97c77.987 0.577 121.47-44.781 161.62-45.745 39.411-0.943 39.152 69.416 23.472 87.622-25.775 29.926-146.04 25.954-184.05 18.181-37.312-7.626-93.353-31.758-114.43-64.506-20.612-32.021 56.559-7.611 67.11-4.848 17.068 4.465 28.322 8.094 46.275 9.296" fill="#161715"/><path d="m448.8 167.38c17.671 8.429 23.194 28.58 20.852 46.721-4.025 31.176-34.59 32.316-59.373 37.377-45.623 9.317-77.234 9.772-123.33 0.346-4.004-0.816-7.843-1.727-11.807-2.697-38.153-9.723-64.893-19.638-95.743-45.019-36.038-30.463 38.981-12.2 48.908-9.188 39.875 11.912 71.814 21.387 111.96 5.16 19.014-7.687 37.108-16.285 56.586-23.853 16.368-6.306 34.29-12.454 51.949-8.847" fill="#b8362b"/><path d="m470.09 209.21c-0.08 1.636-0.227 3.269-0.434 4.885-4.025 31.176-34.59 32.316-59.373 37.377-45.623 9.317-77.234 9.772-123.33 0.346-4.004-0.816-7.843-1.727-11.807-2.697-38.153-9.723-64.893-19.638-95.743-45.019-7.447-6.296-10.143-10.506-9.658-13.203 9.911 1.489 23.477 4.763 26.928 5.739 43.843 12.416 71.951 45.948 118.73 42.54 25.37-2.829 47.831-18.067 78.976-22.15 33.094-2.501 43.148 1.008 75.704-7.818" fill="#7d2823"/><path d="m322.44 209.92c-26.47 8.881-33.695 5.874-60.14-2.319-11.774-3.667-24.227-5.68-36.328-8.403-28.404-6.428 4.39 7.933 11.366 10.267 10.895 3.603 22.102 7.144 33.057 10.683 23.899 6.521 51.614 8.283 74.826-1.535 18.412-7.791 28.054-14.723 48.776-19.522 6.555-1.519 13.242-2.604 19.842-3.943 8.606-1.67 15.148-3.172 23.613-5.489 4.728-1.297 23.916-6.537 12.977-14.069-13.25-7.922-34.821-2.41-48.878 1.652-25.797 8.054-49.97 23.17-76.836 31.935l-2.275 0.743" fill="#dd432a"/><path d="m373.86 190.69 1.804 0.13c15.039 1.089-18.989 12.269-20.781 12.62-18.558 3.636 9.141-11.601 18.977-12.75zm48.01-16.421c-13.804 0.574-23.995 6.692-35.825 13.074-9.682 5.223 5.358 2.204 8.015 1.348 17.067-5.496 19.431-7.038 37.753-8.25 12.821-0.847-3.048-5.936-7.883-6.101l-2.06-0.071" fill="#f1af98"/><path d="m548.79 143.22c-0.296-4.78-8.387 7.528-8.885 8.194-7.355 9.347-13.902 14.095-24.906 18.491-5.73 2.29-10.31 5.843-0.471 3.718 10.488-2.266 22.243-8.397 28.528-17.306 0.939-1.33 1.782-2.687 2.611-4.086 1.586-2.755 3.089-5.77 3.123-9.011" fill="#a6ce79"/><path d="m286.98 247.33c-2.651-0.48-12.177-0.695-13.536-2.167-1.409-1.526 1.675-2.765 2.726-3.053 7.649-1.826 18.952 0.814 26.03 3.95 5.261 2.332 4.554 7.708-4.415 4.789-3.803-1.238-6.812-2.566-10.805-3.519zm39.744 8.651c-6.783 0.054-7.331-5.364-0.905-5.992 9.22-0.864 21.902-1.183 31.225-0.857 8.897 0.312 5.31 3.049-0.849 4.133-7.337 1.29-17.101 1.725-24.8 2.42-1.57 0.145-3.094 0.261-4.671 0.296zm83.798-12.497c-6.55 2.364-13.438 3.386-19.669 6.101-7.462 3.251-9.869 1.598-15.295-4.338-0.994-1.111-4.733-5.016-0.128-3.86 7.829 2.463 6.287 7.723 15.748 2.971 5.423-2.721 11.219-3.797 16.982-6.058 12.656-4.734 15.702 0.548 27.495 2.518 2.102 0.353 3.549 0.832 0.036 2.031-6.139 2.09-14.272-2.769-22.253-0.359-0.966 0.291-1.962 0.656-2.916 0.994zm-158.31-10.393c3.982 1.234 2.943 5.961-1.876 4.39-5.616-1.83-7.31-2.193-12.975-2.958-3.379-0.456-11.947-1.692-13.022-5.486-0.596-2.099 6.478 0.322 7.294 0.505 6.796 1.516 13.782 2.015 20.579 3.549" fill="#251612"/></g></g></svg>
