<?xml version="1.0" encoding="UTF-8" standalone="no"?>
<!-- Created with Inkscape (http://www.inkscape.org/) -->

<svg
   xmlns:dc="http://purl.org/dc/elements/1.1/"
   xmlns:cc="http://creativecommons.org/ns#"
   xmlns:rdf="http://www.w3.org/1999/02/22-rdf-syntax-ns#"
   xmlns:svg="http://www.w3.org/2000/svg"
   xmlns="http://www.w3.org/2000/svg"
   xmlns:xlink="http://www.w3.org/1999/xlink"
   xmlns:sodipodi="http://sodipodi.sourceforge.net/DTD/sodipodi-0.dtd"
   xmlns:inkscape="http://www.inkscape.org/namespaces/inkscape"
   width="98.519302mm"
   height="75.759476mm"
   viewBox="0 0 98.519301 75.759476"
   version="1.1"
   id="svg8"
   inkscape:version="0.92.3 (2405546, 2018-03-11)"
   sodipodi:docname="piano.svg">
  <defs
     id="defs2">
    <clipPath
       id="bg">
      <path
         id="path815"
         d="m 1717.8327,1086.5104 c -3.4699,1.9226 -7.4618,2.4262 -11.282,3.2519 -1.123,0.2138 -2.3003,0.5321 -3.1414,1.3534 -0.515,1.3026 0.7678,2.7546 2.1008,2.6702 1.6011,0.1036 3.208,-0.148 4.7613,-0.5113 2.2282,-0.864 4.0395,-2.5108 6.2405,-3.431 1.0553,-0.5424 2.6403,-1.3143 3.7071,-1.8334 0,0 0.4905,-1.6298 -2.1575,-1.4915"
         inkscape:connector-curvature="0" />
    </clipPath>
    <clipPath
       id="bf">
      <path
         id="path818"
         d="m 1732.682,1091.2834 c -2.871,1.2434 -5.7777,2.4239 -8.611,3.7339 -1.5959,0.7641 -2.5463,1.4576 -3.675,2.6524 -0.9249,1.5551 0.3724,3.7367 2.3615,3.9244 1.3669,0.4662 3.1142,-0.036 3.7564,-1.231 1.2827,-1.5848 2.2445,-3.4185 3.9911,-4.6706 1.0412,-0.9307 2.2064,-1.8047 3.6074,-2.2783 0.6639,-0.4751 0.2853,-1.5701 -0.5498,-1.6716 -0.3067,-0.1308 -0.6305,-0.2486 -0.8806,-0.4592 z"
         inkscape:connector-curvature="0" />
    </clipPath>
    <clipPath
       id="bd">
      <path
         id="path821"
         d="m 1724.8125,1088.7372 c -3.7271,1.9506 -7.8619,2.891 -11.7461,4.4527 -0.9621,0.5105 -1.9767,1.2516 -2.2422,2.3642 -0.013,1.1316 1.0644,1.9183 2.0656,2.1786 1.5064,0.4311 4.0802,-0.414 5.2846,-1.4216 2.6725,-1.9944 4.3902,-3.6591 7.4377,-5.0717 0.6644,-0.1353 1.0442,-0.8852 0.712,-1.4916 -0.2569,-0.5851 -0.9195,-0.8929 -1.5116,-1.0106 z"
         inkscape:connector-curvature="0" />
    </clipPath>
    <clipPath
       id="p">
      <path
         id="path824"
         d="m 1732.682,1092.2834 c -2.871,1.2434 -5.7777,2.4239 -8.611,3.7339 -1.5959,0.7641 -2.5463,1.4576 -3.675,2.6524 -0.9249,1.5551 0.3724,3.7367 2.3615,3.9244 1.3669,0.4662 3.1142,-0.036 3.7564,-1.231 1.2827,-1.5848 2.2445,-3.4185 3.9911,-4.6706 1.0412,-0.9307 2.2064,-1.8047 3.6074,-2.2783 0.6639,-0.4751 0.2853,-1.5701 -0.5498,-1.6716 -0.3067,-0.1308 -0.6305,-0.2486 -0.8806,-0.4592 z"
         inkscape:connector-curvature="0" />
    </clipPath>
    <clipPath
       id="be">
      <path
         id="path827"
         d="m 1725.1071,1088.5892 c -3.8386,2.009 -8.0971,2.9775 -12.0975,4.5859 -0.9909,0.5258 -2.0359,1.2891 -2.3093,2.435 -0.013,1.1654 1.0962,1.9757 2.1274,2.2438 1.5515,0.444 4.2023,-0.4264 5.4427,-1.4642 2.7525,-2.054 4.5216,-3.7685 7.6603,-5.2234 0.6842,-0.1394 1.0754,-0.9117 0.7333,-1.5362 -0.2646,-0.6026 -0.947,-0.9197 -1.5569,-1.0409 z"
         inkscape:connector-curvature="0" />
    </clipPath>
    <clipPath
       id="bh">
      <path
         id="path830"
         d="m 1717.8327,1087.5104 c -3.4699,1.9226 -7.4618,2.4262 -11.282,3.2519 -1.123,0.2138 -2.3003,0.5321 -3.1414,1.3534 -0.515,1.3026 0.7678,2.7546 2.1008,2.6702 1.6011,0.1036 3.208,-0.148 4.7613,-0.5113 2.2282,-0.864 4.0395,-2.5108 6.2405,-3.431 1.0553,-0.5424 2.6403,-1.3143 3.7071,-1.8334 0,0 0.4905,-1.6298 -2.1575,-1.4915"
         inkscape:connector-curvature="0" />
    </clipPath>
    <clipPath
       id="bi">
      <path
         id="path833"
         d="m 1718.5628,1086.324 c -3.7808,2.0948 -8.1303,2.6435 -12.2928,3.5432 -1.2236,0.233 -2.5064,0.5798 -3.4229,1.4747 -0.5611,1.4193 0.8366,3.0014 2.289,2.9094 1.7446,0.1129 3.4955,-0.1612 5.1879,-0.5571 2.4279,-0.9414 4.4015,-2.7357 6.7997,-3.7384 1.1498,-0.591 2.8768,-1.4321 4.0392,-1.9977 0,0 0.5345,-1.7758 -2.3508,-1.6251"
         inkscape:connector-curvature="0" />
    </clipPath>
    <clipPath
       id="bj">
      <path
         id="path836"
         d="m 1724.8125,1089.7372 c -3.7271,1.9506 -7.8619,2.891 -11.7461,4.4527 -0.9621,0.5105 -1.9767,1.2516 -2.2422,2.3642 -0.013,1.1316 1.0644,1.9183 2.0656,2.1786 1.5064,0.4311 4.0802,-0.414 5.2846,-1.4216 2.6725,-1.9944 4.3902,-3.6591 7.4377,-5.0717 0.6644,-0.1353 1.0442,-0.8852 0.712,-1.4916 -0.2569,-0.5851 -0.9195,-0.8929 -1.5116,-1.0106 z"
         inkscape:connector-curvature="0" />
    </clipPath>
    <filter
       id="au">
      <feGaussianBlur
         id="feGaussianBlur839"
         stdDeviation=".3594" />
    </filter>
    <filter
       id="av">
      <feGaussianBlur
         id="feGaussianBlur842"
         stdDeviation="1.2575" />
    </filter>
    <filter
       id="aw">
      <feGaussianBlur
         id="feGaussianBlur845"
         stdDeviation=".7308" />
    </filter>
    <filter
       id="a" />
    <filter
       height="1.2861"
       width="1.2067"
       y="-0.14306"
       x="-0.10334"
       id="bb">
      <feGaussianBlur
         id="feGaussianBlur849"
         stdDeviation=".265" />
    </filter>
    <filter
       height="1.3726"
       width="1.177"
       y="-0.18628"
       x="-0.088509999"
       id="bc">
      <feGaussianBlur
         id="feGaussianBlur852"
         stdDeviation=".2904" />
    </filter>
    <filter
       height="1.4237"
       width="1.1674"
       y="-0.21186"
       x="-0.08371"
       id="ax">
      <feGaussianBlur
         id="feGaussianBlur855"
         stdDeviation=".5903" />
    </filter>
    <filter
       height="1.3019"
       width="1.1992"
       y="-0.15093"
       x="-0.099590003"
       id="ay">
      <feGaussianBlur
         id="feGaussianBlur858"
         stdDeviation=".5447" />
    </filter>
    <filter
       height="1.3468"
       width="1.1835001"
       y="-0.17339"
       x="-0.091750003"
       id="az">
      <feGaussianBlur
         id="feGaussianBlur861"
         stdDeviation=".5449" />
    </filter>
    <filter
       height="1.3169"
       width="1.1931"
       y="-0.15847"
       x="-0.096560001"
       id="ba" />
    <linearGradient
       gradientUnits="userSpaceOnUse"
       y2="601.87"
       y1="612.90002"
       x2="1181.4"
       x1="1187.9"
       id="l">
      <stop
         id="stop865"
         offset="0"
         stop-color="#542e07" />
      <stop
         id="stop867"
         offset=".25"
         stop-color="#774800" />
      <stop
         id="stop869"
         offset=".4476"
         stop-color="#d29836" />
      <stop
         id="stop871"
         offset=".5"
         stop-color="#fffffd" />
      <stop
         id="stop873"
         offset=".5665"
         stop-color="#fede71" />
      <stop
         id="stop875"
         offset=".75"
         stop-color="#936212" />
      <stop
         id="stop877"
         offset="1"
         stop-color="#996418" />
    </linearGradient>
    <linearGradient
       gradientUnits="userSpaceOnUse"
       y2="1118.9"
       y1="1112.5"
       x2="1812"
       x1="1805.6"
       id="k">
      <stop
         id="stop880"
         offset="0"
         stop-color="#a48645" />
      <stop
         id="stop882"
         offset=".5"
         stop-color="#b09254" />
      <stop
         id="stop884"
         offset="1"
         stop-color="#816128" />
    </linearGradient>
    <linearGradient
       gradientUnits="userSpaceOnUse"
       y2="1115.5"
       y1="1110.3"
       x2="1807.5"
       x1="1808.3"
       id="i">
      <stop
         id="stop887"
         offset="0"
         stop-color="#241600" />
      <stop
         id="stop889"
         offset=".4583"
         stop-color="#584d28" />
      <stop
         id="stop891"
         offset=".488"
         stop-color="#6d5d22" />
      <stop
         id="stop893"
         offset=".6862"
         stop-color="#dcc776" />
      <stop
         id="stop895"
         offset=".7908"
         stop-color="#6b562c" />
      <stop
         id="stop897"
         offset=".9023"
         stop-color="#8a6a30" />
      <stop
         id="stop899"
         offset="1"
         stop-color="#43330f" />
    </linearGradient>
    <linearGradient
       gradientUnits="userSpaceOnUse"
       y2="1119.5"
       y1="1115.1"
       x2="1798.7"
       x1="1800"
       id="j">
      <stop
         id="stop902"
         offset="0"
         stop-color="#43330f" />
      <stop
         id="stop904"
         offset=".25"
         stop-color="#574725" />
      <stop
         id="stop906"
         offset=".5"
         stop-color="#615739" />
      <stop
         id="stop908"
         offset=".75"
         stop-color="#666962" />
      <stop
         id="stop910"
         offset="1"
         stop-color="#f9f9f9" />
    </linearGradient>
    <linearGradient
       gradientUnits="userSpaceOnUse"
       y2="1117.8"
       y1="1108.5"
       x2="1810.6"
       x1="1804.9"
       id="h">
      <stop
         id="stop913"
         offset="0"
         stop-color="#080800" />
      <stop
         id="stop915"
         offset=".2727"
         stop-color="#714f05" />
      <stop
         id="stop917"
         offset="1"
         stop-color="#785f27" />
    </linearGradient>
    <linearGradient
       gradientUnits="userSpaceOnUse"
       gradientTransform="matrix(-0.95382,0,0,1.017,2939.9,498.5)"
       y2="610.59003"
       y1="603.59003"
       x2="1181.1"
       x1="1189.5"
       id="e">
      <stop
         id="stop920"
         offset="0"
         stop-color="#a59159" />
      <stop
         id="stop922"
         offset=".5"
         stop-color="#786b35" />
      <stop
         id="stop924"
         offset="1"
         stop-color="#ebe591" />
    </linearGradient>
    <linearGradient
       gradientUnits="userSpaceOnUse"
       y2="1117.6"
       y1="1108.3"
       x2="1810.7"
       x1="1805"
       id="g">
      <stop
         id="stop927"
         offset="0"
         stop-color="#a08848" />
      <stop
         id="stop929"
         offset="1"
         stop-color="#9f864d" />
    </linearGradient>
    <linearGradient
       gradientUnits="userSpaceOnUse"
       y2="606.34003"
       y1="608.34998"
       x2="1183"
       x1="1185.1"
       id="f">
      <stop
         id="stop932"
         offset="0"
         stop-color="#775f19" />
      <stop
         id="stop934"
         offset=".25"
         stop-color="#c3a140" />
      <stop
         id="stop936"
         offset=".5"
         stop-color="#fefeda" />
      <stop
         id="stop938"
         offset=".75"
         stop-color="#beab57" />
      <stop
         id="stop940"
         offset="1"
         stop-color="#674b19" />
    </linearGradient>
    <linearGradient
       id="o">
      <stop
         id="stop943"
         offset="0"
         stop-color="#e2c57f" />
      <stop
         id="stop945"
         offset="1"
         stop-color="#947322" />
    </linearGradient>
    <linearGradient
       gradientUnits="userSpaceOnUse"
       y2="1090.3"
       y1="1097.5"
       x2="1722.9"
       x1="1708.7"
       id="as">
      <stop
         id="stop948"
         offset="0"
         stop-color="#e2c57f" />
      <stop
         id="stop950"
         offset=".9256"
         stop-color="#997928" />
      <stop
         id="stop952"
         offset="1"
         stop-color="#947322" />
    </linearGradient>
    <linearGradient
       id="m">
      <stop
         id="stop955"
         offset="0"
         stop-color="#f3e9d7" />
      <stop
         id="stop957"
         offset="1"
         stop-color="#c7a15a" />
    </linearGradient>
    <linearGradient
       gradientUnits="userSpaceOnUse"
       y2="362.82001"
       y1="313.87"
       x2="1296.7"
       x1="1297.1"
       id="aq">
      <stop
         id="stop960"
         offset="0"
         stop-color="#4d4d4d" />
      <stop
         id="stop962"
         offset="1"
         stop-color="#3c3c3c" />
    </linearGradient>
    <linearGradient
       gradientUnits="userSpaceOnUse"
       x2="1860.8"
       x1="1694.5"
       id="q">
      <stop
         id="stop965"
         offset="0"
         stop-color="#3c3837" />
      <stop
         id="stop967"
         offset="1"
         stop-opacity="0"
         stop-color="#3c3837" />
    </linearGradient>
    <linearGradient
       gradientUnits="userSpaceOnUse"
       y2="262.39001"
       y1="296.67999"
       x2="188.34"
       x1="174.50999"
       id="am"
       gradientTransform="matrix(0.26458333,0,0,0.26458333,60.880448,92.222383)">
      <stop
         id="stop970"
         offset="0"
         stop-color="#3a3a3a" />
      <stop
         id="stop972"
         offset="1"
         stop-color="#494949" />
    </linearGradient>
    <linearGradient
       gradientUnits="userSpaceOnUse"
       y2="282.23001"
       y1="305.57999"
       x2="443.82999"
       x1="211.52"
       id="al"
       gradientTransform="matrix(0.26458333,0,0,0.26458333,60.880448,92.222383)">
      <stop
         id="stop975"
         offset="0"
         stop-color="#bdbdbd" />
      <stop
         id="stop977"
         offset=".1591"
         stop-color="#bbb" />
      <stop
         id="stop979"
         offset=".3732"
         stop-color="#cacaca" />
      <stop
         id="stop981"
         offset=".4935"
         stop-color="#969696" />
      <stop
         id="stop983"
         offset=".6512"
         stop-color="#6c6c6c" />
      <stop
         id="stop985"
         offset=".7713"
         stop-color="#9d9d9d" />
      <stop
         id="stop987"
         offset=".8801"
         stop-color="#9f9f9f" />
      <stop
         id="stop989"
         offset=".9693"
         stop-color="#c3c3c3" />
      <stop
         id="stop991"
         offset=".9846"
         stop-color="#7f7e7e" />
      <stop
         id="stop993"
         offset="1"
         stop-color="#808080" />
    </linearGradient>
    <linearGradient
       gradientUnits="userSpaceOnUse"
       x2="100.44"
       x1="93.010002"
       id="ak"
       gradientTransform="matrix(0.26458333,0,0,0.26458333,60.880448,92.222383)">
      <stop
         id="stop996"
         offset="0"
         stop-color="#d9d9d9" />
      <stop
         id="stop998"
         offset="1"
         stop-color="#4e4e4e" />
    </linearGradient>
    <linearGradient
       gradientUnits="userSpaceOnUse"
       y2="314.14001"
       y1="360.54999"
       x2="0"
       id="aj"
       gradientTransform="matrix(0.26458333,0,0,0.26458333,60.880448,92.222383)">
      <stop
         id="stop1001"
         offset="0"
         stop-color="#383838" />
      <stop
         id="stop1003"
         offset=".4422"
         stop-color="#4c4c4c" />
      <stop
         id="stop1005"
         offset=".5517"
         stop-color="#a5a5a5" />
      <stop
         id="stop1007"
         offset="1"
         stop-color="#8e8e8e" />
    </linearGradient>
    <linearGradient
       gradientUnits="userSpaceOnUse"
       x2="444.34"
       x1="201.73"
       id="ai"
       gradientTransform="matrix(0.26458333,0,0,0.26458333,60.880448,92.222383)">
      <stop
         id="stop1010"
         offset="0"
         stop-color="#3d3a3a" />
      <stop
         id="stop1012"
         offset=".1158"
         stop-color="#3c3c3c" />
      <stop
         id="stop1014"
         offset=".3941"
         stop-color="#262626" />
      <stop
         id="stop1016"
         offset=".3988"
         stop-color="#282828" />
      <stop
         id="stop1018"
         offset=".4489"
         stop-color="#303030" />
      <stop
         id="stop1020"
         offset=".5177"
         stop-color="#2c2c2c" />
      <stop
         id="stop1022"
         offset=".5709"
         stop-color="#363636" />
      <stop
         id="stop1024"
         offset=".6399"
         stop-color="#3e3e3e" />
      <stop
         id="stop1026"
         offset=".7345"
         stop-color="#525252" />
      <stop
         id="stop1028"
         offset=".8651"
         stop-color="#767676" />
      <stop
         id="stop1030"
         offset=".9521"
         stop-color="#707070" />
      <stop
         id="stop1032"
         offset=".9787"
         stop-color="#7b7b7b" />
      <stop
         id="stop1034"
         offset="1"
         stop-color="#4f4f4f" />
    </linearGradient>
    <linearGradient
       gradientUnits="userSpaceOnUse"
       y2="301.95999"
       y1="305.95001"
       x2="207.39999"
       x1="207.00999"
       id="ah"
       gradientTransform="matrix(0.26458333,0,0,0.26458333,60.880448,92.222383)">
      <stop
         id="stop1037"
         offset="0"
         stop-color="#4b4b4b" />
      <stop
         id="stop1039"
         offset="1"
         stop-color="#5f5f5f" />
    </linearGradient>
    <linearGradient
       gradientUnits="userSpaceOnUse"
       y2="300.42001"
       y1="339.45999"
       x2="0"
       id="ag"
       gradientTransform="matrix(0.26458333,0,0,0.26458333,60.880448,92.222383)">
      <stop
         id="stop1042"
         offset="0"
         stop-color="#979797" />
      <stop
         id="stop1044"
         offset=".4422"
         stop-color="#ababab" />
      <stop
         id="stop1046"
         offset=".5517"
         stop-color="#d3d3d3" />
      <stop
         id="stop1048"
         offset="1"
         stop-color="#979797" />
    </linearGradient>
    <linearGradient
       gradientUnits="userSpaceOnUse"
       y2="180.27"
       y1="260.14001"
       x2="272.13"
       x1="192.25999"
       id="af"
       gradientTransform="matrix(0.26458333,0,0,0.26458333,60.880448,92.222383)">
      <stop
         id="stop1051"
         offset="0"
         stop-color="#a5a5a5" />
      <stop
         id="stop1053"
         offset="1"
         stop-color="#7d7d7d" />
    </linearGradient>
    <linearGradient
       gradientUnits="userSpaceOnUse"
       x2="333.32999"
       x1="273.84"
       id="ae"
       gradientTransform="matrix(0.26458333,0,0,0.26458333,60.880448,92.222383)">
      <stop
         id="stop1056"
         offset="0"
         stop-color="#626262" />
      <stop
         id="stop1058"
         offset="1"
         stop-color="#606060" />
    </linearGradient>
    <linearGradient
       gradientUnits="userSpaceOnUse"
       x2="443.59"
       x1="202.86"
       id="ad"
       gradientTransform="matrix(0.26458333,0,0,0.26458333,60.880448,92.222383)">
      <stop
         id="stop1061"
         offset="0"
         stop-color="#3e3e3e" />
      <stop
         id="stop1063"
         offset=".1158"
         stop-color="#414141" />
      <stop
         id="stop1065"
         offset=".3941"
         stop-color="#3d3d3d" />
      <stop
         id="stop1067"
         offset=".3988"
         stop-color="#2d2d2d" />
      <stop
         id="stop1069"
         offset=".4489"
         stop-color="#282828" />
      <stop
         id="stop1071"
         offset=".5177"
         stop-color="#353535" />
      <stop
         id="stop1073"
         offset=".5709"
         stop-color="#363636" />
      <stop
         id="stop1075"
         offset=".6399"
         stop-color="#3a3a3a" />
      <stop
         id="stop1077"
         offset=".7345"
         stop-color="#4d4d4d" />
      <stop
         id="stop1079"
         offset=".841"
         stop-color="#6b6b6b" />
      <stop
         id="stop1081"
         offset=".9521"
         stop-color="#717171" />
      <stop
         id="stop1083"
         offset=".9787"
         stop-color="#6e6e6e" />
      <stop
         id="stop1085"
         offset="1"
         stop-color="#545454" />
    </linearGradient>
    <linearGradient
       gradientUnits="userSpaceOnUse"
       y2="292.39999"
       y1="200.53"
       x2="307.16"
       x1="282.31"
       id="ac"
       gradientTransform="matrix(0.26458333,0,0,0.26458333,60.880448,92.222383)">
      <stop
         id="stop1088"
         offset="0"
         stop-color="#808080" />
      <stop
         id="stop1090"
         offset="1"
         stop-color="#4d4d4d" />
    </linearGradient>
    <linearGradient
       gradientUnits="userSpaceOnUse"
       y2="270.28"
       y1="294.66"
       x2="442.89001"
       x1="96.313004"
       id="ab"
       gradientTransform="matrix(0.26458333,0,0,0.26458333,60.880448,92.222383)">
      <stop
         id="stop1093"
         offset="0"
         stop-color="#909090" />
      <stop
         id="stop1095"
         offset=".1593"
         stop-color="#939393" />
      <stop
         id="stop1097"
         offset=".3502"
         stop-color="#686868" />
      <stop
         id="stop1099"
         offset=".8537"
         stop-color="#7a7a7a" />
      <stop
         id="stop1101"
         offset=".9132"
         stop-color="#555" />
      <stop
         id="stop1103"
         offset="1"
         stop-color="#808080" />
    </linearGradient>
    <linearGradient
       gradientUnits="userSpaceOnUse"
       y2="238.92999"
       y1="276.59"
       x2="361.37"
       x1="308.66"
       id="aa"
       gradientTransform="matrix(0.26458333,0,0,0.26458333,60.880448,92.222383)">
      <stop
         id="stop1106"
         offset="0"
         stop-color="#343434" />
      <stop
         id="stop1108"
         offset="1"
         stop-color="#424242" />
    </linearGradient>
    <linearGradient
       gradientUnits="userSpaceOnUse"
       y2="203.53999"
       y1="181.71001"
       x2="305.64999"
       x1="329.75"
       id="z"
       gradientTransform="matrix(0.26458333,0,0,0.26458333,60.880448,92.222383)">
      <stop
         id="stop1111"
         offset="0"
         stop-color="#3b3b3b" />
      <stop
         id="stop1113"
         offset="1"
         stop-color="#3c3c3c" />
    </linearGradient>
    <linearGradient
       gradientUnits="userSpaceOnUse"
       y2="317.59"
       y1="308.34"
       x2="157.89999"
       x1="159.64999"
       id="y"
       gradientTransform="matrix(0.26458333,0,0,0.26458333,60.880448,92.222383)">
      <stop
         id="stop1116"
         offset="0"
         stop-color="#252525" />
      <stop
         id="stop1118"
         offset="1"
         stop-color="#282828" />
    </linearGradient>
    <linearGradient
       gradientUnits="userSpaceOnUse"
       x2="442.19"
       x1="212.28"
       id="x"
       gradientTransform="matrix(0.26458333,0,0,0.26458333,60.880448,92.222383)">
      <stop
         id="stop1121"
         offset="0"
         stop-color="#363636" />
      <stop
         id="stop1123"
         offset=".125"
         stop-color="#323232" />
      <stop
         id="stop1125"
         offset=".3122"
         stop-color="#474747" />
      <stop
         id="stop1127"
         offset=".5"
         stop-color="#303030" />
      <stop
         id="stop1129"
         offset=".7697"
         stop-color="#272727" />
      <stop
         id="stop1131"
         offset="1"
         stop-color="#2b2b2b" />
    </linearGradient>
    <linearGradient
       gradientUnits="userSpaceOnUse"
       y2="382.82001"
       y1="324.45999"
       x2="0"
       id="w"
       gradientTransform="matrix(0.26458333,0,0,0.26458333,60.880448,92.222383)">
      <stop
         id="stop1134"
         offset="0"
         stop-color="#2f2f2f" />
      <stop
         id="stop1136"
         offset="1"
         stop-color="#5b5b5b" />
    </linearGradient>
    <linearGradient
       gradientUnits="userSpaceOnUse"
       y2="383.14001"
       y1="322.84"
       x2="0"
       id="v"
       gradientTransform="matrix(0.26458333,0,0,0.26458333,60.880448,92.222383)">
      <stop
         id="stop1139"
         offset="0"
         stop-color="#393939" />
      <stop
         id="stop1141"
         offset="1"
         stop-color="#767676" />
    </linearGradient>
    <linearGradient
       gradientUnits="userSpaceOnUse"
       y2="451.41"
       y1="436.56"
       x2="244.67999"
       x1="257.41"
       id="u"
       gradientTransform="matrix(0.26458333,0,0,0.26458333,60.880448,92.222383)">
      <stop
         id="stop1144"
         offset="0"
         stop-color="#4f4f4f" />
      <stop
         id="stop1146"
         offset="1"
         stop-color="#434343" />
    </linearGradient>
    <linearGradient
       gradientUnits="userSpaceOnUse"
       y2="357.31"
       y1="362.31"
       x2="283.07999"
       x1="217.69"
       id="t"
       gradientTransform="matrix(0.26458333,0,0,0.26458333,60.880448,92.222383)">
      <stop
         id="stop1149"
         offset="0"
         stop-color="#585858" />
      <stop
         id="stop1151"
         offset="1"
         stop-color="#2e2e2e" />
    </linearGradient>
    <linearGradient
       gradientUnits="userSpaceOnUse"
       y2="435.09"
       y1="374.92999"
       x2="253.34"
       x1="254.57001"
       id="s"
       gradientTransform="matrix(0.26458333,0,0,0.26458333,60.880448,92.222383)">
      <stop
         id="stop1154"
         offset="0"
         stop-color="#505050" />
      <stop
         id="stop1156"
         offset="1"
         stop-color="#444" />
    </linearGradient>
    <linearGradient
       gradientUnits="userSpaceOnUse"
       y2="436.60001"
       y1="374.32999"
       x2="0"
       id="r"
       gradientTransform="matrix(0.26458333,0,0,0.26458333,60.880448,92.222383)">
      <stop
         id="stop1159"
         offset="0"
         stop-color="#282828" />
      <stop
         id="stop1161"
         offset="1"
         stop-color="#494949" />
    </linearGradient>
    <linearGradient
       xlink:href="#o"
       gradientUnits="userSpaceOnUse"
       y2="1087.4"
       y1="1093.6"
       x2="1716"
       x1="1701.3"
       id="ar" />
    <linearGradient
       xlink:href="#o"
       gradientUnits="userSpaceOnUse"
       y2="1092.6"
       y1="1101.4"
       x2="1731.2"
       x1="1719.3"
       id="at" />
    <linearGradient
       xlink:href="#m"
       gradientUnits="userSpaceOnUse"
       y2="1102.7"
       y1="1099.6"
       x2="1725.7"
       x1="1720.2"
       id="an" />
    <linearGradient
       xlink:href="#m"
       gradientUnits="userSpaceOnUse"
       x2="1718.8"
       x1="1710.7"
       id="ao" />
    <linearGradient
       xlink:href="#m"
       gradientUnits="userSpaceOnUse"
       x2="1708.2"
       x1="1703.4"
       id="ap" />
    <linearGradient
       inkscape:collect="always"
       xlink:href="#l"
       id="linearGradient1859"
       gradientUnits="userSpaceOnUse"
       x1="1187.9"
       y1="612.90002"
       x2="1181.4"
       y2="601.87" />
    <linearGradient
       inkscape:collect="always"
       xlink:href="#k"
       id="linearGradient1861"
       gradientUnits="userSpaceOnUse"
       x1="1805.6"
       y1="1112.5"
       x2="1812"
       y2="1118.9" />
    <linearGradient
       inkscape:collect="always"
       xlink:href="#i"
       id="linearGradient1863"
       gradientUnits="userSpaceOnUse"
       x1="1808.3"
       y1="1110.3"
       x2="1807.5"
       y2="1115.5" />
    <linearGradient
       inkscape:collect="always"
       xlink:href="#j"
       id="linearGradient1865"
       gradientUnits="userSpaceOnUse"
       x1="1800"
       y1="1115.1"
       x2="1798.7"
       y2="1119.5" />
    <linearGradient
       inkscape:collect="always"
       xlink:href="#h"
       id="linearGradient1867"
       gradientUnits="userSpaceOnUse"
       x1="1804.9"
       y1="1108.5"
       x2="1810.6"
       y2="1117.8" />
    <linearGradient
       inkscape:collect="always"
       xlink:href="#e"
       id="linearGradient1869"
       gradientUnits="userSpaceOnUse"
       gradientTransform="matrix(-0.95382,0,0,1.017,2939.9,498.5)"
       x1="1189.5"
       y1="603.59003"
       x2="1181.1"
       y2="610.59003" />
    <linearGradient
       inkscape:collect="always"
       xlink:href="#g"
       id="linearGradient1871"
       gradientUnits="userSpaceOnUse"
       x1="1805"
       y1="1108.3"
       x2="1810.7"
       y2="1117.6" />
    <linearGradient
       inkscape:collect="always"
       xlink:href="#f"
       id="linearGradient1873"
       gradientUnits="userSpaceOnUse"
       x1="1185.1"
       y1="608.34998"
       x2="1183"
       y2="606.34003" />
    <linearGradient
       inkscape:collect="always"
       xlink:href="#l"
       id="linearGradient1875"
       gradientUnits="userSpaceOnUse"
       x1="1187.9"
       y1="612.90002"
       x2="1181.4"
       y2="601.87" />
    <linearGradient
       inkscape:collect="always"
       xlink:href="#k"
       id="linearGradient1877"
       gradientUnits="userSpaceOnUse"
       x1="1805.6"
       y1="1112.5"
       x2="1812"
       y2="1118.9" />
    <linearGradient
       inkscape:collect="always"
       xlink:href="#i"
       id="linearGradient1879"
       gradientUnits="userSpaceOnUse"
       x1="1808.3"
       y1="1110.3"
       x2="1807.5"
       y2="1115.5" />
    <linearGradient
       inkscape:collect="always"
       xlink:href="#j"
       id="linearGradient1881"
       gradientUnits="userSpaceOnUse"
       x1="1800"
       y1="1115.1"
       x2="1798.7"
       y2="1119.5" />
    <linearGradient
       inkscape:collect="always"
       xlink:href="#h"
       id="linearGradient1883"
       gradientUnits="userSpaceOnUse"
       x1="1804.9"
       y1="1108.5"
       x2="1810.6"
       y2="1117.8" />
    <linearGradient
       inkscape:collect="always"
       xlink:href="#e"
       id="linearGradient1885"
       gradientUnits="userSpaceOnUse"
       gradientTransform="matrix(-0.95382,0,0,1.017,2939.9,498.5)"
       x1="1189.5"
       y1="603.59003"
       x2="1181.1"
       y2="610.59003" />
    <linearGradient
       inkscape:collect="always"
       xlink:href="#g"
       id="linearGradient1887"
       gradientUnits="userSpaceOnUse"
       x1="1805"
       y1="1108.3"
       x2="1810.7"
       y2="1117.6" />
    <linearGradient
       inkscape:collect="always"
       xlink:href="#f"
       id="linearGradient1889"
       gradientUnits="userSpaceOnUse"
       x1="1185.1"
       y1="608.34998"
       x2="1183"
       y2="606.34003" />
    <linearGradient
       inkscape:collect="always"
       xlink:href="#l"
       id="linearGradient1891"
       gradientUnits="userSpaceOnUse"
       x1="1187.9"
       y1="612.90002"
       x2="1181.4"
       y2="601.87" />
    <linearGradient
       inkscape:collect="always"
       xlink:href="#k"
       id="linearGradient1893"
       gradientUnits="userSpaceOnUse"
       x1="1805.6"
       y1="1112.5"
       x2="1812"
       y2="1118.9" />
    <linearGradient
       inkscape:collect="always"
       xlink:href="#i"
       id="linearGradient1895"
       gradientUnits="userSpaceOnUse"
       x1="1808.3"
       y1="1110.3"
       x2="1807.5"
       y2="1115.5" />
    <linearGradient
       inkscape:collect="always"
       xlink:href="#j"
       id="linearGradient1897"
       gradientUnits="userSpaceOnUse"
       x1="1800"
       y1="1115.1"
       x2="1798.7"
       y2="1119.5" />
    <linearGradient
       inkscape:collect="always"
       xlink:href="#h"
       id="linearGradient1899"
       gradientUnits="userSpaceOnUse"
       x1="1804.9"
       y1="1108.5"
       x2="1810.6"
       y2="1117.8" />
    <linearGradient
       inkscape:collect="always"
       xlink:href="#e"
       id="linearGradient1901"
       gradientUnits="userSpaceOnUse"
       gradientTransform="matrix(-0.95382,0,0,1.017,2939.9,498.5)"
       x1="1189.5"
       y1="603.59003"
       x2="1181.1"
       y2="610.59003" />
    <linearGradient
       inkscape:collect="always"
       xlink:href="#g"
       id="linearGradient1903"
       gradientUnits="userSpaceOnUse"
       x1="1805"
       y1="1108.3"
       x2="1810.7"
       y2="1117.6" />
    <linearGradient
       inkscape:collect="always"
       xlink:href="#f"
       id="linearGradient1905"
       gradientUnits="userSpaceOnUse"
       x1="1185.1"
       y1="608.34998"
       x2="1183"
       y2="606.34003" />
  </defs>
  <sodipodi:namedview
     id="base"
     pagecolor="#ffffff"
     bordercolor="#666666"
     borderopacity="1.0"
     inkscape:pageopacity="0.0"
     inkscape:pageshadow="2"
     inkscape:zoom="1.4"
     inkscape:cx="9.9839751"
     inkscape:cy="57.831969"
     inkscape:document-units="mm"
     inkscape:current-layer="layer1"
     showgrid="false"
     fit-margin-top="0"
     fit-margin-left="0"
     fit-margin-right="0"
     fit-margin-bottom="0"
     inkscape:window-width="1920"
     inkscape:window-height="1017"
     inkscape:window-x="-8"
     inkscape:window-y="-8"
     inkscape:window-maximized="1" />
  <metadata
     id="metadata5">
    <rdf:RDF>
      <cc:Work
         rdf:about="">
        <dc:format>image/svg+xml</dc:format>
        <dc:type
           rdf:resource="http://purl.org/dc/dcmitype/StillImage" />
        <dc:title></dc:title>
      </cc:Work>
    </rdf:RDF>
  </metadata>
  <g
     inkscape:label="Layer 1"
     inkscape:groupmode="layer"
     id="layer1"
     transform="translate(-79.965579,-139.30181)">
    <path
       style="fill:url(#r);fill-rule:evenodd;stroke-width:0.26458332"
       inkscape:connector-curvature="0"
       d="m 125.67426,210.74513 -0.33621,-20.09775 -2.83871,-0.14941 c 0.27085,4.85273 0.67397,12.13009 0.80941,14.55659 0.10618,2.00546 -0.38216,1.78294 -0.38216,1.78294 z"
       id="path1171" />
    <path
       style="fill:#333333;fill-rule:evenodd;stroke-width:0.26458332"
       inkscape:connector-curvature="0"
       d="m 123.90684,187.3348 -5.42925,0.0627 c 0,0 1.7326,0.11158 2.60274,1.09533 0.87013,0.98374 1.41954,2.20641 1.41954,2.20641 l 2.7395,0.74475 0.69733,-1.38218 z"
       id="path1173" />
    <path
       style="fill:url(#s);stroke-width:0.26458332"
       inkscape:connector-curvature="0"
       d="m 128.51589,189.97534 -3.2766,0.6726 0.33639,20.29672 3.33084,-3.71369 c 0,0 -0.78306,-0.003 -0.61619,-3.683 z"
       id="path1175" />
    <path
       style="fill:url(#t);stroke-width:0.26458332"
       inkscape:connector-curvature="0"
       d="m 135.91099,184.72072 -17.43287,1.90518 -2.6e-4,0.77251 c 0,0 1.51281,-0.0764 3.8854,0.77155 2.3726,0.84796 2.87655,3.27501 2.87655,3.27501 l 3.67348,-0.37475 c 0,0 1.12509,-3.17051 3.0009,-3.99601 1.87582,-0.8255 3.99706,-1.66859 3.99706,-1.66859 z"
       id="path1177" />
    <g
       transform="matrix(0.26458333,0,0,0.26458333,-351.15517,-81.825823)"
       id="g1217">
      <path
         style="fill:url(#linearGradient1859)"
         inkscape:connector-curvature="0"
         transform="matrix(-0.90639,0,0,0.95382,2883.7,536.89)"
         d="m 1191.1,607.14 c 0,3.1239 -2.5324,5.6562 -5.6562,5.6562 -3.1238,0 -5.6563,-2.5324 -5.6563,-5.6562 0,-3.1238 2.5324,-5.6562 5.6563,-5.6562 3.1239,0 5.6562,2.5324 5.6562,5.6562 z"
         id="path1179" />
      <path
         style="fill:url(#linearGradient1861)"
         inkscape:connector-curvature="0"
         d="m 1808.6466,1110.6994 c 2.45,0.2618 4.3518,2.4498 4.3518,5.097 0,2.8236 -2.1752,5.1267 -4.8586,5.1267 -0.503,0 -0.9742,-0.089 -1.4307,-0.2384 -1.5466,-0.9289 -2.5931,-2.6716 -2.5931,-4.6797 0,-2.5859 1.7161,-4.7797 4.0238,-5.3056 h 0.06 c 0.1476,0 0.303,-0.015 0.4471,0 z"
         id="path1181" />
      <path
         style="fill:#241600"
         inkscape:connector-curvature="0"
         d="m 1808.3,1108.9 -3.5768,-1.1923 -7.0642,0.1788 4.6498,1.4308 z"
         id="path1183" />
      <path
         style="fill:#54390e;filter:url(#a)"
         inkscape:connector-curvature="0"
         transform="matrix(1,0,0,1.0242,0,-26.965)"
         d="m 1811.3728,1112.0732 c 0.7652,0.9068 1.2187,2.0983 1.2187,3.4063 0,2.8235 -2.1916,5.1562 -4.875,5.1562 -0.503,0 -0.9498,-0.1006 -1.4063,-0.25 -0.1933,-0.1161 -0.3858,-0.2345 -0.5624,-0.375 0.2351,0.2071 0.4819,0.4015 0.75,0.5625 0.4564,0.1494 0.9032,0.25 1.4062,0.25 2.6834,0 4.875,-2.3327 4.875,-5.1563 0,-1.4042 -0.538,-2.6669 -1.4062,-3.5937 z"
         id="path1185" />
      <path
         style="opacity:0.8;fill:#4d2908;filter:url(#a)"
         inkscape:connector-curvature="0"
         d="m 1808.4392,1110.4482 c 2.585,0.2741 4.625,2.5497 4.625,5.3086 0,2.7589 -2.04,5.007 -4.625,5.2776 2.7155,-0.134 4.875,-2.4218 4.875,-5.2776 0,-2.8558 -2.1595,-5.1728 -4.875,-5.3086 z m -2.7812,9.9381 c 0.09,0.053 0.1884,0.1072 0.2812,0.1544 0.2731,0.059 0.576,0.092 0.875,0.092 h 0.1562 c -0.4638,-0.012 -0.8856,-0.109 -1.3124,-0.2469 z"
         id="path1187" />
      <path
         style="fill:#aa7319;filter:url(#a)"
         inkscape:connector-curvature="0"
         d="m 1808.1298,1110.4482 c 2.585,0.2741 4.625,2.5497 4.625,5.3086 0,2.7589 -2.04,5.007 -4.625,5.2776 2.7155,-0.134 4.875,-2.4218 4.875,-5.2776 0,-2.8558 -2.1595,-5.1728 -4.875,-5.3086 z m -2.7812,9.9381 c 0.09,0.053 0.1884,0.1072 0.2812,0.1544 0.2731,0.059 0.576,0.092 0.875,0.092 h 0.1562 c -0.4638,-0.012 -0.8856,-0.109 -1.3124,-0.2469 z"
         id="path1189" />
      <path
         style="fill:url(#linearGradient1863)"
         inkscape:connector-curvature="0"
         d="m 1799.9,1109.5 0.9688,2.125 c 0,0 -0.9117,1.3197 -0.9376,3.2969 h 4.3126 c 0.3121,-1.6542 1.3573,-3.0316 2.75,-3.7656 l -0.063,-0.6563 z"
         id="path1191" />
      <path
         style="fill:#9d8346"
         inkscape:connector-curvature="0"
         d="m 1802.4169,1109.2863 -0.1788,1.4307 -1.4605,-0.5067 c 0,0 -1.6095,-0.03 -1.8182,-0.1193 -0.2087,-0.089 -0.3875,-0.2086 -0.3875,-0.2086 v -0.2683 l -1.0433,-0.3278 0.09,-1.401 0.9836,0.2981 -0.03,-0.2384 c 0,0 0.407,0.1221 0.7796,0.1618 0.3726,0.04 1.4559,0.077 1.4559,0.077 l -0.06,0.5067 z"
         id="path1193" />
      <path
         style="fill:#aa7319;filter:url(#a)"
         inkscape:connector-curvature="0"
         d="m 1808.1298,1110.4482 c 2.585,0.2741 4.625,2.5497 4.625,5.3086 0,2.7589 -2.04,5.007 -4.625,5.2776 2.7155,-0.134 4.875,-2.4218 4.875,-5.2776 0,-2.8558 -2.1595,-5.1728 -4.875,-5.3086 z m -2.7812,9.9381 c 0.09,0.053 0.1884,0.1072 0.2812,0.1544 0.2731,0.059 0.576,0.092 0.875,0.092 h 0.1562 c -0.4638,-0.012 -0.8856,-0.109 -1.3124,-0.2469 z"
         id="path1195" />
      <path
         style="fill:#aa7319;filter:url(#a)"
         inkscape:connector-curvature="0"
         d="m 1808.1298,1110.4482 c 2.585,0.2741 4.625,2.5497 4.625,5.3086 0,2.7589 -2.04,5.007 -4.625,5.2776 2.7155,-0.134 4.875,-2.4218 4.875,-5.2776 0,-2.8558 -2.1595,-5.1728 -4.875,-5.3086 z m -2.7812,9.9381 c 0.09,0.053 0.1884,0.1072 0.2812,0.1544 0.2731,0.059 0.576,0.092 0.875,0.092 h 0.1562 c -0.4638,-0.012 -0.8856,-0.109 -1.3124,-0.2469 z"
         id="path1197" />
      <path
         style="fill:#aa7319;filter:url(#a)"
         inkscape:connector-curvature="0"
         d="m 1808.1298,1110.4482 c 2.585,0.2741 4.625,2.5497 4.625,5.3086 0,2.7589 -2.04,5.007 -4.625,5.2776 2.7155,-0.134 4.875,-2.4218 4.875,-5.2776 0,-2.8558 -2.1595,-5.1728 -4.875,-5.3086 z m -2.7812,9.9381 c 0.09,0.053 0.1884,0.1072 0.2812,0.1544 0.2731,0.059 0.576,0.092 0.875,0.092 h 0.1562 c -0.4638,-0.012 -0.8856,-0.109 -1.3124,-0.2469 z"
         id="path1199" />
      <path
         style="fill:#aa7319;filter:url(#a)"
         inkscape:connector-curvature="0"
         d="m 1808.1298,1110.4482 c 2.585,0.2741 4.625,2.5497 4.625,5.3086 0,2.7589 -2.04,5.007 -4.625,5.2776 2.7155,-0.134 4.875,-2.4218 4.875,-5.2776 0,-2.8558 -2.1595,-5.1728 -4.875,-5.3086 z m -2.7812,9.9381 c 0.09,0.053 0.1884,0.1072 0.2812,0.1544 0.2731,0.059 0.576,0.092 0.875,0.092 h 0.1562 c -0.4638,-0.012 -0.8856,-0.109 -1.3124,-0.2469 z"
         id="path1201" />
      <path
         style="fill:#54390e;filter:url(#a)"
         inkscape:connector-curvature="0"
         transform="matrix(1,0,0,1.0242,0,-26.965)"
         d="m 1811.3728,1112.0732 c 0.7652,0.9068 1.2187,2.0983 1.2187,3.4063 0,2.8235 -2.1916,5.1562 -4.875,5.1562 -0.503,0 -0.9498,-0.1006 -1.4063,-0.25 -0.1933,-0.1161 -0.3858,-0.2345 -0.5624,-0.375 0.2351,0.2071 0.4819,0.4015 0.75,0.5625 0.4564,0.1494 0.9032,0.25 1.4062,0.25 2.6834,0 4.875,-2.3327 4.875,-5.1563 0,-1.4042 -0.538,-2.6669 -1.4062,-3.5937 z"
         id="path1203" />
      <path
         style="fill:url(#linearGradient1865)"
         inkscape:connector-curvature="0"
         d="m 1799.9062,1114.9375 c -0.01,0.5701 0.03,1.2027 0.2188,1.875 0.7739,2.7536 4.2171,3.5695 6.9375,4.4687 -1.9057,-0.8881 -3.25,-2.9245 -3.25,-5.2812 0,-0.3649 0.064,-0.7165 0.125,-1.0625 z"
         id="path1205" />
      <path
         style="fill:url(#linearGradient1867)"
         inkscape:connector-curvature="0"
         d="m 1802.3,1109.4 4.471,-0.3576 c 0,0 1.4307,-0.2981 1.6096,0.1192 0.1789,0.4173 2.4441,4.9479 2.4441,4.9479 0,0 1.7492,3.5126 -0.6557,4.2326 -2.4049,0.72 -3.2788,-2.5634 -3.2788,-2.5634 l -1.7288,-3.5768 c 0,0 -0.6557,-1.4904 -1.3711,-1.4307 -0.7154,0.06 -1.6095,0.1192 -1.6095,0.1192 z"
         id="path1207" />
      <path
         style="fill:url(#linearGradient1869)"
         inkscape:connector-curvature="0"
         d="m 1809.2188,1110.25 c -2.9796,0 -5.4063,2.5729 -5.4063,5.75 0,3.1771 2.4267,5.75 5.4063,5.75 2.9796,0 5.375,-2.5729 5.375,-5.75 0,-3.1771 -2.3955,-5.75 -5.375,-5.75 z m 0.031,0.3438 c 2.8314,0 5.125,2.4266 5.125,5.4062 0,2.9796 -2.2936,5.375 -5.125,5.375 -0.9232,0 -1.7831,-0.2381 -2.5312,-0.6875 -0.1166,-0.07 -0.2332,-0.1399 -0.3438,-0.2187 l -0.063,-0.031 c -0.2354,-0.1729 -0.4518,-0.3832 -0.6563,-0.5937 -0.036,-0.037 -0.059,-0.087 -0.094,-0.125 -0.1794,-0.1962 -0.3503,-0.4026 -0.5,-0.625 -0.034,-0.051 -0.062,-0.1047 -0.094,-0.1563 -0.1624,-0.2599 -0.3194,-0.5238 -0.4376,-0.8125 v -0.031 c -0.085,-0.2113 -0.1596,-0.4324 -0.2187,-0.6563 -0.031,-0.1162 -0.07,-0.2246 -0.094,-0.3437 -0.01,-0.039 0.01,-0.086 0,-0.125 -0.025,-0.1462 -0.049,-0.2874 -0.063,-0.4376 -0.017,-0.1812 -0.031,-0.345 -0.031,-0.5312 0,-0.2294 0,-0.4656 0.031,-0.6875 0.014,-0.1168 0.041,-0.2294 0.063,-0.3437 0.04,-0.2212 0.091,-0.4457 0.1562,-0.6563 0.044,-0.1413 0.1021,-0.2702 0.1562,-0.4063 0.1148,-0.2874 0.2487,-0.5525 0.4063,-0.8124 0.044,-0.072 0.078,-0.1494 0.125,-0.2188 0.1664,-0.2479 0.3601,-0.4728 0.5625,-0.6875 0.2267,-0.2405 0.484,-0.4641 0.75,-0.6563 0.1406,-0.1014 0.2872,-0.1947 0.4375,-0.2812 0.2885,-0.1661 0.5872,-0.3016 0.9063,-0.4062 0.1408,-0.046 0.2603,-0.123 0.4062,-0.1563 h 0.063 0.1875 c 0.2845,-0.052 0.5765,-0.094 0.875,-0.094 z"
         id="path1209" />
      <path
         style="fill:url(#linearGradient1871)"
         inkscape:connector-curvature="0"
         d="m 1802.4,1109.2 4.471,-0.3576 c 0,0 1.4307,-0.2981 1.6096,0.1192 0.1789,0.4173 2.4441,4.9479 2.4441,4.9479 0,0 1.7492,3.5126 -0.6557,4.2326 -2.4049,0.72 -3.2788,-2.5634 -3.2788,-2.5634 l -1.7288,-3.5768 c 0,0 -0.6557,-1.4904 -1.3711,-1.4307 -0.7154,0.06 -1.6095,0.1192 -1.6095,0.1192 z"
         id="path1211" />
      <path
         style="fill:url(#linearGradient1873)"
         inkscape:connector-curvature="0"
         transform="matrix(-0.88696,0,0,0.90003,2860.1,569.8)"
         d="m 1185.6,607.24 c 0,0.82843 -0.6436,1.5 -1.4375,1.5 -0.7939,0 -1.4375,-0.67157 -1.4375,-1.5 0,-0.82843 0.6436,-1.5 1.4375,-1.5 0.7939,0 1.4375,0.67158 1.4375,1.5 z"
         id="path1213" />
      <path
         style="fill:#907b3c"
         inkscape:connector-curvature="0"
         transform="matrix(-0.865,0,0,0.8853,2834.2,578.83)"
         d="m 1185.6,607.24 c 0,0.82843 -0.6436,1.5 -1.4375,1.5 -0.7939,0 -1.4375,-0.67157 -1.4375,-1.5 0,-0.82843 0.6436,-1.5 1.4375,-1.5 0.7939,0 1.4375,0.67158 1.4375,1.5 z"
         id="path1215" />
    </g>
    <path
       style="fill:url(#u);stroke-width:0.26458332"
       inkscape:connector-curvature="0"
       d="m 125.53668,208.01993 -2.7e-4,4.12485 2.96598,-0.52123 0.39846,-4.38309 z"
       id="path1219" />
    <path
       style="fill:#4d4d4d;stroke-width:0.26458332"
       inkscape:connector-curvature="0"
       d="m 125.53668,208.01993 -2.61342,-1.17801 0.79692,4.58232 1.83277,0.72046 z"
       id="path1221" />
    <g
       transform="matrix(0.22470268,0,0,0.22470268,-235.69101,-52.991532)"
       id="g1261">
      <path
         style="fill:url(#linearGradient1875)"
         inkscape:connector-curvature="0"
         transform="matrix(-0.90639,0,0,0.95382,2883.7,536.89)"
         d="m 1191.1,607.14 c 0,3.1239 -2.5324,5.6562 -5.6562,5.6562 -3.1238,0 -5.6563,-2.5324 -5.6563,-5.6562 0,-3.1238 2.5324,-5.6562 5.6563,-5.6562 3.1239,0 5.6562,2.5324 5.6562,5.6562 z"
         id="path1223" />
      <path
         style="fill:url(#linearGradient1877)"
         inkscape:connector-curvature="0"
         d="m 1808.6466,1110.6994 c 2.45,0.2618 4.3518,2.4498 4.3518,5.097 0,2.8236 -2.1752,5.1267 -4.8586,5.1267 -0.503,0 -0.9742,-0.089 -1.4307,-0.2384 -1.5466,-0.9289 -2.5931,-2.6716 -2.5931,-4.6797 0,-2.5859 1.7161,-4.7797 4.0238,-5.3056 h 0.06 c 0.1476,0 0.303,-0.015 0.4471,0 z"
         id="path1225" />
      <path
         style="fill:#241600"
         inkscape:connector-curvature="0"
         d="m 1808.3,1108.9 -3.5768,-1.1923 -7.0642,0.1788 4.6498,1.4308 z"
         id="path1227" />
      <path
         style="fill:#54390e;filter:url(#a)"
         inkscape:connector-curvature="0"
         transform="matrix(1,0,0,1.0242,0,-26.965)"
         d="m 1811.3728,1112.0732 c 0.7652,0.9068 1.2187,2.0983 1.2187,3.4063 0,2.8235 -2.1916,5.1562 -4.875,5.1562 -0.503,0 -0.9498,-0.1006 -1.4063,-0.25 -0.1933,-0.1161 -0.3858,-0.2345 -0.5624,-0.375 0.2351,0.2071 0.4819,0.4015 0.75,0.5625 0.4564,0.1494 0.9032,0.25 1.4062,0.25 2.6834,0 4.875,-2.3327 4.875,-5.1563 0,-1.4042 -0.538,-2.6669 -1.4062,-3.5937 z"
         id="path1229" />
      <path
         style="opacity:0.8;fill:#4d2908;filter:url(#a)"
         inkscape:connector-curvature="0"
         d="m 1808.4392,1110.4482 c 2.585,0.2741 4.625,2.5497 4.625,5.3086 0,2.7589 -2.04,5.007 -4.625,5.2776 2.7155,-0.134 4.875,-2.4218 4.875,-5.2776 0,-2.8558 -2.1595,-5.1728 -4.875,-5.3086 z m -2.7812,9.9381 c 0.09,0.053 0.1884,0.1072 0.2812,0.1544 0.2731,0.059 0.576,0.092 0.875,0.092 h 0.1562 c -0.4638,-0.012 -0.8856,-0.109 -1.3124,-0.2469 z"
         id="path1231" />
      <path
         style="fill:#aa7319;filter:url(#a)"
         inkscape:connector-curvature="0"
         d="m 1808.1298,1110.4482 c 2.585,0.2741 4.625,2.5497 4.625,5.3086 0,2.7589 -2.04,5.007 -4.625,5.2776 2.7155,-0.134 4.875,-2.4218 4.875,-5.2776 0,-2.8558 -2.1595,-5.1728 -4.875,-5.3086 z m -2.7812,9.9381 c 0.09,0.053 0.1884,0.1072 0.2812,0.1544 0.2731,0.059 0.576,0.092 0.875,0.092 h 0.1562 c -0.4638,-0.012 -0.8856,-0.109 -1.3124,-0.2469 z"
         id="path1233" />
      <path
         style="fill:url(#linearGradient1879)"
         inkscape:connector-curvature="0"
         d="m 1799.9,1109.5 0.9688,2.125 c 0,0 -0.9117,1.3197 -0.9376,3.2969 h 4.3126 c 0.3121,-1.6542 1.3573,-3.0316 2.75,-3.7656 l -0.063,-0.6563 z"
         id="path1235" />
      <path
         style="fill:#9d8346"
         inkscape:connector-curvature="0"
         d="m 1802.4169,1109.2863 -0.1788,1.4307 -1.4605,-0.5067 c 0,0 -1.6095,-0.03 -1.8182,-0.1193 -0.2087,-0.089 -0.3875,-0.2086 -0.3875,-0.2086 v -0.2683 l -1.0433,-0.3278 0.09,-1.401 0.9836,0.2981 -0.03,-0.2384 c 0,0 0.407,0.1221 0.7796,0.1618 0.3726,0.04 1.4559,0.077 1.4559,0.077 l -0.06,0.5067 z"
         id="path1237" />
      <path
         style="fill:#aa7319;filter:url(#a)"
         inkscape:connector-curvature="0"
         d="m 1808.1298,1110.4482 c 2.585,0.2741 4.625,2.5497 4.625,5.3086 0,2.7589 -2.04,5.007 -4.625,5.2776 2.7155,-0.134 4.875,-2.4218 4.875,-5.2776 0,-2.8558 -2.1595,-5.1728 -4.875,-5.3086 z m -2.7812,9.9381 c 0.09,0.053 0.1884,0.1072 0.2812,0.1544 0.2731,0.059 0.576,0.092 0.875,0.092 h 0.1562 c -0.4638,-0.012 -0.8856,-0.109 -1.3124,-0.2469 z"
         id="path1239" />
      <path
         style="fill:#aa7319;filter:url(#a)"
         inkscape:connector-curvature="0"
         d="m 1808.1298,1110.4482 c 2.585,0.2741 4.625,2.5497 4.625,5.3086 0,2.7589 -2.04,5.007 -4.625,5.2776 2.7155,-0.134 4.875,-2.4218 4.875,-5.2776 0,-2.8558 -2.1595,-5.1728 -4.875,-5.3086 z m -2.7812,9.9381 c 0.09,0.053 0.1884,0.1072 0.2812,0.1544 0.2731,0.059 0.576,0.092 0.875,0.092 h 0.1562 c -0.4638,-0.012 -0.8856,-0.109 -1.3124,-0.2469 z"
         id="path1241" />
      <path
         style="fill:#aa7319;filter:url(#a)"
         inkscape:connector-curvature="0"
         d="m 1808.1298,1110.4482 c 2.585,0.2741 4.625,2.5497 4.625,5.3086 0,2.7589 -2.04,5.007 -4.625,5.2776 2.7155,-0.134 4.875,-2.4218 4.875,-5.2776 0,-2.8558 -2.1595,-5.1728 -4.875,-5.3086 z m -2.7812,9.9381 c 0.09,0.053 0.1884,0.1072 0.2812,0.1544 0.2731,0.059 0.576,0.092 0.875,0.092 h 0.1562 c -0.4638,-0.012 -0.8856,-0.109 -1.3124,-0.2469 z"
         id="path1243" />
      <path
         style="fill:#aa7319;filter:url(#a)"
         inkscape:connector-curvature="0"
         d="m 1808.1298,1110.4482 c 2.585,0.2741 4.625,2.5497 4.625,5.3086 0,2.7589 -2.04,5.007 -4.625,5.2776 2.7155,-0.134 4.875,-2.4218 4.875,-5.2776 0,-2.8558 -2.1595,-5.1728 -4.875,-5.3086 z m -2.7812,9.9381 c 0.09,0.053 0.1884,0.1072 0.2812,0.1544 0.2731,0.059 0.576,0.092 0.875,0.092 h 0.1562 c -0.4638,-0.012 -0.8856,-0.109 -1.3124,-0.2469 z"
         id="path1245" />
      <path
         style="fill:#54390e;filter:url(#a)"
         inkscape:connector-curvature="0"
         transform="matrix(1,0,0,1.0242,0,-26.965)"
         d="m 1811.3728,1112.0732 c 0.7652,0.9068 1.2187,2.0983 1.2187,3.4063 0,2.8235 -2.1916,5.1562 -4.875,5.1562 -0.503,0 -0.9498,-0.1006 -1.4063,-0.25 -0.1933,-0.1161 -0.3858,-0.2345 -0.5624,-0.375 0.2351,0.2071 0.4819,0.4015 0.75,0.5625 0.4564,0.1494 0.9032,0.25 1.4062,0.25 2.6834,0 4.875,-2.3327 4.875,-5.1563 0,-1.4042 -0.538,-2.6669 -1.4062,-3.5937 z"
         id="path1247" />
      <path
         style="fill:url(#linearGradient1881)"
         inkscape:connector-curvature="0"
         d="m 1799.9062,1114.9375 c -0.01,0.5701 0.03,1.2027 0.2188,1.875 0.7739,2.7536 4.2171,3.5695 6.9375,4.4687 -1.9057,-0.8881 -3.25,-2.9245 -3.25,-5.2812 0,-0.3649 0.064,-0.7165 0.125,-1.0625 z"
         id="path1249" />
      <path
         style="fill:url(#linearGradient1883)"
         inkscape:connector-curvature="0"
         d="m 1802.3,1109.4 4.471,-0.3576 c 0,0 1.4307,-0.2981 1.6096,0.1192 0.1789,0.4173 2.4441,4.9479 2.4441,4.9479 0,0 1.7492,3.5126 -0.6557,4.2326 -2.4049,0.72 -3.2788,-2.5634 -3.2788,-2.5634 l -1.7288,-3.5768 c 0,0 -0.6557,-1.4904 -1.3711,-1.4307 -0.7154,0.06 -1.6095,0.1192 -1.6095,0.1192 z"
         id="path1251" />
      <path
         style="fill:url(#linearGradient1885)"
         inkscape:connector-curvature="0"
         d="m 1809.2188,1110.25 c -2.9796,0 -5.4063,2.5729 -5.4063,5.75 0,3.1771 2.4267,5.75 5.4063,5.75 2.9796,0 5.375,-2.5729 5.375,-5.75 0,-3.1771 -2.3955,-5.75 -5.375,-5.75 z m 0.031,0.3438 c 2.8314,0 5.125,2.4266 5.125,5.4062 0,2.9796 -2.2936,5.375 -5.125,5.375 -0.9232,0 -1.7831,-0.2381 -2.5312,-0.6875 -0.1166,-0.07 -0.2332,-0.1399 -0.3438,-0.2187 l -0.063,-0.031 c -0.2354,-0.1729 -0.4518,-0.3832 -0.6563,-0.5937 -0.036,-0.037 -0.059,-0.087 -0.094,-0.125 -0.1794,-0.1962 -0.3503,-0.4026 -0.5,-0.625 -0.034,-0.051 -0.062,-0.1047 -0.094,-0.1563 -0.1624,-0.2599 -0.3194,-0.5238 -0.4376,-0.8125 v -0.031 c -0.085,-0.2113 -0.1596,-0.4324 -0.2187,-0.6563 -0.031,-0.1162 -0.07,-0.2246 -0.094,-0.3437 -0.01,-0.039 0.01,-0.086 0,-0.125 -0.025,-0.1462 -0.049,-0.2874 -0.063,-0.4376 -0.017,-0.1812 -0.031,-0.345 -0.031,-0.5312 0,-0.2294 0,-0.4656 0.031,-0.6875 0.014,-0.1168 0.041,-0.2294 0.063,-0.3437 0.04,-0.2212 0.091,-0.4457 0.1562,-0.6563 0.044,-0.1413 0.1021,-0.2702 0.1562,-0.4063 0.1148,-0.2874 0.2487,-0.5525 0.4063,-0.8124 0.044,-0.072 0.078,-0.1494 0.125,-0.2188 0.1664,-0.2479 0.3601,-0.4728 0.5625,-0.6875 0.2267,-0.2405 0.484,-0.4641 0.75,-0.6563 0.1406,-0.1014 0.2872,-0.1947 0.4375,-0.2812 0.2885,-0.1661 0.5872,-0.3016 0.9063,-0.4062 0.1408,-0.046 0.2603,-0.123 0.4062,-0.1563 h 0.063 0.1875 c 0.2845,-0.052 0.5765,-0.094 0.875,-0.094 z"
         id="path1253" />
      <path
         style="fill:url(#linearGradient1887)"
         inkscape:connector-curvature="0"
         d="m 1802.4,1109.2 4.471,-0.3576 c 0,0 1.4307,-0.2981 1.6096,0.1192 0.1789,0.4173 2.4441,4.9479 2.4441,4.9479 0,0 1.7492,3.5126 -0.6557,4.2326 -2.4049,0.72 -3.2788,-2.5634 -3.2788,-2.5634 l -1.7288,-3.5768 c 0,0 -0.6557,-1.4904 -1.3711,-1.4307 -0.7154,0.06 -1.6095,0.1192 -1.6095,0.1192 z"
         id="path1255" />
      <path
         style="fill:url(#linearGradient1889)"
         inkscape:connector-curvature="0"
         transform="matrix(-0.88696,0,0,0.90003,2860.1,569.8)"
         d="m 1185.6,607.24 c 0,0.82843 -0.6436,1.5 -1.4375,1.5 -0.7939,0 -1.4375,-0.67157 -1.4375,-1.5 0,-0.82843 0.6436,-1.5 1.4375,-1.5 0.7939,0 1.4375,0.67158 1.4375,1.5 z"
         id="path1257" />
      <path
         style="fill:#907b3c"
         inkscape:connector-curvature="0"
         transform="matrix(-0.865,0,0,0.8853,2834.2,578.83)"
         d="m 1185.6,607.24 c 0,0.82843 -0.6436,1.5 -1.4375,1.5 -0.7939,0 -1.4375,-0.67157 -1.4375,-1.5 0,-0.82843 0.6436,-1.5 1.4375,-1.5 0.7939,0 1.4375,0.67158 1.4375,1.5 z"
         id="path1259" />
    </g>
    <path
       style="fill:url(#v);stroke-width:0.26458332"
       inkscape:connector-curvature="0"
       d="m 177.35532,176.01063 c 0,0 -3.12578,0.74764 -4.18385,1.59388 -0.65292,0.60629 -0.99616,2.04216 -0.99616,2.04216 0,0 -1.32069,12.67248 -1.3163,13.05163 0.004,0.37915 0.49675,0.7624 0.49675,0.7624 l -1.91995,0.53091 -0.0996,-17.73184 z"
       id="path1263" />
    <path
       style="fill:url(#w);stroke-width:0.26458332"
       inkscape:connector-curvature="0"
       d="m 174.71478,175.86247 c 0,0 -0.14944,1.49426 -1.19541,1.44444 -1.04598,-0.0498 -1.74332,-0.24905 -2.68976,0.5479 -0.94644,0.79694 -1.14559,1.89272 -1.14559,1.89272 l -0.19923,14.09594 -2.38739,-0.69789 c 0,0 0.74372,-0.24847 0.79351,-0.49752 0.0498,-0.24905 -1.0958,-13.00004 -1.0958,-13.00004 0,0 -0.29884,-2.19157 -0.69731,-2.44062 -0.39846,-0.24905 -2.29118,-0.74713 -2.29118,-0.99618"
       id="path1265" />
    <path
       style="fill:#464646;stroke-width:0.26458332"
       inkscape:connector-curvature="0"
       d="m 167.09743,193.14505 0.54446,2.83977 1.75741,0.59992 0.0688,-2.82469 z"
       id="path1267" />
    <path
       style="fill:#5b5b5b;stroke-width:0.26458332"
       inkscape:connector-curvature="0"
       d="m 169.4337,193.74301 -0.0353,2.84136 1.68058,-0.43376 0.28252,-2.69055 z"
       id="path1269" />
    <path
       style="fill:none;stroke:#363636;stroke-width:0.3984625"
       inkscape:connector-curvature="0"
       d="m 112.46362,186.81886 -3.68592,13.24901"
       id="path1271" />
    <g
       transform="matrix(0.26458333,0,0,0.26458333,-351.84309,-82.011031)"
       id="g1316">
      <path
         style="fill:#717171"
         inkscape:connector-curvature="0"
         d="m 1716.2,1075 20.393,5.3983 11.663,-2.3215 -22.958,-5.2086 z"
         id="path1273" />
      <path
         style="fill:#3c3c3c"
         inkscape:connector-curvature="0"
         d="m 1737.5,1091.5 0.375,7.9021 14.063,-4.012 -0.131,-7.2786 z"
         id="path1275" />
      <path
         style="fill:#545454"
         inkscape:connector-curvature="0"
         d="m 1737.8,1091.2 -28.177,-8.7221 0.753,8.2831 27.485,8.6597 z"
         id="path1277" />
      <path
         style="fill:#4c4c4c"
         inkscape:connector-curvature="0"
         d="m 1736,1086.2 1.8216,5.2711 14.056,-3.326 -3.8276,-4.8291 z"
         id="path1279" />
      <path
         style="fill:#676767"
         inkscape:connector-curvature="0"
         d="m 1736.2,1085.9 -20.404,-6.0914 -6.1371,2.7014 28.112,8.9141 z"
         id="path1281" />
      <path
         style="fill:#555555"
         inkscape:connector-curvature="0"
         d="m 1716.1,1075 -0.061,4.8974 20.331,6.3352 0.7531,-6.024 z"
         id="path1283" />
      <path
         style="fill:#3c3c3c"
         inkscape:connector-curvature="0"
         d="m 1736.4,1080.2 v 6.024 l 11.801,-2.509 v -5.7116 z"
         id="path1285" />
      <path
         style="fill:#1d1d1d;stroke:#254322;stroke-width:0.40871"
         inkscape:connector-curvature="0"
         id="n"
         transform="matrix(0.95784,0.28731,0,1,0,0)"
         d="m 1790.9188,570.9303 h 2.1849 a 0.70699,0.70699 0 0 1 0.707,0.70699 v 2.67789 a 0.70699,0.70699 0 0 1 -0.707,0.70699 h -2.1849 a 0.70699,0.70699 0 0 1 -0.707,-0.70699 v -2.67789 a 0.70699,0.70699 0 0 1 0.707,-0.70699" />
      <path
         style="fill:url(#ar);stroke:#896e2d;stroke-width:0.1"
         inkscape:connector-curvature="0"
         d="m 1715.1809,1086.98 c -3.4699,1.9226 -7.4618,2.4262 -11.282,3.2519 -1.123,0.2138 -2.3003,0.5321 -3.1414,1.3534 -0.515,1.3026 0.7678,2.7546 2.1008,2.6702 1.6011,0.1036 3.208,-0.148 4.7613,-0.5113 2.2282,-0.864 4.0395,-2.5108 6.2405,-3.431 1.0553,-0.5424 2.6403,-1.3143 3.7071,-1.8334 0,0 0.4905,-1.6298 -2.1575,-1.4915"
         id="path1288" />
      <path
         style="fill:#675222;filter:url(#a)"
         inkscape:connector-curvature="0"
         transform="translate(-2.6516,0.46967)"
         d="m 1719.4688,1086.6875 c 0.477,0.4427 0.3124,1.0625 0.3124,1.0625 -1.0668,0.5191 -2.6634,1.3013 -3.7187,1.8438 -2.201,0.9202 -3.9905,2.5422 -6.2187,3.4062 -1.5534,0.3633 -3.1802,0.6348 -4.7813,0.5312 -0.3099,0.02 -0.6237,-0.062 -0.9063,-0.1874 0.388,0.296 0.8578,0.4682 1.3438,0.4374 1.6011,0.1036 3.228,-0.1367 4.7812,-0.5 2.2283,-0.864 4.0178,-2.5172 6.2188,-3.4374 1.0553,-0.5425 2.652,-1.3247 3.7188,-1.8438 0,0 0.2849,-0.923 -0.75,-1.3125 z"
         clip-path="url(#bg)"
         id="path1290" />
      <use
         y="0"
         x="0"
         transform="translate(14.143,4.3865)"
         width="744.09448"
         height="1052.3622"
         xlink:href="#n"
         id="use1292" />
      <path
         style="fill:url(#at);stroke:#896e2d;stroke-width:0.1"
         inkscape:connector-curvature="0"
         d="m 1730.0302,1091.753 c -2.871,1.2434 -5.7777,2.4239 -8.611,3.7339 -1.5959,0.7641 -2.5463,1.4576 -3.675,2.6524 -0.9249,1.5551 0.3724,3.7367 2.3615,3.9244 1.3669,0.4662 3.1142,-0.036 3.7564,-1.231 1.2827,-1.5848 2.2445,-3.4185 3.9911,-4.6706 1.0412,-0.9307 2.2064,-1.8047 3.6074,-2.2783 0.6639,-0.4751 0.2853,-1.5701 -0.5498,-1.6716 -0.3067,-0.1308 -0.6305,-0.2486 -0.8806,-0.4592 z"
         id="path1294" />
      <path
         style="fill:#675222;filter:url(#a)"
         inkscape:connector-curvature="0"
         transform="translate(-2.6516,0.46967)"
         d="m 1733.7188,1091.7812 c 0.3724,0.3845 0.41,1.0369 -0.063,1.375 -1.401,0.4737 -2.5525,1.3506 -3.5937,2.2813 -1.7466,1.2521 -2.7173,3.0714 -4,4.6563 -0.6422,1.1949 -2.3831,1.7162 -3.75,1.25 -0.3879,-0.037 -0.7386,-0.2062 -1.0625,-0.375 0.4243,0.3286 0.9202,0.5702 1.5,0.625 1.3669,0.4662 3.1078,-0.024 3.75,-1.2188 1.2827,-1.5848 2.2534,-3.4354 4,-4.6875 1.0412,-0.9307 2.224,-1.8076 3.625,-2.2813 0.618,-0.4422 0.3098,-1.4098 -0.4062,-1.625 z"
         clip-path="url(#bf)"
         id="path1296" />
      <use
         y="0"
         x="0"
         transform="translate(6.8501,2.1213)"
         width="744.09448"
         height="1052.3622"
         xlink:href="#n"
         id="use1298" />
      <path
         style="fill:url(#as);stroke:#896e2d;stroke-width:0.1"
         inkscape:connector-curvature="0"
         d="m 1722.1607,1089.2068 c -3.7271,1.9506 -7.8619,2.891 -11.7461,4.4527 -0.9621,0.5105 -1.9767,1.2516 -2.2422,2.3642 -0.013,1.1316 1.0644,1.9183 2.0656,2.1786 1.5064,0.4311 4.0802,-0.414 5.2846,-1.4216 2.6725,-1.9944 4.3902,-3.6591 7.4377,-5.0717 0.6644,-0.1353 1.0442,-0.8852 0.712,-1.4916 -0.2569,-0.5851 -0.9195,-0.8929 -1.5116,-1.0106 z"
         id="path1300" />
      <path
         style="fill:#675222;filter:url(#a)"
         inkscape:connector-curvature="0"
         transform="translate(-2.6516,0.46967)"
         d="m 1725.4375,1088.9688 c 0.182,0.1449 0.3424,0.2835 0.4375,0.5 0.3322,0.6064 -0.054,1.3647 -0.7188,1.5 -3.0474,1.4126 -4.765,3.068 -7.4374,5.0624 -1.2044,1.0077 -3.7749,1.8687 -5.2813,1.4376 -0.2103,-0.055 -0.4188,-0.1506 -0.625,-0.25 0.3304,0.2285 0.6948,0.4044 1.0625,0.5 1.5064,0.4311 4.1081,-0.3987 5.3125,-1.4063 2.6725,-1.9944 4.39,-3.6499 7.4375,-5.0625 0.6644,-0.1353 1.0197,-0.8936 0.6875,-1.5 -0.1644,-0.3745 -0.503,-0.6111 -0.875,-0.7812 z"
         clip-path="url(#bd)"
         id="path1302" />
      <path
         style="fill:url(#an);filter:url(#bb)"
         inkscape:connector-curvature="0"
         transform="translate(-2.6516,-0.53033)"
         d="m 1720.9375,1098.2499 c -1.7627,1.3703 -0.1004,4.0266 1.8125,4.2813 1.3052,0.4451 2.8882,-0.044 3.5938,-1.125 -0.688,0.2166 -1.4729,0.233 -2.1563,0 -0.4973,-0.047 -1.1132,-0.5574 -1.5,-0.8126 -1.2367,-0.8393 -1.75,-2.3437 -1.75,-2.3437 z"
         clip-path="url(#p)"
         id="path1304" />
      <path
         style="fill:url(#ao);filter:url(#bc)"
         inkscape:connector-curvature="0"
         transform="matrix(0.97095,0,0,0.97095,47.171,32.243)"
         d="m 1711.7812,1094.0938 c -0.4463,0.4034 -0.8271,0.8751 -0.9687,1.4687 -0.013,1.1316 1.0613,1.8959 2.0625,2.1563 1.5064,0.4311 4.1081,-0.3987 5.3125,-1.4063 l 0.5,-0.375 c -0.4376,0.2169 -0.7852,0.4819 -1.2813,0.625 -0.9823,0.2833 -2.028,0.3718 -2.7812,0.1563 -0.6752,-0.1887 -1.2668,-0.4905 -1.75,-0.875 -0.4832,-0.3845 -0.8549,-0.847 -1.0625,-1.3126 -0.066,-0.1481 0,-0.2888 -0.031,-0.4374 z"
         clip-path="url(#be)"
         id="path1306" />
      <path
         style="fill:url(#ap);filter:url(#ba)"
         inkscape:connector-curvature="0"
         transform="translate(-2.6516,-0.53033)"
         d="m 1708.25,1094.375 c -0.7439,-0.149 -1.7921,-0.5581 -2.8125,-1.3125 -0.5762,-0.426 -1.0766,-0.9025 -1.4375,-1.3437 -0.1485,0.1064 -0.3356,0.1511 -0.4688,0.2812 -0.515,1.3026 0.7608,2.7406 2.0938,2.6562 0.8793,0.057 1.7521,-0.1642 2.625,-0.2812 z"
         clip-path="url(#bh)"
         id="path1308" />
      <path
         style="fill:#e8d599;filter:url(#ax)"
         inkscape:connector-curvature="0"
         transform="matrix(0.91777,0,0,0.91777,137.94,89.985)"
         d="m 1717.8438,1086.5 c -3.47,1.9226 -7.4611,2.4243 -11.2813,3.25 -1.123,0.2138 -2.3152,0.5537 -3.1563,1.375 -0.2984,0.7549 0.025,1.5354 0.5938,2.0625 -0.2203,-0.4416 -0.2869,-0.949 -0.094,-1.4375 0.8411,-0.8213 2.0333,-1.1612 3.1563,-1.375 3.8202,-0.8257 7.8113,-1.3274 11.2813,-3.25 l 0.2187,0.031 c 0.8275,-0.043 1.331,0.083 1.6563,0.2813 -0.1162,-0.4546 -0.5764,-0.9888 -2.1563,-0.9063 l -0.2187,-0.031 z"
         clip-path="url(#bi)"
         id="path1310" />
      <path
         style="fill:#e8d599;filter:url(#ay)"
         inkscape:connector-curvature="0"
         transform="translate(-2.6516,-0.53033)"
         d="m 1732.4313,1092.5462 c -2.6349,1.1413 -5.3155,2.2394 -7.9158,3.4417 -1.4647,0.7013 -2.3197,1.3127 -3.3556,2.4091 -0.5376,0.9039 -0.254,2.0565 0.4876,2.8108 -0.3919,-0.6902 -0.4421,-1.542 -0.029,-2.2372 1.0359,-1.0964 1.8909,-1.7078 3.3556,-2.4091 2.6003,-1.2023 5.2808,-2.3004 7.9158,-3.4417 0.2295,0.1933 0.5215,0.3103 0.803,0.4303 0.1184,0.014 0.2191,0.034 0.3154,0.086 -0.1,-0.3284 -0.3805,-0.6119 -0.7743,-0.6597 -0.2815,-0.1201 -0.5735,-0.237 -0.803,-0.4303 z"
         clip-path="url(#p)"
         id="path1312" />
      <path
         style="fill:#e8d599;filter:url(#az)"
         inkscape:connector-curvature="0"
         transform="translate(-2.6516,-0.53033)"
         d="m 1724.6734,1089.9138 c -3.4206,1.7902 -7.219,2.6393 -10.7838,4.0726 -0.8829,0.4685 -1.8213,1.1586 -2.0649,2.1797 -0.01,0.5272 0.2612,0.9483 0.6309,1.2906 -0.1053,-0.2175 -0.175,-0.4574 -0.1721,-0.717 0.2437,-1.0211 1.182,-1.7112 2.065,-2.1797 3.5648,-1.4333 7.3632,-2.2824 10.7838,-4.0726 0.3274,0.065 0.6677,0.1923 0.9465,0.4015 -0.01,-0.021 -0.017,-0.037 -0.029,-0.057 -0.2358,-0.5369 -0.8332,-0.8097 -1.3767,-0.9177 z"
         clip-path="url(#bj)"
         id="path1314" />
    </g>
    <g
       transform="matrix(0.39846249,0,0,0.39846249,-349.56767,-26.604636)"
       id="g1322">
      <path
         style="fill:#333333"
         inkscape:connector-curvature="0"
         d="m 1147.9,534.35 v 43.273 l 3.5012,-0.84679 0.123,-42.668 z"
         id="path1318" />
      <path
         style="fill:#4d4d4d"
         inkscape:connector-curvature="0"
         d="m 1145.5,534.24 -0.015,42.735 2.3736,0.65548 v -43.273 z"
         id="path1320" />
    </g>
    <g
       transform="matrix(0.39846249,0,0,0.39846249,-352.74267,-27.501574)"
       id="g1328">
      <path
         style="fill:#333333"
         inkscape:connector-curvature="0"
         d="m 1147.8,534.11 -0.25,43.5 3.875,-0.83155 -0.375,-42.668 z"
         id="path1324" />
      <path
         style="fill:#4d4d4d"
         inkscape:connector-curvature="0"
         d="m 1145.5,534.24 -0.015,42.852 2.375,0.5381 0.094,-43.265 z"
         id="path1326" />
    </g>
    <g
       transform="matrix(0.25129066,0,0,0.25129066,-359.99225,-76.081719)"
       id="g1368">
      <path
         style="fill:url(#linearGradient1891)"
         inkscape:connector-curvature="0"
         transform="matrix(-0.90639,0,0,0.95382,2883.7,536.89)"
         d="m 1191.1,607.14 c 0,3.1239 -2.5324,5.6562 -5.6562,5.6562 -3.1238,0 -5.6563,-2.5324 -5.6563,-5.6562 0,-3.1238 2.5324,-5.6562 5.6563,-5.6562 3.1239,0 5.6562,2.5324 5.6562,5.6562 z"
         id="path1330" />
      <path
         style="fill:url(#linearGradient1893)"
         inkscape:connector-curvature="0"
         d="m 1808.6466,1110.6994 c 2.45,0.2618 4.3518,2.4498 4.3518,5.097 0,2.8236 -2.1752,5.1267 -4.8586,5.1267 -0.503,0 -0.9742,-0.089 -1.4307,-0.2384 -1.5466,-0.9289 -2.5931,-2.6716 -2.5931,-4.6797 0,-2.5859 1.7161,-4.7797 4.0238,-5.3056 h 0.06 c 0.1476,0 0.303,-0.015 0.4471,0 z"
         id="path1332" />
      <path
         style="fill:#241600"
         inkscape:connector-curvature="0"
         d="m 1808.3,1108.9 -3.5768,-1.1923 -7.0642,0.1788 4.6498,1.4308 z"
         id="path1334" />
      <path
         style="fill:#54390e;filter:url(#a)"
         inkscape:connector-curvature="0"
         transform="matrix(1,0,0,1.0242,0,-26.965)"
         d="m 1811.3728,1112.0732 c 0.7652,0.9068 1.2187,2.0983 1.2187,3.4063 0,2.8235 -2.1916,5.1562 -4.875,5.1562 -0.503,0 -0.9498,-0.1006 -1.4063,-0.25 -0.1933,-0.1161 -0.3858,-0.2345 -0.5624,-0.375 0.2351,0.2071 0.4819,0.4015 0.75,0.5625 0.4564,0.1494 0.9032,0.25 1.4062,0.25 2.6834,0 4.875,-2.3327 4.875,-5.1563 0,-1.4042 -0.538,-2.6669 -1.4062,-3.5937 z"
         id="path1336" />
      <path
         style="opacity:0.8;fill:#4d2908;filter:url(#a)"
         inkscape:connector-curvature="0"
         d="m 1808.4392,1110.4482 c 2.585,0.2741 4.625,2.5497 4.625,5.3086 0,2.7589 -2.04,5.007 -4.625,5.2776 2.7155,-0.134 4.875,-2.4218 4.875,-5.2776 0,-2.8558 -2.1595,-5.1728 -4.875,-5.3086 z m -2.7812,9.9381 c 0.09,0.053 0.1884,0.1072 0.2812,0.1544 0.2731,0.059 0.576,0.092 0.875,0.092 h 0.1562 c -0.4638,-0.012 -0.8856,-0.109 -1.3124,-0.2469 z"
         id="path1338" />
      <path
         style="fill:#aa7319;filter:url(#a)"
         inkscape:connector-curvature="0"
         d="m 1808.1298,1110.4482 c 2.585,0.2741 4.625,2.5497 4.625,5.3086 0,2.7589 -2.04,5.007 -4.625,5.2776 2.7155,-0.134 4.875,-2.4218 4.875,-5.2776 0,-2.8558 -2.1595,-5.1728 -4.875,-5.3086 z m -2.7812,9.9381 c 0.09,0.053 0.1884,0.1072 0.2812,0.1544 0.2731,0.059 0.576,0.092 0.875,0.092 h 0.1562 c -0.4638,-0.012 -0.8856,-0.109 -1.3124,-0.2469 z"
         id="path1340" />
      <path
         style="fill:url(#linearGradient1895)"
         inkscape:connector-curvature="0"
         d="m 1799.9,1109.5 0.9688,2.125 c 0,0 -0.9117,1.3197 -0.9376,3.2969 h 4.3126 c 0.3121,-1.6542 1.3573,-3.0316 2.75,-3.7656 l -0.063,-0.6563 z"
         id="path1342" />
      <path
         style="fill:#9d8346"
         inkscape:connector-curvature="0"
         d="m 1802.4169,1109.2863 -0.1788,1.4307 -1.4605,-0.5067 c 0,0 -1.6095,-0.03 -1.8182,-0.1193 -0.2087,-0.089 -0.3875,-0.2086 -0.3875,-0.2086 v -0.2683 l -1.0433,-0.3278 0.09,-1.401 0.9836,0.2981 -0.03,-0.2384 c 0,0 0.407,0.1221 0.7796,0.1618 0.3726,0.04 1.4559,0.077 1.4559,0.077 l -0.06,0.5067 z"
         id="path1344" />
      <path
         style="fill:#aa7319;filter:url(#a)"
         inkscape:connector-curvature="0"
         d="m 1808.1298,1110.4482 c 2.585,0.2741 4.625,2.5497 4.625,5.3086 0,2.7589 -2.04,5.007 -4.625,5.2776 2.7155,-0.134 4.875,-2.4218 4.875,-5.2776 0,-2.8558 -2.1595,-5.1728 -4.875,-5.3086 z m -2.7812,9.9381 c 0.09,0.053 0.1884,0.1072 0.2812,0.1544 0.2731,0.059 0.576,0.092 0.875,0.092 h 0.1562 c -0.4638,-0.012 -0.8856,-0.109 -1.3124,-0.2469 z"
         id="path1346" />
      <path
         style="fill:#aa7319;filter:url(#a)"
         inkscape:connector-curvature="0"
         d="m 1808.1298,1110.4482 c 2.585,0.2741 4.625,2.5497 4.625,5.3086 0,2.7589 -2.04,5.007 -4.625,5.2776 2.7155,-0.134 4.875,-2.4218 4.875,-5.2776 0,-2.8558 -2.1595,-5.1728 -4.875,-5.3086 z m -2.7812,9.9381 c 0.09,0.053 0.1884,0.1072 0.2812,0.1544 0.2731,0.059 0.576,0.092 0.875,0.092 h 0.1562 c -0.4638,-0.012 -0.8856,-0.109 -1.3124,-0.2469 z"
         id="path1348" />
      <path
         style="fill:#aa7319;filter:url(#a)"
         inkscape:connector-curvature="0"
         d="m 1808.1298,1110.4482 c 2.585,0.2741 4.625,2.5497 4.625,5.3086 0,2.7589 -2.04,5.007 -4.625,5.2776 2.7155,-0.134 4.875,-2.4218 4.875,-5.2776 0,-2.8558 -2.1595,-5.1728 -4.875,-5.3086 z m -2.7812,9.9381 c 0.09,0.053 0.1884,0.1072 0.2812,0.1544 0.2731,0.059 0.576,0.092 0.875,0.092 h 0.1562 c -0.4638,-0.012 -0.8856,-0.109 -1.3124,-0.2469 z"
         id="path1350" />
      <path
         style="fill:#aa7319;filter:url(#a)"
         inkscape:connector-curvature="0"
         d="m 1808.1298,1110.4482 c 2.585,0.2741 4.625,2.5497 4.625,5.3086 0,2.7589 -2.04,5.007 -4.625,5.2776 2.7155,-0.134 4.875,-2.4218 4.875,-5.2776 0,-2.8558 -2.1595,-5.1728 -4.875,-5.3086 z m -2.7812,9.9381 c 0.09,0.053 0.1884,0.1072 0.2812,0.1544 0.2731,0.059 0.576,0.092 0.875,0.092 h 0.1562 c -0.4638,-0.012 -0.8856,-0.109 -1.3124,-0.2469 z"
         id="path1352" />
      <path
         style="fill:#54390e;filter:url(#a)"
         inkscape:connector-curvature="0"
         transform="matrix(1,0,0,1.0242,0,-26.965)"
         d="m 1811.3728,1112.0732 c 0.7652,0.9068 1.2187,2.0983 1.2187,3.4063 0,2.8235 -2.1916,5.1562 -4.875,5.1562 -0.503,0 -0.9498,-0.1006 -1.4063,-0.25 -0.1933,-0.1161 -0.3858,-0.2345 -0.5624,-0.375 0.2351,0.2071 0.4819,0.4015 0.75,0.5625 0.4564,0.1494 0.9032,0.25 1.4062,0.25 2.6834,0 4.875,-2.3327 4.875,-5.1563 0,-1.4042 -0.538,-2.6669 -1.4062,-3.5937 z"
         id="path1354" />
      <path
         style="fill:url(#linearGradient1897)"
         inkscape:connector-curvature="0"
         d="m 1799.9062,1114.9375 c -0.01,0.5701 0.03,1.2027 0.2188,1.875 0.7739,2.7536 4.2171,3.5695 6.9375,4.4687 -1.9057,-0.8881 -3.25,-2.9245 -3.25,-5.2812 0,-0.3649 0.064,-0.7165 0.125,-1.0625 z"
         id="path1356" />
      <path
         style="fill:url(#linearGradient1899)"
         inkscape:connector-curvature="0"
         d="m 1802.3,1109.4 4.471,-0.3576 c 0,0 1.4307,-0.2981 1.6096,0.1192 0.1789,0.4173 2.4441,4.9479 2.4441,4.9479 0,0 1.7492,3.5126 -0.6557,4.2326 -2.4049,0.72 -3.2788,-2.5634 -3.2788,-2.5634 l -1.7288,-3.5768 c 0,0 -0.6557,-1.4904 -1.3711,-1.4307 -0.7154,0.06 -1.6095,0.1192 -1.6095,0.1192 z"
         id="path1358" />
      <path
         style="fill:url(#linearGradient1901)"
         inkscape:connector-curvature="0"
         d="m 1809.2188,1110.25 c -2.9796,0 -5.4063,2.5729 -5.4063,5.75 0,3.1771 2.4267,5.75 5.4063,5.75 2.9796,0 5.375,-2.5729 5.375,-5.75 0,-3.1771 -2.3955,-5.75 -5.375,-5.75 z m 0.031,0.3438 c 2.8314,0 5.125,2.4266 5.125,5.4062 0,2.9796 -2.2936,5.375 -5.125,5.375 -0.9232,0 -1.7831,-0.2381 -2.5312,-0.6875 -0.1166,-0.07 -0.2332,-0.1399 -0.3438,-0.2187 l -0.063,-0.031 c -0.2354,-0.1729 -0.4518,-0.3832 -0.6563,-0.5937 -0.036,-0.037 -0.059,-0.087 -0.094,-0.125 -0.1794,-0.1962 -0.3503,-0.4026 -0.5,-0.625 -0.034,-0.051 -0.062,-0.1047 -0.094,-0.1563 -0.1624,-0.2599 -0.3194,-0.5238 -0.4376,-0.8125 v -0.031 c -0.085,-0.2113 -0.1596,-0.4324 -0.2187,-0.6563 -0.031,-0.1162 -0.07,-0.2246 -0.094,-0.3437 -0.01,-0.039 0.01,-0.086 0,-0.125 -0.025,-0.1462 -0.049,-0.2874 -0.063,-0.4376 -0.017,-0.1812 -0.031,-0.345 -0.031,-0.5312 0,-0.2294 0,-0.4656 0.031,-0.6875 0.014,-0.1168 0.041,-0.2294 0.063,-0.3437 0.04,-0.2212 0.091,-0.4457 0.1562,-0.6563 0.044,-0.1413 0.1021,-0.2702 0.1562,-0.4063 0.1148,-0.2874 0.2487,-0.5525 0.4063,-0.8124 0.044,-0.072 0.078,-0.1494 0.125,-0.2188 0.1664,-0.2479 0.3601,-0.4728 0.5625,-0.6875 0.2267,-0.2405 0.484,-0.4641 0.75,-0.6563 0.1406,-0.1014 0.2872,-0.1947 0.4375,-0.2812 0.2885,-0.1661 0.5872,-0.3016 0.9063,-0.4062 0.1408,-0.046 0.2603,-0.123 0.4062,-0.1563 h 0.063 0.1875 c 0.2845,-0.052 0.5765,-0.094 0.875,-0.094 z"
         id="path1360" />
      <path
         style="fill:url(#linearGradient1903)"
         inkscape:connector-curvature="0"
         d="m 1802.4,1109.2 4.471,-0.3576 c 0,0 1.4307,-0.2981 1.6096,0.1192 0.1789,0.4173 2.4441,4.9479 2.4441,4.9479 0,0 1.7492,3.5126 -0.6557,4.2326 -2.4049,0.72 -3.2788,-2.5634 -3.2788,-2.5634 l -1.7288,-3.5768 c 0,0 -0.6557,-1.4904 -1.3711,-1.4307 -0.7154,0.06 -1.6095,0.1192 -1.6095,0.1192 z"
         id="path1362" />
      <path
         style="fill:url(#linearGradient1905)"
         inkscape:connector-curvature="0"
         transform="matrix(-0.88696,0,0,0.90003,2860.1,569.8)"
         d="m 1185.6,607.24 c 0,0.82843 -0.6436,1.5 -1.4375,1.5 -0.7939,0 -1.4375,-0.67157 -1.4375,-1.5 0,-0.82843 0.6436,-1.5 1.4375,-1.5 0.7939,0 1.4375,0.67158 1.4375,1.5 z"
         id="path1364" />
      <path
         style="fill:#907b3c"
         inkscape:connector-curvature="0"
         transform="matrix(-0.865,0,0,0.8853,2834.2,578.83)"
         d="m 1185.6,607.24 c 0,0.82843 -0.6436,1.5 -1.4375,1.5 -0.7939,0 -1.4375,-0.67157 -1.4375,-1.5 0,-0.82843 0.6436,-1.5 1.4375,-1.5 0.7939,0 1.4375,0.67158 1.4375,1.5 z"
         id="path1366" />
    </g>
    <g
       transform="matrix(0.33244895,0,0,0.33244895,-337.1058,78.979458)"
       id="g1378">
      <path
         style="fill:#333333;fill-rule:evenodd"
         inkscape:connector-curvature="0"
         d="m 1285.2,320.79 c 0,0 -1.3916,-3.7626 -3.5753,-6.2314 -2.1837,-2.4688 -6.4834,-2.6121 -6.4834,-2.6121 l 13.583,-0.29585 5.0909,6.8457 -0.915,51.922 -7.3017,-9.7508 c 0,0 1.9449,0.91429 1.6405,-4.54 -0.3044,-5.45429 -1.3593,-23.159 -2.039,-35.338 z"
         id="path1370" />
      <path
         style="fill:url(#aq)"
         inkscape:connector-curvature="0"
         d="m 1275.1,309.87 v 1.9501 c 0,0 3.8025,-0.20732 9.7566,1.9208 5.9541,2.12812 7.2048,7.4189 7.2048,7.4189 l 0.8377,49.761 8.615,-9.2162 c 0,0 -2.2013,-0.12593 -1.7825,-9.3635 0.4188,-9.23757 1.5435,-33.447 1.5435,-33.447 0,0 2.8306,-5.8336 7.5384,-7.9052 4.7078,-2.0716 10.051,-4.184 10.051,-4.184 v -1.7133 z"
         id="path1372" />
      <path
         style="fill:#373737"
         inkscape:connector-curvature="0"
         d="m 1292.7,363.21 v 10.346 l 7.5801,-1.1938 1.2537,-10.664 z"
         id="path1374" />
      <path
         style="fill:#4d4d4d"
         inkscape:connector-curvature="0"
         d="m 1292.7,363.21 -7.0829,-2.5467 2.6604,11.445 4.4225,1.4477 z"
         id="path1376" />
    </g>
    <path
       style="fill:#939393;stroke-width:0.26458332"
       inkscape:connector-curvature="0"
       d="m 80.884271,179.91588 31.977539,4.98079 0.0996,1.99234 -32.276523,-5.27977 z"
       id="path1380" />
    <path
       style="fill:url(#x);stroke-width:0.26458332"
       inkscape:connector-curvature="0"
       d="m 117.06736,174.83059 c 0,0 21.16879,-3.43667 22.0652,-3.43667 0.8964,0 4.2283,-1.53858 6.97309,-1.69349 2.74479,-0.15492 13.37151,-0.67223 21.31801,-1.39465 7.67053,-0.69731 11.05746,-2.88898 11.05746,-2.88898 0,0 -2.81966,-1.38004 -11.02915,-0.81116 -8.20949,0.56888 -63.45502,3.98462 -63.45502,3.98462 l -17.548227,1.49519 0.132609,4.43786 -5.842794,2.9673 -0.388091,3.09509"
       id="path1382" />
    <path
       style="fill:#363636;stroke-width:0.26458332"
       inkscape:connector-curvature="0"
       d="m 80.884271,180.44505 31.977539,5.16784 0.0996,1.80526 -32.276523,-5.27977 z"
       id="path1384" />
    <path
       style="fill:url(#y);stroke-width:0.26458332"
       inkscape:connector-curvature="0"
       d="m 89.749135,171.57886 v 5.57848 l 28.291895,4.2836 v -6.17617 z"
       id="path1386" />
    <path
       style="fill:#d2d0d1;stroke-width:0.26458332"
       inkscape:connector-curvature="0"
       d="m 112.76259,183.3343 -30.382101,-4.68207 v -1.09579 l 30.731351,4.68206 z"
       id="path1388" />
    <path
       style="fill:#ffffff;stroke-width:0.26458332"
       inkscape:connector-curvature="0"
       d="m 82.378373,177.5558 7.172325,-0.59769 25.650562,3.67612 -2.39496,1.62012 z"
       id="path1390" />
    <g
       transform="matrix(0.39846249,0,0,0.39846249,-349.56767,-26.604636)"
       id="g1429">
      <g
         id="c"
         transform="translate(-49.544,-8.1157)">
        <path
           style="fill:#808080"
           inkscape:connector-curvature="0"
           id="d"
           transform="matrix(0.664,0,0,0.664,43.85,-130.27)"
           d="m 1642.8,984.43 0.048,0.0196 5e-4,-4.1402 18.529,-1.7002 -0.225,-0.02 -18.352,1.7002 z" />
        <path
           style="fill:#1a1a1a"
           inkscape:connector-curvature="0"
           d="m 1141.9,520.02 11.022,-0.92028 v -1.1322 l -10.468,0.6977"
           id="path1393" />
        <path
           style="fill:#666666"
           inkscape:connector-curvature="0"
           d="m 1142,518.58 0.511,0.10644 10.43,-0.71108 -1.2637,-0.0152 z"
           id="path1395" />
        <path
           style="fill:#333333"
           inkscape:connector-curvature="0"
           d="m 1142,518.58 -0.6235,1.3566 0.5618,0.0861 0.5741,-1.3338 z"
           id="path1397" />
      </g>
      <g
         id="b">
        <use
           y="0"
           x="0"
           transform="translate(-43.604,-7.2148)"
           width="1"
           height="1"
           xlink:href="#d"
           id="use1400" />
        <use
           y="0"
           x="0"
           transform="translate(-48.086,-7.8993)"
           width="1"
           height="1"
           xlink:href="#d"
           id="use1402" />
        <use
           y="0"
           x="0"
           transform="translate(2.97,0.44375)"
           width="744.09448"
           height="1052.3622"
           xlink:href="#c"
           id="use1404" />
        <use
           y="0"
           x="0"
           transform="translate(4.455,0.66562)"
           width="744.09448"
           height="1052.3622"
           xlink:href="#c"
           id="use1406" />
        <use
           y="0"
           x="0"
           transform="translate(7.425,1.1387)"
           width="744.09448"
           height="1052.3622"
           xlink:href="#c"
           id="use1408" />
        <use
           y="0"
           x="0"
           transform="translate(8.91,1.3606)"
           width="744.09448"
           height="1052.3622"
           xlink:href="#c"
           id="use1410" />
        <use
           y="0"
           x="0"
           transform="translate(10.395,1.6118)"
           width="744.09448"
           height="1052.3622"
           xlink:href="#c"
           id="use1412" />
      </g>
      <use
         y="0"
         x="0"
         transform="translate(10.395,1.6361)"
         width="744.09448"
         height="1052.3622"
         xlink:href="#b"
         id="use1415" />
      <use
         y="0"
         x="0"
         transform="translate(20.65,3.2308)"
         width="744.09448"
         height="1052.3622"
         xlink:href="#b"
         id="use1417" />
      <use
         y="0"
         x="0"
         transform="translate(31.185,4.8254)"
         width="744.09448"
         height="1052.3622"
         xlink:href="#b"
         id="use1419" />
      <use
         y="0"
         x="0"
         transform="translate(41.58,6.4615)"
         width="744.09448"
         height="1052.3622"
         xlink:href="#b"
         id="use1421" />
      <use
         y="0"
         x="0"
         transform="translate(51.975,8.0389)"
         width="744.09448"
         height="1052.3622"
         xlink:href="#b"
         id="use1423" />
      <use
         y="0"
         x="0"
         transform="translate(62.285,9.6194)"
         width="744.09448"
         height="1052.3622"
         xlink:href="#b"
         id="use1425" />
      <use
         y="0"
         x="0"
         transform="translate(24.723,3.3423)"
         width="1"
         height="1"
         xlink:href="#d"
         id="use1427" />
    </g>
    <path
       style="fill:url(#z);stroke-width:0.26458332"
       inkscape:connector-curvature="0"
       d="m 142.81661,146.68951 6.3045,-6.58892 h -15.93877 l -28.81841,28.90308 14.84286,-1.29502 z"
       id="path1431" />
    <path
       style="fill:url(#aa);stroke-width:0.26458332"
       inkscape:connector-curvature="0"
       d="m 166.82491,164.71822 c 0,0 7.74303,-4.51803 6.57463,-7.57079 -1.1684,-3.05276 -6.67835,-4.9911 -12.34123,-4.58126 -5.89491,0.42651 -13.77526,-2.40099 -15.95014,-3.58722 -3.40624,-1.85793 -5.57847,-7.4713 -5.57847,-7.4713 l -6.9731,-0.19924 -27.99291,27.39496 z"
       id="path1433" />
    <path
       style="fill:#eabb56;stroke-width:0.26458332"
       inkscape:connector-curvature="0"
       d="m 173.2437,169.63418 c -0.94454,-4.41696 -9.21068,-2.58242 -10.25816,-2.50944 -6.34471,0.48072 -47.81815,4.31456 -47.81815,4.31456 l 5.9944,0.99306"
       id="path1435" />
    <path
       style="fill:url(#ab);stroke-width:0.26458332"
       inkscape:connector-curvature="0"
       d="m 172.3203,164.4113 c -1.32164,0.002 -2.92338,0.0644 -4.86886,0.19924 -10.37537,0.71895 -81.885896,5.37421 -81.885896,5.37421 l 1.593876,0.19924 c 0,0 70.13575,-4.67043 80.29046,-5.37422 7.425,-0.51451 9.85573,0.31816 10.64657,0.72223 0.23259,-0.12432 0.386,-0.11207 0.386,-0.11207 0,0 -0.43683,-1.01547 -6.16374,-1.00862 z"
       id="path1437" />
    <path
       style="fill:#f0ce85;stroke-width:0.26458332"
       inkscape:connector-curvature="0"
       d="m 154.72286,171.48626 c -0.94453,-4.41695 -11.59192,-1.78866 -12.63941,-1.71569 -6.3447,0.48072 -26.91606,2.99164 -26.91606,2.99164 l 5.9944,0.99306"
       id="path1439" />
    <path
       style="fill:#1a1a1a;stroke-width:0.26458332"
       inkscape:connector-curvature="0"
       d="m 134.59336,145.91428 6.05976,25.86223 1.59546,-0.29885 -7.52951,-26.09612 z"
       id="path1441" />
    <path
       style="fill:url(#ac);stroke-width:0.26458332"
       inkscape:connector-curvature="0"
       d="m 134.67803,145.37982 6.57463,26.29906 1.29503,-0.49808 -7.27207,-26.09982 z"
       id="path1443" />
    <path
       style="fill:url(#ad);stroke-width:0.26458332"
       inkscape:connector-curvature="0"
       d="m 117.11764,173.28543 0.39846,1.69349 0.39137,1.19541 -0.0996,2.67759 -4.59951,2.70166 -0.0291,3.57187 c 0,0 25.50927,-2.67547 26.35224,-2.67547 0.84296,0 1.58548,-2.83236 7.17232,-3.28744 5.58684,-0.45509 11.11171,-0.77579 20.72031,-2.78924 9.60861,-2.01345 11.05747,-2.88899 11.05747,-2.88899 v -8.06899 c 0,0 -3.38693,2.19157 -11.05747,2.88898 -7.94649,0.72242 -18.57322,1.23973 -21.318,1.39465 -2.74479,0.15491 -6.07669,1.69349 -6.9731,1.69349 -0.89641,0 -22.01545,1.89272 -22.01545,1.89272 z"
       id="path1445" />
    <path
       style="fill:url(#ae);stroke-width:0.26458332"
       inkscape:connector-curvature="0"
       d="m 149.12164,140.09874 v -0.79693 h -15.93877 v 0.79693 z"
       id="path1447" />
    <path
       style="fill:url(#af);stroke-width:0.26458332"
       inkscape:connector-curvature="0"
       d="m 133.18314,139.30234 -29.54867,29.69948 0.69022,0.0996 28.8581,-29.00363 z"
       id="path1449" />
    <path
       style="fill:url(#ag);stroke-width:0.26458332"
       inkscape:connector-curvature="0"
       d="m 79.987598,182.03784 1.195387,0.19924 c 0,0 -0.388937,-4.25477 0.498105,-5.13027 0.887042,-0.87551 4.289425,-1.22341 5.130271,-2.19157 0.840845,-0.96817 0.498104,-2.98847 0.498104,-2.98847 l -0.996183,-0.0498 c 0,0 0.448284,2.59006 -1.045977,2.88899 -1.494261,0.29892 -4.101571,1.17938 -4.78155,2.04215 -0.679979,0.86278 -0.498078,5.23002 -0.498078,5.23002 z"
       id="path1451" />
    <path
       style="fill:#666666;stroke-width:0.26458332"
       inkscape:connector-curvature="0"
       d="m 87.457843,170.58932 29.188837,3.77931 0.44828,-0.51517 -27.334104,-3.33719 z"
       id="path1453" />
    <path
       style="fill:url(#ah);stroke-width:0.26458332"
       inkscape:connector-curvature="0"
       d="m 117.34518,173.32247 9.50992,-0.86725 -26.74409,-3.08584 -9.264383,0.62198 z"
       id="path1455" />
    <path
       style="opacity:0.2;fill:none;stroke:#ffffff;filter:url(#au)"
       inkscape:connector-curvature="0"
       transform="matrix(0.39846249,0,0,0.39846249,-562.34558,-189.18844)"
       d="m 1845.9,870.65 c -2.9317,-7.6613 -16.76,-12.526 -30.972,-11.497 -14.794,1.0704 -34.57,-6.0255 -40.028,-9.0026 -8.5482,-4.6627 -14,-20.25 -14,-20.25 l -17.5,-0.5"
       id="path1457" />
    <path
       style="opacity:0.5;fill:none;stroke:#0b0b0b;filter:url(#av)"
       inkscape:connector-curvature="0"
       transform="matrix(0.39846249,0,0,0.39846249,-562.34558,-189.18844)"
       d="m 1845.4,872.15 c -2.9317,-7.6613 -16.76,-12.526 -30.972,-11.497 -14.794,1.0704 -34.57,-6.0255 -40.028,-9.0026 -8.5482,-4.6627 -14,-20.25 -14,-20.25"
       id="path1459" />
    <path
       style="fill:#1a1a1a;stroke-width:0.26458332"
       inkscape:connector-curvature="0"
       d="m 117.40339,168.33243 1.59387,3.38693 -6.57463,-0.99618 1.89272,-3.08822 z"
       id="path1461" />
    <path
       style="fill:#3a3a3a;stroke-width:0.26458332"
       inkscape:connector-curvature="0"
       d="m 111.65399,160.70184 c -2.61808,-0.0232 -6.46589,0.41341 -6.46589,0.41341 l -0.008,0.0165 c 0.83548,-0.0915 4.93395,-0.52657 7.16042,-0.34726 2.4738,0.19923 7.35039,1.57924 7.35039,1.57924 l -4.48257,9.51098 -0.0981,0.21163 0.33923,-0.0489 4.58893,-9.72343 c 0,0 -4.8768,-1.37173 -7.35039,-1.57097 -0.30922,-0.0249 -0.6595,-0.038 -1.03352,-0.0413 z"
       id="path1463" />
    <path
       style="fill:#5c5c5c;stroke-width:0.26458332"
       inkscape:connector-curvature="0"
       d="m 87.457843,171.3037 29.188837,4.06003 v -0.99618 l -29.188837,-3.77931 z"
       id="path1465" />
    <path
       style="fill:#959595;stroke-width:0.26458332"
       inkscape:connector-curvature="0"
       d="m 116.3477,173.2722 v 2.19157 l 1.59387,0.0996 v -2.19157 z"
       id="path1467" />
    <path
       style="fill:#808080;stroke-width:0.26458332"
       inkscape:connector-curvature="0"
       d="m 82.369641,178.64853 -1.209463,0.4549 31.316082,5.77506 0.34867,-1.54406 z"
       id="path1471" />
    <path
       style="fill:url(#ai);stroke-width:0.26458332"
       inkscape:connector-curvature="0"
       d="m 113.0748,185.10701 0.38529,2.40967 c 0,0 25.23172,-2.67547 26.07469,-2.67547 0.84296,0 1.58551,-2.83237 7.17232,-3.28745 5.58681,-0.45508 11.11171,-0.77578 20.72032,-2.78924 9.6086,-2.01345 11.05746,-2.88898 11.05746,-2.88898 v -2.3908 c 0,0 -0.36679,0.21433 -1.93008,0.68487 -0.78166,0.23527 -1.86259,0.53134 -3.34963,0.89657 -1.48703,0.36523 -3.37555,0.80409 -5.7777,1.30746 -2.40215,0.50337 -4.55613,0.89998 -6.51246,1.22031 -1.95633,0.32034 -3.71422,0.56521 -5.35437,0.7596 -3.28057,0.38875 -6.06002,0.58187 -8.85349,0.80938 -0.69834,0.0569 -1.32363,0.15296 -1.88023,0.27395 -0.55661,0.121 -1.04762,0.25862 -1.48183,0.42339 -0.86846,0.32951 -1.51013,0.72575 -2.0048,1.10823 -0.49466,0.38248 -0.84526,0.76089 -1.12072,1.03352 -0.27546,0.27263 -0.47411,0.44828 -0.68485,0.44828 -7.82478,0.34015 -25.88524,2.59641 -25.88524,2.59641 l 0.0714,-4.16137 -0.99185,1.00532 z"
       id="path1473" />
    <path
       style="fill:#595959;stroke-width:0.26458332"
       inkscape:connector-curvature="0"
       d="m 81.160231,179.10361 0.02196,1.33607 31.580669,5.08662 v -1.35798 z"
       id="path1475" />
    <path
       style="fill:url(#aj);stroke-width:0.26458332"
       inkscape:connector-curvature="0"
       d="m 112.35249,187.37978 1.1054,0.13663 c 0,0 -0.299,-4.65137 0.39847,-5.71077 0.69746,-1.05939 3.44963,-1.55416 4.11083,-2.72573 0.66119,-1.17158 0.27236,-3.51764 0.27236,-3.51764 l -0.79695,-0.0623 c 0,0 0.23905,2.59331 -0.68953,3.3991 -0.87612,0.76015 -3.47398,1.50088 -4.00897,2.54498 -0.53499,1.0441 -0.39166,5.93566 -0.39166,5.93566 z"
       id="path1477" />
    <path
       style="fill:url(#ak);stroke-width:0.26458332"
       inkscape:connector-curvature="0"
       d="m 85.566073,169.98343 v 2.09195 l 1.593876,0.19924 v -2.09196 z"
       id="path1479" />
    <path
       style="fill:url(#al);stroke-width:0.26458332"
       inkscape:connector-curvature="0"
       d="m 177.71251,165.4273 c 0,0 -2.61496,1.78578 -10.28541,2.48309 -7.9465,0.72242 -18.57322,1.33932 -21.31801,1.49426 -2.74479,0.15494 -6.77386,1.59388 -6.77386,1.59388 l -22.98674,2.27364 1.59388,0.0996 c 0.21989,-0.0197 20.30174,-1.9748 21.19365,-1.9748 0.89657,0 4.22831,-1.53858 6.97336,-1.69349 2.74505,-0.15491 13.37151,-0.67223 21.31801,-1.39465 7.67053,-0.6973 11.05747,-2.88898 11.05747,-2.88898 z"
       id="path1481" />
    <path
       style="fill:url(#am);stroke-width:0.26458332"
       inkscape:connector-curvature="0"
       d="m 104.84891,161.16486 -5.279761,8.96568 15.540301,1.95585 4.58232,-9.72609 c 0,0 -4.87548,-1.37279 -7.34933,-1.57202 -2.47386,-0.19923 -7.49353,0.37661 -7.49353,0.37661 z"
       id="path1483" />
  </g>
</svg>
