<?xml version="1.0" encoding="UTF-8"?>
<svg width="90.027mm" height="149.3mm" version="1.1" viewBox="0 0 90.027 149.3" xmlns="http://www.w3.org/2000/svg"><g transform="translate(-51.52 -38.652)"><g transform="matrix(.26458 0 0 .26458 50.991 37.923)"><path d="m22.247 170.19c11.244-18.89 16.728-39.292 16.728-61.885v-33.93h266.31v33.93c0 22.593 5.485 42.995 16.727 61.885 13.934 23.411 20.248 45.911 20.248 72.18v211.72c0 150.6-340.26 150.6-340.26 0v-211.72c0-26.269 6.312-48.769 20.247-72.18" fill="#d0d2c0"/><path d="m313.25 509.01c-17.724 30.349-73.94 52.528-140.56 52.528-66.618 0-122.83-22.179-140.56-52.528 26.095 23.638 79.24 39.822 140.56 39.822 61.321 0 114.46-16.184 140.56-39.822" fill="#e9ebd7"/><path d="m283.13 96.532h-222.01v11.777c0 26.25-6.415 50.654-19.844 73.216-11.619 19.521-17.131 38.137-17.131 60.849v211.72c0 120.93 295.96 120.93 295.96 0v-211.72c0-22.712-5.511-41.328-17.129-60.849-13.431-22.562-19.845-46.966-19.845-73.216v-11.777" fill="#e9ebd7"/><path d="m68.574 196.2c7.769-17.649 11.557-36.714 11.557-57.824v-31.704h62.139v27.549c0 21.554-1.228 41.017-3.749 59.036-3.125 22.332-4.542 43.796-4.542 68.855v201.97c0 55.808 11.516 89.927 25.598 102.37-54.302-4.657-104.99-39.64-104.99-104.98v-197.83c0-24.545 4.361-45.569 13.989-67.443" fill="#f6f6e6"/><path d="m24.152 242.37v211.72c0 120.93 295.96 120.93 295.96 0v-211.72h-295.96" fill="#a0a93c"/><path d="m247.64 394.55c-38.773 65.487-99.244 63.037-52.545-20.804 8.189-14.703 42.643-82.616 63.642-56.529 14.488 17.999-0.616 58.834-11.097 77.333" fill="#7b8438"/><path d="m230.2 380.92c-5.278 8.907-34.716 48.869-44.311 36.268-7.975-10.476 27.363-69.736 35.073-81.826 26.431-41.454 29.653-1.362 16.958 29.829-2.32 5.699-4.714 10.38-7.72 15.729" fill="#8d983b"/><path d="m224.18 369.64c-16.932 26.746-33.013 29.519-15.379-8.362 25.058-53.836 33.909-26.473 17.883 3.656l-2.504 4.706" fill="#a3ac3f"/><path d="m218.46 402.93c-6.4 6.334-5.673-8.569-0.039-3.969 1.324 1.081 0.925 2.746 0.039 3.969zm16.9-25.325c-6.146 7.128-6.251-9.274-0.28-4.393 1.419 1.156 1.139 2.981 0.28 4.393zm-11.866-10.827c-5.832 6.9-6.426-9.13-0.378-4.341 1.405 1.112 1.205 2.93 0.378 4.341zm-8.859 15.263c-5.954 6.172-4.516-8.758 0.14-3.315 0.894 1.044 0.567 2.286-0.14 3.315zm-13.819 13.052c-7.353 6.767-6.531-9.618-0.014-4.387 1.509 1.213 1.068 3.028 0.014 4.387zm44.146-39.324c-7.164 9.376-10.048-11.44-1.322-6.695 2.508 1.366 2.534 4.372 1.322 6.695zm-3.761-23.721c-1.306 8.791 10.296 0.193 3.252-2.13-1.661-0.548-2.773 0.652-3.252 2.13zm-42.944 88.514c-7.193 6.619-6.487-9.453-0.038-4.293 1.483 1.184 1.072 2.957 0.038 4.293" fill="#7b8438"/><g fill="#626a30"><path d="m256.22 337.87c-5.382 7.22-5.84-9.911-0.298-3.834 1.028 1.127 0.941 2.548 0.298 3.834"/><path d="m254.22 356.36c-4.282 5.52-2.402-7.887 0.177-1.955 0.307 0.705 0.164 1.311-0.177 1.955"/><path d="m249.93 382.02c-6.788 7.912-7.171-10.424-0.361-4.976 1.603 1.282 1.32 3.382 0.361 4.976"/><path d="m232.55 399.86c-4.321 4.554-1.546-6.643 0.315-1.626 0.227 0.609 0.026 1.119-0.315 1.626"/><path d="m205.31 430.67c-6.29 6.089-4.806-8.948 0.142-3.319 0.924 1.051 0.607 2.289-0.142 3.319"/><path d="m214.91 416.68c-4.36 4.228-0.623-6.307 0.354-1.182 0.091 0.479-0.082 0.813-0.354 1.182"/></g><path d="m172.13 173.85c81.725 0 147.98 30.68 147.98 68.527 0 37.845-66.252 68.526-147.98 68.526-81.726 0-147.98-30.681-147.98-68.526 0-37.847 66.253-68.527 147.98-68.527" fill="#b3bd4a"/><path d="m75.455 524.74c20.11 9.918 44.453 16.157 69.891 18.714-6.842-17.942-11.367-44.397-11.367-79.373v-201.97c0-6.814 0.105-13.361 0.32-19.733h-78.51c-0.81 6.85-1.204 13.898-1.204 21.264v197.83c0 25.837 7.93 46.922 20.87 63.267" fill="#b6c04b"/><path d="m133.98 308.6c-32.037-3.946-59.794-12.747-79.394-24.596v-20.361c0-24.545 4.361-45.569 13.989-67.443 0.499-1.134 0.983-2.274 1.448-3.419 19.286-8.517 43.534-14.642 70.53-17.36-0.544 6.108-1.222 12.047-2.031 17.836-3.125 22.332-4.542 43.796-4.542 68.855v46.488" fill="#cdd865"/><path d="m172.13 34.695c60.632 0 113.11 16.16 138.46 39.684h16.203v31.939c0 39.555-69.245 71.622-154.66 71.622-85.418 0-154.66-32.067-154.66-71.622v-31.939h16.203c25.353-23.524 77.827-39.684 138.46-39.684" fill="#7b913c"/><path d="m172.13 146c85.184 0 154.66-32.174 154.66-71.623 0-39.448-69.477-71.623-154.66-71.623-85.186 0-154.66 32.175-154.66 71.623 0 39.449 69.478 71.623 154.66 71.623" fill="#8ca43d"/><path d="m172.13 135.77c79.097 0 143.61-29.876 143.61-66.506s-64.516-66.506-143.61-66.506c-79.101 0-143.61 29.876-143.61 66.506s64.513 66.506 143.61 66.506" fill="#9fb83b"/><path d="m155.41 108.99c58.088 0 105.46-21.94 105.46-48.84s-47.377-48.841-105.46-48.841-105.46 21.941-105.46 48.841 47.377 48.84 105.46 48.84" fill="#acc739"/><path d="m145.08 78.307c33.355 0 60.563-12.599 60.563-28.046s-27.208-28.046-60.563-28.046c-33.356 0-60.562 12.599-60.562 28.046s27.206 28.046 60.562 28.046" fill="#b8d03a"/><path d="m84.672 440.18c93.495 76.474 182.29 39.851 66.975-59.658-20.221-17.452-108.6-99.896-125.68-49.563-11.782 34.728 32.994 87.361 58.706 109.22" fill="#7b8438"/><path d="m84.672 440.18c17.015 13.917 33.868 24.072 49.368 30.798-0.04-2.261-0.061-4.558-0.061-6.896v-98.949c-21.605-18.426-54.917-44.622-79.394-49.451v93.165c10.24 12.75 21.281 23.846 30.087 31.333" fill="#8d983b"/><path d="m103.23 410.35c12.723 10.398 78.39 53.916 85.823 29.899 6.177-19.963-78.808-89.024-96.89-102.84-62-47.379-44.944 14.138-9.016 53.708 6.564 7.229 12.686 12.904 20.083 19.237" fill="#8d983b"/><path d="m103.23 410.35c4.766 3.896 16.963 12.44 30.748 20.34v-58.534c-17.847-15.818-34.828-29.41-41.815-34.751-20.292-15.506-32.113-19.346-37.579-16.11v24.897c5.265 13.786 15.703 30.758 28.563 44.921 6.564 7.229 12.686 12.904 20.083 19.237" fill="#a3ac3f"/><path d="m106.06 390.25c39.821 30.634 65.301 26.002 18.363-20.849-66.702-66.582-64.977-20.97-24.661 15.2l6.298 5.649" fill="#a3ac3f"/><path d="m106.06 390.25c10.724 8.251 20.406 13.939 27.915 16.937v-27.743c-2.775-3.102-5.947-6.447-9.552-10.043-66.702-66.582-64.977-20.97-24.661 15.2l6.298 5.649" fill="#b6c04b"/><path d="m132.73 436.76c12.992 5.947 3.785-15.866-2.106-5.938-1.384 2.332 0.119 4.595 2.106 5.938zm-38.998-28.536c-2.049-1.639-3.461-4.203-1.978-6.701 6.239-10.531 15.026 13.973 1.978 6.701zm11.785-22.61c12.456 7.106 4.601-17.111-1.803-6.675-1.489 2.423-0.201 5.026 1.803 6.675zm21.526 17.924c12.242 5.95 1.955-15.518-2.016-4.867-0.761 2.044 0.404 3.716 2.016 4.867zm27.712 11.918c14.651 6.075 4.495-17.897-2.366-6.547-1.591 2.634 0.055 5.097 2.366 6.547zm-87.239-34.547c15.792 10.072 8.738-22.528-1.679-10.697-2.997 3.4-1.393 7.898 1.679 10.697zm-7.328-37.407c6.74 12.392-15.241 5.902-6.008-1.401 2.177-1.723 4.489-0.54 6.008 1.401zm112.27 108.52c14.329 5.943 4.515-17.626-2.286-6.419-1.561 2.574 0.017 4.991 2.286 6.419" fill="#7b8438"/><g fill="#626a30"><path d="m40.99 360.37c11.957 7.828 3.302-17.957-1.645-5.877-0.918 2.241-0.016 4.31 1.645 5.877"/><path d="m54.04 386.84c9.391 5.893-0.72-13.068-1.331-2.817-0.072 1.215 0.469 2.042 1.331 2.817"/><path d="m74.437 422.75c14.43 8.094 5.004-19.447-2.175-7.612-1.691 2.784-0.124 5.76 2.175 7.612"/><path d="m110.07 439.85c8.923 4.435-1.319-10.742-1.357-2.251-5e-3 1.032 0.572 1.683 1.357 2.251"/><path d="m167.47 470.94c12.694 5.645 2.284-15.962-2.026-4.872-0.802 2.069 0.346 3.742 2.026 4.872"/><path d="m145.53 455.32c8.807 3.924-2.508-9.743-1.17-1.57 0.126 0.762 0.566 1.166 1.17 1.57"/></g><path d="m260.56 487.77c-93.498 76.472-182.29 39.85-66.978-59.658 20.224-17.453 108.61-99.897 125.68-49.563 11.783 34.727-32.994 87.358-58.705 109.22" fill="#7b8438"/><path d="m242 457.94c-12.723 10.398-78.391 53.916-85.822 29.897-6.176-19.961 78.805-89.022 96.89-102.84 61.999-47.38 44.944 14.138 9.015 53.707-6.565 7.23-12.686 12.902-20.083 19.238" fill="#8d983b"/><path d="m239.17 437.84c-39.82 30.632-65.301 26.002-18.364-20.851 66.704-66.584 64.978-20.97 24.663 15.201l-6.299 5.65" fill="#a3ac3f"/><path d="m212.5 484.35c-12.989 5.948-3.782-15.865 2.108-5.939 1.385 2.332-0.119 4.598-2.108 5.939zm39-28.538c2.05-1.638 3.459-4.203 1.979-6.7-6.24-10.529-15.027 13.973-1.979 6.7zm-11.784-22.607c-12.456 7.106-4.602-17.113 1.803-6.676 1.488 2.425 0.199 5.026-1.803 6.676zm-21.526 17.921c-12.243 5.953-1.957-15.517 2.015-4.866 0.764 2.044-0.403 3.717-2.015 4.866zm-27.711 11.919c-14.655 6.077-4.496-17.896 2.366-6.545 1.592 2.632-0.057 5.097-2.366 6.545zm87.237-34.544c-15.789 10.069-8.737-22.528 1.68-10.7 2.996 3.403 1.392 7.899-1.68 10.7zm7.327-37.409c-6.738 12.393 15.243 5.902 6.01-1.4-2.179-1.723-4.489-0.541-6.01 1.4zm-112.27 108.52c-14.33 5.945-4.516-17.626 2.283-6.419 1.563 2.575-0.016 4.992-2.283 6.419" fill="#7b8438"/><g fill="#626a30"><path d="m304.24 407.96c-11.957 7.827-3.303-17.957 1.647-5.877 0.917 2.24 0.015 4.31-1.647 5.877"/><path d="m291.19 434.43c-9.392 5.894 0.721-13.067 1.331-2.816 0.073 1.217-0.469 2.042-1.331 2.816"/><path d="m270.8 470.35c-14.431 8.092-5.005-19.449 2.175-7.616 1.69 2.786 0.122 5.759-2.175 7.616"/><path d="m235.16 487.44c-8.923 4.435 1.317-10.744 1.357-2.252 5e-3 1.034-0.573 1.685-1.357 2.252"/><path d="m177.76 518.53c-12.695 5.646-2.286-15.96 2.024-4.871 0.804 2.07-0.345 3.745-2.024 4.871"/><path d="m199.7 502.91c-8.806 3.924 2.51-9.742 1.171-1.569-0.124 0.761-0.565 1.167-1.171 1.569"/></g><path d="m221.59 249.74c26.022 0 47.245-13.233 47.245-29.458s-21.223-29.459-47.245-29.459c-26.021 0-47.245 13.234-47.245 29.459s21.224 29.458 47.245 29.458" fill="#edefad"/><path d="m251.02 288.92c14.573 0 26.459-7.412 26.459-16.498s-11.886-16.498-26.459-16.498-26.457 7.412-26.457 16.498 11.884 16.498 26.457 16.498" fill="#edefad"/></g></g></svg>
