<?xml version="1.0" encoding="UTF-8" standalone="no"?>
<!-- Created with Inkscape (http://www.inkscape.org/) -->

<svg
   xmlns:dc="http://purl.org/dc/elements/1.1/"
   xmlns:cc="http://creativecommons.org/ns#"
   xmlns:rdf="http://www.w3.org/1999/02/22-rdf-syntax-ns#"
   xmlns:svg="http://www.w3.org/2000/svg"
   xmlns="http://www.w3.org/2000/svg"
   xmlns:sodipodi="http://sodipodi.sourceforge.net/DTD/sodipodi-0.dtd"
   xmlns:inkscape="http://www.inkscape.org/namespaces/inkscape"
   width="86.91391mm"
   height="110.89182mm"
   viewBox="0 0 86.91391 110.89182"
   version="1.1"
   id="svg8"
   inkscape:version="0.92.3 (2405546, 2018-03-11)"
   sodipodi:docname="plumbersWrench.svg">
  <defs
     id="defs2" />
  <sodipodi:namedview
     id="base"
     pagecolor="#ffffff"
     bordercolor="#666666"
     borderopacity="1.0"
     inkscape:pageopacity="0.0"
     inkscape:pageshadow="2"
     inkscape:zoom="0.35"
     inkscape:cx="-622.89608"
     inkscape:cy="135.27363"
     inkscape:document-units="mm"
     inkscape:current-layer="layer1"
     showgrid="false"
     fit-margin-top="0"
     fit-margin-left="0"
     fit-margin-right="0"
     fit-margin-bottom="0"
     inkscape:window-width="1920"
     inkscape:window-height="1017"
     inkscape:window-x="-8"
     inkscape:window-y="-8"
     inkscape:window-maximized="1" />
  <metadata
     id="metadata5">
    <rdf:RDF>
      <cc:Work
         rdf:about="">
        <dc:format>image/svg+xml</dc:format>
        <dc:type
           rdf:resource="http://purl.org/dc/dcmitype/StillImage" />
        <dc:title></dc:title>
      </cc:Work>
    </rdf:RDF>
  </metadata>
  <g
     inkscape:label="Layer 1"
     inkscape:groupmode="layer"
     id="layer1"
     transform="translate(-72.203755,-73.732662)">
    <g
       inkscape:label="Layer 1"
       id="layer1-6"
       transform="matrix(0.26458333,0,0,0.26458333,64.436231,58.784618)">
      <g
         transform="matrix(-1.4831,0.96703,0.96703,1.4831,273.5,-181.37)"
         id="g6395">
        <path
           d="m 165,56.587 c 14.65,-2.758 46.43,-14.695 45.33,31.246 l -23.83,0.325 -1.39,-15.854 -38.08,-1.466 c 2.51,-8.236 4.11,-11.643 17.97,-14.251 z"
           style="fill:#666666"
           sodipodi:nodetypes="cccccz"
           id="rect6387"
           inkscape:connector-curvature="0" />
        <rect
           x="184.84"
           y="141.48"
           width="16.032"
           height="40.463001"
           ry="7.9487"
           rx="8.0159998"
           style="fill:#666666"
           id="rect6385" />
        <path
           d="m 166.25,108.91 c -7.39,0 -13.31,7.34 -13.31,16.47 v 190.56 c 0,9.12 5.92,16.47 13.31,16.47 7.39,0 13.34,-7.35 13.34,-16.47 V 125.38 c 0,-9.13 -5.95,-16.47 -13.34,-16.47 z m 0,204.5 c 3.2,0 5.81,2.93 5.81,6.56 0,3.63 -2.61,6.56 -5.81,6.56 -3.2,0 -5.78,-2.93 -5.78,-6.56 0,-3.63 2.58,-6.56 5.78,-6.56 z"
           style="fill:#ff0000"
           id="rect6158"
           inkscape:connector-curvature="0" />
        <rect
           x="128.03"
           y="109.58"
           width="34.299999"
           height="12.343"
           transform="matrix(0.97858,-0.20588,0.17523,0.98453,0,0)"
           style="fill:#666666"
           id="rect6362" />
        <rect
           x="126.58"
           y="107.39"
           width="38.143002"
           height="48.938"
           transform="matrix(0.99145,-0.1305,0.18959,0.98186,0,0)"
           style="fill:#ff0000"
           id="rect6162" />
        <path
           d="m 160.12,76.312 -0.29,0.881 -0.24,0.733 -0.29,0.061 -0.51,-0.572 -0.62,-0.689 -0.29,0.88 -0.24,0.731 -0.28,0.061 -0.52,-0.572 -0.61,-0.689 -0.29,0.88 -0.24,0.731 -0.29,0.061 -0.51,-0.572 -0.62,-0.689 -0.29,0.881 -0.24,0.73 -0.28,0.061 -0.52,-0.572 -0.62,-0.689 -0.28,0.881 -0.24,0.731 -0.29,0.061 -0.51,-0.573 -0.62,-0.688 -0.29,0.88 -0.24,0.731 -0.29,0.061 -0.51,-0.572 -0.62,-0.689 -0.29,0.88 -0.23,0.731 -0.29,0.061 -0.51,-0.572 -0.62,-0.689 -0.29,0.88 -0.24,0.731 -0.08,0.017 0.03,0.133 0.38,1.791 27.11,-5.73 -0.4,-1.925 -0.08,0.018 -0.52,-0.574 -0.62,-0.689 -0.29,0.88 -0.23,0.734 -0.29,0.06 -0.52,-0.574 -0.61,-0.689 -0.29,0.881 -0.24,0.733 -0.29,0.061 -0.51,-0.574 -0.62,-0.689 -0.29,0.88 -0.24,0.733 -0.28,0.06 -0.52,-0.573 -0.62,-0.689 -0.28,0.88 -0.24,0.733 -0.29,0.061 -0.51,-0.574 -0.62,-0.689 -0.29,0.88 -0.24,0.734 -0.28,0.06 -0.52,-0.574 -0.62,-0.689 -0.29,0.881 -0.23,0.733 -0.29,0.06 -0.52,-0.573 z"
           style="fill:#666666"
           id="path6329"
           inkscape:connector-curvature="0" />
        <path
           d="m 159.87,74 0.47,-0.796 0.4,-0.662 0.29,0.004 0.37,0.671 0.46,0.809 0.47,-0.796 0.39,-0.66 0.3,0.004 0.37,0.671 0.45,0.808 0.48,-0.795 0.39,-0.66 0.3,0.004 0.37,0.671 0.45,0.808 0.48,-0.795 0.39,-0.661 0.3,0.005 0.37,0.671 0.45,0.808 0.48,-0.795 0.39,-0.661 0.29,0.004 0.38,0.672 0.45,0.808 0.47,-0.795 0.4,-0.661 0.29,0.004 0.38,0.672 0.45,0.808 0.47,-0.796 0.4,-0.66 0.29,0.004 0.38,0.671 0.45,0.809 0.47,-0.796 0.4,-0.66 0.07,0.001 0.01,-0.136 0.02,-1.831 -27.71,-0.388 -0.03,1.967 0.09,0.001 0.37,0.673 0.46,0.809 0.47,-0.796 0.39,-0.662 0.3,0.004 0.37,0.673 0.45,0.808 0.48,-0.795 0.39,-0.662 0.3,0.004 0.37,0.673 0.45,0.808 0.48,-0.795 0.39,-0.663 0.29,0.004 0.38,0.674 0.45,0.808 0.47,-0.795 0.4,-0.663 0.29,0.004 0.38,0.674 0.45,0.808 0.47,-0.795 0.4,-0.663 0.29,0.004 0.38,0.673 0.45,0.809 0.47,-0.796 0.4,-0.662 0.29,0.004 0.38,0.673 z"
           style="fill:#666666"
           id="path6360"
           inkscape:connector-curvature="0" />
        <path
           d="m 205.1,140.8 -2.18,-1.25 -2.09,-1.22 v -0.04 h -0.08 -5.26 v 37.74 h 5.26 0.08 v -0.04 l 2.09,-1.21 2.18,-1.26 -2.18,-1.25 -2.09,-1.22 v -0.52 l 2.09,-1.21 2.18,-1.25 -2.18,-1.26 -2.09,-1.21 v -0.52 l 2.09,-1.21 2.18,-1.26 -2.18,-1.25 -2.09,-1.21 v -0.52 l 2.09,-1.22 2.18,-1.25 -2.18,-1.26 -2.09,-1.2 v -0.53 l 2.09,-1.21 2.18,-1.25 -2.18,-1.26 -2.09,-1.21 v -0.52 l 2.09,-1.21 2.18,-1.25 -2.18,-1.26 -2.09,-1.21 v -0.53 l 2.09,-1.2 z"
           style="fill:#666666"
           id="path6364"
           inkscape:connector-curvature="0" />
        <path
           d="m 180.62,140.8 2.17,-1.25 2.1,-1.22 v -0.04 h 0.08 5.25 v 37.74 h -5.25 -0.08 v -0.04 l -2.1,-1.21 -2.17,-1.26 2.17,-1.25 2.1,-1.22 v -0.52 l -2.1,-1.21 -2.17,-1.25 2.17,-1.26 2.1,-1.21 v -0.52 l -2.1,-1.21 -2.17,-1.26 2.17,-1.25 2.1,-1.21 v -0.52 l -2.1,-1.22 -2.17,-1.25 2.17,-1.26 2.1,-1.2 v -0.53 l -2.1,-1.21 -2.17,-1.25 2.17,-1.26 2.1,-1.21 v -0.52 l -2.1,-1.21 -2.17,-1.25 2.17,-1.26 2.1,-1.21 v -0.53 l -2.1,-1.2 z"
           style="fill:#666666"
           id="path6381"
           inkscape:connector-curvature="0" />
        <rect
           x="187.92999"
           y="130.72"
           width="9.8631001"
           height="42.645"
           ry="5.3594999"
           rx="4.9316001"
           style="fill:#333333"
           id="rect6383" />
        <rect
           x="155.28"
           y="85.758003"
           width="70.584"
           height="58.035"
           ry="29.018"
           rx="21.59"
           style="fill:#ff0000"
           id="rect6166" />
        <path
           d="m 187.49,74 0.47,-0.796 0.4,-0.662 0.29,0.004 0.37,0.671 0.46,0.809 0.47,-0.796 0.4,-0.66 0.29,0.004 0.37,0.671 0.45,0.808 0.48,-0.795 0.39,-0.66 0.3,0.004 0.37,0.671 0.45,0.808 0.48,-0.795 0.39,-0.661 0.3,0.005 0.37,0.671 0.45,0.808 0.48,-0.795 0.39,-0.661 0.3,0.004 0.37,0.672 0.45,0.808 0.48,-0.795 0.39,-0.661 0.29,0.004 0.38,0.672 0.45,0.808 0.47,-0.796 0.4,-0.66 0.29,0.004 0.38,0.671 0.45,0.809 0.47,-0.796 0.4,-0.66 0.07,0.001 0.01,-0.136 0.02,-1.831 -27.71,-0.388 -0.03,1.967 0.09,0.001 0.37,0.673 0.46,0.809 0.47,-0.796 0.39,-0.662 0.3,0.004 0.37,0.673 0.45,0.808 0.48,-0.795 0.39,-0.662 0.3,0.004 0.37,0.673 0.45,0.808 0.48,-0.795 0.39,-0.663 0.29,0.004 0.38,0.674 0.45,0.808 0.48,-0.795 0.39,-0.663 0.29,0.004 0.38,0.674 0.45,0.808 0.47,-0.795 0.4,-0.663 0.29,0.004 0.38,0.673 0.45,0.809 0.47,-0.796 0.4,-0.662 0.29,0.004 0.38,0.673 z"
           style="fill:#666666"
           id="path6390"
           inkscape:connector-curvature="0" />
        <rect
           x="180.38"
           y="113.6"
           width="29.018"
           height="17.254"
           ry="5.2831998"
           style="fill:#333333"
           id="rect6160" />
        <rect
           x="159.21001"
           y="118.4"
           width="14.117"
           height="191.72"
           ry="8.0671997"
           rx="7.0584002"
           style="fill:#800000"
           id="rect6168" />
      </g>
    </g>
  </g>
</svg>
