<?xml version="1.0" encoding="UTF-8"?>
<svg width="284.45mm" height="148.24mm" version="1.1" viewBox="0 0 284.45 148.24" xmlns="http://www.w3.org/2000/svg"><g transform="translate(37.911 -73.358)"><g transform="matrix(.29813 0 0 .43353 -57.526 -148.68)"><g transform="matrix(1.2995,0,0,1.2995,115.5,-1270.8)"><g fill="#ffd700"><path d="m179.79 1528.4v-106.77h213.54v213.54h-213.54z"/><path d="m185.78 1416.5c0.44443-0.4444 17.849-10.631 38.677-22.636l37.869-21.828 208.64 0.7251-76.838 44.548h-104.58c-57.52 0-104.22-0.3636-103.77-0.808z"/><path d="m397.58 1472.7v-52.252l38.095-22.076c20.952-12.142 38.453-22.076 38.891-22.076 0.43779 0 0.78954 23.388 0.78167 51.972l-0.0143 51.972-30.677 17.678c-16.872 9.7227-34.367 19.783-38.877 22.356l-8.1998 4.6781v-52.252z"/></g><g fill="#964b00"><path d="m397.58 1583.5v-51.619h213.54v103.24h-213.54v-51.619z"/><path d="m403.35 1527.1c0.32409-0.3195 17.772-10.499 38.773-22.622l38.184-22.041 104.58-0.01c57.792 0 103.98 0.5343 103.24 1.2007-0.73892 0.6633-18.1 10.846-38.58 22.628l-37.237 21.421h-104.77c-57.626 0-104.51-0.2613-104.18-0.5808z"/><path d="m615.37 1583v-52.03l39.645-22.851c21.805-12.568 39.942-22.851 40.305-22.851 0.36287 0 0.65976 23.2 0.65976 51.556v51.556l-9.5459 5.5732c-5.2503 3.0653-23.388 13.561-40.305 23.325l-30.759 17.751v-52.03z"/></g><path d="m-38.25 1563.7v-71.418h213.5v142.84h-213.5v-71.418z" fill="#c0c0c0"/><path d="m-32.226 1486.1c0.32409-0.2798 17.299-10.144 37.723-21.92l37.134-21.412h132.91v43.84h-104.18c-57.299 0-103.92-0.2289-103.59-0.5088z" fill="#c0c0c0"/><g fill="#fff"><g transform="matrix(.22242 0 0 .22242 211.69 1463.7)"><path d="m420.76 548.81s-67.912-78.806-147.53-56.786c-36.621 14.95-58.177 25.496-69.998 27.814-11.705 2.086-39.287 4.2879-56.091-7.0693 30.827 28.161 59.452 29.9 80.544 25.959 21.092-4.0562 42.184-21.208 47.631-25.612 5.5627-4.2879 25.612-28.161 64.551-12.748 28.161 13.211 63.972 52.035 69.998 58.988l10.894-10.546"/><path d="m272.77 490.52c-0.11578 0-31.522 13.212-31.522 13.212-18.427 7.8806-30.595 12.98-38.36 14.486-3.5926 0.69531-35.81 6.1422-54.816-6.8375l-1.9702 2.4337c0 0.11584 0.11591 0.23175 0.11591 0.23175 25.148 22.83 52.614 31.638 81.819 26.191 14.023-2.6655 30.247-11.241 48.094-25.728 0.23172-0.11591 2.3178-1.9702 2.3178-1.9702 7.3011-6.6057 26.655-24.221 60.842-10.662 27.234 12.748 62.117 49.949 69.303 58.525l1.1589 1.2748 13.212-12.748-1.043-1.1589c-0.69534-0.81128-69.418-79.269-149.15-57.25zm-69.187 30.827c7.9965-1.5066 20.281-6.7217 38.823-14.718l31.406-13.096c74.17-20.513 138.6 48.442 144.75 55.164-1.6224 1.6225-6.9534 6.7217-8.6917 8.3442-8.9236-10.198-42.416-45.545-69.418-58.061-36.042-14.37-56.439 4.172-64.203 11.241l-1.8543 1.7383c-17.615 14.139-33.376 22.599-47.052 25.148-24.916 4.7515-48.558-1.9702-70.577-18.774 19.586 6.8376 43.575 3.5926 46.82 3.0132"/><path d="m258.05 488.43s-43.807 9.3872-60.263 14.139c-16.456 4.8675-72.084 5.7946-104.53-43.575 25.728 21.092 57.25 21.092 69.882 20.628 12.748-0.34772 45.545 4.5198 61.654 7.5328-0.34763-3.0131-16.572-6.6057-21.44-9.1553-4.8674-2.5496-18.542-6.6057-35.115-42.764-5.5627-11.01-6.4899-17.152-10.314-20.513 6.9534 1.043 20.513 15.645 24.685 20.049 4.172 4.4039 29.436 33.492 43.807 40.909 14.37 7.5329 21.44 11.126 31.638 12.748"/><path d="m156.88 416c2.086 1.7383 3.245 4.5196 4.9833 8.8076l4.9833 11.126c15.413 33.724 28.277 39.866 34.419 42.879l1.2749 0.5795 8.9235 3.245c0.92716 0.3476 2.2019 0.81116 3.3608 1.1589-16.572-2.6655-40.793-6.0262-51.687-5.6786-28.161 0.81128-51.339-6.0262-68.839-20.397l-2.4337 2.202c31.29 47.399 86.107 50.18 106.39 44.154 16.109-4.7515 59.684-13.907 60.147-14.023l-0.1159-3.129c-10.082-1.7384-17.152-5.331-31.174-12.632-12.168-6.374-32.797-29.088-40.562-37.664l-2.7813-3.0131-1.043-1.0431c-8.6918-9.1553-18.427-18.542-24.569-19.354l-1.2748 2.7814zm55.512 63.624-8.3441-3.0132-1.3908-0.6953c-5.4468-2.5496-17.963-8.6918-32.913-41.373 0-0.11591-4.9833-11.01-4.9833-11.01-0.92718-2.4336-2.086-3.5926-3.1291-5.3309 6.374 3.7084 15.066 12.632 18.774 16.572l1.043 1.0431 2.6656 3.0132c7.8806 8.5758 28.857 31.754 41.605 38.36 10.894 5.6786 17.731 9.1553 25.032 11.241-13.096 2.8973-41.025 8.9236-53.426 12.632-18.427 5.4468-66.174 3.0131-96.884-35.347 16.92 10.894 37.896 16.34 62.813 15.529 12.168-0.34772 43.806 4.1721 61.19 7.4169l2.086 0.4635-0.2318-2.2018c0-0.46362-0.92716-0.81128-1.2748-1.2749l-0.11591-0.11578c-1.5066-1.8543-4.9833-3.4768-12.516-5.9105"/><path d="m177.16 470.82s-22.019-6.0262-38.36-8.3441c-16.456-2.202-73.822-16.688-96.189-84.021 22.599 26.307 27.698 27.93 40.909 34.535 13.327 6.6058 53.425 29.436 67.332 41.952l4.0562 2.3178s1.3907-1.7383-4.7515-6.9534c-5.9104-5.3309-26.191-23.758-29.32-65.014-2.5495-18.195-6.6058-34.767-7.8806-36.969 9.1553 5.2152 19.933 26.307 22.135 32.218 2.2019 6.0263 17.036 47.631 19.006 52.614 1.8542 4.8674 13.907 31.29 23.062 37.664"/><path d="m111.56 349.02c1.0431 1.8543 5.0992 17.963 7.6488 36.506 1.5066 19.354 7.8806 46.588 29.9 65.942 0.11591 0 0.11591 0 0.11591 0.11591-15.298-12.632-51.687-33.376-65.014-39.982l-2.086-1.1589c-11.473-5.6786-17.268-8.46-38.244-33.029l-2.7814 1.5066c24.337 73.359 90.047 84.252 97.464 85.18 16.109 2.086 37.896 8.3441 38.128 8.3441l1.3907-2.7814c-8.46-6.0263-20.281-31.174-22.599-37.085l-18.89-52.498c-2.086-5.4469-12.98-27.466-22.83-33.145l-2.2019 2.0861zm44.618 109.17c0.34772-0.34766 0.46353-0.81128 0.46353-1.3907 0-1.5066-1.043-3.9402-5.4468-7.6487-21.092-18.774-27.35-45.081-28.741-63.972-1.7384-12.516-4.288-24.685-6.2581-31.754 7.6487 7.6487 15.529 22.714 17.384 27.698l19.006 52.614c1.2748 3.3608 10.778 24.221 19.701 34.188-7.417-1.8542-21.672-5.4468-33.376-6.9534-6.7217-0.92706-64.783-11.241-90.858-74.054 15.761 17.499 22.251 21.324 32.565 26.423l2.2019 1.043c13.791 6.9534 53.31 29.436 66.985 41.721 0.23181 0.23181 4.4039 2.5496 4.4039 2.5496l1.1588 0.6953 0.8112-1.1589"/><path d="m115.85 415.89s-27.582-16.109-42.764-27.93c-15.182-11.937-57.829-42.995-53.426-98.159 6.6058 17.847 17.384 34.072 29.088 43.922 11.705 9.9666 32.913 41.257 38.012 48.558 4.9833 7.3012 8.46 9.2712 8.46 9.2712s1.6225-3.5926-4.0561-9.8507c-4.172-6.7216-11.705-22.483-7.6488-56.902 5.0992-31.986 6.9534-39.634 6.0263-44.618 4.4038 11.241 10.198 35.462 12.4 73.359 1.2748 21.44 3.7084 38.012 6.4899 45.313 2.8972 7.1852 7.4169 17.036 7.4169 17.036"/><path d="m88.036 280.53c0.11591 0.69537 0.11591 1.5066 0.11591 2.4338 0 3.5926-0.92705 9.2712-2.8973 21.324l-3.2449 20.281c-0.81123 6.8375-1.2748 13.096-1.2748 19.006 0 16.225 3.0131 29.32 9.0394 38.939 1.9701 2.086 2.8973 3.7085 3.4767 5.0992-1.3907-1.3907-3.1291-3.245-5.2151-6.2581 0 0-1.7383-2.4337-1.7383-2.4337-6.9534-10.198-25.728-37.201-36.506-46.356-11.473-9.7349-22.135-25.844-28.741-43.343l-3.0132 0.4636c-4.288 54.005 35.347 84.832 52.267 98.159l1.7384 1.2748c15.066 11.821 42.648 28.046 42.879 28.161l2.3178-1.9702-7.3011-17.036c-2.7814-7.417-5.215-24.105-6.4898-44.85-2.6655-45.893-10.198-68.144-12.4-73.822l-3.0132 0.9271zm0.3477 24.221c1.2748-7.3011 1.9701-11.937 2.4337-15.645 3.1291 10.894 7.5329 31.29 9.503 64.551 1.2748 20.976 3.7085 38.012 6.7217 45.777 0 0 3.2449 7.533 5.3309 12.632-8.2282-4.9833-26.887-16.456-38.36-25.38l-1.7383-1.3907c-15.645-12.284-51.34-40.098-51.34-87.613v-1.7384c6.8375 15.761 16.109 30.016 26.771 39.055 10.546 8.8077 29.088 35.694 36.042 45.777l1.6225 2.4336c5.2151 7.417 8.9236 9.619 9.0394 9.7348l1.6225 0.9271 0.5794-1.7384c0.34772-0.4635 1.8543-4.7515-4.288-11.589-7.6487-12.284-10.082-31.059-7.1852-55.512l3.245-20.281"/><path d="m69.958 339.05s-9.503-14.834-18.079-24.569c-8.5758-9.503-46.472-52.382-26.887-124.7 0 16.804 2.3178 26.307 4.0562 32.334 1.9701 5.9104 20.744 46.24 22.599 57.134 1.8542 10.894 4.9833 31.406 9.3872 33.724 1.6224-1.043-0.23181-4.6356-0.81125-7.9964-0.69534-3.2449-6.1423-31.29 10.314-61.77 14.95-26.771 17.731-29.32 19.933-38.592 0.69534 17.5-4.9833 52.151-9.503 66.753-4.4038 14.486-16.341 48.21-11.01 67.68"/><path d="m50.72 315.64c8.3441 9.3871 17.847 24.105 17.847 24.221l2.8973-1.2748c-4.6357-16.92 4.5197-45.893 9.3872-61.538l1.6224-5.2151c4.288-13.907 10.314-49.022 9.619-67.332l-3.1291-0.3477c-1.6225 6.374-3.3608 9.6189-9.503 20.165l-10.314 18.195c-9.7348 17.963-11.937 35.231-11.937 47.283 0 7.0693 0.81126 11.937 1.2748 14.486-2.086-7.0693-3.9402-17.384-4.9833-22.946l-0.3476-2.3179c-1.2749-7.6487-10.082-28.161-16.572-43.111l-5.9104-14.254c-1.7383-5.5627-4.0562-15.066-4.0562-31.87l-3.129-0.4635c-12.864 47.399-3.1291 92.249 27.234 126.32zm2.3178-2.2019c-21.092-23.526-31.87-52.498-31.87-83.905 0-8.8076 1.1589-17.731 2.7814-26.771 0.81124 9.3872 2.3178 15.645 3.5926 19.817l6.1422 14.602c6.0264 13.907 15.182 35.115 16.341 42.3l0.34772 2.4336c2.8972 16.341 5.5627 30.132 9.9665 32.449l0.8113 0.3477 0.8112-0.4636c0.92715-0.57947 1.2748-1.6224 1.2748-2.6655 0-1.2748-0.34762-2.6655-0.81115-4.0562l-0.6953-2.7814c-0.46363-2.086-1.3908-7.417-1.3908-15.066 0-11.589 2.2019-28.277 11.705-45.661l10.198-18.079c2.8972-5.0992 4.8674-8.46 6.2581-11.473-0.92717 18.774-5.5627 44.85-9.0395 56.439l-1.6224 5.215c-4.2879 13.559-10.894 34.304-10.894 51.34 0 1.8542 0.46362 3.4768 0.69534 5.215-3.5926-5.215-9.1553-13.096-14.602-19.238"/><path d="m54.081 251.09s-5.6786-23.062-12.632-41.489c-6.9534-18.542-20.281-61.538 14.254-106.39-7.3011 17.847-4.4039 29.436-4.4039 31.406 0 1.9701 4.288 41.605 4.4039 51.455 0.1159 12.632-2.2019 34.419-2.2019 34.419s0.81123 2.6654 2.5496 0c1.043-1.6225 3.3608-29.784 20.281-46.588 15.645-15.645 28.393-27.466 31.87-33.956 0 11.473-6.6058 28.393-12.053 37.548-5.331 9.2713-27.466 39.635-32.565 49.833-4.9833 10.314-9.5031 22.483-9.5031 23.758"/><path d="m39.942 210.18c6.8376 18.079 12.516 41.141 12.632 41.373l3.1291-0.3476c0.1159-1.2749 4.288-12.748 9.3872-23.062 2.8973-6.0263 11.821-19.122 19.817-30.711l12.632-19.122c5.9104-10.082 12.168-27.002 12.168-38.36l-2.8973-0.8112c-2.7814 5.215-11.821 14.139-23.41 25.496l-8.2282 8.1123c-14.023 13.907-18.311 35.694-19.933 43.807 0 0-0.34772 1.8543-0.46363 2.6656 0.57953-2.8973 2.4337-33.145 2.4337-33.145l-3.245-40.678-1.1589-12.284c-0.23181-1.3907-0.46353-3.5926-0.46353-6.4898 0-5.331 0.92706-13.096 4.7515-22.83l-2.6655-1.6225c-24.453 31.87-29.32 68.144-14.486 108.01zm3.0132-1.159c-5.4468-14.602-8.2282-28.741-8.2282-42.3 0-19.006 5.6786-36.853 16.341-53.657-1.2749 5.3309-1.8543 10.082-1.8543 13.559 0 3.0131 0.23181 5.3309 0.34772 6.8375 0.23172 1.1589 1.1589 12.284 1.1589 12.284l3.3608 40.33s-2.2019 34.188-2.2019 34.188c0.23182 1.0431 0.81125 2.7814 2.4337 2.8973 1.1589 0.23181 2.2019-0.46353 3.0132-1.8542l1.043-4.172c1.6225-7.8806 5.6786-28.857 19.006-42.068l8.3442-8.2282c9.503-9.3872 15.993-16.109 20.165-21.556-1.5066 10.894-6.8375 24.221-11.126 31.522l-12.516 18.89c-7.9965 11.589-17.036 24.801-20.049 30.943-3.0132 6.1423-6.0264 13.559-7.8806 18.774-2.2019-7.8806-6.374-23.294-11.357-36.39"/><path d="m64.047 172.52s2.5496-6.374 0.2318-32.102c-2.4337-25.728-3.4767-60.842 36.39-84.484-9.9666 16.688-11.589 19.586-14.602 33.261-3.0132 13.559-6.374 35.347-11.821 47.631-2.2019 6.0264-3.5926 10.778-2.5496 11.357 0.92715 0.57944 1.3907-0.46353 2.0861-2.5495 0.92706-2.0861 9.0394-20.513 25.496-32.218 16.456-11.705 31.29-23.41 36.853-34.999-2.4336 21.44-10.546 29.088-18.658 39.866-8.8077 11.705-40.446 36.158-45.777 44.154-5.4468 7.8806-7.6488 10.082-7.6488 10.082"/><path d="m62.656 140.53c2.3178 24.685-0.11591 31.29-0.11591 31.29l2.5497 1.8542 7.8806-10.43c2.4337-3.5926 11.01-11.126 19.933-19.122 10.43-9.1554 21.208-18.658 25.844-24.916l3.2449-4.1721c6.9535-8.9235 13.559-17.384 15.761-36.39l-3.0132-0.9271c-5.5627 11.473-20.744 23.294-36.39 34.419-11.937 8.46-19.47 20.281-23.294 27.35 0.23172-0.81116 0.34763-1.043 0.69534-2.086 4.172-9.2712 6.9534-23.873 9.6189-36.621l2.2019-11.241c3.0132-13.212 4.4039-15.877 14.486-32.797l-2.2019-2.2019c-42.88 25.496-39.171 64.899-37.201 85.991zm4.172 18.658c0-4.7516-0.23172-10.894-1.043-18.89-0.46362-4.9833-0.92715-11.01-0.92715-17.615 0-18.774 5.5627-42.068 30.132-60.147-6.1423 10.43-7.9965 14.95-10.43 26.307l-2.4336 11.241c-2.4338 12.632-5.331 27.002-9.3872 36.158-2.2019 5.9105-3.0132 9.1553-3.0132 11.01 0 1.2749 0.46363 1.8543 1.159 2.3178l0.5794 0.3477 1.3907-0.1159c1.2748-0.46362 1.8542-1.8543 2.4336-3.7085 0.81125-1.8542 9.0395-20.049 24.916-31.406 13.096-9.2712 25.496-19.122 32.913-28.857-2.6655 12.632-7.7647 19.701-13.675 27.35l-3.2449 4.0562c-4.5198 6.0262-15.529 15.877-25.38 24.569-9.503 8.46-17.847 15.761-20.513 19.701 0 0-1.8542 2.5496-3.7084 4.9833 0.11582-1.9701 0.23172-4.1721 0.23172-7.3011"/><path d="m93.831 104.26s5.2151-27.234 15.645-43.343 32.102-30.363 54.932-37.433c-7.9964 6.7217-12.864 12.748-15.645 17.615-2.7814 4.7516-20.049 31.754-27.93 40.33-8.1124 8.5759-21.092 16.341-27.002 22.83"/><path d="m108.09 59.987c-10.43 16.225-15.529 42.883-15.761 43.923l2.7814 1.3907 11.589-9.8507 15.182-12.98c8.2282-8.8077 25.612-35.926 28.277-40.562 3.2449-5.6786 8.3441-11.473 15.298-17.268l-1.5066-2.6656c-24.105 7.417-45.429 22.019-55.859 38.012zm2.7814 1.7383c8.8077-13.675 26.423-26.075 46.588-33.84-4.0561 4.1721-7.6487 8.3441-10.082 12.4-2.6655 4.5198-19.817 31.406-27.814 40.098 0 0-19.585 16.572-23.178 19.585 1.9701-8.3441 6.8375-26.423 14.486-38.244"/><path d="m258.51 550.9s65.942-80.544 146.02-60.495c37.085 14.023 58.756 23.989 70.693 25.844 11.821 1.9702 39.287 3.4768 55.859-8.4599-30.132 28.973-58.756 31.522-79.849 28.046-21.208-3.4768-42.648-20.049-48.21-24.337-5.5627-4.288-26.423-27.466-64.783-11.125-28.045 13.907-62.813 53.541-68.607 60.726l-11.126-10.198"/><path d="m257.24 549.86-0.9271 1.1589 13.559 12.4 1.043-1.3907c7.0693-8.6918 41.141-46.82 68.028-60.263 33.724-14.37 53.541 2.7814 60.958 9.2713l2.086 1.7383c18.427 14.023 34.767 22.367 49.022 24.685 29.204 4.6357 56.555-4.8674 81.007-28.277 0.11591-0.11591 0.11591-0.11591 0.11591-0.23181l-1.9701-2.4337c-18.774 13.443-51.108 8.8076-54.7 8.2281-7.7646-1.2748-19.817-6.0262-38.128-13.327l-32.218-12.516c-80.312-20.165-147.18 60.147-147.88 60.958zm146.95-57.945 31.986 12.516c18.542 7.3012 30.711 12.168 38.823 13.443 3.0132 0.46356 25.844 3.5926 44.85-2.8973-21.092 16.456-43.922 23.178-68.375 19.238-13.559-2.2019-29.552-10.198-47.283-23.873-0.23184-0.11591-2.2019-1.7384-2.2019-1.7384-7.8806-6.8375-28.741-24.916-64.435-9.6188-26.539 13.096-59.336 49.253-68.028 59.799-1.7384-1.5066-7.1852-6.6058-8.8077-7.9965 5.9104-6.9534 68.607-77.531 143.47-58.872"/><path d="m419.72 486.46s44.038 8.1124 60.495 12.516c16.572 4.4038 72.316 3.9402 103.61-46.24-25.264 21.787-56.902 22.599-69.534 22.483-12.632-0.11591-45.429 5.5627-61.306 9.0394 0.23181-3.129 16.34-7.0693 21.208-9.7347 4.7515-2.6655 18.311-7.0693 33.956-43.691 5.4468-11.126 6.1422-17.384 9.9666-20.744-6.9534 1.2748-20.165 16.225-24.221 20.628-4.1721 4.6356-28.741 34.304-42.88 42.068-14.139 7.9964-21.208 11.589-31.29 13.675"/><path d="m493.88 428.4-1.1589 1.2748-3.1291 3.4768c-7.5328 8.6917-27.466 31.754-39.287 38.244-14.37 8.1123-21.208 11.473-30.943 13.443v3.129c0.34772 0.11591 44.154 8.2282 60.495 12.516 20.397 5.5628 75.213 1.3907 105.23-46.936l-2.3177-1.9702c-17.268 14.834-40.33 22.251-68.375 22.019-11.01-0.11578-34.999 3.8245-51.687 7.0693 1.1589-0.46356 2.4337-0.92706 3.4767-1.2748l8.6918-3.4767 1.3907-0.6954c5.5627-2.7814 18.658-9.5029 33.376-43.691l4.7515-11.241c1.6225-4.288 2.7814-7.1852 4.6357-8.9236l-1.2748-2.7814c-6.0263 1.0431-15.414 10.546-23.873 19.817zm-42.068 45.893c12.284-6.9534 31.87-29.436 40.214-39.055l3.0131-3.3608 1.2748-1.3907c3.5926-3.9402 11.937-12.864 18.079-16.804-0.92712 1.7384-2.086 3.0132-3.0132 5.4468l-4.6356 11.01c-14.254 33.261-26.655 39.519-31.986 42.3l-1.3907 0.6954-8.2282 3.2449c-7.5329 2.6655-10.894 4.4039-12.4 6.2582l-0.11591 0.11578c-0.34763 0.46362-1.1589 0.92718-1.2748 1.3908l-0.1159 2.2018 2.086-0.5795c14.834-3.2449 47.979-9.0394 60.958-8.9235 24.916 0.11591 45.777-5.7946 62.465-17.268-29.9 39.287-77.531 42.88-96.073 37.896-12.4-3.3609-40.562-8.8077-53.773-11.241 7.0693-2.3178 13.791-5.7946 24.916-11.937zm57.829-42.764"/><path d="m500.26 466.76s21.671-6.7216 38.012-9.2712c16.456-2.6655 73.475-18.658 94.103-86.57-21.903 26.887-26.886 28.625-39.982 35.694-13.096 6.8375-52.73 30.595-66.405 43.459l-4.0563 2.4336s-1.1589-1.6225 4.6357-6.9534c5.9105-5.4468 25.728-24.453 27.93-65.826 2.0861-18.195 5.7946-34.767 7.0693-37.201-9.0394 5.5627-19.354 27.002-21.44 32.913-2.086 6.0264-15.993 47.979-17.731 52.962-1.8543 4.9833-13.212 31.638-22.135 38.36"/><path d="m538.62 374.98-17.731 52.962c-2.3179 6.1422-13.443 31.406-21.672 37.548l1.3907 2.7813c0.23169 0 21.903-6.7217 38.012-9.2712 7.3012-1.1589 72.779-13.675 95.378-87.613l-2.7814-1.5066c-20.628 25.264-25.959 28.046-37.548 34.188l-2.0861 1.043c-12.98 6.9534-48.326 28.277-63.74 41.373 21.44-20.049 27.234-47.283 28.277-66.637 2.086-18.658 5.6786-34.651 6.8376-36.506l-2.3178-2.2018c-9.7348 6.0262-20.049 28.393-22.019 33.84zm-14.718 54.005 17.731-52.962c1.7383-5.0992 9.2712-20.281 16.688-28.161-1.7383 7.0693-3.9402 19.006-5.4468 31.638-1.5066 27.466-10.662 49.254-27.35 64.899-4.0562 3.7084-5.215 6.1422-5.215 7.6487 0 0.57941 0.11591 1.1589 0.4635 1.5066l0.8113 1.043 5.2151-3.129c13.559-12.632 52.614-36.158 66.289-43.459l1.9702-1.043c10.314-5.447 16.688-9.3872 32.102-27.466-24.453 63.508-82.282 75.213-89.12 76.372-11.589 1.8543-25.728 5.6786-33.145 7.8806 8.6917-10.082 17.499-30.595 19.006-34.767"/><path d="m560.17 410.32s27.118-16.92 42.068-29.204c14.834-12.168 56.786-44.27 51.108-99.318-6.2581 17.963-16.572 34.42-28.046 44.618-11.473 10.198-31.87 42.068-36.737 49.485-4.9833 7.417-8.3441 9.503-8.3441 9.503s-1.7383-3.5926 3.8244-10.082c3.9402-6.6056 11.241-22.714 6.2581-56.902-5.7945-31.986-7.7646-39.519-7.0693-44.386-4.0562 11.241-9.2712 35.462-10.546 73.475-0.69537 21.556-2.8973 38.128-5.5627 45.429-2.6655 7.417-6.9535 17.384-6.9535 17.384"/><path d="m571.07 347.51c-0.69537 20.744-2.7814 37.548-5.4468 44.85l-6.8376 17.384 2.3178 1.9701c0.23181-0.23181 27.35-17.152 42.184-29.32l1.7383-1.3907c16.572-13.675 55.512-45.429 49.949-99.434l-3.1291-0.3477c-6.1422 17.847-16.225 33.956-27.582 44.038-10.546 9.3872-28.625 36.853-35.462 47.283l-1.6225 2.5497c-2.086 3.0131-3.7084 4.8674-4.9833 6.2581 0.46362-1.2748 1.2749-2.8973 3.0132-4.9833 5.5627-9.2712 8.3441-21.672 8.3441-36.737 0-6.7217-0.46356-13.907-1.6224-21.44 0-0.11591-3.8244-20.628-3.8244-20.628-2.3178-12.284-3.3608-17.847-3.3608-21.324 0-0.69537 0-1.3908 0.11591-1.9702l-3.0132-0.8112c-2.202 5.7945-9.1553 28.277-10.778 74.054zm-2.4337 46.008c2.7814-7.6489 4.9832-24.8 5.6785-45.893 1.159-33.261 5.0992-53.657 7.9965-64.667 0.46362 3.5926 1.2748 8.2282 2.6655 15.182l3.8244 20.513c1.0431 7.5329 1.6225 14.602 1.6225 21.092 0 14.37-2.6655 26.191-7.7646 34.767-3.4767 4.0562-4.288 7.3011-4.288 9.2712 0 1.2748 0.34766 2.086 0.46356 2.2019l0.6953 1.7384 1.5066-0.9271c0.23181-0.11591 3.8245-2.4338 8.8077-9.9666l1.7383-2.5496c6.7217-10.314 24.569-37.548 34.883-46.588 10.314-9.2712 19.238-23.758 25.612-39.635 0.11578 1.2748 0.23175 2.6655 0.23175 3.9403 0 46.124-34.188 74.17-49.369 86.57l-1.7383 1.3907c-11.242 9.2712-29.552 21.208-37.664 26.423 1.9701-4.9833 5.0992-12.864 5.0992-12.864"/><path d="m604.21 332.21s9.1553-15.066 17.5-24.916c8.3441-9.7347 45.313-53.657 23.989-125.39 0.3476 16.804-1.6225 26.423-3.3609 32.449-1.7383 5.9103-19.47 46.704-21.092 57.598-1.7383 11.01-4.4039 31.522-8.8076 33.956-1.5066-0.92706 0.3476-4.6356 0.81116-7.8806 0.57953-3.3608 5.331-31.638-11.821-61.538-15.529-26.307-18.427-28.973-20.744-38.128-0.3476 17.5 6.2582 52.035 10.894 66.405 4.8674 14.486 17.615 47.863 12.632 67.448"/><path d="m644.08 181.9v4.288c0 11.01-1.0431 20.049-3.2449 27.698l-5.7946 14.95c-6.0264 14.95-14.255 35.462-15.414 42.88l-0.4636 3.129c-0.81122 5.6786-2.3178 15.298-4.172 22.019 0.34772-2.3178 0.92712-6.2581 0.92712-12.053 0-12.053-2.3178-30.247-13.212-49.138l-10.778-17.963c-6.2582-10.314-8.1124-13.559-9.7349-19.701l-3.2449 0.3476c-0.23181 18.079 6.6058 53.078 11.125 66.985l1.8543 5.3309c5.215 15.413 15.066 44.154 10.778 61.19l2.8973 1.1589c0.11591-0.11591 9.1553-15.066 17.384-24.685 29.552-34.767 38.128-79.848 24.221-126.9l-3.1291 0.4635zm-30.827 125.39c4.4039-2.4336 6.7217-15.993 9.0395-31.986l0.4636-3.0132c1.1589-7.1852 9.6188-28.277 15.182-42.3l5.9103-15.182c1.1589-4.0562 2.3178-11.126 2.8973-20.628 2.3178 10.314 3.7085 20.513 3.7085 30.479 0 30.132-10.082 58.293-29.9 81.587-5.215 6.1422-10.546 14.023-14.023 19.354 0.11591-1.2747 0.46356-2.3177 0.46356-3.5925 0-17.152-7.3011-38.592-12.053-52.382l-1.8542-5.331c-3.7085-11.589-8.8077-37.317-10.198-55.975 1.5066 2.8972 3.3608 6.1422 6.374 11.01l10.778 17.963c10.43 18.311 12.632 35.81 12.632 47.399 0 6.4899-0.69531 11.241-0.92706 12.98-0.11591 0-0.81122 3.0132-0.81122 3.0132-0.23181 1.3906-0.69537 2.6654-0.69537 3.8243 0 1.159 0.34766 2.202 1.3907 2.7814l0.8113 0.4636 0.8112-0.4636"/><path d="m618 244.02s5.215-23.294 11.705-41.952c6.4899-18.658 18.774-61.886-16.688-105.92 7.6487 17.615 5.0992 29.32 5.215 31.29 0 1.9702-3.4767 41.721-3.2449 51.571 0.11591 12.632 3.0132 34.304 3.0132 34.304s-0.81128 2.6655-2.5497 0.11591c-1.1589-1.7384-4.0562-29.784-21.324-46.124-16.109-15.182-29.088-26.655-32.681-33.145 0.23175 11.589 7.301 28.161 12.864 37.317 5.5628 9.0394 28.393 38.939 33.724 49.022 5.215 10.082 9.9666 22.135 9.9666 23.526"/><path d="m611.51 96.84c4.6356 10.314 5.4468 18.542 5.4468 23.873 0 2.3178-0.11591 4.0561-0.23169 5.2151l-0.9272 11.589-2.4337 41.489s1.8543 21.092 2.6655 30.247c-1.9702-8.9236-6.6058-29.668-20.86-42.995 0-0.11594-8.8077-8.4601-8.8077-8.4601-11.589-10.894-20.744-19.47-23.526-24.453l-3.0132 0.8112c0.23181 11.357 6.9534 28.046 13.096 38.128l13.212 19.006c8.2282 11.241 17.384 24.105 20.397 29.9 5.4468 10.314 9.7348 21.672 9.8507 22.946l3.2449 0.2317c0-0.23172 5.2151-23.41 11.589-41.836 14.023-39.866 8.3441-76.024-17.036-107.43l-2.6655 1.7384zm5.6786 119.25c1.6225-0.23181 2.202-1.9701 2.3178-2.3178 0-1.2748-3.0131-34.767-3.0131-34.767l2.5496-41.141 0.6953-10.43c0.11591-1.7383 0.34772-3.9402 0.34772-6.6057 0-3.8244-0.81122-9.1553-2.3178-14.95 11.589 17.152 17.731 35.694 17.731 55.627 0 12.864-2.4337 26.191-7.3011 39.982-4.6356 13.327-8.5759 28.857-10.43 36.737-1.9702-5.0992-5.0992-12.4-8.3441-18.542-3.245-6.0263-12.516-18.89-20.628-30.247l-13.096-18.89c-5.0992-8.2282-10.314-20.86-12.053-31.174 4.2878 5.215 10.894 11.705 20.513 20.86l8.9235 8.2282c13.559 12.864 17.963 33.029 19.817 41.605l1.1589 4.172c0.92718 1.3907 1.9702 1.9701 3.1291 1.8542"/><path d="m606.3 165.56s-2.6655-6.2582-0.92706-31.986c1.7383-25.844 1.9702-60.958-38.36-83.673 10.314 16.572 11.937 19.47 15.298 33.029 3.3608 13.443 7.3012 35.115 12.98 47.283 2.3178 6.0263 3.9402 10.662 2.8973 11.242-1.0431 0.69534-1.5066-0.46362-2.3179-2.4338-0.81122-2.086-9.503-20.281-26.075-31.522-16.804-11.357-31.87-22.714-37.664-34.072 2.7814 21.324 11.126 28.741 19.47 39.287 9.0394 11.473 41.257 35.115 46.82 42.88 5.6786 7.8805 7.8806 9.9666 7.8806 9.9666"/><path d="m565.62 50.832c10.43 16.688 11.937 19.354 15.182 32.449l2.4338 10.662c2.8973 12.864 6.1422 27.466 10.546 36.969 0.23181 0.57953 0.69531 1.7384 1.043 2.6656-3.7085-6.7217-11.473-18.89-24.221-27.466-15.877-10.662-31.406-22.251-37.085-33.376l-3.0132 0.9271c2.5496 18.89 9.2712 27.118 16.572 35.926l3.2449 4.0561c4.8674 6.2581 15.993 15.529 26.539 24.569 9.1553 7.6487 17.731 14.834 20.281 18.427l8.1124 10.082 2.5496-1.8542c-0.11591 0-2.5496-6.4899-0.81122-31.175 1.3906-21.324 4.0562-60.843-39.171-85.18l-2.2019 2.3178zm33.376 91.901c0.69531-0.34772 1.043-1.0431 1.043-2.086 0-1.8543-1.043-5.0992-3.2449-11.01-4.2879-9.1553-7.6487-24.337-10.43-36.39l-2.5496-10.778c-2.7814-11.357-4.7515-15.761-11.01-26.191 25.496 17.615 31.522 40.562 31.522 62.928 0 4.8674-0.23181 9.6189-0.46356 14.254-0.46362 6.4899-0.57941 11.705-0.57941 15.877 0 4.6357 0.11578 7.7646 0.4635 10.314-1.9701-2.4338-3.9403-4.8674-3.9403-4.8674-2.7814-3.8244-11.126-10.894-20.86-19.006-10.082-8.46-21.44-18.079-26.191-23.989l-3.2449-4.172c-6.0264-7.417-11.242-14.254-14.254-26.771 7.0693 8.9236 18.542 17.847 33.608 27.93 17.152 11.705 25.496 30.711 25.612 30.827 0.69537 1.8543 1.1589 3.1291 2.4338 3.4767l0.6953 0.3477 1.3907-0.6953"/><path d="m574.89 98.115s-5.7946-27.002-16.688-42.88c-10.662-15.877-32.681-29.552-55.627-36.042 8.1123 6.4899 13.096 12.4 15.993 17.152 2.8973 4.7515 20.86 31.29 28.973 39.635 8.2283 8.46 21.44 15.761 27.35 22.135"/><path d="m501.53 20.468c8.8077 6.8376 13.327 12.864 15.645 16.688 2.7814 4.6356 20.86 31.406 29.32 39.982l15.529 12.632 11.821 9.387 2.6655-1.3907c-0.23175-1.1589-6.0263-27.466-16.92-43.459-10.778-15.761-32.449-29.784-56.554-36.621l-1.5066 2.7814zm62.349 66.753-15.182-12.4c-8.1124-8.2283-26.075-34.999-28.741-39.287-2.4337-3.9402-6.1422-7.9965-10.43-12.168 20.397 7.3011 38.244 19.238 47.399 32.797 7.8806 11.589 13.212 29.436 15.298 37.78-3.4768-2.8973-8.3441-6.7217-8.3441-6.7217"/></g><g transform="matrix(.13923 0 0 .14546 457.48 1541.3)"><path d="m420.76 548.81s-67.912-78.806-147.53-56.786c-36.621 14.95-58.177 25.496-69.998 27.814-11.705 2.086-39.287 4.2879-56.091-7.0693 30.827 28.161 59.452 29.9 80.544 25.959 21.092-4.0562 42.184-21.208 47.631-25.612 5.5627-4.2879 25.612-28.161 64.551-12.748 28.161 13.211 63.972 52.035 69.998 58.988l10.894-10.546"/><path d="m272.77 490.52c-0.11578 0-31.522 13.212-31.522 13.212-18.427 7.8806-30.595 12.98-38.36 14.486-3.5926 0.69531-35.81 6.1422-54.816-6.8375l-1.9702 2.4337c0 0.11584 0.11591 0.23175 0.11591 0.23175 25.148 22.83 52.614 31.638 81.819 26.191 14.023-2.6655 30.247-11.241 48.094-25.728 0.23172-0.11591 2.3178-1.9702 2.3178-1.9702 7.3011-6.6057 26.655-24.221 60.842-10.662 27.234 12.748 62.117 49.949 69.303 58.525l1.1589 1.2748 13.212-12.748-1.043-1.1589c-0.69534-0.81128-69.418-79.269-149.15-57.25zm-69.187 30.827c7.9965-1.5066 20.281-6.7217 38.823-14.718l31.406-13.096c74.17-20.513 138.6 48.442 144.75 55.164-1.6224 1.6225-6.9534 6.7217-8.6917 8.3442-8.9236-10.198-42.416-45.545-69.418-58.061-36.042-14.37-56.439 4.172-64.203 11.241l-1.8543 1.7383c-17.615 14.139-33.376 22.599-47.052 25.148-24.916 4.7515-48.558-1.9702-70.577-18.774 19.586 6.8376 43.575 3.5926 46.82 3.0132"/><path d="m258.05 488.43s-43.807 9.3872-60.263 14.139c-16.456 4.8675-72.084 5.7946-104.53-43.575 25.728 21.092 57.25 21.092 69.882 20.628 12.748-0.34772 45.545 4.5198 61.654 7.5328-0.34763-3.0131-16.572-6.6057-21.44-9.1553-4.8674-2.5496-18.542-6.6057-35.115-42.764-5.5627-11.01-6.4899-17.152-10.314-20.513 6.9534 1.043 20.513 15.645 24.685 20.049 4.172 4.4039 29.436 33.492 43.807 40.909 14.37 7.5329 21.44 11.126 31.638 12.748"/><path d="m156.88 416c2.086 1.7383 3.245 4.5196 4.9833 8.8076l4.9833 11.126c15.413 33.724 28.277 39.866 34.419 42.879l1.2749 0.5795 8.9235 3.245c0.92716 0.3476 2.2019 0.81116 3.3608 1.1589-16.572-2.6655-40.793-6.0262-51.687-5.6786-28.161 0.81128-51.339-6.0262-68.839-20.397l-2.4337 2.202c31.29 47.399 86.107 50.18 106.39 44.154 16.109-4.7515 59.684-13.907 60.147-14.023l-0.1159-3.129c-10.082-1.7384-17.152-5.331-31.174-12.632-12.168-6.374-32.797-29.088-40.562-37.664l-2.7813-3.0131-1.043-1.0431c-8.6918-9.1553-18.427-18.542-24.569-19.354l-1.2748 2.7814zm55.512 63.624-8.3441-3.0132-1.3908-0.6953c-5.4468-2.5496-17.963-8.6918-32.913-41.373 0-0.11591-4.9833-11.01-4.9833-11.01-0.92718-2.4336-2.086-3.5926-3.1291-5.3309 6.374 3.7084 15.066 12.632 18.774 16.572l1.043 1.0431 2.6656 3.0132c7.8806 8.5758 28.857 31.754 41.605 38.36 10.894 5.6786 17.731 9.1553 25.032 11.241-13.096 2.8973-41.025 8.9236-53.426 12.632-18.427 5.4468-66.174 3.0131-96.884-35.347 16.92 10.894 37.896 16.34 62.813 15.529 12.168-0.34772 43.806 4.1721 61.19 7.4169l2.086 0.4635-0.2318-2.2018c0-0.46362-0.92716-0.81128-1.2748-1.2749l-0.11591-0.11578c-1.5066-1.8543-4.9833-3.4768-12.516-5.9105"/><path d="m177.16 470.82s-22.019-6.0262-38.36-8.3441c-16.456-2.202-73.822-16.688-96.189-84.021 22.599 26.307 27.698 27.93 40.909 34.535 13.327 6.6058 53.425 29.436 67.332 41.952l4.0562 2.3178s1.3907-1.7383-4.7515-6.9534c-5.9104-5.3309-26.191-23.758-29.32-65.014-2.5495-18.195-6.6058-34.767-7.8806-36.969 9.1553 5.2152 19.933 26.307 22.135 32.218 2.2019 6.0263 17.036 47.631 19.006 52.614 1.8542 4.8674 13.907 31.29 23.062 37.664"/><path d="m111.56 349.02c1.0431 1.8543 5.0992 17.963 7.6488 36.506 1.5066 19.354 7.8806 46.588 29.9 65.942 0.11591 0 0.11591 0 0.11591 0.11591-15.298-12.632-51.687-33.376-65.014-39.982l-2.086-1.1589c-11.473-5.6786-17.268-8.46-38.244-33.029l-2.7814 1.5066c24.337 73.359 90.047 84.252 97.464 85.18 16.109 2.086 37.896 8.3441 38.128 8.3441l1.3907-2.7814c-8.46-6.0263-20.281-31.174-22.599-37.085l-18.89-52.498c-2.086-5.4469-12.98-27.466-22.83-33.145l-2.2019 2.0861zm44.618 109.17c0.34772-0.34766 0.46353-0.81128 0.46353-1.3907 0-1.5066-1.043-3.9402-5.4468-7.6487-21.092-18.774-27.35-45.081-28.741-63.972-1.7384-12.516-4.288-24.685-6.2581-31.754 7.6487 7.6487 15.529 22.714 17.384 27.698l19.006 52.614c1.2748 3.3608 10.778 24.221 19.701 34.188-7.417-1.8542-21.672-5.4468-33.376-6.9534-6.7217-0.92706-64.783-11.241-90.858-74.054 15.761 17.499 22.251 21.324 32.565 26.423l2.2019 1.043c13.791 6.9534 53.31 29.436 66.985 41.721 0.23181 0.23181 4.4039 2.5496 4.4039 2.5496l1.1588 0.6953 0.8112-1.1589"/><path d="m115.85 415.89s-27.582-16.109-42.764-27.93c-15.182-11.937-57.829-42.995-53.426-98.159 6.6058 17.847 17.384 34.072 29.088 43.922 11.705 9.9666 32.913 41.257 38.012 48.558 4.9833 7.3012 8.46 9.2712 8.46 9.2712s1.6225-3.5926-4.0561-9.8507c-4.172-6.7216-11.705-22.483-7.6488-56.902 5.0992-31.986 6.9534-39.634 6.0263-44.618 4.4038 11.241 10.198 35.462 12.4 73.359 1.2748 21.44 3.7084 38.012 6.4899 45.313 2.8972 7.1852 7.4169 17.036 7.4169 17.036"/><path d="m88.036 280.53c0.11591 0.69537 0.11591 1.5066 0.11591 2.4338 0 3.5926-0.92705 9.2712-2.8973 21.324l-3.2449 20.281c-0.81123 6.8375-1.2748 13.096-1.2748 19.006 0 16.225 3.0131 29.32 9.0394 38.939 1.9701 2.086 2.8973 3.7085 3.4767 5.0992-1.3907-1.3907-3.1291-3.245-5.2151-6.2581 0 0-1.7383-2.4337-1.7383-2.4337-6.9534-10.198-25.728-37.201-36.506-46.356-11.473-9.7349-22.135-25.844-28.741-43.343l-3.0132 0.4636c-4.288 54.005 35.347 84.832 52.267 98.159l1.7384 1.2748c15.066 11.821 42.648 28.046 42.879 28.161l2.3178-1.9702-7.3011-17.036c-2.7814-7.417-5.215-24.105-6.4898-44.85-2.6655-45.893-10.198-68.144-12.4-73.822l-3.0132 0.9271zm0.3477 24.221c1.2748-7.3011 1.9701-11.937 2.4337-15.645 3.1291 10.894 7.5329 31.29 9.503 64.551 1.2748 20.976 3.7085 38.012 6.7217 45.777 0 0 3.2449 7.533 5.3309 12.632-8.2282-4.9833-26.887-16.456-38.36-25.38l-1.7383-1.3907c-15.645-12.284-51.34-40.098-51.34-87.613v-1.7384c6.8375 15.761 16.109 30.016 26.771 39.055 10.546 8.8077 29.088 35.694 36.042 45.777l1.6225 2.4336c5.2151 7.417 8.9236 9.619 9.0394 9.7348l1.6225 0.9271 0.5794-1.7384c0.34772-0.4635 1.8543-4.7515-4.288-11.589-7.6487-12.284-10.082-31.059-7.1852-55.512l3.245-20.281"/><path d="m69.958 339.05s-9.503-14.834-18.079-24.569c-8.5758-9.503-46.472-52.382-26.887-124.7 0 16.804 2.3178 26.307 4.0562 32.334 1.9701 5.9104 20.744 46.24 22.599 57.134 1.8542 10.894 4.9833 31.406 9.3872 33.724 1.6224-1.043-0.23181-4.6356-0.81125-7.9964-0.69534-3.2449-6.1423-31.29 10.314-61.77 14.95-26.771 17.731-29.32 19.933-38.592 0.69534 17.5-4.9833 52.151-9.503 66.753-4.4038 14.486-16.341 48.21-11.01 67.68"/><path d="m50.72 315.64c8.3441 9.3871 17.847 24.105 17.847 24.221l2.8973-1.2748c-4.6357-16.92 4.5197-45.893 9.3872-61.538l1.6224-5.2151c4.288-13.907 10.314-49.022 9.619-67.332l-3.1291-0.3477c-1.6225 6.374-3.3608 9.6189-9.503 20.165l-10.314 18.195c-9.7348 17.963-11.937 35.231-11.937 47.283 0 7.0693 0.81126 11.937 1.2748 14.486-2.086-7.0693-3.9402-17.384-4.9833-22.946l-0.3476-2.3179c-1.2749-7.6487-10.082-28.161-16.572-43.111l-5.9104-14.254c-1.7383-5.5627-4.0562-15.066-4.0562-31.87l-3.129-0.4635c-12.864 47.399-3.1291 92.249 27.234 126.32zm2.3178-2.2019c-21.092-23.526-31.87-52.498-31.87-83.905 0-8.8076 1.1589-17.731 2.7814-26.771 0.81124 9.3872 2.3178 15.645 3.5926 19.817l6.1422 14.602c6.0264 13.907 15.182 35.115 16.341 42.3l0.34772 2.4336c2.8972 16.341 5.5627 30.132 9.9665 32.449l0.8113 0.3477 0.8112-0.4636c0.92715-0.57947 1.2748-1.6224 1.2748-2.6655 0-1.2748-0.34762-2.6655-0.81115-4.0562l-0.6953-2.7814c-0.46363-2.086-1.3908-7.417-1.3908-15.066 0-11.589 2.2019-28.277 11.705-45.661l10.198-18.079c2.8972-5.0992 4.8674-8.46 6.2581-11.473-0.92717 18.774-5.5627 44.85-9.0395 56.439l-1.6224 5.215c-4.2879 13.559-10.894 34.304-10.894 51.34 0 1.8542 0.46362 3.4768 0.69534 5.215-3.5926-5.215-9.1553-13.096-14.602-19.238"/><path d="m54.081 251.09s-5.6786-23.062-12.632-41.489c-6.9534-18.542-20.281-61.538 14.254-106.39-7.3011 17.847-4.4039 29.436-4.4039 31.406 0 1.9701 4.288 41.605 4.4039 51.455 0.1159 12.632-2.2019 34.419-2.2019 34.419s0.81123 2.6654 2.5496 0c1.043-1.6225 3.3608-29.784 20.281-46.588 15.645-15.645 28.393-27.466 31.87-33.956 0 11.473-6.6058 28.393-12.053 37.548-5.331 9.2713-27.466 39.635-32.565 49.833-4.9833 10.314-9.5031 22.483-9.5031 23.758"/><path d="m39.942 210.18c6.8376 18.079 12.516 41.141 12.632 41.373l3.1291-0.3476c0.1159-1.2749 4.288-12.748 9.3872-23.062 2.8973-6.0263 11.821-19.122 19.817-30.711l12.632-19.122c5.9104-10.082 12.168-27.002 12.168-38.36l-2.8973-0.8112c-2.7814 5.215-11.821 14.139-23.41 25.496l-8.2282 8.1123c-14.023 13.907-18.311 35.694-19.933 43.807 0 0-0.34772 1.8543-0.46363 2.6656 0.57953-2.8973 2.4337-33.145 2.4337-33.145l-3.245-40.678-1.1589-12.284c-0.23181-1.3907-0.46353-3.5926-0.46353-6.4898 0-5.331 0.92706-13.096 4.7515-22.83l-2.6655-1.6225c-24.453 31.87-29.32 68.144-14.486 108.01zm3.0132-1.159c-5.4468-14.602-8.2282-28.741-8.2282-42.3 0-19.006 5.6786-36.853 16.341-53.657-1.2749 5.3309-1.8543 10.082-1.8543 13.559 0 3.0131 0.23181 5.3309 0.34772 6.8375 0.23172 1.1589 1.1589 12.284 1.1589 12.284l3.3608 40.33s-2.2019 34.188-2.2019 34.188c0.23182 1.0431 0.81125 2.7814 2.4337 2.8973 1.1589 0.23181 2.2019-0.46353 3.0132-1.8542l1.043-4.172c1.6225-7.8806 5.6786-28.857 19.006-42.068l8.3442-8.2282c9.503-9.3872 15.993-16.109 20.165-21.556-1.5066 10.894-6.8375 24.221-11.126 31.522l-12.516 18.89c-7.9965 11.589-17.036 24.801-20.049 30.943-3.0132 6.1423-6.0264 13.559-7.8806 18.774-2.2019-7.8806-6.374-23.294-11.357-36.39"/><path d="m64.047 172.52s2.5496-6.374 0.2318-32.102c-2.4337-25.728-3.4767-60.842 36.39-84.484-9.9666 16.688-11.589 19.586-14.602 33.261-3.0132 13.559-6.374 35.347-11.821 47.631-2.2019 6.0264-3.5926 10.778-2.5496 11.357 0.92715 0.57944 1.3907-0.46353 2.0861-2.5495 0.92706-2.0861 9.0394-20.513 25.496-32.218 16.456-11.705 31.29-23.41 36.853-34.999-2.4336 21.44-10.546 29.088-18.658 39.866-8.8077 11.705-40.446 36.158-45.777 44.154-5.4468 7.8806-7.6488 10.082-7.6488 10.082"/><path d="m62.656 140.53c2.3178 24.685-0.11591 31.29-0.11591 31.29l2.5497 1.8542 7.8806-10.43c2.4337-3.5926 11.01-11.126 19.933-19.122 10.43-9.1554 21.208-18.658 25.844-24.916l3.2449-4.1721c6.9535-8.9235 13.559-17.384 15.761-36.39l-3.0132-0.9271c-5.5627 11.473-20.744 23.294-36.39 34.419-11.937 8.46-19.47 20.281-23.294 27.35 0.23172-0.81116 0.34763-1.043 0.69534-2.086 4.172-9.2712 6.9534-23.873 9.6189-36.621l2.2019-11.241c3.0132-13.212 4.4039-15.877 14.486-32.797l-2.2019-2.2019c-42.88 25.496-39.171 64.899-37.201 85.991zm4.172 18.658c0-4.7516-0.23172-10.894-1.043-18.89-0.46362-4.9833-0.92715-11.01-0.92715-17.615 0-18.774 5.5627-42.068 30.132-60.147-6.1423 10.43-7.9965 14.95-10.43 26.307l-2.4336 11.241c-2.4338 12.632-5.331 27.002-9.3872 36.158-2.2019 5.9105-3.0132 9.1553-3.0132 11.01 0 1.2749 0.46363 1.8543 1.159 2.3178l0.5794 0.3477 1.3907-0.1159c1.2748-0.46362 1.8542-1.8543 2.4336-3.7085 0.81125-1.8542 9.0395-20.049 24.916-31.406 13.096-9.2712 25.496-19.122 32.913-28.857-2.6655 12.632-7.7647 19.701-13.675 27.35l-3.2449 4.0562c-4.5198 6.0262-15.529 15.877-25.38 24.569-9.503 8.46-17.847 15.761-20.513 19.701 0 0-1.8542 2.5496-3.7084 4.9833 0.11582-1.9701 0.23172-4.1721 0.23172-7.3011"/><path d="m93.831 104.26s5.2151-27.234 15.645-43.343 32.102-30.363 54.932-37.433c-7.9964 6.7217-12.864 12.748-15.645 17.615-2.7814 4.7516-20.049 31.754-27.93 40.33-8.1124 8.5759-21.092 16.341-27.002 22.83"/><path d="m108.09 59.987c-10.43 16.225-15.529 42.883-15.761 43.923l2.7814 1.3907 11.589-9.8507 15.182-12.98c8.2282-8.8077 25.612-35.926 28.277-40.562 3.2449-5.6786 8.3441-11.473 15.298-17.268l-1.5066-2.6656c-24.105 7.417-45.429 22.019-55.859 38.012zm2.7814 1.7383c8.8077-13.675 26.423-26.075 46.588-33.84-4.0561 4.1721-7.6487 8.3441-10.082 12.4-2.6655 4.5198-19.817 31.406-27.814 40.098 0 0-19.585 16.572-23.178 19.585 1.9701-8.3441 6.8375-26.423 14.486-38.244"/><path d="m258.51 550.9s65.942-80.544 146.02-60.495c37.085 14.023 58.756 23.989 70.693 25.844 11.821 1.9702 39.287 3.4768 55.859-8.4599-30.132 28.973-58.756 31.522-79.849 28.046-21.208-3.4768-42.648-20.049-48.21-24.337-5.5627-4.288-26.423-27.466-64.783-11.125-28.045 13.907-62.813 53.541-68.607 60.726l-11.126-10.198"/><path d="m257.24 549.86-0.9271 1.1589 13.559 12.4 1.043-1.3907c7.0693-8.6918 41.141-46.82 68.028-60.263 33.724-14.37 53.541 2.7814 60.958 9.2713l2.086 1.7383c18.427 14.023 34.767 22.367 49.022 24.685 29.204 4.6357 56.555-4.8674 81.007-28.277 0.11591-0.11591 0.11591-0.11591 0.11591-0.23181l-1.9701-2.4337c-18.774 13.443-51.108 8.8076-54.7 8.2281-7.7646-1.2748-19.817-6.0262-38.128-13.327l-32.218-12.516c-80.312-20.165-147.18 60.147-147.88 60.958zm146.95-57.945 31.986 12.516c18.542 7.3012 30.711 12.168 38.823 13.443 3.0132 0.46356 25.844 3.5926 44.85-2.8973-21.092 16.456-43.922 23.178-68.375 19.238-13.559-2.2019-29.552-10.198-47.283-23.873-0.23184-0.11591-2.2019-1.7384-2.2019-1.7384-7.8806-6.8375-28.741-24.916-64.435-9.6188-26.539 13.096-59.336 49.253-68.028 59.799-1.7384-1.5066-7.1852-6.6058-8.8077-7.9965 5.9104-6.9534 68.607-77.531 143.47-58.872"/><path d="m419.72 486.46s44.038 8.1124 60.495 12.516c16.572 4.4038 72.316 3.9402 103.61-46.24-25.264 21.787-56.902 22.599-69.534 22.483-12.632-0.11591-45.429 5.5627-61.306 9.0394 0.23181-3.129 16.34-7.0693 21.208-9.7347 4.7515-2.6655 18.311-7.0693 33.956-43.691 5.4468-11.126 6.1422-17.384 9.9666-20.744-6.9534 1.2748-20.165 16.225-24.221 20.628-4.1721 4.6356-28.741 34.304-42.88 42.068-14.139 7.9964-21.208 11.589-31.29 13.675"/><path d="m493.88 428.4-1.1589 1.2748-3.1291 3.4768c-7.5328 8.6917-27.466 31.754-39.287 38.244-14.37 8.1123-21.208 11.473-30.943 13.443v3.129c0.34772 0.11591 44.154 8.2282 60.495 12.516 20.397 5.5628 75.213 1.3907 105.23-46.936l-2.3177-1.9702c-17.268 14.834-40.33 22.251-68.375 22.019-11.01-0.11578-34.999 3.8245-51.687 7.0693 1.1589-0.46356 2.4337-0.92706 3.4767-1.2748l8.6918-3.4767 1.3907-0.6954c5.5627-2.7814 18.658-9.5029 33.376-43.691l4.7515-11.241c1.6225-4.288 2.7814-7.1852 4.6357-8.9236l-1.2748-2.7814c-6.0263 1.0431-15.414 10.546-23.873 19.817zm-42.068 45.893c12.284-6.9534 31.87-29.436 40.214-39.055l3.0131-3.3608 1.2748-1.3907c3.5926-3.9402 11.937-12.864 18.079-16.804-0.92712 1.7384-2.086 3.0132-3.0132 5.4468l-4.6356 11.01c-14.254 33.261-26.655 39.519-31.986 42.3l-1.3907 0.6954-8.2282 3.2449c-7.5329 2.6655-10.894 4.4039-12.4 6.2582l-0.11591 0.11578c-0.34763 0.46362-1.1589 0.92718-1.2748 1.3908l-0.1159 2.2018 2.086-0.5795c14.834-3.2449 47.979-9.0394 60.958-8.9235 24.916 0.11591 45.777-5.7946 62.465-17.268-29.9 39.287-77.531 42.88-96.073 37.896-12.4-3.3609-40.562-8.8077-53.773-11.241 7.0693-2.3178 13.791-5.7946 24.916-11.937zm57.829-42.764"/><path d="m500.26 466.76s21.671-6.7216 38.012-9.2712c16.456-2.6655 73.475-18.658 94.103-86.57-21.903 26.887-26.886 28.625-39.982 35.694-13.096 6.8375-52.73 30.595-66.405 43.459l-4.0563 2.4336s-1.1589-1.6225 4.6357-6.9534c5.9105-5.4468 25.728-24.453 27.93-65.826 2.0861-18.195 5.7946-34.767 7.0693-37.201-9.0394 5.5627-19.354 27.002-21.44 32.913-2.086 6.0264-15.993 47.979-17.731 52.962-1.8543 4.9833-13.212 31.638-22.135 38.36"/><path d="m538.62 374.98-17.731 52.962c-2.3179 6.1422-13.443 31.406-21.672 37.548l1.3907 2.7813c0.23169 0 21.903-6.7217 38.012-9.2712 7.3012-1.1589 72.779-13.675 95.378-87.613l-2.7814-1.5066c-20.628 25.264-25.959 28.046-37.548 34.188l-2.0861 1.043c-12.98 6.9534-48.326 28.277-63.74 41.373 21.44-20.049 27.234-47.283 28.277-66.637 2.086-18.658 5.6786-34.651 6.8376-36.506l-2.3178-2.2018c-9.7348 6.0262-20.049 28.393-22.019 33.84zm-14.718 54.005 17.731-52.962c1.7383-5.0992 9.2712-20.281 16.688-28.161-1.7383 7.0693-3.9402 19.006-5.4468 31.638-1.5066 27.466-10.662 49.254-27.35 64.899-4.0562 3.7084-5.215 6.1422-5.215 7.6487 0 0.57941 0.11591 1.1589 0.4635 1.5066l0.8113 1.043 5.2151-3.129c13.559-12.632 52.614-36.158 66.289-43.459l1.9702-1.043c10.314-5.447 16.688-9.3872 32.102-27.466-24.453 63.508-82.282 75.213-89.12 76.372-11.589 1.8543-25.728 5.6786-33.145 7.8806 8.6917-10.082 17.499-30.595 19.006-34.767"/><path d="m560.17 410.32s27.118-16.92 42.068-29.204c14.834-12.168 56.786-44.27 51.108-99.318-6.2581 17.963-16.572 34.42-28.046 44.618-11.473 10.198-31.87 42.068-36.737 49.485-4.9833 7.417-8.3441 9.503-8.3441 9.503s-1.7383-3.5926 3.8244-10.082c3.9402-6.6056 11.241-22.714 6.2581-56.902-5.7945-31.986-7.7646-39.519-7.0693-44.386-4.0562 11.241-9.2712 35.462-10.546 73.475-0.69537 21.556-2.8973 38.128-5.5627 45.429-2.6655 7.417-6.9535 17.384-6.9535 17.384"/><path d="m571.07 347.51c-0.69537 20.744-2.7814 37.548-5.4468 44.85l-6.8376 17.384 2.3178 1.9701c0.23181-0.23181 27.35-17.152 42.184-29.32l1.7383-1.3907c16.572-13.675 55.512-45.429 49.949-99.434l-3.1291-0.3477c-6.1422 17.847-16.225 33.956-27.582 44.038-10.546 9.3872-28.625 36.853-35.462 47.283l-1.6225 2.5497c-2.086 3.0131-3.7084 4.8674-4.9833 6.2581 0.46362-1.2748 1.2749-2.8973 3.0132-4.9833 5.5627-9.2712 8.3441-21.672 8.3441-36.737 0-6.7217-0.46356-13.907-1.6224-21.44 0-0.11591-3.8244-20.628-3.8244-20.628-2.3178-12.284-3.3608-17.847-3.3608-21.324 0-0.69537 0-1.3908 0.11591-1.9702l-3.0132-0.8112c-2.202 5.7945-9.1553 28.277-10.778 74.054zm-2.4337 46.008c2.7814-7.6489 4.9832-24.8 5.6785-45.893 1.159-33.261 5.0992-53.657 7.9965-64.667 0.46362 3.5926 1.2748 8.2282 2.6655 15.182l3.8244 20.513c1.0431 7.5329 1.6225 14.602 1.6225 21.092 0 14.37-2.6655 26.191-7.7646 34.767-3.4767 4.0562-4.288 7.3011-4.288 9.2712 0 1.2748 0.34766 2.086 0.46356 2.2019l0.6953 1.7384 1.5066-0.9271c0.23181-0.11591 3.8245-2.4338 8.8077-9.9666l1.7383-2.5496c6.7217-10.314 24.569-37.548 34.883-46.588 10.314-9.2712 19.238-23.758 25.612-39.635 0.11578 1.2748 0.23175 2.6655 0.23175 3.9403 0 46.124-34.188 74.17-49.369 86.57l-1.7383 1.3907c-11.242 9.2712-29.552 21.208-37.664 26.423 1.9701-4.9833 5.0992-12.864 5.0992-12.864"/><path d="m604.21 332.21s9.1553-15.066 17.5-24.916c8.3441-9.7347 45.313-53.657 23.989-125.39 0.3476 16.804-1.6225 26.423-3.3609 32.449-1.7383 5.9103-19.47 46.704-21.092 57.598-1.7383 11.01-4.4039 31.522-8.8076 33.956-1.5066-0.92706 0.3476-4.6356 0.81116-7.8806 0.57953-3.3608 5.331-31.638-11.821-61.538-15.529-26.307-18.427-28.973-20.744-38.128-0.3476 17.5 6.2582 52.035 10.894 66.405 4.8674 14.486 17.615 47.863 12.632 67.448"/><path d="m644.08 181.9v4.288c0 11.01-1.0431 20.049-3.2449 27.698l-5.7946 14.95c-6.0264 14.95-14.255 35.462-15.414 42.88l-0.4636 3.129c-0.81122 5.6786-2.3178 15.298-4.172 22.019 0.34772-2.3178 0.92712-6.2581 0.92712-12.053 0-12.053-2.3178-30.247-13.212-49.138l-10.778-17.963c-6.2582-10.314-8.1124-13.559-9.7349-19.701l-3.2449 0.3476c-0.23181 18.079 6.6058 53.078 11.125 66.985l1.8543 5.3309c5.215 15.413 15.066 44.154 10.778 61.19l2.8973 1.1589c0.11591-0.11591 9.1553-15.066 17.384-24.685 29.552-34.767 38.128-79.848 24.221-126.9l-3.1291 0.4635zm-30.827 125.39c4.4039-2.4336 6.7217-15.993 9.0395-31.986l0.4636-3.0132c1.1589-7.1852 9.6188-28.277 15.182-42.3l5.9103-15.182c1.1589-4.0562 2.3178-11.126 2.8973-20.628 2.3178 10.314 3.7085 20.513 3.7085 30.479 0 30.132-10.082 58.293-29.9 81.587-5.215 6.1422-10.546 14.023-14.023 19.354 0.11591-1.2747 0.46356-2.3177 0.46356-3.5925 0-17.152-7.3011-38.592-12.053-52.382l-1.8542-5.331c-3.7085-11.589-8.8077-37.317-10.198-55.975 1.5066 2.8972 3.3608 6.1422 6.374 11.01l10.778 17.963c10.43 18.311 12.632 35.81 12.632 47.399 0 6.4899-0.69531 11.241-0.92706 12.98-0.11591 0-0.81122 3.0132-0.81122 3.0132-0.23181 1.3906-0.69537 2.6654-0.69537 3.8243 0 1.159 0.34766 2.202 1.3907 2.7814l0.8113 0.4636 0.8112-0.4636"/><path d="m618 244.02s5.215-23.294 11.705-41.952c6.4899-18.658 18.774-61.886-16.688-105.92 7.6487 17.615 5.0992 29.32 5.215 31.29 0 1.9702-3.4767 41.721-3.2449 51.571 0.11591 12.632 3.0132 34.304 3.0132 34.304s-0.81128 2.6655-2.5497 0.11591c-1.1589-1.7384-4.0562-29.784-21.324-46.124-16.109-15.182-29.088-26.655-32.681-33.145 0.23175 11.589 7.301 28.161 12.864 37.317 5.5628 9.0394 28.393 38.939 33.724 49.022 5.215 10.082 9.9666 22.135 9.9666 23.526"/><path d="m611.51 96.84c4.6356 10.314 5.4468 18.542 5.4468 23.873 0 2.3178-0.11591 4.0561-0.23169 5.2151l-0.9272 11.589-2.4337 41.489s1.8543 21.092 2.6655 30.247c-1.9702-8.9236-6.6058-29.668-20.86-42.995 0-0.11594-8.8077-8.4601-8.8077-8.4601-11.589-10.894-20.744-19.47-23.526-24.453l-3.0132 0.8112c0.23181 11.357 6.9534 28.046 13.096 38.128l13.212 19.006c8.2282 11.241 17.384 24.105 20.397 29.9 5.4468 10.314 9.7348 21.672 9.8507 22.946l3.2449 0.2317c0-0.23172 5.2151-23.41 11.589-41.836 14.023-39.866 8.3441-76.024-17.036-107.43l-2.6655 1.7384zm5.6786 119.25c1.6225-0.23181 2.202-1.9701 2.3178-2.3178 0-1.2748-3.0131-34.767-3.0131-34.767l2.5496-41.141 0.6953-10.43c0.11591-1.7383 0.34772-3.9402 0.34772-6.6057 0-3.8244-0.81122-9.1553-2.3178-14.95 11.589 17.152 17.731 35.694 17.731 55.627 0 12.864-2.4337 26.191-7.3011 39.982-4.6356 13.327-8.5759 28.857-10.43 36.737-1.9702-5.0992-5.0992-12.4-8.3441-18.542-3.245-6.0263-12.516-18.89-20.628-30.247l-13.096-18.89c-5.0992-8.2282-10.314-20.86-12.053-31.174 4.2878 5.215 10.894 11.705 20.513 20.86l8.9235 8.2282c13.559 12.864 17.963 33.029 19.817 41.605l1.1589 4.172c0.92718 1.3907 1.9702 1.9701 3.1291 1.8542"/><path d="m606.3 165.56s-2.6655-6.2582-0.92706-31.986c1.7383-25.844 1.9702-60.958-38.36-83.673 10.314 16.572 11.937 19.47 15.298 33.029 3.3608 13.443 7.3012 35.115 12.98 47.283 2.3178 6.0263 3.9402 10.662 2.8973 11.242-1.0431 0.69534-1.5066-0.46362-2.3179-2.4338-0.81122-2.086-9.503-20.281-26.075-31.522-16.804-11.357-31.87-22.714-37.664-34.072 2.7814 21.324 11.126 28.741 19.47 39.287 9.0394 11.473 41.257 35.115 46.82 42.88 5.6786 7.8805 7.8806 9.9666 7.8806 9.9666"/><path d="m565.62 50.832c10.43 16.688 11.937 19.354 15.182 32.449l2.4338 10.662c2.8973 12.864 6.1422 27.466 10.546 36.969 0.23181 0.57953 0.69531 1.7384 1.043 2.6656-3.7085-6.7217-11.473-18.89-24.221-27.466-15.877-10.662-31.406-22.251-37.085-33.376l-3.0132 0.9271c2.5496 18.89 9.2712 27.118 16.572 35.926l3.2449 4.0561c4.8674 6.2581 15.993 15.529 26.539 24.569 9.1553 7.6487 17.731 14.834 20.281 18.427l8.1124 10.082 2.5496-1.8542c-0.11591 0-2.5496-6.4899-0.81122-31.175 1.3906-21.324 4.0562-60.843-39.171-85.18l-2.2019 2.3178zm33.376 91.901c0.69531-0.34772 1.043-1.0431 1.043-2.086 0-1.8543-1.043-5.0992-3.2449-11.01-4.2879-9.1553-7.6487-24.337-10.43-36.39l-2.5496-10.778c-2.7814-11.357-4.7515-15.761-11.01-26.191 25.496 17.615 31.522 40.562 31.522 62.928 0 4.8674-0.23181 9.6189-0.46356 14.254-0.46362 6.4899-0.57941 11.705-0.57941 15.877 0 4.6357 0.11578 7.7646 0.4635 10.314-1.9701-2.4338-3.9403-4.8674-3.9403-4.8674-2.7814-3.8244-11.126-10.894-20.86-19.006-10.082-8.46-21.44-18.079-26.191-23.989l-3.2449-4.172c-6.0264-7.417-11.242-14.254-14.254-26.771 7.0693 8.9236 18.542 17.847 33.608 27.93 17.152 11.705 25.496 30.711 25.612 30.827 0.69537 1.8543 1.1589 3.1291 2.4338 3.4767l0.6953 0.3477 1.3907-0.6953"/><path d="m574.89 98.115s-5.7946-27.002-16.688-42.88c-10.662-15.877-32.681-29.552-55.627-36.042 8.1123 6.4899 13.096 12.4 15.993 17.152 2.8973 4.7515 20.86 31.29 28.973 39.635 8.2283 8.46 21.44 15.761 27.35 22.135"/><path d="m501.53 20.468c8.8077 6.8376 13.327 12.864 15.645 16.688 2.7814 4.6356 20.86 31.406 29.32 39.982l15.529 12.632 11.821 9.387 2.6655-1.3907c-0.23175-1.1589-6.0263-27.466-16.92-43.459-10.778-15.761-32.449-29.784-56.554-36.621l-1.5066 2.7814zm62.349 66.753-15.182-12.4c-8.1124-8.2283-26.075-34.999-28.741-39.287-2.4337-3.9402-6.1422-7.9965-10.43-12.168 20.397 7.3011 38.244 19.238 47.399 32.797 7.8806 11.589 13.212 29.436 15.298 37.78-3.4768-2.8973-8.3441-6.7217-8.3441-6.7217"/></g><g transform="matrix(.16745 0 0 .16745 12.134 1515.1)"><path d="m420.76 548.81s-67.912-78.806-147.53-56.786c-36.621 14.95-58.177 25.496-69.998 27.814-11.705 2.086-39.287 4.2879-56.091-7.0693 30.827 28.161 59.452 29.9 80.544 25.959 21.092-4.0562 42.184-21.208 47.631-25.612 5.5627-4.2879 25.612-28.161 64.551-12.748 28.161 13.211 63.972 52.035 69.998 58.988l10.894-10.546"/><path d="m272.77 490.52c-0.11578 0-31.522 13.212-31.522 13.212-18.427 7.8806-30.595 12.98-38.36 14.486-3.5926 0.69531-35.81 6.1422-54.816-6.8375l-1.9702 2.4337c0 0.11584 0.11591 0.23175 0.11591 0.23175 25.148 22.83 52.614 31.638 81.819 26.191 14.023-2.6655 30.247-11.241 48.094-25.728 0.23172-0.11591 2.3178-1.9702 2.3178-1.9702 7.3011-6.6057 26.655-24.221 60.842-10.662 27.234 12.748 62.117 49.949 69.303 58.525l1.1589 1.2748 13.212-12.748-1.043-1.1589c-0.69534-0.81128-69.418-79.269-149.15-57.25zm-69.187 30.827c7.9965-1.5066 20.281-6.7217 38.823-14.718l31.406-13.096c74.17-20.513 138.6 48.442 144.75 55.164-1.6224 1.6225-6.9534 6.7217-8.6917 8.3442-8.9236-10.198-42.416-45.545-69.418-58.061-36.042-14.37-56.439 4.172-64.203 11.241l-1.8543 1.7383c-17.615 14.139-33.376 22.599-47.052 25.148-24.916 4.7515-48.558-1.9702-70.577-18.774 19.586 6.8376 43.575 3.5926 46.82 3.0132"/><path d="m258.05 488.43s-43.807 9.3872-60.263 14.139c-16.456 4.8675-72.084 5.7946-104.53-43.575 25.728 21.092 57.25 21.092 69.882 20.628 12.748-0.34772 45.545 4.5198 61.654 7.5328-0.34763-3.0131-16.572-6.6057-21.44-9.1553-4.8674-2.5496-18.542-6.6057-35.115-42.764-5.5627-11.01-6.4899-17.152-10.314-20.513 6.9534 1.043 20.513 15.645 24.685 20.049 4.172 4.4039 29.436 33.492 43.807 40.909 14.37 7.5329 21.44 11.126 31.638 12.748"/><path d="m156.88 416c2.086 1.7383 3.245 4.5196 4.9833 8.8076l4.9833 11.126c15.413 33.724 28.277 39.866 34.419 42.879l1.2749 0.5795 8.9235 3.245c0.92716 0.3476 2.2019 0.81116 3.3608 1.1589-16.572-2.6655-40.793-6.0262-51.687-5.6786-28.161 0.81128-51.339-6.0262-68.839-20.397l-2.4337 2.202c31.29 47.399 86.107 50.18 106.39 44.154 16.109-4.7515 59.684-13.907 60.147-14.023l-0.1159-3.129c-10.082-1.7384-17.152-5.331-31.174-12.632-12.168-6.374-32.797-29.088-40.562-37.664l-2.7813-3.0131-1.043-1.0431c-8.6918-9.1553-18.427-18.542-24.569-19.354l-1.2748 2.7814zm55.512 63.624-8.3441-3.0132-1.3908-0.6953c-5.4468-2.5496-17.963-8.6918-32.913-41.373 0-0.11591-4.9833-11.01-4.9833-11.01-0.92718-2.4336-2.086-3.5926-3.1291-5.3309 6.374 3.7084 15.066 12.632 18.774 16.572l1.043 1.0431 2.6656 3.0132c7.8806 8.5758 28.857 31.754 41.605 38.36 10.894 5.6786 17.731 9.1553 25.032 11.241-13.096 2.8973-41.025 8.9236-53.426 12.632-18.427 5.4468-66.174 3.0131-96.884-35.347 16.92 10.894 37.896 16.34 62.813 15.529 12.168-0.34772 43.806 4.1721 61.19 7.4169l2.086 0.4635-0.2318-2.2018c0-0.46362-0.92716-0.81128-1.2748-1.2749l-0.11591-0.11578c-1.5066-1.8543-4.9833-3.4768-12.516-5.9105"/><path d="m177.16 470.82s-22.019-6.0262-38.36-8.3441c-16.456-2.202-73.822-16.688-96.189-84.021 22.599 26.307 27.698 27.93 40.909 34.535 13.327 6.6058 53.425 29.436 67.332 41.952l4.0562 2.3178s1.3907-1.7383-4.7515-6.9534c-5.9104-5.3309-26.191-23.758-29.32-65.014-2.5495-18.195-6.6058-34.767-7.8806-36.969 9.1553 5.2152 19.933 26.307 22.135 32.218 2.2019 6.0263 17.036 47.631 19.006 52.614 1.8542 4.8674 13.907 31.29 23.062 37.664"/><path d="m111.56 349.02c1.0431 1.8543 5.0992 17.963 7.6488 36.506 1.5066 19.354 7.8806 46.588 29.9 65.942 0.11591 0 0.11591 0 0.11591 0.11591-15.298-12.632-51.687-33.376-65.014-39.982l-2.086-1.1589c-11.473-5.6786-17.268-8.46-38.244-33.029l-2.7814 1.5066c24.337 73.359 90.047 84.252 97.464 85.18 16.109 2.086 37.896 8.3441 38.128 8.3441l1.3907-2.7814c-8.46-6.0263-20.281-31.174-22.599-37.085l-18.89-52.498c-2.086-5.4469-12.98-27.466-22.83-33.145l-2.2019 2.0861zm44.618 109.17c0.34772-0.34766 0.46353-0.81128 0.46353-1.3907 0-1.5066-1.043-3.9402-5.4468-7.6487-21.092-18.774-27.35-45.081-28.741-63.972-1.7384-12.516-4.288-24.685-6.2581-31.754 7.6487 7.6487 15.529 22.714 17.384 27.698l19.006 52.614c1.2748 3.3608 10.778 24.221 19.701 34.188-7.417-1.8542-21.672-5.4468-33.376-6.9534-6.7217-0.92706-64.783-11.241-90.858-74.054 15.761 17.499 22.251 21.324 32.565 26.423l2.2019 1.043c13.791 6.9534 53.31 29.436 66.985 41.721 0.23181 0.23181 4.4039 2.5496 4.4039 2.5496l1.1588 0.6953 0.8112-1.1589"/><path d="m115.85 415.89s-27.582-16.109-42.764-27.93c-15.182-11.937-57.829-42.995-53.426-98.159 6.6058 17.847 17.384 34.072 29.088 43.922 11.705 9.9666 32.913 41.257 38.012 48.558 4.9833 7.3012 8.46 9.2712 8.46 9.2712s1.6225-3.5926-4.0561-9.8507c-4.172-6.7216-11.705-22.483-7.6488-56.902 5.0992-31.986 6.9534-39.634 6.0263-44.618 4.4038 11.241 10.198 35.462 12.4 73.359 1.2748 21.44 3.7084 38.012 6.4899 45.313 2.8972 7.1852 7.4169 17.036 7.4169 17.036"/><path d="m88.036 280.53c0.11591 0.69537 0.11591 1.5066 0.11591 2.4338 0 3.5926-0.92705 9.2712-2.8973 21.324l-3.2449 20.281c-0.81123 6.8375-1.2748 13.096-1.2748 19.006 0 16.225 3.0131 29.32 9.0394 38.939 1.9701 2.086 2.8973 3.7085 3.4767 5.0992-1.3907-1.3907-3.1291-3.245-5.2151-6.2581 0 0-1.7383-2.4337-1.7383-2.4337-6.9534-10.198-25.728-37.201-36.506-46.356-11.473-9.7349-22.135-25.844-28.741-43.343l-3.0132 0.4636c-4.288 54.005 35.347 84.832 52.267 98.159l1.7384 1.2748c15.066 11.821 42.648 28.046 42.879 28.161l2.3178-1.9702-7.3011-17.036c-2.7814-7.417-5.215-24.105-6.4898-44.85-2.6655-45.893-10.198-68.144-12.4-73.822l-3.0132 0.9271zm0.3477 24.221c1.2748-7.3011 1.9701-11.937 2.4337-15.645 3.1291 10.894 7.5329 31.29 9.503 64.551 1.2748 20.976 3.7085 38.012 6.7217 45.777 0 0 3.2449 7.533 5.3309 12.632-8.2282-4.9833-26.887-16.456-38.36-25.38l-1.7383-1.3907c-15.645-12.284-51.34-40.098-51.34-87.613v-1.7384c6.8375 15.761 16.109 30.016 26.771 39.055 10.546 8.8077 29.088 35.694 36.042 45.777l1.6225 2.4336c5.2151 7.417 8.9236 9.619 9.0394 9.7348l1.6225 0.9271 0.5794-1.7384c0.34772-0.4635 1.8543-4.7515-4.288-11.589-7.6487-12.284-10.082-31.059-7.1852-55.512l3.245-20.281"/><path d="m69.958 339.05s-9.503-14.834-18.079-24.569c-8.5758-9.503-46.472-52.382-26.887-124.7 0 16.804 2.3178 26.307 4.0562 32.334 1.9701 5.9104 20.744 46.24 22.599 57.134 1.8542 10.894 4.9833 31.406 9.3872 33.724 1.6224-1.043-0.23181-4.6356-0.81125-7.9964-0.69534-3.2449-6.1423-31.29 10.314-61.77 14.95-26.771 17.731-29.32 19.933-38.592 0.69534 17.5-4.9833 52.151-9.503 66.753-4.4038 14.486-16.341 48.21-11.01 67.68"/><path d="m50.72 315.64c8.3441 9.3871 17.847 24.105 17.847 24.221l2.8973-1.2748c-4.6357-16.92 4.5197-45.893 9.3872-61.538l1.6224-5.2151c4.288-13.907 10.314-49.022 9.619-67.332l-3.1291-0.3477c-1.6225 6.374-3.3608 9.6189-9.503 20.165l-10.314 18.195c-9.7348 17.963-11.937 35.231-11.937 47.283 0 7.0693 0.81126 11.937 1.2748 14.486-2.086-7.0693-3.9402-17.384-4.9833-22.946l-0.3476-2.3179c-1.2749-7.6487-10.082-28.161-16.572-43.111l-5.9104-14.254c-1.7383-5.5627-4.0562-15.066-4.0562-31.87l-3.129-0.4635c-12.864 47.399-3.1291 92.249 27.234 126.32zm2.3178-2.2019c-21.092-23.526-31.87-52.498-31.87-83.905 0-8.8076 1.1589-17.731 2.7814-26.771 0.81124 9.3872 2.3178 15.645 3.5926 19.817l6.1422 14.602c6.0264 13.907 15.182 35.115 16.341 42.3l0.34772 2.4336c2.8972 16.341 5.5627 30.132 9.9665 32.449l0.8113 0.3477 0.8112-0.4636c0.92715-0.57947 1.2748-1.6224 1.2748-2.6655 0-1.2748-0.34762-2.6655-0.81115-4.0562l-0.6953-2.7814c-0.46363-2.086-1.3908-7.417-1.3908-15.066 0-11.589 2.2019-28.277 11.705-45.661l10.198-18.079c2.8972-5.0992 4.8674-8.46 6.2581-11.473-0.92717 18.774-5.5627 44.85-9.0395 56.439l-1.6224 5.215c-4.2879 13.559-10.894 34.304-10.894 51.34 0 1.8542 0.46362 3.4768 0.69534 5.215-3.5926-5.215-9.1553-13.096-14.602-19.238"/><path d="m54.081 251.09s-5.6786-23.062-12.632-41.489c-6.9534-18.542-20.281-61.538 14.254-106.39-7.3011 17.847-4.4039 29.436-4.4039 31.406 0 1.9701 4.288 41.605 4.4039 51.455 0.1159 12.632-2.2019 34.419-2.2019 34.419s0.81123 2.6654 2.5496 0c1.043-1.6225 3.3608-29.784 20.281-46.588 15.645-15.645 28.393-27.466 31.87-33.956 0 11.473-6.6058 28.393-12.053 37.548-5.331 9.2713-27.466 39.635-32.565 49.833-4.9833 10.314-9.5031 22.483-9.5031 23.758"/><path d="m39.942 210.18c6.8376 18.079 12.516 41.141 12.632 41.373l3.1291-0.3476c0.1159-1.2749 4.288-12.748 9.3872-23.062 2.8973-6.0263 11.821-19.122 19.817-30.711l12.632-19.122c5.9104-10.082 12.168-27.002 12.168-38.36l-2.8973-0.8112c-2.7814 5.215-11.821 14.139-23.41 25.496l-8.2282 8.1123c-14.023 13.907-18.311 35.694-19.933 43.807 0 0-0.34772 1.8543-0.46363 2.6656 0.57953-2.8973 2.4337-33.145 2.4337-33.145l-3.245-40.678-1.1589-12.284c-0.23181-1.3907-0.46353-3.5926-0.46353-6.4898 0-5.331 0.92706-13.096 4.7515-22.83l-2.6655-1.6225c-24.453 31.87-29.32 68.144-14.486 108.01zm3.0132-1.159c-5.4468-14.602-8.2282-28.741-8.2282-42.3 0-19.006 5.6786-36.853 16.341-53.657-1.2749 5.3309-1.8543 10.082-1.8543 13.559 0 3.0131 0.23181 5.3309 0.34772 6.8375 0.23172 1.1589 1.1589 12.284 1.1589 12.284l3.3608 40.33s-2.2019 34.188-2.2019 34.188c0.23182 1.0431 0.81125 2.7814 2.4337 2.8973 1.1589 0.23181 2.2019-0.46353 3.0132-1.8542l1.043-4.172c1.6225-7.8806 5.6786-28.857 19.006-42.068l8.3442-8.2282c9.503-9.3872 15.993-16.109 20.165-21.556-1.5066 10.894-6.8375 24.221-11.126 31.522l-12.516 18.89c-7.9965 11.589-17.036 24.801-20.049 30.943-3.0132 6.1423-6.0264 13.559-7.8806 18.774-2.2019-7.8806-6.374-23.294-11.357-36.39"/><path d="m64.047 172.52s2.5496-6.374 0.2318-32.102c-2.4337-25.728-3.4767-60.842 36.39-84.484-9.9666 16.688-11.589 19.586-14.602 33.261-3.0132 13.559-6.374 35.347-11.821 47.631-2.2019 6.0264-3.5926 10.778-2.5496 11.357 0.92715 0.57944 1.3907-0.46353 2.0861-2.5495 0.92706-2.0861 9.0394-20.513 25.496-32.218 16.456-11.705 31.29-23.41 36.853-34.999-2.4336 21.44-10.546 29.088-18.658 39.866-8.8077 11.705-40.446 36.158-45.777 44.154-5.4468 7.8806-7.6488 10.082-7.6488 10.082"/><path d="m62.656 140.53c2.3178 24.685-0.11591 31.29-0.11591 31.29l2.5497 1.8542 7.8806-10.43c2.4337-3.5926 11.01-11.126 19.933-19.122 10.43-9.1554 21.208-18.658 25.844-24.916l3.2449-4.1721c6.9535-8.9235 13.559-17.384 15.761-36.39l-3.0132-0.9271c-5.5627 11.473-20.744 23.294-36.39 34.419-11.937 8.46-19.47 20.281-23.294 27.35 0.23172-0.81116 0.34763-1.043 0.69534-2.086 4.172-9.2712 6.9534-23.873 9.6189-36.621l2.2019-11.241c3.0132-13.212 4.4039-15.877 14.486-32.797l-2.2019-2.2019c-42.88 25.496-39.171 64.899-37.201 85.991zm4.172 18.658c0-4.7516-0.23172-10.894-1.043-18.89-0.46362-4.9833-0.92715-11.01-0.92715-17.615 0-18.774 5.5627-42.068 30.132-60.147-6.1423 10.43-7.9965 14.95-10.43 26.307l-2.4336 11.241c-2.4338 12.632-5.331 27.002-9.3872 36.158-2.2019 5.9105-3.0132 9.1553-3.0132 11.01 0 1.2749 0.46363 1.8543 1.159 2.3178l0.5794 0.3477 1.3907-0.1159c1.2748-0.46362 1.8542-1.8543 2.4336-3.7085 0.81125-1.8542 9.0395-20.049 24.916-31.406 13.096-9.2712 25.496-19.122 32.913-28.857-2.6655 12.632-7.7647 19.701-13.675 27.35l-3.2449 4.0562c-4.5198 6.0262-15.529 15.877-25.38 24.569-9.503 8.46-17.847 15.761-20.513 19.701 0 0-1.8542 2.5496-3.7084 4.9833 0.11582-1.9701 0.23172-4.1721 0.23172-7.3011"/><path d="m93.831 104.26s5.2151-27.234 15.645-43.343 32.102-30.363 54.932-37.433c-7.9964 6.7217-12.864 12.748-15.645 17.615-2.7814 4.7516-20.049 31.754-27.93 40.33-8.1124 8.5759-21.092 16.341-27.002 22.83"/><path d="m108.09 59.987c-10.43 16.225-15.529 42.883-15.761 43.923l2.7814 1.3907 11.589-9.8507 15.182-12.98c8.2282-8.8077 25.612-35.926 28.277-40.562 3.2449-5.6786 8.3441-11.473 15.298-17.268l-1.5066-2.6656c-24.105 7.417-45.429 22.019-55.859 38.012zm2.7814 1.7383c8.8077-13.675 26.423-26.075 46.588-33.84-4.0561 4.1721-7.6487 8.3441-10.082 12.4-2.6655 4.5198-19.817 31.406-27.814 40.098 0 0-19.585 16.572-23.178 19.585 1.9701-8.3441 6.8375-26.423 14.486-38.244"/><path d="m258.51 550.9s65.942-80.544 146.02-60.495c37.085 14.023 58.756 23.989 70.693 25.844 11.821 1.9702 39.287 3.4768 55.859-8.4599-30.132 28.973-58.756 31.522-79.849 28.046-21.208-3.4768-42.648-20.049-48.21-24.337-5.5627-4.288-26.423-27.466-64.783-11.125-28.045 13.907-62.813 53.541-68.607 60.726l-11.126-10.198"/><path d="m257.24 549.86-0.9271 1.1589 13.559 12.4 1.043-1.3907c7.0693-8.6918 41.141-46.82 68.028-60.263 33.724-14.37 53.541 2.7814 60.958 9.2713l2.086 1.7383c18.427 14.023 34.767 22.367 49.022 24.685 29.204 4.6357 56.555-4.8674 81.007-28.277 0.11591-0.11591 0.11591-0.11591 0.11591-0.23181l-1.9701-2.4337c-18.774 13.443-51.108 8.8076-54.7 8.2281-7.7646-1.2748-19.817-6.0262-38.128-13.327l-32.218-12.516c-80.312-20.165-147.18 60.147-147.88 60.958zm146.95-57.945 31.986 12.516c18.542 7.3012 30.711 12.168 38.823 13.443 3.0132 0.46356 25.844 3.5926 44.85-2.8973-21.092 16.456-43.922 23.178-68.375 19.238-13.559-2.2019-29.552-10.198-47.283-23.873-0.23184-0.11591-2.2019-1.7384-2.2019-1.7384-7.8806-6.8375-28.741-24.916-64.435-9.6188-26.539 13.096-59.336 49.253-68.028 59.799-1.7384-1.5066-7.1852-6.6058-8.8077-7.9965 5.9104-6.9534 68.607-77.531 143.47-58.872"/><path d="m419.72 486.46s44.038 8.1124 60.495 12.516c16.572 4.4038 72.316 3.9402 103.61-46.24-25.264 21.787-56.902 22.599-69.534 22.483-12.632-0.11591-45.429 5.5627-61.306 9.0394 0.23181-3.129 16.34-7.0693 21.208-9.7347 4.7515-2.6655 18.311-7.0693 33.956-43.691 5.4468-11.126 6.1422-17.384 9.9666-20.744-6.9534 1.2748-20.165 16.225-24.221 20.628-4.1721 4.6356-28.741 34.304-42.88 42.068-14.139 7.9964-21.208 11.589-31.29 13.675"/><path d="m493.88 428.4-1.1589 1.2748-3.1291 3.4768c-7.5328 8.6917-27.466 31.754-39.287 38.244-14.37 8.1123-21.208 11.473-30.943 13.443v3.129c0.34772 0.11591 44.154 8.2282 60.495 12.516 20.397 5.5628 75.213 1.3907 105.23-46.936l-2.3177-1.9702c-17.268 14.834-40.33 22.251-68.375 22.019-11.01-0.11578-34.999 3.8245-51.687 7.0693 1.1589-0.46356 2.4337-0.92706 3.4767-1.2748l8.6918-3.4767 1.3907-0.6954c5.5627-2.7814 18.658-9.5029 33.376-43.691l4.7515-11.241c1.6225-4.288 2.7814-7.1852 4.6357-8.9236l-1.2748-2.7814c-6.0263 1.0431-15.414 10.546-23.873 19.817zm-42.068 45.893c12.284-6.9534 31.87-29.436 40.214-39.055l3.0131-3.3608 1.2748-1.3907c3.5926-3.9402 11.937-12.864 18.079-16.804-0.92712 1.7384-2.086 3.0132-3.0132 5.4468l-4.6356 11.01c-14.254 33.261-26.655 39.519-31.986 42.3l-1.3907 0.6954-8.2282 3.2449c-7.5329 2.6655-10.894 4.4039-12.4 6.2582l-0.11591 0.11578c-0.34763 0.46362-1.1589 0.92718-1.2748 1.3908l-0.1159 2.2018 2.086-0.5795c14.834-3.2449 47.979-9.0394 60.958-8.9235 24.916 0.11591 45.777-5.7946 62.465-17.268-29.9 39.287-77.531 42.88-96.073 37.896-12.4-3.3609-40.562-8.8077-53.773-11.241 7.0693-2.3178 13.791-5.7946 24.916-11.937zm57.829-42.764"/><path d="m500.26 466.76s21.671-6.7216 38.012-9.2712c16.456-2.6655 73.475-18.658 94.103-86.57-21.903 26.887-26.886 28.625-39.982 35.694-13.096 6.8375-52.73 30.595-66.405 43.459l-4.0563 2.4336s-1.1589-1.6225 4.6357-6.9534c5.9105-5.4468 25.728-24.453 27.93-65.826 2.0861-18.195 5.7946-34.767 7.0693-37.201-9.0394 5.5627-19.354 27.002-21.44 32.913-2.086 6.0264-15.993 47.979-17.731 52.962-1.8543 4.9833-13.212 31.638-22.135 38.36"/><path d="m538.62 374.98-17.731 52.962c-2.3179 6.1422-13.443 31.406-21.672 37.548l1.3907 2.7813c0.23169 0 21.903-6.7217 38.012-9.2712 7.3012-1.1589 72.779-13.675 95.378-87.613l-2.7814-1.5066c-20.628 25.264-25.959 28.046-37.548 34.188l-2.0861 1.043c-12.98 6.9534-48.326 28.277-63.74 41.373 21.44-20.049 27.234-47.283 28.277-66.637 2.086-18.658 5.6786-34.651 6.8376-36.506l-2.3178-2.2018c-9.7348 6.0262-20.049 28.393-22.019 33.84zm-14.718 54.005 17.731-52.962c1.7383-5.0992 9.2712-20.281 16.688-28.161-1.7383 7.0693-3.9402 19.006-5.4468 31.638-1.5066 27.466-10.662 49.254-27.35 64.899-4.0562 3.7084-5.215 6.1422-5.215 7.6487 0 0.57941 0.11591 1.1589 0.4635 1.5066l0.8113 1.043 5.2151-3.129c13.559-12.632 52.614-36.158 66.289-43.459l1.9702-1.043c10.314-5.447 16.688-9.3872 32.102-27.466-24.453 63.508-82.282 75.213-89.12 76.372-11.589 1.8543-25.728 5.6786-33.145 7.8806 8.6917-10.082 17.499-30.595 19.006-34.767"/><path d="m560.17 410.32s27.118-16.92 42.068-29.204c14.834-12.168 56.786-44.27 51.108-99.318-6.2581 17.963-16.572 34.42-28.046 44.618-11.473 10.198-31.87 42.068-36.737 49.485-4.9833 7.417-8.3441 9.503-8.3441 9.503s-1.7383-3.5926 3.8244-10.082c3.9402-6.6056 11.241-22.714 6.2581-56.902-5.7945-31.986-7.7646-39.519-7.0693-44.386-4.0562 11.241-9.2712 35.462-10.546 73.475-0.69537 21.556-2.8973 38.128-5.5627 45.429-2.6655 7.417-6.9535 17.384-6.9535 17.384"/><path d="m571.07 347.51c-0.69537 20.744-2.7814 37.548-5.4468 44.85l-6.8376 17.384 2.3178 1.9701c0.23181-0.23181 27.35-17.152 42.184-29.32l1.7383-1.3907c16.572-13.675 55.512-45.429 49.949-99.434l-3.1291-0.3477c-6.1422 17.847-16.225 33.956-27.582 44.038-10.546 9.3872-28.625 36.853-35.462 47.283l-1.6225 2.5497c-2.086 3.0131-3.7084 4.8674-4.9833 6.2581 0.46362-1.2748 1.2749-2.8973 3.0132-4.9833 5.5627-9.2712 8.3441-21.672 8.3441-36.737 0-6.7217-0.46356-13.907-1.6224-21.44 0-0.11591-3.8244-20.628-3.8244-20.628-2.3178-12.284-3.3608-17.847-3.3608-21.324 0-0.69537 0-1.3908 0.11591-1.9702l-3.0132-0.8112c-2.202 5.7945-9.1553 28.277-10.778 74.054zm-2.4337 46.008c2.7814-7.6489 4.9832-24.8 5.6785-45.893 1.159-33.261 5.0992-53.657 7.9965-64.667 0.46362 3.5926 1.2748 8.2282 2.6655 15.182l3.8244 20.513c1.0431 7.5329 1.6225 14.602 1.6225 21.092 0 14.37-2.6655 26.191-7.7646 34.767-3.4767 4.0562-4.288 7.3011-4.288 9.2712 0 1.2748 0.34766 2.086 0.46356 2.2019l0.6953 1.7384 1.5066-0.9271c0.23181-0.11591 3.8245-2.4338 8.8077-9.9666l1.7383-2.5496c6.7217-10.314 24.569-37.548 34.883-46.588 10.314-9.2712 19.238-23.758 25.612-39.635 0.11578 1.2748 0.23175 2.6655 0.23175 3.9403 0 46.124-34.188 74.17-49.369 86.57l-1.7383 1.3907c-11.242 9.2712-29.552 21.208-37.664 26.423 1.9701-4.9833 5.0992-12.864 5.0992-12.864"/><path d="m604.21 332.21s9.1553-15.066 17.5-24.916c8.3441-9.7347 45.313-53.657 23.989-125.39 0.3476 16.804-1.6225 26.423-3.3609 32.449-1.7383 5.9103-19.47 46.704-21.092 57.598-1.7383 11.01-4.4039 31.522-8.8076 33.956-1.5066-0.92706 0.3476-4.6356 0.81116-7.8806 0.57953-3.3608 5.331-31.638-11.821-61.538-15.529-26.307-18.427-28.973-20.744-38.128-0.3476 17.5 6.2582 52.035 10.894 66.405 4.8674 14.486 17.615 47.863 12.632 67.448"/><path d="m644.08 181.9v4.288c0 11.01-1.0431 20.049-3.2449 27.698l-5.7946 14.95c-6.0264 14.95-14.255 35.462-15.414 42.88l-0.4636 3.129c-0.81122 5.6786-2.3178 15.298-4.172 22.019 0.34772-2.3178 0.92712-6.2581 0.92712-12.053 0-12.053-2.3178-30.247-13.212-49.138l-10.778-17.963c-6.2582-10.314-8.1124-13.559-9.7349-19.701l-3.2449 0.3476c-0.23181 18.079 6.6058 53.078 11.125 66.985l1.8543 5.3309c5.215 15.413 15.066 44.154 10.778 61.19l2.8973 1.1589c0.11591-0.11591 9.1553-15.066 17.384-24.685 29.552-34.767 38.128-79.848 24.221-126.9l-3.1291 0.4635zm-30.827 125.39c4.4039-2.4336 6.7217-15.993 9.0395-31.986l0.4636-3.0132c1.1589-7.1852 9.6188-28.277 15.182-42.3l5.9103-15.182c1.1589-4.0562 2.3178-11.126 2.8973-20.628 2.3178 10.314 3.7085 20.513 3.7085 30.479 0 30.132-10.082 58.293-29.9 81.587-5.215 6.1422-10.546 14.023-14.023 19.354 0.11591-1.2747 0.46356-2.3177 0.46356-3.5925 0-17.152-7.3011-38.592-12.053-52.382l-1.8542-5.331c-3.7085-11.589-8.8077-37.317-10.198-55.975 1.5066 2.8972 3.3608 6.1422 6.374 11.01l10.778 17.963c10.43 18.311 12.632 35.81 12.632 47.399 0 6.4899-0.69531 11.241-0.92706 12.98-0.11591 0-0.81122 3.0132-0.81122 3.0132-0.23181 1.3906-0.69537 2.6654-0.69537 3.8243 0 1.159 0.34766 2.202 1.3907 2.7814l0.8113 0.4636 0.8112-0.4636"/><path d="m618 244.02s5.215-23.294 11.705-41.952c6.4899-18.658 18.774-61.886-16.688-105.92 7.6487 17.615 5.0992 29.32 5.215 31.29 0 1.9702-3.4767 41.721-3.2449 51.571 0.11591 12.632 3.0132 34.304 3.0132 34.304s-0.81128 2.6655-2.5497 0.11591c-1.1589-1.7384-4.0562-29.784-21.324-46.124-16.109-15.182-29.088-26.655-32.681-33.145 0.23175 11.589 7.301 28.161 12.864 37.317 5.5628 9.0394 28.393 38.939 33.724 49.022 5.215 10.082 9.9666 22.135 9.9666 23.526"/><path d="m611.51 96.84c4.6356 10.314 5.4468 18.542 5.4468 23.873 0 2.3178-0.11591 4.0561-0.23169 5.2151l-0.9272 11.589-2.4337 41.489s1.8543 21.092 2.6655 30.247c-1.9702-8.9236-6.6058-29.668-20.86-42.995 0-0.11594-8.8077-8.4601-8.8077-8.4601-11.589-10.894-20.744-19.47-23.526-24.453l-3.0132 0.8112c0.23181 11.357 6.9534 28.046 13.096 38.128l13.212 19.006c8.2282 11.241 17.384 24.105 20.397 29.9 5.4468 10.314 9.7348 21.672 9.8507 22.946l3.2449 0.2317c0-0.23172 5.2151-23.41 11.589-41.836 14.023-39.866 8.3441-76.024-17.036-107.43l-2.6655 1.7384zm5.6786 119.25c1.6225-0.23181 2.202-1.9701 2.3178-2.3178 0-1.2748-3.0131-34.767-3.0131-34.767l2.5496-41.141 0.6953-10.43c0.11591-1.7383 0.34772-3.9402 0.34772-6.6057 0-3.8244-0.81122-9.1553-2.3178-14.95 11.589 17.152 17.731 35.694 17.731 55.627 0 12.864-2.4337 26.191-7.3011 39.982-4.6356 13.327-8.5759 28.857-10.43 36.737-1.9702-5.0992-5.0992-12.4-8.3441-18.542-3.245-6.0263-12.516-18.89-20.628-30.247l-13.096-18.89c-5.0992-8.2282-10.314-20.86-12.053-31.174 4.2878 5.215 10.894 11.705 20.513 20.86l8.9235 8.2282c13.559 12.864 17.963 33.029 19.817 41.605l1.1589 4.172c0.92718 1.3907 1.9702 1.9701 3.1291 1.8542"/><path d="m606.3 165.56s-2.6655-6.2582-0.92706-31.986c1.7383-25.844 1.9702-60.958-38.36-83.673 10.314 16.572 11.937 19.47 15.298 33.029 3.3608 13.443 7.3012 35.115 12.98 47.283 2.3178 6.0263 3.9402 10.662 2.8973 11.242-1.0431 0.69534-1.5066-0.46362-2.3179-2.4338-0.81122-2.086-9.503-20.281-26.075-31.522-16.804-11.357-31.87-22.714-37.664-34.072 2.7814 21.324 11.126 28.741 19.47 39.287 9.0394 11.473 41.257 35.115 46.82 42.88 5.6786 7.8805 7.8806 9.9666 7.8806 9.9666"/><path d="m565.62 50.832c10.43 16.688 11.937 19.354 15.182 32.449l2.4338 10.662c2.8973 12.864 6.1422 27.466 10.546 36.969 0.23181 0.57953 0.69531 1.7384 1.043 2.6656-3.7085-6.7217-11.473-18.89-24.221-27.466-15.877-10.662-31.406-22.251-37.085-33.376l-3.0132 0.9271c2.5496 18.89 9.2712 27.118 16.572 35.926l3.2449 4.0561c4.8674 6.2581 15.993 15.529 26.539 24.569 9.1553 7.6487 17.731 14.834 20.281 18.427l8.1124 10.082 2.5496-1.8542c-0.11591 0-2.5496-6.4899-0.81122-31.175 1.3906-21.324 4.0562-60.843-39.171-85.18l-2.2019 2.3178zm33.376 91.901c0.69531-0.34772 1.043-1.0431 1.043-2.086 0-1.8543-1.043-5.0992-3.2449-11.01-4.2879-9.1553-7.6487-24.337-10.43-36.39l-2.5496-10.778c-2.7814-11.357-4.7515-15.761-11.01-26.191 25.496 17.615 31.522 40.562 31.522 62.928 0 4.8674-0.23181 9.6189-0.46356 14.254-0.46362 6.4899-0.57941 11.705-0.57941 15.877 0 4.6357 0.11578 7.7646 0.4635 10.314-1.9701-2.4338-3.9403-4.8674-3.9403-4.8674-2.7814-3.8244-11.126-10.894-20.86-19.006-10.082-8.46-21.44-18.079-26.191-23.989l-3.2449-4.172c-6.0264-7.417-11.242-14.254-14.254-26.771 7.0693 8.9236 18.542 17.847 33.608 27.93 17.152 11.705 25.496 30.711 25.612 30.827 0.69537 1.8543 1.1589 3.1291 2.4338 3.4767l0.6953 0.3477 1.3907-0.6953"/><path d="m574.89 98.115s-5.7946-27.002-16.688-42.88c-10.662-15.877-32.681-29.552-55.627-36.042 8.1123 6.4899 13.096 12.4 15.993 17.152 2.8973 4.7515 20.86 31.29 28.973 39.635 8.2283 8.46 21.44 15.761 27.35 22.135"/><path d="m501.53 20.468c8.8077 6.8376 13.327 12.864 15.645 16.688 2.7814 4.6356 20.86 31.406 29.32 39.982l15.529 12.632 11.821 9.387 2.6655-1.3907c-0.23175-1.1589-6.0263-27.466-16.92-43.459-10.778-15.761-32.449-29.784-56.554-36.621l-1.5066 2.7814zm62.349 66.753-15.182-12.4c-8.1124-8.2283-26.075-34.999-28.741-39.287-2.4337-3.9402-6.1422-7.9965-10.43-12.168 20.397 7.3011 38.244 19.238 47.399 32.797 7.8806 11.589 13.212 29.436 15.298 37.78-3.4768-2.8973-8.3441-6.7217-8.3441-6.7217"/></g><path d="m291.79 1534.9q0 2.5488 0.26367 3.8671 0.30762 1.2745 1.0107 2.1094 0.74707 0.791 2.1094 1.2744 1.3623 0.4395 3.4277 0.7032 2.0654 0.2197 5.4492 0.3076v3.208h-32.476v-3.208q4.8779-0.2197 6.9434-0.5713 2.1094-0.3955 3.208-1.1426t1.582-2.1094q0.52735-1.3623 0.52735-4.4384v-35.64q0-1.7578-0.61524-2.5488-0.61523-0.835-1.8018-0.835-1.4062 0-3.999 1.4502t-6.416 3.999l-1.9336-3.3837 20.566-12.261h2.417q-0.26367 4.2188-0.26367 11.69v37.529z" fill="#fff"/><path d="m73.729 1571.9q1.6748 0 2.7002-0.205 1.0254-0.2051 1.6406-0.6836 0.61523-0.4786 0.95703-1.2305 0.37598-0.7861 0.92285-2.3926h2.9053l-0.58106 9.9805h-28.13v-1.6406q1.4697-3.5889 3.9648-7.3487 2.4951-3.7597 7.0752-8.8525 3.9648-4.375 5.708-6.6309 1.9141-2.4609 2.8369-4.2383 0.95703-1.8115 1.3672-3.3837 0.41016-1.6065 0.41016-3.2129 0-2.5635-0.82031-4.5118-0.82031-1.9824-2.5293-3.1103-1.6748-1.1279-4.2383-1.1279-6.3916 0-8.6133 7.1093h-4.1357v-6.5625q4.1357-1.9482 7.7246-2.8027 3.623-0.8887 6.4941-0.8887 6.3574 0 9.6045 2.8028 3.2471 2.7685 3.2471 8.0664 0 1.8115-0.37598 3.3496-0.3418 1.5039-1.1279 3.0078-0.75195 1.4697-2.0508 3.1787t-2.8711 3.4863q-1.5723 1.7432-5.4346 5.8448-6.4941 6.8701-9.5361 11.997h12.886z" fill="#fff"/><path d="m492.69 1563.7v-5.5664q3.3984-1.6114 6.3574-2.4024t5.7129-0.791q3.3106 0 5.8008 1.0254t3.8086 2.959q1.3184 1.9043 1.3184 4.5703 0 2.4902-0.9961 4.3945-0.99609 1.875-2.8125 3.2813-1.7871 1.4062-4.6582 2.7539v0.2636q1.7871 0.3223 3.4277 1.1133 1.6699 0.7617 2.959 1.9922t2.0508 2.959q0.79102 1.6992 0.79102 3.8965 0 3.3984-1.4941 6.0351-1.4648 2.6368-4.5117 4.1602t-7.4121 1.5234q-2.5195 0-5.4492-0.5566-2.9004-0.5859-5.332-1.5234v-6.211h3.5156q1.0254 3.0469 2.6953 4.4238 1.6992 1.377 4.5996 1.377 3.8086 0 5.7422-2.0801 1.9629-2.0801 1.9629-6.1523 0-4.2774-2.5781-6.5332-2.5781-2.2559-7.5586-2.2559h-2.6367v-2.5781q3.9551-0.2344 6.6504-1.5234 2.7246-1.2891 4.043-3.3106t1.3184-4.541q0-3.252-1.7285-5.0098t-5.0391-1.7578q-2.7539 0-4.4824 1.4942-1.7285 1.4941-2.5488 4.5703h-3.5156z"/></g></g></g></g></svg>
