<?xml version="1.0" encoding="UTF-8" standalone="no"?>
<!-- Created with Inkscape (http://www.inkscape.org/) -->

<svg
   xmlns:dc="http://purl.org/dc/elements/1.1/"
   xmlns:cc="http://creativecommons.org/ns#"
   xmlns:rdf="http://www.w3.org/1999/02/22-rdf-syntax-ns#"
   xmlns:svg="http://www.w3.org/2000/svg"
   xmlns="http://www.w3.org/2000/svg"
   xmlns:sodipodi="http://sodipodi.sourceforge.net/DTD/sodipodi-0.dtd"
   xmlns:inkscape="http://www.inkscape.org/namespaces/inkscape"
   width="100mm"
   height="114mm"
   viewBox="0 0 100 114"
   version="1.1"
   id="svg8"
   inkscape:version="0.92.3 (2405546, 2018-03-11)"
   sodipodi:docname="rubicCube.svg">
  <defs
     id="defs2" />
  <sodipodi:namedview
     id="base"
     pagecolor="#ffffff"
     bordercolor="#666666"
     borderopacity="1.0"
     inkscape:pageopacity="0.0"
     inkscape:pageshadow="2"
     inkscape:zoom="0.49497475"
     inkscape:cx="278.13164"
     inkscape:cy="246.36056"
     inkscape:document-units="mm"
     inkscape:current-layer="layer1"
     showgrid="false"
     fit-margin-top="0"
     fit-margin-left="0"
     fit-margin-right="0"
     fit-margin-bottom="0"
     inkscape:window-width="1920"
     inkscape:window-height="1017"
     inkscape:window-x="-8"
     inkscape:window-y="-8"
     inkscape:window-maximized="1" />
  <metadata
     id="metadata5">
    <rdf:RDF>
      <cc:Work
         rdf:about="">
        <dc:format>image/svg+xml</dc:format>
        <dc:type
           rdf:resource="http://purl.org/dc/dcmitype/StillImage" />
        <dc:title></dc:title>
      </cc:Work>
    </rdf:RDF>
  </metadata>
  <g
     inkscape:label="Layer 1"
     inkscape:groupmode="layer"
     id="layer1"
     transform="translate(181.12676,-98.086043)">
    <g
       style="fill-rule:evenodd"
       id="g979"
       transform="matrix(1.7656143,0,0,1.9138516,-181.12691,98.085792)">
      <path
         id="path815"
         d="m 14.3708,15.7826 v -4.23348 c 0,0 0.16751,-0.81634 0.71996,-1.17704 0.55245,-0.3607 7.18916,-4.64513 7.46124,-4.83855 0.27208,-0.19342 0.93111,-0.04836 1.15494,-0.16919 0.16852,-0.17502 0.09514,-0.64008 0.43296,-0.88758 l 6.59251,-4.28599 c 0.27252,-0.22551 0.81095,-0.2815 1.05924,4.5e-4 l 6.92921,6.06305 c 0.22046,0.20274 0.02726,0.94065 0.19971,1.13228 0.19365,0.21564 1.02143,0.07472 1.2447,0.21609 l 6.92898,6.15887 c 0.27331,0.32043 0.18411,1.02749 0.38494,1.25121 0.30405,0.32986 1.04342,0.10412 1.44418,0.38573 l 7.50679,6.83272 c 0.2254,0.23987 0.28172,0.8666 0.09615,1.15494 l -8.82991,18.3587 -5.50499,4.15808 c -0.1067,0.07865 -0.42264,0.02008 -0.53618,0.11253 -0.07416,0.06631 0.03355,0.33805 -0.07831,0.425 l -3.32593,2.64008 0.86032,4.13643 c 0.02098,0.26972 -0.06664,0.53955 -0.19791,0.67901 l -6.8335,5.38977 c -0.46887,0.38046 -0.9917,0.33692 -1.33019,0.08695 l -7.14743,-4.27768 c -0.4075,-0.16078 -0.38292,-0.49871 -0.59666,-0.61405 -0.25614,-0.08807 -0.46797,0.27488 -0.70235,0.13239 L 15.30764,50.4163 C 15.01436,50.21412 15.1426,49.75098 14.759,49.59391 c -0.40626,-0.05801 -0.46034,0.30248 -0.90306,0 L 9.07719,46.77376 C 8.90598,46.68984 8.69113,46.45411 8.59598,46.19629 l -2.3284,-6.83036 c -0.10984,-0.24582 0.17873,-0.575 0.10176,-0.79906 -0.05127,-0.21328 -0.483,-0.38651 -0.5777,-0.68675 L 3.38796,30.12964 C 3.26241,29.80483 3.63659,29.32116 3.55648,29.01901 3.36249,28.61275 2.91876,28.79709 2.725,28.39083 L 0.12094,20.0511 C -0.12118,19.52939 0.02916,19.07006 0.31885,18.8625 l 7.69954,-4.8123 c 0.32885,-0.16919 0.72994,-0.12084 1.05879,0 l 4.52351,1.82879 c 0.40155,0.18524 0.75508,0.17738 0.77011,-0.09638 z"
         inkscape:connector-curvature="0"
         style="fill:#1a1a1a" />
      <path
         id="path817"
         d="m 36.188,16.03 c 3.1193,2.8181 3.4453,3.4922 -0.21598,0.23797 -3.66128,-3.25423 -4.0337,-4.0405 0.21598,-0.23797 z"
         inkscape:connector-curvature="0"
         style="fill:#4d4d4d" />
      <path
         id="path819"
         d="m 23.12761,17.6723 a 0.30271,0.49183 0 1 0 -0.60542,0 0.30271,0.49183 0 1 0 0.60542,0"
         inkscape:connector-curvature="0"
         style="fill:#808080" />
      <path
         id="path821"
         d="m 40.41661,19.6081 a 0.30271,0.49183 0 1 0 -0.60542,0 0.30271,0.49183 0 1 0 0.60542,0"
         inkscape:connector-curvature="0"
         style="fill:#999999" />
      <path
         id="path823"
         d="m 45.335,24.247 c 2.7678,2.5007 3.0571,3.0988 -0.19174,0.21115 -3.24884,-2.88765 -3.5793,-3.5853 0.19174,-0.21115 z"
         inkscape:connector-curvature="0"
         style="fill:#4d4d4d" />
      <path
         id="path825"
         d="m 49.59971,27.7821 a 0.30271,0.49183 0 1 0 -0.60542,0 0.30271,0.49183 0 1 0 0.60542,0"
         inkscape:connector-curvature="0"
         style="fill:#808080" />
      <path
         id="path827"
         d="m 40.87071,34.3667 a 0.30271,0.49183 0 1 0 -0.60542,0 0.30271,0.49183 0 1 0 0.60542,0"
         inkscape:connector-curvature="0"
         style="fill:#666666" />
      <path
         id="path829"
         d="m 37.11,30.983 c 2.7679,2.5006 3.0572,3.0987 -0.19163,0.21115 C 33.66954,28.3066 33.33907,27.60885 37.11,30.983 Z"
         inkscape:connector-curvature="0"
         style="fill:#666666" />
      <path
         id="path831"
         d="m 31.71281,11.5402 a 0.30271,0.49183 0 1 0 -0.60542,0 0.30271,0.49183 0 1 0 0.60542,0"
         inkscape:connector-curvature="0"
         style="fill:#808080" />
      <path
         id="path833"
         d="m 27.619,8.1215 c 2.7679,2.5006 3.0572,3.0988 -0.19163,0.21115 C 24.17854,5.445 23.84807,4.74735 27.619,8.1215 Z"
         inkscape:connector-curvature="0"
         style="fill:#333333" />
      <path
         id="path835"
         d="m 19.17,14.526 c 2.7679,2.5007 3.0572,3.0988 -0.19163,0.21115 C 15.72954,11.8495 15.39907,11.15185 19.17,14.526 Z"
         inkscape:connector-curvature="0"
         style="fill:#333333" />
      <path
         id="path837"
         d="m 23.99942,29.4586 a 0.47542,0.49183 0 1 0 -0.95084,0 0.47542,0.49183 0 1 0 0.95084,0"
         inkscape:connector-curvature="0"
         style="fill:#808080" />
      <path
         id="path839"
         d="m 15.26911,25.6216 a 0.30271,0.49183 0 1 0 -0.60542,0 0.30271,0.49183 0 1 0 0.60542,0"
         inkscape:connector-curvature="0"
         style="fill:#808080" />
      <path
         id="path841"
         d="m 7.36534,22.266 a 0.30271,0.36136 0 1 0 -0.60542,0 0.30271,0.36136 0 1 0 0.60542,0"
         inkscape:connector-curvature="0"
         style="fill:#808080" />
      <path
         id="path843"
         d="m 10.49951,32.6228 a 0.30271,0.36136 0 1 0 -0.60542,0 0.30271,0.36136 0 1 0 0.60542,0"
         inkscape:connector-curvature="0"
         style="fill:#666666" />
      <path
         id="path845"
         d="m 26.61928,40.0589 a 0.39318,0.40675 0 1 0 -0.78635,0 0.39318,0.40675 0 1 0 0.78635,0"
         inkscape:connector-curvature="0"
         style="fill:#666666" />
      <path
         id="path847"
         d="m 29.55568,50.111 a 0.39318,0.40675 0 1 0 -0.78635,0 0.39318,0.40675 0 1 0 0.78635,0"
         inkscape:connector-curvature="0"
         style="fill:#4d4d4d" />
      <path
         id="path849"
         d="m 21.03728,46.25 a 0.39318,0.40675 0 1 0 -0.78635,0 0.39318,0.40675 0 1 0 0.78635,0"
         inkscape:connector-curvature="0"
         style="fill:#4d4d4d" />
      <path
         id="path851"
         d="m 13.16164,42.1935 a 0.24834,0.25691 0 1 0 -0.49667,0 0.24834,0.25691 0 1 0 0.49667,0"
         inkscape:connector-curvature="0"
         style="fill:#333333" />
      <path
         id="path853"
         d="m 18.33661,36.3689 a 0.30271,0.36136 0 1 0 -0.60542,0 0.30271,0.36136 0 1 0 0.60542,0"
         inkscape:connector-curvature="0"
         style="fill:#666666" />
      <path
         id="path855"
         d="m 19.612,27.488 c 2.7308,1.1548 3.1042,1.5284 -0.08886,0.20857 -3.19306,-1.31983 -3.6232,-1.7573 0.08886,-0.20857 z"
         inkscape:connector-curvature="0"
         style="fill:#666666" />
      <path
         id="path857"
         d="m 11.208,24.081 c 2.7308,1.1548 3.1042,1.5283 -0.08886,0.20857 C 7.92608,22.96984 7.49594,22.53227 11.208,24.081 Z"
         inkscape:connector-curvature="0"
         style="fill:#666666" />
      <path
         id="path859"
         d="M 3.76327,20.8156 C 6.00528,21.76377 6.31179,22.0704 3.69034,20.98681 1.06889,19.90322 0.7157,19.54409 3.76327,20.8156 Z"
         inkscape:connector-curvature="0"
         style="fill:#666666" />
      <path
         id="path861"
         d="m 16.4977,10.0705 6.22888,-3.94828 c 0.2668,-0.16919 0.63727,-0.14496 0.87692,0.06631 l 6.16066,5.43599 c 0.23965,0.21138 0.21171,0.56906 -0.04712,0.74891 l -6.13766,4.26635 c -0.25827,0.1794 -0.6421,0.14989 -0.87692,-0.06631 L 16.45058,10.8194 c -0.23494,-0.21642 -0.21979,-0.57971 0.04712,-0.7489 z"
         inkscape:connector-curvature="0"
         style="fill:#ffff25" />
      <path
         id="path863"
         d="m 25.1253,4.49389 5.73634,-3.78447 c 0.24672,-0.1628 0.59688,-0.13598 0.82049,0.06204 l 5.94514,5.26703 c 0.22361,0.19803 0.20072,0.53708 -0.04409,0.70066 l -5.83283,3.90048 c -0.24414,0.16336 -0.60081,0.14013 -0.82037,-0.06204 L 25.08122,5.19455 C 24.86143,4.99214 24.87859,4.65668 25.12531,4.49388 Z"
         inkscape:connector-curvature="0"
         style="fill:#2a4bb7" />
      <path
         id="path865"
         d="m 33.8014,12.2614 5.64546,-3.8298 c 0.24459,-0.16605 0.59565,-0.13452 0.82037,0.06204 l 6.17233,5.40346 c 0.22473,0.19657 0.19511,0.529 -0.04409,0.70066 l -5.56031,3.99125 c -0.23853,0.1711 -0.59744,0.13609 -0.82037,-0.06216 L 33.75741,12.96206 C 33.53425,12.7637 33.5568,12.42745 33.80139,12.2614 Z"
         inkscape:connector-curvature="0"
         style="fill:#f03031" />
      <path
         id="path867"
         d="m 42.296,20.0741 5.64546,-4.19331 c 0.23752,-0.17637 0.60025,-0.13879 0.82049,0.06204 l 6.67172,6.08527 c 0.22035,0.20083 0.1904,0.52418 -0.04409,0.70066 l -5.42399,4.0819 c -0.23393,0.17604 -0.59531,0.13306 -0.82037,-0.06204 l -6.8933,-5.97386 c -0.22506,-0.19511 -0.19343,-0.52418 0.04409,-0.70066 z"
         inkscape:connector-curvature="0"
         style="fill:#2ac44b" />
      <path
         id="path869"
         d="m 25.0347,18.1212 6.1904,-4.4204 c 0.24066,-0.17177 0.5961,-0.13441 0.82049,0.06204 l 6.58117,5.76686 c 0.22428,0.19645 0.18782,0.5207 -0.04409,0.70066 l -4.56109,3.53697 C 33.79057,23.94651 33.37129,23.94942 33.20121,23.70529 32.66334,22.93338 32.1652,22.457 31.45129,22.20692 l -4.89016,-1.71356 -1.57052,-1.67149 c -0.20408,-0.21732 -0.19657,-0.52889 0.04409,-0.70066 z"
         inkscape:connector-curvature="0"
         style="fill:#2a4bb7" />
      <path
         id="path871"
         d="m 33.7882,26.4178 6.22888,-4.62964 c 0.25356,-0.18849 0.63637,-0.14339 0.87703,0.06631 l 6.75115,5.89039 c 0.24066,0.20981 0.19982,0.55391 -0.04712,0.74891 l -6.09234,4.8114 c -0.24616,0.19432 -0.63783,0.14462 -0.87692,-0.06642 l -6.88769,-6.07203 c -0.23954,-0.21126 -0.20644,-0.56053 0.04701,-0.74891 z"
         inkscape:connector-curvature="0"
         style="fill:#ffff25" />
      <path
         id="path873"
         d="m 48.007,30.381 -2.12712,4.73107 c -0.07237,0.16111 -0.13912,0.29934 -0.30169,0.43128 l -5.63851,4.57399 c -0.16268,0.13205 -0.47526,0.05251 -0.42847,-0.10838 l 1.16134,-4.0018 c 0.04656,-0.16033 0.13856,-0.30024 0.30169,-0.43128 l 6.60429,-5.30327 c 0.16347,-0.13116 0.50084,-0.05273 0.42847,0.10838 z"
         inkscape:connector-curvature="0"
         style="fill:#284299" />
      <path
         id="path875"
         d="m 55.8655,24.3394 -2.39953,4.77651 c -0.08056,0.16022 -0.1371,0.30091 -0.30181,0.43139 l -5.32077,4.21037 c -0.16481,0.13048 -0.49849,0.05161 -0.42847,-0.10838 l 2.0699,-4.72837 c 0.0699,-0.15943 0.13351,-0.30461 0.30169,-0.43128 l 5.65051,-4.25861 c 0.16863,-0.12701 0.50892,-0.05195 0.42847,0.10838 z"
         inkscape:connector-curvature="0"
         style="fill:#b3b3b3" />
      <path
         id="path877"
         d="m 52.6403,31.0624 -2.39987,4.91282 c -0.07843,0.16044 -0.12947,0.30685 -0.30181,0.43128 l -4.63907,3.34747 c -0.17233,0.12454 -0.49759,0.05183 -0.42836,-0.10838 l 1.70638,-3.95636 c 0.069,-0.15977 0.13912,-0.30001 0.30181,-0.43128 l 5.33244,-4.30383 c 0.1628,-0.13149 0.50679,-0.05217 0.42847,0.10827 z"
         inkscape:connector-curvature="0"
         style="fill:#b3b3b3" />
      <path
         id="path879"
         d="m 45.2816,36.9221 -2.08157,4.2769 c -0.0782,0.16055 -0.14911,0.29283 -0.30181,0.43128 l -4.44306,3.55728 c -0.15281,0.13856 -0.47246,0.05206 -0.42847,-0.10827 l 0.965,-3.34859 c 0.04611,-0.15977 0.13935,-0.30035 0.30181,-0.43128 l 5.55963,-4.4857 c 0.16302,-0.13138 0.50668,-0.05217 0.42847,0.10838 z"
         inkscape:connector-curvature="0"
         style="fill:#1d8a35" />
      <path
         id="path881"
         d="m 49.3717,37.712 -1.92954,3.77202 c -0.06889,0.13464 -0.11018,0.25727 -0.25401,0.36307 l -4.26837,3.13587 c -0.14383,0.10569 -0.42107,0.04331 -0.3606,-0.09121 l 1.6182,-3.60283 c 0.06025,-0.13419 0.10939,-0.25883 0.25401,-0.36307 l 4.5796,-3.30506 c 0.14473,-0.10434 0.4296,-0.04353 0.36071,0.09122 z"
         inkscape:connector-curvature="0"
         style="fill:#b34322" />
      <path
         id="path883"
         d="m 42.5146,42.8856 -1.28161,3.34265 c -0.04106,0.10692 -0.09245,0.19758 -0.19948,0.28509 l -2.57467,2.03242 c -0.10692,0.08751 -0.264,0.02592 -0.28329,-0.07158 l -0.40379,-2.04544 c -0.01919,-0.09716 0.04241,-0.14821 0.14911,-0.23494 l 4.31045,-3.37978 c 0.10872,-0.08527 0.33087,-0.03489 0.28329,0.07158 z"
         inkscape:connector-curvature="0"
         style="fill:#b3b31a" />
      <path
         id="path885"
         d="m 39.572,38.42 c -0.73196,2.5319 -1.0416,2.9058 -0.21542,-0.05071 0.82618,-2.95651 1.19,-3.3882 0.21542,0.05071 z"
         inkscape:connector-curvature="0"
         style="fill:#666666" />
      <path
         id="path887"
         d="m 27.264,38.6313 6.44497,-4.75519 c 0.25423,-0.18759 0.43756,-0.48379 0.37316,-0.79636 l -1.66745,-7.93852 c -0.0653,-0.31213 -0.38416,-0.44631 -0.67542,-0.32705 l -6.85695,4.9043 c -0.25446,0.18209 -0.43947,0.48446 -0.37316,0.79636 l 2.07943,7.78941 c 0.08101,0.30831 0.42129,0.51475 0.67542,0.32705 z"
         inkscape:connector-curvature="0"
         style="fill:#ffff25" />
      <path
         id="path889"
         d="m 30.0561,48.8791 6.1242,-4.53742 c 0.2539,-0.18804 0.43756,-0.48379 0.37316,-0.79636 l -1.76562,-7.40716 c -0.07371,-0.30988 -0.38427,-0.4462 -0.67542,-0.32705 l -6.28621,4.47908 c -0.2539,0.18097 -0.43936,0.48446 -0.37316,0.79636 l 1.92752,7.46561 c 0.07966,0.30798 0.42129,0.51475 0.67553,0.32694 z"
         inkscape:connector-curvature="0"
         style="fill:#2ac44b" />
      <path
         id="path891"
         d="m 32.628,58.4922 5.79165,-4.56681 c 0.22215,-0.17514 0.38999,-0.43655 0.33255,-0.71861 l -1.6973,-7.20476 c -0.05374,-0.28251 -0.34253,-0.40267 -0.60204,-0.29507 l -6.06406,4.50421 c -0.22406,0.16639 -0.39156,0.43711 -0.33255,0.71861 l 1.96982,7.26736 c 0.07517,0.27679 0.37989,0.47021 0.60193,0.29507 z"
         inkscape:connector-curvature="0"
         style="fill:#ffff25" />
      <path
         id="path893"
         d="m 30.9524,23.2446 -6.93975,4.88534 c -0.22967,0.16179 -0.6007,0.21474 -0.89644,0.11208 l -6.41625,-2.73656 c -0.28172,-0.12016 -0.34433,-0.3496 -0.14754,-0.5299 l 6.52014,-4.60047 c 0.22753,-0.16044 0.60182,-0.21575 0.89644,-0.11208 l 6.83597,2.4517 c 0.29328,0.10535 0.37709,0.36823 0.14743,0.5299 z"
         inkscape:connector-curvature="0"
         style="fill:#2a4bb7" />
      <path
         id="path895"
         d="m 21.875,19.8455 -6.55032,4.56109 c -0.21676,0.15102 -0.56693,0.20038 -0.84618,0.10468 L 8.4224,21.95624 C 8.1565,21.84404 8.09737,21.62986 8.28328,21.46146 l 6.15405,-4.29508 c 0.21474,-0.14989 0.56816,-0.2015 0.84618,-0.10468 l 6.45226,2.28902 c 0.27679,0.09828 0.356,0.34365 0.13924,0.49478 z"
         inkscape:connector-curvature="0"
         style="fill:#f03031" />
      <path
         id="path897"
         d="M 13.2373,16.6851 7.05431,20.91129 C 6.85505,21.0475 6.53798,21.09372 6.28375,21.00654 L 1.49569,19.04334 C 1.25178,18.94349 1.19972,18.74614 1.36891,18.59288 l 6.2585,-4.05666 C 7.8297,14.40506 8.14474,14.35278 8.39786,14.44085 l 4.71267,1.79378 c 0.24773,0.09436 0.32604,0.31426 0.12678,0.45047 z"
         inkscape:connector-curvature="0"
         style="fill:#ffff25" />
      <path
         id="path899"
         d="m 16.4346,27.3759 5.95737,2.48053 c 0.22652,0.09436 0.44452,0.38954 0.51543,0.70358 l 1.90003,7.63682 c 0.07809,0.31348 -0.08112,0.50062 -0.30495,0.43745 l -5.74442,-2.76529 c -0.22349,-0.1076 -0.44587,-0.38988 -0.51531,-0.70347 l -2.11309,-7.35207 c -0.08953,-0.31168 0.07831,-0.53731 0.30495,-0.43756 z"
         inkscape:connector-curvature="0"
         style="fill:#cccccc" />
      <path
         id="path901"
         d="m 19.8334,38.1659 5.35678,2.57702 c 0.22641,0.10894 0.44452,0.38954 0.51531,0.70358 l 1.94547,7.11646 c 0.08561,0.31314 -0.08101,0.50073 -0.30484,0.43756 L 21.78716,46.30917 C 21.56333,46.20079 21.34129,45.91929 21.27185,45.6057 l -1.74341,-7.00224 c -0.07786,-0.31291 0.07842,-0.53731 0.30495,-0.43756 z"
         inkscape:connector-curvature="0"
         style="fill:#c02627" />
      <path
         id="path903"
         d="m 22.3211,47.8096 5.63065,2.75698 c 0.20464,0.10019 0.40177,0.35196 0.46584,0.63581 l 1.79939,7.02356 c 0.07259,0.28296 -0.07326,0.45249 -0.27555,0.39549 L 24.23908,55.1372 c -0.19982,-0.12218 -0.40301,-0.35229 -0.46584,-0.63581 l -1.7277,-6.29642 c -0.0773,-0.28184 0.0708,-0.48558 0.27555,-0.39538 z"
         inkscape:connector-curvature="0"
         style="fill:#2a4bb7" />
      <path
         id="path905"
         d="m 8.48098,24.0392 5.42679,2.3257 c 0.20274,0.08684 0.39785,0.34859 0.46124,0.62964 l 2.08931,7.29003 c 0.08022,0.27993 -0.07259,0.448 -0.27286,0.39156 L 10.73713,32.03897 C 10.53742,31.94215 10.33816,31.69015 10.27601,31.40944 L 8.20813,24.43076 C 8.12555,24.15184 8.27825,23.94989 8.48099,24.0392 Z"
         inkscape:connector-curvature="0"
         style="fill:#2a4bb7" />
      <path
         id="path907"
         d="m 1.0911,20.8916 5.05228,2.13879 c 0.18501,0.07831 0.36295,0.31808 0.42085,0.57455 l 2.07719,7.10143 c 0.07461,0.25513 -0.0662,0.40895 -0.24907,0.35734 L 3.42298,28.59316 C 3.241,28.50273 3.05879,28.27486 3.00213,28.01872 L 0.84214,21.24883 C 0.76136,20.99538 0.90609,20.81015 1.0911,20.8916 Z"
         inkscape:connector-curvature="0"
         style="fill:#229d3c" />
      <path
         id="path909"
         d="m 11.5011,34.1354 5.43094,2.67968 c 0.21385,0.10546 0.41961,0.36767 0.48648,0.66409 l 1.86413,6.782 c 0.08134,0.29541 -0.07652,0.47257 -0.28778,0.41299 l -5.44968,-2.73645 c -0.21104,-0.10614 -0.42085,-0.368 -0.48648,-0.66409 L 11.2132,34.54839 c -0.08078,-0.29463 0.07394,-0.50712 0.28789,-0.41299 z"
         inkscape:connector-curvature="0"
         style="fill:#c02627" />
      <path
         id="path911"
         d="m 4.31864,30.6152 4.759,2.31101 c 0.21373,0.10378 0.41961,0.36767 0.48648,0.66409 l 1.83978,6.66532 c 0.08168,0.29541 -0.07652,0.47257 -0.28778,0.41299 L 6.564,38.33449 C 6.35352,38.22645 6.14304,37.96638 6.07741,37.67029 L 4.03074,31.02819 C 3.94042,30.73491 4.10479,30.52095 4.31863,30.6152 Z"
         inkscape:connector-curvature="0"
         style="fill:#2a4bb7" />
      <path
         id="path913"
         d="m 14.3456,43.8843 5.35061,2.60417 c 0.20812,0.10131 0.4085,0.35802 0.47369,0.64658 l 1.88455,6.5198 c 0.08302,0.28722 -0.0745,0.46011 -0.28026,0.40211 l -5.6164,-3.39369 C 15.95404,50.54008 15.74794,50.30503 15.6841,50.01669 l -1.61876,-5.73028 c -0.08089,-0.28644 0.07203,-0.49377 0.28026,-0.40211 z"
         inkscape:connector-curvature="0"
         style="fill:#cccccc" />
      <path
         id="path915"
         d="m 7.31426,40.3342 4.47605,2.17783 c 0.21373,0.10401 0.41961,0.36767 0.48648,0.66409 l 1.55694,5.56693 c 0.08258,0.29507 -0.07652,0.47257 -0.28778,0.41299 l -4.21946,-2.517 C 9.11758,46.51428 8.90564,46.27104 8.84001,45.97484 L 7.02637,40.74719 C 6.92551,40.45627 7.10042,40.23995 7.31426,40.3342 Z"
         inkscape:connector-curvature="0"
         style="fill:#ffff25" />
      <path
         id="path917"
         d="M 27.718,26.8 C 24.9616,28.6667 24.3815,28.7901 27.57585,26.58885 30.7702,24.3876 31.44505,24.24965 27.718,26.8 Z"
         inkscape:connector-curvature="0"
         style="fill:#666666" />
    </g>
  </g>
</svg>
