<?xml version="1.0" encoding="UTF-8"?>
<svg width="64.995mm" height="68.358mm" version="1.1" viewBox="0 0 64.995 68.358" xmlns="http://www.w3.org/2000/svg" xmlns:xlink="http://www.w3.org/1999/xlink"><defs><linearGradient id="linearGradient4113"><stop stop-color="#fff" offset="0"/><stop stop-color="#fff" stop-opacity="0" offset="1"/></linearGradient><linearGradient id="linearGradient3311"><stop stop-color="#e5e5e5" offset="0"/><stop stop-color="#e5e5e5" stop-opacity=".45588" offset="1"/></linearGradient><linearGradient id="linearGradient3272"><stop stop-color="#b2b2b2" offset="0"/><stop stop-color="#b2b2b2" stop-opacity="0" offset="1"/></linearGradient><radialGradient id="radialGradient3485" cx="314.95" cy="573.63" r="75.928" gradientTransform="matrix(-.009589 1.3471 -1.662 -.030773 1271.4 172.25)" gradientUnits="userSpaceOnUse"><stop stop-color="#666" offset="0"/><stop stop-color="#898989" offset="1"/></radialGradient><linearGradient id="linearGradient3487" x1="327.52" x2="328.01" y1="186.46" y2="237.22" gradientUnits="userSpaceOnUse"><stop stop-color="#b3b3b3" offset="0"/><stop stop-color="#a9a9a9" offset=".33656"/><stop stop-color="#969696" offset="1"/></linearGradient><linearGradient id="linearGradient3489" x1="375.52" x2="395.54" y1="589.18" y2="589.18" gradientUnits="userSpaceOnUse"><stop stop-color="#767676" offset="0"/><stop stop-color="#767676" stop-opacity="0" offset="1"/></linearGradient><filter id="filter3548"><feGaussianBlur stdDeviation="1.6040625"/></filter><filter id="filter3563"><feGaussianBlur stdDeviation="0.060275073"/></filter><radialGradient id="radialGradient3609" cx="128.09" cy="670.47" r="137" gradientTransform="matrix(.010623 -.60984 1.4018 .024417 -740.58 716.79)" gradientUnits="userSpaceOnUse" xlink:href="#linearGradient3272"/><linearGradient id="linearGradient3970" x1="123.44" x2="125.44" y1="4.9636" y2="11.752" gradientUnits="userSpaceOnUse"><stop stop-color="#fff" offset="0"/><stop stop-color="#fff" stop-opacity="0" offset="1"/></linearGradient><linearGradient id="linearGradient3979" x1="378.53" x2="380.97" y1="654.07" y2="702.53" gradientTransform="matrix(.31794 0 0 .31794 1.4904 -6.5477)" gradientUnits="userSpaceOnUse"><stop offset="0"/><stop stop-opacity="0" offset="1"/></linearGradient><linearGradient id="linearGradient3984" x1="375.43" x2="401.66" y1="242.74" y2="246.19" gradientUnits="userSpaceOnUse" xlink:href="#linearGradient3311"/><linearGradient id="linearGradient4022" x1="122.42" x2="124.45" y1="46.374" y2="52.835" gradientUnits="userSpaceOnUse"><stop stop-color="#fff" offset="0"/><stop stop-color="#fff" stop-opacity="0" offset="1"/></linearGradient><linearGradient id="linearGradient4068" x1="121.56" x2="125.21" y1="19.167" y2="34.649" gradientUnits="userSpaceOnUse" xlink:href="#linearGradient4113"/><linearGradient id="linearGradient4098" x1="119.64" x2="125.45" y1="29.056" y2="29.056" gradientTransform="matrix(1.1362,0,0,12.873,-16.353,-294.51)" gradientUnits="userSpaceOnUse" xlink:href="#linearGradient4113"/><linearGradient id="linearGradient4139" x1="53.239" x2="55.497" y1="55.698" y2="64.126" gradientUnits="userSpaceOnUse" xlink:href="#linearGradient4113"/><linearGradient id="linearGradient2696" x1="116.65" x2="123.94" y1="205.69" y2="213.89" gradientUnits="userSpaceOnUse"><stop stop-color="#fff" offset="0"/><stop stop-color="#fff" stop-opacity="0" offset="1"/></linearGradient></defs><g transform="translate(-68.8 -91.976)"><g transform="matrix(.26458 0 0 .26458 67.956 96.614)"><path d="m171.5 224.96v6.2c0 5.34-20.76 9.67-46.36 9.67-25.606 0-46.37-4.33-46.37-9.67v-6.2c0 5.34 20.764 9.67 46.37 9.67 25.6 0 46.36-4.33 46.36-9.67z" fill="#808080"/><path transform="matrix(.37239 0 0 1.4318 -4.5886 -647.27)" d="m472.48 609.67a124.25 7.4202 0 1 1-248.49 0 124.25 7.4202 0 1 1 248.49 0z" fill="#676766" fill-rule="evenodd" opacity=".9931"/><path d="m166.04 218.11v4.37c0 3.75-18.05 6.8-40.32 6.8-22.26 0-40.317-3.05-40.317-6.8v-4.37c0 3.76 18.057 6.8 40.317 6.8 22.27 0 40.32-3.04 40.32-6.8z" fill="#999"/><path transform="matrix(.53154 0 0 .32947 -54.186 26.717)" d="m414.15 581.19a75.928 23.469 0 1 1-151.85 0 75.928 23.469 0 1 1 151.85 0z" fill="url(#radialGradient3485)" fill-rule="evenodd" opacity=".9931"/><g transform="matrix(.36429 0 0 .36429 -16.537 -38.944)"><path d="m319.81 174.94c-9.75 0.15-19.42 2.58-32.59 8.56-14.34 6.51-25.2 12.59-36.66 17.34-13.4 5.56-19.6 3.41-30.97-1.62-2.56-1.13-4.68-2.33-6.62-3.47-12.28-7.22-16.08-6.64-23.97 1.5-1.85-2.46-4.36-3.97-7.12-3.97-5.7 0-10.32 6.41-10.32 14.31 0 7.91 4.62 14.32 10.32 14.32 2.37 0 4.56-1.12 6.31-3 3.6-3.89 5.32-4.14 8.59-0.19 4.36 5.25 5.81 5.98 5.81 12.75v3.56c0 3.53-0.83 5.55-5.37 5.66-4.16 0.09-4.78-4.08-6.06-7.1-0.47-1.11-0.42-1.38-1.57-1.78-2.84-0.99-3.22-0.84-5.47 0.94-1.14 0.91-1.02 1.08-1.12 2.53-0.3 4.46-0.6 5.61 3.31 9.19 3.17 2.9 5.56 4.73 11 4.5 23.33-0.99 10.14-22.13 10.25-33.06-0.07-3.46 0.22-4.41 0.97-5 2.11-1.68 3.24-0.61 5.56 0.21 7.74 2.75 17.11 5.32 36.03 6.88 6.94-0.1 13.58-1.24 20.19-2.84 16.9-4.1 33.52-11.18 53.75-11.54 14.06-0.24 29.89 2.74 48.78 12.29h32.72c18.9-9.55 34.72-12.53 48.78-12.29 20.24 0.36 36.83 7.44 53.72 11.54 6.61 1.6 13.29 2.74 20.22 2.84 18.93-1.56 28.27-4.13 36-6.88 2.32-0.82 3.48-1.89 5.6-0.21 0.74 0.59 1 1.54 0.93 5 0.11 10.93-13.08 32.07 10.25 33.06 5.45 0.23 7.83-1.6 11-4.5 3.91-3.58 3.61-4.73 3.32-9.19-0.1-1.45 0.02-1.62-1.13-2.53-2.24-1.78-2.6-1.93-5.44-0.94-1.14 0.4-1.09 0.67-1.56 1.78-1.28 3.02-1.91 7.19-6.06 7.1-4.55-0.11-5.38-2.13-5.38-5.66v-3.56c0-6.77 1.43-7.5 5.78-12.75 3.28-3.95 4.99-3.7 8.6 0.19 1.74 1.88 3.93 3 6.31 3 5.69 0 10.31-6.41 10.31-14.32 0-7.9-4.62-14.31-10.31-14.31-2.76 0-5.28 1.51-7.12 3.97-7.9-8.14-11.67-8.72-23.94-1.5-1.94 1.14-4.1 2.34-6.66 3.47-11.36 5.03-17.53 7.18-30.94 1.62-11.45-4.75-22.31-10.83-36.65-17.34-23.42-10.63-35.79-10.09-57.19-5.41-8.96 1.96-17.76 4.84-28.44 9.66h-32.72c-10.67-4.82-19.48-7.7-28.43-9.66-9.36-2.04-17.01-3.27-24.6-3.15z" fill="#808080"/><path d="m319.81 175.78c-9.62 0.16-19.14 2.55-32.25 8.5-14.3 6.49-25.17 12.57-36.68 17.34-6.78 2.82-11.85 3.71-16.66 3.22-4.81-0.48-9.28-2.32-14.97-4.84-2.6-1.15-4.77-2.38-6.72-3.53-6.1-3.59-9.97-5.11-13.12-4.88-3.16 0.24-5.91 2.22-9.82 6.25-0.17 0.18-0.41 0.27-0.66 0.25-0.24-0.02-0.47-0.14-0.62-0.34-1.73-2.3-3.98-3.63-6.43-3.63-2.53 0-4.85 1.42-6.6 3.85-1.75 2.42-2.87 5.84-2.87 9.62 0 3.79 1.12 7.2 2.87 9.63 1.75 2.42 4.07 3.84 6.6 3.84 2.11 0 4.06-0.97 5.68-2.72 1.84-1.98 3.29-3.24 5-3.31 0.86-0.04 1.69 0.27 2.47 0.81 0.78 0.55 1.56 1.33 2.41 2.35 2.16 2.6 3.63 4.1 4.62 5.93 0.99 1.84 1.38 3.9 1.38 7.35v3.56c0 1.83-0.18 3.45-1.16 4.66s-2.63 1.79-5.03 1.84c-2.36 0.05-3.95-1.22-4.87-2.78-0.93-1.56-1.4-3.39-2-4.81-0.25-0.59-0.38-0.92-0.44-1-0.06-0.09-0.11-0.14-0.63-0.32-1.39-0.48-2.06-0.64-2.53-0.56-0.47 0.09-1.01 0.46-2.12 1.35-0.55 0.43-0.65 0.56-0.69 0.68-0.05 0.13-0.08 0.5-0.13 1.25-0.15 2.25-0.28 3.55 0.04 4.63 0.31 1.08 1.08 2.12 3 3.87 3.14 2.88 5.16 4.5 10.4 4.28 5.7-0.24 9-1.68 10.84-3.74 1.85-2.07 2.37-4.89 2.19-8.16-0.35-6.54-3.65-14.5-3.59-20.31-0.04-1.76 0-2.88 0.19-3.75 0.18-0.87 0.59-1.51 1.09-1.91 1.18-0.94 2.37-1.2 3.41-1 1.03 0.2 1.87 0.71 2.97 1.09 7.67 2.73 16.92 5.26 35.74 6.82 0.03 0 0.04-0.01 0.07 0 6.83-0.11 13.38-1.23 19.93-2.82 16.81-4.07 33.52-11.2 53.94-11.56 14.15-0.25 30.05 2.76 48.97 12.28h32.35c18.91-9.52 34.82-12.53 48.96-12.28 20.43 0.36 37.11 7.49 53.91 11.56 6.55 1.59 13.14 2.71 19.97 2.82h0.06c18.83-1.56 28.04-4.09 35.72-6.82 1.09-0.38 1.96-0.89 3-1.09s2.22 0.06 3.41 1c0.5 0.4 0.88 1.04 1.06 1.91 0.17 0.86 0.22 2.03 0.19 3.78 0.05 5.81-3.24 13.74-3.6 20.28-0.17 3.27 0.34 6.09 2.19 8.16 1.85 2.06 5.14 3.5 10.84 3.74 5.25 0.22 7.27-1.4 10.41-4.28 1.91-1.75 2.69-2.79 3-3.87s0.18-2.38 0.03-4.63c-0.05-0.75-0.08-1.12-0.12-1.25-0.05-0.12-0.15-0.25-0.69-0.68-1.11-0.89-1.67-1.26-2.13-1.35-0.45-0.08-1.1 0.08-2.5 0.56-0.51 0.18-0.56 0.23-0.62 0.32-0.06 0.08-0.19 0.41-0.44 1-0.6 1.42-1.07 3.25-2 4.81-0.92 1.56-2.51 2.83-4.87 2.78-2.4-0.05-4.06-0.63-5.04-1.84-0.97-1.21-1.15-2.83-1.15-4.66v-3.56c0-3.45 0.36-5.51 1.34-7.35 0.98-1.83 2.47-3.33 4.63-5.93 0.84-1.02 1.62-1.8 2.4-2.35 0.78-0.54 1.62-0.85 2.47-0.81 1.72 0.07 3.16 1.33 5 3.31 1.62 1.75 3.58 2.72 5.69 2.72 2.53 0 4.85-1.42 6.59-3.84 1.75-2.43 2.88-5.84 2.88-9.63 0-3.78-1.13-7.2-2.88-9.62-1.74-2.43-4.06-3.85-6.59-3.85-2.45 0-4.71 1.33-6.44 3.63-0.14 0.2-0.37 0.32-0.62 0.34-0.24 0.02-0.48-0.07-0.66-0.25-3.91-4.03-6.63-6.01-9.78-6.25-3.15-0.23-7.03 1.29-13.12 4.88-1.96 1.15-4.15 2.38-6.76 3.53-5.69 2.52-10.16 4.36-14.96 4.84-4.8 0.49-9.85-0.4-16.63-3.22-11.52-4.77-22.38-10.85-36.69-17.34-23.3-10.57-35.31-10.04-56.65-5.37-8.9 1.94-17.65 4.82-28.28 9.62-0.11 0.05-0.23 0.07-0.35 0.06h-32.72c-0.11 0.01-0.23-0.01-0.34-0.06-10.63-4.8-19.38-7.68-28.28-9.62-9.34-2.05-16.92-3.25-24.41-3.13z" fill="url(#linearGradient3487)"/></g><path transform="matrix(.36429 0 0 .36429 -16.537 -38.944)" d="m389.19 115.41c-9.66 0-17.35 8.97-17.35 19.84 0 7.25 3.44 13.56 8.6 17.03v9.78c-1.17 1.37-2.35 2.74-3.53 4.13-2.7 3.16-4.04 5.27-4.63 7.69-0.59 2.4-0.44 4.89-0.44 9v47.15c0 0.67 0.55 1.22 1.22 1.22h6.1c-1.07 1.28-1.83 2.7-2.16 4.28-0.49 2.4-0.44 5.03-0.44 7.75 0 2.71-0.1 5.26 0.35 7.63 0.29 1.56 1.04 2.98 2.06 4.25h-5.91c-0.67 0-1.22 0.54-1.22 1.22v414.06c0 0.56 0.39 1.05 0.94 1.18 0.7 0.17 1.42 0.3 2.13 0.44l-14.25 15.69c-0.42 0.46-0.42 1.16 0 1.63l16.12 18.5c0.15 0.15 0.33 0.27 0.53 0.34 4.43 1.41 7.46 1.97 11.94 1.97 3.37 0 8.15-0.79 11.53-1.97 0.21-0.08 0.39-0.21 0.53-0.38l15.85-18.5c0.38-0.46 0.37-1.14-0.04-1.59l-14-15.72c0.81-0.13 1.63-0.26 2.44-0.41 0.58-0.1 1-0.6 1-1.18v-414.06c0-0.68-0.54-1.22-1.22-1.22h-5.65c0.98-1.29 1.66-2.72 1.84-4.28 0.28-2.37 0-4.93 0-7.6 0-2.68 0.23-5.29-0.09-7.69-0.21-1.56-0.77-3.06-1.75-4.34h5.65c0.68 0 1.22-0.55 1.22-1.22v-47.15c0-4.14 0.14-6.64-0.47-9.04-0.6-2.39-1.91-4.52-4.65-7.68-1.21-1.4-2.43-2.78-3.63-4.16v-9.62c5.23-3.46 8.75-9.82 8.75-17.13 0-10.87-7.72-19.84-17.37-19.84zm-8.47 37.12c0.02 0.02 0.04 0.05 0.06 0.06-0.02-0.01-0.04-0.01-0.06-0.03zm16.75 0.13c-0.03 0.02-0.03 0.07-0.06 0.09l-0.03-0.03zm-16.66 76.87c0.01-0.01 0.05 0.01 0.07 0-0.03 0.02-0.04 0.05-0.07 0.06 0.01-0.01-0.01-0.05 0-0.06zm17.38 27.28c-0.01 0.02-0.02 0.04-0.03 0.07-0.02 0.01-0.05 0.01-0.07 0.03 0.04-0.03 0.06-0.07 0.1-0.1z" fill="#808080"/><path d="m125.24 3.4624c-3.29 0-5.95 3.0746-5.95 6.8646 0 2.612 1.26 4.885 3.13 6.045v3.848c-0.46 0.537-0.92 1.068-1.38 1.605-1.94 2.274-1.75 2.85-1.75 5.852v17.258h3.16c-1.55 0.983-1.44 2.759-1.44 4.747s-0.15 3.697 1.35 4.69h-3.07v150.99c0.48 0.11 0.96 0.22 1.44 0.3l-5.66 6.23 5.94 6.81c1.61 0.52 2.64 0.71 4.25 0.71 1.18 0 2.94-0.29 4.11-0.71l5.83-6.81-5.59-6.27c0.53-0.07 1.07-0.16 1.6-0.26v-150.99l-2.96 2e-3c1.5-0.993 1.12-2.702 1.12-4.69s0.34-3.764-1.21-4.747h3.05v-17.258c0-3.022 0.18-3.578-1.79-5.852-0.47-0.537-0.94-1.068-1.4-1.605v-3.814c1.89-1.149 3.19-3.443 3.19-6.079 0-3.79-2.68-6.8646-5.97-6.8646z" fill="#b2b2b2"/><path transform="matrix(.36429 0 0 .36429 -16.537 -38.944)" d="m389.19 117.78c-8.19 0-14.97 7.71-14.97 17.47 0 6.73 3.26 12.53 7.94 15.44 0.4 0.24 0.65 0.68 0.65 1.15v10.57c-0.01 0.32-0.13 0.63-0.34 0.87-1.26 1.48-2.53 2.94-3.78 4.41-2.61 3.06-3.62 4.79-4.1 6.72-0.47 1.93-0.37 4.32-0.37 8.47v46h7.31c0.61-0.01 1.16 0.39 1.33 0.98 0.18 0.59-0.06 1.22-0.58 1.55-1.8 1.14-2.59 2.58-3 4.59s-0.34 4.53-0.34 7.28c0 2.76-0.09 5.25 0.28 7.22s1.07 3.35 2.81 4.5c0.52 0.33 0.76 0.96 0.58 1.55-0.17 0.59-0.72 0.99-1.33 0.98h-7.06v411.97c0.94 0.21 1.87 0.44 2.81 0.59 0.49 0.09 0.9 0.42 1.07 0.89 0.16 0.47 0.07 0.99-0.26 1.36l-14.72 16.25 15.19 17.44c4.13 1.29 6.75 1.78 10.94 1.78 2.92 0 7.48-0.76 10.5-1.78l14.97-17.44-14.56-16.34c-0.33-0.38-0.42-0.91-0.25-1.37 0.18-0.47 0.6-0.81 1.09-0.88 1.06-0.15 2.12-0.35 3.19-0.53v-411.94h-6.75c-0.62 0.01-1.16-0.39-1.33-0.98-0.18-0.59 0.06-1.22 0.58-1.55 1.71-1.13 2.23-2.44 2.47-4.41 0.23-1.97 0-4.49 0-7.31 0-2.8 0.21-5.37-0.07-7.37-0.27-2.01-0.88-3.38-2.65-4.5-0.52-0.33-0.76-0.96-0.58-1.55 0.17-0.59 0.71-0.99 1.33-0.98h7v-46c0-4.18 0.1-6.56-0.38-8.47-0.48-1.92-1.53-3.63-4.19-6.69-1.26-1.47-2.56-2.93-3.84-4.41-0.22-0.25-0.34-0.57-0.34-0.9v-10.47c-0.01-0.49 0.24-0.94 0.65-1.19 4.75-2.88 8.1-8.71 8.1-15.5 0-9.76-6.82-17.47-15-17.47z" fill="url(#linearGradient3489)" filter="url(#filter3548)"/><path d="m128.83 218.31 5.09-5.94c-6.76 1.08-10.81 1.08-17.56 0l5.17 5.94c1.41 0.45 2.31 0.62 3.72 0.62 1.03 0 2.56-0.26 3.58-0.62z" fill="url(#linearGradient3979)" filter="url(#filter3563)" opacity=".80345"/><g transform="matrix(1.1328,0,0,1.1328,-16.628,-12.742)"><path d="m120.02 48.316c3.38 0.521 6.85 0.485 10.39 0 0.74-0.101 0.79-0.154 0.79 0.592v1.775c0 0.697 0.09 0.577-0.61 0.663-3.52 0.432-7.05 0.406-10.57 0-0.83-0.096-0.74 0.067-0.74-0.757v-1.705c0-0.711 0.03-0.568 0.74-0.568z"/><path transform="matrix(.36429 0 0 .36429 -16.537 -38.944)" d="m404.59 239.88c-0.26 0.01-0.64 0.08-1.15 0.15-9.75 1.34-19.26 1.43-28.56 0h-0.07c-0.46 0-0.84-0.02-1.09-0.03-0.27-0.01-0.4 0.04-0.38 0.03s0.03-0.07 0 0.09c-0.03 0.17-0.03 0.49-0.03 0.97v4.69c0 0.57-0.01 0.98 0 1.22 0.02 0.24 0.04 0.22 0 0.19-0.04-0.04 0.04 0 0.31 0.03 0.28 0.03 0.73 0.06 1.32 0.12 9.63 1.11 19.25 1.18 28.87 0 0.5-0.06 0.87-0.06 1.1-0.09 0.22-0.03 0.24-0.09 0.18-0.03-0.05 0.05-0.03 0.05-0.03-0.16 0.01-0.2 0-0.54 0-1.03v-4.87c0-0.51-0.02-0.86-0.06-1.07-0.04-0.2-0.07-0.22-0.06-0.21 0.01 0-0.09-0.02-0.35 0z" fill="url(#linearGradient3984)"/></g><path d="m120.02 16.631c3.38 0.521 6.85 0.485 10.39 0 0.74-0.101 0.79-0.154 0.79 0.592v1.775c0 0.697 0.09 0.577-0.61 0.663-3.52 0.432-7.05 0.406-10.57 0-0.83-0.095-0.74 0.067-0.74-0.757v-1.705c0-0.711 0.03-0.568 0.74-0.568z"/><path transform="matrix(.36429 0 0 .36429 -16.537 -70.628)" d="m404.59 239.88c-0.26 0.01-0.64 0.08-1.15 0.15-9.75 1.34-19.26 1.43-28.56 0h-0.07c-0.46 0-0.84-0.02-1.09-0.03-0.27-0.01-0.4 0.04-0.38 0.03s0.03-0.07 0 0.09c-0.03 0.17-0.03 0.49-0.03 0.97v4.69c0 0.57-0.01 0.98 0 1.22 0.02 0.24 0.04 0.22 0 0.19-0.04-0.04 0.04 0 0.31 0.03 0.28 0.03 0.73 0.06 1.32 0.12 9.63 1.11 19.25 1.18 28.87 0 0.5-0.06 0.87-0.06 1.1-0.09 0.22-0.03 0.24-0.09 0.18-0.03-0.05 0.05-0.03 0.05-0.03-0.16 0.01-0.2 0-0.54 0-1.03v-4.87c0-0.51-0.02-0.86-0.06-1.07-0.04-0.2-0.07-0.22-0.06-0.21 0.01 0-0.09-0.02-0.35 0z" fill="url(#linearGradient3984)"/><path d="m124.72 4.1875c-2.79 0-4.31 2.4187-4.41 5.125-0.03 0.8025 0.34 1.5675 1 2.0245 0.67 0.457 1.51 0.542 2.25 0.225 1.23-0.516 2.49-1.113 3.78-1.8432 0.56-0.3162 0.96-0.8462 1.11-1.4664 0.16-0.6202 0.05-1.2762-0.29-1.8149-0.61-0.9678-1.51-2.25-3.44-2.25z" fill="url(#linearGradient3970)" fill-rule="evenodd"/><path d="m119.62 56.562v148.97h7.63v-148.97l-7.63 2e-3z" fill="url(#linearGradient4098)" fill-rule="evenodd"/><g transform="matrix(1.1328 0 0 1.1328 -16.628 -.976)"><path d="m120.02 48.316c3.38 0.521 6.85 0.485 10.39 0 0.74-0.101 0.79-0.154 0.79 0.592v1.775c0 0.697 0.09 0.577-0.61 0.663-3.52 0.432-7.05 0.406-10.57 0-0.83-0.096-0.74 0.067-0.74-0.757v-1.705c0-0.711 0.03-0.568 0.74-0.568z"/><path transform="matrix(.36429 0 0 .36429 -16.537 -38.944)" d="m404.59 239.88c-0.26 0.01-0.64 0.08-1.15 0.15-9.75 1.34-19.26 1.43-28.56 0h-0.07c-0.46 0-0.84-0.02-1.09-0.03-0.27-0.01-0.4 0.04-0.38 0.03s0.03-0.07 0 0.09c-0.03 0.17-0.03 0.49-0.03 0.97v4.69c0 0.57-0.01 0.98 0 1.22 0.02 0.24 0.04 0.22 0 0.19-0.04-0.04 0.04 0 0.31 0.03 0.28 0.03 0.73 0.06 1.32 0.12 9.63 1.11 19.25 1.18 28.87 0 0.5-0.06 0.87-0.06 1.1-0.09 0.22-0.03 0.24-0.09 0.18-0.03-0.05 0.05-0.03 0.05-0.03-0.16 0.01-0.2 0-0.54 0-1.03v-4.87c0-0.51-0.02-0.86-0.06-1.07-0.04-0.2-0.07-0.22-0.06-0.21 0.01 0-0.09-0.02-0.35 0z" fill="url(#linearGradient3984)"/></g><path d="m122.53 46.375c-0.73 0.062-1.29 0.675-1.28 1.406v2.907c0 0.523 0.3 1.001 0.77 1.238 0.46 0.237 1.02 0.193 1.45-0.114 0.65-0.467 1.35-0.937 2.09-1.562 0.32-0.264 0.5-0.652 0.5-1.062v-1.407c0-0.373-0.14-0.732-0.41-0.996-0.26-0.264-0.62-0.412-0.99-0.41h-2c-0.05-2e-3 -0.09-2e-3 -0.13 0z" fill="url(#linearGradient4022)" fill-rule="evenodd"/><path transform="matrix(1.1362 0 0 1 -16.353 -.80001)" d="m123.88 21.594c-0.59 0.016-1.23 0.45-1.35 0.562-0.55 0.537-1.28 1.155-2 2.032-0.02 0.029-0.46 0.468-0.47 1.281v13.625c0 0.459-0.15 0.721 0.6 1.468 0.74 0.747 1.01 0.596 1.46 0.594h1.82c0.46 2e-3 0.72 0.153 1.47-0.594 0.74-0.746 0.59-1.009 0.59-1.468v-15.438s-0.06-0.499-0.06-0.5c0 0-0.05-0.145-0.06-0.187-0.04-0.084-0.05-0.124-0.07-0.157-0.03-0.065-0.04-0.066-0.06-0.093-0.03-0.055-0.04-0.116-0.06-0.157-0.05-0.081-0.06-0.127-0.35-0.406 0.18 0.17 0.35 0.255-0.18-0.156-0.54-0.411-1.14-0.411-1.28-0.406z" fill="url(#linearGradient4068)" fill-rule="evenodd"/><path d="m44.398 77.275c2.672 0 3.526 0 5.845-2.503 1.186-3.274 2.758-3.274 5.055-3.274 2.296 0 3.868 0 5.054 3.274 2.319 2.503 3.173 2.503 5.845 2.503 2.005-2.304 2.047-3.208-0.26-4.622-1.299 0-1.299 0-1.299 1.092-2.722 0.045-2.742 0.043-3.052-0.771l-2.832-17.874c-0.065-0.614-0.275-0.614-0.775-0.627l-0.549 0.013-0.541-5.297c-0.108-1.058-0.108-1.058-0.853-1.058h-1.477c-0.745 0-0.745 0-0.853 1.058l-0.541 5.297-0.549-0.013c-0.5 0.013-0.71 0.013-0.775 0.627l-2.832 17.874c-0.31 0.814-0.33 0.816-3.052 0.771 0-1.092 0-1.092-1.299-1.092-2.307 1.414-2.265 2.318-0.26 4.622z" fill="#c5b37b"/><path d="m54.156 48.438c5e-3 -7e-3 -0.07 0.25-0.125 0.781l-0.562 5.312c-6e-3 0.057-0.028 0.111-0.063 0.157-0.033 0.041-0.076 0.073-0.125 0.093-0.048 0.024-0.102 0.035-0.156 0.031l-0.5-0.031h-0.031c-0.213 9e-3 -0.331 0.024-0.344 0.031-0.014 9e-3 -0.065 0.042-0.094 0.313 1e-3 0.01 1e-3 0.021 0 0.031l-2.844 17.875c-8e-3 0.022-0.018 0.043-0.031 0.063-0.077 0.203-0.124 0.363-0.25 0.531-0.125 0.168-0.327 0.282-0.562 0.344-0.472 0.123-1.138 0.116-2.5 0.093-0.083 1e-3 -0.163-0.032-0.221-0.091-0.059-0.058-0.092-0.138-0.092-0.221 0-0.272-0.015-0.477-0.031-0.594s-0.026-0.12-0.031-0.125c-5e-3 -4e-3 -0.06-0.047-0.219-0.062-0.131-0.013-0.35 0-0.594 0-0.539 0.333-0.94 0.631-1.187 0.906-0.255 0.283-0.366 0.517-0.375 0.781-0.019 0.512 0.448 1.233 1.375 2.313 1.211-2e-3 2.023-0.01 2.75-0.281 0.761-0.284 1.53-0.884 2.656-2.094 5e-3 -0.014 0.026-0.018 0.031-0.032 0.599-1.588 1.298-2.496 2.188-2.937 0.916-0.454 1.945-0.437 3.093-0.437 1.149-1e-3 2.154-0.017 3.063 0.437 0.883 0.441 1.59 1.35 2.187 2.937 0.013 0.014 0.02 0.019 0.032 0.032 1.125 1.21 1.894 1.81 2.656 2.094 0.727 0.271 1.539 0.279 2.75 0.281 0.927-1.08 1.393-1.801 1.375-2.313-0.01-0.264-0.12-0.498-0.375-0.781-0.248-0.275-0.649-0.573-1.188-0.906-0.244 0-0.462-0.013-0.593 0-0.159 0.015-0.214 0.058-0.219 0.062s-0.015 8e-3 -0.031 0.125c-0.017 0.117-0.031 0.322-0.031 0.594 0 0.068-0.022 0.133-0.063 0.188-0.059 0.078-0.152 0.125-0.25 0.124-1.362 0.023-2.029 0.03-2.5-0.093-0.236-0.062-0.437-0.176-0.563-0.344-0.125-0.168-0.172-0.328-0.25-0.531-0.012-0.02-0.023-0.041-0.031-0.063l-2.843-17.875c-1e-3 -0.01-1e-3 -0.021 0-0.031-0.029-0.271-0.08-0.304-0.094-0.313-0.013-7e-3 -0.131-0.022-0.344-0.031-0.019-1e-3 -0.01 1e-3 -0.031 0l-0.5 0.031c-0.093 8e-3 -0.185-0.026-0.25-0.093-0.052-0.05-0.085-0.116-0.094-0.188l-0.563-5.312c-0.054-0.531-0.129-0.788-0.124-0.781 2e-3 3e-3 0.032 0.01-0.032 0-0.064-0.011-0.189 0-0.375 0h-1.469c-0.185 0-0.311-0.011-0.374 0-0.064 0.01-0.034 3e-3 -0.032 0z" fill="#a0a0a0" fill-opacity=".23228"/><path transform="matrix(.36429 0 0 .36429 -16.537 -38.944)" d="m196.88 257.38c-0.71 0.1-1.33 0.55-1.66 1.18-0.5 0.95-1.31 1.68-2.31 2.06-0.76 0.27-1.31 0.93-1.44 1.72l-5.5 34.88v0.03c-0.1 0.74 0.19 1.51 0.78 2s1.38 0.65 2.13 0.41h0.03c2.88-0.98 5.6-0.91 8.28-0.91s5.39-0.07 8.28 0.91h0.03c0.75 0.24 1.53 0.08 2.12-0.41 0.6-0.49 0.89-1.26 0.79-2v-0.03l-5.5-34.91c-0.14-0.79-0.71-1.48-1.47-1.75-1-0.37-1.81-1.09-2.32-2.03-0.42-0.8-1.28-1.25-2.18-1.15-0.02-0.01-0.04-0.01-0.06 0z" fill="#bc955d"/><path d="m55.219 55.75c-0.235 0.016-0.457 0.116-0.625 0.281-0.225 0.212-0.301 0.294-0.282 0.281-0.237 0.156-0.397 0.407-0.437 0.688l-0.969 6c-0.054 0.393 0.131 0.781 0.472 0.985 0.34 0.204 0.769 0.185 1.091-0.047 0.814-0.635 1.662-1.171 2.593-2 0.254-0.229 0.372-0.571 0.313-0.907l-0.656-4.031c-0.041-0.281-0.2-0.532-0.438-0.688-6e-3 -3e-3 -0.128-0.118-0.343-0.312-0.197-0.176-0.456-0.266-0.719-0.25z" fill="url(#linearGradient4139)"/><path d="m62.812 73.062c-0.29 0.018-0.553 0.229-0.5 0.594l45.098 111.78c-5.56-1.53-26.354-6.03-51.316-6.03-25.295 0-46.419 3.29-51.625 5.56l43.625-111.28c-0.059-0.514-1.144-0.421-1.282 0.091l-43.624 112.06c8e-4 0.04 0.0255 0.06 0.0308 0.1 0.017 0.11 0.07 0.19 0.125 0.28 0.0616 0.09 0.1161 0.18 0.2187 0.25 0.0283 0.02 0.0627 0.04 0.0937 0.06 0.0037 0-0.0036 0.03 0 0.03 9.4088 12.55 25.445 24.88 52.5 24.88 21.664 0 44.314-8.8 52.844-25.5h-0.03l-45.376-112.28c-0.148-0.45-0.491-0.615-0.782-0.598z" fill="#181818"/><path transform="matrix(.36429 0 0 .36429 -16.537 -38.944)" d="m199.38 602.81c-39.91 0-76.07 3.01-102.16 6.72-13.045 1.86-23.591 3.92-30.72 5.81-3.002 0.8-5.007 1.55-6.656 2.22 1.672 0.87 3.825 1.85 6.937 2.97 7.126 2.57 17.638 5.54 30.657 8.31 26.032 5.55 62.132 10.41 101.94 10.41 39.73 0 75.79-6.05 101.87-12.22 13.04-3.08 23.59-6.2 30.84-8.59 0.77-0.26 1.06-0.39 1.75-0.63-0.59-0.14-0.82-0.22-1.46-0.37-7.27-1.71-17.85-3.9-30.91-6.06-26.13-4.33-62.26-8.57-102.09-8.57z" fill="url(#radialGradient3609)"/><g transform="translate(139.84)"><path d="m44.398 77.275c2.672 0 3.526 0 5.845-2.503 1.186-3.274 2.758-3.274 5.055-3.274 2.296 0 3.868 0 5.054 3.274 2.319 2.503 3.173 2.503 5.845 2.503 2.005-2.304 2.047-3.208-0.26-4.622-1.299 0-1.299 0-1.299 1.092-2.722 0.045-2.742 0.043-3.052-0.771l-2.832-17.874c-0.065-0.614-0.275-0.614-0.775-0.627l-0.549 0.013-0.541-5.297c-0.108-1.058-0.108-1.058-0.853-1.058h-1.477c-0.745 0-0.745 0-0.853 1.058l-0.541 5.297-0.549-0.013c-0.5 0.013-0.71 0.013-0.775 0.627l-2.832 17.874c-0.31 0.814-0.33 0.816-3.052 0.771 0-1.092 0-1.092-1.299-1.092-2.307 1.414-2.265 2.318-0.26 4.622z" fill="#c5b37b"/><path d="m54.156 48.438c5e-3 -7e-3 -0.07 0.25-0.125 0.781l-0.562 5.312c-6e-3 0.057-0.028 0.111-0.063 0.157-0.033 0.041-0.076 0.073-0.125 0.093-0.048 0.024-0.102 0.035-0.156 0.031l-0.5-0.031h-0.031c-0.213 9e-3 -0.331 0.024-0.344 0.031-0.014 9e-3 -0.065 0.042-0.094 0.313 1e-3 0.01 1e-3 0.021 0 0.031l-2.844 17.875c-8e-3 0.022-0.018 0.043-0.031 0.063-0.077 0.203-0.124 0.363-0.25 0.531-0.125 0.168-0.327 0.282-0.562 0.344-0.472 0.123-1.138 0.116-2.5 0.093-0.083 1e-3 -0.163-0.032-0.221-0.091-0.059-0.058-0.092-0.138-0.092-0.221 0-0.272-0.015-0.477-0.031-0.594s-0.026-0.12-0.031-0.125c-5e-3 -4e-3 -0.06-0.047-0.219-0.062-0.131-0.013-0.35 0-0.594 0-0.539 0.333-0.94 0.631-1.187 0.906-0.255 0.283-0.366 0.517-0.375 0.781-0.019 0.512 0.448 1.233 1.375 2.313 1.211-2e-3 2.023-0.01 2.75-0.281 0.761-0.284 1.53-0.884 2.656-2.094 5e-3 -0.014 0.026-0.018 0.031-0.032 0.599-1.588 1.298-2.496 2.188-2.937 0.916-0.454 1.945-0.437 3.093-0.437 1.149-1e-3 2.154-0.017 3.063 0.437 0.883 0.441 1.59 1.35 2.187 2.937 0.013 0.014 0.02 0.019 0.032 0.032 1.125 1.21 1.894 1.81 2.656 2.094 0.727 0.271 1.539 0.279 2.75 0.281 0.927-1.08 1.393-1.801 1.375-2.313-0.01-0.264-0.12-0.498-0.375-0.781-0.248-0.275-0.649-0.573-1.188-0.906-0.244 0-0.462-0.013-0.593 0-0.159 0.015-0.214 0.058-0.219 0.062s-0.015 8e-3 -0.031 0.125c-0.017 0.117-0.031 0.322-0.031 0.594 0 0.068-0.022 0.133-0.063 0.188-0.059 0.078-0.152 0.125-0.25 0.124-1.362 0.023-2.029 0.03-2.5-0.093-0.236-0.062-0.437-0.176-0.563-0.344-0.125-0.168-0.172-0.328-0.25-0.531-0.012-0.02-0.023-0.041-0.031-0.063l-2.843-17.875c-1e-3 -0.01-1e-3 -0.021 0-0.031-0.029-0.271-0.08-0.304-0.094-0.313-0.013-7e-3 -0.131-0.022-0.344-0.031-0.019-1e-3 -0.01 1e-3 -0.031 0l-0.5 0.031c-0.093 8e-3 -0.185-0.026-0.25-0.093-0.052-0.05-0.085-0.116-0.094-0.188l-0.563-5.312c-0.054-0.531-0.129-0.788-0.124-0.781 2e-3 3e-3 0.032 0.01-0.032 0-0.064-0.011-0.189 0-0.375 0h-1.469c-0.185 0-0.311-0.011-0.374 0-0.064 0.01-0.034 3e-3 -0.032 0z" fill="#a0a0a0" fill-opacity=".23228"/><path transform="matrix(.36429 0 0 .36429 -16.537 -38.944)" d="m196.88 257.38c-0.71 0.1-1.33 0.55-1.66 1.18-0.5 0.95-1.31 1.68-2.31 2.06-0.76 0.27-1.31 0.93-1.44 1.72l-5.5 34.88v0.03c-0.1 0.74 0.19 1.51 0.78 2s1.38 0.65 2.13 0.41h0.03c2.88-0.98 5.6-0.91 8.28-0.91s5.39-0.07 8.28 0.91h0.03c0.75 0.24 1.53 0.08 2.12-0.41 0.6-0.49 0.89-1.26 0.79-2v-0.03l-5.5-34.91c-0.14-0.79-0.71-1.48-1.47-1.75-1-0.37-1.81-1.09-2.32-2.03-0.42-0.8-1.28-1.25-2.18-1.15-0.02-0.01-0.04-0.01-0.06 0z" fill="#bc955d"/><path d="m55.219 55.75c-0.235 0.016-0.457 0.116-0.625 0.281-0.225 0.212-0.301 0.294-0.282 0.281-0.237 0.156-0.397 0.407-0.437 0.688l-0.969 6c-0.054 0.393 0.131 0.781 0.472 0.985 0.34 0.204 0.769 0.185 1.091-0.047 0.814-0.635 1.662-1.171 2.593-2 0.254-0.229 0.372-0.571 0.313-0.907l-0.656-4.031c-0.041-0.281-0.2-0.532-0.438-0.688-6e-3 -3e-3 -0.128-0.118-0.343-0.312-0.197-0.176-0.456-0.266-0.719-0.25z" fill="url(#linearGradient4139)"/><path d="m62.812 73.062c-0.29 0.018-0.553 0.229-0.5 0.594l45.098 111.78c-5.56-1.53-26.354-6.03-51.316-6.03-25.295 0-46.419 3.29-51.625 5.56l43.625-111.28c-0.059-0.514-1.144-0.421-1.282 0.091l-43.624 112.06c8e-4 0.04 0.0255 0.06 0.0308 0.1 0.017 0.11 0.07 0.19 0.125 0.28 0.0616 0.09 0.1161 0.18 0.2187 0.25 0.0283 0.02 0.0627 0.04 0.0937 0.06 0.0037 0-0.0036 0.03 0 0.03 9.4088 12.55 25.445 24.88 52.5 24.88 21.664 0 44.314-8.8 52.844-25.5h-0.03l-45.376-112.28c-0.148-0.45-0.491-0.615-0.782-0.598z" fill="#181818"/><path transform="matrix(.36429 0 0 .36429 -16.537 -38.944)" d="m199.38 602.81c-39.91 0-76.07 3.01-102.16 6.72-13.045 1.86-23.591 3.92-30.72 5.81-3.002 0.8-5.007 1.55-6.656 2.22 1.672 0.87 3.825 1.85 6.937 2.97 7.126 2.57 17.638 5.54 30.657 8.31 26.032 5.55 62.132 10.41 101.94 10.41 39.73 0 75.79-6.05 101.87-12.22 13.04-3.08 23.59-6.2 30.84-8.59 0.77-0.26 1.06-0.39 1.75-0.63-0.59-0.14-0.82-0.22-1.46-0.37-7.27-1.71-17.85-3.9-30.91-6.06-26.13-4.33-62.26-8.57-102.09-8.57z" fill="url(#radialGradient3609)"/></g><path d="m121.5 206.03c-0.47 0.05-0.91 0.27-1.22 0.63l-3.66 4.03c-0.63 0.71-0.63 1.78 0 2.5l2.97 3.37c0.41 0.45 1 0.68 1.6 0.62s1.13-0.41 1.43-0.93c1.44-2.52 2.06-5.63 1.97-8.41-0.03-1.01-0.86-1.81-1.87-1.81h-1.03z" fill="url(#linearGradient2696)"/><g transform="matrix(1.1328,0,0,1.1328,-16.628,148.14)"><path d="m120.02 48.316c3.38 0.521 6.85 0.485 10.39 0 0.74-0.101 0.79-0.154 0.79 0.592v1.775c0 0.697 0.09 0.577-0.61 0.663-3.52 0.432-7.05 0.406-10.57 0-0.83-0.096-0.74 0.067-0.74-0.757v-1.705c0-0.711 0.03-0.568 0.74-0.568z"/><path transform="matrix(.36429 0 0 .36429 -16.537 -38.944)" d="m404.59 239.88c-0.26 0.01-0.64 0.08-1.15 0.15-9.75 1.34-19.26 1.43-28.56 0h-0.07c-0.46 0-0.84-0.02-1.09-0.03-0.27-0.01-0.4 0.04-0.38 0.03s0.03-0.07 0 0.09c-0.03 0.17-0.03 0.49-0.03 0.97v4.69c0 0.57-0.01 0.98 0 1.22 0.02 0.24 0.04 0.22 0 0.19-0.04-0.04 0.04 0 0.31 0.03 0.28 0.03 0.73 0.06 1.32 0.12 9.63 1.11 19.25 1.18 28.87 0 0.5-0.06 0.87-0.06 1.1-0.09 0.22-0.03 0.24-0.09 0.18-0.03-0.05 0.05-0.03 0.05-0.03-0.16 0.01-0.2 0-0.54 0-1.03v-4.87c0-0.51-0.02-0.86-0.06-1.07-0.04-0.2-0.07-0.22-0.06-0.21 0.01 0-0.09-0.02-0.35 0z" fill="url(#linearGradient3984)"/></g></g></g></svg>
