<?xml version="1.0" encoding="UTF-8"?>
<svg width="247.54mm" height="148.83mm" version="1.1" viewBox="0 0 247.54 148.83" xmlns="http://www.w3.org/2000/svg"><g transform="translate(-2.0275 -68.438)"><g transform="matrix(.41901 0 0 .41901 -194.61 283.2)"><g stroke="#000"><path d="m1041.8-281.87-16.926-15.079c-4.5681-1.0797-8.464-2.697-16.24-1.2103l-65.405 19.861" fill="#b3b3b3"/><g stroke-width=".5"><path d="m932.13-471.3c8.1615-11.691 9.333-26.163 6.9524-38.512-3.4964 1.4533-10.875 10.493-11.809 19.171-0.94904 9.7356 1.8973 14.165 4.8569 19.341z" fill="#fff"/><g fill="#f00"><path d="m535.95-340.33h-28.032l-24.244 14.647 32.394 0.699z"/><path d="m522.32-324.68-45.457-1.262-0.2526 6.313h6.061l11.364 20.961 28.284-26.012z"/><path d="m480.16-319.7 0.4898 18.004 12.122 0.253-8.0839-18.346-4.5277 0.089z"/></g></g></g><path d="m1052.4-226.62c0 38.258-31.014 69.273-69.272 69.273s-69.273-31.014-69.273-69.273c0-38.258 31.014-69.273 69.273-69.273 38.258 0 69.272 31.014 69.272 69.273z"/><g stroke="#fff" stroke-linecap="round" stroke-width=".5"><path d="m1022.4-226.62c0 21.701-17.592 39.292-39.292 39.292-21.701 0-39.292-17.592-39.292-39.292s17.592-39.292 39.292-39.292c21.701 0 39.292 17.592 39.292 39.292z" fill="#fff"/><path d="m1013.9-226.62c0 16.996-13.778 30.774-30.774 30.774s-30.774-13.778-30.774-30.774 13.778-30.774 30.774-30.774 30.774 13.778 30.774 30.774z" fill="#333"/></g><path d="m993.63-226.62c0 5.8221-4.7197 10.542-10.542 10.542-5.8221 0-10.542-4.7198-10.542-10.542 0-5.8221 4.7197-10.542 10.542-10.542 5.8221 0 10.542 4.7198 10.542 10.542z" fill="#999"/><path d="m655.99-230.99c0 38.258-31.014 69.273-69.273 69.273-38.258 0-69.272-31.014-69.272-69.273 0-38.258 31.014-69.273 69.272-69.273s69.273 31.014 69.273 69.273z"/><g stroke="#fff" stroke-linecap="round" stroke-width=".5"><path d="m626.01-230.99c0 21.701-17.592 39.292-39.292 39.292-21.701 0-39.292-17.592-39.292-39.292s17.592-39.292 39.292-39.292 39.292 17.592 39.292 39.292z" fill="#fff"/><path d="m617.49-230.99c0 16.996-13.778 30.774-30.774 30.774s-30.774-13.778-30.774-30.774 13.778-30.774 30.774-30.774 30.774 13.778 30.774 30.774z" fill="#333"/></g><path d="m597.26-230.99c0 5.8221-4.7197 10.542-10.542 10.542-5.8221 0-10.542-4.7198-10.542-10.542 0-5.8221 4.7197-10.542 10.542-10.542 5.8221 0 10.542 4.7198 10.542 10.542z" fill="#999"/><g stroke-width=".5"><g fill="#f9f9f9" stroke="#999"><path d="m598.51-232.52c20.714 0.79645 34.643 5.4054 55.357 2.1429l-0.3571 4.6428c-25.132 0.15802-38.886-2.1227-55-6.7857z"/><path d="m663.16-229.3c0 2.071-3.5977 3.75-8.0357 3.75s-8.0357-1.679-8.0357-3.75 3.5977-3.75 8.0357-3.75 8.0357 1.679 8.0357 3.75z" stroke-linecap="round"/></g><path d="m718.93-277.6 8.397-0.189 0.821-2.589c1.438 2.311 1.469 4.484 0.12604 6.566l-0.8201-2.02-9.092 0.252 0.568-2.02z" fill="none" stroke="#000" stroke-linecap="round" stroke-linejoin="round"/></g><g fill="#666"><path d="m737.98-404.48 18.94-0.7576v22.476l-49.497-2.0203c10.36-3.8218 20.989-10.3 30.557-19.698z"/><path d="m641.26-385.29-0.252-5.303-70.206-0.2529v4.9249z" stroke="#b3b3b3" stroke-width=".4"/></g><path d="m758.96-373.44-8.0812 5.2401c2.8824 10.241 8.024 8.957 10.386 3.4093-0.96997-0.0497-0.65723-0.27234-1.4097-0.2417-3.1042 5.0314-5.804 2.1286-7.1776-4.4175l4.5593-3.1171c2.0148 1.9138 2.7326 4.9938 2.4963 6.9722-0.0472 0.39636 1.1127-0.31531 1.2159 0.0466 0.82141-2.1887 0.58624-5.7032-1.9888-7.8918z" fill="#808080"/><g fill="#5df" stroke-width=".5"><g stroke="#666"><path d="m978.39-332.32c7.8213-2.1931 54.909-2.7694 54.043-0.8208 8.3053 5.2566 8.9779 12.468 6.6923 19.067-15.294-10.063-26.127-18.09-60.735-18.246z"/><path d="m894.35-239.12c43.675 3.381 54.591-26.341 86.428-36.429 30.082-8.8131 52.956-4.1095 78.946-12.143-4.0716-10.004-32.147-61.717-97.06-43.315-43.774 14.509-53.556 52.82-68.315 91.887z" fill="#f00"/><path d="m925.36-324.29-11.364 36.239c14.313-23.524 27.866-34.168 40.837-38.906-3.9726-1.4305-9.3989-2.4249-10.28-4.7829l13.489-1.0778c-3.8046-4.9104-4.0676-21.315-0.60968-27.206l-17.678-3.283c-5.9239-21.632-15.645-38.417-26.482-58.112 8.6718 30.55 17.876 60.936 12.088 97.129z"/><path d="m961.03-346.38c0 7.5316-1.2578 13.637-2.8094 13.637-1.5515 0-2.8093-6.1055-2.8093-13.637s1.2578-13.637 2.8093-13.637c1.5516 0 2.8094 6.1055 2.8094 13.637z" stroke-linecap="round" stroke-width=".636"/><path d="m865.59-234.97c30.293-8.2753 48.493-48.781 58.843-83.734 11.295-58.526-14.496-112.55-24.633-135.46-15.822 10.116-0.31628 34.776 6.83 63.944 15.785 64.43 2.7372 98.472-41.04 155.25z"/></g><g fill="#f00" stroke="#808080"><path d="m897.88-450.7c-11.089-16.929 10.201-19.121 20.401-12.869l6.061-1.0101c-0.82996-14.393-1.909-31.672 2.778-46.214-13.917 2.247-22.632 8.1529-30.557 16.92l-26.895 9.7227c-3.398 11.046 2.609 17.762 3.914 26.643 16.784 25.183 19.866 62.966 33.335 97.985 8.051 56.356-33.137 86.687-43.184 92.176-27.366 14.88-62.049 18.432-107.58 7.071 8.95 12.656-5.812 15.956-11.409 22.692 40.116 2.929 82.813 3.42 122.27 3.067 29.048-34.332 72.697-99.695 34.935-178.59-8.015-16.744-10.45-26.074-4.071-37.591z"/><path d="m896.81-494c-5.1491 3.5907-6.9297 6.4189-7.955 9.849"/><path d="m743.79-237.55c7.4092-6.6077 18.574-11.663 10.696-22.639-82.953-18.124-20.358-101.29 7.4868-114.24 9.3694-6.4697-1.2299-11.414-6.1871-10.859-238.37-15.171-280.19 95.207-286.25 140.16 0.62366 3.3447 3.9969 3.8735 7.0904 4.3527 54.013-0.85968 194.22-1.0656 267.17 3.2234z"/></g></g><path d="m499.08-242.85c4.482 2.934 4.196 8.729 14.647 8.082 17.016 49.218 77.234 45.499 91.924 4.545 14.069-2.153 13.48-9.802 17.677-15.657l-124.25 3.03z" fill="#666" stroke="#000"/><g fill="#2ad4ff"><path d="m924.95-510.73c3.665-0.72424 7.4409-3.4119 13.927 0.565-6.0897 4.3261-18.874 20.081-6.6923 38.891-0.56567 7.6943-5.4656 6.2839-9.5406 6.6406-0.49152-15.739-2.139-31.345 2.3063-46.096z" stroke="#000" stroke-width=".5"/><g stroke="#808080"><path d="m864.99-234.49c-1.61 1.96-2.96 3.744-4.44 5.06-3.741 3.305-118.28 4.814-167.25 2.313-13.956-0.71198-19.634-7.212-17.239-13.044l188.93 5.671z" stroke-width=".5"/><g stroke-width=".5"><path d="m596.06-349.43c66.115-16.82 96.671 10.467 100 36.87 6.244 31.024-1.962 52.826-11.572 72.62-66.268-1.403-134.98-1.255-204.6-0.646 28.844-81.691 80.496-98.667 116.17-108.84z"/><path d="m579.9-340.59c-0.72241 5.086-2.08 26.204 2.7779 31.062 19.411-4.1844 38.251-3.8069 56.316 2.778 7.893-10.736 10.007-22.436 1.7678-35.86-20.251-7.9965-41.873-8.1643-60.862 2.0203z"/><path d="m648.33-240.58 10.354-37.376c3.3926-10.111-1.6848-15.75-9.0914-18.183-46.078-11.434-77.75-8.5682-112.38-0.75763"/></g><g stroke-width=".3"><path d="m756.93-384.53c-63.288 2.2739-11.001 12.903-189.91 6.8185l-0.2525-8.3337c64.842 0.74756 129.3 1.4307 190.16 1.5153z"/><path d="m567.02-377.96c-2.577 8.486-9.269 16.251-15.919 23.908 17.225-8.008 35.595-16.341 63.901-22.393z"/></g></g></g><path d="m655.78-385.48c-0.33905-1.5441-0.935-2.431 0.315-4.293 5.046-1.669 10.822-1.675 15.405 0.12701 1.1169 1.725 1.051 2.8829 0.31592 4.608l-16.036-0.442z" fill="#e6e6e6" stroke="#808080" stroke-width=".5"/><path d="m556.41-427.46c0.401-0.61902 5.826-0.69604 6.124 0.063l-0.063 32.767c-0.23596 6.686 0.90601 9.665 5.998 9.849l39.332 0.505c1.486 0.94501 1.538 4.479 0.19 5.745l-39.712-0.568c-9.262-0.29297-12.016-4.938-11.869-13.385z" fill="#f9f9f9" stroke="#999" stroke-width=".3"/><g stroke="#b3b3b3"><path d="m639.29-390.43 1.725-3.193 0.446-26.463c-0.12299-1.3881-0.745-2.149-2.464-2.3451l-66.962-1.214c-1.795 0.70508-1.8669 1.625-1.7889 2.5641l1.068 28.468 1.7679 1.6631 66.208 0.52z" stroke-width=".4"/><g stroke-width=".5"><path d="m734.45-397.41c0.048-8.463 0.68201-15.631-5.808-24.748 19.096 1.2161 28.548-0.62891 42.679-5.304 6.088-0.42395 13.641 24.908 5.05 29.8z"/><path d="m729.02-422.16c-15.961-0.58106-35.759-9.4618-53.664-17.173 13.166 12.408 14.633 22.038 16.668 29.547 13.816 12.568 27.807 15.913 42.553 12.248 0.0508-9.3273-0.22522-17.986-5.5558-24.623z"/><path d="m676.37-438.57c-5.436-7.9921-18.596-11.893-26.264-1.5153 5.7435 14.578 28.19 32.851 41.921 30.81 7.7075-5.535-20.922-34.559-15.657-29.294z"/></g></g><g fill="#4d4d4d" stroke="#000"><path d="m848.15-470.27 22.287-4.9244c5.834 0.9032 7.7631 8.318 1.01 11.743l-21.213 4.6088-2.084-11.427z"/></g><path d="m877.26-475.32 2.1465 3.4092-10.733 14.268c-3.819 1.1271-3.4594 2.5888-1.2627 4.7982 3.8513 0.46692 2.4203-1.6825 2.7779-3.7881l16.036-16.668c-3.1359-6.486-6.1284-2.1144-8.9651-2.0203z"/><g stroke="#000"><path d="m873.35-474.31 9.9753-2.9042c3.2974 1.866 3.8106 6.3826 1.3889 7.7024l-10.102 4.4194c1.9989-2.5186 2.7018-4.7114-1.2627-9.2176z" fill="none"/><path d="m852.19-464.67c0.23322 3.3018-0.95923 6.076-2.6633 6.1964-1.7042 0.12036-3.2747-2.4587-3.5079-5.7605-0.23322-3.3017 0.95923-6.0759 2.6633-6.1962 1.7041-0.12036 3.2747 2.4586 3.5079 5.7603z" stroke-linecap="round" stroke-width="1.306"/><g fill="none"><path d="m531.49-233.03 62.124 0.505-2.525 3.536-58.589-0.505-1.0099-3.536z"/><path d="m535.02-224.95 51.013 1.01-3.031 5.051-45.456-1.01z"/><path d="m543.1-213.84h32.325l-7.576 5.556-20.708-0.505z"/></g></g></g></g></svg>
