<?xml version="1.0" encoding="UTF-8"?>
<svg width="270.11mm" height="274.43mm" version="1.1" viewBox="0 0 270.11 274.43" xmlns="http://www.w3.org/2000/svg" xmlns:xlink="http://www.w3.org/1999/xlink"><defs><filter id="y" x="-.17306" y="-.24471" width="1.3461" height="1.4894"><feGaussianBlur stdDeviation="2.8843"/></filter><linearGradient id="c"><stop offset="0"/><stop offset=".8571"/><stop stop-color="#3e3e3e" offset=".9357"/><stop offset="1"/></linearGradient><linearGradient id="a"><stop stop-color="#eee" offset="0"/><stop stop-color="#666" offset="1"/></linearGradient><linearGradient id="b"><stop stop-color="#fff" stop-opacity=".302" offset="0"/><stop stop-color="#fff" stop-opacity="0" offset="1"/></linearGradient><linearGradient id="d"><stop stop-color="#63585c" offset="0"/><stop stop-color="#2d2829" offset="1"/></linearGradient><linearGradient id="x" x1="174.68" x2="340.32" gradientUnits="userSpaceOnUse" xlink:href="#c"/><radialGradient id="s" cx="260" cy="117.98" r="54.281" gradientTransform="matrix(1 0 0 .69142 0 90.79)" gradientUnits="userSpaceOnUse"><stop stop-opacity=".302" offset="0"/><stop stop-color="#22002b" stop-opacity="0" offset="1"/></radialGradient><radialGradient id="r" cx="257.5" cy="197.35" r="58" gradientUnits="userSpaceOnUse"><stop stop-color="#121112" offset="0"/><stop stop-color="#2e2b2c" offset=".1667"/><stop stop-color="#4b4546" offset=".4167"/><stop stop-color="#382f2e" offset="1"/></radialGradient><radialGradient id="w" cx="390" cy="582.36" r="24.26" gradientTransform="matrix(1 0 0 .73288 0 155.56)" gradientUnits="userSpaceOnUse" xlink:href="#b"/><radialGradient id="v" cx="257.5" cy="197.36" r="18.462" gradientUnits="userSpaceOnUse" xlink:href="#d"/><radialGradient id="u" cx="235" cy="195" r="65" gradientTransform="matrix(0 -.45556 -.45556 0 346.33 304.42)" gradientUnits="userSpaceOnUse" xlink:href="#d"/><radialGradient id="t" cx="260" cy="238.85" r="54.281" gradientTransform="matrix(1 0 0 .69142 0 67.214)" gradientUnits="userSpaceOnUse" xlink:href="#b"/><radialGradient id="q" cx="257.5" cy="197.35" r="82.822" gradientTransform="matrix(.38821 -.10402 .10404 .38827 137 147.51)" gradientUnits="userSpaceOnUse" spreadMethod="reflect" xlink:href="#a"/><radialGradient id="p" cx="235" cy="195" r="65" gradientTransform="matrix(1.0691,0,0,-1.0691,6.2662,405.82)" gradientUnits="userSpaceOnUse" xlink:href="#c"/><radialGradient id="o" cx="235" cy="195" r="65" gradientTransform="matrix(1.1634,0,0,-1.1634,-15.905,424.22)" gradientUnits="userSpaceOnUse" xlink:href="#c"/><radialGradient id="n" cx=".81795" cy="-501.48" r="2.5" gradientTransform="matrix(1.6373 -.94531 -.94531 -1.6373 -289.39 -583.95)" gradientUnits="userSpaceOnUse" xlink:href="#a"/><radialGradient id="m" cx="210" cy="-50" r="10" gradientTransform="matrix(.28359 .4912 .4912 -.28359 152.14 115.15)" gradientUnits="userSpaceOnUse" xlink:href="#a"/><radialGradient id="l" cx="289.09" cy="215.5" r="4.3468" gradientTransform="matrix(0 -1 .9998 0 7.5419 419.46)" gradientUnits="userSpaceOnUse" xlink:href="#a"/><radialGradient id="k" cx="210" cy="-50" r="10" gradientTransform="matrix(.28359 -.4912 .4912 .28359 187.32 244.61)" gradientUnits="userSpaceOnUse" xlink:href="#a"/><radialGradient id="j" cx="3.6491" cy="-498.72" r="2.5" gradientTransform="matrix(1.6373 .94531 -.94531 1.6373 -149.43 977.96)" gradientUnits="userSpaceOnUse" xlink:href="#a"/><radialGradient id="i" cx="210" cy="-50" r="10" gradientTransform="matrix(.28359 -.4912 .4912 .28359 292.1 278.86)" gradientUnits="userSpaceOnUse" xlink:href="#a"/><radialGradient id="h" cx="3.3387" cy="-501.67" r="2.5" gradientTransform="matrix(-.94531 1.6373 -1.6373 -.94531 -524.25 -209.34)" gradientUnits="userSpaceOnUse" xlink:href="#a"/><radialGradient id="g" cx="210" cy="-50" r="10" gradientTransform="matrix(.4912 .28359 -.28359 .4912 174.85 232.19)" gradientUnits="userSpaceOnUse" xlink:href="#a"/><radialGradient id="f" cx="233.69" cy="197.36" r="73.343" gradientTransform="matrix(0,-1.0691,-1.0086,0,454.19,449.36)" gradientUnits="userSpaceOnUse" xlink:href="#b"/><radialGradient id="e" cx="233.07" cy="197.36" r="73.343" gradientTransform="matrix(0,1.0691,-1.0086,0,454.19,-57.95)" gradientUnits="userSpaceOnUse" xlink:href="#b"/></defs><g transform="translate(200.23 146.53)"><g transform="matrix(-1.6306 0 0 1.6306 354.72 -332.11)"><path d="m238.66 116.44c-1.0948-6e-3 -2.1614 0.0124-3.2188 0.0312-7.6899 0.13699-14.259 0.9734-17.938 2.8125-11.77 5.8851-33.057 41.766-37.219 54.25s-8.6664 53.98-2.7812 65.75 41.766 33.057 54.25 37.219 53.98 8.6664 65.75 2.7812 33.057-41.766 37.219-54.25 8.6664-53.98 2.7812-65.75-41.766-33.057-54.25-37.219c-8.0465-2.6822-28.171-5.5295-44.594-5.625zm-16.156 7.8438c2.7614 0 5 2.2386 5 5s-2.2386 5-5 5-5-2.2386-5-5 2.2386-5 5-5zm105 35c2.7614 0 5 2.2386 5 5s-2.2386 5-5 5-5-2.2386-5-5 2.2386-5 5-5zm-140 70c2.7614 0 5 2.2386 5 5s-2.2386 5-5 5-5-2.2386-5-5 2.2386-5 5-5zm105 35c2.7614 0 5 2.2386 5 5s-2.2386 5-5 5-5-2.2386-5-5 2.2386-5 5-5z" fill="url(#x)"/><path d="m238.66 113.81c-1.0948-6e-3 -2.1614 0.0124-3.2188 0.0312-7.6899 0.13699-14.259 0.9734-17.938 2.8125-11.77 5.8851-33.057 41.766-37.219 54.25s-8.6664 53.98-2.7812 65.75 41.766 33.057 54.25 37.219 53.98 8.6664 65.75 2.7812 33.057-41.766 37.219-54.25 8.6664-53.98 2.7812-65.75-41.766-33.057-54.25-37.219c-8.0465-2.6822-28.171-5.5295-44.594-5.625zm-16.156 7.8438c2.7614 0 5 2.2386 5 5s-2.2386 5-5 5-5-2.2386-5-5 2.2386-5 5-5zm105 35c2.7614 0 5 2.2386 5 5s-2.2386 5-5 5-5-2.2386-5-5 2.2386-5 5-5zm-140 70c2.7614 0 5 2.2386 5 5s-2.2386 5-5 5-5-2.2386-5-5 2.2386-5 5-5zm105 35c2.7614 0 5 2.2386 5 5s-2.2386 5-5 5-5-2.2386-5-5 2.2386-5 5-5z" fill="#fff"/><path d="m238.66 114.52c-1.0948-6e-3 -2.1614 0.0124-3.2188 0.0312-7.6899 0.13699-14.259 0.9734-17.938 2.8125-11.77 5.8851-33.057 41.766-37.219 54.25s-8.6664 53.98-2.7812 65.75 41.766 33.057 54.25 37.219 53.98 8.6664 65.75 2.7812 33.057-41.766 37.219-54.25 8.6664-53.98 2.7812-65.75-41.766-33.057-54.25-37.219c-8.0465-2.6822-28.171-5.5295-44.594-5.625zm-16.156 7.8438c2.7614 0 5 2.2386 5 5s-2.2386 5-5 5-5-2.2386-5-5 2.2386-5 5-5zm105 35c2.7614 0 5 2.2386 5 5s-2.2386 5-5 5-5-2.2386-5-5 2.2386-5 5-5zm-140 70c2.7614 0 5 2.2386 5 5s-2.2386 5-5 5-5-2.2386-5-5 2.2386-5 5-5zm105 35c2.7614 0 5 2.2386 5 5s-2.2386 5-5 5-5-2.2386-5-5 2.2386-5 5-5z" fill="url(#q)"/><path d="m329.42 197.35c0-39.723-32.201-71.924-71.924-71.924s-71.924 32.201-71.924 71.924 32.201 71.924 71.924 71.924 71.924-32.201 71.924-71.924z" fill="url(#o)"/><path d="m326.99 197.35c0-38.378-31.112-69.49-69.49-69.49s-69.49 31.112-69.49 69.49 31.112 69.49 69.49 69.49 69.49-31.112 69.49-69.49z" fill="url(#p)"/><path d="m315.5 197.35c0 32.033-25.967 58-58 58s-58-25.967-58-58 25.967-58 58-58 58 25.967 58 58z" fill="url(#r)"/><path d="m257.5 139.36c-24.826 0-46.006 15.57-54.281 37.5 8.2677 21.944 29.445 37.562 54.281 37.562s46.014-15.618 54.281-37.562c-8.275-21.93-29.456-37.5-54.281-37.5z" fill="url(#s)"/><path d="m257.5 255.35c-24.826 0-46.006-15.57-54.281-37.5 8.2677-21.944 29.445-37.562 54.281-37.562s46.014 15.618 54.281 37.562c-8.275 21.93-29.456 37.5-54.281 37.5z" fill="url(#t)" opacity=".5"/><path d="m277.5 197.36c0-11.046-8.9543-20-20-20s-20 8.9543-20 20 8.9543 20 20 20 20-8.9543 20-20z" fill="url(#u)"/><path d="m275.96 197.36c0 10.196-8.2655 18.462-18.462 18.462s-18.462-8.2655-18.462-18.462 8.2655-18.462 18.462-18.462 18.462 8.2655 18.462 18.462z" fill="url(#v)"/><path transform="matrix(.61538 0 0 .52524 17.5 -115.95)" d="m390 568.22c-9.2344 0-17.085 5.9077-20 14.144 2.9146 8.236 10.766 14.144 20 14.144s17.085-5.9077 20-14.144c-2.9146-8.236-10.766-14.144-20-14.144z" fill="url(#w)" filter="url(#y)"/><path d="m181.44 233.92c0.12836 1.8162 1.117 3.5211 2.8125 4.5 2.7128 1.5662 6.1838 0.65032 7.75-2.0625s0.65032-6.1838-2.0625-7.75-6.1838-0.65032-7.75 2.0625c-0.58734 1.0173-0.82701 2.1603-0.75 3.25z"/><path d="m187.52 226.82c1.8168 0.12438 3.5302 1.1353 4.5091 2.8308 1.5662 2.7128 0.65037 6.1781-2.0625 7.7443s-6.1781 0.65036-7.7443-2.0625c-0.58734-1.0173-0.82516-2.1657-0.74815-3.2554 0.12836-1.8162 1.1151-3.51 2.8106-4.4889 1.0173-0.58734 2.1451-0.84299 3.2352-0.76836z" fill="url(#m)"/><path d="m182.81 233.92c0.0625-0.23341 0.21073-0.43157 0.4375-0.5625l2.2812-1.3125-1.3125-2.25c-0.26185-0.45354-0.10979-1.0194 0.34375-1.2812l0.40625-0.25c0.45354-0.26185 1.0194-0.10979 1.2812 0.34375l1.3125 2.25 2.25-1.2812c0.45354-0.26185 1.0194-0.10979 1.2812 0.34375l0.25 0.40625c0.26185 0.45354 0.10979 1.0194-0.34375 1.2812l-2.25 1.3125 1.2812 2.25c0.26185 0.45354 0.10979 1.0194-0.34375 1.2812l-0.40625 0.25c-0.45354 0.26185-1.0194 0.10979-1.2812-0.34375l-1.3125-2.2812-2.25 1.3125c-0.45354 0.26185-1.0194 0.10979-1.2812-0.34375l-0.25-0.40625c-0.13093-0.22677-0.15629-0.48534-0.0937-0.71875z" fill="url(#n)"/><path d="m216.5 128.67c0.12836 1.8162 1.117 3.5211 2.8125 4.5 2.7128 1.5662 6.1838 0.65032 7.75-2.0625s0.65032-6.1838-2.0625-7.75-6.1838-0.65032-7.75 2.0625c-0.58734 1.0173-0.82701 2.1603-0.75 3.25z"/><path d="m216.66 127.67c0.12836 1.8162 1.117 3.5211 2.8125 4.5 2.7128 1.5662 6.1838 0.65032 7.75-2.0625s0.65032-6.1838-2.0625-7.75-6.1838-0.65032-7.75 2.0625c-0.58734 1.0173-0.82701 2.1603-0.75 3.25z" fill="url(#k)"/><path d="m218 125.83c0.0625 0.23341 0.21073 0.43157 0.4375 0.5625l2.2812 1.3125-1.3125 2.25c-0.26185 0.45354-0.10979 1.0194 0.34375 1.2812l0.40625 0.25c0.45354 0.26185 1.0194 0.10979 1.2812-0.34375l1.3125-2.25 2.25 1.2812c0.45354 0.26185 1.0194 0.10979 1.2812-0.34375l0.25-0.40625c0.26185-0.45354 0.10979-1.0194-0.34375-1.2812l-2.25-1.3125 1.2812-2.25c0.26185-0.45354 0.10979-1.0194-0.34375-1.2812l-0.40625-0.25c-0.45354-0.26185-1.0194-0.10979-1.2812 0.34375l-1.3125 2.2812-2.25-1.3125c-0.45354-0.26185-1.0194-0.10979-1.2812 0.34375l-0.25 0.40625c-0.13093 0.22677-0.15629 0.48534-0.0937 0.71875z" fill="url(#l)"/><path d="m321.44 162.92c0.12836 1.8162 1.117 3.5211 2.8125 4.5 2.7128 1.5662 6.1838 0.65033 7.75-2.0625s0.65032-6.1838-2.0625-7.75-6.1838-0.65032-7.75 2.0625c-0.58734 1.0173-0.82701 2.1603-0.75 3.25z"/><path d="m321.44 161.92c0.12836 1.8162 1.117 3.5211 2.8125 4.5 2.7128 1.5662 6.1838 0.65032 7.75-2.0625s0.65032-6.1838-2.0625-7.75-6.1838-0.65032-7.75 2.0625c-0.58734 1.0173-0.82701 2.1603-0.75 3.25z" fill="url(#i)"/><path d="m322.78 160.08c0.0625 0.23341 0.21073 0.43157 0.4375 0.5625l2.2812 1.3125-1.3125 2.25c-0.26185 0.45354-0.10979 1.0194 0.34375 1.2812l0.40625 0.25c0.45354 0.26185 1.0194 0.10979 1.2812-0.34375l1.3125-2.25 2.25 1.2812c0.45354 0.26185 1.0194 0.10979 1.2812-0.34375l0.25-0.40625c0.26185-0.45354 0.10979-1.0194-0.34375-1.2812l-2.25-1.3125 1.2812-2.25c0.26185-0.45354 0.10979-1.0194-0.34375-1.2812l-0.40625-0.25c-0.45354-0.26185-1.0194-0.10979-1.2812 0.34375l-1.3125 2.2812-2.25-1.3125c-0.45354-0.26185-1.0194-0.10979-1.2812 0.34375l-0.25 0.40625c-0.13093 0.22677-0.15629 0.48534-0.0937 0.71875z" fill="url(#j)"/><path d="m286.5 268.67c0.12836 1.8162 1.117 3.5211 2.8125 4.5 2.7128 1.5662 6.1838 0.65032 7.75-2.0625s0.65032-6.1838-2.0625-7.75-6.1838-0.65032-7.75 2.0625c-0.58734 1.0173-0.82701 2.1603-0.75 3.25z"/><path d="m291.78 261.52c-1.8162 0.12836-3.5211 1.117-4.5 2.8125-1.5662 2.7128-0.65032 6.1838 2.0625 7.75s6.1838 0.65032 7.75-2.0625 0.65032-6.1838-2.0625-7.75c-1.0173-0.58734-2.1603-0.82701-3.25-0.75z" fill="url(#g)"/><path d="m293.62 262.86c-0.23341 0.0625-0.43157 0.21073-0.5625 0.4375l-1.3125 2.2812-2.25-1.3125c-0.45354-0.26185-1.0194-0.10979-1.2812 0.34375l-0.25 0.40625c-0.26185 0.45354-0.10979 1.0194 0.34375 1.2812l2.25 1.3125-1.2812 2.25c-0.26185 0.45354-0.10979 1.0194 0.34375 1.2812l0.40625 0.25c0.45354 0.26185 1.0194 0.10979 1.2812-0.34375l1.3125-2.25 2.25 1.2812c0.45354 0.26185 1.0194 0.10979 1.2812-0.34375l0.25-0.40625c0.26185-0.45354 0.10979-1.0194-0.34375-1.2812l-2.2812-1.3125 1.3125-2.25c0.26185-0.45354 0.10979-1.0194-0.34375-1.2812l-0.40625-0.25c-0.22677-0.13093-0.48534-0.15629-0.71875-0.0937z" fill="url(#h)"/><path d="m323.05 191.35c0.0165 0.64302 0.0191 1.2939 0.0191 1.9411 0 38.378-29.359 69.477-65.568 69.477s-65.568-31.098-65.568-69.477c0-0.64727 3e-3 -1.2981 0.0191-1.9411 0.97703 37.474 29.957 67.535 65.549 67.535s64.572-30.061 65.549-67.535z" fill="url(#e)"/><path d="m323.05 200.06c0.0165-0.64302 0.0191-1.2939 0.0191-1.9411 0-38.378-29.359-69.477-65.568-69.477s-65.568 31.098-65.568 69.477c0 0.64727 3e-3 1.2981 0.0191 1.9411 0.97703-37.474 29.957-67.535 65.549-67.535s64.572 30.061 65.549 67.535z" fill="url(#f)"/></g></g></svg>
