<?xml version="1.0" encoding="UTF-8"?>
<svg width="231.76mm" height="233.07mm" version="1.1" viewBox="0 0 231.76 233.07" xmlns="http://www.w3.org/2000/svg" xmlns:xlink="http://www.w3.org/1999/xlink"><defs><filter id="ad"><feGaussianBlur stdDeviation="1.37027"/></filter><linearGradient id="b"><stop offset="0"/><stop stop-opacity="0" offset="1"/></linearGradient><linearGradient id="a"><stop stop-color="#fff" offset="0"/><stop stop-color="#fff" stop-opacity="0" offset="1"/></linearGradient><linearGradient id="e"><stop stop-color="#eceee9" offset="0"/><stop stop-color="#c6b6b6" stop-opacity="0" offset="1"/></linearGradient><linearGradient id="q" x1="212.83" x2="217.62" y1="643.12" y2="627.94" gradientUnits="userSpaceOnUse"><stop stop-color="#fff" stop-opacity=".75138" offset="0"/><stop stop-color="#fff" stop-opacity="0" offset="1"/></linearGradient><linearGradient id="ac" x1="487.51" x2="621.52" gradientUnits="userSpaceOnUse" spreadMethod="reflect" xlink:href="#e"/><linearGradient id="ab" x1="396.95" x2="365.06" y1="442.71" y2="360.93" gradientUnits="userSpaceOnUse" xlink:href="#a"/><linearGradient id="aa" x1="449.63" x2="349.37" y1="486.28" y2="314.89" gradientUnits="userSpaceOnUse" xlink:href="#a"/><linearGradient id="z" x1="475.96" x2="487.61" y1="789.21" y2="237.67" gradientUnits="userSpaceOnUse" xlink:href="#b"/><linearGradient id="y" x1="462.06" x2="530.63" gradientUnits="userSpaceOnUse" xlink:href="#a"/><linearGradient id="x" x1="312.57" x2="500.3" y1="728.26" y2="590.71" gradientUnits="userSpaceOnUse" xlink:href="#b"/><linearGradient id="w" x1="738.84" x2="300.95" y1="935.02" y2="534.76" gradientUnits="userSpaceOnUse" xlink:href="#b"/><linearGradient id="v" x1="393.43" x2="476.03" y1="410.53" y2="498.67" gradientUnits="userSpaceOnUse" xlink:href="#a"/><linearGradient id="u" x1="519.14" x2="452.31" y1="639.38" y2="645.06" gradientUnits="userSpaceOnUse" xlink:href="#a"/><linearGradient id="t" x1="415.92" x2="508.94" y1="170.46" y2="585.6" gradientUnits="userSpaceOnUse" xlink:href="#b"/><linearGradient id="s" x1="472.75" x2="197.99" y1="658.17" y2="565.23" gradientUnits="userSpaceOnUse" xlink:href="#a"/><linearGradient id="r" x1="202.63" x2="201.47" y1="623.15" y2="612.76" gradientUnits="userSpaceOnUse" xlink:href="#b"/><radialGradient id="k" cx="388.67" cy="655.16" r="107.08" fx="394.22" fy="754.89" gradientTransform="matrix(1,0,0,1.1604,0,-101.87)" gradientUnits="userSpaceOnUse"><stop stop-opacity=".28729" offset="0"/><stop stop-opacity="0" offset="1"/></radialGradient><radialGradient id="p" cx="204.14" cy="464.34" r="171.43" fx="199.92" fy="598.39" gradientTransform="matrix(.92613 -4.6209e-8 6.1493e-8 1.9887 45.685 -460.64)" gradientUnits="userSpaceOnUse" xlink:href="#e"/><radialGradient id="o" cx="398.49" cy="499.08" r="171.43" gradientTransform="matrix(1.1552 0 0 .5 -61.865 180.47)" gradientUnits="userSpaceOnUse" spreadMethod="reflect" xlink:href="#e"/><radialGradient id="d" cx="264.66" cy="564.46" r="24.244" fx="252.54" fy="545.36" gradientTransform="matrix(1,0,0,4.125,0,-1763.9)" gradientUnits="userSpaceOnUse" xlink:href="#e"/><radialGradient id="c" cx="264.66" cy="564.46" r="24.244" fx="277.08" fy="552.42" gradientTransform="matrix(1,0,0,4.125,0,-1763.9)" gradientUnits="userSpaceOnUse" xlink:href="#b"/><radialGradient id="n" cx="285.71" cy="532.36" r="171.43" fx="292.74" fy="648.24" gradientTransform="matrix(.91304 2.7805e-8 0 .81625 24.844 12.107)" gradientUnits="userSpaceOnUse" xlink:href="#b"/><radialGradient id="l" cx="400.02" cy="588.42" r="107.08" gradientTransform="matrix(.17174 .70808 -1.4749 .21806 1268.1 213.42)" gradientUnits="userSpaceOnUse" xlink:href="#a"/><radialGradient id="i" cx="401.51" cy="662.97" r="112.08" gradientTransform="matrix(.82178 -.42006 .79423 .79304 -439.66 275.58)" gradientUnits="userSpaceOnUse" xlink:href="#a"/><radialGradient id="g" cx="154.01" cy="570.2" r="18.408" gradientTransform="matrix(.44223 -1.5188 3.8425 1.1188 -2050.2 199.92)" gradientUnits="userSpaceOnUse" xlink:href="#a"/><radialGradient id="f" cx="192.25" cy="571.41" r="18.408" gradientTransform="matrix(.18187 -1.215 3.9579 .59246 -2066.2 442.31)" gradientUnits="userSpaceOnUse" xlink:href="#a"/></defs><g transform="translate(-4.6095 -22.885)"><g transform="matrix(.51879 0 0 .51879 -71.443 -135.16)"><g fill-rule="evenodd"><path d="m587.06 398.98-341.15 1.4062c12.932 29.809 43.885 269.8 44.133 270.09-2e-3 0.1258 0 0.249 0 0.375 0 30.926 56.592 56.031 126.31 56.031 68.394 0 124.12-24.137 126.22-54.25 0.5855-0.25227 0.90625-0.51736 0.90625-0.8125 0-8.5715 43.576-272.84 43.576-272.84z" fill="#fff" stroke="url(#z)" stroke-linejoin="round" stroke-width="6.9396"/><path d="m589.2 398.98-346.15 1.4062c12.932 29.809 46.742 269.8 46.99 270.09-2e-3 0.1258 0 0.249 0 0.375 0 30.926 56.592 56.031 126.31 56.031 68.394 0 124.12-24.137 126.22-54.25 0.5855-0.25227 0.90625-0.51736 0.90625-0.8125 0-8.5715 45.719-272.84 45.719-272.84z" fill="#808080"/><path d="m589.2 398.98-346.15 1.4062c12.932 29.809 46.742 269.8 46.99 270.09-2e-3 0.1258 0 0.249 0 0.375 0 30.926 56.592 56.031 126.31 56.031 68.394 0 124.12-24.137 126.22-54.25 0.5855-0.25227 0.90625-0.51736 0.90625-0.8125 0-8.5715 45.719-272.84 45.719-272.84z" fill="url(#ac)"/><path transform="matrix(1.0032 0 0 .78974 129.71 109.64)" d="m457.14 360.93c0 47.339-76.751 85.714-171.43 85.714s-171.43-38.376-171.43-85.714 76.751-85.714 171.43-85.714 171.43 38.376 171.43 85.714z" fill="#fff" stroke="url(#aa)" stroke-linejoin="round" stroke-width="10"/><path transform="matrix(1.0032 0 0 .78974 129.71 109.64)" d="m457.14 360.93c0 47.339-76.751 85.714-171.43 85.714s-171.43-38.376-171.43-85.714 76.751-85.714 171.43-85.714 171.43 38.376 171.43 85.714z" fill="#4d4d4d"/><path transform="matrix(1.0032 0 0 .78974 129.71 109.64)" d="m457.14 360.93c0 47.339-76.751 85.714-171.43 85.714s-171.43-38.376-171.43-85.714 76.751-85.714 171.43-85.714 171.43 38.376 171.43 85.714z" fill="url(#o)"/><path transform="matrix(.95725 0 0 .75357 142.84 101.02)" d="m457.14 360.93c0 47.339-76.751 85.714-171.43 85.714s-171.43-38.376-171.43-85.714 76.751-85.714 171.43-85.714 171.43 38.376 171.43 85.714z" fill="#4d4d4d" stroke="url(#ab)" stroke-linejoin="round" stroke-width="10"/><path transform="matrix(.95725 0 0 .75357 142.84 101.02)" d="m457.14 360.93c0 47.339-76.751 85.714-171.43 85.714s-171.43-38.376-171.43-85.714 76.751-85.714 171.43-85.714 171.43 38.376 171.43 85.714z" fill="url(#p)"/><path d="m490.63 458.97s8.5714 111.43 2.8571 148.57-31.429 40-31.429 80 14.286 28.571 14.286 28.571-2.8572-2.8571 25.714-45.714 28.571-42.857 28.571-62.857-8.5714-105.71-8.5714-120v-37.143l-31.429 8.5714z" fill="url(#y)"/><path transform="matrix(.82303 -.02515 .03381 1.1064 150.4 -28.949)" d="m288.9 564.46c0 55.231-10.854 100.01-24.244 100.01s-24.244-44.774-24.244-100.01 10.854-100.01 24.244-100.01 24.244 44.774 24.244 100.01z" fill="url(#d)"/><path transform="matrix(.82303 -.02515 .03381 1.1064 150.4 -28.949)" d="m288.9 564.46c0 55.231-10.854 100.01-24.244 100.01s-24.244-44.774-24.244-100.01 10.854-100.01 24.244-100.01 24.244 44.774 24.244 100.01z" fill="url(#c)"/><g opacity=".65405"><path transform="matrix(.41697 .03523 -.09318 1.103 489.51 -73.479)" d="m288.9 564.46c0 55.231-10.854 100.01-24.244 100.01s-24.244-44.774-24.244-100.01 10.854-100.01 24.244-100.01 24.244 44.774 24.244 100.01z" fill="url(#d)"/><path transform="matrix(.41697 .03523 -.09318 1.103 489.51 -73.479)" d="m288.9 564.46c0 55.231-10.854 100.01-24.244 100.01s-24.244-44.774-24.244-100.01 10.854-100.01 24.244-100.01 24.244 44.774 24.244 100.01z" fill="url(#c)"/></g><g opacity=".57297"><path transform="matrix(.58038 .0082 -.01564 1.1068 339.91 -36.571)" d="m288.9 564.46c0 55.231-10.854 100.01-24.244 100.01s-24.244-44.774-24.244-100.01 10.854-100.01 24.244-100.01 24.244 44.774 24.244 100.01z" fill="url(#d)"/><path transform="matrix(.58038 .0082 -.01564 1.1068 339.91 -36.571)" d="m288.9 564.46c0 55.231-10.854 100.01-24.244 100.01s-24.244-44.774-24.244-100.01 10.854-100.01 24.244-100.01 24.244 44.774 24.244 100.01z" fill="url(#c)"/></g><g opacity=".80541"><path transform="matrix(.66081 -.02869 .04801 1.1058 237.53 -25.925)" d="m288.9 564.46c0 55.231-10.854 100.01-24.244 100.01s-24.244-44.774-24.244-100.01 10.854-100.01 24.244-100.01 24.244 44.774 24.244 100.01z" fill="url(#d)"/><path transform="matrix(.66081 -.02869 .04801 1.1058 237.53 -25.925)" d="m288.9 564.46c0 55.231-10.854 100.01-24.244 100.01s-24.244-44.774-24.244-100.01 10.854-100.01 24.244-100.01 24.244 44.774 24.244 100.01z" fill="url(#c)"/></g><g opacity=".43243"><path transform="matrix(.49919 .0161 -.03568 1.1063 407.93 -54.385)" d="m288.9 564.46c0 55.231-10.854 100.01-24.244 100.01s-24.244-44.774-24.244-100.01 10.854-100.01 24.244-100.01 24.244 44.774 24.244 100.01z" fill="url(#d)"/><path transform="matrix(.49919 .0161 -.03568 1.1063 407.93 -54.385)" d="m288.9 564.46c0 55.231-10.854 100.01-24.244 100.01s-24.244-44.774-24.244-100.01 10.854-100.01 24.244-100.01 24.244 44.774 24.244 100.01z" fill="url(#c)"/></g><path transform="matrix(.33044 -.0785 .17007 1.0872 99.933 -33.33)" d="m288.9 564.46c0 55.231-10.854 100.01-24.244 100.01s-24.244-44.774-24.244-100.01 10.854-100.01 24.244-100.01 24.244 44.774 24.244 100.01z" fill="url(#d)"/><path transform="matrix(.33044 -.0785 .17007 1.0872 103.87 -29.196)" d="m288.9 564.46c0 55.231-10.854 100.01-24.244 100.01s-24.244-44.774-24.244-100.01 10.854-100.01 24.244-100.01 24.244 44.774 24.244 100.01z" fill="url(#c)"/><g opacity=".80541"><path transform="matrix(.65809 -.06636 .11106 1.1013 105.49 -19.665)" d="m288.9 564.46c0 55.231-10.854 100.01-24.244 100.01s-24.244-44.774-24.244-100.01 10.854-100.01 24.244-100.01 24.244 44.774 24.244 100.01z" fill="url(#d)"/><path transform="matrix(.65809 -.06636 .11106 1.1013 105.49 -19.665)" d="m288.9 564.46c0 55.231-10.854 100.01-24.244 100.01s-24.244-44.774-24.244-100.01 10.854-100.01 24.244-100.01 24.244 44.774 24.244 100.01z" fill="url(#c)"/></g><g opacity=".43243"><path transform="matrix(.49379 -.07497 .16616 1.0943 84.981 -24.308)" d="m288.9 564.46c0 55.231-10.854 100.01-24.244 100.01s-24.244-44.774-24.244-100.01 10.854-100.01 24.244-100.01 24.244 44.774 24.244 100.01z" fill="url(#d)"/><path transform="matrix(.49379 -.07497 .16616 1.0943 84.981 -24.308)" d="m288.9 564.46c0 55.231-10.854 100.01-24.244 100.01s-24.244-44.774-24.244-100.01 10.854-100.01 24.244-100.01 24.244 44.774 24.244 100.01z" fill="url(#c)"/></g><path transform="matrix(.95725 0 0 .75357 142.84 101.02)" d="m457.14 360.93c0 47.339-76.751 85.714-171.43 85.714s-171.43-38.376-171.43-85.714 76.751-85.714 171.43-85.714 171.43 38.376 171.43 85.714z" fill="url(#n)"/><path d="m473.48 433.26 17.143 22.857 31.429-2.8571-14.286-25.714-34.286 5.7143z" fill="#fff"/><path transform="matrix(.84615 .17411 -.2231 1.1776 66.857 -211.23)" d="m507.1 635.17c0 68.621-47.94 124.25-107.08 124.25s-107.08-55.628-107.08-124.25 47.94-124.25 107.08-124.25 107.08 55.628 107.08 124.25z" fill="#808080"/><path transform="matrix(.84615 .17411 -.2231 1.1776 66.857 -211.23)" d="m507.1 635.17c0 68.621-47.94 124.25-107.08 124.25s-107.08-55.628-107.08-124.25 47.94-124.25 107.08-124.25 107.08 55.628 107.08 124.25z" fill="url(#x)"/><path transform="matrix(.80958 .16659 -.21345 1.1268 53.18 -181.28)" d="m507.1 635.17c0 68.621-47.94 124.25-107.08 124.25s-107.08-55.628-107.08-124.25 47.94-124.25 107.08-124.25 107.08 55.628 107.08 124.25z" fill="#ccc"/><path transform="matrix(.84615 .17411 -.2231 1.1776 66.857 -211.23)" d="m507.1 635.17c0 68.621-47.94 124.25-107.08 124.25s-107.08-55.628-107.08-124.25 47.94-124.25 107.08-124.25 107.08 55.628 107.08 124.25z" fill="url(#l)"/><path transform="matrix(.80958 .16659 -.21345 1.1268 53.18 -181.28)" d="m507.1 635.17c0 68.621-47.94 124.25-107.08 124.25s-107.08-55.628-107.08-124.25 47.94-124.25 107.08-124.25 107.08 55.628 107.08 124.25z" fill="#ccc"/><path transform="matrix(.80958 .16659 -.21345 1.1268 53.18 -181.28)" d="m507.1 635.17c0 68.621-47.94 124.25-107.08 124.25s-107.08-55.628-107.08-124.25 47.94-124.25 107.08-124.25 107.08 55.628 107.08 124.25z" fill="url(#w)"/><path transform="matrix(.80958 .16659 -.21345 1.1268 53.18 -181.28)" d="m507.1 635.17c0 68.621-47.94 124.25-107.08 124.25s-107.08-55.628-107.08-124.25 47.94-124.25 107.08-124.25 107.08 55.628 107.08 124.25z" fill="url(#v)"/><path transform="matrix(.80958 .16659 -.21345 1.1268 53.18 -181.28)" d="m507.1 635.17c0 68.621-47.94 124.25-107.08 124.25s-107.08-55.628-107.08-124.25 47.94-124.25 107.08-124.25 107.08 55.628 107.08 124.25z" fill="url(#k)"/></g><path transform="matrix(.80958 .16659 -.21345 1.1268 53.18 -181.28)" d="m507.1 635.17c0 68.621-47.94 124.25-107.08 124.25s-107.08-55.628-107.08-124.25 47.94-124.25 107.08-124.25 107.08 55.628 107.08 124.25z" fill="none" stroke="url(#u)" stroke-linejoin="round" stroke-width="10"/><g fill-rule="evenodd"><path transform="matrix(.69359 .14272 -.18287 .96531 72.074 -71.216)" d="m507.1 635.17c0 68.621-47.94 124.25-107.08 124.25s-107.08-55.628-107.08-124.25 47.94-124.25 107.08-124.25 107.08 55.628 107.08 124.25z" fill="url(#t)" stroke="url(#i)" stroke-linejoin="round" stroke-width="10"/><path transform="matrix(1.1183,0,0,1.1183,24.142,-48.056)" d="m167 627.93 11.429-0.71428 5-15s-2.1429 2.1428 0-6.4286 5.7143-7.8571 6.4286-13.571-1.4286-5.7143 0.71429-10 3.5714-7.8571 3.5714-17.143 5.7143-15.714 5.7143-15.714l2.1429-8.5714 6.4286-12.857-12.857-1.4286-3.5714 15.714v10.714s-0.71429 10-2.8571 15-6.4286 15-6.4286 18.571 2.1428 7.1429-0.71429 11.429-6.4286 13.571-6.4286 13.571l-5 7.1429-3.5714 9.2857z" filter="url(#ad)" stroke="#000"/><path d="m171.73 706.89v-18.183s107.08-149.5 111.12-181.83 4.0406-34.345 4.0406-34.345l6.0609-2.0203-16.162-2.0203s-16.162-14.142-32.325-6.0609-52.528 26.264-60.609 54.548-16.162 70.711-16.162 90.914-8.0812 40.406-8.0812 40.406 2.0203 56.569 12.122 58.589z" fill="url(#s)"/><path d="m247 555.25 7.1888-15.176h-13.579l-3.9938 16.774 10.384-1.5975z" fill="#b3b3b3"/><path d="m235.81 548.06 9.5851 6.3901-9.5851 2.3963-11.981-9.5851 11.981 0.79876z" stroke="#000" stroke-width="1.1183"/><path d="m223.83 547.26s-5.5913 0.79877-8.7863 10.384-1.5975 30.353-6.3901 37.542-5.5913 6.3901-7.9876 15.975-7.1888 11.981 0.79876 16.774 7.9876 7.9876 7.9876 7.9876v13.579l11.981 1.5975 3.9938-15.176s-3.9938-6.3901-8.7863-11.183-4.7926-7.1888-3.195-10.384 6.3901-14.378 10.384-22.365 3.9938-11.183 3.9938-19.17 0.79875-15.176 4.7925-17.573 5.5913-7.9876 5.5913-7.9876h-14.378z" fill="#434343"/><path d="m223.83 547.26s-5.5913 0.79877-8.7863 10.384-1.5975 30.353-6.3901 37.542-5.5913 6.3901-7.9876 15.975-7.1888 11.981 0.79876 16.774 7.9876 7.9876 7.9876 7.9876v13.579l11.981 1.5975 3.9938-15.176s-3.9938-6.3901-8.7863-11.183-4.7926-7.1888-3.195-10.384 6.3901-14.378 10.384-22.365 3.9938-11.183 3.9938-19.17 0.79875-15.176 4.7925-17.573 5.5913-7.9876 5.5913-7.9876h-14.378z" fill="url(#g)"/><path d="m223.83 547.26s-5.5913 0.79877-8.7863 10.384-1.5975 30.353-6.3901 37.542-5.5913 6.3901-7.9876 15.975-7.1888 11.981 0.79876 16.774 7.9876 7.9876 7.9876 7.9876v13.579l11.981 1.5975 3.9938-15.176s-3.9938-6.3901-8.7863-11.183-4.7926-7.1888-3.195-10.384 6.3901-14.378 10.384-22.365 3.9938-11.183 3.9938-19.17 0.79875-15.176 4.7925-17.573 5.5913-7.9876 5.5913-7.9876h-14.378z" fill="url(#f)"/><path d="m223.83 547.26s-5.5913 0.79877-8.7863 10.384-1.5975 30.353-6.3901 37.542-5.5913 6.3901-7.9876 15.975-7.1888 11.981 0.79876 16.774 7.9876 7.9876 7.9876 7.9876v13.579l11.981 1.5975 3.9938-15.176s-3.9938-6.3901-8.7863-11.183-4.7926-7.1888-3.195-10.384 6.3901-14.378 10.384-22.365 3.9938-11.183 3.9938-19.17 0.79875-15.176 4.7925-17.573 5.5913-7.9876 5.5913-7.9876h-14.378z" fill="url(#r)" opacity=".78453"/><path d="m223.83 547.26s-5.5913 0.79877-8.7863 10.384-1.5975 30.353-6.3901 37.542-5.5913 6.3901-7.9876 15.975-7.1888 11.981 0.79876 16.774 7.9876 7.9876 7.9876 7.9876v13.579l11.981 1.5975 3.9938-15.176s-3.9938-6.3901-8.7863-11.183-4.7926-7.1888-3.195-10.384 6.3901-14.378 10.384-22.365 3.9938-11.183 3.9938-19.17 0.79875-15.176 4.7925-17.573 5.5913-7.9876 5.5913-7.9876h-14.378z" fill="url(#q)" opacity=".78453"/></g></g></g></svg>
