<?xml version="1.0" encoding="UTF-8"?>
<svg width="155.98mm" height="211.67mm" version="1.1" viewBox="0 0 155.98 211.67" xmlns="http://www.w3.org/2000/svg"><g transform="translate(-42.961 -15.03)"><g transform="matrix(.26458 0 0 .26458 14.095 -51.74)"><path d="m373.14 878.22h49.691c1.49 0 2.6767 0.28292 2.6895 0.63435l6.2873 172.87c0.0126 0.3514-1.1995 0.6343-2.6895 0.6343h-62.266c-1.49 0-2.7023-0.2829-2.6895-0.6343l6.2873-172.87c0.0126-0.35143 1.1995-0.63435 2.6895-0.63435z" color="#000000" color-rendering="auto" fill="#5b2900" image-rendering="auto" shape-rendering="auto" solid-color="#000000" style="isolation:auto;mix-blend-mode:normal"/><path transform="translate(0,252.36)" d="m399.79 0.0019531-2e-3 0.0019531-159.38 261.71 22.641 4.5293 89.654-38.941 87.842 5.4316v2e-3l69.73 19.924 25.357-10.867-135.84-241.79z" fill="#75b000" fill-rule="evenodd"/><path transform="translate(0,252.36)" d="m352.7 227.31-89.654 38.941-67.016 96.898 33.508 14.49 92.371 6.3379-8.5644-7.2617 8.5664 7.2598 130.4-14.486 26.262-16.303v2e-3l-26.262 16.301 102.33 6.2461 27.662-12.604-72.035-110.46-69.73-19.924v-2e-3l-87.842-5.4316z" fill="#83c500" fill-rule="evenodd"/><g fill="#75b000" fill-rule="evenodd"><path transform="translate(0,252.36)" d="m452.32 369.49 46.186 147.61-2e-3 2e-3 -46.184-147.61zl-130.4 14.486-30.08 111.39 30.078-111.39-92.371-6.3379-85.127 118.63 44.375 27.168 115.01 26.262-23.094-13.131v-2e-3l23.094 13.133 178.4-24.451h2e-3l133.12 1.8105 28.564-19.035-89.242-132.29-102.33-6.2461z"/><path d="m109.1 877.23 162.1 59.769 261.72-3.6224 165.72-47.997-83.315-105.95-133.12-1.8112-178.4 24.451-115.01-26.262z"/><path d="m452.32 621.85-130.41 14.488-41.207 152.59 23.095 13.132 178.4-24.45 16.298-8.149-46.184-147.61z"/><path d="m352.7 479.67-39.355 149.41 8.5658 7.2595 130.41-14.488 26.261-16.302-38.035-120.45-87.843-5.4315z"/><path d="m399.79 252.36-67.013 211.91 19.923 15.394 87.843 5.4315 2.7175-9.056-43.47-223.68z"/></g><g fill="#699e00" fill-rule="evenodd"><path d="m240.41 514.08 159.39-261.72-67.014 211.91 19.923 15.395-89.654 38.941z"/><path d="m196.03 615.51 33.507 14.49 92.371 6.3392-8.5643-7.2626 39.355-149.41-89.654 38.941z"/><path d="m144.41 748.63 85.126-118.63 92.371 6.3392-41.205 152.59 23.093 13.131-115.01-26.262z"/><path d="m109.1 877.23 162.1 59.769 32.602-134.93-115.01-26.262z"/></g><g fill="#83c500" fill-rule="evenodd"><path d="m399.79 252.36 135.84 241.79-25.357 10.867-69.731-19.923 2.7168-9.056z"/><path d="m478.58 605.55-26.262 16.301 102.33 6.2471 27.661-12.604-72.034-110.47-69.731-19.923z"/><path d="m452.32 621.85 102.33 6.2471 89.242 132.29-28.565 19.035-133.12-1.8112 16.301-8.1504z"/><path d="m532.92 933.37 165.72-47.997-83.315-105.95-133.12-1.8112z"/></g><g fill="#639500" fill-rule="evenodd"><path transform="translate(0,252.36)" d="m144.41 496.27 44.375 27.168 115.01 26.262-23.094-13.131-136.29-40.299zm159.39 53.43 178.4-24.451h2e-3l133.12 1.8105 28.564-19.035-145.39 9.0742-2e-3 2e-3h-2e-3l-217.79 19.467 23.094 13.133z"/><path transform="translate(0,252.36)" d="m478.58 353.18-165.23 23.529 8.5664 7.2598 130.4-14.486 26.262-16.303zm-26.262 16.303 102.33 6.2461 27.662-12.604-103.73-9.9434-26.262 16.301zm-138.97 7.2266-117.31-13.566 33.508 14.49 92.371 6.3379-8.5644-7.2617z"/><path transform="translate(0,252.36)" d="m332.78 211.91-92.371 49.807 22.641 4.5293 89.654-38.941 87.842 5.4316v2e-3l69.73 19.924 25.357-10.867-92.369-18.113h-2e-3l-110.48-11.771z"/></g></g></g></svg>
