<?xml version="1.0" encoding="UTF-8"?>
<svg width="187.83mm" height="323.71mm" version="1.1" viewBox="0 0 187.83 323.71" xmlns="http://www.w3.org/2000/svg" xmlns:xlink="http://www.w3.org/1999/xlink"><defs><linearGradient id="linearGradient4438"><stop style="stop-color:#00f" offset="0"/><stop style="stop-color:#afdbff" offset="1"/></linearGradient><linearGradient id="linearGradient4234"><stop style="stop-color:#666" offset="0"/><stop style="stop-color:#171a52" offset="1"/></linearGradient><linearGradient id="linearGradient4180"><stop style="stop-color:#fff" offset="0"/><stop style="stop-color:#b3cdff" offset="1"/></linearGradient><linearGradient id="linearGradient4094"><stop style="stop-color:#666" offset="0"/><stop style="stop-color:#bad0f5" offset="1"/></linearGradient><linearGradient id="linearGradient4100" x1="493.36" x2="485.37" y1="143.24" y2="125.57" gradientUnits="userSpaceOnUse" xlink:href="#linearGradient4094"/><linearGradient id="linearGradient4108" x1="443.84" x2="442.71" y1="187.84" y2="136.2" gradientUnits="userSpaceOnUse" xlink:href="#linearGradient4094"/><linearGradient id="linearGradient4110" x1="219.24" x2="216.96" y1="151.43" y2="93.379" gradientUnits="userSpaceOnUse" xlink:href="#linearGradient4094"/><linearGradient id="linearGradient4186" x1="366.05" x2="417.57" y1="410.38" y2="413.92" gradientUnits="userSpaceOnUse" xlink:href="#linearGradient4180"/><linearGradient id="linearGradient4194" x1="368.33" x2="401.41" y1="437.95" y2="441.48" gradientUnits="userSpaceOnUse" xlink:href="#linearGradient4180"/><linearGradient id="linearGradient4206" x1="284.15" x2="284.65" y1="123.01" y2="104.82" gradientUnits="userSpaceOnUse" xlink:href="#linearGradient4094"/><linearGradient id="linearGradient4219" x1="342.82" x2="364.35" y1="134.32" y2="86.084" gradientUnits="userSpaceOnUse" xlink:href="#linearGradient4094"/><linearGradient id="linearGradient4232" x1="508.58" x2="535.55" y1="148.44" y2="97.548" gradientUnits="userSpaceOnUse" xlink:href="#linearGradient4094"/><linearGradient id="linearGradient4240" x1="338.61" x2="337.38" y1="168.6" y2="215.57" gradientUnits="userSpaceOnUse" xlink:href="#linearGradient4234"/><linearGradient id="linearGradient4242" x1="485.87" x2="462.41" y1="184.03" y2="236.56" gradientUnits="userSpaceOnUse" xlink:href="#linearGradient4234"/><linearGradient id="linearGradient4444" x1="314.69" x2="305.49" y1="304.59" y2="284.13" gradientUnits="userSpaceOnUse" xlink:href="#linearGradient4438"/><linearGradient id="linearGradient4446" x1="438.95" x2="417.92" y1="335.67" y2="293.5" gradientUnits="userSpaceOnUse" xlink:href="#linearGradient4438"/></defs><g transform="translate(-7.7596 48.363)"><path d="m172.8 65.542c-3.1841 0.1737-4.3598 3.8044-4.7409 6.4581-0.93954 6.5425-5.0006 12.104-8.7786 17.31-0.82267-3.9335-2.2392-8.5887-6.445-10.142-3.662-1.3523-8.5273-0.86098-10.621 2.828-1.7228 3.0362-0.8752 6.553 1.4134 8.9 1.5352 1.5743 4.4432 3.5175 4.8071 4.8688 0.6048 2.2459-2.4183 4.2235-2.3621 8.8406-6.021 3.4959-7.9478 7.7868-6.9368 12.431-7.705 4.9552-13.274 9.2597-19.587 9.5318-3.1108-8.6934-13.269-13.462-22.264-11.922-8.3004 1.4215-15.555 8.4257-16.099 16.95-1.8172 1.249-3.2188 3.3573-4.8759 4.9202-4.9024 4.6237-11.277 6.832-16.836 8.3802-4.9126-4.0568-10.663-0.97138-13.878 1.9062-4.1525-1.0321-9.8067 0.71041-12.646-1.1552-3.41-2.2405-5.521-5.0669-9.3972-4.477-3.2395 0.49302-7.3082 2.2224-7.2429 6.0195 0.07306 4.2476 2.6928 7.9036 8.3774 9.0644-4.8248 1.5448-7.5899 2.7636-8.5851 7.4757-1.162 0.7481-1.997 1.4297-2.5937 3.6462-2.7068 0.15814-5.2353 2.4278-5.0266 5.2305 0.3373 4.5298 5.1565 7.9707 9.6188 7.3227 6.447-0.93628 12.716-2.7596 19.104-4.0516 6.8852-1.3927 14.491-3.3593 18.999-9.2909 0.96936-1.2756 1.6263-1.6125 2.5461-2.021 7.2831-2.873 8.3046-9.1982 6.8617-11.342 6.3031-2.6002 13.286-5.9034 18.899-9.8011 0.26019 0.83446 1.8914 1.6272 1.5604 2.3426-3.2846 3.2827-5.1362 8.0481-5.4433 12.462-9.6372 4.2411-17.465 14.968-19.744 18.881-5.5952-1.3055-10.027 3.6758-11.291 6.555-6.3659-0.0231-10.809 2.6589-14.933 7.3503-2.5813 2.9368-4.9075 5.692-6.231 8.1394-2.2912-0.51523-5.1776-1.3794-7.394 0.71466-3.0907 2.4886-2.4283 7.2711 0.07092 9.938 2.7168 3.3612 7.1114 4.7835 11.33 4.5124 7.1294-0.20413 14.185-2.2786 20.291-5.9564 4.1526-2.127 9.1974-3.3672 13.645-1.4283 4.4266 1.6859 9.662 2.6417 14.016 0.0532 2.6063-1.5495 5.1364-4.6151 3.6879-7.7305-1.6247-3.4943-5.6433-5.0947-9.3616-4.807-2.5145 0.19457-5.1557 0.12176-7.4558-1.0529 2.3325-0.92876 4.6687-3.1851 4.7961-5.8599 0.06862-1.4409-0.39747-2.8389-0.81687-4.0236 3.6918-7.0228 6.81-10.158 13.121-13.137 1.6795 2.3967 3.8871 3.8237 6.1348 5.3622-0.43102 7.4588-0.47607 15.509 3.0256 22.315 1.0383 2.0181 1.8084 3.7832 3.2485 5.5408-3.2683 9.3284-4.8851 19.828-6.2196 28.419-3.9037 0.2273-6.9203 1.1572-6.6591 6.117-4.1269-1.2428-13.105-2.6696-22.144 0.60954-5.8777 2.1323-11.485 6.6202-12.672 12.953-0.99047 5.2819-0.33045 11.148 0.74694 16.367 0.5258 2.5472 2.2417 5.3115 5.1677 5.4905 14.621 0.89411 29.483 1.1322 44.124 1.0666 3.6345-0.0161 7.3729 0.21373 10.931-0.57373 5.5518-4.4805 7.3696-13.344 4.4252-19.791-1.2497-2.7364-3.044-2.7776-5.446-3.8376 0.47929-0.91985 0.84635-2.1391 1.2335-3.4182 1.375-4.5422-0.417-10.032-4.7606-12.253-0.0975-5.1192 0.14383-9.3778 1.1984-14.443 0.47793-2.2956 0.97167-5.2772 1.4708-7.5125 4.8369 2.6527 10.086 4.5414 15.531 5.3099 1.704 5.6247 3.0288 11.207 4.0784 16.912-3.0445 1.2223-3.6613 4.856-3.2536 7.7482 0.29968 2.1257 0.47835 3.8544 1.148 6.0704-4.2819 7.3286-4.4268 12.164-2.5501 17.294 0.95377 2.6072 1.9522 5.3735 3.6232 7.5609 6.359 0.38314 12.881 0.24416 19.304 0.27315 11.461 0.0518 22.957 0.11997 34.397-0.15184 8.4319-5.5601 11.641-17.99 6.64-26.779-3.873-6.8071-12.197-9.9562-19.743-9.9139-6.7605 0.0378-13.632 3.2975-19.326 5.7004 1.0476-1.5056 0.53947-3.6667 0.16844-5.3723-0.60235-2.7691-2.6852-5.5195-5.7536-5.5851-1.235-4.2955-2.6665-8.5947-4.3794-12.748 10.984-0.0993 22.544-1.5137 31.977-7.5355 5.3853-3.4379 9.3649-7.6477 9.5439-15.975 0.16649-7.7459-0.25703-15.202-6.2555-19.229 0.47795-0.84844 1.8975-3.594-0.28311-5.913 2.1885-2.2394 4.1793-5.8287 2.5355-8.8652 2.4607-3.1992 3.714-8.2761 1.1791-11.605-2.6166-3.4358-7.9162-3.4846-11.902-3.484 3.0583-8.2962 0.54378-13.198-3.3549-15.727-2.5616-1.5718-6.756-2.0716-8.8652 0.4344-1.6406 1.9491-1.4535 5.0285-0.64716 7.3138 0.77413 2.1939 3.4692 3.713 2.8771 6.1785-0.48169 2.0058-1.9443 1.6997-4.0028 3.6762-1.9016 1.8259-2.422 2.8051-3.5385 4.6297-3.8248-2.8985-7.2488 2.4771-7.8559 4.4589-3.8621 0.45167-8.8498 1.1894-12.533 0.6401-0.20435-6.3392-3.9988-12.221-9.273-15.629 1.0849-1.5602 1.7203-3.7436 2.3404-5.2394 9.9136-1.8604 19.424-5.5009 28.307-10.23 4.1467 1.8142 9.3885 1.0048 12.411-2.5089 1.1874-1.2707 2.2875-3.1993 2.234-4.7518 4.2056-0.85393 8.8684-2.2084 11.578-5.7713 3.576 0.24832 7.533 0.0262 10.975-1.4184 2.8668-1.2031 6.3598-2.3291 7.8812-5.2394 1.1658-2.2301-0.2548-6.3647-3.0496-5.984-4.2073 0.57302-8.1996 2.3539-12.447 2.8192 5.8823-3.6157 12.528-6.8114 16.206-12.996 1.892-3.1823 0.26455-7.7709-3.422-8.5284-2.5916-0.5325-4.5984 1.6831-6.6492 2.8589-4.1042 2.3531-8.1075 5.2998-11.968 7.7705 2.9439-6.0781 6.2434-12.169 7.5089-18.865 0.59827-3.1656-0.34751-7.1762-3.7411-8.289-0.97035-0.31819-1.9895-0.61441-3.0142-0.55851z" style="stroke-linejoin:round;stroke-width:1.4184;stroke:#000"/><path d="m145.89 157.84s2.8724-7.7145 8.0428-10.833c5.1704-3.1186-1.4772-6.8117-1.7234-9.6842-0.24621-2.8724-0.8207-7.8786 5.991-7.0579 6.8117 0.82069 7.3862 8.8635 7.2221 10.669-0.16414 1.8055-1.3952 5.6628-1.3952 5.6628l-2.0517 1.0669s13.295-1.8055 15.019 4.0214c1.7235 5.8269-1.8055 12.803-10.833 14.937s-15.347 0.98483-15.265-4.9242c0.0821-5.909 5.8269-6.2373 8.9455-5.7448 3.1186 0.49242 10.012-2.0517 10.012-2.0517s-8.1153 1.5909-11.9 0.90276c-5.4166-0.98484-7.9515 3.7769-8.0428 6.1552-0.16414 4.2762 1.7234 5.6628 1.7234 5.6628s-0.58444 0.98226-0.41035 2.4621c-2.9596 0.78343-5.6628-3.4469-5.6628-3.4469s0.89835 4.4989 6.2373 4.76c0.34819 1.0446 1.8876 2.2159 1.8876 2.2159-0.34819 2.3793 1.0669 4.0214 1.0669 4.0214s-7.3198 0.026-9.438-6.6476c-0.3772 3.2788 2.2979 5.1704 2.2979 5.1704s-8.4531 3.4469-8.4531-9.6842 6.0513-12.651 6.4236-12.588c1.1616 0.19607 1.47 0.72501 1.47 0.72501-1.3952 2.0517-1.1639 4.2304-1.1639 4.2304z" style="fill:#f9f11d"/><path d="m175.28 162.04c-1.2568 1.5495-2.8564 2.8278-4.6614 3.656-4.4026 2.0342-9.4171 2.8845-14.248 2.3967-1.1652-0.0457-2.7154-0.81835-3.8388-1.3507-0.38099 0.66917-0.56982 1.3639-0.42653 2.0413 0.63834 3.0176 3.5457 4.1754 5.809 4.8137s10.209 1.1664 14.329-3.1279c2.9728-3.0984 3.9137-5.6298 3.0365-8.4291z" style="fill:#f9f11d"/><path d="m172.75 170.88c-4.7626 5.5329-15.357 4.2928-18.392 1.9702 0.0472 0.62888 0.1192 1.662 0.41928 2.3184 0.9285 2.0311 3.3644 4.2349 10.386 4.1188 7.0218-0.11606 8.4574-4.5854 8.416-5.9787-0.0352-1.1858-0.30662-1.6245-0.82986-2.4286z" style="fill:#f9f11d"/><path d="m46.453 146.95c1.5045-1.4328 7.2358-5.3732 11.606-2.1493 4.3702 3.2239 7.9523 8.8836 6.9493 12.609-1.003 3.7254-6.0896 6.2329-6.0896 6.2329s0.37858-2.6066-0.83723-3.8984c0.27862 2.9129-0.38069 4.1849-2.9598 7.2655-2.5791 3.0806-6.3045 6.0179-20.131 8.7403-13.827 2.7224-18.699 5.6597-23.14 1.791s-2.7701-7.6324-0.69245-8.8503c2.0776-1.2179 9.4502-1.3525 16.543-3.0719 7.0926-1.7194 10.138-3.0688 10.138-3.0688 1.7015 0.3403 4.1015 0.23283 4.1015 0.23283s-8.0239-0.93134-11.176-5.9463c3.3672-0.35821 5.1582-1.2896 5.1582-1.2896s-14.328 2.794-18.054-4.7284c-3.7254-7.5224 4.012-9.1702 7.0926-9.1702 3.0806 0 6.1612 4.2985 9.0985 5.0866 2.9373 0.78806 7.2152-0.2928 11.024 0.75839 3.983 1.0992 6.8863 3.3252 6.8863 3.3252s-2.1493-3.2239-5.5164-3.8687z" style="fill:#f9f11d"/><path d="m27.612 156.52c-2.5257 0.56544-5.4171 1.3456-7.2163 2.2695-2.3689 1.2164-3.2546 3.3421-3.5904 4.7429 5.0758-1.7782 10.475-2.6809 15.709-3.9362-1.0207-0.83283-1.9132-1.8123-2.5975-2.9699-0.76761-6e-3 -1.5364-0.0425-2.305-0.10638zm5.4876 3.5284c-4.8755 1.0624-14.608 3.247-16.454 4.1135-1.3352 0.62672-2.039 1.8968-2.4291 3.1117 7.812-1.0297 15.674-2.235 23.014-5.0886-1.4624-0.51663-2.8759-1.224-4.1312-2.1365z" style="fill:#f9f11d"/><path d="m54.748 184.72s-7.0775-1.4992-13.41 2.188c-6.3322 3.6871-8.3716 7.365-10.879 11.162 6.4478-2.4358 12.963-5.3909 17.933-9.3987-4.6851 5.4966-14.534 9.083-18.942 10.446 5.6108 0.96186 8.2013 2.0585 24.232-2.5905-4.8093 2.2443-13.145 4.9696-19.798 4.649-6.6528-0.32062-9.859-3.6871-12.905-0.48092-3.0459 3.2062-1.2825 8.7369 4.4085 11.783 5.691 3.0459 18.756 0.0802 24.287-3.126 5.5307-3.2062 10.34-4.649 14.428-3.6871 4.0879 0.96185 9.6987 4.2482 15.47 1.1222 5.7711-3.126 5.2902-7.2941 1.6832-10.099-3.607-2.8054-7.2139-1.042-11.703-1.9237-4.4887-0.8817-7.4544-4.8093-7.4544-4.8093s3.7673 2.565 5.2902 2.8856c0 0 4.3284-2.4046 4.0879-5.6108s-2.1642-6.8132-7.2941-8.4162c-5.1299-1.6031-7.775-1.4428-10.5 0.96186-2.7253 2.4046-3.0459 3.5268-3.0459 3.5268 1.0807-7e-3 2.8874 0.64381 4.1117 1.419z" style="fill:#f9f11d"/><path d="m81.15 132.13c-2.3447 2.6618-5.5895 6.1824-7.6152 7.6596-2.9944 2.1834-10.874 4.755-13.115 5.4936 2.1624 2.0787 4.3272 4.3923 5.3656 7.1369 2.9165-1.2042 6.1594-2.6604 9.6109-4.3237 3.1153-1.5014 6.3838-3.5455 8.8121-5.1596-2.0922-3.1632-3.2625-6.9534-3.0585-10.807z" style="fill:#cb1501"/><path d="m139.13 118.14c-3.8459 2.6177-9.727 6.3858-13.728 7.9574-6.0179 2.3642-14.619 1.1525-14.619 1.1525s-1.435 1.716-2.4379 3.8652 0.22113 4.653 1.1525 5.656c0.93135 1.003 5.6587 1.5076 18.626-2.0745 7.318-2.0216 14.518-5.3926 19.406-7.9433-3.8223-1.6031-7.3435-4.5946-8.4001-8.6134z" style="fill:#cb1501"/><path d="m80.706 158.79c-2.9671 1.5999-7.0227 4.2205-10.824 8.156-4.6791 4.8437-6.6794 7.796-7.6504 10.011 4.0872 1.3916 6.5118 3.0048 8.4394 5.9735 1.086-2.2569 2.8701-5.4372 5.3014-8.1117 1.9221-2.1144 5.1932-3.8752 8.227-5.1773-0.85888-1.2179-1.6012-2.5328-2.172-3.9539-0.90995-2.176-1.3391-4.5375-1.3209-6.8972z" style="fill:#cb1501"/><path d="m113.74 156.89c-0.11476 5.2e-4 -0.21635 4e-3 -0.30142 0.0177-1.3612 0.21493-4.2211 3.368-3.2181 6.0904s7.375 4.797 15.399 5.5851c5.139 0.50472 9.7774 1.2356 12.956 1.7023-0.48321-3.6688-0.57961-8.8348 0.2193-12.101-3.106 0.4595-7.4892 0.95114-11.89 0.58439-6.4478-0.53732-11.444-1.8891-13.165-1.8794z" style="fill:#cb1501"/><path d="m140.34 232.33c-5.0952 0.10898-11.912 2.3923-13.865 4.2376-3.2066 3.0288-0.14184 11.968-0.14184 11.968 2.8657 0.21492 8.812-1.1436 8.812-1.1436s-4.9486 2.4351-9.1755 2.7216c0 0-2.6442 3.3637-3.289 9.1667-0.64477 5.803 4.2996 13.972 4.2996 13.972 24.143 0.28657 53.156 0.0709 53.156 0.0709s8.8135-5.1598 8.6702-17.482c-0.14329-12.322-10.684-17.083-18.848-18.05-10.89-1.2896-25.142 8.0925-28.652 8.2358 0 0 5.9421-2.6459 6.5869-4.0071 0 0 0.86501-4.7342-2.2872-8.2447-0.98508-1.097-2.95-1.4946-5.266-1.445zm-47.314 0.14184c-1.1443-7e-3 -2.1335 0.0521-2.8723 0.15957-3.9403 0.57314-6.0888 2.2179-5.3723 5.5851 6.0179 1.6478 14.832 8.7411 14.832 8.7411s-17.418-12.324-33.537-8.6702c-16.119 3.6538-17.043 14.048-16.613 21.427 0.42985 7.3791 1.3578 11.174 3.8652 12.535 2.5075 1.3612 54.663 2.5034 56.454 1.2854 1.791-1.2179 5.0141-5.4417 5.3723-10.887s-1.5775-8.6719-2.5089-9.3883c-0.93134-0.71643-8.5904-3.8652-8.5904-3.8652l4.2908 0.28369s3.5888-5.7328 0.22163-11.321c-2.7358-4.5403-10.582-5.857-15.541-5.8865z" style="fill:#f9f11d"/><path d="m123.31 197.86c-0.26446-2.7e-4 -0.5294 9e-3 -0.78015 0.0266-2.006 0.14328-3.7936 2.6488-3.8652 3.7234-0.0717 1.0746 2.3619 5.375 5.5142 15.691 2.0178 6.6036 3.3156 12.977 4.0418 17.044 3.9403-1.816 7.9863-2.3396 12.102-2.5843 0.52053-0.0113 1.0401 3e-3 1.5603 0.0443-0.5986-1.8615-1.273-3.9589-2.0833-6.4096-2.9373-8.8836-10.673-24.935-11.676-26.082-0.87762-1.003-2.9626-1.4519-4.8138-1.4539z" style="fill:#881501"/><path d="m97.439 204.6c-3.0972 7.5467-5.2809 20.581-6.3513 27.429 0.28781-0.0223 0.57015-0.0404 0.8422-0.052 4.4618-0.0567 9.1068 0.0149 13.102 2.0245-0.10396-2.4734-0.14599-4.7944 0.0722-7.4162 0.29605-3.5574 1.2662-8.5332 2.3062-13.381-3.8215-2.1792-7.2258-5.2388-9.9709-8.6041z" style="fill:#cb1501"/><path d="m122.94 198.44c-1.7749 0.0166-3.4017 1.6681-3.6968 3.3422 2.7177 7.1614 5.5077 14.34 7.2571 21.827 0.87415 3.4006 1.548 6.9372 2.2553 10.31 3.841-1.8018 8.0964-2.624 12.332-2.7216-3.2843-10.809-7.9076-21.227-13.174-31.188-1.0243-1.5036-3.3304-1.5265-4.9734-1.5692z" style="fill:#cb1501"/><path d="m123.8 168.95c-2.189 3.7926-5.9716 6.5615-9.9823 8.3156-7.0298 3.0635-15.588 2.5657-22.287-1.1259-0.21854 2.9185-0.20692 6.417 0.05319 10.594 0.76735 12.323 9.1046 26.182 31.294 30.398-1.4067-5.3311-3.3571-10.616-4.7695-15.336 0.23069-2.1767 2.2115-4.1732 4.3883-4.4681 2.0249-0.0748 4.3272 0.0836 5.9131 1.4716 3.2261 4.6863 7.627 13.342 10.175 19.591 23.791 0.0502 40.02-8.0797 40.02-22.543 0-7.3332 0.41673-13.566-5.3103-18.599-1.0318 1.2213-2.9526 2.1338-4.4326 2.4557-5.3364 1.1606-9.5736 1.0617-13.59-2.2252-2.399 0.26167-4.7154-0.83759-6.8883-2.1188-0.85739 0.51733-1.5962 0.56591-2.3404 0.73582-3.338 0.54556-6.6805-1.5621-7.2997-4.695-5.1144-0.55168-9.7945-1.9632-14.943-2.4504z" style="fill:#cb1501"/><path d="m117.33 142.94c-5.3163 8.0679-16.523 10.882-25.053 6.8351-2.0808-0.89122-3.9825-2.2119-5.6028-3.8298-3.3697 3.4689-5.3989 7.9768-5.3989 12.899 0 10.964 10.09 19.849 22.544 19.849 8.3059 0 15.563-3.9554 19.477-9.8404-1.9982-0.28834-3.9888-0.63727-5.9574-1.117-2.7698-0.89042-6.242-1.6902-7.6418-4.5213-0.91827-2.7446 1.0291-5.9851 3.6702-6.8794 1.9831-0.0496 3.9213 0.57153 5.8777 0.83333 2.3454 0.48254 4.7256 0.7965 7.1099 0.96632-0.24664-6.2146-3.7347-11.706-9.0248-15.195z" style="fill:#cb1501"/><path d="m100.76 114.92c-10.525 0-19.06 8.087-19.06 18.059s8.5348 18.059 19.06 18.059c8.9177 0 16.029-5.2691 18.108-13.106-2.5559 0.45485-4.7564 0.1778-7.3632 0.0833-1.8721 0.10099-3.2161-1.3837-3.7057-3.0496-1.3097-3.0592 0.9372-6.0332 2.7571-8.3067 2.6906 0.29444 5.1171 0.15382 7.8964-0.40542-2.6358-6.978-9.4206-11.332-17.693-11.332z" style="fill:#cb1501"/><g transform="matrix(.45215 0 0 .45215 -72.232 -82.707)"><path d="m204.19 78.562c-7.968 1.4088-8.2998 11.97-8.5312 18.594 0.55041 17.505 5.0587 35.806 16.156 49.594 3.1398 4.4872 8.2309 7.5857 14.122 4.688 26.98-13.27 58.96-20.417 89.471-18.157-0.44297 6.4363-3.269 14.679 1.8438 19.906 3.8097 24.847 6.6564 49.934 7.2188 75.125-11.464-0.0805-24.422 4.2456-30.938 14.156-2.413 3.2111-1.3519 7.7278-1.1562 10.781-11.976 12.389-18.926 29.963-16.938 47.344 0.42243 5.8028 1.2857 12.057 3.7188 17.156-13.716 5.1052-22.19 19.84-21.719 34.156-1.4605 20.163 12.681 36.534 25.719 50.031 10.457 10.259 21.596 19.73 29.994 31.968 8.4216 10.806 17.028 22.605 30.631 26.97 19.696 7.216 42.07 7.6503 61.795 0.16093 28.001-9.834 55.773-24.096 75.799-46.317 13.712-16.785 14.614-24.617 11.572-45.012 13.404-28.59 17.514-63.47 3.4902-92.644-5.1993-10.725-12.618-21.446-23.688-26.5 6.397-15.653 13.128-31.238 21.375-45.969 12.689-24.264 27.537-47.129 41.606-70.564 5.2802-10.67 12.238-23.053 8.2061-35.217-4.2776-9.6637-17.875-9.2881-25.438-3.875-8.4009 5.1002-14.024 13.737-18.938 21.812-19.014 8.6523-40.482 11.809-61.219 10.094-4.8244-4.1418-11.136 0.79862-12.188 6.0625-4.2548 14.649-2.5709 31.226 4.3125 44.781 1.9698 4.6049 8.4376 8.8525 12.688 4.5625 9.9435-7.2886 21.677-12.327 32.151-19.048 7.3346-5.7448 6.282-1.6449 3.0367 5.0792-8.5549 22.769-16.661 45.747-24.562 68.719-10.419-7.0957-16.085-8.1243-23.96-9.3638-19.839-8.8595-43.748-14.914-65.634-12.667-3.8889 0.57464-7.7706 1.4303-11.5 2.5938 2.3838-30.548 6.376-61.031 11.906-91.125 4.7618-11.949 11.242-24.623 9.75-37.844-2.1609-8.9766-13.935-9.6509-21.031-6.5-10.11 3.8229-18.401 11.372-24.844 19.938-28.764-1.2571-57.691-2.8252-85.402-11.039-16.536-4.9012-32.927-13.482-38.879-12.43z" style="stroke-linejoin:round;stroke-width:5;stroke:#000"/><path d="m333.93 229.33s17.321-14.464 43.929-12.857c26.607 1.6072 47.321 11.607 47.321 11.607-25.179 2.3214-40.357 17.143-40.357 17.143s23.979-15.767 48.214-12.5c31.061 4.1873 40.893 26.429 40.893 26.429s-0.3125-4.0625-1.25-6.4286c4.375 1.6071 22.679 13.929 29.107 47.857 6.4286 33.929-10.357 67.679-10.357 67.679-3.125-2.9464-7.5893-4.1964-7.5893-4.1964s8.9521 8.8192 7.7679 24.732c-2.8571 38.393-83.929 75.536-112.5 75.714-32.5 0.20313-46.786-11.071-51.786-16.607-5-5.5357-18.723-22.929-22.857-28.036-6.0714-7.5-42.143-34.821-44.643-59.464-2.5-24.643 7.6786-32.857 14.821-38.214 7.1428-5.3571 18.393-3.125 18.393-3.125-6.6071 9.1071-8.0357 22.054-8.0357 22.054s10.478-28.676 32.143-30.536c24.085-2.0671 36.071 28.036 36.071 28.036s-5.4464-29.196-29.911-32.5c0 0 13.839-33.214 4.5536-49.107-9.2857-15.893-26.518-12.5-33.571-6.4286-1.9643-4.6429 2.5-15.357 23.036-19.821 18.268-3.9713 31.429 15.536 31.429 15.536-2.2274-4.9268-5.304-11.676-14.821-16.964z" style="fill:#cb1501"/><path d="m421.88 254.09c-23.384-0.28995-45.298 17.472-51.562 43.562-5.0692 21.113 1.4927 41.99 15.281 54.688-3.6717 2.2007-6.9315 4.6332-9.875 7.1562 0 0 22.474-10.168 44.625-11.062 23.809-0.96198 46.786 8.9375 40 3.9375-1.8207-1.3415-4.3524-2.7797-7.4062-4.0938 6.8901-7.2375 12.141-16.546 14.719-27.281 7.1592-29.818-8.8424-59.203-35.719-65.656-3.3595-0.80662-6.7219-1.2086-10.062-1.25z"/><path d="m421.62 258.72c-21.414-0.26552-41.451 16.014-47.188 39.906-4.8166 20.061 1.7933 39.908 15.406 51.375 4.5889-2.3101 9.7849-4.2344 15.75-5.5938-5.8042-6.7968-9.375-16.137-9.375-26.438 0-20.789 14.594-37.625 32.594-37.625s32.594 16.836 32.594 37.625c0 5.3035-0.94264 10.361-2.6562 14.938 2.0743-3.9593 3.7098-8.2824 4.8125-12.875 6.556-27.305-8.1069-54.247-32.719-60.156-3.0765-0.73866-6.1596-1.1183-9.2188-1.1562z" style="fill:#fff"/><path d="m308.47 248.06c-18.857-0.12612-30.146 30.416-30.875 38.75-1.4286 16.339 1.8661 27.246 2.9375 29.031 8.3929-1.7857 14.75 0.34375 14.75 0.34375 0.55339-0.58594 1.1168-1.1049 1.6875-1.625-4.7343-4.5303-7.8125-11.8-7.8125-19.969 0-13.726 8.6627-24.844 19.344-24.844 8.1834 0 15.144 6.5534 17.969 15.781 2.8164-14.182 2.7638-31.31-11.906-36.375-2.1094-0.72824-4.1431-1.0807-6.0938-1.0938z" style="fill:#fff"/><path d="m274.73 372.9c0.0893-0.35715-1.25-6.6072 4.1072-12.768 5.3571-6.1607 15.446-4.7321 15.446-4.7321s-8.6607 3.75-10.446 6.9643c0 0 17.946 30 75.804 34.286 57.857 4.2857 79.643-12.857 79.643-12.857-5.5357-3.9286-20-6.0714-20-6.0714s17.857-4.6429 26.071 0.71428c8.2143 5.3571 14.107 12.321 15.357 21.786 0 0-11.607-12.857-17.143-14.286 0 0-16.429 58.214-48.214 65-31.786 6.7857-55.714 0.71429-66.786-10-11.071-10.714-18.393-21.696-20.714-29.643 0 0-7.8571-5-8.9286-8.5714-1.0714-3.5714-2.5-22.5-2.5-22.5s-8.75-3.9286-14.911-15.625c-3.3928 2.3214-6.7857 8.3036-6.7857 8.3036z"/><path d="m438.28 389.2c-3.7881 14.268-17.173 35.229-17.173 35.229s-73.867 15.279-120.21-21.971l-1.0102-20.329s22.223 17.046 64.018 18.309c41.795 1.2627 53.601-1.6415 74.372-11.238z" style="fill:url(#linearGradient4186)"/><path d="m312.77 413.82c43.563 25.506 98.364 15.405 106.32 13.89 0 0-8.9651 15.279-20.077 18.94-11.112 3.6618-48.866 7.0711-65.786-6.0609-16.92-13.132-20.456-26.769-20.456-26.769z" style="fill:url(#linearGradient4194)"/><path d="m308.5 273.69c-8.9831 0-16.281 9.3621-16.281 20.906 0 7.4229 3.0246 13.948 7.5625 17.656 9.7455-6.9791 20.406-6.0625 20.406-6.0625s2.3746-5.5954 4.5-13.281c-0.67407-10.748-7.6503-19.219-16.188-19.219z" style="fill:url(#linearGradient4444)"/><ellipse transform="matrix(.57093 0 0 .63587 133.1 109.83)" cx="307.21" cy="290.58" rx="18.056" ry="20.834"/><ellipse transform="matrix(.55177 0 0 .52229 135.32 133.61)" cx="307.21" cy="290.58" rx="18.056" ry="20.834" style="fill:#fff"/><path d="m428.81 285.06c-15.735 0-28.5 14.733-28.5 32.906 0 10.24 4.0558 19.403 10.406 25.438 3.1325-0.50207 6.4574-0.85412 10-1.0312 8.2796-0.41399 16.716 0.92235 23.906 3 7.6482-5.9005 12.688-15.986 12.688-27.406 0-18.173-12.765-32.906-28.5-32.906z" style="fill:url(#linearGradient4446)"/><ellipse transform="matrix(.49252 0 0 .47555 220.95 170.34)" cx="427.67" cy="317.1" rx="33.714" ry="38.512"/><ellipse transform="matrix(.4445 0 0 .43351 231.01 166.63)" cx="427.67" cy="317.1" rx="33.714" ry="38.512" style="fill:#fff"/><path d="m531 93.094c-0.31442-0.0032-0.64462 0.01595-0.96875 0.03125-6.6679 0.31468-15.33 4.6384-23.969 17.094-0.93954 1.3547-1.9608 3.079-3.0625 5.0938 5.9638-2.6222 11.811-5.5293 17.5-8.6562l4.7188-5.625c5.3613 13.914-3.2373 31.381-12.375 39.531-9.0876 7.154-18.418 11.335-28.344 17.312-11.367 29.24-23.114 63.072-28.938 80.125 5.3046 2.9336 10.125 6.6558 13.969 11.188 0.47563 0.16427 0.94255 0.34691 1.4062 0.53125 1.2491-2.4559 2.5059-5.3341 3.7188-8.7812 6.7857-19.286 32.835-66.085 51.406-94.656 18.571-28.571 19.286-42.491 15-48.562-1.7578-2.4902-5.3462-4.5772-10.062-4.625z" style="fill:url(#linearGradient4242)"/><ellipse transform="matrix(.95984 0 .078675 .91299 -.36515 10.666)" cx="442.14" cy="157.72" rx="10.714" ry="30" style="fill:url(#linearGradient4108)"/><path d="m521.44 108.44s-23.58 13.201-43.938 17.844c-12.83 2.9261-26.771 3.1669-35.344 2.9375 0.96255 1.6294 1.7689 3.3614 2.4062 4.875 4.8877 13.742 6.7462 29.181 2.9062 42.719 14.613-8.1362 54.715-30.771 64.688-40.156 12.143-11.429 9.2812-28.219 9.2812-28.219z" style="fill:#666"/><ellipse transform="matrix(.90515 0 .21424 .96591 -9.3525 3.0594)" cx="217.86" cy="115.93" rx="14.286" ry="35.714" style="fill:url(#linearGradient4110)"/><path d="m214.59 84.938c3.7143 4.6529 6.4121 10.943 8.3438 15.375 5.3777 14.959 9.2253 31.845 4.6562 45.156 9.4307-3.1862 29.885-9.5996 50.625-12.75 28.214-4.2857 53.938 0.34375 53.938 0.34375s14.259-10.688 18.188-28.188c0 0-39.272-1.0804-67.844-3.9375-20.946-2.0946-52.48-11.24-67.906-16z" style="fill:#666"/><path d="m361.66 82.406c-8.2768 0.25887-19.656 6.2031-29.5 18.156-0.41678 0.50609-0.82321 1.0206-1.2188 1.5312 3.656 0.14113 14.778 0.53922 19.312 0.9375 0.33758-7.5481 4.6135-8.4934 6.1562-7.6562-0.0587 16.842-10.174 27.855-17.281 34.906-5.4154 5.3723-8.5598 11.649-12.062 10.688-2.1094-0.57918 2.0415-4.411 3.2188-6.0312-3.3353-0.48392-9.509-1.3679-12.844-1.625-1.0545 6.0914-1.1401 11.025-1 13.688 0.35714 6.7857 8.2009 7.8705 15.344 7.1562-2.6786 1.7857-6.4107 3.9062-12.125 1.4062 0 0 6.1992 39.019 6.8125 72.031 1.4157 0.18406 2.8405 0.49068 4.2188 0.9375 5.8604-5.0055 12.685-8.4856 19.969-10.75 1.9331-32.857 11.5-90.781 11.5-90.781s14.996-31.772 9.2812-40.344c-1.9643-2.9464-5.4458-4.3856-9.7812-4.25z" style="fill:url(#linearGradient4240)"/><path d="m518.38 112.34c-21.207 11.25-44.568 20.601-68.875 18.938-5.7679-0.39471-3.1558 1.723-2.1562 4.8125 3.7976 11.767 5.4187 24.503 3.125 36.75 20.606-12.121 42.317-23.001 60.875-38.188 6.0812-6.0025 8.6906-14.66 8.3438-23.031l-0.8771 0.48031z" style="fill:url(#linearGradient4100)"/><path d="m219.5 88.656c8.3186 15.609 13.813 33.819 11.461 51.674-1.7974 4.684 5.7335-0.93422 7.8206-0.54889 29.816-9.265 61.713-13.903 92.812-8.8438 7.432-6.3402 13.376-14.592 16.188-24.156-35.114-1.5332-70.757-1.7362-104.72-11.652-7.8107-1.9077-16.413-4.6502-23.563-6.4727z" style="fill:url(#linearGradient4206)"/><path d="m355.94 85c-4.352 0.82377-15.546 8.3002-23.188 17.156 4.4917 0.17034 13.407 0.51547 17.5 0.875 0.33758-7.5481 4.6135-8.4934 6.1562-7.6562-0.0587 16.842-10.174 27.855-17.281 34.906-2.0308 2.0146-3.7505 4.1604-5.2812 6v0.25l11.875 5.4375s15.846-17.53 20.477-30.172c4.672-12.753 5.7537-20.026 3.5228-23.891-3.1156-5.3977-8.9744-3.8161-13.781-2.9062z" style="fill:url(#linearGradient4219)"/><path d="m531.88 95.406c-4.5821-0.08985-10.143 2.0134-14.562 4.625-4.4031 2.6018-8.7593 8.9868-12.062 14.25 5.1812-2.3519 10.282-4.8946 15.25-7.625l4.7188-5.625c5.3613 13.914-3.2373 31.381-12.375 39.531-6.3194 4.9748-12.765 8.5154-19.438 12.219l6.9375 27.625s20.902-29.308 28.938-43.594c8.0357-14.286 13.746-28.371 10.531-36.406-1.4062-3.5156-4.3737-4.9301-7.9375-5z" style="fill:url(#linearGradient4232)"/></g><path d="m159.73 89.586c-0.82267-3.9335-2.2392-8.5887-6.445-10.142-3.662-1.3523-8.5273-0.86098-10.621 2.828-1.7228 3.0362-0.8752 6.553 1.4134 8.9 1.5352 1.5743 4.4432 3.5174 4.8071 4.8688 9.9228 29.553 33.635-38.181 10.845-6.455z" style="stroke-linejoin:round;stroke-width:1.4184;stroke:#000"/><path d="m146.13 105.6c0.89553 3.5821 3.5968 6.7882 3.5968 6.7882s-3.5461-7.1429-2.077-11.044c1.4691-3.9007 1.8744-4.3566 1.6211-5.8257-0.25329-1.4691-6.5856-5.2178-7.2442-9.2199-0.65856-4.002 2.5329-7.8014 7.7001-7.2442 5.1672 0.55724 6.7882 3.2928 7.9027 6.383 1.1145 3.0902 1.2158 5.7244 1.925 6.2817s6.6869 3.7994 7.6494 9.9797c0.96251 6.1803-0.5215 9.8609-9.1186 13.121 3.403-0.71642 11.854-3.0902 10.233-12.361-1.6211-9.2705-7.9979-11.286-7.9979-11.286l-0.59412-1.5863s7.5952-9.3558 8.6933-16.307c0.365-2.3104 1.1145-7.6494 5.1165-7.1429 4.002 0.50658 6.4336 2.8875 5.3192 9.0172-1.1145 6.1297-7.5988 18.389-7.5988 18.389l-3.0902 2.9889s19.2-12.817 20.77-13.323c1.5704-0.50659 4.8126 0.6079 5.4205 4.2553 0.6079 3.6474-4.8632 9.1692-9.8278 12.057-4.9645 2.8875-9.0172 5.4205-9.0172 5.4205 7.3791-0.42986 14.083-3.3435 15.4-3.0395 1.3171 0.30395 2.9889 2.5836 1.925 5.2178-1.0638 2.6342-8.5106 5.7244-12.462 6.1804s-6.1297-0.0507-6.1297-0.0507-0.8612 2.6342-7.0415 4.8126c-6.1804 2.1783-11.246 1.3171-11.246 1.3171s1.9744 1.4307 6.4163 0.75013c-0.25075 2.794-4.6939 8.4191-11.381 7.0513-6.6869-1.3678-10.537-5.7244-11.246-11.803s6.383-9.7771 6.383-9.7771z" style="fill:#f9f11d"/></g></svg>
