<?xml version="1.0" encoding="UTF-8"?>
<svg width="386.8mm" height="632.75mm" version="1.1" viewBox="0 0 386.8 632.75" xmlns="http://www.w3.org/2000/svg"><defs><clipPath id="clipPath831"><path d="m0 2190.5h1829.7v-2190.5h-1829.7z"/></clipPath><clipPath id="clipPath851"><path d="m378.56 1184.5h230.57v-605.72h-230.57z"/></clipPath><clipPath id="clipPath867"><path d="m381.38 253.39h1018v-165.8h-1018z"/></clipPath><clipPath id="clipPath891"><path d="m610.22 521.44h192.18v-180.99h-192.18z"/></clipPath><clipPath id="clipPath907"><path d="m902.09 451.16h210.37v-129.9h-210.37z"/></clipPath><clipPath id="clipPath939"><path d="m586.09 413.63h237.51v-167.96h-237.51z"/></clipPath><clipPath id="clipPath955"><path d="m510.46 334.29h300.44v-174.83h-300.44z"/></clipPath><clipPath id="clipPath987"><path d="m914.42 421.57h251.62v-179.41h-251.62z"/></clipPath><clipPath id="clipPath1003"><path d="m922.45 219h10.825v-5.602h-10.825z"/></clipPath><clipPath id="clipPath1023"><path d="m933.27 338.18h231.94v-189.43h-231.94z"/></clipPath><clipPath id="clipPath1043"><path d="m679.29 557.39h191.43v-57.185h-191.43z"/></clipPath><clipPath id="clipPath1059"><path d="m683.18 581.47h420.32v-350.9h-420.32z"/></clipPath><clipPath id="clipPath1175"><path d="m585.04 746.77h485.88v-244.28h-485.88z"/></clipPath><clipPath id="clipPath1195"><path d="m1111.2 1283.1h179.03v-538.82h-179.03z"/></clipPath><clipPath id="clipPath1211"><path d="m456.07 1431.5h757.84v-675.9h-757.84z"/></clipPath><clipPath id="clipPath1239"><path d="m495.89 1379.2h541.97v-499.75h-541.97z"/></clipPath><clipPath id="clipPath1271"><path d="m637.15 947.84h64.727v-309.14h-64.727z"/></clipPath><clipPath id="clipPath1295"><path d="m1127 1164.6h192.82v-589.33h-192.82z"/></clipPath><clipPath id="clipPath1311"><path d="m1191.3 1278.1h244.78v-721.83h-244.78z"/></clipPath><clipPath id="clipPath1331"><path d="m654.4 1905.9h530.52v-612.43h-530.52z"/></clipPath><clipPath id="clipPath1347"><path d="m484.19 1795.9h227.32v-632.27h-227.32z"/></clipPath><clipPath id="clipPath1363"><path d="m564.75 1702.8h498.98v-283.19h-498.98z"/></clipPath><clipPath id="clipPath1383"><path d="m617.26 1263.8h68.681v-32.89h-68.681z"/></clipPath><clipPath id="clipPath1399"><path d="m610.67 1347.2h54.01v-96.78h-54.01z"/></clipPath><clipPath id="clipPath1415"><path d="m485.48 1447.8h699.44v-332.53h-699.44z"/></clipPath><clipPath id="clipPath1439"><path d="m1087.5 1823.2h71.36v-108.97h-71.36z"/></clipPath><clipPath id="clipPath1455"><path d="m519.56 1821.5h68.22v-98.87h-68.22z"/></clipPath><clipPath id="clipPath1471"><path d="m563.62 1599.7h126.66v-87.64h-126.66z"/></clipPath><clipPath id="clipPath1487"><path d="m944.38 1622.5h156.91v-71.1h-156.91z"/></clipPath><clipPath id="clipPath1511"><path d="m938.08 1683c-37.215-2.606-24.151-62.313-24.151-62.313s16.907-1.449 34.779-0.483c17.872 0.967 35.262 8.695 35.262 8.695s2.271 54.238-41.872 54.244c-1.301 0-2.635-0.047-4.018-0.143"/></clipPath><clipPath id="clipPath1531"><path d="m0 2190.5h1829.7v-2190.5h-1829.7z"/></clipPath><clipPath id="clipPath1547"><path d="m690.6 1679c-46.211-5.299-40.363-64.625-40.363-64.625s17.102-6.088 34.793-4.889c18.292 1.24 35.952 5.135 35.952 5.135s7.66 64.59-26.919 64.583c-1.108 0-2.266-0.067-3.463-0.204"/></clipPath><clipPath id="clipPath1567"><path d="m0 2190.5h1829.7v-2190.5h-1829.7z"/></clipPath><clipPath id="clipPath1579"><path d="m602.37 1744.9h141.05v-86.7h-141.05z"/></clipPath><clipPath id="clipPath1599"><path d="m879.15 1753.1h151.19v-86.46h-151.19z"/></clipPath><clipPath id="clipPath1615"><path d="m736.11 1666.6h198.4v-239.86h-198.4z"/></clipPath><clipPath id="clipPath1631"><path d="m614.33 1482.9h100.37v-75.81h-100.37z"/></clipPath><clipPath id="clipPath1647"><path d="m979.62 1541.1h106.11v-57.6h-106.11z"/></clipPath><clipPath id="clipPath1675"><path d="m781.1 1291.4h125.08v-102.25h-125.08z"/></clipPath><clipPath id="clipPath1691"><path d="m696.22 1477.3h294.6v-189.79h-294.6z"/></clipPath><clipPath id="clipPath1711"><path d="m757.89 1669.3h126.59v-41.05h-126.59z"/></clipPath><clipPath id="clipPath1735"><path d="m728.73 1610h99.28v-123.98h-99.28z"/></clipPath><clipPath id="clipPath1759"><path d="m735.36 1594.8h154.85v-98.38h-154.85z"/></clipPath></defs><g transform="translate(171.91 187.78)"><g transform="matrix(.35278 0 0 -.35278 -291.74 484.56)"><g clip-path="url(#clipPath831)"><g transform="translate(464.22 575.9)"><path d="m0 0c1.932-5.797 21.253-77.286 50.236-92.743 28.982-15.458 100.47-17.39 129.45-9.661 28.983 7.728 71.49 59.897 61.829 96.607-9.66 36.712-79.218 85.016-79.218 85.016z" style="fill:#6e4119"/></g><g transform="translate(473.88 1184.5)"><path d="m0 0s-146.84-181.62-133.32-336.2c13.526-154.57 108.2-285.96 108.2-285.96s19.322 1.932 63.761 13.525c44.44 11.593 96.608 38.643 96.608 38.643z" style="fill:#ecd9c4"/></g><g clip-path="url(#clipPath851)" style="opacity:.2"><g transform="translate(473.88 1184.5)"><path d="m0 0s-27.579-135.08-43.308-257.95c-2.324-18.158-52.466-9.902-52.011-28.654 0.229-9.457 58.077-34.71 60.706-43.799 40.417-139.76 95.636-275.32 95.636-275.32l74.228 35.734z"/></g></g><g clip-path="url(#clipPath867)" style="opacity:.2"></g><g transform="translate(601.41 550.79)"><path d="m0 0 42.507-137.18 133.32-96.608 27.051-11.593s1.932 94.676-5.797 127.52c-7.729 32.847-36.711 129.46-73.422 142.98s-123.66-25.118-123.66-25.118" style="fill:#4f81a2"/></g><g transform="translate(837.13 517.94)"><path d="m0 0s40.575-9.66 57.965-65.693c9.786-31.533 27.05-124.95 27.05-124.95s5.152-26.406 82.439-20.61c77.286 5.797 114.64 64.405 114.64 64.405s-8.166 59.622-23.186 131.39c-17.39 83.082-44.44 114-44.44 114s-71.489 21.254-127.52-1.932c-56.032-23.186-86.947-96.608-86.947-96.608" style="fill:#4f81a2"/></g><g clip-path="url(#clipPath891)" style="opacity:.2"><g transform="translate(661.59 394.02)"><path d="m0 0c51.553 3.914 104.43-16.281 140.26-53.563 2.596 15.424-4.134 30.947-12.786 43.976-19.285 29.041-49.185 50.863-82.724 60.374-15.459 4.384-32.115 6.453-45.309 15.624-8.209 5.706-14.441 13.76-20.537 21.683-10.087 13.11-20.175 26.22-30.262 39.329 8.396-41.805 21.597-82.644 39.262-121.45 0.72-1.583 1.487-3.215 2.812-4.341 2.462-2.092 6.068-1.873 9.289-1.629"/></g></g><g clip-path="url(#clipPath907)" style="opacity:.2"><g transform="translate(1111.9 413.16)"><path d="m0 0c2.729 11.452-4.306 23.583-14.292 29.818-9.987 6.235-22.254 7.61-34.026 7.428-43.909-0.68-85.615-20.839-120.36-47.688-3.795-2.933-7.991-6.108-12.783-5.887-7.796 0.359-12.081 9.002-14.713 16.35-4.533 12.658-9.067 25.317-13.601 37.975 2.457-44.154 14.085-87.218 25.65-129.9 8.359 36.095 39.951 63.2 74.621 76.265 34.67 13.064 72.479 14.427 109.51 15.64"/></g></g><g transform="translate(516.84 228.16)"><path d="m0 0-16.559-24.086s-3.011-27.098 3.01-39.141c6.022-12.043 64.739-40.048 126.45-39.14 102.37 1.505 177.64 81.291 177.64 81.291l3.011 34.624z" style="fill:#f2f2f2"/></g><g transform="translate(515.34 192.03)"><path d="m0 0s-12.545 92.331 64.23 117.92c76.775 25.591 167.6-44.159 167.6-44.159l28.602-45.161s-67.743-61.722-155.06-58.711c-87.313 3.011-105.38 30.108-105.38 30.108" style="fill:#c0272d"/></g><g transform="translate(686.35 254.89)"><path d="m0 0c-24.381 30.317-51.978 50.32-89.145 59.015-1.395 0.326-2.51 0.904-3.4 1.636-5.016-0.918-10.003-2.177-14.931-3.819-78.659-26.219-65.806-120.82-65.806-120.82s18.508-27.762 107.96-30.847c28.16-0.971 54.326 4.635 76.972 12.767 10.94 2.657 6.313 59.723-11.653 82.064" style="fill:#e5e5e4"/></g><g transform="translate(620.24 405.87)"><path d="m0 0s50.043 18.813 90.811 3.864c57.965-21.253 116.41-94.675 116.41-94.675l-18.577-95.936-33.119 1.505s-64.568 67.123-107.38 83.55c-39.893 15.305-72.51 10.035-72.51 10.035s-7.527 3.262-12.294 11.04-4.015 12.796-4.015 12.796z" style="fill:#96c9ec"/></g><g clip-path="url(#clipPath939)" style="opacity:.5"><g transform="translate(586.09 345.58)"><path d="m0 0s40.646 12.043 90.324-12.043 103.87-94.84 106.88-87.313-34.624 88.818-63.227 108.39c-28.602 19.57-51.183 24.086-51.183 24.086s28.602 12.043 55.699 1.505c27.098-10.538 99.015-64.658 99.015-64.658s-54.86 68.77-112.06 89.845c-51.805 19.086-90.811-0.966-90.811-0.966z" style="fill:#fff"/></g></g><g clip-path="url(#clipPath955)" style="opacity:.10001"><g transform="translate(593.8 315.54)"><path d="m0 0-6.956 15.736s20.323 6.774 46.667 0c26.345-6.775 118.17-69.248 130.97-82.797s18.065-24.087 23.333-24.087c5.269 0 21.076-5.268 21.076-5.268s17.312 21.075-49.678-21.829c-66.99-42.903-112.9-37.634-112.9-37.634s124.95 33.871 97.851 64.731c-27.097 30.861-80.539 70.002-100.11 76.023-19.57 6.022-42.151 9.032-42.151 9.032s-44.075-9.108-58.71-50.43c-12.796-36.13-14.301-75.27 16.559-82.797 30.861-7.527 76.775-16.559 76.775-16.559s-79.36 2.108-104.62 18.064c-28.602 18.065-20.323 29.355-20.323 29.355s6.022 49.678 24.839 72.259c18.818 22.581 57.387 36.201 57.387 36.201"/></g></g><g transform="translate(1241.1 223.19)"><path d="m0 0 17.943-26.099s3.262-29.36-3.263-42.409c-6.524-13.049-70.146-43.393-137.02-42.41-110.92 1.631-192.47 88.082-192.47 88.082l-3.263 37.516z" style="fill:#f2f2f2"/></g><g transform="translate(1242.7 184.04)"><path d="m0 0s13.593 100.04-69.595 127.77c-83.188 27.73-181.6-47.846-181.6-47.846l-30.992-48.934s73.401-66.877 168.01-63.615c94.606 3.262 114.18 32.623 114.18 32.623" style="fill:#c0272d"/></g><g transform="translate(1057.4 252.15)"><path d="m0 0c26.417 32.85 56.319 54.523 96.591 63.945 1.511 0.353 2.719 0.979 3.684 1.772 5.436-0.995 10.838-2.358 16.179-4.138 85.229-28.41 71.302-130.91 71.302-130.91s-20.054-30.081-116.98-33.423c-30.512-1.052-58.864 5.022-83.402 13.833-11.854 2.879-6.84 64.712 12.627 88.919" style="fill:#e5e5e4"/></g><g transform="translate(1125.5 427.61)"><path d="m0 0s-59.897 20.288-147.33-29.949c-40.794-23.439-71.917-80.065-71.917-80.065l18.362-104.2 35.885 1.632s69.962 72.729 116.36 90.528c43.225 16.583 78.566 10.874 78.566 10.874s8.156 3.534 13.321 11.962c5.166 8.427 4.35 13.865 4.35 13.865z" style="fill:#96c9ec"/></g><g clip-path="url(#clipPath987)" style="opacity:.5"><g transform="translate(1166 350.42)"><path d="m0 0s-44.041 13.049-97.868-13.049c-53.828-26.098-112.55-102.76-115.81-94.606s37.516 96.237 68.508 117.44 55.459 26.098 55.459 26.098-30.992 13.049-60.353 1.631c-29.36-11.418-101.55-67.072-101.55-67.072s41.198 62.179 103.18 85.015c56.133 20.68 106.46 14.974 106.46 14.974z" style="fill:#fff"/></g></g><g clip-path="url(#clipPath1003)" style="opacity:.10001"><g transform="translate(924.62 213.4)"><path d="M 0,0 C 0,0 3.934,1.309 8.652,2.673 -8.678,10.57 0,0 0,0"/></g></g><g transform="translate(1207.7 257.59)"><path d="m0 0c9.669-27.302 13.371-56.177 3.393-73.925 2.555 1.473 5.093 2.976 7.594 4.543 6.965 4.363 15.935 9.277 22.96 15.373-1.494 10.447-8.706 54.549-26.607 76.03-12.504 15.005-33.047 26.349-47.074 32.886-3.879-1.396-7.755-2.843-11.412-4.285 15.28-6.128 40.455-20.435 51.146-50.622" style="fill:#fff"/></g><g clip-path="url(#clipPath1023)" style="opacity:.10001"><g transform="translate(1103.2 301.48)"><path d="m0 0c21.205 6.524 45.672 9.786 45.672 9.786s0.886-0.186 2.42-0.604c3.68 1.777 7.737 3.468 11.91 5.051-3.463 1.414-5.556 2.155-5.556 2.155l7.537 17.05s-22.02 7.34-50.565 0-128.04-75.032-141.91-89.713c-13.865-14.68-19.574-26.098-25.283-26.098-2.976 0-9.045-1.55-14.184-3.036 8.135-3.706 21.99-11.475 45.176-26.324 72.585-46.488 122.34-40.779 122.34-40.779s-135.38 36.701-106.02 70.139c29.361 33.439 87.266 75.848 108.47 82.373"/></g></g><g transform="translate(618.8 519.87)"><path d="m0 0s15.457-9.66 36.711-3.864 57.964 17.389 106.27 11.593c48.305-5.797 106.27-25.118 141.05-34.779 34.778-9.661 115.93 1.932 135.25 17.39 19.321 15.457 40.575 23.185 34.778 61.828-5.796 38.644-32.846 108.2-168.1 125.59-135.25 17.39-336.2-44.439-336.2-44.439z" style="fill:#4f81a2"/></g><g clip-path="url(#clipPath1043)" style="opacity:.2"><g transform="translate(778.11 530.16)"><path d="m0 0c17.759-3.06 34.824-9.184 51.784-15.28 13.607-4.891 27.214-9.782 40.822-14.673-22.491 27.038-54.21 46.254-88.588 53.672s-71.198 2.989-102.84-12.369c26.793-2.976 53.586-5.951 80.378-8.927 6.163-0.685 12.331-1.37 18.442-2.423"/></g></g><g clip-path="url(#clipPath1059)" style="opacity:.5"><g transform="translate(753.35 513.49)"><path d="m0 0c-1.246 2.1-2.381 4.264-3.597 6.382-0.983 1.712-1.803 3.988-3.808 4.65-0.254 0.084-0.596-0.048-0.716-0.291-0.828-1.681-0.087-3.404 0.39-5.116 0.737-2.648 1.569-5.27 2.268-7.928 1.109-4.212 7.702-1.471 5.463 2.303"/></g><g transform="translate(760.59 493.8)"><path d="m0 0c-1.579 2.604-3.118 5.219-4.868 7.712-1.171 1.667-3.778 0.67-3.311-1.396 0.608-2.688 1.411-5.307 2.198-7.947 0.67-2.246 1.909-5.408 4.925-4.578 2.904 0.799 2.203 4.317 1.056 6.209"/></g><g transform="translate(766.29 471.95)"><path d="m0 0c-1.104 2.552-2.418 4.946-4.002 7.23-0.948 1.366-3.263 0.563-2.772-1.17 0.677-2.393 1.348-4.796 1.909-7.219 0.577-2.498 0.355-4.606 2.583-6.228 0.994-0.725 2.761-0.239 3.283 0.861 1.178 2.482 7e-3 4.197-1.001 6.526"/></g><g transform="translate(772.08 448.21)"><path d="m0 0c-0.81 2.353-1.643 4.656-2.653 6.931-0.728 1.643-3.34 0.778-3.291-0.891 0.078-2.601 0.387-5.151 0.692-7.733 0.289-2.445 0.441-4.703 2.243-6.53 1.33-1.348 3.442-0.611 4.012 1.059 0.849 2.486-0.19 4.801-1.003 7.164"/></g><g transform="translate(775.91 425.89)"><path d="m0 0c-0.535 2.203-0.999 4.433-1.724 6.582-0.714 2.112-3.96 1.812-3.959-0.536 1e-3 -2.256 0.277-4.505 0.475-6.751 0.22-2.48 0.179-4.905 1.18-7.203 1.229-2.82 5.022-1.043 5.232 1.417 0.186 2.176-0.693 4.387-1.204 6.491"/></g><g transform="translate(778.06 402.57)"><path d="m0 0c-0.723 2.092-1.502 4.048-2.51 6.019-0.785 1.536-2.95 0.694-3.038-0.822-0.117-2.014-0.056-3.923 0.109-5.933 0.189-2.301 0.173-4.508 2.304-5.839 1.197-0.748 2.64-0.201 3.376 0.886 1.248 1.842 0.423 3.769-0.241 5.689"/></g><g transform="translate(778.82 387.52)"><path d="m0 0c-0.162 1.385-1.041 2.559-2.559 2.559-1.517 0-2.396-1.174-2.558-2.559-0.215-1.838-0.813-4.205 0.861-5.562 1.101-0.891 2.294-0.891 3.395 0 1.674 1.357 1.076 3.724 0.861 5.562"/></g><g transform="translate(788.44 406.89)"><path d="m0 0c-1.259 13.735-2.987 27.42-5.266 41.023-4.455 26.585-11.114 57.206-27.594 79.212-0.17 0.227-0.606 0.105-0.496-0.21 4.407-12.624 9.973-24.752 14.102-37.497 4.154-12.824 7.156-25.97 9.599-39.217 2.642-14.324 4.292-28.818 5.665-43.311 1.289-13.598 0.875-27.819 3.157-41.239 0.387-2.277 3.788-1.603 3.869 0.524 0.508 13.312-1.817 27.426-3.036 40.715"/></g><g transform="translate(841.61 531)"><path d="m0 0c-11.132 7.059-26.029 10.165-38.633 13.719-13.158 3.709-26.565 6.367-40.134 7.991-26.934 3.223-54.671 0.502-79.427-10.945-0.491-0.227-0.141-1.044 0.366-0.869 24.454 8.385 49.994 10.203 75.578 7.235 14.248-1.653 28.291-5.145 42.03-9.169 12.627-3.698 25.396-10.395 38.336-12.432 2.662-0.419 4.351 2.906 1.884 4.47"/></g><g transform="translate(1056.9 571.44)"><path d="m0 0c-1.151 2.623-2.344 5.226-3.533 7.832-0.489 1.073-2.054 0.283-1.821-0.767 0.63-2.84 1.254-5.68 1.924-8.511 0.596-2.516 0.778-5.12 2.465-7.133 1.21-1.446 3.357-0.175 3.439 1.425 0.131 2.521-1.478 4.885-2.474 7.154"/></g><g transform="translate(1070.2 539.3)"><path d="m0 0c-1.218 3.118-2.489 6.238-3.998 9.227-0.734 1.453-2.583 0.335-2.4-1.012 0.431-3.192 1.156-6.326 1.83-9.475 0.68-3.174 0.999-7.2 2.962-9.831 1.459-1.958 4.572-1.386 4.683 1.268 0.141 3.358-1.87 6.733-3.077 9.823"/></g><g transform="translate(1079.1 508.85)"><path d="m0 0c-1.026 2.914-2.11 5.801-3.21 8.688-0.95 2.492-4.422 1.531-3.974-1.095 0.454-2.666 0.904-5.33 1.426-7.984 0.558-2.831 0.825-5.411 2.861-7.586 1.166-1.246 3.52-0.667 3.898 1.03 0.572 2.57-0.147 4.521-1.001 6.947"/></g><g transform="translate(1086.2 480.62)"><path d="m0 0c-1.255 2.794-2.224 5.709-3.64 8.431-0.92 1.771-3.678 0.91-3.67-0.994 0.013-3.003 0.703-5.892 1.48-8.776 0.796-2.954 1.518-6.539 4.3-8.196 1.338-0.797 3.491-0.113 3.791 1.543 0.542 2.986-1.065 5.331-2.261 7.992"/></g><g transform="translate(1093.3 451.56)"><path d="m0 0-1.791 7.119c-0.844 3.355-5.716 1.903-5.109-1.408 0.752-4.105 0.785-9.264 3.472-12.585 1.105-1.367 3.419-0.532 3.822 1.009 0.556 2.132 0.132 3.774-0.394 5.865"/></g><g transform="translate(1061 581.15)"><path d="m0 0c-0.382 0.646-1.511 0.218-1.241-0.523 7.982-21.91 17.112-43.212 23.952-65.549 6.862-22.407 11.785-45.042 16.086-68.042 0.382-2.044 3.917-1.582 3.647 0.494-5.878 45.206-19.039 94.165-42.444 133.62"/></g><g transform="translate(768.81 245)"><path d="m0 0c-3.105-0.898-5.505-2.325-8.828-1.256-1.587 0.511-2.856-1.674-1.63-2.8 1.831-1.683 3.77-2.409 6.226-2.652 2.914-0.288 5.37 0.723 6.968 3.149 1.186 1.8-0.761 4.13-2.736 3.559"/></g><g transform="translate(781.23 255.86)"><path d="m0 0c-0.57-0.42-1.134-0.79-1.748-1.142-0.909-0.523-1.493-1.579-1.996-2.46-0.846-1.48-1.491-3.056-2.184-4.612-0.86-1.93 1.283-3.746 2.951-2.278 1.268 1.116 2.567 2.192 3.716 3.431 0.56 0.603 1.067 1.226 1.517 1.915 0.488 0.748 0.581 1.896 0.871 2.742 0.576 1.682-1.624 3.513-3.127 2.404"/></g><g transform="translate(786.64 273.53)"><path d="m0 0c-1.758 3.092-1.875 6.806-3.805 9.761-1.028 1.572-3.359 1.304-3.932-0.514-1.364-4.325 1.777-8.661 4.608-11.662 1.579-1.674 4.235 0.47 3.129 2.415"/></g><g transform="translate(778.3 299.32)"><path d="m0 0c0.6 1.228 0.187 3.111-1.38 3.393-2.931 0.526-4.552-1.617-4.895-4.277-0.256-1.995 0.871-4.036 2.505-5.097 1.561-1.015 3.779 1.054 2.633 2.633-0.148 0.204-0.326 0.605-0.312 0.485-3e-3 0.026 0.02 0.383 0.011 0.46 0.04 0.124 0.093 0.289 0.097 0.328 0.055 0.102 0.109 0.203 0.174 0.3 0.045 0.069 0.091 0.139 0.136 0.208-0.26-0.327-0.177-0.217 0.22 0.291 0.11 0.147 0.413 0.546 0.532 0.678 0.066 0.154 0.204 0.443 0.297 0.635-8e-3 -0.017-8e-3 -0.017-0.018-0.037"/></g><g transform="translate(778.32 299.36)"><path d="m0 0c0.131 0.268 0.094 0.195 0 0"/></g><g transform="translate(777.57 298.15)"><path d="m0 0c-0.035-0.044-0.052-0.066-0.082-0.105-0.063-0.084-0.065-0.089 0.082 0.105"/></g><g transform="translate(778.04 298.71)"><path d="m0 0c0.052 0.088 0.029 0.072-0.021 0.016-0.049-0.114-0.06-0.154 0.021-0.016"/></g><g transform="translate(790.76 318.45)"><path d="m0 0c-4.704-0.038-8.881-4.583-11.409-8.16-1.134-1.605 1.15-3.963 2.757-2.757 1.554 1.166 3.175 2.274 4.847 3.263 1.921 1.135 3.985 1.836 5.519 3.519 1.387 1.522 0.479 4.153-1.714 4.135"/></g><g transform="translate(798.41 332.71)"><path d="m0 0c-2.051-2.685-2.633-6.663-2.956-9.977-0.229-2.338 3.088-2.895 4.176-1.132 1.773 2.872 3.566 6.41 3.548 9.818-0.015 2.766-3.311 3.198-4.768 1.291"/></g><g transform="translate(800.73 344.52)"><path d="m0 0c-0.878 0.565-2.019 0.874-3.051 0.59-0.588-0.162-1.022-0.473-1.457-0.887-0.534-0.671-0.604-0.771-0.21-0.303-0.187-0.201-0.346-0.419-0.48-0.656-0.577-0.964-0.296-2.358 0.646-3.004 0.276-0.331 0.625-0.603 1.061-0.835 0.37-1.259 1.421-2.212 2.842-2.212 1.671 0 2.935 1.361 2.989 2.989 0.058 1.743-0.886 3.382-2.34 4.318"/></g><g transform="translate(810.59 332.79)"><path d="m0 0c-1.011 2.324-4.485 1.007-4.514-1.223-0.158-11.928-2.671-18.246-11.287-26.634-4.749-4.624-5.414-10.053-4.489-16.292 0.6-4.041 2.459-8.046 3.54-11.982 1.849-6.726 1.683-13.658 0.281-20.42-2.563-12.369-12.414-20.473-24.021-23.79-1.005-0.287-0.844-1.952 0.253-1.868 20.587 1.575 30.621 21.943 29.619 40.577-0.295 5.475-2.206 10.691-3.862 15.858-3.377 10.538 4.343 14.438 9.287 21.164 5.183 7.052 8.869 16.162 5.193 24.61"/></g></g><g clip-path="url(#clipPath1175)" style="opacity:.2"><g transform="translate(1056.7 746.71)"><path d="m0 0c-62.762 1.015-124.26-12.655-185.09-26.654-56.775-13.064-114.53-22.389-170.05-40.442-26.441-8.597-51.785-19.155-76.487-31.881-16.281-8.387-39.027-18.511-39.973-39.579-0.847-18.89 35.671-105.68 35.671-105.68l73.422 119.79s57.965-44.44 104.34-65.693c46.372-21.254 86.947-38.644 86.947-38.644s169.54 60.155 185.49 61.829c-13.299 57.383-5.537 108.59-14.258 166.94"/></g></g><g transform="translate(471.95 1155.6)"><path d="m0 0s-36.711-164.23 11.593-353.58c48.303-189.35 102.4-268.57 102.4-268.57l30.914 3.864 77.287 104.34s57.964-44.44 104.34-65.694c46.372-21.253 86.947-27.05 86.947-27.05s94.676 27.05 127.52 32.847c32.847 5.796 77.287 9.661 77.287 9.661s13.524 137.18 34.778 200.94 135.88 237.72 156.5 328.47c19.322 85.015-13.525 166.17-96.608 202.88s-712.96-168.1-712.96-168.1" style="fill:#ecd9c4"/></g><g clip-path="url(#clipPath1195)" style="opacity:.10001"><g transform="translate(1235.2 1283.1)"><path d="m0 0c-14.645-6.234-103.24-115.95-123.53-234.77-3.463-20.281 15.071-106.66 14.49-159.4-0.768-69.729-16.76-117.5-13.434-144.66 3.735 17.96 7.864 34.637 12.337 48.057 21.254 63.761 135.88 237.72 156.5 328.47 16.682 73.403 13.483 120.78-46.372 162.3"/></g></g><g clip-path="url(#clipPath1211)" style="opacity:.2"><g transform="translate(659.37 755.59)"><path d="m0 0c1.932 5.797 26.237 115.93 26.237 115.93s70.371 25.122 149.59 36.715c79.219 11.592 172.1 6.756 172.1 6.756l-2.069 95.648 68.725-20.298 139.95 304.32s1.933 79.218-56.032 119.79c-32.478 22.735-322.67 28.982-436.67-21.254s-171.96-50.236-222.2-137.18-42.507-104.34-42.507-156.5c0-52.169 23.349-155.55 23.349-155.55l82.919 29.956-56.836-67.631s55.061-19.319 95.637-63.758c40.575-44.44 57.807-86.945 57.807-86.945"/></g></g><g transform="translate(659.37 774.92)"><path d="m0 0c1.932 5.797 19.322 90.811 19.322 90.811s77.286 50.236 156.5 61.829c79.219 11.593 170.03 21.254 170.03 21.254v81.15l67.625-1.932 141.05 285.96s1.933 79.219-56.032 119.79c-32.478 22.735-322.67 28.982-436.67-21.254s-171.96-50.236-222.2-137.18-42.507-104.34-42.507-156.5 32.846-144.91 32.846-144.91l73.422 19.321-44.439-56.032s34.779-21.254 75.354-65.693c40.575-44.44 65.693-96.608 65.693-96.608" style="fill:#544741"/></g><g transform="translate(659.37 774.92)"><path d="m0 0c1.932 5.797-6.44 106.27-6.44 106.27s99.438 56.809 177.76 73.422c85.015 18.034 126.23 21.898 126.23 21.898l5.153 56.677-34.779 37.355 29.626 20.609 43.796-33.49 57.964 19.321 144.27 269.21s12.881 47.016-45.084 87.591c-32.478 22.735-322.67 28.982-436.67-21.254s-135.28-54.803-194.5-135.9c-83.726-114.64-14.169-261.48-14.169-261.48l97.896 6.441-49.592-71.49s14.169-6.441 54.744-50.88c40.576-44.44 43.796-124.3 43.796-124.3" style="fill:#937f69"/></g><g transform="translate(584.26 1055.6)"><path d="m0 0c1.77-42.841 18.302-84.933 46.16-117.53-1.514 16.597-3.027 33.194-4.54 49.791 4.861-25.744 16.358-50.206 33.077-70.376 0.212 13.313 2.22 26.596 5.951 39.376 2.244-11.184 4.487-22.367 6.73-33.551 4.88 9.155 9.759 18.311 14.638 27.467 0.154-7.891-2.232-15.811-6.719-22.304 28.98 34.261 63.425 63.409 97.692 92.381 59.085 49.953 118.17 99.906 177.25 149.86 22.017 18.614 44.042 37.236 65.239 56.78 45.465 41.919 87.053 88.042 124.06 137.59 4.922 6.59 9.828 13.36 12.594 21.105 9.18 25.709-7.734 53.775-28.677 71.285-31.095 26-71.701 38.755-112.13 41.69-40.426 2.935-80.972-3.34-120.6-11.874-72.784-15.676-143.9-39.065-211.78-69.648-44.689-20.134-89.14-44.303-120.54-81.935-32.036-38.389-48.072-88.651-49.694-138.62-1.621-49.973 10.483-99.71 29.752-145.85-5.065 24.536-2.24 50.638 7.958 73.522-9.004-50.213 3.23-103.89 33.104-145.24-5.566 24.964-5.402 51.188 0.476 76.08" style="fill:#402312"/></g><g clip-path="url(#clipPath1239)" style="opacity:.2"><g transform="translate(615.85 1185.7)"><path d="m0 0c-11.893-32.73-14.389-68.814-7.118-102.87 2.198 18.831 12.483 36.58 27.728 47.851-9.42-33.02-8.494-68.911 2.616-101.4 7.038 16.44 14.077 32.88 21.116 49.32-1.371-20.096-2.741-40.191-4.112-60.286 6.812 10.598 13.623 21.195 20.435 31.793-1.402-15.016-2.804-30.032-4.207-45.048 6.706 8.937 13.879 17.522 21.48 25.711-2.805-12.219-5.61-24.438-8.416-36.657 11.343 12.109 22.685 24.218 34.027 36.327-3.749-12.366-7.498-24.731-11.248-37.097 10.712 18.197 24.135 34.795 39.687 49.078-4.359-10.646-8.719-21.292-13.078-31.938 14.179 13.715 28.359 27.43 42.539 41.145-2.798-6.158-5.595-12.316-8.393-18.474 39.915 53.666 90.299 99.516 147.48 134.21 41.136 24.957 86.24 44.567 121.48 77.325-92.281-91.846-188.71-179.52-288.91-262.66-37.853-31.412-76.725-62.682-105.45-102.61-1.306 12.804-2.611 25.608-3.917 38.412 0.098-3.248 0.196-6.497 0.294-9.744-14.464 16.694-26.194 35.752-34.581 56.186-0.6-7.242 0.766-14.638 3.913-21.188-10.805 12.719-16.575 29.604-15.814 46.276-0.599-19.069 1.879-38.231 7.307-56.522-25.184 35.385-44.565 74.891-57.134 116.46-3.03-12.183-2.992-25.116 0.111-37.281-42.336 68.771-61.598 155.02-36.813 231.88 24.785 76.859 99.691 139.07 180.35 135.08-34.31-16.326-63.655-42.916-83.275-75.454 30.454 27.137 70.077 43.797 110.77 46.577-35.331-18.902-66.589-45.373-91.051-77.108 8.641 3.109 17.282 6.218 25.923 9.326-29.685-34.845-48.945-78.46-54.699-123.87 1.78 11.831 9.977 22.494 20.951 27.259"/></g></g><g transform="translate(933.74 709.22)"><path d="m0 0c0-5.797 13.525-42.507 13.525-42.507s38.643 7.728 67.626 3.864c28.982-3.864 57.964-7.729 57.964-7.729l11.593 42.508s-34.779 19.321-67.625 19.321c-32.847 0-83.083-15.457-83.083-15.457" style="fill:#544741"/></g><g transform="translate(537.64 626.14)"><path d="m0 0 54.1 17.389-15.457 44.44-54.1-17.389z" style="fill:#544741"/></g><g transform="translate(705.74 765.26)"><path d="m0 0c0-12.805-7.353-23.186-16.423-23.186s-16.423 10.381-16.423 23.186 7.353 23.186 16.423 23.186 16.423-10.381 16.423-23.186" style="fill:#544741"/></g><g transform="translate(732.79 671.55)"><path d="m0 0c0-11.205-7.353-20.288-16.423-20.288-9.071 0-16.424 9.083-16.424 20.288 0 11.204 7.353 20.287 16.424 20.287 9.07 0 16.423-9.083 16.423-20.287" style="fill:#544741"/></g><g clip-path="url(#clipPath1271)" style="opacity:.7"><g transform="translate(701.88 947.84)"><path d="m0 0-53.134-58.931s6.762-92.743 15.457-127.52 37.677-122.69 37.677-122.69l-7.728 2.898s-28.983 71.49-39.61 126.56c-10.627 55.066-17.389 126.56-17.389 126.56z" style="fill:#333"/></g></g><g transform="translate(1152.1 593.29)"><path d="m0 0s-44.44-96.608-15.457-121.73c28.982-25.118 77.286-44.439 148.78-30.914 71.49 13.525 92.744 19.321 102.4 38.643 9.661 19.321 32.847 61.829 13.525 73.422-9.661 5.796-32.847 3.864-32.847 3.864l-3.864 40.575z" style="fill:#6e4119"/></g><g transform="translate(1128.9 1018.4)"><path d="m0 0 59.897-171.96s-28.983-98.54-38.643-162.3c-9.661-63.761-5.797-106.27-5.797-106.27s19.322-30.914 106.27-34.778c86.947-3.865 117.86 13.525 117.86 13.525s81.151 233.79 65.694 345.86c-15.458 112.06-40.576 173.89-94.676 256.98-54.1 83.083-98.54 123.66-104.34 123.66-5.797 0-53.973-40.597-85.852-130.44-26.997-76.084-20.417-134.27-20.417-134.27" style="fill:#ecd9c4"/></g><g clip-path="url(#clipPath1295)" style="opacity:.2"><g transform="translate(1157.8 670.96)"><path d="m0 0c10.131 33.439 22.971 65.972 34.407 98.963 10.756 31.03 20.755 67.107 48.018 88.084 22.952 17.659 51.505 21.587 79.65 22.281-20.562 11.711-46.369 11.745-68.427 3.697-2.906-1.061-5.316 3.183-3.023 5.192 19.524 17.098 44.989 24.046 66.052 38.535-23.76 3.592-50.919-0.074-69.387-15.878-1.458-1.249-32.108-27.374-33.111-25.498-16.619 31.09-46.488 93.48-55.388 127.52-8.802 33.664-25.762 82.439-1.289 150.71-38.643-68.269-26.406-146.2-26.406-146.2l59.897-171.96s-28.982-98.54-38.643-162.3c-9.661-63.76-5.796-106.27-5.796-106.27s0.623-0.983 2.103-2.599c-5.303 32.005 2.071 65.121 11.343 95.724"/></g></g><g clip-path="url(#clipPath1311)" style="opacity:.5"><g transform="translate(1434.2 902.44)"><path d="m0 0c-15.457 112.06-40.576 173.89-94.676 256.98-43.174 66.303-80.172 105.5-96.311 118.65-28.208-50.833-53.54-103.56-51.751-163.28 0.502-16.715 2.591-33.39 5.613-49.924 0.071 0.242 0.148 0.481 0.22 0.722-0.258 17.932 2.392 41.302 19.352 51.582 13.91 8.432 30.963 5.474 44.801-1.672 23.366-12.066 42.134-33.153 57.198-54.291 16.957-23.795 30.321-49.726 42.882-76.04 0.892-1.868 0.155-3.891-1.856-4.563-9.186-3.068-18.308-6.187-26.957-10.488 17.623-8.718 36.644-15.007 49.581-30.691 1.321-1.602 1.143-3.69-0.628-4.879-10.775-7.234-21.29-14.931-27.86-26.17 13.015-3.18 26.585-6.426 38.075-13.408 5.254-3.192 6.584-3.372 6.827-9.229 0.36-8.723 1.378-17.355 2.665-25.988 4.754-31.92 7.323-63.884 4.789-96.163-2.588-32.96-8.895-65.39-15.806-97.676-3.447-16.104-7.007-32.188-10.178-48.35-1.597-8.142-3.154-16.295-4.514-24.48-0.87-5.231-0.687-11.963-2.928-16.764-0.567-1.215-2.277-1.813-3.508-1.427-8e-3 2e-3 -0.014 7e-3 -0.022 9e-3 -0.127-0.727-0.239-1.456-0.371-2.182-0.144-0.968-0.302-1.933-0.472-2.896-0.332-4.519-0.481-9.047-0.553-13.586 0.455 0.224 0.695 0.357 0.695 0.357s81.15 233.79 65.693 345.86" style="fill:#fff"/></g></g><g transform="translate(531.85 1714.6)"><path d="m0 0s-33.49-171.32-38.643-212.54c-5.152-41.219-5.152-96.608-5.152-96.608l41.219-25.762-45.084-1.288 36.067-29.627-34.779-2.576s168.74-179.05 261.48-207.38c92.744-28.339 94.032-23.186 94.032-23.186s126.23 70.845 194.5 123.66c68.269 52.812 149.42 163.59 149.42 163.59l-2.576 20.609-27.051-7.728 18.034 23.186s-17.39 150.06-36.711 209.32c-19.322 59.252-45.728 110.13-45.728 110.13s-34.779 30.914-74.71 46.371c-39.931 15.458-65.049 28.982-75.354 37.355s-17.228 32.686-31.719 46.211c-10.077 9.404-28.178 14.974-28.178 14.974l15.458-36.711s-16.746 23.186-29.627 30.915c-12.881 7.728-32.202 8.372-32.202 8.372s13.525-12.881 15.457-17.389c1.932-4.509 3.22-22.542 3.22-22.542s-19.966 20.61-36.711 28.338c-16.745 7.729-39.931 3.221-39.931 3.221s23.739-17.1 27.694-29.627c4.831-15.296 1.932-23.83 1.932-23.83s-72.035 1.623-137.18-27.694c-115.93-52.168-137.18-101.76-137.18-101.76" style="fill:#6e4119"/></g><g clip-path="url(#clipPath1331)" style="opacity:.3"><g transform="translate(669.03 1816.3)"><path d="m0 0c-5.06-2.278-9.929-4.549-14.635-6.813 21.377 7.42 43.473 12.594 66.188 14.665 40.533 3.696 63.528 0.989 103.98 5.673-4.726 14.393-26.877 56.77-23.185 55.066 14.092-6.504 62.795-58.286 62.795-58.286s-4.772 63.308-2.898 60.218c7.278-11.998 22.708-53.561 24.797-67.1 12.18 2.28 17.953 53.988 18.676 50.677 1.482-6.781 8.327-42.939 12.283-48.648 5.22-7.532 53.652-7.948 69.512-15.757 32.696-16.098 64.405-34.779 81.854-82.614 0.947 2.034 7.472 17.409 8.313 19.497 1.012 2.514 46.371-64.405 31.445-108.2-4e-3 -9e-3 0-0.018 1e-3 -0.027 0.08-1.636 0.8-3.145 2.226-3.95 20.85-11.773 24.988-39.985 27.925-63.359 3.403-27.088-4.671-56.113-15.941-81.013 5.285 1.275 32.39 11.798 32.918 10.522 3.782-9.138 4.134-27.509 0-37.355-3.418-8.142-19.137-18.639-25.042-25.152-3.296-9.627 28.543 6.099 27.618 4.542-5.214-8.772-39.001-51.158-45.083-59.252 7.991 2.325 53.69 26.814 52.812 24.474-16.604-44.252-67.66-79.433-102.86-110.72 12.398 1.312 24.639 3.504 36.777 6.226 46.551 50.171 85.403 103.2 85.403 103.2l-2.577 20.61-27.05-7.729 18.034 23.185s-17.39 150.06-36.711 209.32c-19.322 59.253-45.728 110.13-45.728 110.13s-34.779 30.915-74.71 46.372-65.049 28.982-75.354 37.355-17.228 32.686-31.72 46.211c-10.076 9.404-28.177 14.974-28.177 14.974l15.457-36.711s-16.745 23.186-29.626 30.914c-12.881 7.729-32.203 8.373-32.203 8.373s13.526-12.881 15.458-17.389c1.932-4.509 3.22-22.542 3.22-22.542s-19.966 20.61-36.711 28.338c-16.745 7.729-39.931 3.22-39.931 3.22s23.738-17.1 27.694-29.626c4.83-15.296 1.932-23.83 1.932-23.83s-72.035 1.623-137.18-27.694" style="fill:#e7bf79"/></g></g><g clip-path="url(#clipPath1347)" style="opacity:.5"><g transform="translate(711.51 1221.5)"><path d="m0 0c-29.799 16.264-60.032 30.711-87.936 50.285-21.598 15.15-46.158 32.453-57.053 57.409-0.886 2.028 0.102 4.754 2.682 4.674 6.484-0.201 12.738-1.339 18.816 0.45-8.839 7.833-18.609 14.625-25.363 24.502-0.871 1.276-0.369 3.613 1.115 4.251 7.903 3.398 15.64 6.878 22.643 11.843-11.517 11.747-24.936 21.441-36.153 33.514-0.835 0.899-1.032 2.165-0.684 3.239-23.169 23.83-24.65 65.061-23.27 96.242 1.355 30.626 2.606 64.443 15.904 92.642 2.95 6.254 6.492 12.59 11.473 17.489 3.795 3.731 4.538 3.295 4.56 8.696 0.021 5.094 0.124 10.194 0.547 15.273 1.786 21.426 6.54 42.589 14.643 62.535 14.115 34.743 35.727 65.589 62.71 91.385-6.846-2.882-13.612-5.983-20.289-9.284-1.316-0.651-2.571-0.334-3.457 0.411-66.638-40.002-80.55-72.439-80.55-72.439s-33.49-171.32-38.643-212.54c-5.153-41.22-5.153-96.608-5.153-96.608l41.22-25.762-45.084-1.288 36.067-29.627-34.779-2.576s117.71-124.89 210.54-182.56c-0.264 20.424 3.777 40.921 15.495 57.84" style="fill:#402312"/></g></g><g clip-path="url(#clipPath1363)" style="opacity:.5"><g transform="translate(1021.6 1642.5)"><path d="m0 0c-28.339-2.576-12.18 5.797-37.941 40.575-25.762 34.779-90.168 15.457-94.032 3.864s-1.668-28.338-32.582-12.881c-10.101 5.051-74.941 5.359-89.524-1.932-30.914-15.457-24.473-6.44-28.338 5.153-3.864 11.593-68.269 30.914-94.031-3.865-25.763-34.778-11.593-51.524-39.932-48.947-28.338 2.576-43.795-15.458-39.931-14.17s133.96-14.169 133.96-14.169l-15.457-46.372-2.577-55.388s-23.186 7.729-43.795-16.745c-20.61-24.474-18.034-57.965-18.034-57.965s37.356 47.66 61.829 47.66c24.474 0 29.627-5.152 29.627 19.322 0 24.473 5.152 82.438 15.457 103.05 10.305 20.609 47.66 68.269 77.287 69.557 21.758 0.946 40.029-2.969 48.206-5.116 22.27-14.894 43.588-40.53 50.713-54.78 10.305-20.61 15.457-78.575 15.457-103.05s5.153-19.321 29.627-19.321 61.828-47.66 61.828-47.66 57.908 75.676 37.298 100.15-76.32 26.084-96.608 20.287c0.966 21.254-31.88 58.931-31.88 58.931s141.05 20.61 144.91 19.322c3.865-1.288-13.203 17.067-41.541 14.491" style="fill:#402312"/></g></g><g transform="translate(1068.6 1312.2)"><path d="m0 0c19.075 55.838 47.391 121.19 16.581 178.29-14.65 27.153-37.914 49.657-70.325 50.535-25.7 0.696-50.305-8.061-73.822-17.532-2.001-0.806-3.808 1.186-3.932 2.995-4.438 64.993-46.356 143.05-121.02 139.95-19.263-0.8-41.351-5.216-56.189-18.389-13.384-11.883-21.948-27.441-30.955-42.653-10.519-17.768-22.875-33.73-29.018-53.791-6.225-20.328-8.449-41.265-7.789-62.473 0.054-1.723-1.605-3.797-3.106-3.107-34.779 15.988-123.66-71.603-59.649-186.15 12.13-21.707 25.872-42.589 45.1-58.442 1.108-0.913-40.936 12.974-78.195 32.583-48.562 25.557-96.735 59.726-109.58 72.222l-1.193-0.088s168.74-179.05 261.48-207.38c92.744-28.338 94.032-23.186 94.032-23.186s126.23 70.846 194.5 123.66c68.269 52.812 149.42 163.59 149.42 163.59l-0.444 3.549c-31.858-37.77-116.74-96.619-115.9-94.178" style="fill:#bd7b34"/></g><g clip-path="url(#clipPath1383)" style="opacity:.39999"><g transform="translate(685.94 1230.9)"><path d="m0 0c-4.326 3.417-8.472 7.029-12.477 10.784-5.144 1.439-29.616 9.891-56.205 22.1 22.354-11.932 45.476-22.629 68.682-32.884" style="fill:#b05f27"/></g></g><g clip-path="url(#clipPath1399)" style="opacity:.39999"><g transform="translate(629.35 1299.9)"><path d="m0 0c9.969-17.84 21.036-35.116 35.333-49.508-25.386 26.913-43.446 60.653-54.01 96.779 3.505-15.057 9.521-30.886 18.677-47.271" style="fill:#b05f27"/></g></g><g clip-path="url(#clipPath1415)" style="opacity:.39999"><g transform="translate(1051.6 1269.5)"><path d="m0 0c14.45 42.298 51.149 132.74 46.486 178.24-6.938-63.023-44.447-160.07-88.993-205.29-2.206-2.238 39.328 83.665 37.999 110.13-5.721-15.576-70.585-148.93-94.032-154.57-2.114-0.509 25.531 57.588 29.627 77.287-18.234-26.406-42.762-71.238-68.27-91.778-1.849-1.488-5.964 20.823-6.762 23.186-0.708 2.095-12.993-30.668-15.458-29.948-18.157 5.302-37.011 21.696-48.304 36.711 4.875-12.73 16.29-54.318 13.526-53.135-24.318 10.408-32.63 47.719-47.037 69.53 2.756-18.235 15.143-72.356 12.258-70.496-10.616 6.844-87.831 47.031-124.62 88.88-41.144 46.795-76.466 114.85-90.338 147.51-0.054-0.472-0.105-0.947-0.155-1.423 4.514-64.359 46.243-136.15 98.221-180.86 27.801-23.916 37.677-30.915 37.677-30.915s-53.134 20.288-89.845 45.406c-36.481 24.96-83.01 53.179-116.86 81.316-23.858 15.625-42.712 29.822-50.047 36.956l-1.193-0.089s168.74-179.05 261.49-207.38c92.743-28.339 94.031-23.186 94.031-23.186s126.23 70.845 194.5 123.66c68.269 52.812 149.42 163.59 149.42 163.59s-134.15-135.76-133.32-133.32" style="fill:#8e4d21"/></g></g><g transform="translate(571.98 1739.8)"><path d="M 0,0 C 0,0 64.204,58.491 8.816,99.71 -46.573,140.93 -83.928,62.356 -85.216,37.881 -86.504,13.407 -63.318,-26.524 -40.132,-25.235 -16.946,-23.948 0,0 0,0" style="fill:#402312"/></g><g transform="translate(1088.3 1743.9)"><path d="m0 0s-34.618 39.963-20.288 71.49c19.322 42.507 75.991 41.74 97.574 6.762 28.016-45.406 11.593-105.3-12.559-114.96s-44.44 1.932-44.44 1.932z" style="fill:#402312"/></g><g clip-path="url(#clipPath1439)" style="opacity:.5"><g transform="translate(1114.9 1715)"><path d="m0 0c0.452 4.1-0.04 8.301-1.427 12.186-0.345-4.489-1.552-8.91-3.534-12.952-5.722 2.397-10.225 7.531-11.853 13.518-0.774 2.849-0.925 5.831-1.571 8.711-0.969 4.324-3.026 8.312-4.648 12.435-5.457 13.873-5.898 29.658-1.225 43.814 2.991 9.064 8.165 17.602 15.742 23.409 7.576 5.807 17.712 8.607 26.957 6.226-9.277-4.868-15.584-14.949-15.906-25.42 5.086 5.948 13.673 8.177 21.376 6.797 7.704-1.381 14.549-5.947 19.98-11.581-7.385 1.194-15.24-0.897-21.055-5.603 7.542-2.579 12.797-9.731 15.157-17.345s2.271-15.74 2.139-23.71c-2.721 8.283-8.861 15.384-16.663 19.272 9.587-13.933 9.677-33.746 0.217-47.766 1.69 10.339-0.784 21.3-6.751 29.91 1.036-12.673-5.857-25.658-16.935-31.901"/></g></g><g clip-path="url(#clipPath1455)" style="opacity:.5"><g transform="translate(545.26 1724.7)"><path d="m0 0c0.765 3.627 2.363 7.075 4.637 10.002-0.965-3.928-1.175-8.041-0.617-12.047 5.558 0.44 10.842 3.561 13.911 8.215 1.461 2.214 2.426 4.717 3.786 6.995 2.04 3.42 4.915 6.247 7.456 9.312 8.55 10.313 13.355 23.664 13.337 37.06-0.011 8.578-2.033 17.319-6.872 24.401-4.839 7.083-12.707 12.317-21.267 12.878 6.554-6.758 9.111-17.134 6.448-26.163-2.674 6.505-9.379 10.816-16.343 11.799-6.964 0.982-14.088-0.996-20.306-4.282 6.64-1.052 12.76-5.04 16.404-10.69-7.163-0.086-13.655-4.717-17.806-10.555-4.15-5.838-6.354-12.8-8.477-19.641 4.646 6.307 11.88 10.647 19.632 11.778-12.093-9.205-17.729-26.095-13.585-40.717 1.458 9.3 6.644 17.963 14.154 23.64-4.44-10.529-2.198-23.548 5.508-31.985"/></g></g><g clip-path="url(#clipPath1471)" style="opacity:.39999"><g transform="translate(603.34 1586.8)"><path d="m0 0c28.342 7.143 57.744 10.07 86.939 8.654-27.466 2.961-55.098 4.385-82.723 4.262-12.198-0.055-24.695-0.469-36.032-4.972 11.421 1.929 23.05 2.624 34.62 2.069-15.947-6.786-30.504-16.817-42.523-29.302 13.584 5.342 28.045 8.444 42.624 9.145-14.528-4.185-27.301-14.159-34.884-27.24 9.188 7.148 20.443 11.605 32.034 12.688-13.736-9.312-25.529-21.475-34.411-35.492 11.991 10.126 26.159 17.66 41.259 21.94-14.966-8.387-27.393-21.236-35.277-36.473 22.246 20.183 50.157 34.053 79.678 39.595-7.927 2.309-16.39 2.757-24.517 1.297 11.217 6.363 24.174 9.623 37.067 9.327-17.106 5.327-35.455 4.291-53.338 3.203 18.256 4.593 36.876 7.734 55.629 9.384-19.01 6.45-39.378 8.866-59.369 7.041 15.55 4.991 31.995 7.183 48.31 6.438-18.236 3.01-37.05 2.476-55.086-1.564" style="fill:#b05f27"/></g></g><g clip-path="url(#clipPath1487)" style="opacity:.39999"><g transform="translate(1024.7 1567.2)"><path d="m0 0c9.243 4.292 19.596 6.167 29.757 5.389-15.787 1.039-31.574 2.079-47.361 3.118 12.99 3.536 26.261 6.038 39.646 7.473-18.989 0.362-37.978 0.724-56.968 1.086 17.321 7.812 35.973 12.662 54.906 14.275-22.274 1.771-44.728 1.273-66.901-1.484 17.272 7.544 35.425 13.071 53.971 16.433-29.281 0.19-58.578-2.402-87.37-7.728 44.627 10.108 90.228 20.282 135.74 15.516-13.238-1.608-26.076-6.415-37.114-13.898 17.625 1.811 35.651-0.398 52.317-6.411-15.601-1.787-30.952-5.744-45.473-11.721 17.524-0.438 35.833-1.08 51.152-9.599-12.12 0.242-24.272-1.124-36.037-4.048 12.502-1.146 24.817-4.299 36.331-9.302-11.194-1.617-22.389-3.233-33.583-4.849 11.576-1.699 22.9-5.1 33.496-10.061-16.119 4.513-32.916 6.599-49.649 6.167 5.174 2.302 11.157 2.732 16.607 1.194-13.795 5.483-28.619 8.365-43.464 8.45" style="fill:#b05f27"/></g></g><g transform="translate(907.17 1615.9)"><path d="m0 0s31.719-6.923 67.786-0.483c19.398 3.464 36.067 14.169 36.067 14.169l-16.745 2.577s1.525 56.526-50.236 57.964c-46.372 1.288-38.534-32.356-39.931-38.643-2.577-11.593 3.059-35.584 3.059-35.584" style="fill:#1a1a1a"/></g><g transform="translate(913.93 1620.7)"><path d="m 0,0 c 0,0 16.906,-1.449 34.779,-0.483 17.872,0.966 35.261,8.695 35.261,8.695 0,0 2.416,57.481 -45.888,54.1 C -13.064,59.707 0,0 0,0" style="fill:#fff"/></g></g><g clip-path="url(#clipPath1511)"><g transform="translate(972.38 1647.3)"><path d="m0 0c0-18.408-14.922-33.33-33.33-33.33-18.407 0-33.329 14.922-33.329 33.33 0 18.407 14.922 33.329 33.329 33.329 18.408 0 33.33-14.922 33.33-33.329" style="fill:#69a343"/></g><g transform="translate(956.92 1647.3)"><path d="m0 0c0-9.871-8.002-17.873-17.873-17.873-9.87 0-17.872 8.002-17.872 17.873s8.002 17.872 17.872 17.872c9.871 0 17.873-8.001 17.873-17.872" style="fill:#1a1a1a"/></g><g transform="translate(974.8 1636.2)"><path d="m0 0c0-9.337-7.569-16.906-16.906-16.906-9.338 0-16.907 7.569-16.907 16.906s7.569 16.906 16.907 16.906c9.337 0 16.906-7.569 16.906-16.906" style="fill:#fff"/></g></g><g clip-path="url(#clipPath1531)"><g transform="translate(728.73 1610)"><path d="m0 0s-32.824-11.836-69.057-9.019c-18.469 1.435-34.231 10.66-34.231 10.66l15.024 4.783s-4.726 57.887 43.685 68.884c47.307 10.748 42.243-27.815 44.355-34.579 3.934-12.606 0.224-40.729 0.224-40.729" style="fill:#1a1a1a"/></g><g transform="translate(720.98 1614.6)"><path d="m 0,0 c 0,0 -17.66,-3.895 -35.952,-5.135 -17.691,-1.199 -34.793,4.889 -34.793,4.889 0,0 -5.849,59.326 40.363,64.625 C 8.154,68.798 0,0 0,0" style="fill:#fff"/></g></g><g clip-path="url(#clipPath1547)"><g transform="translate(727 1642.9)"><path d="m0 0c0-18.408-14.922-33.33-33.329-33.33-18.408 0-33.33 14.922-33.33 33.33 0 18.407 14.922 33.329 33.33 33.329 18.407 0 33.329-14.922 33.329-33.329" style="fill:#69a343"/></g><g transform="translate(710.33 1642.9)"><path d="m0 0c0-9.204-7.461-16.665-16.665-16.665-9.203 0-16.665 7.461-16.665 16.665 0 9.203 7.462 16.665 16.665 16.665 9.204 0 16.665-7.462 16.665-16.665" style="fill:#1a1a1a"/></g><g transform="translate(729.41 1631.8)"><path d="m0 0c0-9.337-7.569-16.906-16.906-16.906s-16.907 7.569-16.907 16.906 7.57 16.906 16.907 16.906 16.906-7.569 16.906-16.906" style="fill:#fff"/></g></g><g clip-path="url(#clipPath1567)"><g transform="translate(604.3 1702.8)"><path d="m0 0c0-1.449 8.695-29.949 12.076-32.847s45.406 21.737 45.406 21.737l83.565 13.525s-0.483 51.202-1.932 51.202-15.457-1.449-15.457-1.449l-5.796-18.839-2.899 17.873-7.245-0.966-5.797-20.771-4.347 18.839-22.22-8.212-0.966-8.695-4.347 8.212-16.424-7.729-0.483-23.186-9.178 18.356s-28.499-14.974-32.846-17.873c-4.347-2.898-11.11-9.177-11.11-9.177" style="fill:#e7b763"/></g><g clip-path="url(#clipPath1579)" style="opacity:.3"><g transform="translate(602.37 1691.2)"><path d="m0 0c0-1.449 8.695-29.949 12.076-32.847s45.406 21.737 45.406 21.737l83.566 13.525s-0.484 51.202-1.933 51.202-15.457-1.449-15.457-1.449l-5.796-18.839-2.899 17.873-7.245-0.966-5.797-20.771-4.347 18.839-22.22-8.212-0.966-8.695-4.347 8.212-16.424-7.729-0.483-23.185-9.178 18.355s-28.499-14.974-32.846-17.872-11.11-9.178-11.11-9.178" style="fill:#6e4119"/></g></g><g transform="translate(885.92 1762.2)"><path d="m0 0s2.898-16.906 0.483-26.567-5.313-27.533-5.313-27.533 69.557-1.933 80.667-4.831 33.33-13.525 37.194-16.423 12.559-8.695 12.559-8.695l20.771 28.016s-7.729 18.839-21.254 26.084c-13.525 7.246-15.457 9.178-15.457 9.178l-10.144-13.042 4.83 15.94-10.626 5.314-5.797-7.729 1.932 9.661-8.211 3.381-8.212-18.838-0.966 23.186-33.33 5.313-16.423-29.465 1.449 29.465z" style="fill:#e7b763"/></g><g clip-path="url(#clipPath1599)" style="opacity:.3"><g transform="translate(883.98 1750.7)"><path d="m0 0s2.898-16.906 0.483-26.567-5.313-27.533-5.313-27.533 69.557-1.933 80.667-4.831 33.33-13.525 37.194-16.423 12.559-8.695 12.559-8.695l20.771 28.016s-7.729 18.839-21.254 26.084c-13.525 7.246-15.457 9.178-15.457 9.178l-10.144-13.042 4.83 15.94-10.626 5.314-5.797-7.729 1.932 9.661-8.211 3.381-8.212-18.838-0.966 23.186-33.33 5.313-16.423-29.465 1.449 29.465z" style="fill:#6e4119"/></g></g><g clip-path="url(#clipPath1615)" style="opacity:.60001"><g transform="translate(786.89 1659.7)"><path d="m0 0c3.669 0.366 3.96-5.029 0.826-6.102-2.602-0.891-5.18-1.833-7.745-2.805 20.987 2.726 43.003 1.242 63.595 1.178 4.119-0.012 3.858-5.73 0-6.213-0.733-0.091-1.466-0.185-2.2-0.276 0.288-1.695-0.684-3.583-2.952-3.588-17.577-0.036-35.377-1.097-52.719-4.022-13.109-2.212-39.948-5.69-45.362-20.862 15.086-7.602 47.845-59.601 18.219-66.041-19.805-4.305-17.903-57.05-19.322-64.405-2.887-14.973-4.65-37.601-1.288-52.813 2.19-9.908 58.275-8.546 70.846-1.288 7.645 4.414 12.448 56.512 16.639 62.109 1.263 1.687 4.243 2.319 5.365 0 7.159-14.796 1.799-32.916 9.389-47.155 8.661-16.25 23.817-17.133 40.741-14.954 3.126 0.403 26.55 12.23 29.626 12.881 33.491 20.61 22.03 74.391 22.22 85.981-8.662 62.007-46.878 138.02-116.72 135.12-12.68-0.526-26.573-2.64-38.827-7.767 3.215 0.374 6.441 0.699 9.666 1.021" style="fill:#e7b763"/></g></g><g clip-path="url(#clipPath1631)" style="opacity:.39999"><g transform="translate(625.92 1407.1)"><path d="m0 0c18.449 31.947 53.856 60.755 88.777 48.374-3.134 11.921-14.386 22.754-25.855 26.051-10.737 3.087-21.326 0.873-30.675-5.116-6.679-4.28-12.609-9.461-18.084-15.128-6.037-6.734-11.653-14.75-16.394-23.871-3.539-9.397-6.515-18.982-9.365-28.612 2.923 4.002 6.054 7.884 9.358 11.704 2.044 2.364 6.118-0.131 5.192-3.022-1.101-3.441-2.075-6.902-2.954-10.38" style="fill:#e7b763"/></g></g><g clip-path="url(#clipPath1647)" style="opacity:.39999"><g transform="translate(1043.2 1500.8)"><path d="m0 0c1.234-9.071 36.179-25.014 42.507-12.881-14.749 24.228-41.063 52.371-70.908 53.18-11.969 0.324-23.697-1.416-35.19-4.31-0.969-7.18 60.532-13.495 63.591-35.989" style="fill:#e7b763"/></g></g><g transform="translate(729.57 1404.8)"><path d="m0 0s23.83-51.524 26.406-63.761c2.577-12.237 0-23.83 26.406-32.847 26.407-9.017 94.032-7.085 117.86 14.169s33.329 36.067 47.499 59.253c14.169 23.186 31.719 65.049 31.719 65.049l-146.2-65.049z" style="fill:#cb5630"/></g><g transform="translate(1009 1478.7)"><path d="m0 0c-0.202-0.035-0.47-0.088-0.81-0.162-2.144-0.248-4.125 0.203-5.945 1.354-0.956 0.437-1.881 0.942-2.807 1.444 0.013 0.022 0.035 0.058 0.035 0.058s-0.05-0.034-0.063-0.043c-1.509 0.82-2.997 1.68-4.457 2.57-5.78 3.521-10.046 8.502-15.258 12.657-4e-3 -0.01-8e-3 -0.02-0.013-0.03-1.282 1.294-4.028 0.06-3.282-1.888 2.826-7.375 8.975-13.541 15.443-18.34-19.39-12.66-71.647-45.244-107.01-52.89-47.66-10.305-45.084 1.288-50.236 14.168-5.152 12.882-7.728 57.965-7.728 57.965h-5.153l1.288-64.405s2.576-18.033-34.779-20.61c-32.412-2.235-89.04 15.886-103.47 20.723 0.12 0.107 0.24 0.213 0.359 0.321 2.92 2.606 6.196 5.085 8.304 8.424 0.383 0.605-0.255 1.534-0.971 1.264-5.347-2.023-9.98-6.469-14.531-9.854-2.731-2.032-9.632-5.533-6.675-9.903 0.738-1.089 1.854-1.563 3.151-1.282 2.043 0.443 2.935 1.825 2.609 3.832-0.027 0.163-0.091 0.292-0.149 0.427 0.958 0.869 2.436 1.891 2.84 2.251 1.51 1.348 3.019 2.695 4.529 4.043 9.827-5.622 41.288-24.035 43.459-30.55 2.577-7.729 28.339-45.084 47.66-50.237 19.322-5.152 72.134-6.44 108.2 10.305 36.067 16.746 78.575 56.677 86.303 70.846 5.546 10.167 18.385 31.607 25.197 42.908 0.332-0.223 0.664-0.446 0.995-0.661 7.152-4.65 18.353-7.48 19.288 4.189 0.314 3.909-4.865 3.994-6.327 1.106" style="fill:#2b190e"/></g><g transform="translate(734.08 1408)"><path d="m0 0s30.914-11.593 51.524-9.016c20.61 2.576 45.084 14.169 45.084 14.169s9.234-11.55 34.778-6.441c57.965 11.593 117.22 56.677 117.22 56.677s-60.541-95.32-150.71-103.05c-25.118-2.153-44.542-3.74-57.965 2.577-21.898 10.304-39.931 45.083-39.931 45.083" style="fill:#fff"/></g><g clip-path="url(#clipPath1675)" style="opacity:.5"><g transform="translate(815.22 1291)"><path d="m0 0c-8.312-6.346-14.847-14.996-18.678-24.727-3.894 7.681-5.335 16.582-4.064 25.098-4.616-16.286-13.899-29.024-10.736-45.654 2.668-14.028 17.484-33.153 29.945-40.127-5.448 15.756-5.622 33.286-0.487 49.148-0.445-21.318 11.286-42.927 30.334-52.508-7.547 12.481-9.424 28.247-5.02 42.152 2.745-11.414 5.682-23.232 13.006-32.407 10.608-13.288 28.168-18.434 44.586-22.856-4.501 10.682-9.002 21.364-13.504 32.046 6.336-6.806 17.403-8.62 25.58-4.195-16.526 11.902-31.019 26.617-42.669 43.322-3.698-6.907-4.125-15.479-1.13-22.719-8.929 11.071-14.281 24.982-15.075 39.183-2.198-3.924-4.397-7.847-6.595-11.77-1.648 5.544-1.116 11.705 1.46 16.883-4.475-3.293-10.012-5.118-15.568-5.132-0.067 3.062-0.135 6.125-0.202 9.187-3.558-6.089-7.116-12.177-10.673-18.266-2.62 7.467-2.801 15.768-0.51 23.342" style="fill:#e7b763"/></g></g><g clip-path="url(#clipPath1691)" style="opacity:.2"><g transform="translate(844.07 1290.1)"><path d="m0 0c-6.899-2.069-14.519-4.054-21.1-1.127-5.009 2.228-8.588 7.007-13.693 9.004-10.372 4.057-20.929-2.022-32.049-1.402-9.358 0.523-17.797 5.137-21.683 13.666s-4.556 18.119-5.18 27.471c-0.624 9.351-1.319 18.944-5.245 27.454-2.276 4.932-5.625 9.477-6.644 14.811-1.164 6.092 0.819 12.746-1.735 18.398-1.888 4.177-5.887 6.935-9.7 9.48-10.274 6.856-20.547 13.713-30.821 20.569 26.292-10.441 55.13-14.405 83.264-11.444 8.777 0.924 17.813 2.644 24.989 7.779 7.787 5.571 12.506 14.633 14.71 23.951 2.203 9.317 2.148 19 2.082 28.575 4.07-12.165 8.14-24.33 12.211-36.494 1.604-4.794 3.485-9.956 7.745-12.677 3.034-1.939 6.789-2.296 10.385-2.449 25.034-1.069 49.943 5.226 73.062 14.885 23.119 9.66 44.681 22.632 66.147 35.555-8.924-25.492-25.515-48.244-47.057-64.536 2.329 6.586 3.243 13.669 2.663 20.631-50.323-32.49-112.28-46.522-171.69-38.883-1.885-11.908-0.969-25.964 8.575-33.329 12.291-9.485 30.313-2.13 45.395-5.807-9.504-1.308-19.081-2.087-28.671-2.333-7.504-0.192-15.435-0.167-21.896-3.987-6.462-3.821-10.335-13.13-5.72-19.05 2.06-2.642 12.232-9.572 14.763-10.614 2.372-0.977 5.011-1.014 7.577-1.037 13.289-0.118 26.577-0.237 39.866-0.355 15.745-0.14 32.009-0.183 46.506 5.965 6.284 2.665 12.045 6.425 17.547 10.465 19.444 14.278 36.096 32.344 48.744 52.886-6.14-12.749-12.718-25.286-19.719-37.583-4.389-7.709-8.979-15.373-14.823-22.048-17.328-19.792-43.606-28.833-68.803-36.39"/></g></g><g transform="translate(922.43 1368.8)"><path d="m0 0c-0.307-0.066-0.523-0.161-0.805-0.302-1.53-0.763 0.631-2.924 1.394-1.394 0.141 0.282 0.236 0.498 0.302 0.805 0.119 0.555-0.336 1.01-0.891 0.891m-1.956-1.845c-0.4-0.141-0.644-0.296-0.971-0.564-0.277-0.227-0.342-0.512-0.293-0.786-0.457-0.195-0.875-0.467-1.301-0.737-0.84-0.533-0.043-1.886 0.777-1.33 0.515 0.349 1.087 0.654 1.48 1.139 0.262-0.035 0.53 0.042 0.746 0.305 0.268 0.327 0.423 0.572 0.564 0.971 0.202 0.568-0.434 1.203-1.002 1.002m-3.389-3.46-0.531-0.435c-0.127-0.104-0.124-0.235-0.08-0.357-0.539-0.368-0.91-0.929-1.304-1.45-0.046 0.035-0.077 0.081-0.138 0.105-0.145 0.058-0.29 0.116-0.434 0.175-0.639 0.256-0.901-0.359-0.813-0.858-1.412 0.065-2.166-1.43-2.302-2.715-0.027-0.249 0.047-0.441 0.166-0.592-0.197 0.046-0.404 0.028-0.584-0.106-0.892-0.664-1.336-1.454-1.73-2.482-0.223-0.583 0.587-1.238 1.098-0.843 0.865 0.667 1.517 1.312 1.895 2.353 0.101 0.278 3e-3 0.562-0.183 0.775 0.485-0.117 1.083 0.077 1.25 0.637 0.216 0.722 0.917 1.08 1.25 1.742 0.121 0.24 0.119 0.525 0.018 0.761 0.123 0.05 0.246 0.099 0.369 0.149 0.093 0.037 0.151 0.099 0.208 0.159 0.127-0.052 0.275-0.062 0.425 0.055 0.577 0.448 1.243 0.835 1.63 1.463 0.138 0.222 0.072 0.464-0.079 0.628 0.106 0.13 0.212 0.258 0.317 0.388 0.26 0.317-0.131 0.708-0.448 0.448m-66.104-29.606c-0.324 0.154-0.551 0.172-0.867 0.139-0.562 0.723-1.354 0.916-2.253 0.648-1.339-0.399-1.339-2.308 0-2.707 0.9-0.268 1.691-0.075 2.253 0.648 0.316-0.033 0.543-0.015 0.867 0.139 0.429 0.203 0.429 0.93 0 1.133m-5.432 0.416c-0.457-0.146-0.716-0.281-1.013-0.665-0.899-1.161 0.439-2.5 1.601-1.601 0.384 0.297 0.519 0.556 0.665 1.013 0.232 0.727-0.526 1.485-1.253 1.253m-33.273-2.162c-0.92 1.022-2.527-0.585-1.505-1.505 0.331-0.298 0.573-0.456 1.001-0.582 0.64-0.189 1.275 0.446 1.086 1.086-0.126 0.428-0.284 0.67-0.582 1.001m96.026 21.636c-0.355-0.051-0.604-0.169-0.914-0.347-0.29-0.168-0.478-0.369-0.595-0.583-0.586-0.452-0.705-1.348-0.354-1.97-0.436 0.667-1.243 1.028-2.243 0.875-0.197-0.029-0.394-0.06-0.591-0.089-0.767-0.117-1.277-0.619-1.55-1.25-0.195-6e-3 -0.39-0.039-0.581-0.114-0.093-0.035-0.185-0.071-0.278-0.107-1.68-0.652-2.504-2.711-1.089-4.126 1.319-1.319 3.183-0.681 3.959 0.772 1.167-0.097 2.409 0.485 2.603 1.76 0.03 0.198 0.06 0.395 0.09 0.592 0.093 0.617-7e-3 1.161-0.253 1.592 0.229-0.337 0.604-0.578 1.142-0.578 0.549 0 0.92 0.258 1.152 0.608 0.221 0.116 0.429 0.305 0.602 0.604 0.179 0.309 0.296 0.559 0.348 0.913 0.137 0.946-0.503 1.586-1.448 1.448m-12.92-6.574c-0.789-0.177-1.357-0.541-1.932-1.099-2.194-2.129 0.076-5.561 2.864-4.92 0.787 0.181 1.357 0.54 1.93 1.102 2.185 2.142-0.07 5.542-2.862 4.917m-8.045-1.083-0.99 0.096c-1.046 0.103-1.953-0.198-2.721-0.709-0.207 0.026-0.409 0.077-0.623 0.078-1.812-0.114-3.085-0.431-4.672-1.323-1.404-0.79-2.343-2.118-2.975-3.595-0.899-0.088-1.787-0.246-2.662-0.486-0.877 0.232-1.851 0.181-2.807-0.349-1.985-1.103-3.301-1.873-4.574-3.725-0.83-1.207 0.065-2.698 1.272-3.127 0.219-0.077 0.413-0.108 0.619-0.164 0.93-1.738 3.014-2.837 5.104-2.3 1.937 0.498 3.545 0.736 5.535 0.394 2.441-0.42 5.646 0.615 6.12 3.475l0.074 0.452c1.042-0.197 2.009-0.126 3.21 0.112 1.405 0.278 2.473 1.177 3.194 2.325 3.134 2.671 2.197 8.327-3.104 8.846m-24.89-9.034c-1.898 0.795-4.231 0.7-6.197 0.229-1.569-0.376-3.807-1.541-4.12-3.278-0.123-0.683 0.28-1.19 0.96-1.261 1.534-0.16 3.023 0.7 4.633 0.451 1.884-0.292 3.006-2.082 5.05-1.382 0.914 0.313 1.878 1.216 1.746 2.293-0.012 0.09-0.023 0.182-0.034 0.272-0.169 1.378-0.762 2.142-2.038 2.676m-19.357-3.525c-2.697 1.485-6.264 0.937-9.272 0.905-3.191-0.034-6.614-0.074-9.607-1.254-0.139-0.055-0.234-0.141-0.31-0.237-1.084 0.824-2.676 1.016-3.943 0.49-0.051 0.615-0.462 1.185-1.189 1.101-0.779-0.091-1.451-0.17-2.169-0.497-0.699-0.318-0.828-0.949-0.64-1.517-0.14 0.02-0.292 4e-3 -0.443-0.075-0.313-0.162-0.449-0.27-0.689-0.528-0.697-0.75 0.371-1.818 1.12-1.121 0.259 0.241 0.366 0.376 0.529 0.689 0.044 0.085 0.03 0.164 0.041 0.247 0.323-0.253 0.73-0.401 1.181-0.302 0.634 0.139 1.144 0.459 1.699 0.783 0.087 0.051 0.152 0.123 0.219 0.193 1.103-1.094 2.953-1.428 4.36-0.82 0.129 0.055 0.215 0.158 0.277 0.278 0.096-0.019 0.2-0.021 0.318 6e-3 5.903 1.34 11.993-0.684 17.947-0.451 1.086 0.043 1.595 1.545 0.571 2.11m-63.428 5.899c-0.324 1.75-2.037 2.672-3.648 2.782-1.689 0.114-3.102-1.498-3.102-3.102 0-1.745 1.246-2.778 2.739-2.986 0.691-0.687 1.752-0.998 2.645-0.377 1.317 0.918 1.651 2.147 1.366 3.683m28.467-5.886c-0.715 0.115-1.311 0.124-2.014-0.089-0.257-0.079-0.484-0.21-0.69-0.363-0.254 0.898-0.804 1.704-1.669 2.157-3.356 1.758-6.55 1.695-10.034 1.343-0.706 0.649-1.579 1.025-2.586 1.12-0.465 1.228-1.547 2.016-2.811 2.283-0.035 0.024-0.048 0.065-0.085 0.088-3.424 2.081-6.717-0.259-8.734-3.128-1.642-2.335 0.591-5.125 3.018-5.296 0.218-0.503 0.508-0.973 0.862-1.366 0.3-0.331 0.599-0.662 0.898-0.994 0.918-1.017 2.749-1.58 4.091-1.137 0.805-0.652 1.817-1.046 2.881-1.035 4.45 0.044 8.413-0.423 12.5 1.631 0.565 0.285 0.982 0.722 1.285 1.225 0.669-0.772 1.866-1.147 2.749-0.502 0.58 0.425 1.057 0.822 1.394 1.469 0.479 0.917 0.129 2.404-1.055 2.594" style="fill:#fff"/></g><g clip-path="url(#clipPath1711)" style="opacity:.5"><g transform="translate(825.53 1666.5)"><path d="m0 0c-18.47 1.261-37.233-2.027-54.173-9.496 19.897 2.59 40.21 1.953 59.906-1.877-19.813 1.951-40.004-0.018-59.067-5.758 33.109 1.482 68.425 6.558 97.663-9.048-28.916 6.968-59.191 3.739-88.754 0.471 20.98 1.63 42.193 0.242 62.782-4.108-28.855 0.34-57.747-2.477-85.992-8.387 37.738 4.935 75.97 3.954 114.02 2.964-7.865 4.76-16.934 7.513-26.117 7.926 12.915 0.368 25.857-0.201 38.691-1.699-7.313 9.399-19.785 12.774-31.358 15.587-8.229 2.001-16.458 4.001-24.688 6.002 10.325-0.698 20.649-1.396 30.973-2.094-17.967 5.38-36.568 8.645-55.293 9.706 15.946 2.921 32.329 3.442 48.429 1.538" style="fill:#fdf3d8"/></g></g><g transform="translate(731.5 1618)"><path d="m0 0s36.067 10.305 82.439 11.593 90.167 0 91.455-14.169-9.017-47.66-36.067-77.286c-27.05-29.627-27.05-45.084-47.66-42.508-20.609 2.577-63.117 42.508-78.574 72.134s-11.593 50.236-11.593 50.236" style="fill:#1a1a1a"/></g><g transform="translate(744.39 1609.6)"><path d="m0 0 72.778-7.084 3.542-33.491 9.983 34.779 68.269 11.593s-49.27 6.762-86.947 3.864-67.625-9.661-67.625-9.661" style="fill:#fdf3d8"/></g><g clip-path="url(#clipPath1735)" style="opacity:.5"><g transform="translate(814.55 1555.5)"><path d="m0 0-3.143 12.866c-1.901 8.816-9.698 15.11-18.716 15.11-15.458 0-49.27 14.491-49.27 14.491l-14.685 11.965s5.024-39.015 22.413-67.998c16.73-27.882 56.301-65.536 76.867-53.768-6.647 21.452-14.732 44.601-13.466 67.334"/></g></g><g transform="translate(853.87 1523.9)"><path d="m0 0 9.017 41.863 32.846 11.593s-9.66-19.965-18.033-29.626-23.83-23.83-23.83-23.83"/></g><g transform="translate(745.03 1565.2)"><path d="m 0,0 32.846,-7.085 12.238,-42.507 c 0,0 -18.034,15.457 -27.051,26.406 C 9.017,-12.237 0,0 0,0"/></g><g clip-path="url(#clipPath1759)" style="opacity:.2"><g transform="translate(888.03 1579.9)"><path d="m0 0c-6.153-1.745-12.064-4.249-18.035-6.533-2.34-0.895-5.438-1.689-7.296-3.547-1.738-1.738-1.958-5.253-2.39-7.384-1.335-6.588-3.213-13.049-5.245-19.451-3.969-12.509-8.826-25.751-17.133-36.092-1.692-1.992-3.653-3.686-5.884-5.082-7.81-5.342-6.749 2.298-7.466 6.429-1.469 8.455-2.538 16.985-3.534 25.507-0.108 0.931-1.535 0.983-1.494 0 0.361-8.676 1.08-17.281 2.084-25.905 0.301-2.585-7e-3 -9.134 2.556-10.635 6.14-3.596 15.181 5.509 18.226 9.787 8.039 11.293 13.363 24.98 17.594 38.109 1.03 3.197 1.875 6.452 2.723 9.701 0.823 3.15 0.961 10.653 3.731 12.785 5.933 4.566 16.011 5.818 22.889 9.165 1.782 0.868 0.518 3.669-1.326 3.146m-74.26-75.576c-9.776 5.185-17.714 11.579-23.152 21.398-5.79 10.45-4.532 23.261-10.094 33.579-2.92 5.418-13.723 4.891-18.611 5.24-17.003 1.215-20.076 17.092-25.958 30.06-0.15 0.331-0.679 0.094-0.579-0.245 2.795-9.447 5.195-19.803 12.086-27.185 8.117-8.694 29.026-0.438 32.148-13.901 2.779-11.981 4.046-23.432 10.957-33.936 5.28-8.027 13.195-14.165 22.278-17.203 1.296-0.433 2.122 1.559 0.925 2.193" style="fill:#fdf3d8"/></g></g></g></g></g></svg>
