<?xml version="1.0" encoding="UTF-8"?>
<svg width="120mm" height="140mm" version="1.1" viewBox="0 0 120 140" xmlns="http://www.w3.org/2000/svg" xmlns:xlink="http://www.w3.org/1999/xlink"><defs><style type="text/css"><![CDATA[
    .fil5 {fill:#FFED00}
    .fil4 {fill:#EF7F1A}
    .fil6 {fill:#EF7F1A}
    .fil3 {fill:#E31E24}
    .fil2 {fill:#E31E24}
    .fil0 {fill:#FCEE5E}
    .fil1 {fill:#FFED00;fill-opacity:0.501961}
   ]]></style><filter id="a"><feGaussianBlur stdDeviation=".41431"/></filter><radialGradient id="b" cx="170.31" cy="209.17" r="104.54" gradientTransform="matrix(1.0744 -.88115 .89487 1.0911 -193.9 134.77)" gradientUnits="userSpaceOnUse"><stop stop-color="#70ffea" offset="0"/><stop stop-color="#0055f6" offset="1"/></radialGradient><filter id="u"><feGaussianBlur stdDeviation="34.6347"/></filter><linearGradient id="b-1"><stop stop-color="#fff" offset="0"/><stop stop-color="#fff" stop-opacity="0" offset="1"/></linearGradient><linearGradient id="c-3"><stop stop-opacity="0" offset="0"/><stop offset="1"/></linearGradient><linearGradient id="t" x1="-367.7" x2="315.17" y1="2082.7" y2="1824.1" gradientUnits="userSpaceOnUse"><stop stop-color="#f2f2f2" offset="0"/><stop stop-color="#f2f2f2" stop-opacity="0" offset="1"/></linearGradient><radialGradient id="h" cx="-249.67" cy="1545.8" r="78.609" gradientTransform="matrix(1.0922 -.19643 .18037 1.0029 -255.8 -53.565)" gradientUnits="userSpaceOnUse"><stop stop-color="#999" offset="0"/><stop stop-color="#999" stop-opacity="0" offset="1"/></radialGradient><radialGradient id="k" cx="-464.52" cy="1903.5" r="558.14" gradientTransform="matrix(.99679 -.47507 .25632 .53782 -491.73 615.9)" gradientUnits="userSpaceOnUse" xlink:href="#b-1"/><radialGradient id="j" cx="-472.87" cy="1866.4" r="409.06" gradientTransform="matrix(1.1907 -1.1486 .24423 .25319 -340.94 714.81)" gradientUnits="userSpaceOnUse" xlink:href="#c-3"/><radialGradient id="i" cx="-550.29" cy="1760.6" r="124.64" gradientTransform="matrix(.86996 .2431 -.21246 .76033 302.34 552.89)" gradientUnits="userSpaceOnUse" xlink:href="#c-3"/><radialGradient id="g" cx="-512.74" cy="1703.8" r="115.58" gradientTransform="matrix(.33835 -.34336 .6094 .60051 -1421.7 544.34)" gradientUnits="userSpaceOnUse" xlink:href="#b-1"/><clipPath id="ac"><path d="m688.38 337.76c33.959 3.6662 103.24-40.5 67.5-128.65s-146.41-69.02-162-18.265c-2.9502 9.6019 45.515 19.719 65.912 58.765s12.02 86.358 28.588 88.147z" style="fill-rule:evenodd"/></clipPath><clipPath id="ab"><path d="m265.82 354.97c-7.8299 9.3328-25.563 13.474-26.542 33.395-0.99345 20.213 17.934 56.514 45.548 63.567 27.525 7.0304 30.475-0.87881 44.565-0.29294 13.763 0.57227 14.746-48.92-9.8305-72.062-24.413-22.988-42.271-26.657-53.74-24.607z" style="fill-rule:evenodd"/></clipPath><filter id="x"><feGaussianBlur stdDeviation="2.88774"/></filter><filter id="w"><feGaussianBlur stdDeviation=".15907"/></filter><filter id="v"><feGaussianBlur stdDeviation=".17345"/></filter><filter id="aa" x="-.44669" y="-.25418" width="1.8934" height="1.5084"><feGaussianBlur stdDeviation="18.5373"/></filter><filter id="z" x="-.14467" y="-.09848" width="1.2894" height="1.197"><feGaussianBlur stdDeviation="5.98855"/></filter><filter id="y" x="-.17623" y="-.17892" width="1.3525" height="1.3578"><feGaussianBlur stdDeviation="6.44421"/></filter><style type="text/css">.str0 {stroke:#3F4446;stroke-width:2;stroke-linecap:round;stroke-linejoin:round}
    .fil1 {fill:none}
    .fil13 {fill:#007CC3}
    .fil15 {fill:#1F1A17}
    .fil16 {fill:#3C746B}
    .fil17 {fill:#3F4446}
    .fil14 {fill:#75C5F0}
    .fil10 {fill:#84C225}
    .fil9 {fill:#B8DB7C}
    .fil0 {fill:#DEDEDD}
    .fil18 {fill:#F7C5B4}
    .fil2 {fill:#F8C300}
    .fil12 {fill:white}
    .fil3 {fill:#FCDB00}
    .fil8 {fill:url(#a)}
    .fil11 {fill:url(#g)}
    .fil4 {fill:url(#h)}
    .fil6 {fill:url(#i);fill-rule:nonzero}
    .fil5 {fill:url(#j);fill-rule:nonzero}
    .fil7 {fill:url(#k);fill-rule:nonzero}</style><linearGradient id="a-6"><stop stop-color="#e3dedb" offset="0"/><stop stop-color="#917c6f" offset="1"/></linearGradient><linearGradient id="aj" x1="278.18" x2="304.61" y1="508.88" y2="506.84" gradientUnits="userSpaceOnUse" xlink:href="#a-6"/><linearGradient id="ag" x1="342.86" x2="359.39" gradientUnits="userSpaceOnUse" xlink:href="#a-6"/><linearGradient id="af" x1="386.27" x2="412.7" y1="357.67" y2="359.03" gradientUnits="userSpaceOnUse" xlink:href="#a-6"/><linearGradient id="ae" x1="391.43" x2="416.13" gradientUnits="userSpaceOnUse" xlink:href="#a-6"/><linearGradient id="ad" x1="271.28" x2="305" y1="522.24" y2="521.9" gradientUnits="userSpaceOnUse"><stop stop-color="#917c6f" offset="0"/><stop stop-color="#483e37" offset="1"/></linearGradient><style type="text/css">.str0 {stroke:#3F4446;stroke-width:2;stroke-linecap:round;stroke-linejoin:round}
    .fil1 {fill:none}
    .fil13 {fill:#007CC3}
    .fil15 {fill:#1F1A17}
    .fil16 {fill:#3C746B}
    .fil17 {fill:#3F4446}
    .fil14 {fill:#75C5F0}
    .fil10 {fill:#84C225}
    .fil9 {fill:#B8DB7C}
    .fil0 {fill:#DEDEDD}
    .fil18 {fill:#F7C5B4}
    .fil2 {fill:#F8C300}
    .fil12 {fill:white}
    .fil3 {fill:#FCDB00}
    .fil8 {fill:url(#a)}
    .fil11 {fill:url(#g)}
    .fil4 {fill:url(#h)}
    .fil6 {fill:url(#i);fill-rule:nonzero}
    .fil5 {fill:url(#j);fill-rule:nonzero}
    .fil7 {fill:url(#k);fill-rule:nonzero}</style><style type="text/css">.str0 {stroke:#3F4446;stroke-width:2;stroke-linecap:round;stroke-linejoin:round}
    .fil1 {fill:none}
    .fil13 {fill:#007CC3}
    .fil15 {fill:#1F1A17}
    .fil16 {fill:#3C746B}
    .fil17 {fill:#3F4446}
    .fil14 {fill:#75C5F0}
    .fil10 {fill:#84C225}
    .fil9 {fill:#B8DB7C}
    .fil0 {fill:#DEDEDD}
    .fil18 {fill:#F7C5B4}
    .fil2 {fill:#F8C300}
    .fil12 {fill:white}
    .fil3 {fill:#FCDB00}
    .fil8 {fill:url(#a)}
    .fil11 {fill:url(#g)}
    .fil4 {fill:url(#h)}
    .fil6 {fill:url(#i);fill-rule:nonzero}
    .fil5 {fill:url(#j);fill-rule:nonzero}
    .fil7 {fill:url(#k);fill-rule:nonzero}</style><style type="text/css"><![CDATA[
    .fil5 {fill:#FFED00}
    .fil4 {fill:#EF7F1A}
    .fil6 {fill:#EF7F1A}
    .fil3 {fill:#E31E24}
    .fil2 {fill:#E31E24}
    .fil0 {fill:#FCEE5E}
    .fil1 {fill:#FFED00;fill-opacity:0.501961}
   ]]></style><style type="text/css">.str0 {stroke:#3F4446;stroke-width:2;stroke-linecap:round;stroke-linejoin:round}
    .fil1 {fill:none}
    .fil13 {fill:#007CC3}
    .fil15 {fill:#1F1A17}
    .fil16 {fill:#3C746B}
    .fil17 {fill:#3F4446}
    .fil14 {fill:#75C5F0}
    .fil10 {fill:#84C225}
    .fil9 {fill:#B8DB7C}
    .fil0 {fill:#DEDEDD}
    .fil18 {fill:#F7C5B4}
    .fil2 {fill:#F8C300}
    .fil12 {fill:white}
    .fil3 {fill:#FCDB00}
    .fil8 {fill:url(#a)}
    .fil11 {fill:url(#g)}
    .fil4 {fill:url(#h)}
    .fil6 {fill:url(#i);fill-rule:nonzero}
    .fil5 {fill:url(#j);fill-rule:nonzero}
    .fil7 {fill:url(#k);fill-rule:nonzero}</style><style type="text/css">.fil28 {fill:none} .fil29 {fill:#FEFEFE} .fil30 {fill:#E6E7E8} .fil27 {fill:#403321} .fil31 {fill:#453621} .fil33 {fill:#5C492F} .fil32 {fill:#7A6343} .fil23 {fill:#7D6C4D} .fil17 {fill:#806641} .fil16 {fill:#967C57} .fil14 {fill:#A6814C} .fil15 {fill:#A98E68} .fil7 {fill:#AEBAAA} .fil10 {fill:#B3B489} .fil38 {fill:#B55E07} .fil39 {fill:#BD955E} .fil12 {fill:#C98054} .fil19 {fill:#C9B698} .fil8 {fill:#CCD4C9} .fil11 {fill:#CFD0B1} .fil37 {fill:#D26F0C} .fil13 {fill:#D6AF78} .fil26 {fill:#DBBF99} .fil36 {fill:#DBC5A2} .fil4 {fill:#DEAA85} .fil5 {fill:#DEE9DB} .fil22 {fill:#E0BB86} .fil24 {fill:#E0BB86} .fil2 {fill:#E1CBB7} .fil9 {fill:#E6EAE4} .fil6 {fill:#EBEAE6} .fil3 {fill:#EFD3BD} .fil0 {fill:#EFF4ED} .fil21 {fill:#F2CA91} .fil1 {fill:#F5F5F3} .fil25 {fill:#FAD29B} .fil35 {fill:#FAE9CE} .fil34 {fill:#D2D3D5;fill-rule:nonzero} .fil18 {fill:black;fill-rule:nonzero} .fil20 {fill:#7D6C4D;fill-rule:nonzero}</style></defs><g transform="translate(-25.525 -56.213)"><rect x="25.525" y="56.237" width="7.5883" height="139.85" ry="3.3779" style="color-rendering:auto;color:#000000;fill:#b7b7c8;image-rendering:auto;isolation:auto;mix-blend-mode:normal;shape-rendering:auto;solid-color:#000000;stroke-width:1.3895"/><rect x="29.691" y="63.407" width="114.02" height="132.81" ry=".57281" style="color-rendering:auto;color:#000000;fill:#beb7c8;image-rendering:auto;isolation:auto;mix-blend-mode:normal;shape-rendering:auto;solid-color:#000000;stroke-width:1.3895"/><rect x="29.691" y="63.407" width="111.81" height="130.42" ry=".56251" style="color-rendering:auto;color:#000000;fill:#fff;image-rendering:auto;isolation:auto;mix-blend-mode:normal;shape-rendering:auto;solid-color:#000000;stroke-width:1.3895"/><g transform="translate(-19.933 44.739)" style="fill:#dbdbe3"><rect x="49.021" y="11.474" width="116.44" height="132.81" ry=".57281" style="color-rendering:auto;color:#000000;fill:#dbdbe3;image-rendering:auto;isolation:auto;mix-blend-mode:normal;shape-rendering:auto;solid-color:#000000;stroke-width:1.3895"/></g><text x="32.74102" y="68.461937" style="fill:#6c5353;font-family:sans-serif;font-size:10.583px;font-style:italic;letter-spacing:0px;line-height:1.25;stroke-width:.26458;word-spacing:0px" xml:space="preserve"><tspan x="32.74102" y="68.461937" style="fill:#6c5353;stroke-width:.26458">My story</tspan></text><g transform="matrix(.0026495 0 0 .0026495 58.034 85.906)" style="clip-rule:evenodd;fill-rule:evenodd;image-rendering:optimizeQuality;shape-rendering:geometricPrecision;stroke-width:3.7743"><rect class="fil0" width="32014" height="29700" style="fill:#eff4ed;stroke-width:3.7743"/><rect class="fil1" x="-9966" width="29700" height="29700" style="fill:#f5f5f3;stroke-width:3.7743"/><polygon class="fil2" points="-1907 29701 11581 24715 19734 29700" style="fill:#e1cbb7;stroke-width:3.7743"/><polygon class="fil3" points="11581 24719 11581 0 19734 0 19734 29700" style="fill:#efd3bd;stroke-width:3.7743"/><polygon class="fil4" points="14165 26054 13766 26054 13761 26051 13761 0 19734 0 19734 29348 14167 26053" style="fill:#deaa85;stroke-width:3.7743"/><polygon class="fil0" points="20532 0 20532 29348 14167 26055 14167 26054 14167 0" style="fill:#eff4ed;stroke-width:3.7743"/><polygon class="fil5" points="-9950 -1 -9950 14336 11581 12636 11581 -1" style="fill:#dee9db;stroke-width:3.7743"/><path class="fil6" d="m7629 29701h-17579l-16-15365 13572-1074 169 4205 4552 850v3299l-620 111s-68 7974-78 7974z" style="fill:#ebeae6;stroke-width:3.7743"/><path class="fil7" d="m7469 29701h-7868l7868-2916zm-8885 0h-8534v-2788l17419-4510v4095c-1503 535-5571 1988-8885 3203z" style="fill:#aebaaa;stroke-width:3.7743"/><polygon class="fil8" points="7703 21723 -9950 25930 -9950 19197 3890 17489 8327 18317 8327 21614" style="fill:#ccd4c9;stroke-width:3.7743"/><polygon class="fil0" points="-4743 20915 -7165 18857 1043 17840 5038 18981" style="fill:#eff4ed;stroke-width:3.7743"/><polygon class="fil7" points="-4629 24701 -9950 25930 -9950 21926 8327 18335 8327 21616 7706 21728" style="fill:#aebaaa;stroke-width:3.7743"/><polygon class="fil9" points="1301 18198 -5867 19126 -4180 20315 3845 18962" style="fill:#e6eae4;stroke-width:3.7743"/><polygon class="fil8" points="1308 18759 -4958 19766 -4180 20315 2635 19163" style="fill:#ccd4c9;stroke-width:3.7743"/><ellipse class="fil10" transform="matrix(.8966 -.071385 0 1 -2047.4 18440)" rx="611" ry="129" style="fill:#b3b489;stroke-width:3.7743"/><path class="fil11" d="m-1860 16225v2c0 5 1 10 1 15h-1l-40 2198c-20 58-281 58-300 0l-35-2262v-1c0-227 184-411 411-411 87 0 168 27 234 73-157 58-270 209-270 386z" style="fill:#cfd0b1;stroke-width:3.7743"/><path class="fil11" d="m-1316 16222 21 96c12 53-21 105-74 117l-194 45c-52 11-105-22-117-75l-22-95z" style="fill:#cfd0b1;stroke-width:3.7743"/><rect class="fil10" transform="rotate(-12.802 65687 16996)" width="646" height="1430" rx="161" ry="161" style="fill:#b3b489;stroke-width:3.7743"/><path class="fil11" d="m-1976 14942 316-72c86-19 173 35 192 121l56 245-630 143-55-244c-20-87 34-173 121-193z" style="fill:#cfd0b1;stroke-width:3.7743"/><path class="fil10" d="m-1976 14942 316-72c86-19 173 35 192 121l33 145-630 143-32-144c-20-87 34-173 121-193z" style="fill:#b3b489;stroke-width:3.7743"/><path class="fil4" d="m-7441 18435v1517c0 253-207 460-460 460h-656c-253 0-460-207-460-460v-1519c0-50 353-90 788-90s788 40 788 90z" style="fill:#deaa85;stroke-width:3.7743"/><ellipse class="fil12" cx="-8229" cy="18433" rx="691" ry="58" style="fill:#c98054;stroke-width:3.7743"/><polygon class="fil0" points="-9950 -1 -9950 13936 11264 12304 11264 19" style="fill:#eff4ed;stroke-width:3.7743"/><path class="fil13" d="m10259 10298s-223-929-692-1071-436 1215-336 1603c99 388 673 492 824 435 152-57 88-142 88-142v-531c0-204 116-294 116-294z" style="fill:#d6af78;stroke-width:3.7743"/><path class="fil14" d="m10239 10292c-26-102-246-917-677-1048-27-8-52-11-75-9-87 8-151 83-197 198-48 119-77 280-91 452-30 356 2 757 49 941 4 15 9 30 14 44 61 163 214 269 372 329s320 74 400 54c5-1 10-3 15-5 129-48 79-114 79-114l-4-5v-537c0-177 87-273 115-300zm-667-1082c480 145 704 1081 705 1084l3 11-9 7v1c-4 2-110 87-110 279v526c13 23 51 108-99 164-6 2-12 4-19 6-85 22-257 8-422-55-166-63-327-176-393-350-6-16-11-32-15-48-48-187-81-594-51-953 15-175 44-340 94-463 52-127 125-211 228-220 27-2 57 1 88 11z" style="fill:#a6814c;stroke-width:3.7743"/><path class="fil14" d="m9860 10859c-9-5-20-11-32-18-78-41-197-103-129-240 43-85 100-116 149-143 52-29 94-52 94-142 0-101-124-447-261-689-43-76-88-142-130-185-39-42-76-63-107-55-11 4-22 11-33 24-88 110-157 383-175 650-16 234 8 462 94 569 152 191 438 223 530 229zm-21-39c34 18 61 32 63 51l1 13h-13c-1 0-389 0-579-239-90-112-115-347-99-586 18-271 89-550 181-663 13-17 29-27 45-32 40-11 85 13 131 61 43 45 89 112 133 190 139 245 264 598 264 701 0 104-48 130-107 163-45 25-98 55-138 133-58 115 48 171 118 208z" style="fill:#a6814c;stroke-width:3.7743"/><path class="fil15" d="m8251 17776c-627-200-2802 303-3469 653 0 0-664-224-1330-377-570-132-986-204-1096-223-2416-444-3879 1064-3287 1774 3776 1055 2818 1543 4816 1954 2242 460 3954 154 4928-1717 424-815 251-1806-562-2064z" style="fill:#a98e68;stroke-width:3.7743"/><path class="fil16" d="m-98 19850c2806 887 2148 1330 3983 1707 567 116 1100 184 1597 189 295-1150 426-2766-29-2545-693 337-1356 1305-1977 979-622-326-296-1040-296-1040s-509 196-1018 196c-508 0 0-725 0-725s-1372 613-2260 1239z" style="fill:#967c57;stroke-width:3.7743"/><path class="fil17" d="m8242 17804c-282-89-889-33-1528 87-758 143-1559 376-1918 564l-12 6-12-4c-2 0-661-222-1327-376-284-65-530-116-719-153-190-37-321-60-375-69-946-174-1745-47-2328 214-343 154-612 353-792 564-179 209-271 429-263 625 5 114 44 221 118 314 2098 587 2735 999 3230 1320 392 254 694 450 1575 631 1116 229 2100 268 2925 17 822-250 1487-790 1970-1718 54-104 98-211 133-319 104-328 116-665 33-956-83-288-259-531-532-673-55-29-115-54-178-74zm-1544-41c648-122 1324-126 1617-33 67 22 129 64 187 94 289 151 421 406 508 711 86 301 74 651-34 991-35 111-81 222-136 329-491 943-1169 1492-2007 1747-835 254-1799 304-2925 73-891-183-1254-431-1651-688-535-315-1258-750-3196-1355l-9-3-6-7c-88-105-133-227-138-357-9-212 88-447 276-667 186-218 462-423 814-580 593-266 1404-395 2363-219 55 10 188 33 376 69 189 37 436 88 721 154 616 142 1228 343 1321 374 369-190 1164-491 1919-633z" style="fill:#806641;stroke-width:3.7743"/><path class="fil15" d="m18536 20873c-1093-822-2375-1498-3385-2388-1505-1327-1373-1647-1412-3681-20-1065-73-2489-92-2971-255-208-492-363-670-417-686-205-1973-737-2209 1856-173 1904-10 3432-1944 4350-318 151-733 305-1178 453-2505 830-2970 1543-2873 4619 20 648 117 1285 292 1866 315 1042 1998 3425 1999 3430 62 294 138 996 206 1711h5903c-7-641-2-1191 37-1251 72-112 1218-506 1700-969 1570-1508 4750-4852 3626-6608z" style="fill:#a98e68;stroke-width:3.7743"/><path class="fil16" d="m6198 19336s697 1375 3320 1675c2623 301 6069-951 6069-951s195 3069-2073 3971c-2268 901-5214 1309-6489 315s-1653-4175-1593-4351c61-176 767-659 766-659z" style="fill:#967c57;stroke-width:3.7743"/><path class="fil18" d="m18536 20873c-1093-822-2375-1498-3385-2388-570-502-905-860-1104-1221-305 595-745 1398-1377 2474-2076 3539-4616 4972-4560 2008 41-2202 922-3826 1371-4515-187 140-403 273-657 391-323 151-736 305-1178 453-2503 835-2970 1543-2873 4619 20 648 117 1285 292 1866 315 1042 1998 3425 1999 3430 62 294 138 996 206 1711h5903c-7-641-2-1191 37-1251 72-112 1218-506 1700-969 1570-1508 4750-4852 3626-6608z" style="fill-rule:nonzero;stroke-width:3.7743"/><path class="fil19" d="m14076 17314c-273-465-311-925-325-1695l-3258 69c-132 498-353 942-753 1324l301 843s1104-1544 1143-1559c38-15 346 0 346 0l236 1817s1645-346 2310-799z" style="fill:#c9b698;stroke-width:3.7743"/><path class="fil18" d="m10543 17231 245 243-630 474c-1218 1667-1578 3411-1708 5205 0 0 22 133 304 186 283 53 709-72 709-72 313-1766 737-3380 1718-4959l7-768 478-48-143-1273h-357z" style="fill-rule:nonzero;stroke-width:3.7743"/><path class="fil20" d="m14036 17305c-130-228-205-456-249-719-45-264-58-564-65-936l-3205 68c-66 243-174 467-294 683-120 219-252 429-448 619l275 770c186-259 1085-1572 1126-1588 45-18 359-3 360-3l25 2 3 25 228 1850c229-50 1624-366 2244-771zm-207-720c44 266 139 485 273 714l15 24-24 16c-670 457-2356 883-2361 884l-32 7-5-33-192-1872c-73-3-281-12-308-1-31 12-1154 1615-1157 1619l-34 48-19-55-274-914-6-19 14-13c198-189 351-393 472-611 120-219 208-452 273-699l6-22 23-1 3258-68 30-1 1 31c6 383 1 698 47 966z" style="fill-rule:nonzero;fill:#7d6c4d;stroke-width:3.7743"/><path class="fil21" d="m13763 16018c-15-330-14-722-24-1214-20-1065-73-2489-92-2971-255-208-492-363-670-417-686-205-1973-737-2209 1856-97 1065-88 2012-400 2801 763 151 2404 205 3395-55z" style="fill:#f2ca91;stroke-width:3.7743"/><path class="fil22" d="m13790 14563c-6-239-13-488-20-735-31-59-41-97-83-97-43 0-1922 692-3068 1114-39 384-25 515-126 850 166 239 244 361 859 290 615-72 1996-1023 2438-1422z" style="fill:#e0bb86;stroke-width:3.7743"/><path class="fil14" d="m13738 15999c-36-829-31-1676-57-2509-22-697-46-1343-58-1645-128-104-252-195-365-266-107-66-204-114-288-139-28-9-64-20-101-32-191-59-416-128-646-149-612-56-1269 236-1431 2015-21 238-38 474-54 703-54 772-103 1470-337 2077 422 65 783 112 1451 145 562-9 1443-86 1886-200zm49 18 1 19-19 5c-450 118-1032 172-1606 181-696 11-1381-42-1800-125l-29-6 11-27c79-199 107-423 151-641 92-450 157-925 194-1449 16-227 32-461 54-704 166-1819 848-2117 1484-2059 235 21 463 91 655 151 33 10 65 20 101 31 88 26 189 77 299 145 118 73 246 168 380 276l8 7v11c12 297 37 950 58 1657 8 249 55 459 59 710 10 594-27 1231-1 1818z" style="fill:#a6814c;stroke-width:3.7743"/><path class="fil20" d="m13738 15999v-1h48l2 38-19 5c-450 118-1032 172-1606 181-696 11-1381-42-1800-125l-29-6 11-27 2-6c14 4 26 1 64-2 418 64 778 111 1441 143 562-9 1443-86 1886-200z" style="fill-rule:nonzero;fill:#7d6c4d;stroke-width:3.7743"/><path class="fil21" d="m4877 13235-769-578c-481 424-1695 1461-2453 2018-1560 1148-2237 2155-2692 3180-521 1173-250 2166 834 1874 3177-992 3682-3975 5080-6494z" style="fill:#f2ca91;stroke-width:3.7743"/><path class="fil22" d="m5141 12887-227-171c-7 13 69-123-22 40-90 164-1606 1703-2958 2991-1352 1287-1180 2864-1122 2864 0 0 481 9 1066-94 1439-1378 2248-3800 3263-5630z" style="fill:#e0bb86;stroke-width:3.7743"/><path class="fil14" d="m4868 13252-728-547c-287 253-813 704-1349 1145-385 317-775 628-1087 858-778 572-1336 1109-1755 1631-420 521-701 1027-928 1537-170 383-255 746-253 1050 1 221 47 410 139 551 90 140 226 234 407 268 140 26 309 16 505-37 2414-754 3278-2667 4173-4649 264-609 544-1221 876-1807zm-711-611 769 578 21 16-13 23c-329 593-585 1325-862 1939-901 1994-1795 3807-4236 4569l-1 1c-205 55-383 65-532 37-199-37-348-140-447-294-98-151-148-351-149-583-1-313 85-684 259-1076 228-514 414-1034 837-1559 423-526 1082-1057 1865-1633 312-230 701-540 1084-855 548-451 1084-912 1366-1161l19-16z" style="fill:#a6814c;stroke-width:3.7743"/><path class="fil19" d="m-991 17730c-13 29-25 57-38 85-236 532-374 1061-264 1446 166 578 775 871 1515 671 1527-476 1871-1379 2618-2455-1175 668-2637 1058-3831 253z" style="fill:#c9b698;stroke-width:3.7743"/><path class="fil23" d="m-940 17793-5 9c-123 274-271 548-325 844-93 507 29 992 540 1218 258 115 585 136 943 39 1263-394 1711-1083 2255-1922 88-135 178-274 274-414-620 337-1312 592-2e3 637-593 39-1145-59-1682-411zm-24-109c28 19 16 39 45 57 512 331 1086 440 1657 403 676-83 1662-411 2283-913-157 264-317 571-479 821-551 849-988 1542-2272 1943l-1-3c-373 101-773 88-1044-32-572-254-692-772-588-1337 56-310 264-642 399-939z" style="fill:#7d6c4d;stroke-width:3.7743"/><path class="fil21" d="m19669 29701c-106-421-136-614-136-614s-272-2435-357-3375c-86-941-245-1576-245-1576s168-262 217-707c50-446 69-1475-20-1851-43-181-360-463-734-747-967-408-1644-218-2361 447-1432 1325-1054 2378-537 3553 447 1015 1465 4069 1682 4370 54 74 56 252 40 500z" style="fill:#f2ca91;stroke-width:3.7743"/><path class="fil14" d="m19593 29701c-84-412-95-607-95-608l-1-2c-1-7-272-2431-358-3376-85-937-242-1568-243-1570l-4-15 9-13c0-1 162-255 211-692 27-246 45-670 41-1062-3-316-21-611-60-777-20-83-106-193-233-317-130-127-300-266-484-406-475-200-885-259-1265-187s-730 277-1084 604c-707 655-960 1247-972 1819-12 574 218 1133 474 1717 206 467 532 1365 846 2228 368 1012 718 1977 833 2136 59 82 62 266 46 521h-73c16-241 15-413-32-479-102-168-299-1241-836-2246-313-862-612-1723-817-2189-261-591-453-1087-441-1676 13-591 261-1164 985-1834 363-337 665-538 1060-613 394-74 832-45 1322 162l3 1 4 2c188 143 349 259 482 388 136 133 230 254 253 352 40 171 59 472 62 793 4 396-14 823-42 1071-44 395-179 649-214 709 24 100 164 705 242 1566 85 937 357 3368 358 3375 3 18 34 214 136 618z" style="fill:#a6814c;stroke-width:3.7743"/><path class="fil15" d="m19686 29701c-112-396-134-577-118-576 33 0-256-2441-336-3402-79-961-299-1536-256-1549 655-795 456-2741-498-3303-967-408-1649-285-2367 379-1431 1325-1122 2137-716 3355 21 63 215 464 243 538 442 1175 1338 3710 1545 4029 58 89 57 276 41 529z" style="fill:#a98e68;stroke-width:3.7743"/><path class="fil16" d="m19039 29701c55-35 106-70 152-106 535-417 138-749 138-749s151 749-894 591c-1044-158-1259-2388-1259-3146 0-759 1331-1120-397-2239-1311-848-1185-1825-1147-2302-868 1046-589 1798-237 2855 21 63 215 464 243 538 442 1175 1338 3710 1545 4029 58 89 57 276 41 529z" style="fill:#967c57;stroke-width:3.7743"/><path class="fil17" d="m19659 29701c-97-393-125-574-125-575v-2c-1-7-272-2431-358-3376-85-937-243-1568-244-1570l-3-15 8-13c309-483 441-1177 335-1826-92-566-365-1098-859-1427-475-200-886-260-1265-188-380 72-731 277-1084 604-708 655-960 1247-973 1819-12 574 218 1133 475 1717 205 467 532 1365 845 2228 368 1013 719 1977 833 2136 57 79 62 250 48 488h-115c29-218 49-390 8-446-120-166-473-1136-842-2153-313-861-639-1757-844-2224-260-591-493-1158-480-1747 12-591 271-1201 995-1871 364-337 726-548 1120-622 395-75 919 5 1409 212l6 4c515 341 760 840 855 1426 108 660 12 1436-397 1895 24 102 163 706 241 1567 85 936 357 3367 358 3374 3 18 33 203 128 585z" style="fill:#806641;stroke-width:3.7743"/><path class="fil21" d="m4399 14308 749-1406c29 14 543 295 867 47 249-191 449-285 829-321 215-20 482-69 853 64 292-193 46-757-376-863-90-23-893 203-1024 96-113-92 27-260 38-710 50-327 282-715 328-854 125-385 12-503-137-616s-647 253-647 253-54-275-223-322c-170-48-484 93-484 93s7-132-74-209c-81-78-214-75-214-75s63-266-73-396c-136-131-231-122-493-27s-468 209-559 401c-90 192-194 460-116 591 77 131 236 271 236 271-510 641-664 1509 157 2026l-398 536-507 812s1267 612 1268 609z" style="fill:#f2ca91;stroke-width:3.7743"/><path class="fil24" d="m5024 13135 124-233c29 14 543 295 867 47 249-191 449-285 829-321 215-20 482-69 853 64 30-20 54-43 73-70-61-153-189-323-458-353-512-57-957 162-1453 495-495 332-1098-89-1098-89 0-12 83 247 263 460z" style="fill:#e0bb86;stroke-width:3.7743"/><path class="fil24" d="m3718 10517c-6 10 11 19 5 29 80 50 361 239 361 415 0 206-158 542 59 723 217 182 180-12 813 0 633 13 703 2 938 182 236 180 309-473 309-473l-1e3 -333-193 168-284-48-198-149-32-126 3 35-192-10-164-143-38-94z" style="fill:#e0bb86;stroke-width:3.7743"/><path class="fil14" d="m4343 14285 778-1397 14-27 27 14 4 2c56 29 532 276 831 48 199-153 363-261 611-284 242-22 584-163 1092 18 49-35 78-83 92-136 12-50 11-107-3-165-15-59-42-120-80-177-86-131-227-244-395-286-274-69-952 152-1039 80-77-63-59-154-27-308 22-111 52-258 57-453v-3c35-231 158-489 246-672 38-81 69-147 83-187 60-186 64-306 34-391-28-84-90-139-160-192-131-99-610 253-612 254l-38 28-9-47c0-1-50-257-201-299-159-45-462 91-463 91l-44 20 1-48s6-119-65-187-193-66-193-66h-38l8-37c1-1 60-249-64-368-62-59-114-87-179-89-69-2-155 23-283 69-128 47-243 98-337 161-91 61-161 134-204 225-45 94-92 207-119 313-26 101-33 193 1 250 74 127 229 262 230 263l22 19-18 23c-53 66-102 134-146 204-175 279-279 585-267 878 12 291 139 570 423 796 43 35 90 68 141 100l25 16-16 26-913 1170c119 76 732 483 1016 655-357-190-1070-618-1073-619l-97 24 1e3 -1237c-43-28-83-57-121-87-299-239-433-533-445-841-13-306 94-625 276-913 41-65 85-127 132-188-47-43-160-153-222-258-43-74-37-182-7-296 28-110 77-227 123-324 48-102 126-182 226-249 97-66 216-119 350-168 134-48 226-75 305-73 82 3 145 36 219 107 117 112 101 309 88 389 49 5 137 22 199 82 59 56 77 136 82 186 93-37 322-117 463-78 142 40 209 218 233 302 121-83 507-334 648-227 78 59 147 121 181 220 33 98 30 230-35 429-14 45-46 113-85 195-86 180-206 432-241 654-5 198-35 347-58 460-27 132-42 209 7 249 65 53 742-161 1014-92 184 46 338 169 432 311 41 64 71 131 88 197 16 67 18 134 3 194-18 72-60 135-129 180l-13 9-14-5c-508-183-846-42-1082-20-232 21-389 125-580 271-302 231-756 27-872-31l-769 1380-23-23 8 1c-6-2-14-5-23-10l15 9-29-6c-2 7-55-32-174-104 87 46 130 74 176 96zm11 5-12-5-2 8z" style="fill:#a6814c;stroke-width:3.7743"/><path class="fil14" d="m4197 9701c0 1 34 96 54 225 8-11 16-21 23-31-14-87-40-159-77-194z" style="fill:#a6814c;stroke-width:3.7743"/><path class="fil18" d="m4105 10234s-51 74-133 76-99-12-99-12l-20 24s26 21 120 18c93-2 158-58 158-58z" style="fill-rule:nonzero;stroke-width:3.7743"/><path class="fil14" d="m5894 11866c0-1-82-183-681-207-32-1-576-36-727 104 1-1 142-97 726-74 115 5 491 51 682 177z" style="fill:#a6814c;stroke-width:3.7743"/><path class="fil14" d="m4227 11205c445-86 1180 187 1182 188-183-131-812-303-1182-188z" style="fill:#a6814c;stroke-width:3.7743"/><path class="fil14" d="m5186 12886c-25-11-87-40-120-56-97-46-223-111-341-173 1 0 157 145 428 269z" style="fill:#a6814c;stroke-width:3.7743"/><path class="fil25" d="m5612 10429c-42 77 35 200 172 275 137 74 282 71 324-6 33-62-17-319-118-374-101-54-344 43-378 105z" style="fill:#fad29b;stroke-width:3.7743"/><path class="fil14" d="m5623 10435c-19 34-10 80 18 126 30 48 82 95 148 131l1 1c66 36 134 54 191 53 54-1 97-19 116-54 16-28 11-104-9-180-21-77-57-151-104-177zm-2 139c-34-54-43-108-19-151 18-34 90-76 170-102 79-25 167-36 221-9h2l3 3c52 30 92 110 113 190 22 82 26 165 7 199-23 43-74 65-137 66-59 1-131-17-200-54l-3-2c-70-38-125-89-157-140zm363-239c-47-26-129-15-204 9-75 25-141 62-157 91z" style="fill:#a6814c;stroke-width:3.7743"/><path class="fil25" d="m4534 10867c-27 84 71 190 220 237 148 48 290 18 317-66 21-67-77-310-186-345-110-35-330 106-351 174z" style="fill:#fad29b;stroke-width:3.7743"/><path class="fil14" d="m4545 10871c-12 37 5 80 42 120 38 42 98 79 170 102 73 23 143 27 198 15 53-11 92-36 104-74 11-34-13-121-55-198-33-62-77-117-123-131-51-17-130 9-199 47s-127 88-137 119zm24 137c-43-46-62-98-47-145 12-36 75-91 148-132 73-40 158-67 216-50l2 1c53 16 102 76 138 142 43 81 68 174 57 215v1l-1 2c-15 46-60 77-122 90-59 13-134 8-210-16s-140-64-181-108z" style="fill:#a6814c;stroke-width:3.7743"/><path class="fil25" d="m4201 10852 6 2c122 39 238 14 259-54 18-56-62-254-152-282-55-18-144 19-209 63 2 20 4 42 6 66 7 91 47 158 90 205z" style="fill:#fad29b;stroke-width:3.7743"/><path class="fil14" d="m4208 10841 3 1c59 19 116 22 161 13 42-9 73-29 83-59 8-25-8-85-35-142-28-58-68-112-109-125-23-7-53-4-85 6-36 11-75 31-108 52l2 24 3 35c3 40 13 75 26 106 16 36 37 65 59 89zm-4 24-7-2-3-1-2-2c-24-26-48-59-65-98-15-33-25-71-29-114l-2-35-3-31v-7l5-4c36-24 80-47 121-59 36-11 71-15 99-6 48 15 93 75 123 137 31 63 47 130 37 160v1c-13 38-51 64-101 75-49 10-110 6-173-13z" style="fill:#a6814c;stroke-width:3.7743"/><path class="fil21" d="m14204 10749s486 1651 518 2460c33 809-2475 1602-2475 1602s-275 388-923 534c-647 145-2171-47-2216-534-16-165-5-264 0-292 4-28-486-582-486-1165 0-582 594-1894 594-1894-112-899 273-1558 428-1774 0 0-80-397-51-522 29-124 117-1155 375-1641 259-487 1025-600 1025-600s227-580 982-776c756-197 1699 1446 1699 1446s1212 335 1039 384c-26 7-491 404-606 1020-165 886 26 2055 97 1752z" style="fill:#f2ca91;stroke-width:3.7743"/><path class="fil26" d="m14344 11254c146 553 357 1431 378 1955 33 809-2475 1602-2475 1602s-275 388-923 534c-647 145-2171-47-2216-534-16-165-5-264 0-292 4-28-486-582-486-1165 0-582 594-1894 594-1894-23-180-25-349-13-508 4 132 195 327 356 468s237-274 721-140c25 7 15 76 88 123 105 67 320 113 510 117 214 5 516-10 711-149 117-83 238-16 302 18 318 169 616 305 793-109 0 5 55 430 668 269 613-162 468-508 577-686 109-177-113 334 196 365 310 32 151 21 219 26zm-4959-1087c3-8 6-15 9-22 19-8 25-11 16-9-7 6-16 17-25 31z" style="fill:#dbbf99;stroke-width:3.7743"/><path class="fil13" d="m10368 11041c-17 34-113 239 228 273s688 53 873-16c184-70 297-268 297-268s-121 394-305 450c-184 57-826 50-968 0s-226-161-226-218c0-58 101-232 101-221z" style="fill:#d6af78;stroke-width:3.7743"/><path class="fil13" d="m11238 9504s169 25 126 296 158 456 403 534c246 77 488 65 488 65s-518-230-528-316c-9-87-9-204-9-204s-28-293 179-390 236-76 236-76-260 20-254-12c6-33 157-143 460-122 304 21 410-212 410-212l-1341 375z" style="fill:#d6af78;stroke-width:3.7743"/><path class="fil13" d="m10714 10520s-34-226 0-397c34-172 97-373 85-381-11-8 77-141 0-159-76-18-203-73-203-73s95 22 83-21-146-71-146-71-241-183-253-311c-13-128 459-166 429-166s299-35 299-35-312 294-156 394c156 101 295-101 295-73s-56 134 40 134c97 0 153-420 125-420s-28 377 52 451c81 74 236-3 228 9s196-67 196-67-307 170-343 176c-37 7-207 9-298-6-90-15-210 12-234 115-24 102 0 215-61 388s-143 513-138 513z" style="fill:#d6af78;stroke-width:3.7743"/><path class="fil14" d="m14228 10742c1 5 522 1667 554 2479 32 802-2369 1562-2520 1610-523 685-1625 738-2394 561-404-93-760-282-809-500-18-80 12-296 24-376 1-4-16-19-42-55-122-174-517-611-517-1088 0-565 623-1820 667-1917-43-350-11-664 54-930 99-412 276-708 374-846-13-63-77-403-50-521 6-25 15-87 26-175 46-347 144-1082 352-1473 244-459 925-592 1029-610 38-87 291-595 993-778 742-193 1647 1323 1721 1449 117 33 1274 359 1029 428-15 5-209 170-377 453-91 152-172 337-211 548-104 559-66 1232-6 1572 13 75 28 132 41 169 7 18-2 38 3 34 3-2 7-12 12-32l21-90zm470 2468c-29-716-413-2094-500-2395-29 23-56 1-77-56-15-40-30-101-44-178-61-343-99-1023 6-1589 41-217 124-408 217-564 175-294 388-469 406-475 89-25-1036-336-1039-337l-9-2-5-9c-3-4-934-1627-1672-1435-743 194-965 760-966 762l-5 13-14 2c-2 0-753 112-1006 587-204 383-301 1112-347 1456-12 90-20 154-26 180-28 120 51 510 51 511l2 10-6 9c-94 130-272 425-372 838-64 262-95 573-52 919l1 6-3 7c-2 3-592 1307-592 1884 0 462 315 908 435 1079 33 47 43 77 41 92-3 16 2 57 2 126 0 43 2 96 8 157 1 10 2 19 4 28 44 197 356 342 743 431 392 90 861 121 1211 88 84-7 161-19 229-34 638-144 907-523 908-525l4-6 8-2c7-3 2491-788 2459-1578z" style="fill:#a6814c;stroke-width:3.7743"/><path class="fil27" d="m14204 10749s6 19 16 53l-14-25c-162-1985 680-3063 680-3076 0-217-1212-167-1212-167s-224-1642-1287-1749c-1064-106-2800 670-2800 670s-147 727 235 1023c-259 486-212 1612-229 1686-17 75-7 57-6 95 2-12 3-24 5-36 134-1066 456-1185 456-1185v-376s134-185 616-80 670 322 670 322 196-268 1036-402 1135 321 1135 321-142 241-142 322c0 80 418 277 418 277s-418 696-214 1161c145 330 463 890 634 1187z" style="fill:#403321;stroke-width:3.7743"/><path class="fil27" d="m14234 10742s5 18 15 51l68 237-98-169-44-75c-85-149-208-363-327-582-120-220-236-443-309-609-185-422 124-1023 200-1160-98-48-406-206-406-290 0-75 103-262 135-320-58-76-363-410-1093-293-828 132-1016 389-1017 390l-22 30-25-28c0-1-181-209-653-312-406-89-550 30-580 62v384l-19 8c-1 0-305 113-437 1161-1 9-2 15-2 19l-3 17 32 370-92-374c-1-9-2-14-2-18-3-17-5-26 8-83 3-13 4-70 5-155 6-340 17-1116 216-1517-372-316-228-1035-227-1037l3-16 14-6c5-2 1744-779 2816-672 1007 101 1275 1533 1310 1748 181-6 1216-29 1216 198 0 10-6 19-17 36-100 147-803 1188-666 3002zm-68-94c-108-1776 583-2798 683-2945 4-7 6 7 6-2 0-185-1177-136-1180-136l-28 1-4-28c0-4-220-1619-1259-1723-1001-100-2602 587-2770 661-19 104-109 718 226 978l21 15-12 23c-170 319-227 1060-237 1449 131-585 345-884 405-922v-367l7-8c0-1 145-201 646-92 396 86 598 248 663 308 73-72 336-277 1032-388 859-137 1164 333 1165 334l10 16-9 16c-1 1-138 235-138 307 0 61 400 249 401 249l31 15-17 28c-2 2-411 684-213 1134 72 164 187 386 306 604 92 169 187 337 265 473z" style="fill:#403321;stroke-width:3.7743"/><path class="fil14" d="m12199 14824c1-1 236-289 379-942 143-650 20-777 20-778 180 217 21 785 20 786-144 660-373 949-373 950z" style="fill:#a6814c;stroke-width:3.7743"/><path class="fil14" d="m9059 14714c-15-147 63-796 210-1055-174 579-132 940-147 962z" style="fill:#a6814c;stroke-width:3.7743"/><path class="fil28" d="m9205 11348s85 594 104 698" style="fill:none;stroke-width:3.7743"/><path class="fil21" d="m13849 10156s258-1074 800-1238 504 1404 389 1852-778 569-953 503c-150-56-236-962-236-1117z" style="fill:#f2ca91;stroke-width:3.7743"/><path class="fil14" d="m13826 10150c1-3 260-1087 816-1255 37-12 72-15 104-13 119 11 205 109 265 257 58 142 92 333 109 535 34 416-3 887-59 1102-5 19-10 38-17 56-76 203-263 333-456 407-191 73-390 89-490 63-8-2-15-4-22-6-65-25-117-172-155-355-62-295-96-687-96-785v-3zm830-1209c-513 155-767 1155-782 1217 0 101 33 485 94 773 36 168 78 302 125 319 5 2 11 4 17 5 92 24 278 8 461-62 181-69 357-191 427-378 7-17 12-34 16-51 55-211 92-675 57-1086-16-198-49-383-105-521-53-131-126-218-224-226-27-2-55 1-86 10z" style="fill:#a6814c;stroke-width:3.7743"/><path class="fil29" d="m12881 9551s-99-138-668-138-491 474-491 474 189 205 577 182c302-18 582-198 582-518z" style="fill:#fefefe;stroke-width:3.7743"/><path class="fil30" d="m12881 9551s-99-138-668-138c-355 0-458 184-486 323 41-34 111-75 229-109 240-67 715-10 830 52 24 14 47 24 69 33 17-49 26-103 26-161z" style="fill:#e6e7e8;stroke-width:3.7743"/><path class="fil14" d="m12869 9556c-18-20-142-131-656-131-526 0-485 412-480 456 24 24 209 197 566 176 157-10 308-64 415-159 94-83 153-198 155-342zm-656-155c575 0 677 142 678 143l2 3v4c0 154-63 277-163 365-111 99-267 155-430 165-394 24-586-185-587-186l-3-3v-4c0-1-80-487 503-487z" style="fill:#a6814c;stroke-width:3.7743"/><path class="fil31" d="m11778 9578c8-1 105-68 377-93 271-24 738 93 738 93 75-102-389-195-712-177-282 15-358 121-403 177z" style="fill:#453621;stroke-width:3.7743"/><path class="fil32" d="m12250 9523c-122 9-217 119-213 246s107 224 229 215 217-119 213-246c-4-128-106-224-229-215z" style="fill:#7a6343;stroke-width:3.7743"/><path class="fil33" d="m12251 9535c-57 4-109 32-145 75-37 42-59 98-57 159 0 2 0 5 1 9 4 56 28 106 66 141 37 35 87 55 141 53h8c57-4 109-33 146-75 36-42 58-99 56-159v-9c-5-57-29-106-67-141-37-35-86-55-141-53zm-164 59c41-47 98-78 163-83 2 0 5 0 8-1 61-2 117 21 159 60s69 94 74 157v10c2 67-22 129-62 176-41 47-98 78-163 83h-8c-61 2-117-20-159-59s-69-95-74-158v-9c-2-67 22-130 62-176z" style="fill:#5c492f;stroke-width:3.7743"/><path class="fil28" d="m12943 9446s-181-109-577-141-714 117-712 117" style="fill:none;stroke-width:3.7743"/><path class="fil14" d="m12937 9457c-311-181-870-175-1209-52-22 8-39 15-51 20-2 1-16-14-13-10l-10 7v12h-5l-4-4c-3-3-1-12 9-20 4-2 8-5 13-7 12-5 30-12 53-21 211-114 887-185 1217 75z" style="fill:#a6814c;stroke-width:3.7743"/><path class="fil27" d="m13039 8926c-451 424-628 113-1077 402-827 531-596-32-157-284 365-210 1234-118 1234-118z" style="fill:#403321;stroke-width:3.7743"/><path class="fil27" d="m10758 9067c40-14 352-144 224-224-490-171-751-272-1091-137-614 244 872 367 867 361z" style="fill:#403321;stroke-width:3.7743"/><path class="fil29" d="m10830 9608s-296-112-586-70c-291 43-249 198-249 198s-15 234 277 316c321 90 517-166 558-444z" style="fill:#fefefe;stroke-width:3.7743"/><path class="fil30" d="m10830 9608s-296-112-586-70c-291 43-249 198-249 198v15c11-39 59-105 264-122 227-20 445 83 532 131 18-49 32-100 39-152z" style="fill:#e6e7e8;stroke-width:3.7743"/><path class="fil14" d="m10817 9616c-52-18-314-103-571-66-384 56-260 409 29 491 21 5 41 10 61 13 121 18 221-17 299-84s134-166 164-274c7-26 13-53 18-80zm-575-90c294-42 592 70 593 70l9 4-2 9c-4 32-11 63-19 93-32 113-90 216-172 287-83 71-190 108-319 89-20-3-42-8-63-14-302-85-454-476-27-538z" style="fill:#a6814c;stroke-width:3.7743"/><path class="fil31" d="m10528 9551c-87-15-236-9-317 6-119 23-224 129-224 129 77-350 797-193 866-79 26 42-251-44-325-56z" style="fill:#453621;stroke-width:3.7743"/><path class="fil28" d="m10751 9456c-387-91-724 10-722 10" style="fill:none;stroke-width:3.7743"/><path class="fil14" d="m10748 9468c-275-65-525-32-643-8-45 9-156 33-164 29-10-5 107-57 176-71 85-17 440-45 631 50z" style="fill:#a6814c;stroke-width:3.7743"/><path class="fil29" d="m12698 11280c-74 0-77 477-912 622-1063 183-1580-32-2199-446 71 75 186 171 227 203 33 191-47 479 302 606-70 316-371 470-293 644 237 527 2329 854 2721-432 83-273 224-828 154-1197z" style="fill:#fefefe;stroke-width:3.7743"/><path class="fil14" d="m12685 11313c-6 10-14 26-24 45-71 140-226 450-872 562-534 92-931 84-1273 1-277-68-517-184-763-336 30 26 57 47 72 59l6 5 1 7c7 41 9 87 11 134 7 168 16 362 279 458l15 6-3 15c-34 153-120 268-193 365-76 103-138 186-101 267 64 143 272 272 546 355 215 66 471 103 731 99 259-5 522-52 753-156 301-135 547-367 657-728 49-161 118-421 152-683 21-166 28-333 6-475zm-56 28c24-49 40-79 69-79h15l2 14c29 152 23 335 0 517-34 264-104 526-154 689-113 372-359 648-669 787-235 106-516 142-780 146-263 5-526-46-744-112-285-87-493-234-562-387-45-101 22-191 106-304 68-91 148-198 183-335-272-107-281-309-288-486-2-43-4-84-10-122-26-21-73-60-121-102-35-32-72-66-103-98l-114-120 138 92c308 206 590 362 927 444s730 90 1259-1c627-109 778-407 846-543z" style="fill:#a6814c;stroke-width:3.7743"/><path class="fil34" d="m12684 11891c-366 318-783 477-1223 525-440 47-902-17-1358-147l7-24c453 129 912 194 1348 147s848-205 1210-520z" style="fill-rule:nonzero;fill:#d2d3d5;stroke-width:3.7743"/><path class="fil28" d="m10268 11250c14 141 196 222 417 260m717-16c10-3 19-6 28-10 61-23 112-56 155-96m152-277c4-16 7-33 8-49" style="fill:none;stroke-width:3.7743"/><path class="fil14" d="m11076 9504c-60-1-155 27-159 195-4 151-51 453-163 733-83 210-178 420-311 556-93 93-130 154-136 219-5 62 25 113 78 154 56 43 127 69 220 93 282 70 640 40 797-19 164-62 262-170 297-306 12-46 17-91 17-132-1-41-7-78-18-108-14-37-20-63-48-70-83-21-173 95-234 198-165 277-111 103-10-50 67-103 160-206 253-183 40 10 70 44 88 92 13 34 20 75 20 120 1 45-5 93-17 142-38 146-137 297-314 363-162 61-563 78-852 6-97-24-183-58-243-105-62-48-98-110-92-186 6-73 52-159 151-260 130-131 238-332 321-538 109-275 172-560 176-708 5-199 109-226 184-224 80 2 108 21-5 18z" style="fill:#a6814c;stroke-width:3.7743"/><path class="fil35" d="m10294 12034 672 231c240 83 369 347 286 587-83 241-347 369-587 287l-672-232c-538-185-237-1059 301-873z" style="fill:#fae9ce;stroke-width:3.7743"/><path class="fil36" d="m10300 12017 669 230 3 1c124 43 220 133 274 244 54 110 66 240 24 363l-1 3c-43 125-133 221-244 275-109 53-239 66-363 24l-3-1-672-232c-202-69-291-232-295-403-2-66 9-132 30-196 22-63 55-122 97-173 109-132 279-205 481-135zm660 266-672-232c-186-64-341 4-441 124-39 48-70 103-90 162-20 60-31 122-29 183 4 157 85 306 271 370l669 230 3 1c115 40 236 29 338-21 102-49 185-138 225-252l1-1c39-116 28-237-22-339-49-102-138-185-253-225z" style="fill:#dbc5a2;stroke-width:3.7743"/><path class="fil37" d="m5439 10633 3957 1452c135-126 334-176 520-112l749 258c268 92 411 387 319 654-92 268-387 412-654 319l-749-258c-187-64-313-226-341-409l-4044-1483c78-112 182-304 243-421zm-1334 43-332-144c-120-52-191-180-148-304 12-34 12-67 36-92 15 22 47 50 91 98s137 100 231 62c12 21 153-94 148-62-22 131-31 389-26 442z" style="fill:#d26f0c;stroke-width:3.7743"/><path class="fil38" d="m5447 10611 309 147 398 112 3236 1187c70-62 155-105 246-124 93-20 192-16 288 17l749 258c140 48 248 150 308 274 61 124 74 271 26 411s-150 248-274 309c-124 60-271 74-411 25l-749-258c-96-33-177-91-237-164-60-71-101-158-118-250l-4030-1478-19-4 18-26c32-46 58-114 94-176 51-88 101-181 136-249l10-19zm3940 1497-3942-1472c-35 66-104 157-150 237-31 53-59 119-88 162l4041 1480 14 5 2 14c14 88 52 172 109 241 55 66 128 118 215 148l749 258c128 44 262 32 375-23s205-153 249-280c44-128 32-262-23-375-56-113-154-205-281-249l-749-258c-87-30-177-34-262-16-87 19-168 62-234 123l-11 10zm-5622-1553c-68-25-121-75-150-135-30-61-36-132-13-200 7-18 15-36 25-53 5-7 25-29 30-36 8 10 29 33 30 36-6 10-35 57-39 69-19 55-14 113 10 162 25 50 68 91 124 111l323 124c-7-79-1-152 0-232 3-2 0-22 0-22l26-92c28 10-26 29-26 54-13 66-12 230 26 373z" style="fill:#b55e07;stroke-width:3.7743"/><path class="fil18" d="m11325 7879c0-1 40-162-393-353-191-84-372-104-533-122-226-26-415-47-552-226-230-300-290-713-290-715l60-8c0 1 57 399 278 687 121 158 299 178 511 201 166 19 351 40 550 127 479 211 428 421 428 422z" style="fill-rule:nonzero;stroke-width:3.7743"/><path class="fil18" d="m11352 7831c1 0 301-167-200-494-224-146-434-215-608-272-224-73-388-127-444-300-98-306 0-528 1-529l11 5c-1 1-97 219 0 520 54 168 216 220 436 293 175 57 386 126 610 272 518 339 201 515 200 516z" style="fill-rule:nonzero;stroke-width:3.7743"/><path class="fil18" d="m10527 7564c-8 0-61-10-90-5-158 25-523 104-725-181l27-29c192 273 540 211 694 186 31-6 85 4 96 5z" style="fill-rule:nonzero;stroke-width:3.7743"/><path class="fil18" d="m11563 7705s268-25 31-418c-100-165-231-318-351-457-198-229-365-424-323-596 64-269 146-320 146-320l33 51s-62 38-120 283c-35 142 123 326 310 542 121 141 254 296 357 466 287 475-76 510-77 510z" style="fill-rule:nonzero;stroke-width:3.7743"/><path class="fil18" d="m12285 7503c-1-1-359-235-258-872s652-793 653-794l17 58c-1 1-515 147-610 745-95 599 265 862 266 863z" style="fill-rule:nonzero;stroke-width:3.7743"/><path class="fil18" d="m11878 7579s159 82 26-405c-58-210-133-356-195-476-86-167-148-286-104-461 74-300 236-466 237-466l8 8c0 1-160 164-233 461-43 171 18 288 103 452 62 121 137 267 195 479 141 513-42 419-42 419z" style="fill-rule:nonzero;stroke-width:3.7743"/><path class="fil18" d="m12585 7488c-407-225 268-860 769-957l5 24c-474 90-1145 698-762 912z" style="fill-rule:nonzero;stroke-width:3.7743"/><path class="fil18" d="m12801 7484c-51-233 584-590 848-239l-48 36c-229-304-776 28-740 190z" style="fill-rule:nonzero;stroke-width:3.7743"/><path class="fil18" d="m13217 7585c92-167 485-135 479-50l-24-2c0-52-351-84-434 64z" style="fill-rule:nonzero;stroke-width:3.7743"/><path class="fil18" d="m13390 7720c1-1 208-243 584-192l-2 12c-369-50-572 187-573 188z" style="fill-rule:nonzero;stroke-width:3.7743"/><path class="fil18" d="m13483 7819c0-1 162-224 755-224 594 0 671 110 672 110l-48 37s-60-86-624-86-758 248-759 249z" style="fill-rule:nonzero;stroke-width:3.7743"/><path class="fil18" d="m13376 8181c0-452 1209-392 1428-351l-3 12c-211-40-1413-100-1413 339z" style="fill-rule:nonzero;stroke-width:3.7743"/><path class="fil18" d="m13490 8274c157-296 1052-266 1154-151l-46 40c-65-78-920-123-1054 139z" style="fill-rule:nonzero;stroke-width:3.7743"/><path class="fil18" d="m13791 8421c159-90 638-239 742-40l-10 5c-100-190-573-41-726 45z" style="fill-rule:nonzero;stroke-width:3.7743"/><path class="fil18" d="m10031 8037c-60-25-143-99-200-201-43-77-72-171-65-272l24 1c-6 97 21 186 62 259 55 98 133 167 188 190z" style="fill-rule:nonzero;stroke-width:3.7743"/><path class="fil18" d="m10053 7860c-62-20-149-79-209-161-46-63-76-140-69-224l60 5c-5 68 20 131 58 184 52 71 126 122 179 138z" style="fill-rule:nonzero;stroke-width:3.7743"/><path class="fil32" d="m10482 9563c-115-9-219 81-233 200s68 222 183 231 219-80 233-199-68-223-183-232z" style="fill:#7a6343;stroke-width:3.7743"/><path class="fil33" d="m10481 9575c-54-4-105 15-145 49s-68 84-75 140c0 3 0 5-1 8-4 54 12 103 42 140 30 38 73 64 123 69 3 1 5 1 8 1 54 4 106-15 146-49 39-34 67-83 74-139 0-3 1-6 1-9 4-53-12-102-42-140-29-37-73-63-123-69-3 0-5 0-8-1zm-161 31c45-38 102-60 163-55 3 0 6 1 9 1 57 7 106 36 139 78 34 42 52 98 47 157 0 3 0 6-1 9-7 63-38 118-83 156-44 38-102 59-163 54h-8c-58-7-107-36-140-79-33-42-51-97-47-157 0-2 1-6 1-9 7-62 39-117 83-155z" style="fill:#5c492f;stroke-width:3.7743"/><path class="fil13" d="m14242 11111c6-56 356-114 237-350-119-235-322-147-322-383s505-1480 729-1204c223 276 354 1318 108 1628-247 309-752 309-752 309z" style="fill:#d6af78;stroke-width:3.7743"/><path class="fil14" d="m14224 11109c3-26 38-45 84-69 91-48 230-121 155-270-52-104-122-142-182-175-78-44-142-79-142-217 0-137 165-603 349-927 58-102 118-191 176-250 61-64 121-96 175-81 22 6 42 20 61 42 121 150 215 518 239 877 21 316-13 625-131 774-252 316-764 316-766 316h-20zm101-37c-13 7-25 13-35 19 131-9 494-55 690-301 112-141 143-441 123-749-24-352-115-712-231-856-14-16-28-26-43-30-39-11-87 17-139 71-55 57-114 143-170 243-181 319-344 776-344 909 0 117 55 147 123 185 64 35 139 77 196 190 92 182-66 265-170 319z" style="fill:#a6814c;stroke-width:3.7743"/><path class="fil39" d="m14453 10966c48-48 72-113 26-205-119-235-322-147-322-383 0-120 130-499 287-807 103 40 228 120 303 249 134 229 203 1091-294 1146z" style="fill:#bd955e;stroke-width:3.7743"/><path class="fil14" d="m14444 10958c23-23 39-49 45-80s1-68-21-111c-53-105-123-144-184-178-76-42-139-77-139-211 0-63 35-194 90-349 52-146 122-313 199-464l5-9 10 4c57 22 122 57 181 106 48 39 93 89 128 148 40 69 74 192 90 333 15 143 12 304-23 447-35 144-104 268-218 335-44 26-95 43-153 49l-34 4zm69-76c-5 25-15 47-30 67 42-8 79-22 111-41 109-63 174-182 208-320 34-140 37-298 22-438-16-138-49-258-87-324-33-56-76-103-123-142-53-44-111-76-164-98-74 147-142 309-192 451-54 152-88 281-88 341 0 120 56 151 126 190 64 35 138 76 194 188 24 48 30 90 23 126z" style="fill:#a6814c;stroke-width:3.7743"/><path class="fil31" d="m10472 9653c-67-5-128 47-136 116-8 70 39 130 106 135 67 6 128-46 136-116 9-69-39-130-106-135z" style="fill:#453621;stroke-width:3.7743"/><path class="fil29" d="m10334 9583c-48 2-86 41-85 87s40 82 88 80 87-40 86-87c-1-46-41-82-89-80z" style="fill:#fefefe;stroke-width:3.7743"/><path class="fil31" d="m12270 9628c-67-5-128 47-136 116s39 130 106 135 128-47 136-116c8-70-39-130-106-135z" style="fill:#453621;stroke-width:3.7743"/><path class="fil29" d="m12089 9562c-49 9-83 56-75 104s56 79 105 70c50-10 84-56 76-105-8-48-56-79-106-69z" style="fill:#fefefe;stroke-width:3.7743"/><path class="fil28" d="m13117 9720c-124 13-306 159-380 378" style="fill:none;stroke-width:3.7743"/><path class="fil14" d="m13220 9770c-186-41-407 86-471 229-12-134 281-316 471-229z" style="fill:#a6814c;stroke-width:3.7743"/><path class="fil14" d="m9898 13373c0 1 55 193 644 302 32 6 566 118 735 1-1 0-154 76-729-31-113-21-478-120-650-272z" style="fill:#a6814c;stroke-width:3.7743"/><path class="fil21" d="m13899 10123c125 0 226 292 226 653 0 362 20 538-122 354-143-185-329 8-329-354 0-361 101-653 225-653z" style="fill:#f2ca91;stroke-width:3.7743"/><path class="fil14" d="m13767 10079c-77-185-230-184-305-243 823 151 416 1858-132 2478 185-294 152-265 289-584 194-449 374-1109 148-1651z" style="fill:#a6814c;stroke-width:3.7743"/><path class="fil14" d="m10029 9951c-79-122-268-173-380-129 88-92 349-35 380 129z" style="fill:#a6814c;stroke-width:3.7743"/><path class="fil14" d="m12872 11480c-66-178-293-294-448-270 106-83 418 64 448 270z" style="fill:#a6814c;stroke-width:3.7743"/><path class="fil14" d="m11445 8667c-143 184-169 553-91 751-115-100-91-601 91-751z" style="fill:#a6814c;stroke-width:3.7743"/><path class="fil14" d="m11187 8880c-71 92-84 276-45 375-58-50-45-300 45-375z" style="fill:#a6814c;stroke-width:3.7743"/><path class="fil27" d="m12716 9153c122-34 268-89 331-208 0 0 38 39 38 55 0 15-37 104-166 139-129 34-203 14-203 14z" style="fill:#403321;stroke-width:3.7743"/><path class="fil27" d="m12786 9196c122-34 313-48 315-187 0 0 50 54 49 78-2 25-17 62-146 97-129 34-218 12-218 12z" style="fill:#403321;stroke-width:3.7743"/><path class="fil27" d="m12968 9213c71-31 185-46 189-112 0 0 30 32 29 47-1 14-10 37-87 58-78 20-131 7-131 7z" style="fill:#403321;stroke-width:3.7743"/><path class="fil21" d="m2775 13869s484-450 539-543c56-94 341-439 341-439l973 875-312 560-257 296s-1284-753-1284-749z" style="fill:#f2ca91;stroke-width:3.7743"/><path class="fil22" d="m4823 12734 288 173c-71 142-652 1145-720 1289l-83 148-249 274s-364-123-659-296c338-320 1220-1377 1423-1588z" style="fill:#e0bb86;stroke-width:3.7743"/><path class="fil14" d="m6540 10145c0 2-48 468-319 635-128 78-405-11-588-92-163-72-150-105-65-272 115-224 258-345 486-497l-59-35c-289 169-440 389-546 709l-4 10 9 7c-63 54 456 431 788 217 172-106 333-382 298-682z" style="fill:#a6814c;stroke-width:3.7743"/><path class="fil25" d="m3840 10279c42 33 136 29 211-9s102-95 60-128c-33-27-208-62-263-34s-41 144-8 171z" style="fill:#fad29b;stroke-width:3.7743"/><path class="fil14" d="m3848 10269c18 15 49 21 85 20s76-11 112-30c26-13 46-28 58-44 8-9 13-19 15-28 1-8 1-15-3-22-2-5-6-10-11-14-17-13-76-29-135-37-47-6-93-6-115 5-6 3-11 7-14 11v1c-12 14-17 37-17 59 0 24 6 48 14 64 3 7 7 12 11 15zm86 44c-41 2-78-6-101-25-7-5-13-13-18-23-10-19-16-47-16-75s6-55 22-75c6-7 13-13 22-18 27-13 78-14 129-7 63 8 127 26 147 42 8 7 14 14 18 22 6 12 7 25 4 38-2 13-9 26-19 38-14 19-37 36-66 51-39 20-83 31-122 32z" style="fill:#a6814c;stroke-width:3.7743"/><path class="fil23" d="m1542 18276c168-69 431-170 655-305 278-168 509-375 577-462 95 140-687 686-1232 767z" style="fill:#7d6c4d;stroke-width:3.7743"/><path class="fil17" d="m1664 19457c-156 93-394 244-636 344-301 123-604 185-715 188 55 159 961-143 1351-532z" style="fill:#806641;stroke-width:3.7743"/><path class="fil17" d="m3946 18611c-410 246-1039 647-1680 909-794 325-1596 490-1888 497 32 211 2538-377 3568-1406z" style="fill:#806641;stroke-width:3.7743"/><path class="fil17" d="m19111 29437c-118 71-283 174-461 264h104c136-80 262-169 357-264z" style="fill:#806641;stroke-width:3.7743"/><path class="fil32" d="m9865 7846c46 74 104 129 152 157v-157c-39-19-83-50-123-89-6-6-12-13-18-19-7-7-13-14-19-22-4-5-8-11-13-17-19-26-36-55-48-86-2 5-4 11-5 16 4 57 20 110 42 158 5 10 10 21 16 31l3 6c4 8 9 15 13 22z" style="fill:#7a6343;stroke-width:3.7743"/><path class="fil32" d="m9945 7514c8 4 15 6 23 9s16 6 24 8c54 17 110 25 164 27 99-37 261-61 514-6 379 83 581 234 654 300-8-54-64-181-392-326-191-84-372-104-533-122-101-12-195-22-280-46-8-3-17-5-25-8-9-3-17-6-25-9-85-31-159-80-222-163-136-177-213-394-253-542-17 229-5 623 246 818l19 14c1 1 1 1 2 1 27 19 55 33 84 45z" style="fill:#7a6343;stroke-width:3.7743"/><path class="fil32" d="m10112 6761c51 158 198 214 400 281 11 3 23 7 34 11 1 0 2 0 2 1 11 3 22 7 33 10 168 56 367 125 577 262 363 238 316 395 255 468 38-26 87-56 150-88v-1h1c26-13 54-26 85-39 51-48 82-152-55-379-100-165-231-318-351-457-34-39-67-78-99-115-5-7-10-13-15-19-6-7-11-13-16-19-134-165-225-311-193-443 29-122 61-199 88-246-340 90-661 200-911 294-22 76-58 254 15 479z" style="fill:#7a6343;stroke-width:3.7743"/><path class="fil32" d="m11720 6692c62 121 137 267 195 479 64 232 62 340 40 388 91-25 194-49 311-70-72-59-326-309-239-858 31-198 106-350 194-465 6-7 11-13 17-20 5-7 11-14 17-21 125-145 269-224 353-261-70-24-145-41-224-49-177-17-372-11-574 13-53 69-143 209-193 412-2 7-4 13-5 20-2 10-4 20-5 30-2 10-3 20-3 29-10 131 44 235 116 373z" style="fill:#7a6343;stroke-width:3.7743"/><path class="fil32" d="m12993 6701c-361 211-663 578-424 748 82-4 159-3 230 3 5-154 268-343 518-354h29c10 0 20 0 31 1 66 5 129 25 184 62-48-176-123-392-232-600-94 22-196 63-294 117-7 4-14 8-22 12-6 4-13 7-20 11z" style="fill:#7a6343;stroke-width:3.7743"/><path class="fil32" d="m13586 7495c-102-15-267-2-335 82 71 37 126 77 169 113 37-33 107-88 209-126 5-2 11-4 17-6l-2-14-1-6s-1-11-4-31c-7-2-13-4-21-6-10-3-21-5-32-6z" style="fill:#7a6343;stroke-width:3.7743"/><path class="fil32" d="m13917 7687c-225 47-350 135-405 184-21 38-57 104-84 164 141-176 543-227 881-233h116c147 3 272 13 345 23 27-44 49-78 64-101-52-25-199-68-596-68-79 0-152 5-217 13-19 3-37 5-54 8s-34 6-50 10z" style="fill:#7a6343;stroke-width:3.7743"/><path class="fil32" d="m14383 8300c-172-30-440 56-565 120l-10 17c-2 2-411 684-213 1134 61 139 153 319 251 503 28-100 86-284 175-478 8-19 17-38 26-57 9-18 18-36 27-55 54-104 116-207 187-299 66-326 155-602 245-824-19-22-44-37-73-48-8-3-16-5-24-8-9-2-17-3-26-5z" style="fill:#7a6343;stroke-width:3.7743"/><path class="fil32" d="m9692 8643c119-369 260-571 317-617-48-27-106-80-153-150-6-9-12-18-17-27-3-4-6-9-8-13-3-5-6-11-9-16-21-42-39-89-49-138-99 326-143 816-157 1148-2 39-3 77-4 111 10-44 20-85 31-126 15-61 32-118 49-172z" style="fill:#7a6343;stroke-width:3.7743"/><path class="fil14" d="m5491 10479c-1 1-220 397-309 561-51 93-116 140-186 157-47 12-96 10-144-1-49-11-96-31-140-54-101-56-178-131-185-162-103-424 538-1152 716-1208l-67-38c-329 157-765 891-679 1253 9 37 82 131 191 191 46 25 111 46 163 57 52 12 114 19 166 6 77-19 136-85 192-186 89-164 261-436 262-437z" style="fill:#a6814c;stroke-width:3.7743"/><path class="fil14" d="m4506 10913c-1 0-201 45-313-106-59-80-86-226-76-389 10-152 77-302 157-441 144-263 537-420 629-449 20-7 38-8 38-8l-75-48c-27-2-472 174-644 474-82 143-126 314-135 470-11 170 7 352 71 438 124 167 353 89 354 89z" style="fill:#a6814c;stroke-width:3.7743"/></g><text x="33.008289" y="79.15271" style="fill:#6c5367;font-family:sans-serif;font-size:7.0556px;font-style:italic;letter-spacing:0px;line-height:1.25;stroke-width:.26458;word-spacing:0px" xml:space="preserve"><tspan x="33.008289" y="79.15271" style="fill:#6c5367;font-size:7.0556px;stroke-width:.26458">How to become an idol?</tspan></text></g><style type="text/css">.st0{clip-path:url(#b);fill:url(#a);}
	.st1{clip-path:url(#b);}
	.st2{fill:url(#y);}
	.st3{fill:#FFFFFF;}
	.st4{fill:#D1D3D4;}
	.st5{fill:#E6E7E8;}
	.st6{opacity:0.76;clip-path:url(#b);}
	.st7{opacity:0.25;fill:url(#z);}
	.st8{fill:url(#aa);}
	.st9{fill:url(#aj);}
	.st10{opacity:0.2;fill:url(#ab);}
	.st11{fill:none;}
	.st12{opacity:0.15;fill:url(#ac);}
	.st13{opacity:0.5;fill:url(#t);}
	.st14{fill:url(#u);}
	.st15{opacity:3.000000e-02;fill:none;stroke:#FFFFFF;stroke-width:2;stroke-miterlimit:10;}
	.st16{opacity:0.5;fill:url(#v);}
	.st17{fill:url(#w);}
	.st18{fill:url(#ad);}
	.st19{fill:url(#ae);}
	.st20{fill:url(#af);}
	.st21{fill:url(#ag);}
	.st22{clip-path:url(#x);}
	.st23{clip-path:url(#SVGID_21_);fill:url(#SVGID_22_);}
	.st24{opacity:0.71;clip-path:url(#SVGID_21_);}
	.st25{clip-path:url(#SVGID_21_);}
	.st26{fill:url(#SVGID_23_);}
	.st27{fill:#262262;}
	.st28{fill:#2B3990;}
	.st29{opacity:0.26;clip-path:url(#SVGID_21_);}
	.st30{opacity:0.25;fill:url(#SVGID_24_);}
	.st31{fill:url(#SVGID_25_);}
	.st32{fill:url(#SVGID_26_);}
	.st33{opacity:0.2;fill:url(#SVGID_27_);}
	.st34{opacity:0.15;fill:url(#SVGID_28_);}
	.st35{opacity:0.5;fill:url(#SVGID_29_);}
	.st36{fill:url(#SVGID_30_);}
	.st37{opacity:0.5;fill:url(#SVGID_31_);}
	.st38{fill:url(#SVGID_32_);}
	.st39{fill:url(#SVGID_33_);}
	.st40{fill:url(#SVGID_34_);}
	.st41{fill:url(#SVGID_35_);}
	.st42{fill:url(#SVGID_36_);}</style><style type="text/css">.st0{clip-path:url(#b);fill:url(#a);}
	.st1{clip-path:url(#b);}
	.st2{fill:url(#y);}
	.st3{fill:#FFFFFF;}
	.st4{fill:#D1D3D4;}
	.st5{fill:#E6E7E8;}
	.st6{opacity:0.76;clip-path:url(#b);}
	.st7{opacity:0.25;fill:url(#z);}
	.st8{fill:url(#aa);}
	.st9{fill:url(#aj);}
	.st10{opacity:0.2;fill:url(#ab);}
	.st11{fill:none;}
	.st12{opacity:0.15;fill:url(#ac);}
	.st13{opacity:0.5;fill:url(#t);}
	.st14{fill:url(#u);}
	.st15{opacity:3.000000e-02;fill:none;stroke:#FFFFFF;stroke-width:2;stroke-miterlimit:10;}
	.st16{opacity:0.5;fill:url(#v);}
	.st17{fill:url(#w);}
	.st18{fill:url(#ad);}
	.st19{fill:url(#ae);}
	.st20{fill:url(#af);}
	.st21{fill:url(#ag);}
	.st22{clip-path:url(#x);}
	.st23{clip-path:url(#SVGID_21_);fill:url(#SVGID_22_);}
	.st24{opacity:0.71;clip-path:url(#SVGID_21_);}
	.st25{clip-path:url(#SVGID_21_);}
	.st26{fill:url(#SVGID_23_);}
	.st27{fill:#262262;}
	.st28{fill:#2B3990;}
	.st29{opacity:0.26;clip-path:url(#SVGID_21_);}
	.st30{opacity:0.25;fill:url(#SVGID_24_);}
	.st31{fill:url(#SVGID_25_);}
	.st32{fill:url(#SVGID_26_);}
	.st33{opacity:0.2;fill:url(#SVGID_27_);}
	.st34{opacity:0.15;fill:url(#SVGID_28_);}
	.st35{opacity:0.5;fill:url(#SVGID_29_);}
	.st36{fill:url(#SVGID_30_);}
	.st37{opacity:0.5;fill:url(#SVGID_31_);}
	.st38{fill:url(#SVGID_32_);}
	.st39{fill:url(#SVGID_33_);}
	.st40{fill:url(#SVGID_34_);}
	.st41{fill:url(#SVGID_35_);}
	.st42{fill:url(#SVGID_36_);}</style></svg>
