<?xml version="1.0" encoding="UTF-8"?>
<svg width="99.998mm" height="114mm" version="1.1" viewBox="0 0 99.998 114" xmlns="http://www.w3.org/2000/svg" xmlns:xlink="http://www.w3.org/1999/xlink"><defs><linearGradient id="h-9"><stop offset="0"/><stop stop-color="#1a1a1a" offset="1"/></linearGradient><linearGradient id="g-9"><stop stop-color="#800000" offset="0"/><stop stop-color="#d40000" offset=".5"/><stop stop-color="#800000" offset="1"/></linearGradient><linearGradient id="a-3" x1=".73691" x2="-1.0804" y1=".54193" y2=".5443"><stop stop-color="#f2f2f2" offset="0"/><stop stop-color="#b3b3b3" offset="1"/></linearGradient><linearGradient id="b-1" x1=".26821" y1=".54737" y2=".5"><stop stop-color="#666" offset="0"/><stop stop-color="#fff" offset=".5"/><stop stop-color="#666" offset="1"/></linearGradient><linearGradient id="c-2" x1="1.4476" x2=".01658" y1=".4033" y2=".40711"><stop stop-color="#fff" offset="0"/><stop stop-color="#fff" stop-opacity="0" offset="1"/></linearGradient><linearGradient id="d-4" x1="26.222" x2="53.157" y1="-353.24" y2="-353.24" gradientTransform="scale(1.4462 .69146)" gradientUnits="userSpaceOnUse" xlink:href="#g-9"/><linearGradient id="e-7" x1="22.886" x2="53.069" y1="-421.35" y2="-421.35" gradientTransform="scale(1.5075 .66335)" gradientUnits="userSpaceOnUse" xlink:href="#g-9"/><radialGradient id="i-10" cx=".03183" cy=".00685" r="1" gradientTransform="matrix(33.436 27.512 -28.721 34.915 53.269 140.86)" gradientUnits="userSpaceOnUse"><stop stop-color="#e6e6e6" style="stop-color:#1da7db" offset="0"/><stop stop-color="#025" style="stop-color:#002270" offset=".88937"/><stop stop-color="#00112b" style="stop-color:#113c6c" offset="1"/><stop stop-color="#000501" style="stop-color:#243673" offset="1"/></radialGradient><radialGradient id="j-1" cx="178.29" cy="-176.78" r="9.6529" gradientTransform="matrix(.96395 -.26609 .32646 1.1826 64.14 78.563)" gradientUnits="userSpaceOnUse"><stop offset="0"/><stop stop-color="#333" offset="1"/></radialGradient><radialGradient id="f-3" cx="209.91" cy="-150.94" r="9.3975" gradientTransform="matrix(1 0 0 .86051 0 -21.053)" gradientUnits="userSpaceOnUse"><stop offset="0"/><stop stop-opacity="0" offset="1"/></radialGradient><radialGradient id="k-5" cx="209.67" cy="-144.17" r="9.3975" gradientTransform="matrix(1 0 0 .86051 0 -21.053)" gradientUnits="userSpaceOnUse" xlink:href="#h-9"/><radialGradient id="l-4" cx="178.58" cy="-147.26" r="10.156" gradientTransform="matrix(1 0 0 .82316 0 -27.134)" gradientUnits="userSpaceOnUse" xlink:href="#h-9"/><linearGradient id="linearGradient3481" x1="737.13" x2="-67.472" y1="316.52" y2="317.57" gradientTransform="scale(.56448 1.7715)" gradientUnits="userSpaceOnUse" xlink:href="#a-3"/><linearGradient id="linearGradient3483" x1="18.99" x2="36.113" y1="-12.641" y2="-13.749" gradientTransform="scale(2.3399 .42737)" gradientUnits="userSpaceOnUse" xlink:href="#b-1"/><linearGradient id="linearGradient3485" x1="1286.2" x2="810.71" y1="191.47" y2="192.74" gradientTransform="scale(.42361 2.3607)" gradientUnits="userSpaceOnUse" xlink:href="#c-2"/><radialGradient id="radialGradient3517" cx="209.91" cy="-150.94" r="9.3975" gradientTransform="matrix(1 0 0 .86051 0 -21.053)" gradientUnits="userSpaceOnUse" xlink:href="#f-3"/></defs><g transform="translate(-16.919 -59.186)"><g transform="matrix(.089071 -.016952 .016446 .091812 8.156 63.857)" style="stroke-width:1.2509"><path d="m291.06 206.24c0 17.296 5.3432 45.253 11 74.851 6.1113 31.971 12.43 65.03 12.43 86.927 0 58.923-21.031 104.4-41.37 148.37-20.252 43.785-41.193 89.061-41.193 147.29 0 115.26 72.056 251.83 72.784 253.2l0.59052 1.1114 1.2563 0.0675c0.35739 0.0196 35.93 1.959 50.329 1.959s52.724-1.9372 53.11-1.9568l1.29-0.0654 0.58618-1.1528c0.69949-1.3772 69.974-139.07 69.974-256.51 0-61.693-21.299-110.22-41.898-157.14-19.191-43.722-37.317-85.017-37.317-134.06 0-18.878 4.55-42.588 9.3658-67.69 5.5459-28.899 11.833-61.656 11.833-91.856 0-54.498-34.58-73.915-66.943-73.915-31.704 0-65.827 22.083-65.827 70.568v6e-5z" style="fill:url(#linearGradient3481);stroke-width:1.2509"/><g transform="matrix(2.2314,0,0,2.2314,231.87,923.17)" style="fill:#666;stroke-width:1.2509"><path d="m29.75-10.876s18.5 1.625 26.75 1.625 28-1.625 28-1.625-3.167 7.667-4.25 8.5-18.583 1.5-23.75 1.5c-5.0015 0-21.5-0.66699-22.5-1.5s-4.25-8.5-4.25-8.5z" style="fill:url(#linearGradient3483);stroke-width:1.2509"/></g><path d="m338.01 147.77s-22.314 2.2314-24.546 12.273 7.81 20.083 15.62 14.504 8.9257-26.777 8.9257-26.777z" style="fill:#fff;opacity:.6;stroke-width:1.2509"/><path d="m356.88 135.67c-5.196 0-10.455 0.57983-15.62 1.7851 26.6 5.8581 50.43 26.903 50.43 72.131 0 30.2-6.2807 62.979-11.827 91.879-4.8159 25.102-9.3719 48.79-9.3719 67.668 0 49.038 18.129 90.331 37.32 134.05 20.599 46.925 41.895 95.455 41.895 157.15 0 117.44-69.255 255.12-69.955 256.5l-0.61365 1.1714-1.2831 0.0557c-0.27817 0.0143-20.224 1.0549-36.763 1.6178 6.0816 0.21771 11.774 0.33465 15.787 0.33465 14.395 0 52.722-1.9329 53.108-1.9524l1.283-0.0557 0.61365-1.1714c0.69952-1.3773 69.955-139.06 69.955-256.5 0-61.693-21.296-110.22-41.895-157.15-19.192-43.722-37.32-85.015-37.32-134.05 0-18.878 4.5561-42.565 9.372-67.668 5.5459-28.899 11.827-61.678 11.827-91.879 0-54.498-34.58-73.916-66.943-73.916z" style="fill:url(#linearGradient3485);stroke-width:1.2509"/><g transform="matrix(2.5479,0,0,2.0044,212.84,869.91)" style="fill:#500;stroke-width:1.2509"><g style="fill:#500;stroke-width:1.2509"><g style="fill:#500;stroke-width:1.2509"><g style="fill:#500;stroke-width:1.2509"><path d="m56.35-244.25c8.1642 0 18.322 1.2604 18.322 1.2604s-0.12738 4.1146 0.33915 7.1146 1.8661 10 1.8661 10-15.862-1.251-20.527-1.3755-18.428 1.6255-18.428 1.6255 0.69979-6.5 1.1663-9.75 0.54882-6.8854 0.54882-6.8854 9.2482-1.9896 16.713-1.9896z" style="fill:url(#d-4);stroke-width:1.2509"/></g></g></g></g><g transform="matrix(2.4754,0,0,2.2314,216.58,921.13)" style="fill:#800000;stroke-width:1.2509"><g style="fill:#800000;stroke-width:1.2509"><g style="fill:#800000;stroke-width:1.2509"><g style="fill:#800000;stroke-width:1.2509"><path d="m56.5-279.5c10.25 0 22.572 1.9186 22.572 1.9186l-2.7216 16.757s-9.3504-1.1774-19.851-1.1774c-7.5088 0-18.025 1.4201-18.025 1.4201l-2.3968-16.949s11.172-1.9701 20.422-1.9701z" style="fill:url(#e-7);stroke-width:1.2509"/></g></g></g></g></g><g transform="matrix(.11372 -.031728 .030781 .11722 -22.154 70.242)" style="stroke-width:1.2509"><path d="m291.06 206.24c0 17.296 5.3432 45.253 11 74.851 6.1113 31.971 12.43 65.03 12.43 86.927 0 58.923-21.031 104.4-41.37 148.37-20.252 43.785-41.193 89.061-41.193 147.29 0 115.26 72.056 251.83 72.784 253.2l0.59052 1.1114 1.2563 0.0675c0.35739 0.0196 35.93 1.959 50.329 1.959s52.724-1.9372 53.11-1.9568l1.29-0.0654 0.58618-1.1528c0.69949-1.3772 69.974-139.07 69.974-256.51 0-61.693-21.299-110.22-41.898-157.14-19.191-43.722-37.317-85.017-37.317-134.06 0-18.878 4.55-42.588 9.3658-67.69 5.5459-28.899 11.833-61.656 11.833-91.856 0-54.498-34.58-73.915-66.943-73.915-31.704 0-65.827 22.083-65.827 70.568v6e-5z" style="fill:url(#linearGradient3481);stroke-width:1.2509"/><g transform="matrix(2.2314,0,0,2.2314,231.87,923.17)" style="fill:#666;stroke-width:1.2509"><path d="m29.75-10.876s18.5 1.625 26.75 1.625 28-1.625 28-1.625-3.167 7.667-4.25 8.5-18.583 1.5-23.75 1.5c-5.0015 0-21.5-0.66699-22.5-1.5s-4.25-8.5-4.25-8.5z" style="fill:url(#linearGradient3483);stroke-width:1.2509"/></g><path d="m338.01 147.77s-22.314 2.2314-24.546 12.273 7.81 20.083 15.62 14.504 8.9257-26.777 8.9257-26.777z" style="fill:#fff;opacity:.6;stroke-width:1.2509"/><path d="m356.88 135.67c-5.196 0-10.455 0.57983-15.62 1.7851 26.6 5.8581 50.43 26.903 50.43 72.131 0 30.2-6.2807 62.979-11.827 91.879-4.8159 25.102-9.3719 48.79-9.3719 67.668 0 49.038 18.129 90.331 37.32 134.05 20.599 46.925 41.895 95.455 41.895 157.15 0 117.44-69.255 255.12-69.955 256.5l-0.61365 1.1714-1.2831 0.0557c-0.27817 0.0143-20.224 1.0549-36.763 1.6178 6.0816 0.21771 11.774 0.33465 15.787 0.33465 14.395 0 52.722-1.9329 53.108-1.9524l1.283-0.0557 0.61365-1.1714c0.69952-1.3773 69.955-139.06 69.955-256.5 0-61.693-21.296-110.22-41.895-157.15-19.192-43.722-37.32-85.015-37.32-134.05 0-18.878 4.5561-42.565 9.372-67.668 5.5459-28.899 11.827-61.678 11.827-91.879 0-54.498-34.58-73.916-66.943-73.916z" style="fill:url(#linearGradient3485);stroke-width:1.2509"/><g transform="matrix(2.5479,0,0,2.0044,212.84,869.91)" style="fill:#500;stroke-width:1.2509"><g style="fill:#500;stroke-width:1.2509"><g style="fill:#500;stroke-width:1.2509"><g style="fill:#500;stroke-width:1.2509"><path d="m56.35-244.25c8.1642 0 18.322 1.2604 18.322 1.2604s-0.12738 4.1146 0.33915 7.1146 1.8661 10 1.8661 10-15.862-1.251-20.527-1.3755-18.428 1.6255-18.428 1.6255 0.69979-6.5 1.1663-9.75 0.54882-6.8854 0.54882-6.8854 9.2482-1.9896 16.713-1.9896z" style="fill:url(#d-4);stroke-width:1.2509"/></g></g></g></g><g transform="matrix(2.4754,0,0,2.2314,216.58,921.13)" style="fill:#800000;stroke-width:1.2509"><g style="fill:#800000;stroke-width:1.2509"><g style="fill:#800000;stroke-width:1.2509"><g style="fill:#800000;stroke-width:1.2509"><path d="m56.5-279.5c10.25 0 22.572 1.9186 22.572 1.9186l-2.7216 16.757s-9.3504-1.1774-19.851-1.1774c-7.5088 0-18.025 1.4201-18.025 1.4201l-2.3968-16.949s11.172-1.9701 20.422-1.9701z" style="fill:url(#e-7);stroke-width:1.2509"/></g></g></g></g></g><g transform="matrix(.1135 .032544 -.031572 .117 74.959 32.003)" style="stroke-width:1.2509"><path d="m291.06 206.24c0 17.296 5.3432 45.253 11 74.851 6.1113 31.971 12.43 65.03 12.43 86.927 0 58.923-21.031 104.4-41.37 148.37-20.252 43.785-41.193 89.061-41.193 147.29 0 115.26 72.056 251.83 72.784 253.2l0.59052 1.1114 1.2563 0.0675c0.35739 0.0196 35.93 1.959 50.329 1.959s52.724-1.9372 53.11-1.9568l1.29-0.0654 0.58618-1.1528c0.69949-1.3772 69.974-139.07 69.974-256.51 0-61.693-21.299-110.22-41.898-157.14-19.191-43.722-37.317-85.017-37.317-134.06 0-18.878 4.55-42.588 9.3658-67.69 5.5459-28.899 11.833-61.656 11.833-91.856 0-54.498-34.58-73.915-66.943-73.915-31.704 0-65.827 22.083-65.827 70.568v6e-5z" style="fill:url(#linearGradient3481);stroke-width:1.2509"/><g transform="matrix(2.2314,0,0,2.2314,231.87,923.17)" style="fill:#666;stroke-width:1.2509"><path d="m29.75-10.876s18.5 1.625 26.75 1.625 28-1.625 28-1.625-3.167 7.667-4.25 8.5-18.583 1.5-23.75 1.5c-5.0015 0-21.5-0.66699-22.5-1.5s-4.25-8.5-4.25-8.5z" style="fill:url(#linearGradient3483);stroke-width:1.2509"/></g><path d="m338.01 147.77s-22.314 2.2314-24.546 12.273 7.81 20.083 15.62 14.504 8.9257-26.777 8.9257-26.777z" style="fill:#fff;opacity:.6;stroke-width:1.2509"/><path d="m356.88 135.67c-5.196 0-10.455 0.57983-15.62 1.7851 26.6 5.8581 50.43 26.903 50.43 72.131 0 30.2-6.2807 62.979-11.827 91.879-4.8159 25.102-9.3719 48.79-9.3719 67.668 0 49.038 18.129 90.331 37.32 134.05 20.599 46.925 41.895 95.455 41.895 157.15 0 117.44-69.255 255.12-69.955 256.5l-0.61365 1.1714-1.2831 0.0557c-0.27817 0.0143-20.224 1.0549-36.763 1.6178 6.0816 0.21771 11.774 0.33465 15.787 0.33465 14.395 0 52.722-1.9329 53.108-1.9524l1.283-0.0557 0.61365-1.1714c0.69952-1.3773 69.955-139.06 69.955-256.5 0-61.693-21.296-110.22-41.895-157.15-19.192-43.722-37.32-85.015-37.32-134.05 0-18.878 4.5561-42.565 9.372-67.668 5.5459-28.899 11.827-61.678 11.827-91.879 0-54.498-34.58-73.916-66.943-73.916z" style="fill:url(#linearGradient3485);stroke-width:1.2509"/><g transform="matrix(2.5479,0,0,2.0044,212.84,869.91)" style="fill:#500;stroke-width:1.2509"><g style="fill:#500;stroke-width:1.2509"><g style="fill:#500;stroke-width:1.2509"><g style="fill:#500;stroke-width:1.2509"><path d="m56.35-244.25c8.1642 0 18.322 1.2604 18.322 1.2604s-0.12738 4.1146 0.33915 7.1146 1.8661 10 1.8661 10-15.862-1.251-20.527-1.3755-18.428 1.6255-18.428 1.6255 0.69979-6.5 1.1663-9.75 0.54882-6.8854 0.54882-6.8854 9.2482-1.9896 16.713-1.9896z" style="fill:url(#d-4);stroke-width:1.2509"/></g></g></g></g><g transform="matrix(2.4754,0,0,2.2314,216.58,921.13)" style="fill:#800000;stroke-width:1.2509"><g style="fill:#800000;stroke-width:1.2509"><g style="fill:#800000;stroke-width:1.2509"><g style="fill:#800000;stroke-width:1.2509"><path d="m56.5-279.5c10.25 0 22.572 1.9186 22.572 1.9186l-2.7216 16.757s-9.3504-1.1774-19.851-1.1774c-7.5088 0-18.025 1.4201-18.025 1.4201l-2.3968-16.949s11.172-1.9701 20.422-1.9701z" style="fill:url(#e-7);stroke-width:1.2509"/></g></g></g></g></g><g transform="matrix(.090396 .0058882 -.0057124 .093178 40.687 57.053)" style="stroke-width:1.2509"><path d="m291.06 206.24c0 17.296 5.3432 45.253 11 74.851 6.1113 31.971 12.43 65.03 12.43 86.927 0 58.923-21.031 104.4-41.37 148.37-20.252 43.785-41.193 89.061-41.193 147.29 0 115.26 72.056 251.83 72.784 253.2l0.59052 1.1114 1.2563 0.0675c0.35739 0.0196 35.93 1.959 50.329 1.959s52.724-1.9372 53.11-1.9568l1.29-0.0654 0.58618-1.1528c0.69949-1.3772 69.974-139.07 69.974-256.51 0-61.693-21.299-110.22-41.898-157.14-19.191-43.722-37.317-85.017-37.317-134.06 0-18.878 4.55-42.588 9.3658-67.69 5.5459-28.899 11.833-61.656 11.833-91.856 0-54.498-34.58-73.915-66.943-73.915-31.704 0-65.827 22.083-65.827 70.568v6e-5z" style="fill:url(#linearGradient3481);stroke-width:1.2509"/><g transform="matrix(2.2314,0,0,2.2314,231.87,923.17)" style="fill:#666;stroke-width:1.2509"><path d="m29.75-10.876s18.5 1.625 26.75 1.625 28-1.625 28-1.625-3.167 7.667-4.25 8.5-18.583 1.5-23.75 1.5c-5.0015 0-21.5-0.66699-22.5-1.5s-4.25-8.5-4.25-8.5z" style="fill:url(#linearGradient3483);stroke-width:1.2509"/></g><path d="m338.01 147.77s-22.314 2.2314-24.546 12.273 7.81 20.083 15.62 14.504 8.9257-26.777 8.9257-26.777z" style="fill:#fff;opacity:.6;stroke-width:1.2509"/><path d="m356.88 135.67c-5.196 0-10.455 0.57983-15.62 1.7851 26.6 5.8581 50.43 26.903 50.43 72.131 0 30.2-6.2807 62.979-11.827 91.879-4.8159 25.102-9.3719 48.79-9.3719 67.668 0 49.038 18.129 90.331 37.32 134.05 20.599 46.925 41.895 95.455 41.895 157.15 0 117.44-69.255 255.12-69.955 256.5l-0.61365 1.1714-1.2831 0.0557c-0.27817 0.0143-20.224 1.0549-36.763 1.6178 6.0816 0.21771 11.774 0.33465 15.787 0.33465 14.395 0 52.722-1.9329 53.108-1.9524l1.283-0.0557 0.61365-1.1714c0.69952-1.3773 69.955-139.06 69.955-256.5 0-61.693-21.296-110.22-41.895-157.15-19.192-43.722-37.32-85.015-37.32-134.05 0-18.878 4.5561-42.565 9.372-67.668 5.5459-28.899 11.827-61.678 11.827-91.879 0-54.498-34.58-73.916-66.943-73.916z" style="fill:url(#linearGradient3485);stroke-width:1.2509"/><g transform="matrix(2.5479,0,0,2.0044,212.84,869.91)" style="fill:#500;stroke-width:1.2509"><g style="fill:#500;stroke-width:1.2509"><g style="fill:#500;stroke-width:1.2509"><g style="fill:#500;stroke-width:1.2509"><path d="m56.35-244.25c8.1642 0 18.322 1.2604 18.322 1.2604s-0.12738 4.1146 0.33915 7.1146 1.8661 10 1.8661 10-15.862-1.251-20.527-1.3755-18.428 1.6255-18.428 1.6255 0.69979-6.5 1.1663-9.75 0.54882-6.8854 0.54882-6.8854 9.2482-1.9896 16.713-1.9896z" style="fill:url(#d-4);stroke-width:1.2509"/></g></g></g></g><g transform="matrix(2.4754,0,0,2.2314,216.58,921.13)" style="fill:#800000;stroke-width:1.2509"><g style="fill:#800000;stroke-width:1.2509"><g style="fill:#800000;stroke-width:1.2509"><g style="fill:#800000;stroke-width:1.2509"><path d="m56.5-279.5c10.25 0 22.572 1.9186 22.572 1.9186l-2.7216 16.757s-9.3504-1.1774-19.851-1.1774c-7.5088 0-18.025 1.4201-18.025 1.4201l-2.3968-16.949s11.172-1.9701 20.422-1.9701z" style="fill:url(#e-7);stroke-width:1.2509"/></g></g></g></g></g><path d="m89.38 148.32c0 13.732-10.799 24.863-24.121 24.863s-24.121-11.132-24.121-24.863c0-13.732 10.799-24.863 24.121-24.863s24.121 11.132 24.121 24.863z" style="fill:url(#i-10);stroke-width:.1814"/><g transform="matrix(.24626 0 0 .25383 28.751 175.25)" style="stroke-width:1.2509"><path d="m187.56-180.71c-0.90771 4.1387-5.9014 6.5605-11.154 5.4082s-8.7744-5.4404-7.8672-9.5796 5.9014-6.5581 11.154-5.4067 8.7744 5.4404 7.8672 9.5781z" style="fill:url(#j-1);stroke-width:1.2509"/></g><g transform="matrix(.24626 0 0 .25383 28.751 175.25)" style="fill:url(#radialGradient3517);stroke-width:1.2509"><g style="fill:url(#radialGradient3517);stroke-width:1.2509"><g style="fill:url(#radialGradient3517);stroke-width:1.2509"><path d="m218.72-146.79c-1.8062 3.834-7.2134 5.082-12.078 2.79s-7.3433-7.2568-5.5376-11.09 7.2134-5.0801 12.078-2.7881 7.3433 7.2568 5.5376 11.088z" style="fill:url(#k-5);stroke-width:1.2509"/></g></g></g><g transform="matrix(.24626 0 0 .25383 28.751 175.25)" style="stroke-width:1.2509"><path d="m187.9-148.67c-1.8931 3.791-7.7066 4.7266-12.985 2.0898s-8.0229-7.8438-6.1304-11.636 7.7056-4.7256 12.984-2.0898 8.0234 7.8457 6.1314 11.636z" style="fill:url(#l-4);stroke-width:1.2509"/></g></g></svg>
