<?xml version="1.0" encoding="UTF-8"?>
<svg width="542.71mm" height="609.26mm" version="1.1" viewBox="0 0 542.71 609.26" xmlns="http://www.w3.org/2000/svg"><defs><clipPath id="clipPath831"><path d="m0 2258.2h2204.3v-2258.2h-2204.3z"/></clipPath><clipPath id="clipPath859"><path d="m934.48 187.38h437.7v-86.936h-437.7z"/></clipPath><clipPath id="clipPath879"><path d="m1365 1284.7h543.21v-547.55h-543.21z"/></clipPath><clipPath id="clipPath895"><path d="m1524.5 1269.6h359.39v-413.76h-359.39z"/></clipPath><clipPath id="clipPath919"><path d="m1344.6 737.13h141.16v-285.13h-141.16z"/></clipPath><clipPath id="clipPath939"><path d="m1523.9 923.4h384.85v-114.74h-384.85z"/></clipPath><clipPath id="clipPath955"><path d="m1540.6 812.08h370.36v-250.37h-370.36z"/></clipPath><clipPath id="clipPath975"><path d="m398.67 1203.9h525.94v-504.92h-525.94z"/></clipPath><clipPath id="clipPath991"><path d="m424.26 1190.4h355.1v-375.96h-355.1z"/></clipPath><clipPath id="clipPath1015"><path d="m783.73 682.1h142.26v-264.02h-142.26z"/></clipPath><clipPath id="clipPath1035"><path d="m398.96 870.19h363.86v-99.21h-363.86z"/></clipPath><clipPath id="clipPath1051"><path d="m398.68 773.79h365.5v-257.56h-365.5z"/></clipPath><clipPath id="clipPath1075"><path d="m1049.1 286.37h208.46v-139.82h-208.46z"/></clipPath><clipPath id="clipPath1091"><path d="m973.49 373.61h223.87v-226.59h-223.87z"/></clipPath><clipPath id="clipPath1107"><path d="m1213.7 350.86h114.24v-147.54h-114.24z"/></clipPath><clipPath id="clipPath1127"><path d="m1187.8 190.56h66.53v-58.92h-66.53z"/></clipPath><clipPath id="clipPath1143"><path d="m1194.7 189.32h45.96v-48.91h-45.96z"/></clipPath><clipPath id="clipPath1163"><path d="m1032.5 192.45h64.09v-57.617h-64.09z"/></clipPath><clipPath id="clipPath1179"><path d="m1072.8 189.32h23.23v-48.401h-23.23z"/></clipPath><clipPath id="clipPath1203"><path d="m701.79 1257.9h474.28v-952.71h-474.28z"/></clipPath><clipPath id="clipPath1219"><path d="m760.39 1220.8h823.83v-884.45h-823.83z"/></clipPath><clipPath id="clipPath1235"><path d="m1209 1220.8h384.27v-868.76h-384.27z"/></clipPath><clipPath id="clipPath1255"><path d="m820.59 1669h313.69v-612.59h-313.69z"/></clipPath><clipPath id="clipPath1271"><path d="m1287.2 1571.7h201.9v-477.1h-201.9z"/></clipPath><clipPath id="clipPath1287"><path d="m776.79 1516h672.59v-486.61h-672.59z"/></clipPath><clipPath id="clipPath1307"><path d="m749.28 1518.8h108.56v-77.7h-108.56z"/></clipPath><clipPath id="clipPath1323"><path d="m772.69 1814h534.3v-281.34h-534.3z"/></clipPath><clipPath id="clipPath1343"><path d="m808.52 1846.6h162.49v-130.56h-162.49z"/></clipPath><clipPath id="clipPath1363"><path d="m744.92 1853h128.36v-165.02h-128.36z"/></clipPath><clipPath id="clipPath1383"><path d="m1243.7 1823.1h116.24v-132.14h-116.24z"/></clipPath><clipPath id="clipPath1399"><path d="m1278.9 1821.1h120.48v-222.96h-120.48z"/></clipPath><clipPath id="clipPath1419"><path d="m1293.4 1845.2h158.67v-220.82h-158.67z"/></clipPath><clipPath id="clipPath1435"><path d="m1176.1 1586.2h197.69v-90.82h-197.69z"/></clipPath><clipPath id="clipPath1451"><path d="m768.08 1526.4h68.116v-37.26h-68.116z"/></clipPath><clipPath id="clipPath1467"><path d="m1373.3 1606.8h64.82v-191.75h-64.82z"/></clipPath><clipPath id="clipPath1483"><path d="m1388.6 1453.5h52.17v-81.58h-52.17z"/></clipPath><clipPath id="clipPath1507"><path d="m871.54 1813h214.62v-120.24h-214.62z"/></clipPath><clipPath id="clipPath1523"><path d="m1050.8 1812.1h187.54v-111.49h-187.54z"/></clipPath><clipPath id="clipPath1547"><path d="m1113.8 1601c-20.631-15.266 2.886-97.315 2.886-97.315l21.995-0.347s37.318 18.81 64.518 26.264c27.201 7.454 40.093 9.775 40.093 9.775s-16.828 79.286-31.237 82.083c-2.272 0.441-5.443 0.655-9.268 0.655-23.373 1e-3 -71.255-7.996-88.987-21.115"/></clipPath><clipPath id="clipPath1567"><path d="m0 2258.2h2204.3v-2258.2h-2204.3z"/></clipPath><clipPath id="clipPath1583"><path d="m833.14 1604.5c-10.382-3.792-18.981-69.829-18.981-69.829s9.602-0.831 30.329-4.762c21.216-4.023 51.739-17.161 51.739-17.161l17.689 2.088s12.931 73.066-4.681 83.676c-10.42 6.278-31.796 8.722-49.656 8.722-11.646 0-21.799-1.04-26.439-2.734"/></clipPath><clipPath id="clipPath1595"><path d="m0 2258.2h2204.3v-2258.2h-2204.3z"/></clipPath><clipPath id="clipPath1607"><path d="m1053.7 1684.8h251.54v-122.98h-251.54z"/></clipPath><clipPath id="clipPath1631"><path d="m763.11 1674.9h201.51v-109.33h-201.51z"/></clipPath><clipPath id="clipPath1647"><path d="m767.64 1678.8h171.2v-68.07h-171.2z"/></clipPath><clipPath id="clipPath1699"><path d="m801.38 1462h147.58v-214.34h-147.58z"/></clipPath><clipPath id="clipPath1715"><path d="m991.76 1467.7h186.75v-229.97h-186.75z"/></clipPath><clipPath id="clipPath1731"><path d="m752.47 1557.6h507.65v-345.58h-507.65z"/></clipPath><clipPath id="clipPath1747"><path d="m909.68 1579.4h186.95v-40.95h-186.95z"/></clipPath><clipPath id="clipPath1771"><path d="m848.87 1240.2h287.82v-66.83h-287.82z"/></clipPath><clipPath id="clipPath1787"><path d="m801.58 1231.5h391.35v-154.61h-391.35z"/></clipPath></defs><g transform="translate(59.574 172.05)"><g transform="matrix(.35278 0 0 -.35278 -195.28 483.65)"><g clip-path="url(#clipPath831)"><g transform="translate(1069.2 195.52)"><path d="m0 0c0.967 0.13 1.932 0.262 2.898 0.391-9.4 0.219-18.8 0.448-28.201 0.64-8.241-0.161-16.483-0.32-24.724-0.48 11.842-0.456 23.74-0.693 35.693-0.693 4.79 0 9.565 0.058 14.334 0.142" style="fill:#eb6767"/></g><g clip-path="url(#clipPath859)" style="opacity:.10001"></g><g transform="translate(1507.2 1289.7)"><path d="m0 0s169.99-86.227 255.84-196.77c85.851-110.54 160.65-280.57 160.07-296.05-0.582-15.481-64.936-86.106-183.3-51.247-118.36 34.86-301.77 228.39-312.12 246.28-10.346 17.891-108.83 126.49-77.042 228.15 31.79 101.66 156.55 69.636 156.55 69.636" style="fill:#979797"/></g><g clip-path="url(#clipPath879)" style="opacity:.2"><g transform="translate(1857.2 888.74)"><path d="m0 0c-31.293 31.884-114.95 81.952-208.61 60.666-2.701-0.614-13.836 116.01-39.025 167.81-45.773 94.124-105.01 167.45-105.01 167.45s-100.12 1.291-131.91-100.37c-31.789-101.66 44.632-174.46 54.977-192.35 10.345-17.89 193.76-211.42 312.12-246.28 88.785-26.149 145.42 13.505 168.43 41.489-1.104 41.777-11.496 57.502-50.972 101.59"/></g></g><g clip-path="url(#clipPath895)" style="opacity:.3"><g transform="translate(1883.9 855.81)"><path d="m0 0s-22.453 52.019-90.532 80.717c-68.078 28.697-96.795 22.3-96.795 22.3s0.411 28.967 105.83 1.643c-45.163 124.27-277.89 309.1-277.89 309.1s162.2-85.952 237.42-186.35c75.215-100.39 121.97-227.41 121.97-227.41" style="fill:#f2f2f2"/></g></g><g transform="translate(1398.9 774.12)"><path d="m0 0s71.582 50.662 174.94 101.24c82.646 40.438 106.79 48.043 106.79 48.043s106.95-11.275 147.35-40.414c42.258-30.477 108.42-72.823 92.581-108.17-16.729-37.331-74.668-105.53-197.83-158.48s-176.68-54.11-176.68-54.11-91.29 10.749-128.48 79.027-18.679 132.87-18.679 132.87" style="fill:#979797"/></g><g transform="translate(1545.4 687.48)"><path d="m0 0s-87.157 120.04-102.73 111.95c-114.31-59.417-104.19-125.26-88.605-150.63 13.494-21.969 100.73-213.2 166.46-210.14 9.053 0.421 69.005-2.402 101.86 22.596 20.342 15.478 36.419 42.339 36.149 74.847-0.079 9.501-21.735 36.922-29.607 42.415-7.866 5.489-51.858-27.624-51.858-27.624s60.688 22.812 44.058 45.154c-16.426 22.07-75.729 91.44-75.729 91.44" style="fill:#979797"/></g><g clip-path="url(#clipPath919)" style="opacity:.2"><g transform="translate(1471.8 530.31)"><path d="m0 0c2.479 4.62 5.272 10.211 5.423 15.25 0.254 8.434-5.027 16.923-9.592 23.656-9.961 14.693-22.281 27.519-33.947 40.833-11.34 12.941-19.793 26.807-28.387 41.691-15.769 27.311-31.378 55.449-41.709 85.386-27.53-37.987-19.696-71.773-9.528-88.327 11.215-18.259 73.366-153.42 131.78-196.81-4.025 8.849-38.405 32.898-14.036 78.318"/></g></g><g transform="translate(1484.7 502.08)"><path d="m0 0c1.178-5.408 4.207-10.041 7.68-13.96 11.368-12.83 29.312-37.636 45.307-34.73 5.918 1.075 74.3 5.554 93.523 46.651 2.718 5.811 9.226 36.752 6.185 42.49-2.176 4.103-9.994 20.677-32.628 11.348-8.55-3.524-14.941-3.712-16.843-11.555-1.918-7.91 10.22-17.977-9.614-23.328-3.774-1.018-1.859 10.123-5.536 11.591-3.679 1.47-9.789 3.001-8.347 7.065 0.647 1.823 4.726 7.136 6.037 8.382 8.336 7.916 5.45 5.486 13.619 13.252 4.631 4.403-47.058-23.071-72.642-34.607-8.659-3.904-29.023-12.121-26.741-22.599" style="fill:#e5e5e4"/></g><g clip-path="url(#clipPath939)" style="opacity:.5"><g transform="translate(1523.9 834.57)"><path d="m0 0c6.863 4.292 156.69 88.829 156.69 88.829s109.53-11.942 158.32-51.201c48.783-39.258 69.843-63.54 69.843-63.54s-120.8 81.612-235.97 72.015c-45.903-3.825-148.88-46.103-148.88-46.103" style="fill:#f2f2f2"/></g></g><g clip-path="url(#clipPath955)" style="opacity:.2"><g transform="translate(1781.8 748.35)"><path d="m0 0c-20.217-25.598-35.221-61.035-58.154-83.963 4.293 10-0.112 37.818 4.181 47.818-17.568-19.125-30.813-55.459-48.38-74.584 3.411 12.05-1.39 38.568 5.267 48.86-17.8-25.072-19.412-42.353-41.753-63.011 3.932 13.297-10.027 19.367-1.514 29.839-4.287-4.795-12.861-27.39-30.739-45.141-23.599-23.431-58.295-42.926-70.154-46.457 98.57 9.144 216.2 61.671 292 118.52 50.566 37.925 80.192 68.604 78.27 119.06-15.23-15.594-15.746-33.842-35.189-43.306 13.46 12.645 6.573 39.903 16.061 56.089-17.812-21.458-50.39-90.959-73.513-106 16.421 16.663 18.431 72.585 26.451 95.264-8.777-17.04-34.784-100.58-77.944-114.43 2.374 17.383 12.605 43.386 15.107 61.432"/></g></g><g transform="translate(796.53 1208.7)"><path d="m0 0s-163.66-74.612-248.94-175.46c-85.286-100.85-162.49-258.21-162.55-272.82-0.06-14.619 57.838-83.734 170.8-55.522 112.96 28.213 293.49 203.46 303.95 219.92 10.456 16.461 85.368 82.096 59.393 179.19-25.976 97.095-122.64 104.69-122.64 104.69" style="fill:#979797"/></g><g clip-path="url(#clipPath975)" style="opacity:.2"><g transform="translate(450.72 844.45)"><path d="m0 0c30.757 28.83 111.59 72.746 199.06 48.996 2.522-0.685 17.605 108.83 43.389 156.68 46.855 86.941 105.59 153.75 105.59 153.75s94.441-2.718 120.42-99.813c25.975-97.093-48.936-162.73-59.393-179.19-10.457-16.46-190.99-191.71-303.95-219.92-84.735-21.163-136.57 18.45-157.16 45.737 2.682 39.345 13.099 53.761 52.049 93.773"/></g></g><g clip-path="url(#clipPath991)" style="opacity:.3"><g transform="translate(424.26 814.46)"><path d="m0 0s23.213 48.161 88.526 72.541c65.312 24.38 92.135 17.22 92.135 17.22s0.752 27.327-99.713 5.71c47.463 115.38 274.15 280.5 274.15 280.5s-156.3-74.659-231.16-166.35c-74.858-91.695-123.93-209.61-123.93-209.61" style="fill:#f2f2f2"/></g></g><g transform="translate(878.33 718.37)"><path d="m0 0s-65.497 50.578-160.96 102.32c-76.33 41.374-98.795 49.493-98.795 49.493s-101.28-6.426-140.52-32.309c-41.038-27.074-105.08-64.396-91.536-98.341 14.304-35.853 66.248-102.43 180.29-157.19s164.45-57.961 164.45-57.961 86.49 6.546 124.23 69.457c37.744 62.91 22.834 124.53 22.834 124.53" style="fill:#979797"/></g><g transform="translate(736.84 642.45)"><path d="m0 0s86.891 109.75 101.25 101.51c105.44-60.511 93.305-122.19 77.616-145.5-13.586-20.181-103.35-197.05-165.2-191.58-8.518 0.753-65.152 0.448-95.144 25.307-18.569 15.393-32.671 41.349-31.138 71.988 0.447 8.954 21.943 33.955 29.58 38.825 7.632 4.865 47.806-28.083 47.806-28.083s-56.319 23.893-39.763 44.304c16.354 20.161 74.992 83.232 74.992 83.232" style="fill:#979797"/></g><g clip-path="url(#clipPath1015)" style="opacity:.2"><g transform="translate(800.05 491.37)"><path d="m0 0c-2.155 4.453-4.569 9.834-4.513 14.591 0.092 7.961 5.405 15.757 9.973 21.926 9.969 13.461 22.089 25.069 33.61 37.162 11.201 11.756 19.715 24.496 28.403 38.192 15.94 25.128 31.763 51.043 42.68 78.862 24.461-36.896 15.747-68.442 5.51-83.65-11.291-16.773-75.2-141.76-131.97-180.37 4.142 8.184 37.501 29.506 16.311 73.286"/></g></g><g transform="translate(786.74 465.27)"><path d="m0 0c-1.323-5.053-4.361-9.301-7.789-12.859-11.222-11.65-29.116-34.331-44.082-30.963-5.536 1.247-69.831 8.157-86.339 47.659-2.334 5.586-7.254 35.013-4.161 40.303 2.212 3.782 10.235 19.101 31.208 9.416 7.922-3.659 13.94-4.087 15.425-11.556 1.497-7.534-10.342-16.547 8.147-22.372 3.518-1.108 2.151 9.471 5.675 10.711 3.527 1.241 9.348 2.444 8.147 6.333-0.538 1.744-4.174 6.914-5.362 8.14-7.547 7.79-4.922 5.386-12.319 13.029-4.193 4.333 43.46-23.601 67.127-35.483 8.01-4.022 26.886-12.569 24.323-22.358" style="fill:#e5e5e4"/></g><g clip-path="url(#clipPath1035)" style="opacity:.5"><g transform="translate(762.82 780.28)"><path d="m0 0c-6.302 4.316-144.24 89.908-144.24 89.908s-103.74-6.954-151.27-42.049c-47.536-35.095-68.346-57.161-68.346-57.161s117.1 72.196 225.3 58.62c43.128-5.411 138.56-49.318 138.56-49.318" style="fill:#f2f2f2"/></g></g><g clip-path="url(#clipPath1051)" style="opacity:.2"><g transform="translate(526.83 707.81)"><path d="m0 0c19.684-26.01 33.954-61.749 56.409-85.145-4.086 10.086 0.892 37.807-3.193 47.894 17.169-19.483 29.661-56.083 46.83-75.566-3.161 12.117 2.185 38.53-4.258 48.958 17.279-25.435 18.534-42.745 40.445-63.859-3.658 13.375 10.423 19.156 2.128 29.801 4.187-4.883 12.293-27.65 29.801-45.766 23.111-23.913 57.396-44.119 69.181-47.894-98.36 11.176-214.88 66.119-289.5 124.52-49.773 38.961-78.759 70.245-75.796 120.65 14.905-15.904 15.044-34.16 34.288-44.023-13.197 12.92-5.749 40.03-14.901 56.409 17.366-21.822 48.503-91.979 71.31-107.5-16.073 16.998-16.929 72.949-24.479 95.788 8.424-17.217 32.701-101.28 75.566-116.01-2.015 17.428-11.707 43.637-13.836 61.73"/></g></g><g transform="translate(1287.5 343.81)"><path d="m0 0s9.934 27.672 19.867 21.286c9.934-6.386 12.411-11.08 12.062-15.61-0.709-9.224-18.448-21.995-18.448-21.995z" style="fill:#808080"/></g><g transform="translate(1149.5 373.61)"><path d="m0 0c-95.813 0-175.97-56.938-175.97-126.3 0-45.667 26.963-82.662 70.954-99.691 7.45-3.193 18.797 7.071 18.449 12.062 0.281 9.282-18.345 22.411-19.868 39.38-3.725 41.508 38.685 63.74 95.789 65.455 57.104 1.716 115.48 6.919 108.03-52.683-2.218-17.747-16.497-34.59-31.929-43.105-5.322-4.257 10.643-28.205 31.397-20.754 52.062 23.36 84.803 59.037 86.21 104.3 3.192 102.71-87.251 121.33-183.06 121.33" style="fill:#979797"/></g><g clip-path="url(#clipPath1075)" style="opacity:.2"><g transform="translate(1242.8 187.71)"><path d="m0 0c9.934 11.353 18.848 36.708 12.772 57.473-9.579 32.736-49.048 41.015-78.05 41.154-40.929 0.195-108.56 1.419-128.43-56.764 19.158 26.253 60.706 34.072 89.758 34.945 57.104 1.716 115.48 6.918 108.03-52.683-2.218-17.747-16.497-34.591-31.929-43.105-5.322-4.258 10.643-28.205 31.397-20.754 3.268 1.466 6.459 2.981 9.572 4.544-0.438 13.854-6.024 25.257-13.12 35.19"/></g></g><g clip-path="url(#clipPath1091)" style="opacity:.2"><g transform="translate(999.39 223.19)"><path d="m0 0c-5.006 28.958-2.289 70.277 21.996 90.112 11.075 9.046 33.713 17.167 47.184 14.798 20.357-3.581 39.731-11.694 60.766-7.294 29.085 6.083 50.132 27.736 68.021 50.874-15.524 1.394-31.633 1.933-47.898 1.933-95.813 0-175.97-56.937-175.97-126.3 0-45.668 26.964-82.662 70.955-99.691 7.451-3.193 18.797 7.071 18.448 12.062 0.111 3.67-2.744 7.95-6.318 12.821-27.729 7.667-52.216 21.933-57.186 50.683"/></g></g><g clip-path="url(#clipPath1107)" style="opacity:.2"><g transform="translate(1213.7 328.2)"><path d="m0 0s57.978 0.919 86.564-32.639c32.639-38.315 12.772-92.241 12.772-92.241s36.204 62.171-4.257 114.95c-32.639 42.572-65.278 31.219-65.278 31.219z" style="fill:#fff"/></g></g><g transform="translate(1254.3 151.7)"><path d="m0 0s-14.901 34.058-35.655 38.315c-20.754 4.258-31.397-8.514-30.865-21.286s1.4-25.011 1.4-25.011 7.45-17.029 40.641-10.643c18.556 3.57 24.479 18.625 24.479 18.625" style="fill:#e5e5e4"/></g><g clip-path="url(#clipPath1127)" style="opacity:.2"><g transform="translate(1197.1 144.78)"><path d="m0 0s-4.236 24.053-1.597 33.26c1.599 5.575 8.536 10.091 11.434 12.519-12.98-1.706-19.551-11.751-19.131-21.832 0.532-12.772 1.4-25.011 1.4-25.011s7.451-17.029 40.641-10.643c18.556 3.57 24.479 18.625 24.479 18.625s-0.115 0.26-0.32 0.704c-7.037-7.24-16.27-10.155-25.509-12.411-22.882-5.588-31.397 4.789-31.397 4.789"/></g></g><g clip-path="url(#clipPath1143)" style="opacity:.5"><g transform="translate(1210.7 188.95)"><path d="m0 0c-2.154 1.348-12.441-0.532-14.569-12.772-1.464-8.418-1.864-17.996-0.826-26.477 0.199-1.627 0.435-3.299 1.26-4.716 0.825-1.416 2.39-2.527 4.016-2.326 0.288 0.035 0.575 0.113 0.818 0.269 0.837 0.539-5.866 35.112 9.301 46.022m8.692-10.111c0.167 0.555 10.289 0.71 21.286-9.224-0.709 9.578-22.059 18.678-22.35 18.803-2.483 1.064-10.781-5.455-12.417-17.739-1.169-8.778-0.555-18.247 0.492-27.04 0.113-0.949 0.331-2.036 1.17-2.494 0.574-0.314 9.86-0.998 12.528-0.622-4.612 18.448-3.134 30.257-0.709 38.316" style="fill:#fff"/></g></g><g transform="translate(1032.2 154.54)"><path d="m0 0s14.9 34.059 35.654 38.315c20.754 4.258 31.398-8.514 30.866-21.286s-1.597-26.075-1.597-26.075-5.853-13.837-40.444-9.579c-18.756 2.308-24.479 18.625-24.479 18.625" style="fill:#e5e5e4"/></g><g clip-path="url(#clipPath1163)" style="opacity:.2"><g transform="translate(1061.7 141.99)"><path d="m0 0c-7.436 2.348-16.231 7.317-6.652 34.191 1.01 2.833 6.652 13.038 12.582 16.271-20.468-4.736-35.11-38.178-35.11-38.178s5.723-16.317 24.479-18.625c27.86-3.429 37.072 4.874 39.605 8.238-10.121-6.585-24.793-5.09-34.904-1.897"/></g></g><g clip-path="url(#clipPath1179)" style="opacity:.5"><g transform="translate(1094.6 176.18)"><path d="m0 0c-2.129 12.24-14.875 14.12-17.029 12.772 12.772-10.643 11.684-30.843 10.961-43.298-0.058-0.994-0.037-2.185 0.799-2.724 0.244-0.156 0.531-0.234 0.818-0.269 1.627-0.202 3.192 0.91 4.017 2.326 0.825 1.417 1.061 3.089 1.26 4.716 1.038 8.481 0.638 18.059-0.826 26.477m-14.688 3.336c-1.334 1.501-3.88 2.524-5.219 1.028-0.598-0.668-0.721-1.622-0.812-2.514-1.218-11.917-1.435-23.938-0.648-35.893 2.668-0.376 5.336-0.753 8.005-1.129 0.646-0.092 1.346-0.175 1.919 0.139 0.84 0.458 1.058 1.545 1.171 2.494 1.046 8.793 0.806 17.739-0.71 26.464-0.585 3.366-1.437 6.857-3.706 9.411" style="fill:#fff"/></g></g><g transform="translate(1180.3 1389)"><path d="m0 0s-404.44-23.415-461.91-340.58c-57.473-317.17 55.345-440.63 78.76-468.3 23.414-27.672 261.82-272.46 355.48-272.46s414.41 342.5 447.01 576.86c34.058 244.79-88.814 393.21-106.43 410.83-97.917 97.917-312.91 93.66-312.91 93.66" style="fill:#979797"/></g><g transform="translate(1195.2 952.6)"><path d="m0 0c-27.365-24.828-80.527-30.103-113.77-13.981-75.526 36.624-246.04 119.43-273.64-32.849-39.312-216.94 77.564-345.46 93.58-364.38s178.7-216.36 242.74-214.6c51.797 1.419 292.74 237.04 315.04 397.35 23.296 167.44-9.934 240.54-52.506 263.95-70.507 38.779-154.82 15.895-211.44-35.477" style="fill:#e5e5e4"/></g><g clip-path="url(#clipPath1203)" style="opacity:.2"><g transform="translate(992.3 1171.1)"><path d="m0 0c-6.386 0-186.36-30.438-236.99-194.42-47.539-153.97 33.348-224.22 33.348-224.22s8.515-93.66 44.702-150.42c87.81-137.74 262.25-268.37 284.53-276.72 34.058-12.772 58.183 5.676 58.183 5.676s-28.695-53.14-85.855-7.095c-51.087 41.154-68.902 51.421-105.01 82.307-177.3 151.65-247.01 208.1-275.3 392.02-34.058 221.38 44.701 403.73 134.1 457.66 28.472 17.173 148.3-84.791 148.3-84.791"/></g></g><g clip-path="url(#clipPath1219)" style="opacity:.3"><g transform="translate(1037.7 982.4)"><path d="m0 0c11.21 26.111 17.493 33.799 40.262 50.799-51.358-6.645-76.515-6.845-120.09-34.834 8.997 17.385 1.784 21.104 18.094 31.929-33.289-7.192-51.791-12.049-82.408-26.964 3.47 15.633 11.942 30.116 23.87 40.801-19.844-5.501-57.075-25.844-75.586-34.864l17.049 29.542-28.737-10.643 24.479 38.315s-34.77-23.367-42.219-27.991-47.183-56.09-51.441-128.46c-2.095-35.624 0.535-85.914 21.287-114.95 20.804-29.105 90.112-103.59 322.13-99.336 133.74 2.454 176.27 3.967 251.3 25.618 13.35 3.852 27.455-3.49 31.798-16.689 9.96-30.274 14.335-59.015-1.485-94.98-66.794-151.85-198.37-280.95-187.96-272.98 322.49 246.92 386.26 562.02 385.99 581.83-0.407 29.656 9.224 208.61-73.793 302.27-14.9-57.473-61.478-98.792-106.43-127.72-75.596-48.643-153.31-73.989-186.26-85.145 13.194 13.884 20.846 36.098 34.04 49.982-50.889-19.519-83.386-59.772-129.83-88.298 12.772 31.93 22.349 62.597 49.616 75.189-53.914-13.521-92.493-25.11-133.7-62.417" style="fill:#fff"/></g></g><g clip-path="url(#clipPath1235)" style="opacity:.2"><g transform="translate(1510.3 1220.8)"><path d="m0 0c-14.9-57.473-61.478-98.792-106.43-127.72-15.126-9.733 6.338 1.855-8.514-5.676 161.78-146.88 92.241-397.34 66.697-429.98-76.631-151.13-262.8-312.92-252.6-305.1 322.49 246.92 370.9 500 380.32 560.54 9.934 63.859 3.548 214.28-79.469 307.94" style="fill:#fff"/></g></g><g transform="translate(1498.9 1314.5)"><path d="m0 0c0-196.72-214.47-250.05-397.34-256.86-266.79-9.934-280.98 41.688-280.98 238.41s95.079 370.38 346.97 374.64c182.98 3.092 331.36-159.47 331.36-356.19" style="fill:#979797"/></g><g clip-path="url(#clipPath1255)" style="opacity:.2"><g transform="translate(971.36 1109.1)"><path d="m0 0c-2.206 1.967 19.139-2.109 27.576-3.458-3.852 4.246-29.945 30.256-36.197 39.277-9.354 13.501-18.293 28.275-23.244 44.048-0.843 2.685 15.915-16.222 23.256-23.846-22.043 53.819-29.477 116.26-27.04 173.53 5.597 131.54 74.885 281.98 198.56 330.43-227.02-18.437-313.69-185.22-313.69-373.02 0-190.58 13.319-244.98 256.71-239.16-6.611 2.2-39 11.586-61.587 22.744-26.079 12.884-42.382 27.694-44.347 29.446"/></g></g><g clip-path="url(#clipPath1271)" style="opacity:.2"><g transform="translate(1456.3 1456.4)"><path d="m0 0c-55.344 95.079-140.49 136.23-166.03 105.01-25.543-31.22 113.53-173.13 113.53-173.13s25.421-36.249 20.224-98.933c10.069 6.612 18.857 14.843 25.504 25.342 1.477 2.334-15.696-42.099-30.887-58.825-0.634-2.657-1.321-5.348-2.069-8.074-1.789-6.527-4.133-13.232-6.915-20.019 8.814 4.776 17.046 11.274 24.807 16.509 2.312 1.56-25.802-43.222-46.458-57.862-5.638-8.953-11.767-17.728-18.177-26.12 11.297 4.302 21.847 10.338 32.705 15.866 2.352 1.197-19.68-27.424-33.475-34.43-8.127-4.128-16.444-7.787-24.82-11.312-12.132-12.564-24.351-23.039-35.518-30.218-39.734-25.543 107.85 41.154 143.33 100.76 35.477 59.601 59.601 160.36 4.257 255.44" style="fill:#fff"/></g></g><g clip-path="url(#clipPath1287)" style="opacity:.3"><g transform="translate(817.51 1078.6)"><path d="m0 0c-12.483 13.599-10.342 34.659-7.417 52.885-16.302-2.365-31.007 12.047-33.181 28.376-1.356 10.184 8.514 61.306 23.805 53.871 17.814-8.661-5.644 92.682 7.095 107.85 107.82 128.4 270.65 129.91 434.76 164.26 28.28 5.919 173.93 30.125 189.64 30.153 19.226-45.274 28.133-82.111-4.967-118.49-5.033-5.532-29.056-37.79-30.978-45.018-2.776-10.44 5.255-63.544-5.209-74.186-10.464-10.641-16.455-24.214-27.672-34.058-44.462-39.019-75.922-88.693-92.951-149.71-37.304 5.259-87.443-1.728-123.46-12.772-2.175-23.313-18.95-38.848-41.1-46.437-22.151-7.59-46.235-6.336-69.589-4.65-70.173 5.065-124.66 12.966-191.87 33.763-9.802 3.033-19.967 6.608-26.906 14.167"/></g></g><g transform="translate(768.43 1425.2)"><path d="m0 0s-25.189 91.177-18.093 105.37c7.095 14.19 77.34 186.96 95.788 206.83 18.449 19.867 168.87 79.469 187.32 80.888s174.55 1.419 197.25-5.676c22.705-7.096 144.75-144.75 177.39-212.86s39.735-130.56 39.735-141.91c0-11.352-134.81-211.44-154.68-211.44s-361.87-43.992-417.21-9.934c-55.344 34.058-107.5 188.74-107.5 188.74" style="fill:#979797"/></g><g clip-path="url(#clipPath1307)" style="opacity:.2"><g transform="translate(749.28 1518.8)"><path d="m0 0c0-3.193 31.93-64.923 31.93-64.923l24.479 8.514 52.151 55.344-46.83-72.373-45.765-4.257z"/></g></g><g clip-path="url(#clipPath1323)" style="opacity:.5"><g transform="translate(1142.7 1814)"><path d="m0 0-36.896-18.448 70.954-7.095-82.307-5.677s-19.867-14.191-25.543-26.963c-5.677-12.771 14.19 8.515 41.153-2.838s48.249-26.963 48.249-26.963-53.925 17.03-65.278 14.191c-11.353-2.838-38.315-9.933-38.315-9.933s-34.25-31.783-39.38-92.241c-1.454-17.131 4.096-31.668 21.286-31.93l46.475-2.128 23.77 38.315s68.117 35.123 135.17-17.029c67.053-52.151 64.924-80.888 64.924-80.888s-78.76 1.064-125.59-8.515-83.016 17.029-83.016 17.029-79.115 39.38-124.53 30.865c-45.41-8.514-150.07-46.829-150.07-46.829l-51.088-4.258 39.38 83.017 120.27 27.672 12.772-37.251 27.672-2.128c14.217 0.338 17.909 13.771 19.41 27.912 2.083 19.628 5.289 45.243 8.617 54.395 5.676 15.61 25.544 45.411 25.544 45.411s-12.772 18.448-43.992 9.933c-31.22-8.514-49.668-15.61-49.668-15.61s34.058 31.22 62.44 31.22 45.411-9.933 45.411-9.933l24.124 35.477-38.315 9.934 55.344 4.257 34.058 17.029z" style="fill:#676767"/></g></g><g transform="translate(808.52 1768.6)"><path d="m0 0 28.382-52.506 155.39 87.274-109.27 55.344z" style="fill:#cccbcb"/></g><g clip-path="url(#clipPath1343)" style="opacity:.5"><g transform="translate(808.52 1768.6)"><path d="m0 0 28.382-52.506 134.1 75.211-92.241 55.345z"/></g></g><g transform="translate(760.28 1672.1)"><path d="m0 0s67.407 81.598 80.179 94.37c12.771 12.772 37.606 37.605 42.572 48.958 4.967 11.353 0 43.283 0 43.283s-97.917-51.797-111.4-63.86c-13.482-12.062-17.739-19.157-17.739-19.157s-11.353-78.76-8.515-87.274c2.838-8.515 14.901-16.32 14.901-16.32" style="fill:#cccbcb"/></g><g clip-path="url(#clipPath1363)" style="opacity:.5"><g transform="translate(869.54 1819)"><path d="m0 0c4.967 11.353 3.548 34.058 3.548 34.058s-87.984-46.12-101.46-58.183c-13.481-12.062-17.739-19.157-17.739-19.157s-11.353-78.76-8.514-87.274c2.838-8.515 119.2 119.2 124.17 130.56" style="fill:#676767"/></g></g><g transform="translate(1220.8 1807.6)"><path d="m0 0 69.535 36.187 82.308-157.52-25.544 6.386z" style="fill:#979797"/></g><g clip-path="url(#clipPath1383)" style="opacity:.5"><g transform="translate(1248.9 1803.2)"><path d="m0 0 28.336 18.432c5.119 3.013 11.716 1.156 14.511-4.085l66.985-111.23c4.259-7.986-2.966-17.238-11.746-15.043-1.79 0.447-17.633 31.903-38.92 52.48-21.286 20.577-61.153 42.964-61.153 42.964-4.935 4.805-3.949 12.987 1.987 16.481"/></g></g><g clip-path="url(#clipPath1399)" style="opacity:.3"><g transform="translate(1282.5 1821.1)"><path d="m0 0s-14.573-34.579 14.901-73.083c29.473-38.504 22.281-131.75 22.281-131.75s71.731-20.202 77.794-17.957-4.287 106.42-4.287 106.42-28.375 82.876-39.665 95.596c-11.289 12.72-71.024 20.769-71.024 20.769"/></g></g><g transform="translate(1284.6 1834.6)"><path d="m0 0 74.502-206.48s75.212-19.157 80.888-17.029c5.677 2.129 12.063 119.2 12.063 119.2s-77.341 60.311-90.822 72.374c-13.481 12.062-60.312 42.572-67.407 42.572s-9.224-10.643-9.224-10.643" style="fill:#979797"/></g><g clip-path="url(#clipPath1419)" style="opacity:.7"><g transform="translate(1367.6 1644.4)"><path d="m0 0s68.117-21.996 73.793-19.867c5.676 2.128 10.643 105.72 10.643 105.72s-77.34 60.312-90.822 72.374c-13.481 12.062-60.311 42.572-67.406 42.572-7.096 0 73.792-200.8 73.792-200.8" style="fill:#f2f2f2"/></g></g><g clip-path="url(#clipPath1435)" style="opacity:.3"><g transform="translate(1176.1 1495.4)"><path d="m0 0c4.257 2.839 73.459 48.197 120.62 44.702 20.126-1.492 40.015-7.331 44.346 0 13.836 23.414-24.479 46.12-24.479 46.12s53.571-18.803 56.409-47.185-1.065-38.67-26.608-41.508c-25.544-2.838-67.25 16.343-90.467 12.772-27.673-4.258-79.824-14.901-79.824-14.901" style="fill:#f2f2f2"/></g></g><g clip-path="url(#clipPath1451)" style="opacity:.3"><g transform="translate(768.08 1524.5)"><path d="m0 0s8.515 5.677 38.315-2.838l29.801-8.515-32.478-24.05z" style="fill:#f2f2f2"/></g></g><g clip-path="url(#clipPath1467)" style="opacity:.3"><g transform="translate(1389.6 1606.8)"><path d="m0 0s31.929-115.66 24.834-128.43-41.153-26.962-41.153-26.962l7.095-11.885c6.108-9.691 7.729-13.621 10.111-24.48 5.077 3.569 45.502 32.667 47.362 51.265 4.257 42.573-48.249 140.49-48.249 140.49" style="fill:#f2f2f2"/></g></g><g clip-path="url(#clipPath1483)" style="opacity:.2"><g transform="translate(1388.6 1411.1)"><path d="m0 0c2.557-12.701 3.5-25.917 4.64-39.094l47.529 81.581z"/></g></g><g transform="translate(1307.3 1804.1)"><path d="m0 0 60.311-159.65 73.793-19.868-63.859 38.316z" style="fill:#f2f2f2"/></g><g transform="translate(756.02 1688.4)"><path d="m 0,0 c 0,0 112.818,121.332 116.365,129.847 3.548,8.514 3.548,31.22 3.548,31.22 0,0 14.9,-18.449 2.838,-36.187 C 72.586,51.106 0,0 0,0" style="fill:#f2f2f2"/></g><g clip-path="url(#clipPath1507)" style="opacity:.2"><g transform="translate(983.01 1764)"><path d="m0 0c-30.467-5.866-56.45-26.927-73.946-52.55 17.406 5.218 34.936 10.023 52.571 14.407 12.252 3.047 24.839 5.911 37.394 4.573 2.073-8.34 1.426-17.335-1.821-25.292-0.748-1.837-1.669-3.669-3.16-4.978-1.775-1.559-4.154-2.205-6.457-2.729-38.147-8.673-69.356-2.899-108.46-1.921-21.287 0.532 8.187 39.882 15.964 45.234 49.491 34.058 90.936 56.484 149 69.712 9.415 2.145 27.456 3.548 36.901 1.54 2.545-0.54 5.606-2.243 5.115-4.798-0.419-2.181-3.095-2.948-5.291-3.28-26.119-3.951-52.237-7.902-78.356-11.853 13.349-2.081 26.863-6.49 40.212-8.571 5.177-0.807 7.551-0.712 9.224-5.676 1.434-4.257-10.591-12.566-15.082-12.493-17.979 0.296-36.153 2.074-53.81-1.325" style="fill:#f2f2f2"/></g></g><g clip-path="url(#clipPath1523)" style="opacity:.2"><g transform="translate(1203 1783.5)"><path d="m0 0c-26.508 3.099-55.142-1.333-81.828-1.745-7.092-0.109-14.337-0.372-20.97-2.885-6.634-2.512-12.655-7.695-14.334-14.587 42.63 2.898 99.42-36.234 98.5-40.023-0.714-2.937-1.702-6.231-4.41-7.573-1.277-0.633-36.729 5.258-52.619 10.169-15.889 4.912-33.217 8.522-48.939 3.097-12.579-4.34-22.999-14.536-27.613-27.017 5.119-2.871 11.373-2.471 17.22-1.946 59.603 5.349 103.49 16.187 162.31 5.17 4.144 22.058 12.224 46.76 5.322 68.116-2.757 8.53-4.361 14.171-11.218 19.946-3.965 3.339-8.885 5.305-13.773 7.031-12.848 4.536-26.146 7.797-39.636 9.718-7.913 1.127-16.031 1.786-23.854 0.145s-15.397-5.854-19.585-12.663c25.94 1.597 76.655-10.733 75.427-14.953" style="fill:#f2f2f2"/></g></g><g transform="translate(1110.8 1491.3)"><path d="m0 0 35.418-12.952s28.745 30.371 79.47 47.54c46.12 15.61 73.083 16.319 73.083 16.319l-47.164 3.496s-12.941 76.345-35.037 84.623-101.6-6.942-116.78-28.583c-15.188-21.641 11.015-110.44 11.015-110.44" style="fill:#4d4e4e"/></g><g transform="translate(1116.7 1503.7)"><path d="m0 0 21.996-0.348s37.317 18.811 64.518 26.265 40.092 9.775 40.092 9.775-16.827 79.286-31.236 82.083c-16.158 3.136-77.623-5.195-98.255-20.46s2.885-97.315 2.885-97.315" style="fill:#fdf3d8"/></g></g><g clip-path="url(#clipPath1547)"><g transform="translate(1237.1 1579.8)"><path d="m0 0c6.831-31.427-12.344-62.154-42.827-68.631-30.483-6.478-60.732 13.747-67.563 45.174-6.83 31.426 12.344 62.153 42.827 68.631 30.484 6.477 60.732-13.748 67.563-45.174" style="fill:#0d72b9"/></g><g transform="translate(1252.8 1559.9)"><path d="m0 0c-0.023-13.77-10.858-24.866-24.201-24.782-13.344 0.083-24.141 11.314-24.118 25.085 0.023 13.77 10.858 24.865 24.201 24.782 13.343-0.084 24.141-11.315 24.118-25.085" style="fill:#fff"/></g><g transform="translate(1215.2 1553.8)"><path d="m0 0c-0.016-9.786-7.717-17.671-17.199-17.612-9.482 0.06-17.156 8.042-17.14 17.829 0.016 9.786 7.717 17.671 17.199 17.611 9.483-0.06 17.156-8.042 17.14-17.828" style="fill:#fff"/></g></g><g clip-path="url(#clipPath1567)"><g transform="translate(918.69 1508)"><path d="m0 0-42.756-14.735s-11.353 20.577-55.345 31.22c-38.147 9.229-42.573 7.805-42.573 7.805l29.755 6.89s5.974 62.933 21.596 71.926c15.805 9.1 76.786 3.885 90.372-12.45 13.888-16.696-1.049-90.656-1.049-90.656" style="fill:#4d4e4e"/></g><g transform="translate(913.91 1514.8)"><path d="m0 0-17.69-2.088s-30.522 13.137-51.739 17.16c-20.727 3.931-30.328 4.762-30.328 4.762s8.599 66.037 18.981 69.829c11.753 4.292 58.88 4.384 76.095-5.988 17.612-10.61 4.681-83.675 4.681-83.675" style="fill:#fdf3d8"/></g></g><g clip-path="url(#clipPath1583)"><g transform="translate(935.31 1554.6)"><path d="m0 0c-3.166-27.775-26.081-48.252-51.182-45.737-25.101 2.516-42.884 27.071-39.718 54.847 3.165 27.775 26.081 48.252 51.182 45.737 25.101-2.516 42.884-27.071 39.718-54.847" style="fill:#0d72b9"/></g></g><g clip-path="url(#clipPath1595)"><g transform="translate(1081.7 1682)"><path d="m0 0s-12.772-63.859-7.805-70.245 14.191-14.901 14.191-14.901 75.921 8.515 111.4 1.42c35.477-7.096 70.954-25.544 70.954-25.544s33.349 4.967 34.768 19.158c1.419 14.19 2.838 37.606 2.838 37.606s-18.932 38.51-71.664 56.763c-73.793 25.544-154.68-4.257-154.68-4.257" style="fill:#cccbcb"/></g><g clip-path="url(#clipPath1607)" style="opacity:.3"><g transform="translate(1092 1684.9)"><path d="m0 0s-7.45-7.45-8.515-35.123c-1.064-27.672 8.515-31.929 8.515-31.929s79.824 10.643 110.69 2.129c30.865-8.515 70.791-35.123 80.888-35.123 8.515 0 21.996-4.967 21.641 7.096-0.354 12.062-4.612-24.125-22.705-29.446-18.094-5.322-39.38 27.672-104.3 28.736-64.924 1.064-93.66-11.707-93.66-11.707l-30.866 31.929s14.546 63.505 21.287 67.052c6.74 3.548 17.029 6.386 17.029 6.386"/></g></g><g transform="translate(1092 1684.9)"><path d="m0 0s-10.111-25.011-5.854-44.701c3.404-15.743 5.854-22.351 5.854-22.351s2.129 48.427 15.965 55.345 72.905 14.368 105.9 3.724c32.994-10.642 91.532-56.94 91.532-56.94l2.66 9.579s-35.122 51.087-97.385 62.262c-62.262 11.175-118.67-6.918-118.67-6.918" style="fill:#fff"/></g><g transform="translate(763.11 1637)"><path d="m0 0s9.933-35.832 13.481-45.056 11.353-17.739 11.353-17.739 39.025 18.448 62.44 19.867c23.415 1.42 91.531 1.42 91.531 1.42s5.677 11.352 7.805 16.319c2.129 4.967-11.352 63.15-11.352 63.15s-45.411 13.481-90.113 0.709c-44.701-12.772-85.145-38.67-85.145-38.67" style="fill:#cccbcb"/></g><g clip-path="url(#clipPath1631)" style="opacity:.3"><g transform="translate(763.11 1637)"><path d="m0 0 13.481-45.056s9.224-21.996 10.644-23.415c1.419-1.419 7.805-4.257 10.643-2.129 2.838 2.129 27.672 19.867 50.377 18.448 22.706-1.419 92.241-1.419 92.241-1.419s19.158 10.643 20.577 16.32c1.419 5.676 3.548 13.481 3.548 13.481l-22.706 61.021-6.386 0.71s4.258-40.444 1.42-52.507c-2.839-12.062-8.515-14.9-8.515-14.9s-65.278 4.257-87.984-0.71c-11.662-2.551-24.635-7.348-34.495-11.412-9.183-3.784-19.733-0.094-24.551 8.591z"/></g></g><g clip-path="url(#clipPath1647)" style="opacity:.8"><g transform="translate(932.75 1610.7)"><path d="m0 0c0.7 12.927-6.904 48.941-9.284 51.399-3.676 3.795-51.016 2.331-73.793-1.065-22.778-3.395-55.767-16.1-76.277-26.607-1.183-0.607-1.547 0.482-2.875 0.417s-2.806 0.817-2.885 2.145c41.211 25.427 81.156 41.153 129.58 41.784 5.534 0.072 35.851-3.726 36.542-5.321 7.993-18.458 5.728-43.798-1.004-62.752" style="fill:#fff"/></g></g><g transform="translate(821.65 1462.4)"><path d="m0 0s-63.859 41.508-87.274-20.222c-9.376-24.719-4.258-52.152-4.258-52.152l26.608-40.444s23.415-71.309 27.673-91.531c4.257-20.222 12.772-98.982 12.772-98.982s123.46-31.929 278.85-31.929c155.39 0 193.71 10.643 193.71 10.643s29.8 69.181 60.666 106.43c30.865 37.251 52.151 60.666 52.151 60.666s41.509 125.59-38.315 164.97c-79.824 39.38-153.26-36.187-153.26-36.187z" style="fill:#cccbcb"/></g><g transform="translate(757.44 1390.4)"><path d="m0 0 8.515 5.677s97.917-137.3 116.36-146.52 154.68-15.61 178.8-14.9c24.125 0.71 115.66-7.096 151.13 6.386 35.477 13.481 73.083 20.222 89.402 67.761 16.32 47.54 12.772 68.827 12.772 68.827s8.515-1.42 15.61-6.386c7.096-4.967 14.191-11.353 14.191-11.353s-12.062 29.091-41.154 34.767c-29.091 5.677-40.444-1.419-40.444-1.419s24.125-2.129 31.93-4.967 4.967-6.386 4.967-6.386 7.805-50.377-16.32-83.726c-7.323-10.123-45.919-35.901-82.307-33.703-83.483 5.043-200.86 56.586-227.06 63.504-37.606 9.934-194.42 74.502-194.42 74.502l6.386 5.677s-4.967 6.386-14.901-0.71c-9.933-7.095-13.481-17.029-13.481-17.029" style="fill:#402312"/></g><g transform="translate(957.63 1262.4)"><path d="m0 0c1.206-2.246 2.053-4.685 2.498-7.196 0.957-0.18 1.977-1e-3 2.815 0.495-0.24 2.903-0.458 5.946 0.708 8.614 1.167 2.669 4.211 4.76 6.971 3.829 5.144-1.736 3.662-10.567 8.34-13.324-0.413 2.438-0.824 4.955-0.251 7.361 0.572 2.405 2.392 4.692 4.843 5.018 2.175 0.288 4.311-1.034 5.609-2.802 1.299-1.768 1.924-3.928 2.524-6.039 0.57 2.334 1.167 4.729 2.549 6.695 1.381 1.966 3.747 3.432 6.118 3.046 2.332-0.38 4.097-2.456 4.814-4.708 0.718-2.251 0.588-4.672 0.449-7.031-0.063-1.08-0.158-2.244-0.86-3.067-1.198-1.404-3.482-1.073-5.109-0.202-1.628 0.87-3.105 2.173-4.933 2.426-2.411 0.334-4.612-1.232-6.72-2.449-2.107-1.217-4.937-2.086-6.83-0.557-0.951 0.769-1.793 2.143-2.977 1.84-0.521-0.134-0.892-0.576-1.257-0.97-4.308-4.635-12.801-4.256-16.678 0.745-4.723-2.586-10.395-5.217-15.245-2.878-1.325 4.103-1.058 8.699 0.733 12.621 0.59 1.291 1.388 2.56 2.616 3.269 3.364 1.942 7.436-1.314 9.273-4.736" style="fill:#fdf3d8"/></g><g transform="translate(1284.6 1279.7)"><path d="m0 0c-36.187-48.958-202.94-32.769-218.04-30.184-11.213 1.92-13.265 9.048-24.627 9.607-10.681 0.526-44.673 1.394-55.345 0.71-22.147-1.419-62.709-0.787-81.243-4.612-10.722-2.213 2.524-7.339-10.288-8.16 2.025-5.999 9.327-10.187 15.636-10.715 6.31-0.528 12.547 1.269 18.713 2.707 43.756 10.203 89.554 2.697 133.49-6.708 15.025-3.216 170.62-53.4 221.7 47.355" style="fill:#da6865"/></g><g transform="translate(1246.3 1412.4)"><path d="m 0,0 c 0,0 30.812,30.17 70.954,11.353 45.411,-21.287 59.602,-97.917 59.602,-97.917 0,0 25.544,116.365 -43.992,143.328 C 17.029,83.726 0,0 0,0" style="fill:#f2f2f2"/></g><g transform="translate(743.6 1415.2)"><path d="M 0,0 C 0,0 1.419,15.61 18.448,24.125 35.477,32.639 28.382,52.506 9.934,38.316 -8.514,24.125 0,0 0,0" style="fill:#f2f2f2"/></g><g transform="translate(748.21 1300.6)"><path d="m0 0s5.322 75.566 50.023 134.1c44.701 58.537 77.695 119.2 111.75 134.1 34.058 14.9 125.59 32.994 196.9-23.415 71.31-56.409 150.07-133.04 154.33-208.61 4.257-75.567-43.637-149-139.42-119.2-95.789 29.801-147.94 91.531-147.94 91.531s-76.631-96.852-150.07-77.695c-73.438 19.158-75.567 69.181-75.567 69.181" style="fill:#e5e5e4"/></g><g transform="translate(957.27 1444.1)"><path d="m0 0s-0.202-40.49 2.211-75.341c1.747-25.241 6.307-47.276 6.386-50.023 0.354-12.328-22.617-41.242-26.874-45.5-4.258-4.257 35.211 25.633 35.211 25.633l46.12-30.865-32.639 35.122c-5.798 7.843-8.411 20.301-8.714 30.049l-4.59 41.97 0.887 76.985z" style="fill:#676767"/></g><g transform="translate(915.51 1528.2)"><path d="m0 0-11.317-16.976c-3.521-5.282-3.167-12.237 0.884-17.124 8.407-10.14 22.571-26.96 30.457-34.846 6.572-6.571 15.322-11.802 21.736-15.126 5.048-2.617 11.147-2.004 15.581 1.556 8.004 6.428 54.841 49.008 59.995 52.785 5.851 4.288 7.599 12.252 4.068 18.587l-7.677 13.775c-2.638 4.731-7.713 7.577-13.126 7.358l-89.23-3.605c-4.594-0.186-8.821-2.559-11.371-6.384" style="fill:#333"/></g><g clip-path="url(#clipPath1699)" style="opacity:.8"><g transform="translate(810.65 1351.4)"><path d="m0 0s19.867 35.477 42.573 61.021c22.705 25.543 52.506 49.668 52.506 49.668l38.316-24.125s14.19-99.336-5.677-126.3c-19.867-26.962-71.412-62.589-99.336-63.859-62.44-2.838-28.382 103.59-28.382 103.59" style="fill:#fff"/></g></g><g clip-path="url(#clipPath1715)" style="opacity:.8"><g transform="translate(995.13 1436.5)"><path d="m0 0 34.058 31.22s131.98-61.021 144.75-106.43c12.772-45.411-2.838-122.04-26.962-123.46-24.125-1.419-116.37 15.61-140.49 86.565-24.125 70.954-11.353 112.11-11.353 112.11" style="fill:#fff"/></g></g><g clip-path="url(#clipPath1731)" style="opacity:.2"><g transform="translate(952.09 1304)"><path d="m0 0c-4.723-8.418-12.334-14.779-19.907-20.764-16.306-12.884-33.471-25.091-52.808-32.702-19.339-7.611-43.128-14.604-60.997-3.995-89.321 53.026-3.196 195.57 9.66 208.42 15.11 15.098 41.403 30.945 62.719 29.57 15.074-0.973 26.355-13.866 37.327-24.249 8.337-7.889 15.422-10.86 20.222-21.286 5.572-12.102 5.624-78.893 5.322-97.917-0.198-12.446 4.552-26.218-1.538-37.074m306.77 43.438c-0.317-19.899-0.837-40.634-10.061-58.271-10.564-20.198-31.224-33.384-52.702-41.019-53.076-18.868-115.9-7.014-158.45 29.898-42.552 36.913-63.159 97.432-51.974 152.64 2.017 9.958 5 19.759 9.449 28.893 9.284 19.057 24.513 34.451 39.472 49.47-36.283-16.558-77.73-21.573-116.91-14.147-6.337 1.201-13.775 3.835-15.107 10.145-2.308 10.937 16.054 17.608 14.582 28.688-7.159-2.871-16.082-0.446-20.805 5.651-4.722 6.097-4.766 11.531-0.196 17.743 3.52 4.787-30.476-26.777-34.058-32.994-29.652-51.457-88.561-103.61-109.18-218.99-0.145 0.269-0.302 0.531-0.445 0.801 0.016-0.86 0.066-1.712 0.116-2.564-0.036-0.213-0.08-0.415-0.116-0.628 0.049-0.086 0.112-0.197 0.165-0.291 2.55-34.367 32.74-61.016 66.361-70.301 34.749-9.599 73.248 1.35 101.4 23.873 14.403 11.523 28.334 26.706 46.761 27.546 12.218 0.557 23.65-5.519 34.293-11.546 31.797-18.006 63.228-37.292 97.791-49.152s73.262-15.772 107.36-2.625c6.653 2.565 13.128 5.792 18.618 10.343 7.478 6.199 12.82 14.589 17.249 23.234 14.662 28.618 20.457 61.701 16.396 93.598"/></g></g><g clip-path="url(#clipPath1747)" style="opacity:.8"><g transform="translate(909.68 1543.6)"><path d="m0 0c33.445 19.266 73.568 21.971 112.1 24.22-34.665 5.585-70.247 5.438-104.86-0.433 58.599 21.181 126.71 14.119 179.72-18.635-51.89 13.284-106.83 14.516-159.26 3.573 46.772 1.455 94.958 2.688 138.74-13.834-52.74 9.658-107.23 9.687-159.98 0.084 8.765 4.008 18.282 6.359 27.904 6.897-11.452-0.624-22.904-1.248-34.356-1.872" style="fill:#fff"/></g></g><g transform="translate(925.77 1530.8)"><path d="m0 0c-5.945-5.958-11.161-12.642-15.495-19.857 3.969-9.12 34.766-9.81 48.67-8.41 25.018 2.518 45.428 4.771 68.116 15.61-15.374-1.752-76.791-4.769-90.171-1.258-3.304 0.867-6.647 2.11-9.046 4.543-2.398 2.432-3.601 6.316-2.074 9.372" style="fill:#fff"/></g><g transform="translate(878.06 1236.8)"><path d="m0 0s-46.83-15.965-50.023-34.058c-3.193-18.094-11.708-74.502 2.128-86.21 13.837-11.707 95.789-38.315 166.03-39.379 70.245-1.065 177.74 28.736 187.32 35.122s11.707 67.052 8.515 81.953c-3.193 14.9-154.33 55.344-209.67 55.344s-104.3-12.772-104.3-12.772" style="fill:#e5e5e4"/></g><g clip-path="url(#clipPath1771)" style="opacity:.8"><g transform="translate(882.67 1229.3)"><path d="m0 0s-41.154-18.448-32.639-28.382c8.514-9.934 26.986-22.198 123.46-26.962 114.95-5.677 163.2 28.381 163.2 28.381s-74.857 30.866-137.3 36.542-116.72-9.579-116.72-9.579" style="fill:#fff"/></g></g><g clip-path="url(#clipPath1787)" style="opacity:.2"><g transform="translate(865.69 1231.5)"><path d="m0 0c-12.688-1.554-23.093-11.594-28.442-23.204-5.35-11.61-6.476-24.669-7.112-37.436-0.145-2.911-0.252-5.929 0.846-8.629 0.976-2.399 2.819-4.329 4.685-6.125 23.634-22.756 56.544-33.185 88.901-38.612 63.331-10.623 127.9-7.498 189.78 9.689 76.631 21.286 73.621 45.574 76.342 67.666 3.482-24.029 3.482-48.508-3.969-82.566-29.76-22.434-74.789-25.046-111.75-29.802-77.976-10.03-151.33-8.812-223.51 22.351-10.627 4.588-28.725 15.463-28.725 15.463l-0.803 32.22s-10.113 4.438-15.17 6.657c-1.674 0.735-3.449 1.554-4.413 3.108-1.379 2.222-0.631 5.104 0.252 7.567 10.273 28.647 34.216 52.044 63.093 61.653"/></g></g></g></g></g></svg>
