<?xml version="1.0" encoding="UTF-8"?>
<svg width="513.75mm" height="648.79mm" version="1.1" viewBox="0 0 513.75 648.79" xmlns="http://www.w3.org/2000/svg"><defs><clipPath id="clipPath14144"><path d="m0 2258.2h1682.2v-2258.2h-1682.2z"/></clipPath><clipPath id="clipPath14152"><path d="m608.67 182.3h491.15v-54.238h-491.15z"/></clipPath><clipPath id="clipPath14180"><path d="m1123 1214.7h433.62v-518.97h-433.62z"/></clipPath><clipPath id="clipPath14196"><path d="m1273.3 1195.4h268.56v-386.1h-268.56z"/></clipPath><clipPath id="clipPath14220"><path d="m995.85 678.56h137.45v-268.88h-137.45z"/></clipPath><clipPath id="clipPath14236"><path d="m1133.6 518.4h154.15v-104.52h-154.15z"/></clipPath><clipPath id="clipPath14252"><path d="m1183.1 867.39h372.95v-101.32h-372.95z"/></clipPath><clipPath id="clipPath14272"><path d="m125.57 1214.7h433.63v-518.97h-433.63z"/></clipPath><clipPath id="clipPath14288"><path d="m140.31 1195.4h268.56v-386.1h-268.56z"/></clipPath><clipPath id="clipPath14312"><path d="m548.9 678.56h137.45v-268.88h-137.45z"/></clipPath><clipPath id="clipPath14328"><path d="m394.51 518.4h154.15v-104.52h-154.15z"/></clipPath><clipPath id="clipPath14344"><path d="m126.11 867.39h372.95v-101.32h-372.95z"/></clipPath><clipPath id="clipPath14360"><path d="m333.48 1057.1h314.83v-593.68h-314.83z"/></clipPath><clipPath id="clipPath14384"><path d="m759.16 320.85h62.298v-54.084h-62.298z"/></clipPath><clipPath id="clipPath14388"><path d="m759.16 320.85h62.298v-54.084h-62.298z"/></clipPath><clipPath id="clipPath14412"><path d="m911.86 326.9h49.461v-60.016h-49.461z"/></clipPath><clipPath id="clipPath14416"><path d="m911.86 326.9h49.461v-60.016h-49.461z"/></clipPath><clipPath id="clipPath14444"><path d="m721.34 504.35h257.93v-90.198h-257.93z"/></clipPath><clipPath id="clipPath14448"><path d="m721.34 504.35h257.93v-90.198h-257.93z"/></clipPath><clipPath id="clipPath14472"><path d="m771.09 404.72h168.42v-49.344h-168.42z"/></clipPath><clipPath id="clipPath14476"><path d="m771.09 404.72h168.42v-49.344h-168.42z"/></clipPath><clipPath id="clipPath14508"><path d="m701.98 315h114.76v-34.306h-114.76z"/></clipPath><clipPath id="clipPath14512"><path d="m701.98 315h114.76v-34.306h-114.76z"/></clipPath><clipPath id="clipPath14536"><path d="m905.83 332.47h113.68v-51.24h-113.68z"/></clipPath><clipPath id="clipPath14540"><path d="m905.83 332.47h113.68v-51.24h-113.68z"/></clipPath><clipPath id="clipPath14572"><path d="m726.04 207.35h51.226v-58.258h-51.226z"/></clipPath><clipPath id="clipPath14588"><path d="m965.1 221.41h46.594v-72.328h-46.594z"/></clipPath><clipPath id="clipPath14616"><path d="m307.08 1138.4h1036.5v-230.37h-1036.5z"/></clipPath><clipPath id="clipPath14632"><path d="m1150.7 1288.1h195.19v-233.98h-195.19z"/></clipPath><clipPath id="clipPath14648"><path d="m317.69 1270.7h195.19v-239.34h-195.19z"/></clipPath><clipPath id="clipPath14668"><path d="m466 808.92h705.44v-134.84h-705.44z"/></clipPath><clipPath id="clipPath14684"><path d="m446.3 1029.4h787.11v-621.59h-787.11z"/></clipPath><clipPath id="clipPath14688"><path d="m446.3 1029.4h787.11v-621.59h-787.11z"/></clipPath><clipPath id="clipPath14716"><path d="m403.36 1147.2h862.26v-384.41h-862.26z"/></clipPath><clipPath id="clipPath14732"><path d="m912.2 795.62h294.64v-376.33h-294.64z"/></clipPath><clipPath id="clipPath14748"><path d="m354.39 1306.3h768.33v-439.7h-768.33z"/></clipPath><clipPath id="clipPath14768"><path d="m509.08 1554.8h626.77v-375.79h-626.77z"/></clipPath><clipPath id="clipPath14784"><path d="m486.96 1562h383.71v-685.09h-383.71z"/></clipPath><clipPath id="clipPath14800"><path d="m889.43 883.24h17.918v-16.634h-17.918z"/></clipPath><clipPath id="clipPath14816"><path d="m466.16 1593.8h367.22v-713.76h-367.22z"/></clipPath><clipPath id="clipPath14832"><path d="m1013.7 1492.8h166.38v-555.64h-166.38z"/></clipPath><clipPath id="clipPath14856"><path d="m436.09 1758.6h218.3v-93.45h-218.3z"/></clipPath><clipPath id="clipPath14892"><path d="m1060.2 1767.3h140.63v-68.32h-140.63z"/></clipPath><clipPath id="clipPath14912"><path d="m975.21 1972.7h136.45v-166.16h-136.45z"/></clipPath><clipPath id="clipPath14928"><path d="m971.9 1972.8h90.761v-117.87h-90.761z"/></clipPath><clipPath id="clipPath14944"><path d="m995.89 1939.2h59.279v-84.26h-59.279z"/></clipPath><clipPath id="clipPath14960"><path d="m980.72 1840h139.57v-71.03h-139.57z"/></clipPath><clipPath id="clipPath14976"><path d="m980.72 1835.8h138.04v-61.8h-138.04z"/></clipPath><clipPath id="clipPath14992"><path d="m1006.8 1893.5h69.79v-72.31h-69.79z"/></clipPath><clipPath id="clipPath15008"><path d="m1001.6 1968.9h94.97v-71.1h-94.97z"/></clipPath><clipPath id="clipPath15032"><path d="m558.4 1651h171.66v-386.96h-171.66z"/></clipPath><clipPath id="clipPath15048"><path d="m1052.9 1661.8h56.54v-91.64h-56.54z"/></clipPath><clipPath id="clipPath15064"><path d="m512.98 1818.2h320.4v-631.53h-320.4z"/></clipPath><clipPath id="clipPath15080"><path d="m643.46 1885.9h417.06v-358.29h-417.06z"/></clipPath><clipPath id="clipPath15100"><path d="m655.96 1882.4h366.37v-276.25h-366.37z"/></clipPath><clipPath id="clipPath15116"><path d="m655.96 1860h68.312v-122.5h-68.312z"/></clipPath><clipPath id="clipPath15132"><path d="m743.18 1821.3h270.89v-102.85h-270.89z"/></clipPath><clipPath id="clipPath15148"><path d="m669.68 1754.2h137.4v-131.92h-137.4z"/></clipPath><clipPath id="clipPath15164"><path d="m1020.2 1764.8h38.18v-127.58h-38.18z"/></clipPath><clipPath id="clipPath15184"><path d="m823.76 1764.6h50.028v-172.15h-50.028z"/></clipPath><clipPath id="clipPath15200"><path d="m847.24 1776.9h184.07v-193.87h-184.07z"/></clipPath><clipPath id="clipPath15220"><path d="m565.1 1972.3h145.26v-236.72h-145.26z"/></clipPath><clipPath id="clipPath15236"><path d="m566.28 1817.2h144.09v-81.55h-144.09z"/></clipPath><clipPath id="clipPath15252"><path d="m614.85 1981.2h96.796v-209.11h-96.796z"/></clipPath><clipPath id="clipPath15268"><path d="m623.35 1979.6h82.722v-76.08h-82.722z"/></clipPath><clipPath id="clipPath15284"><path d="m618.49 1861.5h75.885v-90.96h-75.885z"/></clipPath><clipPath id="clipPath15308"><path d="m916.54 1849.7h98.419v-52.28h-98.419z"/></clipPath><clipPath id="clipPath15324"><path d="m908.68 1844.3h100.65v-68.71h-100.65z"/></clipPath><clipPath id="clipPath15344"><path d="m737.09 1848.9h136.33v-56.01h-136.33z"/></clipPath><clipPath id="clipPath15360"><path d="m721.86 1807.2h148.9v-56.8h-148.9z"/></clipPath><clipPath id="clipPath15384"><path d="m769.67 1779.5h84.744v-46.29h-84.744z"/></clipPath><clipPath id="clipPath15408"><path d="m950.03 1802.4c-14.062-3.013-28.627-15.066-28.627-15.066l8.036-14.062s14.063-8.037 22.098-16.574c8.035-8.538 17.076-20.591 17.076-20.591s27.621 3.013 35.657 17.578c8.036 14.564 19.587 33.146 3.516 39.173-13.278 4.979-34.441 10.301-49.327 10.301-3.132 0-5.984-0.235-8.429-0.759"/></clipPath><clipPath id="clipPath15424"><path d="m937.48 1788h54.888v-40.17h-54.888z"/></clipPath><clipPath id="clipPath15448"><path d="m0 2258.2h1682.2v-2258.2h-1682.2z"/></clipPath><clipPath id="clipPath15456"><path d="m743.41 1394.8h374.22v-109.92h-374.22z"/></clipPath><clipPath id="clipPath15476"><path d="m773.94 1421.5h333.64v-93.66h-333.64z"/></clipPath><clipPath id="clipPath15496"><path d="m742.86 1497.7h376.59v-155.68h-376.59z"/></clipPath><clipPath id="clipPath15524"><path d="m666.69 1583.5h133.06v-157.73h-133.06z"/></clipPath><clipPath id="clipPath15552"><path d="m689.5 1532h87.323v-101.69h-87.323z"/></clipPath><clipPath id="clipPath15568"><path d="m1088.2 1560.6h50.67v-75.75h-50.67z"/></clipPath><clipPath id="clipPath15596"><path d="m1007.7 1474.9h13.9v-8.97h-13.9z"/></clipPath><clipPath id="clipPath15612"><path d="m1025.6 1487.5h6.01v-6.43h-6.01z"/></clipPath><clipPath id="clipPath15628"><path d="m785.56 1576.4h285.82v-143.92h-285.82z"/></clipPath><clipPath id="clipPath15644"><path d="m786.51 1575.1h179.3v-142.59h-179.3z"/></clipPath><clipPath id="clipPath15660"><path d="m997.81 1552.5h52.339v-74.94h-52.339z"/></clipPath><clipPath id="clipPath15676"><path d="m837.11 1553.8h91.948v-77.86h-91.948z"/></clipPath><clipPath id="clipPath15692"><path d="m826.78 1525.8h247.36v-161.32h-247.36z"/></clipPath><clipPath id="clipPath15712"><path d="m875.6 1518.5h27.818v-46.06h-27.818z"/></clipPath><clipPath id="clipPath15728"><path d="m1005.5 1520.6h40.96v-67.21h-40.96z"/></clipPath><clipPath id="clipPath15744"><path d="m837.94 1479h230.61v-95.43h-230.61z"/></clipPath><clipPath id="clipPath15764"><path d="m997.81 1552.5h52.34v-73.39h-52.34z"/></clipPath><clipPath id="clipPath15780"><path d="m837.11 1553.8h91.948v-77.86h-91.948z"/></clipPath><clipPath id="clipPath15796"><path d="m817.81 1600.7h236.96v-167.16h-236.96z"/></clipPath><clipPath id="clipPath15812"><path d="m839.15 1307.9h234.76v-166.4h-234.76z"/></clipPath><clipPath id="clipPath15832"><path d="m858.62 1232h210.18v-74.52h-210.18z"/></clipPath></defs><g transform="translate(-3.9778 -8.9591)"><g transform="matrix(.35278 0 0 -.35278 -35.867 707.86)"><g clip-path="url(#clipPath14144)"><g clip-path="url(#clipPath14152)" style="opacity:.3"></g><g transform="translate(847.07 389.66)"><path d="m0 0s-16.177-29.732-34.151-52.733c-35.053-44.858-92.288-99.169-137.11-86.885-63.264 17.339-39.173 73.827-39.173 73.827s-13.561-64.954 50.724-64.285c64.285 0.67 122.38 126.9 122.38 126.9s11.391 31.753 22.098 32.142c36.829 1.34 15.234-28.961 15.234-28.961" style="fill:#544741"/></g><g transform="translate(652.17 343.52)"><path d="m0 0c6.237 1.829 12.572 3.652 19.071 3.748 6.498 0.097 13.29-1.74 17.895-6.326-7.997 1.597-16.255 1.887-24.344 0.855 11.17 1.514 22.757-6.985 24.67-18.094-5.156 5.75-11.377 10.541-18.253 14.058 8.734-4.391 14.875-13.554 15.617-23.301-3.139 8.928-10.278 16.364-19.071 19.863 6.139-5.21 11.623-11.485 14.468-19.017 2.846-7.532 2.731-16.471-1.666-23.215 2.78 9.943-0.819 21.371-8.795 27.928 6.247-6.801 7.052-17.977 1.845-25.602 2.82 7.954 1.476 17.26-3.479 24.091 1.755-10.588 1.456-23.042-6.71-30.007 2.246 5.572 3.488 11.546 3.65 17.551 0.204 7.573-2.042 16.2-8.79 19.644-7.492 3.823-16.744-0.707-22.408-6.926-2.331 12.258 0.781 25.448 8.344 35.372 7.563 9.923 19.457 16.42 31.893 17.423-10.993-3.753-20.786-10.946-27.655-20.313 8.57 10.313 22.222 16.182 35.602 15.305-12.92-2.527-27.404-6.125-33.959-17.542 10.392 9.315 25.702 12.788 39.096 8.87-6.842-0.501-13.753-1.015-20.312-3.026s-12.833-5.678-16.709-11.339" style="fill:#544741"/></g><g transform="translate(1260 1214.7)"><path d="m0 0s137.83-82.205 200.84-185.86c62.22-102.34 110.06-258.86 108.38-273.24-1.678-14.384-59.771-82.199-155.07-53.66-96.979 29.042-239.47 209.29-247.06 226.32-7.606 17.058-68.974 86.379-32.694 185.04 36.11 98.191 125.6 101.41 125.6 101.41" style="fill:#988575"/></g><g clip-path="url(#clipPath14180)" style="opacity:.2"><g transform="translate(1517.3 832.18)"><path d="m0 0c-23.255 29.062-76.595 47.745-115.81 50.256-21.517 1.377-43.243 1.246-64.968 2.17-8.87 0.377-11.822 13.648-15.238 20.303-5.477 10.67-10.794 21.448-15.626 32.46-19.672 44.824-32.659 92.298-34.499 142.02-1.545 41.758 2.292 83.584 4.581 125.4-9.853 6.455-15.713 9.951-15.713 9.951s-89.49-3.216-125.6-101.41c-36.28-98.655 25.088-167.98 32.694-185.04 7.594-17.032 150.08-197.28 247.06-226.32 71.641-21.455 121.25 17.423 142.21 44.157 2.354 38.78-10.211 45.976-39.093 86.041"/></g></g><g clip-path="url(#clipPath14196)" style="opacity:.2"><g transform="translate(1541.9 809.3)"><path d="m0 0s-14.317 47.918-68.15 73.293c-54.376 25.63-78.94 19.059-78.94 19.059s2.634 27.343 88.293 3.544c-27.675 115.9-209.76 290.2-209.76 290.2s130.97-81.62 185.87-175.66c54.29-93 82.694-210.43 82.694-210.43" style="fill:#fff"/></g></g><g transform="translate(1054.5 715.84)"><path d="m0 0s74.475 51.46 179.77 103.11c82.883 40.655 106.75 48.438 106.75 48.438s103.2-8.104 140.93-34.395c39.178-27.3 100.1-64.662 84.182-97.921-16.86-35.214-73.7-100.94-193.48-156.1-122.26-56.308-175.52-60.273-175.52-60.273s-91.622 5.395-127.47 69.352c-36.104 64.417-15.174 127.79-15.174 127.79" style="fill:#a08c7b"/></g><g transform="translate(1200.2 638.35)"><path d="m0 0s-84.198 111.9-100.26 103.56c-119.29-61.968-110.73-125.67-95.353-149.62 13.278-20.673 96.829-200.36 163.25-193.17 9.089 0.983 68.751 2.126 101.98 27.902 20.487 15.891 37.073 42.238 37.792 72.956 0.209 8.979-20.225 33.786-27.807 38.585-7.588 4.802-52.141-29.004-52.141-29.004s60.687 24.901 44.983 45.237c-15.561 20.15-72.443 83.554-72.443 83.554" style="fill:#a08c7b"/></g><g clip-path="url(#clipPath14220)" style="opacity:.2"><g transform="translate(1121.5 484)"><path d="m0 0c2.646 4.58 5.638 10.108 5.942 14.956 0.507 8.116-4.582 15.983-9.003 22.208-9.66 13.603-21.792 25.31-33.271 37.548-11.183 11.922-19.408 24.903-27.761 38.884-15.362 25.713-30.583 52.314-40.346 80.961-29.601-38.125-22.483-70.656-12.455-86.268 11.038-17.186 70.771-144.53 128.74-182.62-3.8 8.232-37.918 29.208-11.85 74.327"/></g></g><g clip-path="url(#clipPath14236)" style="opacity:.2"><g transform="translate(1133.7 457.65)"><path d="m0 0c1.028-5.118 3.947-9.38 7.332-12.928 11.069-11.601 28.356-34.216 44.466-30.431 5.95 1.397 74.02 9.909 94.214 50.02 2.851 5.662 10.186 35.333 7.369 40.601-2.016 3.769-9.213 19.06-31.838 8.995-8.568-3.812-14.909-4.338-17.031-11.902-2.141-7.633 9.587-16.524-10.246-22.739-3.781-1.185-1.542 9.532-5.153 10.724-3.617 1.194-9.655 2.31-8.096 6.265 0.699 1.773 4.919 7.063 6.262 8.322 8.525 7.995 5.584 5.523 13.932 13.359 4.728 4.438-47.593-24.583-73.596-37.066-8.827-4.237-29.606-13.299-27.615-23.22" style="fill:#fff"/></g></g><g clip-path="url(#clipPath14252)" style="opacity:.2"><g transform="translate(1183.1 778.42)"><path d="m0 0c7.012 4.33 157.85 88.965 157.85 88.965s105.66-8.67 151.04-44.188c44.991-35.213 64.068-57.129 64.068-57.129s-112.18 72.714-224.03 60.643c-45.199-4.878-148.92-48.291-148.92-48.291" style="fill:#fff"/></g></g><g transform="translate(422.21 1214.7)"><path d="m0 0s-137.83-82.205-200.84-185.86c-62.22-102.34-110.06-258.86-108.38-273.24 1.678-14.384 59.771-82.199 155.07-53.66 96.979 29.042 239.47 209.29 247.06 226.32 7.606 17.058 68.975 86.379 32.694 185.04-36.109 98.191-125.6 101.41-125.6 101.41" style="fill:#988575"/></g><g clip-path="url(#clipPath14272)" style="opacity:.2"><g transform="translate(164.94 832.18)"><path d="m0 0c23.255 29.062 76.595 47.745 115.81 50.256 21.517 1.377 43.242 1.246 64.968 2.17 8.87 0.377 11.822 13.648 15.238 20.303 5.477 10.67 10.794 21.448 15.626 32.46 19.672 44.824 28.869 80.401 30.709 130.12 1.546 41.758 1.498 95.481-0.791 137.3 9.853 6.455 15.713 9.951 15.713 9.951s89.49-3.216 125.6-101.41c36.28-98.655-25.088-167.98-32.694-185.04-7.594-17.032-150.08-197.28-247.06-226.32-71.641-21.455-121.25 17.423-142.21 44.157-2.354 38.78 10.211 45.976 39.093 86.041"/></g></g><g clip-path="url(#clipPath14288)" style="opacity:.2"><g transform="translate(140.31 809.3)"><path d="m0 0s14.317 47.918 68.15 73.293c54.376 25.63 78.94 19.059 78.94 19.059s-2.634 27.343-88.293 3.544c27.675 115.9 209.76 290.2 209.76 290.2s-130.97-81.62-185.87-175.66c-54.29-93-82.694-210.43-82.694-210.43" style="fill:#fff"/></g></g><g transform="translate(627.74 715.84)"><path d="m0 0s-74.475 51.46-179.77 103.11c-82.883 40.655-106.75 48.438-106.75 48.438s-103.2-8.104-140.93-34.395c-39.178-27.3-100.1-64.662-84.182-97.921 16.86-35.214 73.7-100.94 193.48-156.1 122.26-56.308 175.52-60.273 175.52-60.273s91.622 5.395 127.47 69.352c36.103 64.417 15.173 127.79 15.173 127.79" style="fill:#a08c7b"/></g><g transform="translate(482.03 638.35)"><path d="m0 0s84.198 111.9 100.26 103.56c119.29-61.968 110.73-125.67 95.353-149.62-13.278-20.673-96.829-200.36-163.25-193.17-9.089 0.983-68.751 2.126-101.98 27.902-20.487 15.891-37.074 42.238-37.792 72.956-0.209 8.979 20.225 33.786 27.807 38.585 7.588 4.802 52.141-29.004 52.141-29.004s-60.687 24.901-44.982 45.237c15.56 20.15 72.442 83.554 72.442 83.554" style="fill:#a08c7b"/></g><g clip-path="url(#clipPath14312)" style="opacity:.2"><g transform="translate(560.75 484)"><path d="m0 0c-2.646 4.58-5.638 10.108-5.941 14.956-0.508 8.116 4.581 15.983 9.002 22.208 9.66 13.603 21.792 25.31 33.271 37.548 11.183 11.922 19.408 24.903 27.761 38.884 15.362 25.713 30.583 52.314 40.346 80.961 29.601-38.125 22.483-70.656 12.455-86.268-11.038-17.186-70.771-144.53-128.74-182.62 3.8 8.232 37.918 29.208 11.85 74.327"/></g></g><g clip-path="url(#clipPath14328)" style="opacity:.2"><g transform="translate(548.52 457.65)"><path d="m0 0c-1.028-5.118-3.947-9.38-7.332-12.928-11.069-11.601-28.356-34.216-44.466-30.431-5.95 1.397-74.02 9.909-94.214 50.02-2.851 5.662-10.186 35.333-7.369 40.601 2.016 3.769 9.213 19.06 31.838 8.995 8.568-3.812 14.909-4.338 17.031-11.902 2.14-7.633-9.587-16.524 10.246-22.739 3.781-1.185 1.542 9.532 5.153 10.724 3.617 1.194 9.655 2.31 8.096 6.265-0.699 1.773-4.919 7.063-6.262 8.322-8.525 7.995-5.584 5.523-13.932 13.359-4.728 4.438 47.593-24.583 73.596-37.066 8.827-4.237 29.606-13.299 27.615-23.22" style="fill:#fff"/></g></g><g clip-path="url(#clipPath14344)" style="opacity:.2"><g transform="translate(499.06 778.42)"><path d="m0 0c-7.013 4.33-157.85 88.965-157.85 88.965s-105.66-8.67-151.04-44.188c-44.991-35.213-64.068-57.129-64.068-57.129s112.18 72.714 224.03 60.643c45.199-4.878 148.92-48.291 148.92-48.291" style="fill:#fff"/></g></g><g clip-path="url(#clipPath14360)" style="opacity:.3"><g transform="translate(360.35 908.25)"><path d="m0 0c-1.766-11.65-4.416-23.483-2.395-35.092 2.021-11.608 10.232-23.164 21.918-24.668-6.892-28.53-22.367-25.028-3.388-75.641 18.081-48.213 186.83-194.86 233.03-281.24 2.954-5.523-16.201-29.272-10.045-28.125 0.228 11.317 36.336 48.104 44.196 56.249 11.713 12.137-1.815 26.434-7.224 42.41-5.41 15.976-16.24 29.43-26.5 42.818-69.276 90.389-121.19 193.69-155.41 302.31-8.556 27.154-17.258 56.532-39.714 74.033-13.625 10.619-31.214 15.802-43.39 28.056-14.472 14.564-19.978 37.829-37.949 47.759 24.959-44.872 34.567-98.102 26.872-148.87"/></g></g><g transform="translate(762.2 290.72)"><path d="m0 0-9.04-71.316s27.12-11.049 30.133-4.017c3.014 7.031-1.004 16.071-1.004 16.071s29.129 60.267 32.142 68.302c3.014 8.036 7.031 21.093 7.031 21.093s-29.129 0-45.2-8.035c-16.071-8.036-14.062-22.098-14.062-22.098" style="fill:#756657"/></g><g transform="translate(911.86 311.81)"><path d="m0 0s23.102-43.191 27.12-55.245c4.018-12.053 1.004-31.138 5.023-35.155 4.017-4.018 15.066-7.031 24.106-2.009s11.049 6.026 11.049 6.026-10.044 17.076-18.08 42.187-3.013 60.267-20.089 59.263c-17.076-1.005-29.129-15.067-29.129-15.067" style="fill:#756657"/></g><g clip-path="url(#clipPath14384)" style="opacity:.39999"><g clip-path="url(#clipPath14388)" style="opacity:.5"><g transform="translate(759.16 266.77)"><path d="m0 0c4.072 1.367 8.213 2.554 12.168 3.89 11.329 3.828 21.68 8.667 30.71 16.715 5.299 4.722 9.774 9.886 13.496 15.43 2.803 7.908 5.924 18.049 5.924 18.049s-29.129 0-45.2-8.035c-16.071-8.036-14.062-22.098-14.062-22.098z"/></g></g></g><g clip-path="url(#clipPath14412)" style="opacity:.39999"><g clip-path="url(#clipPath14416)" style="opacity:.5"><g transform="translate(929.74 277.18)"><path d="m0 0c2.032-1.085 4.067-2.177 6.168-3.123 5.308-2.391 10.922-4.618 16.62-5.864 2.978-0.651 5.908-1.087 8.793-1.312-0.08 0.247-0.163 0.483-0.243 0.732-8.035 25.111-3.013 60.267-20.088 59.263-17.076-1.005-29.129-15.067-29.129-15.067s9.868-18.45 17.827-34.599c0.018-9e-3 0.035-0.02 0.052-0.03"/></g></g></g><g transform="translate(766.22 347.97)"><path d="m0 0s21.093 44.196 94.418 41.183c73.324-3.014 117.52-33.147 117.52-33.147s64.285-1.005 27.12 71.315c-37.164 72.32-86.382 83.369-172.76 74.329-86.382-9.04-123.04-69.809-130.08-115.01-7.031-45.2 63.783-38.671 63.783-38.671" style="fill:#857666"/></g><g clip-path="url(#clipPath14444)" style="opacity:.39999"><g clip-path="url(#clipPath14448)" style="opacity:.5"><g transform="translate(842.9 414.15)"><path d="m0 0c0.939 0.221 1.87 0.433 2.786 0.632 10.136 2.199 20.548 2.819 30.824 1.937 23.815 3.758 46.361 11.752 67.372 24.318 12.457 7.45 24.098 15.963 35.378 24.958-34.14 37.47-79.02 42.746-146.75 35.657-56.38-5.9-91.568-33.838-111.17-65.099 16.709-9.419 38.33-12.978 56.359-16.129 21.33-3.729 43.378-6.363 65.208-6.274"/></g></g></g><g clip-path="url(#clipPath14472)" style="opacity:.2"><g clip-path="url(#clipPath14476)" style="opacity:.5"><g transform="translate(918.62 392.52)"><path d="m0 0c-21.827 13.71-69.997 12.159-73.727 12.135-26.646-6.702-63.662-21.793-73.808-49.279 9.695 12.443 35.336 36.006 89.547 33.779 32.428-1.333 59.145-7.97 78.875-14.959-5.581 7.369-12.452 13.026-20.887 18.324"/></g></g></g><g transform="translate(776.26 382.12)"><path d="m0 0s-4.018-30.133 14.062-42.187c18.081-12.053 31.138-19.084 31.138-19.084s-29.129-60.267-87.387-33.147c-14.564 6.78-29.542 19.247-31.765 26.194-10.421 32.566 1.13 80.277 1.13 80.277s5.524 32.143 35.658 28.125c30.133-4.018 37.164-40.178 37.164-40.178" style="fill:#857666"/></g><g transform="translate(936.97 395.18)"><path d="m0 0s9.04-37.164-4.018-51.227c-13.058-14.062-27.12-26.115-27.12-26.115s30.987-41.358 65.289-36.16c33.147 5.022 52.232 31.64 52.232 68.804 0 38.169-9.041 55.747-9.041 55.747s-20.088 22.098-43.191 12.053c-23.102-10.044-34.151-23.102-34.151-23.102" style="fill:#857666"/></g><g clip-path="url(#clipPath14508)" style="opacity:.2"><g clip-path="url(#clipPath14512)" style="opacity:.5"><g transform="translate(736.09 299.53)"><path d="m0 0c-12.353 2.698-24.656 7.502-34.103 15.463 0.11-0.364 0.209-0.736 0.324-1.097 2.223-6.948 17.201-19.414 31.765-26.194 44.735-20.824 72.292 9.874 82.676 25.249-23.437-14.691-53.962-19.252-80.662-13.421"/></g></g></g><g clip-path="url(#clipPath14536)" style="opacity:.2"><g clip-path="url(#clipPath14540)" style="opacity:.5"><g transform="translate(973.87 303.05)"><path d="m0 0c-14.804-2.179-32.726 0.832-43.329 12.382-4.556 4.962-8.195 10.588-8.847 17.038-8.777-8.549-15.865-14.629-15.865-14.629s30.987-41.358 65.289-36.16c24.476 3.708 41.271 19.2 48.391 42.01-13.24-10.948-29.833-18.314-45.639-20.641"/></g></g></g><g transform="translate(753.16 219.4)"><path d="m0 0-21.093-8.036s-11.049-30.133-11.049-46.204v-16.071l21.093 2.009 3.013-9.04s28.125 5.022 37.165 9.04l9.04 4.017-10.045 41.183s-16.071 7.031-15.066 11.049c1.004 4.017 2.009 10.044 2.009 10.044z" style="fill:#333"/></g><g transform="translate(974.07 225.55)"><path d="m0 0 21.664-6.338s13.402-29.163 14.676-45.184l1.274-16.02-21.186 0.331-2.287-9.251s-28.435 2.777-37.764 6.066l-9.33 3.288 6.748 41.849s15.463 8.283 14.144 12.209c-1.32 3.925-2.799 9.853-2.799 9.853z" style="fill:#333"/></g><g clip-path="url(#clipPath14572)" style="opacity:.2"><g transform="translate(733.07 207.35)"><path d="m0 0-7.031-33.147 14.062 25.111s-1.005-26.115 2.009-34.151c3.013-8.035 6.027-16.071 6.027-16.071s3.013 27.12 9.04 35.156c6.026 8.035 20.088 8.035 20.088 8.035l-25.111 10.045z" style="fill:#fff"/></g></g><g clip-path="url(#clipPath14588)" style="opacity:.2"><g transform="translate(965.1 202.33)"><path d="m0 0s14.062 0 15.066-4.018c1.005-4.018 8.053-49.225 8.053-49.225l4.001 52.238 10.044-15.066 9.429-28.252-5.411 32.27-13.058 26.115-17.075 5.022v-10.044z" style="fill:#fff"/></g></g><g transform="translate(739.38 192.03)"><path d="m0 0c-2.094-13.878-2.163-28.06-0.205-41.958-3.31 0.024-6.619 0.049-9.929 0.073 1.838 14.276 5.243 28.349 10.134 41.885"/></g><g transform="translate(994.35 194.34)"><path d="m0 0c3.596-12.365 7.191-24.729 10.786-37.094-4.161 0.35-8.322 0.699-12.482 1.049 0.565 12.015 1.131 24.03 1.696 36.045"/></g><g transform="translate(416.83 935.6)"><path d="m0 0s-123.54 144.63-108.48 201.88c15.066 57.251 150.53 197.18 599.62 186.82 391.71-9.04 439.92-168.74 439.92-168.74s3.013-51.223-84.369-177.78c-87.383-126.55-846.71-42.185-846.71-42.185" style="fill:#988575"/></g><g clip-path="url(#clipPath14616)" style="opacity:.2"><g transform="translate(1312.5 1083.8)"><path d="m0 0c-11.091-12.503-25.595-25.219-42.81-27.675-19.424-2.769-32.273 8.685-46.747 18.72 4.145-22.25 8.038-48.088-5.508-66.778-18.915-26.097-56.729-32.393-86.478-36.833-82.024-12.242-162.82-32.821-245.66-39.514-97.649-7.89-197.13-14.317-293.87 5.538-46.611 9.567-93.087 25.128-132.96 51.641-19.322 12.847-37.004 27.842-46.762 49.461-8.149 18.054-11.457 37.174-11.946 56.708-14.155-15.33-23.125-36.285-22.484-57.056 0.13-4.202-5.363-6.403-8.239-3.413-7.088 7.368-12.323 16.928-17.557 25.62-8.314 13.806-16.239 27.849-23.943 42.003-6.506 11.951-12.977 23.949-18.941 36.183-0.089-0.314-0.179-0.63-0.26-0.94-15.067-57.25 108.48-201.88 108.48-201.88s759.32-84.368 846.7 42.185c52.984 76.736 72.73 125.77 80.068 152.49-8.902-16.423-18.571-32.355-31.076-46.453"/></g></g><g clip-path="url(#clipPath14632)" style="opacity:.2"><g transform="translate(1303.6 1164.6)"><path d="m0 0c15.858-49.63-31.138-110.49-31.138-110.49s41.852 17.41 54.91 45.535 18.533 52.913 18.533 52.913-26.026 86.206-195.19 135.53c11.677-15.634 141.87-89.03 152.88-123.49" style="fill:#fff"/></g></g><g clip-path="url(#clipPath14648)" style="opacity:.2"><g transform="translate(360 1147.2)"><path d="m0 0c-15.858-49.63 15.156-115.85 15.156-115.85s-23.102 20.089-36.16 48.213c-13.058 28.125-21.301 55.592-21.301 55.592s26.026 86.206 195.19 135.53c-11.677-15.633-141.87-89.029-152.88-123.49" style="fill:#fff"/></g></g><g transform="translate(449.98 965.73)"><path d="m0 0s-45.532-240.98 183.8-442.94c201.88-177.78 304.33-96.422 304.33-96.422s117.52 60.264 213.94 238.04c81.796 150.81 81.356 204.9 81.356 204.9s-69.068 158.23-141.62 159.7c-298.31 6.026-641.81-63.277-641.81-63.277" style="fill:#988575"/></g><g clip-path="url(#clipPath14668)" style="opacity:.10001"><g transform="translate(502.45 736.5)"><path d="m0 0c31.331-33.014 74.409-54.643 119.6-60.051-19.133 9.086-35.617 23.671-46.967 41.554 44.338-27.892 96.455-43.271 148.83-43.92-8.048 4.087-16.097 8.174-24.145 12.261 23.322-8.729 49.442-9.794 73.398-2.995-16.23 6.379-32.461 12.758-48.691 19.137 44.658 2.687 87.727 16.686 131.28 26.906 43.556 10.219 89.667 16.624 132.65 4.21-4-6.155-8-12.31-12.001-18.465 23.958-10.963 51.948-1.535 76.057 9.094 36.159 15.941 71.147 34.538 104.59 55.591-7.473-7.773-14.946-15.545-22.42-23.317 17.448 12.937 30.563 31.617 36.805 52.421-24.635-8.012-49.272-16.025-73.907-24.037-14.771-4.804-29.626-9.628-44.993-11.889-19.217-2.828-38.767-1.583-58.187-2.009-48.584-1.066-96.462-12.606-145.04-14.021-41.6-1.21-83.461 5.013-124.73-0.391-44.816-5.869-89.514-25.337-133.66-15.665-17.242 3.777-99.599 45.529-124.93 58.381 10.419-38.67 27.09-75.648 49.169-109.06-4.239 15.422-8.478 30.844-12.716 46.266"/></g></g><g clip-path="url(#clipPath14684)" style="opacity:.2"><g clip-path="url(#clipPath14688)" style="opacity:.5"><g transform="translate(621.73 634.28)"><path d="m0 0c-1.587 3.281 81.596-37.674 96.422-42.185-24.105 17.485-45.269 57.999-42.184 57.251 33.802-8.196 73.43-43.647 108.94-39.871-13.728 11.303-41.479 37.094-51.686 51.924-1.713 2.488 16.107-7.362 19.043-8.556 40.433-16.447 82.826 7.897 122.58 20.608 37.763 12.076 75.286 11.962 115.46 6.51 2.567-0.348 28.497 17.091 27.694 15.217-2.238-5.221-29.035-30.807-30.816-35.645 129.92 28.949 246.23 209.78 246.23 209.78s-69.067 158.23-141.62 159.7c-298.31 6.026-641.81-63.278-641.81-63.278s-45.532-240.98 183.8-442.94c132.23-116.44 221.8-121.71 267.87-111.49-44.892-3.013-95.217 12.36-129.26 33.145-102.13 62.356-140.27 168.35-150.66 189.83"/></g></g></g><g transform="translate(452.69 1082.4)"><path d="m0 0c-32.114-10.891-54.614-39.859-57.547-73.643-4.413-50.829-5.601-125.49 18.678-166.58 39.172-66.29 141.62-111.49 141.62-111.49l-24.105 42.185s60.264-48.211 105.46-66.29c45.197-18.079 72.316-12.053 72.316-12.053s-50.263 41.416-36.158 30.132c30.132-24.106 162.61 21.092 213.94 21.092h120.53l-12.052-21.092s57.25 12.053 87.382 30.132 57.251 39.171 57.251 39.171l-33.145-51.224s143.47 82.146 150.66 114.5c12.053 54.238 33.145 84.37 6.026 168.74-27.118 84.369-54.237 129.57-385.69 120.53-219.72-5.992-357.34-41.115-425.16-64.114" style="fill:#9d897a"/></g><g clip-path="url(#clipPath14716)" style="opacity:.10001"><g transform="translate(480.95 1098.3)"><path d="m0 0c-31.364-9.23-72.135-85.204-74.999-113.84-4.309-43.079-6.016-60.872 17.696-95.695 38.257-56.184 138.31-94.49 138.31-94.49l-23.542 35.753s58.856-40.861 103-56.184c44.142-15.322 70.628-10.215 70.628-10.215s-49.089 35.101-35.314 25.538c29.428-20.43 158.81 17.877 208.94 17.877h117.71l-11.772-17.877s55.914 10.215 85.342 25.538 55.913 33.199 55.913 33.199l-32.37-43.414s140.12 69.621 147.14 97.044c11.771 45.968 31.216 54.276 4.73 125.78-26.485 71.506-80.355 125.89-375.52 119.38-214.6-4.733-329.66-28.908-395.89-48.4" style="fill:#fff"/></g></g><g clip-path="url(#clipPath14732)" style="opacity:.10001"><g transform="translate(1118.4 724.64)"><path d="m0 0s-9.375-74.999-60.267-156.69c-50.891-81.694-145.98-148.66-145.98-148.66s117.12 67.865 179.46 154.02c73.659 101.78 115.18 222.32 115.18 222.32z" style="fill:#fff"/></g></g><g clip-path="url(#clipPath14748)" style="opacity:.39999"><g transform="translate(804.06 882.91)"><path d="m0 0c-27.702 4.496-117.17 56.455-117.17 56.455l19.396-32.618s-88.691 48.927-109.77 65.236c-21.082 16.309-55.419 43.909-55.419 43.909l31.877-46.418s-113.79 101.54-124.16 142.88c-36.868 146.97-94.418 84.373-94.418 84.373s77.037 92.076 343.52 108.48c285.33 17.564 424.81-183.94 424.81-183.94s-4.703-56.455-13.368-71.509c-8.664-15.055-25.292-36.382-25.292-36.382l-1.775 37.636s-21.686-70.254-76.369-112.91c-54.683-42.654-116.49-71.509-116.49-71.509l19.725 31.364s-4.284-31.415-105.09-15.055"/></g></g><g transform="translate(807.73 884.01)"><path d="m0 0c-26.69 4.799-104.46 60.267-104.46 60.267l12.053-34.821s-77.677 52.231-95.087 69.642c-17.411 17.41-45.535 46.874-45.535 46.874l21.428-49.553s-70.981 61.606-91.07 96.427-40.178 72.32-38.838 103.12c1.339 30.803 65.978 403.02 336.15 420.53 289.28 18.75 377.67-458.03 377.67-458.03s-17.41-60.267-29.464-76.338c-12.053-16.071-33.481-38.839-33.481-38.839l6.696 40.178s-37.499-74.998-101.78-120.53c-64.284-45.535-132.59-76.338-132.59-76.338l26.785 33.481s-11.355-33.536-108.48-16.071" style="fill:#988575"/></g><g clip-path="url(#clipPath14768)" style="opacity:.3"><g transform="translate(509.08 1333.3)"><path d="m0 0s25.548 68.582 98.435 190.84c72.888 122.26 500.22-161.72 500.22-161.72l28.124-70.311s-14.414-78.94-166.04-104.21c-169.29-28.214-284.5 14.107-369.14 70.536-81.722 54.482-91.598 74.856-91.598 74.856"/></g></g><g clip-path="url(#clipPath14784)" style="opacity:.10001"><g transform="translate(836.53 933.57)"><path d="m0 0c1.385-10.63-5.909-15.307-8.036-14.062-25.956 15.192-20.562 52.248-40.313 73.872 1.998-6.071 5.93-23.916 3.318-21.246-27.401 28.002-41.179 64.591-59.57 98.437 0.192-13.705 0.89-27.355 3.433-40.899 0.639-3.404-29.776 86.754-43.416 131.05-3.35-9.176-5.176-18.797-5.387-28.647-0.081-3.74-13.773 43.636-17.766 61.603-21.742 97.84 12.53 142.27 43.25 209.31 28.666 62.564 72.899 125.94 138.1 154.07 0.107 0.046 0.211 0.066 0.317 0.101-18.924 4.091-38.99 5.701-60.269 4.322-243.68-15.793-301.98-351.5-303.18-379.28-1.208-27.782 28.065-64.555 46.183-95.96 18.119-31.406 158.7-126.56 158.7-126.56s81.606-59.595 104.46-68.303c42.187-16.071 61.717-16.549 74.329-12.053-15.948 7.053-21.397 42.34-34.151 54.24"/></g></g><g clip-path="url(#clipPath14800)" style="opacity:.10001"><g transform="translate(902.73 883.24)"><path d="m0 0-13.307-16.634s6.718 3.03 17.917 8.591c-1.589 2.639-3.123 5.322-4.61 8.043"/></g></g><g clip-path="url(#clipPath14816)" style="opacity:.10001"><g transform="translate(833.37 880.01)"><path d="m0 0c-2.692 1.496-5.355 3.046-7.984 4.656-59.358 27.392-111.33 70.035-148.79 123.62 1.153-7.079 3.193-13.923 6.363-20.666 1.656-3.522-2.756-7.64-5.695-4.395-40.538 44.751-56.608 100.38-69.87 157.55-0.926-5.744-1.526-11.557-2.416-17.333-0.462-2.994-5.416-3.649-6.628-0.866-27.944 64.186-13.992 141.25 4.79 206.02 24.996 86.199 69.575 167.57 134.07 230.74 12.521 12.266 25.888 23.915 40.072 34.436-249.12-38.064-309.77-387.98-311.06-417.81-1.34-30.803 18.75-68.302 38.838-103.12 20.089-34.821 91.07-96.426 91.07-96.426l-21.428 49.552s28.125-29.463 45.535-46.874c17.41-17.41 95.088-69.642 95.088-69.642l-12.054 34.821s77.773-55.467 104.46-60.267c9.315-1.675 17.842-2.988 25.641-3.998"/></g></g><g clip-path="url(#clipPath14832)" style="opacity:.2"><g transform="translate(1023.2 1492.8)"><path d="m0 0c21.4-32.382 38.715-67.865 54.145-102.87 44.034-99.909 81.762-224.1 21.442-325.58-2.255-3.794-7.174-1.063-6.627 2.795 1.46 10.306 2.621 20.313 1.654 30.431-16.409-31.316-24.128-66.273-39.42-98.142-10.768-22.443-25.026-42.94-40.741-62.269 2.785 1.91 5.568 3.838 8.344 5.804 64.284 45.534 101.78 120.53 101.78 120.53l-6.696-40.178s21.427 22.768 33.481 38.839c12.053 16.071 29.464 76.338 29.464 76.338s-40.607 218.99-156.83 354.3" style="fill:#fff"/></g></g><g transform="translate(424.33 1774.6)"><path d="m0 0s12.932-38.795 28.214-58.781c15.283-19.985 16.459-24.687 16.459-24.687l25.863 9.405-5.878-37.62s43.498-18.81 63.483-15.283 23.512 10.581 23.512 10.581-3.527 5.878 35.269 31.741c38.795 25.863 75.239 9.797 71.712 41.93-3.527 32.134 3.527 27.431 3.527 27.431s-111.68-14.107-159.88-10.58c-48.2 3.526-102.28 25.863-102.28 25.863" style="fill:#736458"/></g><g transform="translate(427.86 1768.7)"><path d="m0 0s61.132-51.727 83.468-63.483c22.337-11.756 55.254-19.985 55.254-19.985s28.215 17.634 49.376 35.268c20.634 17.195 52.902 31.741 52.902 31.741s-96.914-9.289-134.02-8.229c-41.146 1.176-106.98 24.688-106.98 24.688" style="fill:#988575"/></g><g clip-path="url(#clipPath14856)" style="opacity:.3"><g transform="translate(634.97 1704.3)"><path d="m0 0 19.419 34.151s-55.579-38.838-68.302-48.883-20.759-14.732-20.759-14.732-48.883 17.411-69.641 33.482c-20.759 16.071-59.597 50.222-59.597 50.222l36.16-56.249 27.454 0.67-4.687-36.83 16.071 16.071s45.535-20.089 53.571-16.741c8.035 3.349 26.115 17.411 34.82 22.768 8.706 5.357 35.491 16.071 35.491 16.071"/></g></g><g transform="translate(1183 1714.4)"><path d="m0 0c12.249 1.437 22.242-12.963 19.597-23.25" style="fill:none;stroke-linecap:round;stroke-miterlimit:10;stroke-width:4.702;stroke:#979797"/></g><g transform="translate(1170.8 1659.9)"><path d="m0 0c2.351 1.176 44.086 47.025 44.086 47.025l69.948-91.11-47.024-51.727z" style="fill:#e5e5e4"/></g><g transform="translate(1028.6 1766.3)"><path d="m0 0s61.489-17.032 90.522-10.581c31.741 7.054 91.697 25.864 91.697 25.864s-10.58-79.942-64.658-92.873c-54.078-12.932-92.873 9.404-92.873 9.404s-48.2 45.849-44.673 59.957c3.527 14.107 19.985 8.229 19.985 8.229" style="fill:#736458"/></g><g transform="translate(1045.1 1734.6)"><path d="m0 0s57.605-21.161 71.712-17.634 89.346 61.132 89.346 61.132-55.886-29.429-101.73-28.253c-45.849 1.175-74.607 12.97-74.607 12.97z" style="fill:#988575"/></g><g transform="translate(1192.3 1676.8)"><path d="m0 0c-33.211-4.261-31.126 30.886-20.113 36.322" style="fill:none;stroke-linecap:round;stroke-miterlimit:10;stroke-width:4.702;stroke:#979797"/></g><g clip-path="url(#clipPath14892)" style="opacity:.3"><g transform="translate(1060.2 1719.7)"><path d="m0 0s42.187-15.401 57.588-10.045c15.402 5.358 83.035 57.589 83.035 57.589l-17.411-44.196-8.705 12.723s-38.839-37.499-56.249-36.83c-17.41 0.67-58.258 20.759-58.258 20.759"/></g></g><g transform="translate(1001.2 1858.5)"><path d="m0 0s39.864-3.238 37.542 29.978c-2.307 32.996-66.874 84.223-66.874 84.223s74.411 3.388 107.53-40.178c33.776-44.423 48.09-81.046 39.066-97.137-9.022-16.085-56.332-64.962-101.42-66.414-26.029-0.839-36.662 23.472-41.003 43.709-3.253 15.159 2.734 30.573 14.999 38.914z" style="fill:#544741"/></g><g clip-path="url(#clipPath14912)" style="opacity:.3"><g transform="translate(1110.7 1853.4)"><path d="m0 0c2.758 12.682-0.691 19.693-6.924 30.943-8.862 15.996-22.058 39.179-34.721 50.875-23.548 21.748-50.505 27.338-80.462 37.103-2.441 0.174-4.676 0.29-6.662 0.363 19.737-10.118 38.244-15.791 55.582-30.349 11.796-9.905 39.139-34.247 35.741-52.09-8.823-46.339-64.172-43.057-91.586-48.164-5.608-8.296-7.839-18.862-5.588-29.353 0.92-4.286 0.189-1.837 1.755-6.199 31.054 2.243 67.603 10.841 97.089 21.579 12.158 4.427 32.536 10.389 35.776 25.292" style="fill:#c49a6c"/></g></g><g clip-path="url(#clipPath14928)" style="opacity:.10001"><g transform="translate(1038.8 1888.5)"><path d="m0 0c2.322-33.216-37.542-29.978-37.542-29.978l-5.34-3.632c2.918 0.895 5.845 1.722 8.8 2.31 10.262 2.04 20.651 1.041 30.758 4.561 21.537 7.501 35.852 24.915 21.293 48.179-13.52 21.603-32.474 38.398-55.409 47.768-6.549 2.676-12.54 6.36-18.75 9.678-1.834 0.98-5.778 3.631-9.463 5.371-0.768-0.016-1.221-0.034-1.221-0.034s64.567-51.227 66.874-84.223"/></g></g><g clip-path="url(#clipPath14944)" style="opacity:.2"><g transform="translate(1038.8 1888.5)"><path d="m0 0c6.709-32.698-42.882-33.61-42.882-33.61 2.918 0.895 5.845 1.722 8.8 2.31 10.262 2.04 12.975-1.651 23.06 1.862 21.489 7.483 36.108 12.77 21.583 36.103-13.489 21.667-39.677 43.987-39.677 43.987s24.345-27.399 29.116-50.652"/></g></g><g clip-path="url(#clipPath14960)" style="opacity:.10001"><g transform="translate(1065.4 1812.4)"><path d="m0 0c-16.066-5.026-32.577-8.966-48.877-12.534-11.177-2.446-24.125-5.287-35.822-2.828 6.051-15.263 16.901-28.691 36.36-28.064 45.087 1.452 92.397 50.329 101.42 66.414 0.771 1.376 1.359 2.915 1.79 4.588-15.793-13.11-35.894-21.639-54.87-27.576"/></g></g><g clip-path="url(#clipPath14976)" style="opacity:.2"><g transform="translate(1013.5 1788)"><path d="m0 0c-11.313-1.756-21.042 6.588-32.738 9.047 6.05-15.263 14.239-23.691 33.672-23.047 45.024 1.489 95.084 45.312 104.11 61.398 0.771 1.375-0.432-1.674 0-1e-3 -15.792-13.103-42.8-37.737-105.04-47.397"/></g></g><g clip-path="url(#clipPath14992)" style="opacity:.5"><g transform="translate(1075.8 1884.9)"><path d="m0 0c-9.956-24.074-31.048-42.723-55.613-49.252 19.156 3.027 38.051 8.199 56.241 15.415-5.213-6.05-12.894-9.123-20.284-11.953-16.141-6.18-32.279-12.153-48.407-17.917 4.828 3.605 9.66 7.214 14.498 10.827-4.899-1.743-10.358-1.852-15.389-0.311 5.241 4.18 10.489 8.364 15.742 12.553-4.128-0.039-8.25-0.078-12.366-0.117 14.086 4.286 29.103 7.189 41.274 15.734 12.205 8.569 19.061 19.208 23.851 33.623 1.023-4.177 2.072-4.688 0.453-8.602" style="fill:#c49a6c"/></g></g><g clip-path="url(#clipPath15008)" style="opacity:.5"><g transform="translate(1004.9 1968.9)"><path d="m0 0c15.516-2.801 48.559-17.538 60.591-28.477 12.108-11.007 23.016-28.076 31.065-42.626-25.074 32.218-58.377 57-94.963 70.974" style="fill:#c49a6c"/></g></g><g transform="translate(514.35 1435.5)"><path d="m0 0s-11.756 65.834 61.131 188.1c72.888 122.26 129.32 188.1 284.5 197.5 155.18 9.405 263.34-282.15 263.34-282.15l23.512-79.941s-17.666-261.58-169.29-286.85c-169.29-28.214-263.34 28.215-336.22 94.049-72.888 65.835-126.97 169.29-126.97 169.29" style="fill:#988575"/></g><g transform="translate(1122.6 1538.3)"><path d="m0 0s-19.72 53.13-54.38 113.29c-11.954-14.616-20.719-30.961-27.604-49.376-7.371-19.718-97.663-31.136-129.69-30.051-11.716 0.397-22.421 2.925-33.295 7.458-24.634 10.267-47.753 24.012-73.482 31.613-23.513 6.946-71.341 0.604-95.236 5.378-35.096 7.012-53.404 21.959-75.333 50.223-20.663-26.44-31.463-47.119-45.102-78.026-11.912-26.993-37.262-134.92-28.222-155.01 2.936-6.526 91.069-170.42 241.07-199.88 67.635-13.286 210.54 5.541 271.2 40.177 41.957 23.958 64.62 111.49 75.334 171.76 4.017 27.12-25.26 92.441-25.26 92.441" style="fill:#a79280"/></g><g clip-path="url(#clipPath15032)" style="opacity:.10001"><g transform="translate(603.01 1464.1)"><path d="m0 0c-6.987 64.95-2.289 127.06 21.712 186.9-13.905-19.567-26.416-40.048-36.194-62.203-11.912-26.993-37.262-134.92-28.222-155.01 2.48-5.511 59.891-121.09 169.75-169.75-26.027 18.99-117.52 111.49-127.05 200.06" style="fill:#fff"/></g></g><g clip-path="url(#clipPath15048)" style="opacity:.10001"><g transform="translate(1057.7 1618.5)"><path d="m0 0c7.055-6.974 15.655-11.84 23.594-17.686 8.688-6.398 16.211-15.605 22.948-23.965 1.784-2.214 3.527-4.453 5.234-6.713-10.278 23.266-26.297 56.711-47.164 91.637-1.202-4.161-2.739-8.254-4.276-12.356-3.694-9.862-9.169-22.185-0.336-30.917" style="fill:#fff"/></g></g><g clip-path="url(#clipPath15064)" style="opacity:.10001"><g transform="translate(558.63 1441.1)"><path d="m0 0c-1.176 13.607 2.543 176.3 132.59 285.26 35.66 29.88 103.24 67.047 142.16 91.807-135.82-15.008-189.89-80.101-258.57-195.3-72.888-122.26-61.132-188.1-61.132-188.1s54.078-103.45 126.97-169.29c32.331-29.201 78.853-59.912 124.23-78.846-45.839 27.919-196.87 145.98-206.25 254.46"/></g></g><g clip-path="url(#clipPath15080)" style="opacity:.2"><g transform="translate(792.33 1557.3)"><path d="m0 0c-9.547 9.129 27.05 40.735 13.057 52.231-26.669 21.913-99.529 25.266-116.52 35.156-56.937 33.151-44.196 54.24-44.196 54.24s14.219 15.109 27.12 31.138c9.699 12.05-15.106-2.037-13.058 3.013 4.773 11.768 25.705 45.776 25.705 45.776s-30.991 28.254-4.176 64.648c23.863 32.388 35.198 38.882 44.743 34.203 9.545-4.68 85.907-18.6 128.86-16.143 42.953 2.456 90.679 28.437 105 23.769 14.317-4.667 52.498-9.276 57.271-53.937 4.772-44.662-7.852-69.187-7.852-69.187s52.231-82.982 52.231-99.44c0-9.288-12.963-20.386-24.107-46.205-8.603-19.933 25.851-20.319 20.089-32.142-38.504-79.016-226.45-63.188-264.17-27.12"/></g></g><g transform="translate(927.49 1571.2)"><path d="m0 0s-58.826-3.82-95.99 32.34c-27.336 26.597-103.43 37.161-128.94 52.304-56.101 33.29-40.755 44.673-40.755 44.673s8.45 15.353 21.161 31.35c9.557 12.026 21.494 20.034 23.513 25.079 4.702 11.756-16.459 32.917-16.459 32.917s-30.535 28.33-4.115 64.659c23.513 32.329 34.681 38.795 44.086 34.092 9.405-4.702 84.644-18.809 126.97-16.458 42.321 2.351 89.346 28.214 103.45 23.512s51.727-9.405 56.429-54.078c4.703-44.673-4.702-58.78-4.702-58.78s51.726-65.835 51.726-82.293c0-9.288-15.469-41.053-26.449-66.844-8.477-19.912-11.355-34.444-20.575-43.663-21.161-21.161-89.346-18.81-89.346-18.81" style="fill:#988575"/></g><g clip-path="url(#clipPath15100)" style="opacity:.2"><g transform="translate(1013.7 1763.6)"><path d="m0 0c-1.556-9.706-23.383-25.966-24.462-28.501-2.273-5.341 7.206-15.261 9.936-20.383 17.624-33.073 25.558-71.236 22.579-108.59-20.195 17.945-46.867 28.439-73.875 29.067-43.304 1.006-83.739-22.158-126.89-25.899 4.113 5.54 8.225 11.079 12.338 16.618-4.278-5.087-11.66-7.321-18.041-5.461 14.063 20.401 24.882 46.822 32.329 70.454-7.36-6.907-22.206-19.768-31.138-15.067 17.076 17.076 22.098 29.129 23.598 44.751-25.703-3.117-47.974-2.414-73.82-0.89-6.766 0.399-27.456 2.812-30.803 8.705-4.639 8.169 12.031 16.276 8.379 24.931-1.756 4.161-5.865 6.951-10.187 8.261-12.226 3.705-25.964-6.508-36.696-13.437-10.732-6.931-21.224-11.133-33.977-10.389-2.238 0.131-4.69 0.67-6.007 2.484-1.5 2.065-0.956 4.915-0.347 7.393 5.22 21.259 10.441 42.518 15.662 63.777 3.522 14.34 5.608 25.187 12.616 38.184 7.008 12.996 19.432 28.191 33.471 32.768 1.71-6.64 1.988-13.644 0.809-20.398 4.044-1.492 8.088-2.985 12.132-4.477-5.774-15.864-7.172-33.297-3.999-49.879 29.335 20.37 66.213 29.598 101.68 25.444 7.724-0.904 16.166-2.903 20.63-9.271 3.084-4.398 3.637-10.042 5.658-15.018 5.285-13.009 31.571-19.528 45.57-18.432 13.999 1.097 15.693 8.331 26.35 17.474 5.175 4.44 10.053 9.308 15.874 12.86 12.592 7.684 66.171-4.779 69.504-9.964 5.561-8.65-8.897-19.955-4.371-29.189 0.974-1.986 2.716-3.484 3.902-5.351 2.316-3.648 2.278-8.306 1.594-12.573"/></g></g><g clip-path="url(#clipPath15116)" style="opacity:.2"><g transform="translate(718.68 1760.5)"><path d="m0 0c0.966 2.386 1.82 4.811 2.508 7.286 5.679 20.441 3.271 39.084-5.191 57.705-3.631 7.989-10.911 11.421-17.81 16.836-2.79 2.189-6.481 5.187-7.115 8.986-0.493 2.952-0.301 5.867 0.344 8.712-2.509-3.473-4.723-7.024-6.557-10.427-7.008-12.997-9.095-23.844-12.616-38.183-5.221-21.259-10.442-42.519-15.663-63.777-0.608-2.478-1.152-5.329 0.347-7.394 1.318-1.813 3.77-2.353 6.007-2.483 12.754-0.744 21.74-0.058 32.471 6.872 6.49 4.191 15.586 13.079 23.275 15.867"/></g></g><g clip-path="url(#clipPath15132)" style="opacity:.2"><g transform="translate(1008.2 1781.5)"><path d="m0 0c-4.526 9.234 9.932 20.539 4.371 29.189-1.827 2.841-18.734 7.86-35.721 10.56-6.6-4.11-12.838-8.86-19.155-14.368-20.052-17.483-46.474-32.787-74.263-26.205-13.372 3.167-24.056 12.235-37.124 15.856-16.231 4.499-34.179 4.482-50.485 0.096-23.517-6.325-56.816-55.896-52.176-64.064 3.346-5.894 15.834-12.492 22.6-12.89 21.084-1.245 39.815-1.903 59.945-0.425 7.022 2.47 14.382 4.074 20.589 8.243 10.997 7.386 19.628 16.81 25.385 28.783 7.105 14.774 27.09 16.146 40.8 9.8 17.398-8.053 23.066-20.014 37.596-31.502 11.196-8.852 40.178 1.004 58.608 20.563 2.381 3.017 4.126 5.946 4.525 8.44 0.685 4.267 0.722 8.925-1.594 12.574-1.185 1.867-2.928 3.364-3.901 5.35"/></g></g><g clip-path="url(#clipPath15148)" style="opacity:.2"><g transform="translate(717.06 1754.2)"><path d="m0 0c-15.625-13.595-59.343-53.992-44.259-68.322 20.089-19.084 58.37-34.61 78.898-37.996 20.528-3.385 42.224-9.49 55.387-25.602-5.506 19.823-28.183 30.026-45.893 40.496-17.711 10.47-54.513 40.79-55.772 44.925-0.966 3.174 6.12 34.892 11.639 46.499" style="fill:#fff"/></g></g><g clip-path="url(#clipPath15164)" style="opacity:.2"><g transform="translate(1058.1 1705.4)"><path d="m0 0c-0.601 4.651 0.231 2.268-1.595 6.588-7.385 17.47-21.125 40.116-35.282 52.739-6.556-11.944 20.561-49.261 22.224-62.784 2.08-16.905-9.739-47.887-7.703-64.798 2.023 24.178 25.464 44.193 22.356 68.255" style="fill:#fff"/></g></g><g transform="translate(851.64 1644.4)"><path d="m0 0c-7.697-12.733-17.101-24.432-27.881-34.685 1.279-15.829 20.862-22.143 36.635-23.983 54.148-6.315 109.12-5.486 163.06 2.458 2.245 0.331 4.694 0.784 6.154 2.522 1.225 1.458 1.487 3.484 1.584 5.386 2.109 40.957-24.568 84.175-51.53 123.48-18.904 27.556-40.178 59.263-68.805 57.254-3.724-0.262-27.341-0.686-30.555-2.586-3.528-2.086-6.623-5.56-7.431-9.578-6.879-34.208-22.95-50.279-38.651-75.698 12.475 6.756 24.54 14.271 36.103 22.49-11.418-26.457-25.264-51.866-41.307-75.803 7.752 2.332 15.323 5.259 22.628 8.747" style="fill:#c6b198"/></g><g clip-path="url(#clipPath15184)" style="opacity:.2"><g transform="translate(872.87 1764.6)"><path d="m0 0c-1.209-0.022 0.672-2.345-0.538-2.392-7.139-32.547-22.789-48.499-38.113-73.306 12.475 6.756 24.539 14.271 36.104 22.49-11.419-26.457-25.265-51.866-41.307-75.803 7.75 2.332 15.323 5.259 22.627 8.747-7.696-12.732-17.1-24.432-27.881-34.685 1.143-14.135 8.223-14.653 22.81-17.203 16.071 55.579 31.138 123.55 26.298 172.15"/></g></g><g clip-path="url(#clipPath15200)" style="opacity:.2"><g transform="translate(979.66 1719.5)"><path d="m0 0c-18.905 27.556-40.178 59.262-68.805 57.254-3.724-0.262-27.341-0.686-30.555-2.586-1.952-1.154-3.754-2.743-5.127-4.603-1.147-2.354 29.274 0.342 44.388-0.345 14.732-0.669 28.917-25.664 40.512-45.2 9.698-16.34 30.861-63.276 39.843-104.8 1.518-7.018-74.998-22.768-121.2-11.719-5.392 1.29-10.045 65.289-10.045 65.289s-21.363-77.052-21.428-78.347c6.054 0.711 141.96-21.093 176.21-6.33 2.084 0.898 4.694 0.784 6.153 2.521 1.225 1.458 1.487 3.484 1.585 5.386 2.108 40.958-24.568 84.176-51.53 123.48" style="fill:#fff"/></g></g><g transform="translate(700.47 1824.8)"><path d="m0 0s-44.471 6.69-48.39 52.141c-4.472 51.872 59.563 104.23 59.563 104.23s-56.955 0.899-91.978-41.29c-34.837-41.966-60.343-95.358-53.433-123.38 6.965-28.252 52.272-73.239 78.521-79.779 26.54-6.614 52.967 19.566 52.967 19.566s15.135 12.793 12.281 29.876c-2.843 17.011-9.531 38.643-9.531 38.643" style="fill:#544741"/></g><g clip-path="url(#clipPath15220)" style="opacity:.10001"><g transform="translate(708.55 1793.8)"><path d="m0 0c-4.947-17.376-14.594-32.262-31.892-31.827-14.903 0.374-36.274 11.836-45.918 23.489-11.744 14.191-24.857 23.402-30.467 41.753-10.664 34.891 14.764 78.592 33.34 107.19 9.158 14.102 20.128 27.392 32.807 37.951-15.765-5.926-32.925-15.831-46.75-32.484-34.837-41.967-60.343-95.359-53.433-123.38 6.965-28.252 52.272-73.239 78.521-79.78 26.54-6.614 52.967 19.566 52.967 19.566s15.135 12.793 12.281 29.876c-0.414 2.477-0.911 5.054-1.456 7.647"/></g></g><g clip-path="url(#clipPath15236)" style="opacity:.2"><g transform="translate(710 1786.1)"><path d="m0 0c-0.414 2.477-0.911 5.054-1.456 7.647-4.09-14.368-11.412-27.01-23.616-30.719-8.986-6.24-22.684-5.677-34.042-2.261-27.645 8.311-44.603 31.123-59.133 56.368-8.53-2.464-17.626-3.447-25.482-0.838 7.078-28.26 52.275-73.109 78.481-79.639 26.541-6.614 52.968 19.566 52.968 19.566s15.134 12.793 12.28 29.876"/></g></g><g clip-path="url(#clipPath15252)" style="opacity:.3"><g transform="translate(643.42 1850.2)"><path d="m0 0c0.582 15.655 4.143 30.701 9.713 44.898 8.533 45.154 58.515 86.047 58.515 86.047s-6.353 0.091-16.087-1.333c-21.22-8.943-39.176-27.389-52.335-46.973-14.718-21.905-31.564-54.438-27.853-82.696 2.332-17.763 7.529-32.483 17.755-46.226 8.86-11.906 23.872-28.788 38.66-31.481 4.765-0.868 8.864-0.29 12.384 1.359-24.556 16.738-41.993 42.988-40.752 76.405" style="fill:#c49a6c"/></g></g><g clip-path="url(#clipPath15268)" style="opacity:.5"><g transform="translate(706.07 1979.7)"><path d="m0 0c-11.452-8.593-21.649-19.127-30.095-31.082 5.045 6.496 10.095 12.998 15.148 19.503-26.92-13.354-49.725-36.379-63.969-64.506 10.941 27.224 30.233 50.509 54.048 65.176-20.689-5.25-42.283-11.053-57.854-26.777 10.151 12.384 23.748 20.971 38.039 26.63 14.353 5.683 29.503 8.593 44.683 11.056" style="fill:#c49a6c"/></g></g><g clip-path="url(#clipPath15284)" style="opacity:.5"><g transform="translate(658.49 1824.8)"><path d="m0 0c10.058-8.361 23.296-12.033 35.882-9.91-18.432 5.685-34.737 18.73-45.172 36.031 1.838-7.444 3.679-14.904 5.524-22.38-8.13 9.81-14.856 20.961-19.883 32.943-4.078-24.998 1.656-51.804 15.543-72.224-7.927 6.023-14.372 14.048-20.708 21.959-5.018 6.265-10.249 13.05-11.189 21.365 9.959-32.577 37.916-57.778 69.344-62.059-27.76 11.565-44.791 44.126-47.225 76.286 6.387-17.364 17.478-32.662 31.573-43.461-5.509 6.362-10.138 13.619-13.689 21.45" style="fill:#c49a6c"/></g></g><g transform="translate(901.04 1876.8)"><path d="m0 0s21.023 8.863 19.136 7.014c-8.705-8.531-20.164-14.265-32.217-16.075-2.314-0.348-2.878-3.403-0.823-4.521l4.52-2.46c-18.619-1.843-34.813 10.093-53.511 10.752-8.412 0.296-33.505 1.175-43.498 3.527-1.082 0.254 1.132 4.2 1.564 5.224 7.914 18.747 23.301 34.156 41.854 42.456 2.555 1.144-15.73-22.845-18.139-34.526-0.525-2.552 26.147 19.811 40.413 25.16 2.617 0.981-9.754-15.737-11.681-23.176-0.588-2.269 27.497 12.496 41.022 15.538 2.741 0.617-13.262-21.694-11.039-21.019l24.996 7.589c2.348 0.713-4.978-16.428-2.597-15.483" style="fill:#544741"/></g><g transform="translate(917.31 1844.7)"><path d="m0 0s-4.703-45.457 0-53.294c4.702-7.838 42.322 3.135 57.997 0 15.674-3.135 31.349-7.838 31.349-7.838s12.54 34.485 7.838 42.322c-4.703 7.838-31.35 21.945-51.727 23.513-20.377 1.567-45.457-4.703-45.457-4.703" style="fill:#c6b198"/></g><g clip-path="url(#clipPath15308)" style="opacity:.3"><g transform="translate(916.95 1818.1)"><path d="m0 0c0.161-3.65-0.617-16.802 4.449-17.914 1.294-0.284 12.22-2.763 12.22-2.763s-2.667 33.669 0.335 39.174c3.014 5.524 14.341 4.72 23.609 4.182 20.261-1.176 38.698-8.937 57.398-15.922-0.134 0.397-0.286 0.769-0.475 1.084-4.703 7.838-31.35 21.945-51.727 23.512-19.222 1.479-42.617-4.014-45.21-4.642-1.584-8.993-0.913-19.616-0.599-26.711" style="fill:#fff"/></g></g><g clip-path="url(#clipPath15324)" style="opacity:.3"><g transform="translate(976.48 1799.8)"><path d="m0 0c-14.89 0.073-27.895-3.55-42.857-2.401-7.373 0.567-16.303 1.712-16.062 10.117 0.285 10.009-0.207 26.64 1.331 36.758-4.465-0.87-5.604-7.583-5.604-7.583s-7.804-45.516-3.102-53.354c4.702-7.837 45.424 3.195 61.099 0.06s31.35-7.837 31.35-7.837 7.326 2.42 6.657 12.465c-9.961 4.909-22.451 11.724-32.812 11.775"/></g></g><g transform="translate(732.34 1814.9)"><path d="m0 0s15.675 22.728 51.727 30.566c36.052 7.837 83.076-0.392 83.076-0.392s6.27-16.066 6.27-33.309c0-17.242-4.703-25.079-4.703-25.079s-47.024 4.702-68.969-3.136c-21.944-7.837-39.187-28.214-48.591-21.944-9.405 6.27-21.945 15.674-23.513 26.647-1.567 10.972 4.703 26.647 4.703 26.647" style="fill:#c6b198"/></g><g clip-path="url(#clipPath15344)" style="opacity:.3"><g transform="translate(853.6 1828)"><path d="m0 0c2.284-11.028 3.475-19.354 1.507-29.631 7.031 0 9.751-2.655 16.573-5.524 0.804 3.874 1.734 12.591 1.734 18.93 0 17.242-6.27 33.309-6.27 33.309s-47.024 8.229-83.076 0.391c-24.775-5.385-39.926-17.802-46.981-25.045 5.996 3.95 12.754 6.944 19.436 9.309 17.489 6.189 36.322 9.931 54.873 10.78 6.16 0.281 30.951-0.244 35.173-1.47 5.535-1.608 5.868-5.432 7.031-11.049" style="fill:#fff"/></g></g><g clip-path="url(#clipPath15360)" style="opacity:.3"><g transform="translate(865.7 1796.4)"><path d="m0 0c-19.515 2.679-38.576 4.217-58.031-0.213-18.084-4.118-33.588-12.273-50.337-19.793-18.371-8.248-29.768 13.739-28.666 30.828-1.234-1.457-1.843-2.335-1.843-2.335s-6.27-15.675-4.703-26.647c1.568-10.973 14.108-20.378 23.512-26.648 9.406-6.27 26.648 14.108 48.592 21.945 21.945 7.837 68.97 3.135 68.97 3.135s8.492 1.127 7.488 17.701c-0.599-0.254-4.22 1.923-4.982 2.027"/></g></g><g transform="translate(755.07 1755.4)"><path d="m0 0s5.878-1.567 9.51 1.936c2.613-9.426 9.029-26.915 21.056-28.975 16.184-2.772 44.869-2.547 58.092 4.265 7.913 4.076 14.784 18.89 15.581 24.849 2.446 18.294 3.133 29.471 3.133 29.471s-50.796 4.539-67.392-1.813c-17.197-6.583-39.98-29.733-39.98-29.733" style="fill:#3b322e"/></g><g transform="translate(769.67 1764.3)"><path d="m0 0s7.544-25.961 21.063-28.9 34.783-3.02 44.673 0.784c10.189 3.918 18.418 12.147 18.908 21.063 0.912 16.6-4.702 28.508-4.702 28.508s-39.678 2.351-54.078-3.233c-14.402-5.584-25.864-18.222-25.864-18.222" style="fill:#fff"/></g><g clip-path="url(#clipPath15384)" style="opacity:.10001"><g transform="translate(853.25 1773.4)"><path d="m0 0c-0.551-8.999-3.092-17.551-10.449-24.334-9.646-8.895-24.174-12.263-36.918-8.676-10.693 3.01-22.441 9.857-21.668 22.737 0.338 5.628 1.82 11.749 4.989 16.414-11.285-6.168-19.538-15.242-19.538-15.242s7.543-25.961 21.062-28.9c13.52-2.939 34.784-3.021 44.674 0.783 10.189 3.919 18.418 12.149 18.908 21.063 0.338 6.155-0.223 11.658-1.06 16.155"/></g></g><g transform="translate(830.7 1760.7)"><path d="m0 0c0-10.064-8.158-18.222-18.222-18.222s-18.222 8.158-18.222 18.222c0 10.063 8.158 18.222 18.222 18.222s18.222-8.159 18.222-18.222" style="fill:#0d72b9"/></g><g transform="translate(835.68 1751)"><path d="m0 0c0-5.076-4.115-9.191-9.191-9.191s-9.191 4.115-9.191 9.191 4.115 9.191 9.191 9.191 9.191-4.115 9.191-9.191" style="fill:#fff"/></g></g><g clip-path="url(#clipPath15408)"><g transform="translate(1003.7 1775.6)"><path d="m0 0s-4.608-6.15-7.372-3.538c-1.238-8.142-4.605-23.268-12.695-25.844-7.525-2.397-18.982-3.951-28.105-3.056-4.143 2.068-11.784 10.493-20.797 17.351-2.523 14.031-3.412 26.12-3.412 26.12s31.3 8.814 42.553 5.429c11.979-3.603 29.828-16.462 29.828-16.462" style="fill:#3b322e"/></g><g transform="translate(992.37 1777.4)"><path d="m0 0s-3.599-22.303-12.586-25.769c-8.794-3.391-22.519-4.948-28.974-2.607-6.548 2.375-12.055 8.228-12.869 15.163-1.514 12.901 1.204 22.76 1.204 22.76s24.797 5.938 34.578 2.914c10.007-3.095 18.647-12.461 18.647-12.461" style="fill:#fff"/></g><g clip-path="url(#clipPath15424)" style="opacity:.10001"><g transform="translate(937.65 1776.9)"><path d="m0 0c0.856-6.997 2.9-13.49 7.811-18.246 6.524-6.319 15.939-7.955 23.983-4.109 6.876 3.288 14.352 9.894 13.041 20.471-0.572 4.617-1.946 9.524-4.36 13.042 8.013-3.936 14.248-10.676 14.248-10.676s-3.598-22.303-12.586-25.769c-8.794-3.391-22.519-4.948-28.974-2.607-6.548 2.375-12.056 8.228-12.869 15.163-0.562 4.784-0.541 9.137-0.294 12.731"/></g></g><g transform="translate(966.62 1768.3)"><path d="m0 0c0-6.976-5.655-12.632-12.632-12.632-6.976 0-12.631 5.656-12.631 12.632s5.655 12.632 12.631 12.632c6.977 0 12.632-5.656 12.632-12.632" style="fill:#0d72b9"/></g><g transform="translate(970.07 1761.6)"><path d="m0 0c0-3.519-2.853-6.371-6.372-6.371s-6.371 2.852-6.371 6.371 2.852 6.371 6.371 6.371 6.372-2.852 6.372-6.371" style="fill:#fff"/></g></g><g clip-path="url(#clipPath15448)"><g clip-path="url(#clipPath15456)" style="opacity:.2"><g transform="translate(751.01 1384.7)"><path d="m0 0c0-2.62-36.199-82.516 49.346-97.408 73.095-12.725 99.226 29.282 165.68 37.882 81.338 10.525 105.64-23.61 129.95-4.03 24.308 19.579 23.373 34.01 19.633 49.81-2.267 9.58-9.349 23.778-9.349 23.778s-101.91 1.26-146.78-5.662c-44.876-6.921-85.077-38.396-129.02-28.742s-79.468 24.372-79.468 24.372"/></g></g><g transform="translate(761.19 1413.7)"><path d="m0 0c0-2.547-40.62-91.955 42.539-106.43 71.056-12.37 96.713 25.197 161.32 33.557 79.069 10.231 97.79-17.047 126.93-8.595 28.894 8.382 30.43 42.004 26.795 57.362-2.205 9.313-16.519 27.292-16.519 27.292s-99.945-7.218-143.57-13.946-82.704-37.325-125.42-27.94c-42.715 9.384-72.076 38.701-72.076 38.701" style="fill:#d09899"/></g><g clip-path="url(#clipPath15476)" style="opacity:.3"><g transform="translate(782.91 1407.9)"><path d="m0 0c0-1.924-36.735-70.803 38.471-79.024 64.262-7.024 87.465 22.198 145.89 30.624 71.508 10.314 88.439-9.684 114.79-2.346 26.132 7.277 27.521 32.73 24.233 44.215-1.994 6.964-14.94 20.08-14.94 20.08s-90.387-8.718-129.84-15.227c-39.453-6.509-74.796-30.903-113.43-25.208-38.631 5.695-65.184 26.886-65.184 26.886" style="fill:#fff"/></g></g><g transform="translate(1106.7 1391.8)"><path d="m0 0c0.972 0 0.972 1.507 0 1.507s-0.972-1.507 0-1.507m1.935-5.53c0.157 0.465 0.531 0.818 0.684 1.318 0.164 0.535 0.17 1.021 0.156 1.575-0.057 2.283-3.484 2.283-3.541 0-0.014-0.554-8e-3 -1.04 0.156-1.575 0.153-0.5 0.527-0.853 0.683-1.318 8e-3 -0.022 0.029-0.029 0.037-0.049-0.041-0.016-0.087-0.011-0.125-0.034-0.753-0.463-0.92-1.026-0.944-1.696-0.511-0.314-0.925-0.823-1.078-1.35-0.278-0.951-0.522-1.893-0.719-2.865-0.112-0.551-0.09-1.743-0.272-2.124-0.136-0.285-0.081-0.632 0.076-0.907-1.487 0.297-3.458-0.257-4.114-1.763-0.416-0.956-0.812-1.891-0.812-2.959 0.044-0.327 0.088-0.655 0.132-0.983-0.122 0.581-0.103 0.376 0.057-0.613 0.067-0.243 0.179-0.454 0.292-0.665 0.367-2.011 2.531-3.149 4.219-1.6 0.101 0.093 0.208 0.179 0.309 0.27 1.357 0.705 2.257 2.071 2.718 3.634 0.457 1.55-0.258 3.522-1.739 4.273-0.031 0.015-0.062 0.029-0.093 0.045 0.049 0.025 0.098 0.038 0.147 0.076 0.359 0.277 0.82 0.309 1.224 0.607 0.661 0.486 1.232 0.901 1.704 1.605 0.487 0.725 0.87 1.441 1.085 2.294 0.288 1.142 0.047 1.837-0.443 2.745 0.077 0.548-0.044 1.064-0.374 1.481 0.247 0.1 0.47 0.267 0.575 0.578m-11.552-18.412c-3.559-0.128-6.091-2.864-9.17-4.426-3.099-1.571-7.132-2.256-9.648-4.721-0.657-0.643-0.796-2.01 0-2.629 3.418-2.66 7.825-1.644 11.742-0.666 3.92 0.979 9.581 3.686 10.503 7.942 0.472 2.176-1.01 4.586-3.427 4.5m-35.504-8.381c-5.118 0.139-10.777 1.226-15.444-1.328-0.427-0.234-0.365-0.809 0-1.057 4.371-2.967 10.36-2.548 15.444-2.795 4.625-0.224 10.347-2.839 13.987 0.946 0.588 0.61 0.497 1.411 0 2.031-3.231 4.03-9.396 2.078-13.987 2.203m-23.906 1.561c-1.582 0.19-3.23 0.253-4.791-0.112-1.478-0.345-1.746-2.51-0.422-3.227 1.404-0.76 3.007-1.131 4.576-1.364 1.716-0.254 3.091-0.548 4.719 0.191 1.104 0.5 1.322 2.333 0.4 3.099-1.365 1.133-2.775 1.208-4.482 1.413m-34.34 1.752c-7.87 0.07-15.714-0.827-23.301-2.909-0.305-0.084-0.247-0.564 0.075-0.555 7.75 0.219 15.47 0.698 23.226 0.669 6.808-0.025 13.405-1.99 20.151-1.01 0.746 0.109 0.893 1.333 0.214 1.635-6.379 2.837-13.478 2.11-20.365 2.17m-58.064-7.906c-2.44 1.084-4.966-0.441-6.753-2.07-0.55-0.502 0.151-1.332 0.77-0.998 1.892 1.022 4.102 1.093 5.983 2.091 0.349 0.186 0.389 0.804 0 0.977m-45.617-12.781c-2.051 0.024-3.641-0.985-5.273-2.13-0.679-0.476-0.282-1.608 0.581-1.376 1.927 0.515 3.737 1.073 5.042 2.662 0.265 0.322 0.111 0.838-0.35 0.844m-12.377-5.374c-0.569-0.484 0.056-1.252 0.665-1.141 1.12 0.206 3.016 0.477 3.257 1.848 0.048 0.271-0.027 0.546-0.281 0.691-1.29 0.733-2.706-0.603-3.641-1.398m-16.356-4.708c-0.903-0.864 0.241-2.195 1.283-1.665 0.989 0.504 2.023 0.825 3.113 1.029 1.016 0.19 2.243 0.555 2.987 1.302 0.318 0.318 0.358 0.919 0 1.231-2.273 1.982-5.644-0.232-7.383-1.897m-59.861 0.961-0.67 0.019c-2.216 0.063-2.216-3.501 0-3.437l0.67 0.019c2.191 0.062 2.191 3.336 0 3.399m-6.799 2.824c-1.203 0.763-2.82 1.37-4.213 1.677-0.616 0.136-1.325 0.388-1.963 0.388-0.156-0.02-0.276-0.036-0.372-0.049-0.616 0.119-0.956 0.16-1.62 0.122-0.614-0.035-1.066-0.575-0.907-1.192 0.861-3.358 4.319-5.755 7.735-5.891 2.748-0.109 3.475 3.592 1.34 4.945m55.086-4.338c-0.114 0.702-0.516 1.343-1.309 1.734-4.255 2.105-8.714 1.641-13.387 1.374-1.582-0.09-3.164-0.229-4.746-0.345-3.627 0.533-6.965 0.411-10.56-0.734-0.169-0.054-0.316-0.126-0.472-0.19-1.133-0.108-2.267-0.205-3.399-0.315-1.516-0.121-2.66-0.793-3.447-1.726-1.164 0.136-2.346-0.028-3.103-0.614-1.516 0.646-2.733 0.687-4.491 0.552-0.826-0.064-0.987-1.159-0.194-1.434 1.669-0.578 2.86-0.849 4.494-0.606 0.447-0.579 1.191-0.983 2.036-1.216-0.115-2.544 1.437-5.043 4.705-4.787 0.332 0.027 0.663 0.058 0.995 0.086 0.309-0.083 0.639-0.138 0.997-0.152 0.516-0.02 1.032-0.046 1.548-0.066 0.445-0.164 0.922-0.288 1.467-0.315 1.271-0.064 2.475 9e-3 3.651 0.152 0.291 0.022 0.563 0.068 0.819 0.139 1.636 0.27 3.224 0.718 4.782 1.394 0.783-0.224 1.648-0.174 2.327 0.234 0.064 7e-3 0.129 0.013 0.194 0.019 1.549 0.142 3.198 0.261 4.86 0.431 0.429-0.084 0.875-0.095 1.316 0.04l0.636 0.195c2.457 0.338 4.871 0.884 6.991 1.92 3.93-0.589 9.356-1.219 10.825 2.38 0.179 0.436-0.064 0.885-0.32 1.214-1.513 1.948-4.406 1.574-7.215 0.636" style="fill:#fff"/></g><g clip-path="url(#clipPath15496)" style="opacity:.3"><g transform="translate(750.14 1478)"><path d="m0 0s-19.518-36.213 5.357-83.704c14.925-28.495 55.765-53.701 76.338-52.231 54.861 3.919 97.06 35.148 143.3 37.499 46.24 2.351 75.692-17.242 103.12 0 27.431 17.243 28.641 32.968 34.821 46.875 16.071 36.16-3.371 71.25-3.371 71.25s-60.256-47.084-161.36-65.893c-101.1-18.81-198.21 46.204-198.21 46.204"/></g></g><g transform="translate(743.32 1520.2)"><path d="m0 0s-2.979-67.102 21.895-114.59c14.925-28.495 51.581-48.327 72.154-46.857 54.862 3.918 91.697 32.917 137.94 35.268s67.401-21.161 94.832-3.919 29.467 30.171 36.052 43.89c9.405 19.593 3.527 73.671 3.527 73.671s-60.74 88.562-161.84 69.753c-101.1-18.81-204.56-57.213-204.56-57.213" style="fill:#a79280"/></g><g transform="translate(1094.7 1433.9)"><path d="m0 0c10.487 23.776 1.294 49.554-18.716 65.353-19.412 15.327-44.674 19.636-68.852 19.243-24.206-0.394-48.058-4.448-71.764-9.069-19.461-3.794-39.079-6.803-58.505-10.748-39.119-7.945-98.484-27.848-88.967-79.637 5.179-28.185 29.73-48.294 58.246-50.238 26.451-1.804 51.735 7.219 75.778 17.263 2.488 1.039 4.151-0.857 4.307-2.988 15.99 5.576 31.871 10.13 49.05 11.004 22.781 1.158 39.469-3.957 53.824-7.388 26.777 5.684 54.361 21.727 65.599 47.205" style="fill:#c6b198"/></g><g transform="translate(1083.1 1408)"><path d="m0 0c-18.749-3.034-42.105-2.375-56.572 11.876-16.059 15.82-14.516 41.767-5.178 60.786 11.655 23.734 21.436 53.003 43.138 69.605-27.821 21.842-61.498 37.429-116.66 27.166-40.582-7.55-81.538-18.257-116.04-28.371 13.395-13.426 21.949-31.445 35.58-44.696 10.735-10.436 31.215-16.105 28.986-34.455-0.15-1.231-0.962-2.518-2.047-3.221 7.802-11.115 16.156-22.811 15.413-36.629-0.941-17.482-19.01-32.135-32.947-40.094-22.957-13.108-54.218-22.284-81.328-16.636 14.653-9.819 30.652-15.363 41.871-14.561 54.862 3.918 91.698 32.916 137.94 35.267 46.241 2.352 67.402-21.16 94.833-3.918 11.767 7.396 18.854 13.998 23.638 20.21-3.525-0.963-7.076-1.755-10.625-2.329" style="fill:#d09899"/></g><g clip-path="url(#clipPath15524)" style="opacity:.2"><g transform="translate(680.5 1554.3)"><path d="m0 0c17.914 31.21 54.575 29.129 54.575 29.129s70.555-13.716 64.285-87.387c-0.8-9.403-39.843 4.688-61.272-12.723-21.428-17.41-42.856-57.588-42.856-57.588s-52.836 62.183-14.732 128.57"/></g></g><g transform="translate(684.52 1544.3)"><path d="m0 0c17.914 31.21 58.927 30.803 58.927 30.803s75.107-6.232 68.837-79.903c-0.8-9.403-48.748-4.47-70.176-21.881-21.428-17.41-42.856-57.588-42.856-57.588s-52.836 62.183-14.732 128.57" style="fill:#a79280"/></g><g transform="translate(1078 1590.8)"><path d="m0 0s43.498 13.324 60.348-32.134c11.454-30.899-2.351-88.562-2.351-88.562s-13.324 20.377-27.431 22.729c-14.107 2.351-44.673 14.891-44.673 14.891s-13.694 12.823-17.243 30.565c-9.404 47.025 31.35 52.511 31.35 52.511" style="fill:#a79280"/></g><g transform="translate(1123.2 1483.8)"><path d="m0 0c-6.348 8.368-16.652 12.168-26.887 9.412-3.748-1.009 8.014-4.968 11.085-5.681 6.087-26.897 1.557-55.347-17.258-76.302-19.874-22.135-46.474-23.235-73.815-17.971-8.958 1.724-27.143 5.224-35.839 5.677-5.394 0.281-8.018 39.083-13.393 38.839-5.213-0.237 1.905-41.43-3.348-42.187-5.253-0.756-16.196-2.235-21.546-3.536-23.876-5.807-46.532-16.165-68.683-26.762-25.952-8.875-58.577-4.418-81.702 11.857-26.737 18.817-37.053 58.499-43.434 88.728-0.141 0.668-0.443 1.161-0.83 1.512 3.078 2.997 7.009 5.145 11.347 6.052 3.803 0.795-19.478 10.541-23.832-18.923-0.567-3.839 7.052 4.794 8.117 6.927 6.626-30.628 17.569-68.193 43.357-87.802 22.202-16.882 47.297-25.931 82.087-17.361 29.801 7.341 55.638 26.221 85.888 32.349 16.275 3.297 32.881 3.464 49.246 0.864 14.986-2.382 29.401-6.244 44.707-5.439 22.018 1.159 41.493 15.274 53.778 32.799 13.615 19.421 16.14 44.726 11.925 67.627 1.421-1.033 11.381-3.777 9.03-0.679" style="fill:#471c1d"/></g><g clip-path="url(#clipPath15552)" style="opacity:.10001"><g transform="translate(776.83 1494.8)"><path d="m0 0c-1.917 15.581-13.196 29.635-27.992 34.88-14.796 5.246-32.408 1.434-43.711-9.46-10.588-10.205-15.216-25.377-15.592-40.078s3.053-29.203 6.461-43.508c0.535-2.249 1.123-4.6 2.671-6.316 4.258 32.279 31.064 60.288 63.126 65.957 5.072 0.897 10.634 1.198 15.037-1.475" style="fill:#fff"/></g></g><g clip-path="url(#clipPath15568)" style="opacity:.10001"><g transform="translate(1089.2 1528.1)"><path d="m0 0c1.002-0.899 2.474-0.955 3.818-1.041 14.124-0.904 27.166-11.251 31.259-24.799 1.76-5.828 2.057-12.245 5.341-17.372 9.33 20.878 13.623 45.879 3.197 66.232-1.448 2.826-3.234 5.597-5.861 7.381-4.154 2.821-9.811 2.653-14.421 0.661-4.609-1.992-8.344-5.562-11.694-9.303-4.13-4.612-7.841-9.598-11.074-14.877-1.311-2.14-2.432-5.206-0.565-6.882" style="fill:#fff"/></g></g><g transform="translate(753.41 1478)"><path d="m0 0c-5.132 2.015-11.517-2.39-15.182-5.618-4.153-3.658-8.142-9.9-6.602-15.612 0.117-0.43 0.726-0.515 0.947-0.124 2.449 4.325 3.798 8.73 7.324 12.409 1.798 1.876 4.007 3.253 6.315 4.404 2.391 1.192 5.151 1.397 7.429 2.777 0.768 0.465 0.523 1.468-0.231 1.764" style="fill:#fff"/></g><g transform="translate(1098.2 1496.8)"><path d="m0 0c-0.474-0.458 0.016-1.202 0.618-1.062 5.422 1.257 10.123 1.144 15.09-1.591 4.008-2.207 6.354-6.335 10.321-8.502 0.689-0.376 1.586 0.24 1.349 1.037-2.847 9.569-19.192 18.042-27.378 10.118" style="fill:#fff"/></g><g transform="translate(820.12 1600.2)"><path d="m0 0c4.703-1.567 90.914-20.377 137.94-12.54 47.024 7.838 84.644 18.81 84.644 18.81s31.349-37.62 28.215-50.159c-3.135-12.54-56.43-112.86-98.752-122.26-42.321-9.404-75.239 26.648-87.778 36.053-12.54 9.404-101.89 50.159-98.751 72.103 3.134 21.945 34.484 57.997 34.484 57.997" style="fill:#e2b5b6"/></g><g clip-path="url(#clipPath15596)" style="opacity:.10001"><g transform="translate(1018 1472.3)"><path d="m0 0c-1.408 2e-3 -2.725 0.224-3.767 1.265-0.392 0.392-0.643 0.841-0.818 1.318-0.459-1.478-1.838-2.583-3.451-2.583h-2.239c0.217-0.404 0.373-0.849 0.448-1.322 0.01-0.017 0.03-0.086 0.07-0.248 5e-3 -0.011 5e-3 -0.014 9e-3 -0.024 0.162-0.328 0.325-0.654 0.479-0.985 0.242-0.523 0.427-1.007 0.565-1.504 0.578 0.391 1.27 0.622 2.008 0.622 1.74 0 3.224-1.28 3.555-2.934 2.288 2.644 4.537 5.403 6.766 8.205-0.133 0.074-0.263 0.149-0.385 0.239-0.596-1.201-1.829-2.051-3.24-2.049"/></g></g><g clip-path="url(#clipPath15612)" style="opacity:.10001"><g transform="translate(1031.7 1487.5)"><path d="m0 0c-0.36-0.178-0.749-0.309-1.161-0.379-0.126-0.089-0.448-0.331-0.466-0.326-0.492-0.438-0.966-0.891-1.433-1.357-0.793-0.791-1.885-1.118-2.938-1.012-2e-3 -0.116-0.01-0.232-0.012-0.348 0.804-0.67 1.334-1.663 1.334-2.772v-0.23c1.588 2.12 3.133 4.272 4.676 6.424"/></g></g><g clip-path="url(#clipPath15628)" style="opacity:.10001"><g transform="translate(1027.3 1548.4)"><path d="m0 0c-0.014-0.027-0.017-0.04-0.038-0.078-0.036-0.064-0.067-0.13-0.101-0.195-0.038-0.098-0.077-0.199-0.098-0.262-0.375-1.121-0.832-1.837-1.819-2.544-1.601-1.146-4.045-0.295-4.962 1.301-0.534 0.929-0.532 1.945-0.532 2.976-1e-3 1.28 0.696 2.414 1.72 3.061 0.213 0.29 0.434 0.574 0.681 0.843 1.338 1.454 3.775 1.353 5.128 0 1.432-1.433 1.336-3.648 0.021-5.102m-30.824-88.418c-1.363-1.363-3.777-1.443-5.128 0-0.735 0.785-1.359 1.649-1.839 2.608-0.18 0.36-0.352 0.733-0.57 1.072-0.05 0.077-0.074 0.119-0.1 0.163-0.044 0.044-0.091 0.092-0.17 0.174-1.35 1.442-1.431 3.698 0 5.129 1.363 1.363 3.778 1.443 5.129 0 0.734-0.785 1.358-1.649 1.839-2.609 0.18-0.36 0.351-0.732 0.57-1.071 0.049-0.077 0.073-0.119 0.099-0.163 0.044-0.043 0.092-0.091 0.17-0.175 1.35-1.442 1.432-3.697 0-5.128m-10.208 17.296v1.714c0 1.977 1.649 3.627 3.626 3.627s3.627-1.65 3.627-3.627v-1.714c0-1.977-1.65-3.626-3.627-3.626s-3.626 1.649-3.626 3.626m-8.427-19.698h-2.679c-1.977 0-3.626 1.65-3.626 3.627 0 1.976 1.649 3.626 3.626 3.626h2.679c1.977 0 3.626-1.65 3.626-3.626 0-1.977-1.649-3.627-3.626-3.627m-10.714-24.106h-2.679c-1.977 0-3.626 1.649-3.626 3.626s1.649 3.626 3.626 3.626h2.679c1.977 0 3.626-1.649 3.626-3.626s-1.649-3.626-3.626-3.626m10.714 98.322c4.677 0 4.677-7.253 0-7.253s-4.677 7.253 0 7.253m93.445 29.814c-0.642-0.591-1.47-0.965-2.375-0.907-1.843 0.118-4.222 0.921-5.017 2.789-1.258 2.962 0.49 5.513 3.588 5.788-2.995 3.077-6.607 4.425-6.607 4.425s-1.134-0.657-3.207-1.782c0.08-0.295 0.137-0.595 0.137-0.897 0-1.172-0.536-2.119-1.348-2.758-3e-3 -0.128-0.03-0.25-0.047-0.376 1.076 0.131 2.2-0.187 3.011-0.998 1.043-1.042 1.305-2.606 0.792-3.913 0.6-1.582 0.08-3.687-1.526-4.461-2.375-1.145-5.575-1.723-7.118 1.084-0.954 1.734-0.493 3.584 0.234 5.287-1.237 0.381-2.213 1.409-2.5 2.682-3.025-1.515-6.556-3.226-10.532-5.051 0.866-0.162 1.583-0.62 2.095-1.27 0.151-4e-3 0.297-0.034 0.444-0.056 0.068-0.01 0.137-0.012 0.204-0.026 0.102-0.021 0.197-0.055 0.295-0.085 0.145-0.042 0.289-0.083 0.428-0.143 3e-3 -2e-3 5e-3 -4e-3 8e-3 -5e-3 0.403-0.174 0.781-0.415 1.105-0.739 0.331-0.331 0.577-0.716 0.751-1.127 9e-3 -0.021 0.023-0.04 0.032-0.061 9e-3 -0.023 0.013-0.048 0.022-0.071 0.162-0.407 0.257-0.845 0.257-1.305 0-0.438-0.092-0.854-0.24-1.245-0.016-0.047-0.025-0.095-0.044-0.14-0.018-0.043-0.044-0.081-0.063-0.123-0.173-0.383-0.404-0.746-0.715-1.056l-1.339-1.34c-1.397-1.397-3.731-1.397-5.128 0-0.514 0.514-0.835 1.155-0.971 1.829-0.589 0.596-0.981 1.279-1.205 2.08-0.538-1.326-1.718-2.292-3.296-2.292-1.483 0-2.948 1.035-3.443 2.439-3.878-1.624-7.982-3.268-12.31-4.881 1.23-2.141 0.233-5.596-2.996-5.594-2.754 2e-3 -5.452 0.381-7.534 1.883-0.101-0.033-0.199-0.067-0.299-0.1 1.056-1.412 0.959-3.462-0.317-4.739-1.397-1.397-3.731-1.397-5.129 0-0.767 0.769-1.536 1.536-2.304 2.305-0.446-0.134-0.888-0.27-1.336-0.401-0.218-0.228-0.445-0.446-0.649-0.685-0.032-0.051-0.099-0.145-0.164-0.239 0.041-8e-3 -0.041-0.256-0.068-0.096-0.027-0.039-0.05-0.072-0.068-0.099-0.249-1.478-1.236-2.698-2.67-3.063 0.189-1.426-0.391-3.019-1.739-3.646-3.185-1.482-6.384-1.831-9.865-1.834-0.195 0-0.369 0.03-0.547 0.054 0.208-1.949-0.941-4.072-3.471-4.072-4.677 0-4.677 7.253 0 7.253 0.194 0 0.368-0.031 0.546-0.054-0.067 0.624 1e-3 1.263 0.216 1.848-2.475-0.51-4.961-0.987-7.459-1.403-47.024-7.837-157.35 34.593-162.05 36.16 0 0-18.96-12.273-22.095-34.218-3.135-21.944 86.211-62.699 98.751-72.104 12.54-9.404 45.457-45.456 87.779-36.052 2.829 0.629 5.707 1.678 8.615 3.067-0.056 0.048-0.118 0.085-0.171 0.139-1.398 1.397-1.396 3.73 0 5.128 0.099 0.099 0.197 0.202 0.296 0.301 7e-3 0.113 0.034 0.219 0.051 0.328-0.196 0.051-0.387 0.11-0.569 0.191-0.696-1.189-1.656-2.239-2.686-3.27-1.395-1.398-3.731-1.396-5.128 0-1.397 1.398-1.396 3.73 0 5.128 0.472 0.473 0.949 0.95 1.383 1.46 0.032 0.051 0.098 0.145 0.164 0.238-0.041 0.01 0.04 0.257 0.068 0.097 0.027 0.039 0.049 0.072 0.067 0.099 0.298 1.77 1.645 3.186 3.561 3.186 0.703 0 1.406-0.232 2.004-0.625 0.579 0.393 1.273 0.625 2.013 0.625h2.679c1.819 0 3.345-1.401 3.579-3.165 0.488 0.29 1.064 0.487 1.778 0.487 1.855 0 2.962-1.145 3.346-2.521 0.841 0.648 1.682 1.318 2.524 2.009-0.169-0.022-0.338-0.048-0.513-0.044-2.012 0.045-3.805 1.056-5.242 2.401-1.443 1.351-1.363 3.766 0 5.128 1.431 1.431 3.686 1.35 5.128 0 0.086-0.081 0.14-0.136 0.181-0.18 0.039-0.018 0.069-0.031 0.131-0.064 0.033-0.018 0.042-0.024 0.067-0.039 0.057-0.017 0.097-0.029 0.131-0.041 1.794-0.232 3.231-1.707 3.231-3.579 0-0.379-0.079-0.744-0.195-1.096 0.527 0.463 1.052 0.977 1.579 1.454-0.369 0.533-0.602 1.201-0.602 2.023v0.595c0 1.353 0.616 2.302 1.479 2.872-0.069 0.276-0.139 0.552-0.139 0.848 0 1.977 1.649 3.626 3.626 3.626h1.339c1.193 0 2.26-0.607 2.924-1.517 0.299 0.317 0.6 0.627 0.899 0.948-1.198 0.575-2.043 1.786-2.079 3.177-0.538-0.299-1.137-0.485-1.744-0.485-1.925 0-3.281 1.433-3.565 3.217-0.01 0.017-0.03 0.085-0.07 0.248-5e-3 0.011-6e-3 0.015-9e-3 0.025-0.162 0.327-0.325 0.653-0.479 0.984-0.496 1.071-0.766 1.979-0.842 3.17-0.116 1.815 1.458 3.341 3.175 3.578-0.307 0.53-0.497 1.133-0.497 1.778 0 1.977 1.65 3.627 3.627 3.627h2.678c0.648 0 1.252-0.191 1.783-0.498 0.121 0.961 0.593 1.755 1.295 2.308 0.048 1.941 1.667 3.547 3.619 3.547 0.648 0 1.254-0.192 1.786-0.501 0.122 2.8 0.555 5.449 1.779 8.08 0.833 1.792 3.377 2.229 4.961 1.301 0.421-0.247 0.754-0.554 1.018-0.895 1.124 0.759 2.363 1.293 3.848 1.39 0.134 8e-3 0.261-0.014 0.392-0.023v1.754c0 1.976 1.649 3.626 3.626 3.626 1.945 0 3.565-1.6 3.617-3.533 0.839 1.245 1.672 2.492 2.49 3.735-0.223 0.468-0.359 0.983-0.359 1.529v2.678c0 1.977 1.65 3.627 3.627 3.627 0.549 0 1.068-0.138 1.538-0.365 0.385 0.612 0.757 1.216 1.137 1.825-1.27 0.441-2.284 1.535-2.284 3.284v1.004c0 1.279 0.551 2.195 1.34 2.775v1.243c0 1.976 1.649 3.626 3.626 3.626 1.436 0 2.692-0.877 3.275-2.112 1.717 2.916 3.353 5.761 4.877 8.484-1.361 0.503-2.358 1.802-2.395 3.315-0.812 0.638-1.348 1.585-1.348 2.758 0 0.751 0.274 1.498 0.72 2.123-1.207 0.59-2.059 1.819-2.059 3.234 0 1.977 1.649 3.626 3.626 3.626h4.018c1.935 0 3.546-1.584 3.613-3.505 0.012-0.01 0.024-0.02 0.035-0.029 2.255 4.375 4.073 8.155 5.402 11.155-0.334-0.062-0.666-0.134-1.015-0.142-0.644-0.014-1.246 0.174-1.775 0.483-0.219-1.66-1.569-2.923-3.228-3.119-0.031-0.012-0.055-0.022-0.1-0.038-0.022-0.014-0.028-0.02-0.056-0.037-0.073-0.046-0.112-0.067-0.154-0.089-0.042-0.044-0.083-0.085-0.158-0.155-1.442-1.35-3.697-1.432-5.128 0-1.363 1.362-1.443 3.777 0 5.128 1.437 1.345 3.23 2.356 5.242 2.402 0.645 0.014 1.247-0.174 1.776-0.483 0.219 1.66 1.568 2.924 3.228 3.119 0.031 0.012 0.055 0.022 0.1 0.038 0.022 0.014 0.028 0.019 0.056 0.037 0.073 0.045 0.112 0.066 0.153 0.089 0.043 0.043 0.083 0.084 0.159 0.155 1.003 0.939 2.395 1.248 3.634 0.877 0.13 1.149 0.091 2.208-0.034 3.214"/></g></g><g clip-path="url(#clipPath15644)" style="opacity:.2"><g transform="translate(951.03 1481.7)"><path d="m0 0c-1.329 0-2.494 0.752-3.125 1.84-1.088 0.631-1.841 1.796-1.841 3.126 0 1.974 1.65 3.629 3.627 3.626 1.408-3e-3 2.725-0.223 3.767-1.265 1.005-1.005 1.196-2.35 1.198-3.701 3e-3 -1.977-1.652-3.626-3.626-3.626m6.168-37.08c1.593-0.414 2.815-1.708 2.815-3.489 0-1.88-1.651-3.756-3.626-3.626-3.489 0.227-6.077 2.815-6.305 6.304-0.128 1.975 1.747 3.627 3.626 3.627 1.781 0 3.076-1.223 3.49-2.816m-20.779 7.628c-0.078-0.096-0.146-0.2-0.235-0.289-1.121-1.117-2.3-2.062-3.971-2.062-1.593 0-2.775 1.005-3.836 2.062-1.399 1.395-1.395 3.733 0 5.129 1.041 1.041 2.598 1.302 3.903 0.793 0.39 0.152 0.801 0.213 1.214 0.227 0.578 0.81 1.503 1.381 2.804 1.381 4.634 0 4.67-7.11 0.121-7.241m-1.972-14.275c-1.957-0.538-3.441 0.645-4.731 1.933-1.398 1.396-1.396 3.732 0 5.128 0.857 0.857 2.063 1.182 3.191 0.989 0.231 0.047 0.469 0.073 0.712 0.073 1.975 0 3.63-1.649 3.627-3.626-3e-3 -1.959-0.696-3.919-2.799-4.497m-10.202 38.37c-1.942 0-3.673 1.65-3.627 3.626 4e-3 0.152 0.036 0.291 0.051 0.437-0.146-0.018-0.291-0.045-0.442-0.045h-2.679c-1.976 0-3.626 1.649-3.626 3.626 0 0.326 0.06 0.636 0.143 0.939-0.551-0.341-1.189-0.549-1.874-0.548-1.294 2e-3 -2.833 0.035-3.951 0.785-1.038 0.696-1.662 1.538-2.015 2.564-0.59-0.418-1.303-0.67-2.069-0.67-2.87 2e-3 -5.723 0.398-7.921 2.401-0.875 0.798-1.176 1.994-0.994 3.116-0.581 0.152-1.138 0.429-1.614 0.848-0.109 0.069-0.219 0.137-0.332 0.199-0.261 0.139-0.529 0.267-0.791 0.406-0.736 0.39-1.548 0.979-1.939 1.744-1.31 2.565 0.051 4.856 2.386 6.079 1.751 0.917 3.928 0.462 4.961-1.301 0.3-0.512 0.44-1.098 0.461-1.689 0.102-0.088 0.212-0.164 0.311-0.256 0.871-0.801 1.174-1.995 0.994-3.116 0.589-0.155 1.154-0.438 1.637-0.865 0 0 9e-3 -3e-3 0.013-4e-3 -0.467 0.424-0.139 0.117 0.103-0.036 0 0 0.01-3e-3 0.018-6e-3 0.288-0.082 0.582-0.141 0.876-0.195 0.213-9e-3 0.799-0.06 0.938-0.063 0.298-7e-3 0.595-9e-3 0.893-9e-3 1.413-1e-3 2.647-0.85 3.243-2.053 0.622 0.442 1.366 0.713 2.114 0.713 1.172 0 2.12-0.535 2.758-1.347 1.94-0.047 3.546-1.666 3.546-3.618 0-0.326-0.059-0.638-0.143-0.94 0.551 0.341 1.19 0.549 1.874 0.549h2.679c1.792 0 3.3-1.359 3.57-3.085 0.552 0.217 1.149 0.363 1.787 0.406 1.974 0.135 3.626-1.751 3.626-3.626 0-1.391-0.748-2.472-1.829-3.083-0.618-1.111-1.768-1.883-3.136-1.883m-17.411-10.714c-1.407 2e-3 -2.725 0.223-3.767 1.265-1.005 1.005-1.196 2.35-1.198 3.701-4e-3 1.976 1.652 3.626 3.626 3.626 1.329 0 2.494-0.753 3.125-1.84 1.088-0.632 1.841-1.797 1.841-3.126 0-1.974-1.65-3.629-3.627-3.626m-41.908 50.835c0-0.107-0.023-0.199-0.03-0.301 0.021-0.957-0.3-1.915-1.032-2.598-0.901-0.839-2.043-1.676-3.35-1.612-1.804 0.086-3.044 1.03-3.675 2.72-0.444 1.187-0.107 2.415 0.506 3.5-0.436-0.196-0.9-0.333-1.402-0.313-1.711 0.07-3.588 0.698-4.883 1.886-2.483-0.401-4.973 1e-3 -7.057 1.855-0.849 0.756-1.148 1.894-1.008 2.981-0.147-0.013-0.293-0.035-0.445-0.026-3.489 0.228-6.077 2.816-6.305 6.306-0.012 0.179 0.01 0.353 0.03 0.527-1.541 0.416-2.708 1.831-2.708 3.49v2.679c0 1.976 1.649 3.626 3.626 3.626s3.626-1.65 3.626-3.626v-2.679c0-0.176-0.028-0.345-0.053-0.515 1.312-0.335 2.254-1.382 2.595-2.692 1.593-0.414 2.815-1.709 2.815-3.489 0-0.15-0.027-0.299-0.047-0.448 1.054 0.107 2.148-0.246 3.003-1.006-0.047 0.042-0.071 0.069-0.094 0.096 0 0-6e-3 1e-3 -0.011 3e-3 4e-3 -2e-3 5e-3 -1e-3 0.01-2e-3 -0.221 0.254 0.506-0.112 0 0l1e-3 -1e-3c0.134-0.031 0.208-0.054 0.256-0.072 0.058 0.013 0.147 0.025 0.328 0.037 0.498 0.033 1.089 0.193 1.692 0.461 0.828 0.54 1.883 0.645 2.846 0.395 0.054-0.012 0.104-0.033 0.157-0.048 0.133-0.04 0.266-0.077 0.393-0.131 0.167-0.068 0.325-0.155 0.481-0.249 0.037-0.024 0.077-0.042 0.113-0.066 0.14-0.094 0.27-0.205 0.398-0.322 0.04-0.036 0.088-0.063 0.126-0.101 0.012-0.011 0.016-0.025 0.028-0.037 0.197-0.204 0.382-0.429 0.539-0.697 0.013-0.021 0.019-0.048 0.031-0.07 0.023-0.04 0.037-0.084 0.057-0.126 0.112-0.225 0.197-0.463 0.258-0.712 9e-3 -0.037 0.032-0.071 0.039-0.107 1.581-0.409 2.788-1.754 2.788-3.493 0-0.313-0.065-0.616-0.149-0.915 1.317 0.801 3.108 0.623 4.275-0.403 0.029-0.022 0.057-0.044 0.084-0.067 0.027-0.025 0.06-0.043 0.086-0.069 0.055-0.056 0.088-0.122 0.139-0.18 0.488-0.511 0.812-1.199 0.88-2.07 2e-3 -0.037 0.013-0.073 0.015-0.11 3e-3 -0.072 0.028-0.13 0.028-0.204zm-47.562 21.583c-0.571-0.572-1.143-1.143-1.714-1.715-1.397-1.396-3.731-1.396-5.128 0-1.397 1.398-1.397 3.732 0 5.129l1.714 1.714c1.397 1.397 3.731 1.397 5.128 0s1.397-3.732 0-5.128m-12.477 19.6c0 1.378 0.811 2.583 1.967 3.195 0.17 1.133 0.846 2.082 1.81 2.62 0.612 1.08 1.692 1.828 3.083 1.828 1.875 0 3.76-1.652 3.626-3.626-0.091-1.339-0.594-2.518-1.403-3.396 0.036-0.203 0.064-0.409 0.064-0.621 0-1.977-1.65-3.627-3.627-3.627h-1.893c-1.977 0-3.627 1.65-3.627 3.627m-5.193-0.949c-4.677 0-4.677 7.253 0 7.253 4.676 0 4.676-7.253 0-7.253m166.07-65.623h-4.018c-1.977 0-3.626 1.65-3.626 3.626 0 1.977 1.649 3.626 3.626 3.626h3.92c-0.068 1.788-0.167 3.601-0.304 5.423-1.533-0.519-3.196-0.621-4.955-0.622-1.977 0-3.626 1.65-3.626 3.627s1.649 3.625 3.626 3.626c0.253 0 0.506 7e-3 0.76 8e-3 -0.231 0.141-0.451 0.303-0.646 0.498-1.421 1.42-1.365 3.7 0 5.128 0.154 0.161 0.3 0.33 0.443 0.5 0.101 0.141 0.303 0.414 0.329 0.452 0.323 0.472 0.638 0.949 0.957 1.422 0.238 0.353 0.489 0.702 0.738 1.05-0.315 1.284-0.708 2.531-1.096 3.778h-0.146c-1.509 0-2.821 0.964-3.36 2.298-0.537-1.331-1.83-2.298-3.336-2.298h-1.34c-1.976 0-3.626 1.65-3.626 3.627 0 1.976 1.65 3.626 3.626 3.626h1.34c1.286 0 2.425-0.705 3.07-1.738v3.468c0 0.065 0.016 0.126 0.02 0.19-1.357 2.498-2.944 4.832-4.815 6.934-0.909 0.024-1.848 0.078-2.78 0.124-0.368-1.607-1.825-2.838-3.531-2.838h-1.339c-1.93 0-3.537 1.575-3.612 3.49-2.373 0.242-4.779 0.517-7.238 0.848-1.11-1.717-2.973-2.852-5.221-2.999-1.317-0.086-2.478 0.726-3.113 1.83-0.211-1.683-1.548-2.855-3.193-3.112-0.022-0.011-0.042-0.026-0.064-0.038-0.012-8e-3 -0.011-0.011-0.02-0.018 0.241-0.027-0.168-0.14 0 0l-9e-3 1e-3c-0.1-0.056-0.198-0.112-0.293-0.176-0.046-0.037-0.089-0.074-0.119-0.104-1.413-1.38-3.719-1.408-5.128 0-1.385 1.386-1.414 3.748 0 5.129 0.811 0.793 1.743 1.39 2.752 1.804-2.873 0.537-5.767 1.104-8.687 1.722-0.118-0.721-0.443-1.412-0.99-1.958-1.885-1.882-3.811-3.56-6.582-3.74-1.974-0.13-3.626 1.746-3.626 3.626 0 1.914 1.414 3.26 3.181 3.559 0.072 0.051 0.194 0.141 0.3 0.217-3.226 0.743-6.457 1.51-9.683 2.32-0.294-1.698-1.793-3.026-3.565-3.026h-2.678c-1.977 0-3.626 1.649-3.626 3.626 0 0.667 0.199 1.288 0.524 1.83-0.891 0.239-1.784 0.477-2.67 0.719-1.412-1.131-3.525-1.062-4.828 0.243-0.46 0.462-0.954 0.941-1.35 1.475-0.387 0.11-0.778 0.218-1.163 0.328-0.118-0.163-0.243-0.322-0.394-0.463-1.895-1.771-4.034-2.397-6.582-2.401-1.977-3e-3 -3.626 1.652-3.626 3.626 0 0.182 0.028 0.357 0.054 0.532-1.646 0.295-3.127 1.067-4.349 2.261-0.324 0.317-0.563 0.689-0.737 1.085-1.533 0.472-3.064 0.945-4.558 1.415-0.348-0.259-0.707-0.501-1.075-0.736-0.11-0.068-0.216-0.141-0.323-0.213-0.037-0.037-0.104-0.099-0.233-0.212-1.44-1.351-3.697-1.43-5.128 0-0.138 0.139-0.255 0.295-0.367 0.454-0.344-0.112-0.708-0.177-1.086-0.177-1.4 1e-3 -3.055-0.115-4.367 0.432-2.014 0.84-3.176 2.305-3.277 4.534-0.017 0.353 0.046 0.689 0.141 1.015-2.226 0.744-4.372 1.47-6.416 2.17-0.273-1.445-0.982-2.763-2.401-3.434-1.203-0.571-2.451-0.697-3.77-0.699-1.976-3e-3 -3.626 1.652-3.626 3.627 0 1.393 0.827 2.606 2.002 3.209-1.244 0.438-2.454 0.864-3.583 1.266-0.654-0.821-1.641-1.37-2.749-1.397-0.638-0.811-1.585-1.348-2.757-1.348-1.873 0-3.765 1.652-3.627 3.626 0.054 0.775 0.25 1.525 0.567 2.207-0.476 0.174-0.953 0.348-1.366 0.5 6e-3 -0.942-0.34-1.886-1.046-2.593-0.893-0.892-1.785-1.785-2.679-2.678-1.397-1.397-3.73-1.397-5.128 0-0.234 0.235-0.414 0.501-0.57 0.78-0.092-0.778-0.411-1.533-0.998-2.119l-2.678-2.679c-0.718-0.717-1.681-1.06-2.639-1.04-0.694-0.891-1.386-1.82-2.061-2.808 0.673-1.358 0.434-3.041-0.657-4.187-0.041-0.043-0.058-0.057-0.085-0.083l-0.012-0.021c-0.022-0.08-0.059-0.198-0.093-0.313-0.015-0.243-0.076-0.828-0.078-0.982-8e-3 -0.465-0.01-0.929-0.01-1.394 0-1.977-1.648-3.626-3.626-3.626-0.315 0-0.617 0.055-0.911 0.134-0.598-1.587-1.122-3.243-1.56-4.962 0.873-0.037 1.73-0.366 2.357-1.035 0.282-0.301 0.532-0.626 0.779-0.951 0.079 0.053 0.145 0.125 0.228 0.172 0.484 0.835 1.285 1.464 2.231 1.716-0.026 0.17-0.054 0.34-0.054 0.517 0 1.413 0.849 2.644 2.051 3.237-0.441 0.6-0.711 1.331-0.711 2.119 0 1.977 1.649 3.627 3.626 3.627h1.339c1.977 0 3.627-1.65 3.627-3.627 0-0.728-0.228-1.411-0.61-1.985 0.42-0.583 0.662-1.284 0.61-2.033-0.123-1.76-0.846-3.466-2.536-4.267-0.924-0.438-1.876-0.612-2.864-0.67 0.017-0.139 0.043-0.276 0.042-0.419-2e-3 -1.408-0.223-2.726-1.265-3.768-0.803-0.803-1.825-1.078-2.892-1.16-0.149-0.602-0.444-1.176-0.923-1.655-1.223-1.222-3.286-1.402-4.675-0.385 0.841-1.758 2.108-3.594 3.663-5.477h3.719c0.149 0.169 0.308 0.33 0.486 0.47 0.047 1.941 1.666 3.547 3.618 3.547 0.379 0 0.739-0.076 1.086-0.189 0.663 0.918 1.734 1.529 2.932 1.529h1.339c1.977 0 3.626-1.65 3.626-3.627 0-1.976-1.649-3.626-3.626-3.626h-1.339c-0.187 0-0.367 0.029-0.547 0.056-0.109-0.617-0.289-1.214-0.629-1.721-1.012-1.508-2.301-2.19-4.083-2.337-0.129-0.155-0.262-0.308-0.414-0.442 0.547-0.493 1.127-0.99 1.706-1.487 0.584 0.678 1.46 1.13 2.627 1.13 0.939 0 1.666-0.311 2.227-0.777 1.171 1.303 2.64 2 4.47 2.116 1.286 0.083 2.425-0.687 3.07-1.749v0.802c0 1.976 1.65 3.626 3.626 3.626 1.977 0 3.627-1.65 3.627-3.626v-1.339c0-1.977-1.65-3.627-3.627-3.627-1.33 0-2.499 0.756-3.13 1.848-0.144-1.168-0.808-2.1-1.766-2.644-0.629-1.133-1.803-1.98-3.139-1.882-0.1 7e-3 -0.203 0.032-0.305 0.044 1.225-0.904 2.473-1.809 3.764-2.715 0.256 1.325 1.15 2.583 2.012 3.505 1.351 1.443 3.766 1.362 5.129 0 0.88-0.881 1.183-2.073 0.976-3.196 0.018-0.09 0.011-0.183 0.023-0.273 0.552 0.317 1.17 0.512 1.793 0.512 1.173 0 2.12-0.536 2.758-1.347 1.941-0.047 3.547-1.667 3.547-3.618 0-0.149-0.027-0.292-0.045-0.437 0.145 0.018 0.287 0.045 0.436 0.045h1.34c1.824 0 3.351-1.408 3.58-3.178 0.539 0.309 1.146 0.5 1.777 0.5 1.882 0 3.313-1.423 3.572-3.203 0.017 0 0.021 1e-3 0.021 1e-3 0.189-4e-3 0.359 5e-3 0.529 0.014 0.108 0.031 0.765 0.132 0.765 0.132 0.289 0.073 0.568 0.156 0.845 0.248 1.886 0.591 3.951-0.679 4.461-2.533 0.176-0.64 0.152-1.271-6e-3 -1.858 1.043 0.336 2.165 0.478 3.206 0.503 1.116 0.026 2.115-0.525 2.785-1.35 4.225-0.107 4.504-6.212 0.841-7.12v-0.726c0-0.352-0.068-0.687-0.165-1.01 1.252-0.695 2.486-1.374 3.709-2.046 0.354 1.626 1.823 2.879 3.544 2.877 2.548-4e-3 4.687-0.63 6.582-2.401 1.444-1.351 1.361-3.767 0-5.129-0.206-0.205-0.431-0.371-0.666-0.515 1.093-0.594 2.148-1.168 3.187-1.735 0.489 0.249 1.032 0.404 1.611 0.405 0.267 0 0.536-4e-3 0.803 0.011 0.064 3e-3 0.089 2e-3 0.129 3e-3 0.134 0.038 0.354 0.145 0.439 0.183 0.03 0.029 0.043 0.044 0.082 0.08 1.443 1.349 3.696 1.432 5.129 0 0.044-0.043 0.067-0.101 0.108-0.147 0.043 0.048 0.074 0.101 0.12 0.147 1.349 1.349 3.796 1.461 5.129 0 1.033-1.133 1.639-2.403 2.127-3.849 0.129-0.383 0.258-0.768 0.397-1.147 0.06-0.124 0.176-0.377 0.222-0.447 5e-3 -8e-3 7e-3 -0.011 0.012-0.019 0.728-0.852 1.046-1.939 0.915-2.978 1.561-0.402 2.748-1.827 2.746-3.499 0-0.239-0.02-0.47-0.035-0.703 0.755-0.616 1.557-1.285 2.415-2.011 0.534 1.347 1.851 2.325 3.369 2.323 1.101-2e-3 2.108-0.134 3.102-0.631 0.821-0.411 1.496-1.127 2.14-1.771 1.398-1.396 1.396-3.732 0-5.128-0.416-0.416-0.918-0.692-1.45-0.861 0.903-0.754 1.849-1.533 2.814-2.319 0.632 0.751 1.55 1.259 2.581 1.315 0.1 0.099 0.202 0.197 0.302 0.297 1.398 1.396 3.73 1.398 5.128 0 1.396-1.396 1.398-3.732 0-5.128-0.506-0.506-1.034-1.05-1.634-1.462 1.563-1.169 3.164-2.339 4.851-3.502-0.022 0.272-0.032 0.548-0.032 0.832-4e-3 1.818 1.402 3.343 3.163 3.578-0.379 0.223-0.712 0.51-0.99 0.85-0.906 0.016-1.802 0.349-2.451 1.043-1.425 1.525-2.352 3.334-1.932 5.468 0.43 2.19 2.458 3.259 4.496 3.401 1.974 0.138 3.626-1.754 3.626-3.626 0-0.137-0.024-0.262-0.039-0.392h3.11c1.976 0 3.626-1.649 3.626-3.626s-1.65-3.626-3.626-3.626h-3.465c0.974-0.615 1.648-1.676 1.714-2.883 0.099-0.101 0.198-0.202 0.297-0.302 1.396-1.398 1.398-3.73 0-5.128-0.087-0.086-0.186-0.151-0.28-0.227 0.234-0.139 0.46-0.283 0.695-0.421 0.496-0.096 0.981-0.249 1.462-0.489 0.617-0.308 1.151-0.789 1.651-1.281 5.34-2.909 11.085-5.47 17.205-7.308-0.107 1.889 1.047 3.863 3.488 3.863 3.188 0 4.198-3.366 3.041-5.512 4.403-0.898 8.965-1.408 13.68-1.389 1.325 4.796 2.447 9.677 3.409 14.6-0.817 0.214-1.55 0.578-2.258 1.19-0.051 0.044-0.098 0.091-0.146 0.138-1.485 0.472-2.602 1.715-2.602 3.418 0 1.875 1.651 3.761 3.626 3.626 1.029-0.07 1.897-0.308 2.708-0.795 0.385 2.443 0.718 4.895 1.02 7.349-1.172 0.606-1.997 1.821-1.997 3.212v1.34c0 1.708 1.234 3.167 2.845 3.533 0.075 0.874 0.113 1.745 0.178 2.618-0.488-0.089-1.005-0.088-1.564 0.066-1.248 0.343-1.99 1.178-2.396 2.204-0.426-1.524-1.825-2.673-3.473-2.673-1.974 0-3.629 1.65-3.626 3.626 2e-3 1.103 0.134 2.109 0.631 3.103 0.411 0.822 1.127 1.496 1.771 2.14 1.395 1.398 3.731 1.396 5.127 0 0.292-0.291 0.508-0.629 0.678-0.985 0.601 0.439 1.329 0.708 2.116 0.708 0.243 0 0.481-0.026 0.712-0.074 0.158 0.028 0.32 0.02 0.48 0.027 0.069 1.805 0.148 3.612 0.17 5.409 0.02 1.548 0.026 3.161 0.022 4.801-0.015-1e-3 -0.03-5e-3 -0.045-5e-3"/></g></g><g clip-path="url(#clipPath15660)" style="opacity:.5"><g transform="translate(998.42 1477.5)"><path d="m0 0s-5.094 23.904 14.107 48.592c19.202 24.687 32.525 28.998 34.877 25.079 2.351-3.918 2.743-18.026 2.743-18.026s-30.566-34.092-36.836-40.754-14.891-14.891-14.891-14.891" style="fill:#1a1a1a"/></g></g><g clip-path="url(#clipPath15676)" style="opacity:.5"><g transform="translate(868.71 1511.6)"><path d="m0 0s-34.876 18.418-31.35 29.39c3.527 10.973 16.067 21.161 38.796 2.351 22.728-18.809 42.322-41.93 46.24-50.551 3.919-8.621 6.662-16.85 6.662-16.85z" style="fill:#1a1a1a"/></g></g><g clip-path="url(#clipPath15692)" style="opacity:.3"><g transform="translate(906.25 1509.4)"><path d="m0 0s-42.902-28.121-27.349-64.459c16.562-38.695 76.841-39.365 111.28-35.742 31.913 3.357 64.356 24.123 53.151 49.547-10.663 24.195-38.573 39.534-38.573 39.534s-0.109 9.346 5.486 14.224c5.439 4.741 21.572-3.205 21.572-3.205s46.977-29.003 41.924-73.932c-5.921-52.652-38.526-59.201-79.049-66.821-44.886-8.441-152.82-10.13-166.06 60.484-8.498 45.354 14.073 66.043 27.333 78.301 12.522 11.576 30.841 17.414 30.841 17.414s3.992 4.377 12.668-4.769c8.738-9.212 6.773-10.576 6.773-10.576"/></g></g><g transform="translate(903.2 1510.8)"><path d="m0 0s-39.187-29.782-26.647-62.699 64.267-36.052 97.184-34.485c32.917 1.568 73.671 20.378 67.401 47.025s-35.66 43.106-35.66 43.106 1.959 10.972 9.797 17.241c7.837 6.27 25.863-2.351 25.863-2.351s51.727-32.917 29.782-83.076-57.996-53.294-98.751-56.429c-40.754-3.135-123.83 3.135-134.8 56.429-7.902 38.382 9.405 57.997 20.377 70.537 10.973 12.539 27.823 19.985 27.823 19.985s3.919 5.094 11.756-4.311c7.838-9.404 5.878-10.972 5.878-10.972" style="fill:#e5e5e4"/></g><g clip-path="url(#clipPath15712)" style="opacity:.2"><g transform="translate(899.94 1518.5)"><path d="m0 0c-11.8-11.951-22.113-29.626-24.35-46.061 5.964 21.968 27.604 38.43 27.604 38.43s1.463 1.187-3.254 7.631"/></g></g><g clip-path="url(#clipPath15728)" style="opacity:.2"><g transform="translate(1041.1 1460.7)"><path d="m0 0c0.585-2.484 0.758-4.899 0.57-7.24 3.456 6.186 5.304 13.176 4.579 20.969-1.808 19.419-15.596 34.688-30.789 45.631-0.257 0.185-0.472 0.389-0.663 0.603-7.459-6.322-9.357-16.858-9.357-16.858s29.39-16.458 35.66-43.105"/></g></g><g clip-path="url(#clipPath15744)" style="opacity:.2"><g transform="translate(1021.3 1398.6)"><path d="m0 0c-30.825-11.692-56.524-11.795-89.501-10.12-29.449 1.495-56.847 9.206-74.224 35.231-12.135 18.176-16.185 34.784-11.048 55.245-5.869-11.786-11.466-16.63-7.032-38.169 10.973-53.294 85.687-56.95 126.56-57.254 86.342-0.64 101.76 54.099 102.45 56.249-2.484-4.295-18.08-30.133-47.209-41.182"/></g></g><g transform="translate(1051.9 1506.7)"><path d="m0 0c-4.092 6.734-9.917 11.955-17.456 13.913-1.545 0.4-2.892-0.92-2.767-2.348-0.392-0.113-0.639-0.562-0.433-1.015 1.586-3.489 3.771-6.615 6.076-9.663 0.199-0.727 0.599-1.396 1.208-1.828 0.139-0.1 0.264-0.183 0.403-0.281 1.296-1.677 2.597-3.35 3.825-5.066 1.956-2.734 3.641-5.824 5.475-8.789 0.823-2.322 1.711-4.646 2.336-7.085 2.4-9.361 1.74-19.233-0.401-28.545-0.689-2.997-1.647-5.795-2.818-8.437-10.205-15.817-23.633-27.523-41.896-34.108-23.05-8.31-48.471-6.788-72.422-4.498-24.337 2.326-50.051 8.111-64.631 29.57-7.908 11.638-8.698 23.191-4.501 36.398 1.668 5.25 4.392 9.878 7.224 14.432 2.798 4.192 5.649 8.351 7.961 12.964 0.229 0.456 0.214 0.954 0.062 1.397 0.113 0.27 0.25 0.526 0.357 0.799 0.182 0.46-0.442 0.687-0.747 0.435-0.107-0.088-0.21-0.189-0.316-0.279-0.472 0.323-1.085 0.406-1.707-1e-3 -11.19-7.324-19.928-24.373-22.927-40.246-0.038 1.009-0.127 2.024-0.302 3.049-0.236 1.381-2.207 1.444-2.84 0.371-5.904-10.004-2.848-30.192 5.513-38.263 0.266-0.366 0.489-0.471 0.641-0.19 0.182 0.098 0.31 0.307 0.271 0.553-0.024 0.15-0.055 0.302-0.079 0.453 0.025 0.438 0.027 1.002-5e-3 1.734-0.075 1.696-0.738 3.701-1.124 5.346-0.389 1.656-0.721 3.304-1.021 4.952 0.608 0.136 1.167 0.635 1.251 1.39 0.173 1.541 0.298 3.084 0.437 4.627 0.554-2.917 1.428-5.741 2.666-8.417 11.319-24.474 37.513-34.326 62.507-38.211 28.096-4.366 58.77-6.038 86.091 3.078 13.328 4.448 26.955 12.697 36.22 23.948 11.032 7.364 16.919 23.078 18.068 37.913 0.066-1.507 0.108-3.008 0.108-4.489 2e-3 -16.628-8.025-29.54-18.349-41.769-0.301-0.356 0.068-0.818 0.484-0.628 16.834 7.667 24.092 27.857 24.959 45.141 0.695 13.867-5.246 32.828-17.401 41.693" style="fill:#fff"/></g><g clip-path="url(#clipPath15764)" style="opacity:.5"><g transform="translate(1033.6 1523.1)"><path d="m0 0c0.341-0.025 0.677-0.103 1.003-0.215 3.268 1.515 6.648 2.801 10.028 4.117 3.319 3.696 5.526 6.157 5.526 6.157s-0.392 14.107-2.744 18.025c-2.351 3.92-15.674-0.391-34.876-25.079-16.323-20.987-15.089-41.398-14.352-47.049 2.704 17.513 13.981 45.621 35.415 44.044" style="fill:#1a1a1a"/></g></g><g clip-path="url(#clipPath15780)" style="opacity:.5"><g transform="translate(845.67 1527)"><path d="m0 0c-0.491 2.743-0.112 5.38 1.57 7.715 2.732 3.792 5.592 3.396 8.24 1.112 0.333-0.175 0.656-0.385 0.951-0.676 3.354-3.304 5.619-7.293 8.379-11.072 6.251-8.558 11.939-1.183 19.433-2.825 11.311-2.478 19.36-13.22 25.954-22.072 4.65-6.24 8.943-12.904 12.965-19.68l5.899-3.487s-2.743 8.229-6.662 16.85c-3.918 8.622-23.512 31.742-46.24 50.552-22.729 18.81-35.269 8.621-38.795-2.351-1.318-4.1 2.725-9.237 8.306-14.066" style="fill:#1a1a1a"/></g></g><g clip-path="url(#clipPath15796)" style="opacity:.5"><g transform="translate(817.81 1580.8)"><path d="m0 0c8.363-14.769 85.309-36.09 123.11-36.392 20.165-0.161 20.185-111.02 23.514-110.93 6.058 0.177 10.714 89.674 6.963 112.13 25.098 4.066 49.179 14.388 72.679 24.576 3.885 1.684 8.06 3.631 10 7.395 3.428 6.65-6.381 21.097-13.639 22.911-7.259 1.815 4.436-14.28-2.009-18.08-95.422-56.249-217.8 0.633-220.62-1.616" style="fill:#fff"/></g></g><g clip-path="url(#clipPath15812)" style="opacity:.2"><g transform="translate(846.91 1247.4)"><path d="m0 0c-14.343-12.265-5.567-31.021 0.669-49.67 11.445-34.223 58.845-56.584 84.374-56.249 37.126 0.487 106.67 21.677 115.51 27.119 13.058 8.036 28.979 32.879 26.116 52.232-2.903 19.62-24.615 71.26-24.615 71.26s-43.562 35.399-114.79 0.183c-35.501-17.553-69.585-29.756-87.266-44.875"/></g></g><g transform="translate(839.8 1248)"><path d="m0 0c-14.056-13.57-10.293-32.94 5.316-45.392 28.761-22.943 73.529-41.617 103.9-40.01 38.164 2.019 96.936 23.792 105.48 35.578 6.4 8.832 14.569 33.238 14.918 52.425 0.81 44.565-21.957 52.6-21.957 52.6s-76.216 32.049-143.11-7.719c-33.888-20.145-47.334-30.868-64.543-47.482" style="fill:#988575"/></g><g clip-path="url(#clipPath15832)" style="opacity:.10001"><g transform="translate(858.62 1189.7)"><path d="m0 0c10.044 12.054 60.715 26.917 71.247 30.562 39.121 13.544 98.418 16.103 138.68 3.589 2.288-10.623-12.053-33.146-12.053-33.146s-69.307-43.192-138.61-31.138c-24.351 4.235-57.344 32.435-59.262 30.133"/></g></g><g transform="translate(893.25 1216.2)"><path d="m0 0c1.152 0.113 2.177 0.632 3.167 1.132 41.362 20.887 93.075 28.89 142.08 21.598 4.218-0.627 18.251-3.498 19.145-2.366 9.208 11.666 3.283 33.588-4.328 45.732-8.638 13.784-23.424 22.015-42.237 23.921-18.725 1.897-47.586 0.775-65.403-4.375-20.911-6.043-39.323-17.019-53.57-30.803-14.096-13.636-13.241-33.294-5.558-49.819 1.17-2.516 3.483-5.336 6.701-5.02" style="fill:#c6b198"/></g></g></g></g></svg>
