<?xml version="1.0" encoding="UTF-8"?>
<svg width="234.8mm" height="137.27mm" version="1.1" viewBox="0 0 234.8 137.27" xmlns="http://www.w3.org/2000/svg"><g transform="translate(-21.102 -54.516)"><g transform="matrix(65160 0 0 40021 -119.03 4.0891)" style="fill-rule:evenodd;image-rendering:optimizeQuality;shape-rendering:geometricPrecision;stroke-width:.015211"><path d="m0.00481 0.00186 8.5e-4 -6e-4 9.402e-5 1.3e-4 -3e-4 2.5e-4 -3.9e-4 3.9e-4 -8.7e-4 0.00111-7.1e-4 0.00117-1.9e-4 1.3e-4 -3.3e-4 2.5e-4 -1.5e-4 -4.1e-4 -7.338e-5 -1.7e-4 -2.9e-4 -5.5e-4 -3e-4 -2.3e-4 5.2e-4 -3e-4 4.5e-4 5.5e-4 8.146e-5 1.8e-4 0.00144-0.00175 1.8e-4 -1.7e-4z" style="fill-rule:nonzero;fill:#00923f;stroke-width:.015211"/></g></g></svg>
