<?xml version="1.0" encoding="UTF-8"?>
<svg width="99.115mm" height="113.69mm" version="1.1" viewBox="0 0 99.115 113.69" xmlns="http://www.w3.org/2000/svg" xmlns:xlink="http://www.w3.org/1999/xlink"><defs><filter id="c" x="-.042073" y="-.05587" width="1.0841" height="1.1117" style="color-interpolation-filters:sRGB"><feGaussianBlur stdDeviation="12.086752"/></filter><linearGradient id="d" x1="490.42" x2="549.22" y1="-360.39" y2="-41.218" gradientUnits="userSpaceOnUse"><stop stop-color="#fdfcfc" offset="0"/><stop stop-color="#f5f4f2" offset="1"/></linearGradient></defs><g transform="translate(-17.206 -74.926)"><g transform="matrix(.74923 0 0 1.1178 17.202 -143.36)" style="stroke-width:1.0927"><g transform="matrix(.18645 0 0 .18645 -139.76 251.36)" style="stroke-width:1.0927"><path transform="matrix(.94924 0 0 .94511 56.225 -3.2804)" d="m1145.5-285.71 303.44 244.07-420.15 275.13-269.32-359.62z" style="fill-rule:evenodd;filter:url(#c);paint-order:normal;stroke-width:1.0927"/><g transform="matrix(0,-1,-1,0,728.15,415.46)" style="stroke-width:1.0927"><path d="m711.44-413.85-244.07-303.44-275.13 420.15 359.62 269.32z" style="fill-rule:evenodd;fill:url(#d);paint-order:normal;stroke-width:2.1332;stroke:#f5f5f5"/><g transform="translate(655.01,-589.58)" style="stroke-width:1.0927"><path d="m-405.67 273.82c-1.547 2.4556-0.59189 9.6722 1.7033 11.476 2.5716 2.021 290.31 228.15 292.01 229.49 1.6157 1.2697 5.5202-0.93246 6.5268-3.3206 1.1152-2.6455 136.67-324.22 137.48-326.13 0.79053-1.8753 0.13649-6.7135-0.94357-8.0256-1.2002-1.4581-207.03-251.52-208.86-253.73-1.5922-1.9343-5.9597-2.1393-7.1025-0.32535-1.173 1.8619-218.67 347.18-220.81 350.58l-1.7e-4 -1.4e-4m221.55-348.59c1.0509-1.6713 4.5838-1.5944 6.1206 0.26981 1.7996 2.183 207.05 251.17 208.2 252.57 1.0177 1.2345 1.563 5.152 0.81439 6.9252-0.75996 1.8001-136.07 322.3-137.13 324.81-0.89463 2.1191-4.2048 3.9734-5.6276 2.8524-1.6023-1.2623-287.81-226.72-290.19-228.59-2.1044-1.6579-3.1661-6.9969-1.5322-9.596 1.1903-1.8934 19.466-32.349 120.19-192.5 72.649-115.5 98.534-155.76 99.149-156.74" style="fill:#701010;stroke-width:.52451"/><path d="m-410.86 270.82c-4.2368 6.686-2.8777 15.487 1.997 19.289l164.07 127.98 131.49 102.58c3.1883 2.4871 8.3324-0.37397 10.422-5.3531l74.497-177.54 63.193-150.6c1.5098-3.598 0.48134-10.369-1.5027-12.79l-95.237-116.21-114.3-139.48c-3.5805-4.369-9.4927-3.5111-11.357-0.57006l-100.09 157.78c-64.163 101.14-122.83 193.96-123.17 194.9l-1.8e-4 -1.3e-4m224.41-348.41c2.1911-3.4703 6.0202-4.227 8.4913-1.2207l210.26 255.79c1.3628 1.658 1.8288 6.1068 0.96027 8.1702l-63.471 150.79-74.854 177.83c-1.2778 3.0356-4.8593 4.8038-6.6506 3.3994l-294.81-231.14c-3.7148-2.9125-2.7101-10.712-0.40876-14.358 1.7375-3.9557 218.58-347.26 220.48-349.27l5e-5 8e-5" style="fill:#b0b0b0;stroke-width:.52451"/><g transform="matrix(.97718 0 0 .97718 -413.93 -262.06)" style="fill-rule:evenodd;stroke-width:1.0927"><g transform="translate(-200.01,-59.392)" style="stroke-width:1.0927"><path d="m482.68 825.54 19.289-43.681c0.75678-1.7138 0.46968-3.7178-0.56556-4.5914l-27.591-23.282c-1.1313-0.95467-2.5819-0.37166-3.384 1.3644l-20.456 44.272c-0.80255 1.7369-0.58019 3.8732 0.59965 4.8042l28.758 22.691c1.0784 0.85093 2.5936 0.13579 3.35-1.577" style="stroke-width:1.0927"/><path d="m482.42 824.13 18.538-41.942c0.69513-1.5728 0.45271-3.5408-0.53925-4.3767l-26.507-22.338c-1.0369-0.87384-2.4872-0.28883-3.2222 1.3035 0 0-19.612 42.486-19.612 42.486-0.76605 1.6595-0.5091 3.7181 0.5704 4.5711l27.581 21.794c1.0316 0.81517 2.4674 0.13959 3.1911-1.4978" style="fill:#9f1718;stroke-width:1.0927"/></g><g transform="translate(-200.01,49.887)" style="stroke-width:1.0927"><path d="m415.5 663.03 21.722-44.865c0.85127-1.7583 0.5425-3.8735-0.60487-4.8417l-30.617-25.835c-1.257-1.0607-2.8787-0.52424-3.7834 1.2562l-23.097 45.458c-0.90726 1.7856-0.67052 4.0419 0.64373 5.0789l31.992 25.243c1.1982 0.94541 2.8918 0.26798 3.7445-1.4932" style="stroke-width:1.0927"/><path d="m415.22 661.53 20.877-43.079c0.78201-1.6136 0.52273-3.689-0.57677-4.6155l-29.416-24.789c-1.1521-0.97088-2.7735-0.43221-3.6024 1.201l-22.144 43.624c-0.8659 1.7059-0.59008 3.8822 0.61227 4.8323l30.682 24.244c1.1462 0.90568 2.751 0.26604 3.567-1.4176" style="fill:#9f1718;stroke-width:1.0927"/></g><g transform="translate(-200.01,159.17)" style="stroke-width:1.0927"><path d="m340.67 494.45 24.596-46.047c0.96271-1.8023 0.62907-4.0418-0.64967-5.1209l-34.169-28.833c-1.4048-1.1854-3.2285-0.7103-4.2545 1.1136 0 0-26.232 46.628-26.232 46.628-1.0317 1.834-0.77868 4.2247 0.69433 5.387l35.805 28.251c1.3391 1.0566 3.2432 0.43035 4.2099-1.3795" style="stroke-width:1.0927"/><path d="m340.36 492.86 23.641-44.213c0.88448-1.6541 0.60599-3.8491-0.61954-4.8819l-32.831-27.667c-1.2875-1.085-3.1108-0.60744-4.0511 1.0657 0 0-25.147 44.748-25.147 44.748-0.98458 1.752-0.68708 4.0604 0.66035 5.1251l34.337 27.131c1.281 1.0122 3.0852 0.4213 4.0103-1.3087" style="fill:#9f1718;stroke-width:1.0927"/></g><g transform="translate(-200.01,268.45)" style="stroke-width:1.0927"><path d="m256.79 318.7s28.022-47.199 28.022-47.199c1.0953-1.8448 0.73289-4.224-0.70116-5.4341l-38.378-32.385c-1.5802-1.3334-3.6445-0.93901-4.8157 0.92601l-29.987 47.752c-1.1812 1.8809-0.90944 4.4231 0.75293 5.7347l40.342 31.831c1.5063 1.1885 3.661 0.63128 4.7639-1.2264" style="stroke-width:1.0927"/><path d="m256.45 317.01 26.936-45.318c1.0064-1.6932 0.70585-4.0225-0.66869-5.1808l-36.877-31.077c-1.4483-1.2206-3.5121-0.82328-4.5853 0.88776l-28.744 45.827c-1.127 1.7968-0.80443 4.2542 0.716 5.4556l38.685 30.567c1.4409 1.1386 3.4827 0.61336 4.5381-1.1623" style="fill:#9f1718;stroke-width:1.0927"/></g><g transform="translate(-145.37,-114.03)" style="stroke-width:1.0927"><path d="m479.82 855.8 17.419-41.22c0.68408-1.6188 0.41466-3.5333-0.53311-4.3845l-25.232-22.661c-1.0335-0.9282-2.3517-0.39842-3.0751 1.2398l-18.43 41.735c-0.72233 1.6357-0.51201 3.6706 0.56346 4.5781l26.243 22.145c0.98524 0.83139 2.3624 0.18141 3.0448-1.4333" style="stroke-width:1.0927"/><path d="m479.58 854.45 16.74-39.578c0.6283-1.4855 0.39979-3.3648-0.50828-4.1793l-24.241-21.743c-0.9473-0.84969-2.2652-0.31809-2.9281 1.1845l-17.671 40.053c-0.68954 1.5629-0.44809 3.5247 0.53601 4.3562l25.171 21.268c0.94249 0.79637 2.2474 0.18234 2.9004-1.3614" style="fill:#9f1718;stroke-width:1.0927"/></g><g transform="translate(-145.37,-4.7527)" style="stroke-width:1.0927"><path d="m418.59 694.65 19.522-42.251c0.76588-1.6576 0.47725-3.6734-0.56812-4.6122l-27.862-25.022c-1.1425-1.0261-2.6088-0.54108-3.4206 1.1357l-20.704 42.764c-0.81234 1.6779-0.58918 3.8214 0.6025 4.827l29.045 24.509c1.0891 0.91906 2.6208 0.30644 3.3863-1.3504" style="stroke-width:1.0927"/><path d="m418.33 693.22s18.762-40.568 18.762-40.568c0.70351-1.5211 0.45998-3.4981-0.54169-4.3965l-26.768-24.01c-1.0472-0.9393-2.5131-0.45228-3.2571 1.0858 0 0-19.85 41.04-19.85 41.04-0.77539 1.6031-0.51723 3.6715 0.5731 4.5928l27.857 23.538c1.0419 0.88035 2.4932 0.3019 3.2257-1.2819" style="fill:#9f1718;stroke-width:1.0927"/></g><g transform="translate(-145.37,104.53)" style="stroke-width:1.0927"><path d="m350.74 527.88 21.987-43.273c0.86163-1.6958 0.55112-3.824-0.60775-4.8648l-30.925-27.773c-1.2697-1.1403-2.9094-0.71318-3.8251 1.0012 0 0-23.381 43.773-23.381 43.773-0.91846 1.7195-0.68083 3.9839 0.64696 5.1043l32.32 27.273c1.2104 1.0214 2.9227 0.45823 3.7859-1.2406" style="stroke-width:1.0927"/><path d="m350.46 526.38 21.132-41.548c0.79153-1.5562 0.53101-3.6414-0.57952-4.6376l-29.712-26.651c-1.1638-1.0439-2.803-0.61448-3.6422 0.95813l-22.416 42.009c-0.8766 1.6428-0.59939 3.83 0.61533 4.8564l30.996 26.19c1.1579 0.97834 2.7804 0.44699 3.6064-1.1769" style="fill:#9f1718;stroke-width:1.0927"/></g><g transform="translate(-145.37,213.81)" style="stroke-width:1.0927"><path d="m275.13 354.55s24.901-44.262 24.901-44.262c0.97457-1.7324 0.63896-3.9864-0.65295-5.1466l-34.523-31.004c-1.4194-1.2747-3.2637-0.92233-4.3025 0.82733 0 0-26.559 44.735-26.559 44.735-1.0447 1.7596-0.79061 4.1594 0.69801 5.4155l36.182 30.532c1.3531 1.1418 3.2787 0.64376 4.2574-1.096" style="stroke-width:1.0927"/><path d="m274.83 352.95 23.934-42.498c0.89539-1.5899 0.6155-3.7959-0.62266-4.9065l-33.171-29.753c-1.301-1.1669-3.1448-0.81198-4.0967 0.79316l-25.461 42.933c-0.99693 1.6811-0.69785 4.0016 0.66384 5.1522l34.698 29.318c1.2943 1.0937 3.119 0.62429 4.0556-1.0387" style="fill:#9f1718;stroke-width:1.0927"/></g><g transform="translate(-90.728,-59.392)" style="stroke-width:1.0927"><path d="m416.29 728.41 17.627-39.917c0.6922-1.5675 0.42141-3.4928-0.53541-4.4034l-25.475-24.245c-1.0435-0.99317-2.3756-0.55253-3.1076 1.0318l-18.651 40.365c-0.73101 1.5821-0.51998 3.6235 0.56601 4.5988l26.498 23.798c0.99478 0.89338 2.3865 0.3367 3.0771-1.2271" style="stroke-width:1.0927"/><path d="m416.05 727.05 16.94-38.326c0.63577-1.4384 0.40627-3.3259-0.51048-4.1974l-24.473-23.266c-0.95644-0.90924-2.2882-0.46677-2.9591 0.98647l-17.882 38.738c-0.69782 1.5117-0.45529 3.4823 0.53843 4.3759l25.416 22.853c0.95161 0.85567 2.2704 0.33005 2.9311-1.1649" style="fill:#9f1718;stroke-width:1.0927"/></g><g transform="translate(-90.728,49.887)" style="stroke-width:1.0927"><path d="m354.46 563.4 19.757-40.807c0.77506-1.6009 0.48489-3.6285-0.5707-4.6331l-28.136-26.778c-1.1538-1.0982-2.6359-0.71206-3.4575 0.90494l-20.955 41.241c-0.82221 1.6182-0.59826 3.769 0.60536 4.8499l29.334 26.344c1.0999 0.98782 2.6481 0.47868 3.4229-1.1216" style="stroke-width:1.0927"/><path d="m354.2 561.96 18.988-39.18c0.71194-1.469 0.46732-3.455-0.54415-4.4165l-27.031-25.697c-1.0575-1.0054-2.5393-0.61723-3.2922 0.86606l-20.091 39.58c-0.78482 1.5461-0.52543 3.6244 0.57582 4.6146l28.134 25.297c1.0522 0.94611 2.5192 0.46571 3.2605-1.064" style="fill:#9f1718;stroke-width:1.0927"/></g><g transform="translate(-90.728,159.17)" style="stroke-width:1.0927"><path d="m285.93 392.35 22.255-41.664c0.87207-1.6326 0.55981-3.774-0.61066-4.888l-31.237-29.73c-1.2826-1.2207-2.9402-0.90396-3.8671 0.74362l-23.668 42.071c-0.92977 1.6527-0.69124 3.9252 0.6502 5.13l32.65 29.322c1.2227 1.098 2.9539 0.65032 3.8276-0.9854" style="stroke-width:1.0927"/><path d="m285.64 390.83 21.39-40.002c0.80113-1.4982 0.53937-3.5934-0.58229-4.6597l-30.012-28.531c-1.1756-1.1176-2.8328-0.79853-3.6822 0.7129l-22.691 40.377c-0.88738 1.5791-0.60878 3.7773 0.61843 4.8808l31.313 28.156c1.1696 1.0517 2.8101 0.62971 3.6461-0.93382" style="fill:#9f1718;stroke-width:1.0927"/></g><g transform="translate(-90.728,268.45)" style="stroke-width:1.0927"><path d="m209.54 214.22s25.208-42.459 25.208-42.459c0.98655-1.6617 0.64896-3.9304-0.65624-5.1726l-34.88-33.197c-1.4342-1.365-3.2992-1.1366-4.3508 0.53813l-26.89 42.82c-1.0577 1.6844-0.80265 4.0933 0.70172 5.4443l36.562 32.835c1.3672 1.2278 3.3145 0.85937 4.3054-0.80964" style="stroke-width:1.0927"/><path d="m209.23 212.6 24.229-40.764c0.90639-1.5249 0.62509-3.7421-0.6258-4.9313l-33.514-31.86c-1.3145-1.2496-3.1791-1.0186-4.1428 0.51778 0 0-25.778 41.097-25.778 41.097-1.0094 1.6093-0.70873 3.9422 0.66737 5.1795l35.062 31.527c1.3078 1.176 3.1531 0.82937 4.1013-0.76588" style="fill:#9f1718;stroke-width:1.0927"/></g><g transform="translate(-36.088,-114.03)" style="stroke-width:1.0927"><path d="m409.32 764.04 15.983-37.822c0.6282-1.4866 0.37329-3.3291-0.50613-4.2128l-23.391-23.505c-0.95724-0.9619-2.1728-0.55983-2.8358 0.94152 0 0-16.875 38.215-16.875 38.215-0.6608 1.4964-0.46067 3.445 0.53353 4.3912l24.284 23.112c0.91255 0.86852 2.1828 0.36045 2.8084-1.1199" style="stroke-width:1.0927"/><path d="m409.09 762.74 15.359-36.314c0.57695-1.3641 0.36-3.1698-0.48253-4.0155 0 0-22.471-22.556-22.471-22.556-0.87736-0.88068-2.0926-0.47693-2.7002 0.90016l-16.181 36.676c-0.63086 1.4299-0.40224 3.3116 0.50757 4.1786l23.292 22.194c0.87296 0.83179 2.0766 0.35206 2.6752-1.0632" style="fill:#9f1718;stroke-width:1.0927"/></g><g transform="translate(-36.088,-4.7527)" style="stroke-width:1.0927"><path d="m352.72 600.71 17.836-38.602c0.7004-1.5158 0.42821-3.4519-0.53773-4.4225 0 0-25.719-25.844-25.719-25.844-1.0536-1.0587-2.3997-0.70801-3.1405 0.82197l-18.873 38.982c-0.73976 1.528-0.52802 3.5759 0.56857 4.6196l26.756 25.465c1.0044 0.95593 2.4109 0.49337 3.1097-1.019" style="stroke-width:1.0927"/><path d="m352.47 599.34 17.141-37.063c0.6433-1.391 0.4128-3.2866-0.51269-4.2156l-24.708-24.801c-0.96565-0.9693-2.3115-0.61677-2.9903 0.78665l-18.096 37.412c-0.70618 1.46-0.46255 3.4396 0.54087 4.3957l25.662 24.452c0.9608 0.91549 2.2936 0.47905 2.9622-0.96666" style="fill:#9f1718;stroke-width:1.0927"/></g><g transform="translate(-36.088,104.53)" style="stroke-width:1.0927"><path d="m290.28 431.8 19.994-39.35c0.78432-1.5436 0.49258-3.5831-0.5733-4.6542 0 0-28.412-28.55-28.412-28.55-1.1652-1.1709-2.6632-0.88463-3.4947 0.672l-21.208 39.704c-0.83217 1.5579-0.60741 3.716 0.60825 4.873l29.626 28.196c1.1108 1.0572 2.6757 0.65251 3.4598-0.89069" style="stroke-width:1.0927"/><path d="m290.02 430.35 19.216-37.78c0.72045-1.4165 0.47471-3.4114-0.54663-4.4366l-27.296-27.4c-1.068-1.072-2.5656-0.78372-3.3276 0.64425l-20.333 38.106c-0.79431 1.4886-0.53369 3.5767 0.57856 4.6365l28.414 27.074c1.0626 1.0125 2.5454 0.63106 3.2957-0.84407" style="fill:#9f1718;stroke-width:1.0927"/></g><g transform="translate(-36.088,213.81)" style="stroke-width:1.0927"><path d="m221.06 256.41 22.525-40.039c0.8826-1.5689 0.56859-3.7235-0.61358-4.9114l-31.551-31.705c-1.2956-1.3019-2.9714-1.0966-3.9096 0.48355l-23.957 40.352c-0.94118 1.5853-0.70175 3.8659 0.65347 5.1558l32.983 31.392c1.2351 1.1755 2.9854 0.84431 3.8697-0.72771" style="stroke-width:1.0927"/><path d="m220.78 254.88 21.649-38.441c0.81081-1.4397 0.5478-3.5449-0.58508-4.6821l-30.314-30.428c-1.1875-1.192-2.8629-0.98439-3.7226 0.46526l-22.968 38.729c-0.89828 1.5147-0.61828 3.724 0.62153 4.9053l31.632 30.14c1.1815 1.1258 2.84 0.81422 3.6862-0.68837" style="fill:#9f1718;stroke-width:1.0927"/></g><g transform="translate(18.552,-59.392)" style="stroke-width:1.0927"><path d="m346.25 639.56 16.171-36.619c0.63556-1.4393 0.3794-3.2916-0.50822-4.2302l-23.61-24.966c-0.96624-1.0217-2.1944-0.70181-2.8651 0.7499l-17.074 36.953c-0.66862 1.4471-0.46784 3.4016 0.53584 4.4102 0 0 24.514 24.633 24.514 24.633 0.92117 0.92565 2.2046 0.50357 2.8376-0.9298" style="stroke-width:1.0927"/><path d="m346.02 638.25s15.54-35.159 15.54-35.159c0.5837-1.3206 0.36585-3.1338-0.48453-4.0321 0 0-22.681-23.96-22.681-23.96-0.88562-0.93554-2.1135-0.61391-2.7282 0.71768l-16.371 35.466c-0.63832 1.3828-0.40871 3.2726 0.50976 4.1966 0 0 23.513 23.653 23.513 23.653 0.88119 0.88644 2.0973 0.48819 2.703-0.88207" style="fill:#9f1718;stroke-width:1.0927"/></g><g transform="translate(18.552,49.887)" style="stroke-width:1.0927"><path d="m289.1 472.67 18.047-37.276c0.70865-1.4637 0.43507-3.4105-0.54007-4.4417l-25.965-27.456c-1.0637-1.1248-2.424-0.86486-3.1736 0.61025l-19.097 37.585c-0.74859 1.4733-0.53612 3.5279 0.57116 4.6406l27.015 27.146c1.0141 1.019 2.4354 0.65141 3.1425-0.80901" style="stroke-width:1.0927"/><path d="m288.86 471.29 17.344-35.788c0.65088-1.3431 0.41938-3.2469-0.51492-4.2339 0 0-24.944-26.35-24.944-26.35-0.97494-1.0299-2.335-0.76808-3.0218 0.58505l-18.311 36.073c-0.7146 1.4078-0.46987 3.3964 0.54332 4.4156l25.911 26.065c0.97006 0.97583 2.3169 0.62938 2.9934-0.76667" style="fill:#9f1718;stroke-width:1.0927"/></g><g transform="translate(18.552,159.17)" style="stroke-width:1.0927"><path d="m226.06 299.84 20.233-37.878c0.79365-1.4858 0.50035-3.5373-0.57591-4.6754l-28.69-30.338c-1.1767-1.2443-2.6908-1.0588-3.5322 0.43688l-21.463 38.151c-0.84222 1.4971-0.61665 3.6625 0.61114 4.8963 0 0 29.92 30.065 29.92 30.065 1.1218 1.1272 2.7034 0.82796 3.497-0.65761" style="stroke-width:1.0927"/><path d="m225.79 298.38 19.445-36.366c0.72902-1.3634 0.48216-3.3674-0.54913-4.4568 0 0-27.564-29.117-27.564-29.117-1.0785-1.1393-2.5922-0.95175-3.3633 0.42035l-20.577 36.617c-0.8039 1.4305-0.54203 3.5286 0.58132 4.6586l28.696 28.866c1.0731 1.0795 2.5718 0.79794 3.3311-0.62206" style="fill:#9f1718;stroke-width:1.0927"/></g><g transform="translate(18.552,268.45)" style="stroke-width:1.0927"><path d="m156.15 120.08 22.797-38.398c0.89323-1.5045 0.57745-3.6725-0.61653-4.935 0 0-31.868-33.698-31.868-33.698-1.3087-1.3838-3.0029-1.2911-3.9524 0.22091l-24.249 38.615c-0.95271 1.5171-0.71236 3.806 0.65676 5.1818l33.319 33.482c1.2476 1.2537 3.0171 1.0402 3.9122-0.46748" style="stroke-width:1.0927"/><path d="m155.86 118.54 21.911-36.864c0.82057-1.3806 0.5563-3.4959-0.5879-4.7046 0 0-30.618-32.344-30.618-32.344-1.1994-1.2671-2.8933-1.1721-3.7634 0.21518l-23.247 37.063c-0.90926 1.4496-0.62785 3.67 0.62466 4.93 0 0 31.954 32.145 31.954 32.145 1.1935 1.2006 2.8702 1.0005 3.7267-0.4405" style="fill:#9f1718;stroke-width:1.0927"/></g><g transform="translate(73.191,-114.03)" style="stroke-width:1.0927"><path d="m335.66 679.77 14.717-34.827c0.57892-1.3699 0.3371-3.1455-0.48167-4.0539l-21.759-24.142c-0.8897-0.9871-2.0147-0.69404-2.6245 0.68691l-15.509 35.122c-0.60683 1.3742-0.41594 3.2435 0.50652 4.2189 0 0 22.551 23.847 22.551 23.847 0.84822 0.89694 2.024 0.51024 2.5996-0.85185" style="stroke-width:1.0927"/><path d="m335.44 678.51 14.143-33.437c0.53164-1.2569 0.32518-2.9946-0.45919-3.864l-20.903-23.169c-0.81546-0.90386-1.9402-0.60925-2.499 0.65741l-14.872 33.709c-0.57937 1.3132-0.36233 3.1211 0.48189 4.0147 0 0 21.632 22.897 21.632 22.897 0.81141 0.85888 1.9256 0.49402 2.4763-0.80812" style="fill:#9f1718;stroke-width:1.0927"/></g><g transform="translate(73.191,-4.7527)" style="stroke-width:1.0927"><path d="m283.14 514.78 16.36-35.407c0.64297-1.3915 0.38555-3.2538-0.51033-4.2478l-23.831-26.44c-0.97532-1.0821-2.2161-0.84499-2.8948 0.55664 0 0-17.274 35.68-17.274 35.68-0.6765 1.3973-0.47506 3.3578 0.53815 4.4293l24.746 26.167c0.92983 0.98325 2.2266 0.64789 2.8669-0.73807" style="stroke-width:1.0927"/><path d="m282.91 513.46 15.721-33.993c0.5905-1.2768 0.37175-3.0975-0.48654-4.0488 0 0-22.893-25.375-22.893-25.375-0.89392-0.99085-2.1345-0.75205-2.7564 0.53365l-16.564 34.245c-0.64583 1.3352-0.41524 3.2332 0.51196 4.2147l23.735 25.124c0.88948 0.94153 2.1182 0.62545 2.731-0.69944" style="fill:#9f1718;stroke-width:1.0927"/></g><g transform="translate(73.191,104.53)" style="stroke-width:1.0927"><path d="m225.45 344.32 18.26-35.937c0.71698-1.4111 0.44199-3.3688-0.54241-4.461l-26.213-29.082c-1.0739-1.1915-2.4486-1.0231-3.2069 0.39664l-19.324 36.176c-0.7575 1.4181-0.54431 3.4794 0.57374 4.6616 0 0 27.276 28.843 27.276 28.843 1.0238 1.0826 2.4602 0.81086 3.1756-0.59718" style="stroke-width:1.0927"/><path d="m225.2 342.93 17.548-34.502c0.65853-1.2947 0.42603-3.2068-0.51715-4.2523l-25.183-27.913c-0.98429-1.091-2.3586-0.92074-3.0536 0.38165l-18.528 34.722c-0.7231 1.3552-0.47725 3.3527 0.54579 4.4356l26.162 27.692c0.9794 1.0367 2.3404 0.78104 3.025-0.56489" style="fill:#9f1718;stroke-width:1.0927"/></g><g transform="translate(73.191,213.81)" style="stroke-width:1.0927"><path d="m161.79 167.52 20.474-36.393c0.80306-1.4275 0.50818-3.4911-0.57854-4.6968l-28.97-32.142c-1.1882-1.3183-2.7185-1.2346-3.57 0.19954 0 0-21.72 36.583-21.72 36.583-0.85235 1.4356-0.62597 3.6084 0.61407 4.9197l30.216 31.952c1.1328 1.1979 2.7315 1.005 3.5345-0.42235" style="stroke-width:1.0927"/><path d="m161.53 166.05 19.677-34.939c0.73767-1.3098 0.48969-3.323-0.55163-4.4772 0 0-27.833-30.851-27.833-30.851-1.0891-1.2072-2.619-1.1213-3.3993 0.19436l-20.824 35.114c-0.81356 1.3719-0.55044 3.48 0.5841 4.6809l28.98 30.676c1.0837 1.1471 2.5985 0.96636 3.3668-0.39796" style="fill:#9f1718;stroke-width:1.0927"/></g><g transform="translate(127.83,-59.392)" style="stroke-width:1.0927"><path d="m273 557.97s14.888-33.714 14.888-33.714c0.58559-1.3261 0.34263-3.1108-0.48359-4.07l-21.958-25.493c-0.89787-1.0424-2.0343-0.82527-2.6511 0.50978l-15.689 33.956c-0.6139 1.3286-0.42242 3.2034 0.50861 4.2364l22.76 25.252c0.85603 0.94974 2.0438 0.64255 2.6261-0.67607" style="stroke-width:1.0927"/><path d="m272.78 556.7 14.306-32.368c0.53777-1.2167 0.33049-2.9612-0.46102-3.8793l-21.094-24.467c-0.82294-0.95457-1.9591-0.73586-2.5244 0.48873l-15.044 32.59c-0.58612 1.2697-0.36818 3.0851 0.48388 4.0313l21.832 24.245c0.81888 0.9094 1.9444 0.61987 2.5015-0.64068" style="fill:#9f1718;stroke-width:1.0927"/></g><g transform="translate(127.83,49.887)" style="stroke-width:1.0927"><path d="m219.99 389.71s16.55-34.184 16.55-34.184c0.65043-1.3434 0.39174-3.2156-0.51245-4.2654 0 0-24.053-27.925-24.053-27.925-0.98445-1.1429-2.2381-0.98938-2.9246 0.36172l-17.476 34.395c-0.68444 1.347-0.48235 3.3137 0.54048 4.4485l24.979 27.714c0.93857 1.0413 2.2487 0.79343 2.8966-0.5447" style="stroke-width:1.0927"/><path d="m219.76 388.38s15.905-32.818 15.905-32.818c0.59736-1.2326 0.3777-3.0609-0.48856-4.0657 0 0-23.107-26.803-23.107-26.803-0.90231-1.0466-2.1557-0.89134-2.7848 0.34805 0 0-16.757 33.013-16.757 33.013-0.65341 1.2873-0.42182 3.1935 0.51418 4.233l23.959 26.608c0.89785 0.9971 2.1393 0.76389 2.7592-0.51525" style="fill:#9f1718;stroke-width:1.0927"/></g><g transform="translate(127.83,159.17)" style="stroke-width:1.0927"><path d="m161.76 215.64 18.474-34.586c0.72536-1.358 0.44896-3.3267-0.54478-4.4804l-26.463-30.723c-1.0842-1.2587-2.4732-1.1827-3.2405 0.18113l-19.552 34.754c-0.76647 1.3624-0.55255 3.4304 0.57636 4.6829l27.54 30.555c1.0337 1.1468 2.4851 0.97173 3.209-0.38345" style="stroke-width:1.0927"/><path d="m161.51 214.23s17.754-33.204 17.754-33.204c0.66623-1.246 0.43272-3.1664-0.51941-4.2708l-25.423-29.489c-0.99372-1.1527-2.3825-1.0748-3.0856 0.17643 0 0-18.746 33.358-18.746 33.358-0.73167 1.302-0.4847 3.3086 0.54827 4.4558l26.414 29.334c0.98881 1.0981 2.3641 0.93404 3.0568-0.36131" style="fill:#9f1718;stroke-width:1.0927"/></g><g transform="translate(127.83,268.45)" style="stroke-width:1.0927"><path d="m97.484 34.84 20.717-34.894c0.81255-1.3686 0.51608-3.4443-0.58119-4.7183 0 0-29.253-33.963-29.253-33.963-1.1999-1.3931-2.7465-1.412-3.6081-0.04003 0 0-21.979 35-21.979 35-0.86257 1.3736-0.63537 3.5538 0.61702 4.9433l30.515 33.856c1.144 1.2692 2.7597 1.1838 3.5723-0.18488" style="stroke-width:1.0927"/><path d="m97.214 33.355 19.91-33.498c0.74639-1.2558 0.49727-3.2782-0.55416-4.4977l-28.105-32.6c-1.0998-1.2757-2.6461-1.2925-3.4356-0.03375l-21.072 33.596c-0.82332 1.3126-0.55894 3.4309 0.5869 4.7034 0 0 29.267 32.502 29.267 32.502 1.0943 1.2153 2.6254 1.1364 3.4029-0.17176" style="fill:#9f1718;stroke-width:1.0927"/></g><g transform="translate(182.47,-114.03)" style="stroke-width:1.0927"><path d="m259.2 602.09s13.596-32.174 13.596-32.174c0.5352-1.2665 0.30526-2.9798-0.45941-3.9066l-20.306-24.61c-0.82961-1.0055-1.8742-0.80586-2.437 0.46862l-14.303 32.39c-0.5592 1.2664-0.37675 3.0626 0.48204 4.0596l21.012 24.395c0.79097 0.91831 1.883 0.63588 2.4144-0.62156" style="stroke-width:1.0927"/><path d="m259 600.88 13.065-30.889c0.49146-1.162 0.29454-2.8364-0.43795-3.7234 0 0-19.506-23.62-19.506-23.62-0.76038-0.92078-1.8048-0.71973-2.3205 0.44927l-13.715 31.087c-0.53393 1.2102-0.32738 2.9499 0.45863 3.8632 0 0 20.156 23.422 20.156 23.422 0.75665 0.87925 1.7914 0.61307 2.2999-0.58903" style="fill:#9f1718;stroke-width:1.0927"/></g><g transform="translate(182.47,-4.7527)" style="stroke-width:1.0927"><path d="m210.31 435.89 15.059-32.592c0.59232-1.2819 0.34821-3.0758-0.48551-4.0862l-22.159-26.856c-0.90609-1.0982-2.054-0.95756-2.678 0.33122l-15.871 32.78c-0.62101 1.2827-0.42894 3.163 0.51073 4.254 0 0 22.97 26.668 22.97 26.668 0.86389 1.003 2.0637 0.77593 2.6528-0.49886" style="stroke-width:1.0927"/><path d="m210.09 434.62 14.471-31.29c0.54395-1.1761 0.33585-2.9276-0.46285-3.8948l-21.286-25.776c-0.83049-1.0057-1.9782-0.86349-2.55 0.3187l-15.218 31.463c-0.59291 1.2258-0.37407 3.0487 0.48589 4.048 0 0 22.033 25.603 22.033 25.603 0.8264 0.96031 1.9633 0.74673 2.5269-0.47189" style="fill:#9f1718;stroke-width:1.0927"/></g><g transform="translate(182.47,104.53)" style="stroke-width:1.0927"><path d="m156.81 264.34 16.742-32.95c0.65794-1.2949 0.39798-3.1772-0.51459-4.2832 0 0-24.277-29.423-24.277-29.423-0.99366-1.2043-2.2602-1.135-2.9546 0.16515 0 0-17.68 33.099-17.68 33.099-0.69244 1.2963-0.48969 3.269 0.54283 4.4678l25.215 29.274c0.94738 1.0999 2.271 0.9402 2.9264-0.3497" style="stroke-width:1.0927"/><path d="m156.58 263 16.089-31.633c0.60427-1.188 0.3837-3.0239-0.49059-4.0826l-23.322-28.241c-0.91074-1.1028-2.177-1.0318-2.8134 0.16087l-16.952 31.77c-0.66105 1.2389-0.42845 3.1534 0.51641 4.2513l24.185 28.104c0.90627 1.0531 2.1605 0.90349 2.7876-0.3295" style="fill:#9f1718;stroke-width:1.0927"/></g><g transform="translate(182.47,213.81)" style="stroke-width:1.0927"><path d="m98.026 86.623 18.691-33.223c0.73381-1.3044 0.45598-3.2842-0.54716-4.5 0 0-26.714-32.377-26.714-32.377-1.0946-1.3266-2.4981-1.3438-3.2744-0.03633 0 0-19.782 33.319-19.782 33.319-0.77552 1.3062-0.56086 3.3809 0.57899 4.7042l27.805 32.282c1.0436 1.2116 2.5102 1.134 3.2426-0.16782" style="stroke-width:1.0927"/><path d="m97.776 85.208s17.962-31.894 17.962-31.894c0.67401-1.1968 0.43947-3.1256-0.52167-4.2895 0 0-25.665-31.078-25.665-31.078-1.0032-1.2148-2.4065-1.2301-3.1179-0.03063l-18.967 31.982c-0.7403 1.2483-0.49221 3.2641 0.55077 4.4761l26.669 30.99c0.99829 1.1601 2.388 1.0884 3.0888-0.15591" style="fill:#9f1718;stroke-width:1.0927"/></g></g></g><g transform="translate(655.65,-589.51)" style="fill:#701010;stroke-width:.17484"><g transform="translate(0 .072128)" style="stroke-width:.17484"><path d="m-396.94 317.6 4.7967 3.6838-0.70772 1.1648c-0.3896 0.64126-0.6514 1.21-0.58148 1.2635 0.0699 0.0535 0.66554 0.11226 1.3231 0.13055l1.194 0.0332 1.0464-1.7263 1.0446-1.7233-11.51-8.8662-1.4336 2.332 4.828 3.7079" style="stroke-width:.17484"/><path d="m-274.43 409.86c0.0117 0.0913 0.45457 0.49924 0.98387 0.90641l0.96131 0.73947-1.6313 3.1202c-0.89932 1.7201-1.5968 3.1589-1.5486 3.1946s2.6828-0.30509 5.8401-0.75527c5.3034-0.75618 5.7206-0.84649 6.0002-1.2971l0.30042-0.48418-6.184-4.7713s0.41546-0.79633 0.41546-0.79633 0.41513-0.79571 0.41513-0.79571l-1.6065-1.2422s-0.41626 0.79618-0.41626 0.79618-0.41657 0.7968-0.41657 0.7968l-2.074-1.6003-0.52996 1.0109c-0.2917 0.55644-0.52094 1.0866-0.50927 1.1778l2e-5 1e-5m4.6143 3.699c0.6049 0.46532 0.97817 0.8354 0.87444 0.86683-0.22181 0.0672-2.5385 0.40561-2.8215 0.41205-0.15441 3e-3 -0.0709-0.2505 0.3432-1.0443l0.54667-1.0478 1.0572 0.81322" style="stroke-width:.17484"/><path d="m-359.22 353.2c0.50676-0.11369 2.6802-0.63651 4.8239-1.1604 4.96-1.2121 5.6149-1.2691 6.5197-0.57186 0.58388 0.44998 0.7025 0.6445 0.8024 1.3161 0.23088 1.5518-0.70993 3.1938-1.9686 3.4331-0.65615 0.12464-0.83969 0.0885-1.7076-0.33704l-0.54413-0.26675-0.61289 1.0626-0.61354 1.0638 0.55902 0.42697c1.235 0.94331 3.0139 0.93388 4.5324-0.0208 1.1192-0.7036 2.2452-2.4804 2.53-3.99 0.25803-1.3675-0.0329-3.0144-0.70823-4.009-1.3459-1.9821-2.7649-2.188-7.3528-1.0575l-2.3768 0.5857 1.5326-2.6402s1.5286-2.6332 1.5286-2.6332l-1.8116-1.4008s-3.0193 5.1895-3.0193 5.1895-3.0351 5.2167-3.0351 5.2167l0.9222-0.20706" style="stroke-width:.17484"/><path d="m-315.68 381.95c-0.4283 1.4674-0.36514 2.666 0.20831 3.9517 0.27724 0.62154 0.68519 1.3349 0.9066 1.5854 0 0 0.40238 0.45525 0.40238 0.45525l1.2236-2.2354s-0.45206-0.80794-0.45206-0.80794c-0.53029-0.94773-0.57373-1.727-0.15261-2.7368 0.86156-2.0658 3.0267-2.5921 3.7389-0.9144 0.37994 0.89494 0.321 1.665-0.23569 3.0774l-0.49699 1.261 0.76484 0.5865c0.75219 0.57679 0.7679 0.57877 1.0086 0.14056 1.109-2.0191 2.8083-2.2948 3.0396-0.49766 0.0796 0.6185 0.0233 0.87763-0.33256 1.5299-0.52884 0.96942-0.94412 1.2144-1.8944 1.1164 0 0-0.7392-0.0762-0.7392-0.0762l-1.2454 2.2787 0.38866 0.15734c0.21364 0.0865 0.84094 0.2002 1.3936 0.25263 1.5339 0.14547 2.8184-0.64381 3.7056-2.2736 1.2837-2.3583 1.0598-5.0647-0.52004-6.2845-0.62349-0.48142-1.6016-0.67584-2.1588-0.42853-0.2561 0.11366-0.29536 0.0498-0.32844-0.53425-0.0207-0.36483-0.21227-1.0968-0.42584-1.6267-0.96372-2.391-3.6663-2.9586-5.763-1.2007-0.81442 0.68282-1.7066 2.0948-2.036 3.2235l3.1e-4 3e-4" style="stroke-width:.17484"/><path d="m-238.21 441.52c-0.41359 1.7092-0.22695 3.1223 0.57421 4.3483 0.64102 0.98091 0.63434 0.98224 1.2442-0.24474l0.54251-1.0915-0.35509-0.56525c-0.51014-0.81206-0.46748-1.8171 0.12009-2.8336 0.75146-1.2999 1.9185-1.6677 2.8956-0.91495 1.5143 1.1666 1.0635 3.6024-1.0339 5.5737-0.29816 0.28025-0.58146 0.58572-0.62942 0.67872-0.0545 0.10615 0.96301 0.62107 2.7253 1.3795 1.5416 0.66345 2.8126 1.2136 2.828 1.2239 0.0153 0.0104 0.70873-1.3626 1.5396-3.0486l1.5073-3.0585-0.69907-0.53994-0.69982-0.54053-1.0764 2.18-1.0786 2.1846-0.77078-0.35236c-0.4243-0.19401-0.79774-0.37275-0.82956-0.39717-0.0318-0.0244 0.15515-0.54084 0.41536-1.1473 1.076-2.5078 0.6906-4.9339-0.99205-6.242-0.92238-0.7168-1.4929-0.90839-2.3638-0.79214-0.91284 0.12185-1.8382 0.71675-2.5846 1.6627-0.74867 0.94884-1.0295 1.5058-1.279 2.5371l-1e-5 -1e-5" style="stroke-width:.17484"/><path d="m-202.75 468.44c-0.5093 2.1535 0.11884 4.2855 1.5182 5.1564 0.88082 0.54823 2.0755 0.52382 5.6836-0.11334l2.9851-0.52715 0.0445-1.0816c0.0245-0.59477 0.0383-1.1311 0.0306-1.1919-8e-3 -0.0608-0.93434 0.0409-2.0613 0.22637-1.1292 0.18581-2.079 0.31941-2.1087 0.29656-0.0297-0.0228 0.0549-0.27222 0.18806-0.55412 0.33765-0.71488 0.50071-2.3897 0.31925-3.2776-0.6009-2.94-3.4851-3.7766-5.2786-1.519-0.58349 0.73447-1.141 1.8256-1.3207 2.5854l-2e-5 -1e-5m2.925-1.2878c1.1322-0.55492 2.15 0.5295 1.9866 2.1137-0.10452 1.0129-0.69832 1.9096-1.4508 2.1896-0.52543 0.19552-0.6868 0.17035-1.1421-0.17834-0.47851-0.36647-0.54188-0.49594-0.64537-1.3185-0.10349-0.82265-0.0775-0.9906 0.26436-1.7105 0.32598-0.68641 0.46384-0.83936 0.98736-1.096" style="stroke-width:.17484"/><path d="m-169.84 496.77c-0.0528 0.52955-0.094 0.99123-0.0915 1.0259 2e-3 0.0346 2.0286-0.0149 4.4929-0.10981l4.4539-0.17145-1.1698 2.6798s-1.1727 2.6864-1.1727 2.6864l1.3585 1.0369 1.9586-4.3624c1.0739-2.3918 1.9169-4.3673 1.8756-4.3948-0.16383-0.10917-11.424 0.39485-11.513 0.51658-0.0529 0.0717-0.13938 0.56348-0.19215 1.0929l-1e-5 -1e-5" style="stroke-width:.17484"/><path d="m-137.05 518.84c-0.24551 0.88982-0.27812 1.3048-0.18622 2.3705 0.20709 2.4014 1.6629 3.6303 3.2892 2.7823l0.7003-0.36511 0.0812 0.54058c0.35075 2.3367 2.1626 2.8652 3.7836 1.1109 0.93683-1.0138 1.5617-2.8292 1.5188-4.4096-0.0101-0.3733-0.14857-1.0286-0.30766-1.4563-0.25084-0.67436-0.37112-0.8302-0.9043-1.1713-0.50192-0.32113-0.73247-0.36439-1.2492-0.23424l-0.63439 0.15979s-0.0196-0.52348-0.0196-0.52348c-0.0312-0.83188-0.44894-1.873-0.95968-2.3909-0.93439-0.94757-2.4251-0.75332-3.4908 0.45825-0.60839 0.69167-1.3363 2.096-1.6212 3.1286m2.4771-1.4134c0.84358-0.74113 1.7081-0.50924 1.9966 0.53391 0.32345 1.1694-0.018 2.5296-0.85396 3.3994-0.84189 0.87598-1.7333 0.77174-2.1094-0.24844-0.38697-1.0495 0.10654-2.9292 0.96674-3.6849m3.4332 3.315c0.72933-0.85162 1.5448-0.58003 1.6859 0.5599 0.11733 0.94783-0.43932 2.2419-1.1123 2.5844-0.7916 0.40282-1.3386-0.44289-1.1554-1.7876 0.0977-0.71735 0.16144-0.86584 0.58194-1.3565l-1.9e-4 -1.5e-4" style="stroke-width:.17484"/></g><path d="m-157.16-70.97s-3.2352-3.9834-3.2352-3.9834 0.45898-0.74837 0.45898-0.74837c0.25226-0.4113 0.41992-0.7953 0.37266-0.8536-0.0473-0.05828-0.44549-0.24411-0.88526-0.41308l-0.80048-0.30756-1.3662 2.2224 3.8949 4.7874s3.8706 4.7575 3.8706 4.7575 0.4544-0.74966 0.4544-0.74966l0.45397-0.74895s-3.2184-3.9626-3.2184-3.9626" style="stroke-width:.17484"/><path d="m-68.902 39.114c-9e-3 -0.07487-0.31458-0.50293-0.67933-0.95161 0 0-0.66375-0.8165-0.66375-0.8165l1.0741-2.0699c0.58962-1.1363 1.0445-2.0975 1.0115-2.1375-0.03301-0.03993-1.8165-0.42245-3.9714-0.85155-3.6648-0.72978-3.9552-0.76301-4.1458-0.47312l-0.20492 0.3118 4.3452 5.3359s-0.27694 0.53259-0.27694 0.53259-0.27712 0.53293-0.27712 0.53293l0.56018 0.68706s0.55964 0.68639 0.55964 0.68639 0.27649-0.53284 0.27649-0.53284l0.27632-0.53251s0.71794 0.88163 0.71794 0.88163 0.71704 0.88053 0.71704 0.88053 0.34874-0.67389 0.34874-0.67389c0.19169-0.37042 0.34112-0.73458 0.33212-0.8094l-1.5e-5 -1.8e-5m-3.195-4.0462c-0.42156-0.51858-0.68298-0.90494-0.61183-0.90426 0.15207 0.0014 1.7386 0.30434 1.932 0.36882 0.10549 0.03518 0.05137 0.21573-0.2227 0.7428 0 0-0.36238 0.69691-0.36238 0.69691s-0.7351-0.90427-0.7351-0.90427" style="stroke-width:.17484"/><path d="m-122.66-33.549c-0.33182-0.02828-1.7598-0.12253-3.1765-0.20963-3.3103-0.20353-3.752-0.31183-4.3727-1.0746-0.40132-0.49315-0.48413-0.67488-0.55985-1.2292-0.17504-1.281 0.44403-2.3516 1.2926-2.238 0.4412 0.05912 0.56532 0.13152 1.1545 0.67324l0.36868 0.339s0.39823-0.68802 0.39823-0.68802 0.39789-0.68743 0.39789-0.68743-0.37932-0.4685-0.37932-0.4685c-0.83991-1.0374-2.0381-1.4609-3.0544-1.0775-0.75188 0.28362-1.4984 1.4158-1.6754 2.5425-0.16049 1.0217 0.0574 2.3964 0.52998 3.3441 0.93951 1.8842 1.9045 2.3763 4.9777 2.5449l1.5768 0.08647-1.9781 3.4397 0.6144 0.75354s0.61376 0.75277 0.61376 0.75277l3.8743-6.7521-0.60269-0.05123" style="stroke-width:.17484"/><path d="m-95.065 3.9864c0.26805-1.0489 0.21135-2.0021-0.18705-3.1448-0.19279-0.55296-0.47427-1.2096-0.6255-1.4591l-0.27507-0.45383-0.3973 0.72985s-0.39765 0.7305-0.39765 0.7305l0.31362 0.74289c0.36746 0.87042 0.40598 1.4926 0.13534 2.1864-0.5549 1.4226-2.0116 1.3301-2.5145-0.16305-0.26859-0.79745-0.23757-1.3919 0.1238-2.3738l0.32203-0.87501s-0.52546-0.64755-0.52546-0.64755c-0.51779-0.63809-0.5285-0.64348-0.68716-0.35587-0.7326 1.3281-1.8926 1.1351-2.072-0.34752-0.0617-0.51032-0.026-0.7021 0.21064-1.132 0.35123-0.63791 0.63256-0.72936 1.2827-0.41764l0.50453 0.24191s0.4099-0.74587 0.4099-0.74587l0.40953-0.74519-0.26553-0.22014c-0.14608-0.12115-0.57386-0.36642-0.9508-0.54517-1.0492-0.49753-1.9209-0.19333-2.5126 0.87898-0.85921 1.5571-0.67386 3.7674 0.42954 5.1218 0.43422 0.533 1.1075 0.92239 1.4861 0.85988 0.1738-0.028695 0.20138 0.031309 0.23075 0.50209 0.0183 0.29407 0.15776 0.9198 0.30976 1.3904 0.68504 2.1207 2.5255 3.1977 3.9176 2.2984 0.53836-0.34775 1.1186-1.2485 1.325-2.0564l-2.14e-4 -3.084e-4" style="stroke-width:.17484"/><path d="m-42.12 69.105c0.2627-1.2495 0.11896-2.4132-0.44275-3.5839-0.45026-0.93842-0.4457-0.93778-0.85014-0.12029l-0.3605 0.72866s0.25061 0.53771 0.25061 0.53771c0.35964 0.77165 0.34185 1.5579-0.05029 2.2186-0.50266 0.84682-1.3045 0.85099-1.9898 0.0087-1.0659-1.31-0.77893-3.1408 0.65347-4.1776 0.20285-0.14683 0.39497-0.31734 0.42701-0.37898 0.03642-0.07039-0.67228-0.73972-1.903-1.7972-1.0817-0.92943-1.9773-1.7013-1.9882-1.7137-0.01087-0.01234-0.48276 0.90544-1.0493 2.0408l-1.032 2.0682 0.50026 0.61396s0.49982 0.61341 0.49982 0.61341l0.73424-1.4743 0.73298-1.4717 0.54305 0.48062c0.29843 0.26415 0.56088 0.50276 0.58333 0.53041 0.02246 0.02767-0.10222 0.39212-0.27709 0.81009-0.72487 1.7325-0.42849 3.7726 0.76064 5.2378 0.64949 0.80009 1.0476 1.0931 1.6493 1.2138 0.62908 0.12619 1.2596-0.12076 1.7616-0.68923 0.50224-0.56881 0.68801-0.94097 0.84672-1.696l1e-5 1.1e-5" style="stroke-width:.17484"/><path d="m-17.298 99.904c0.32702-1.5817-0.13033-3.4352-1.1082-4.4891-0.61754-0.66553-1.4492-0.95818-3.9734-1.3965 0 0-2.11-0.36636-2.11-0.36636s-0.0204 0.8602-0.0204 0.8602c-0.01122 0.47319-0.01544 0.90215-0.0094 0.95319 0.0061 0.05105 0.66419 0.21239 1.4613 0.3583 0.79587 0.14569 1.4634 0.28604 1.4846 0.31208 0.02115 0.02604-0.03568 0.20393-0.12631 0.39536-0.23003 0.48586-0.32693 1.7882-0.18949 2.5477 0.45482 2.5134 2.4843 3.906 3.7065 2.5512 0.39601-0.43901 0.76926-1.1674 0.88481-1.7262l1.4e-5 1.7e-5m-2.0144 0.28736c-0.78411 0.15713-1.5088-0.96981-1.4114-2.1966 0.0622-0.78382 0.46798-1.3475 0.99044-1.3766 0.36406-0.02028 0.4767 0.04145 0.79727 0.4368 0.33647 0.41495 0.3819 0.53433 0.46288 1.216 0.08097 0.68169 0.06483 0.80889-0.16447 1.2959-0.2189 0.46489-0.31309 0.55206-0.67471 0.62454" style="stroke-width:.17484"/><path d="m6.9031 127.3c0.03084-0.40817 0.054367-0.76518 0.052293-0.79342-0.00208-0.0282-1.4146-0.52008-3.1445-1.0948l-3.1608-1.0502 0.80704-1.8458 0.80541-1.842s-0.48806-0.60304-0.48806-0.60304l-0.4885-0.60358-1.3549 2.9824c-0.74713 1.6446-1.3348 3.0198-1.3048 3.0532 0.11932 0.13248 8.0939 2.6923 8.1551 2.6185 0.036003-0.0434 0.090754-0.41303 0.1216-0.82126 0 0 8.7e-6 1e-5 8.7e-6 1e-5" style="stroke-width:.17484"/><path d="m29.034 156.98c0.16324-0.64832 0.18171-0.9721 0.10559-1.8501-0.17152-1.9784-1.2116-3.3575-2.3556-3.1194l-0.49456 0.10289-0.06345-0.45752c-0.27431-1.9782-1.5758-2.908-2.7241-1.9412-0.66666 0.56127-1.1012 1.8621-1.0544 3.1584 0.01107 0.30623 0.11798 0.87673 0.23757 1.2677 0.18845 0.61614 0.2771 0.77533 0.66617 1.1964 0.36567 0.39574 0.53239 0.49277 0.90335 0.52592l0.4545 0.0406 0.01944 0.42904c0.03088 0.68188 0.34146 1.6356 0.71289 2.1895 0.67808 1.0112 1.738 1.2431 2.4812 0.54522 0.42302-0.39723 0.92175-1.3342 1.1114-2.0874m-1.7364 0.48251c-0.59196 0.37471-1.2107-0.0407-1.4276-0.95958-0.24332-1.0308-0.01338-2.0371 0.57384-2.5131 0.58962-0.47791 1.2229-0.15375 1.4999 0.76658 0.28476 0.94591-0.04432 2.3251-0.64614 2.7061m-2.4849-3.5928c-0.51533 0.49172-1.1055 0.0506-1.2188-0.91206-0.09422-0.80053 0.29406-1.6958 0.77476-1.7874 0.56405-0.10753 0.96452 0.72542 0.84719 1.7611-0.06264 0.5529-0.10675 0.65559-0.40326 0.93821l1.39e-4 1.7e-4" style="stroke-width:.17484"/></g><g transform="translate(658.67,-589.84)" style="fill:#701010;stroke-width:.17484"><path d="m-414.04 236.56c-1.1438 2.797-0.38592 6.1025 1.8054 7.8798 0.48588 0.3941 1.29 0.85985 1.787 1.0352 1.1307 0.39889 3.0911 0.13929 4.3163-0.56993 0.77264-0.44715 1.011-0.70476 1.8096-1.9542 0.814-1.2744 0.93133-1.5608 1.0368-2.5246 0.0651-0.59803 0.1323-1.1091 0.14934-1.1358 0.017-0.0267 0.18471 0.0426 0.37261 0.1538 0.31027 0.18377 0.40782 0.10702 1.0678-0.8396l0.72519-1.0409-8.8315-7.2588-0.7198 1.1161c-0.68597 1.0636-0.70502 1.1302-0.39713 1.3826l0.32339 0.26505-0.97668 0.60381c-1.1035 0.68219-1.9911 1.72-2.4685 2.8872 0 0 2.3e-4 2.6e-4 2.3e-4 2.6e-4m3.9633-1.0298c0.92082-0.47674 2.4429-0.28066 3.2907 0.42252 1.7957 1.4893 1.8684 4.5932 0.14458 6.2017-1.2959 1.2094-3.5684 1.045-4.6404-0.33997-1.6671-2.1537-1.103-5.0892 1.2051-6.2842" style="stroke-width:.17484"/><path d="m-381.97 183.77c-0.12326 0.47964-0.22885 1.1615-0.23462 1.5152l-0.0105 0.64313-0.41404-0.35934-0.41426-0.35955-0.62444 1.0608-0.6251 1.0619 11.262 9.8722 0.67807-1.0652 0.67727-1.0639-3.5013-3.0387 1.0034-0.58822c1.3088-0.76709 2.3382-2.2975 2.6556-3.9453 0.27344-1.4192-0.10317-3.7202-0.80149-4.8969-2.1158-3.5649-6.3321-3.9303-8.6777-0.73033-0.52538 0.71663-0.81583 1.2824-0.97314 1.8938l4.8e-4 4.7e-4m3.6212-1.1307c0.95067-0.53134 2.5619-0.33297 3.4231 0.4199 0.86156 0.75321 1.4707 2.4891 1.3028 3.7115-0.21186 1.5422-1.1842 2.6841-2.5466 2.9877-0.9581 0.21358-1.7128-0.0207-2.6087-0.81068-1.2764-1.1255-1.7022-2.8158-1.1182-4.4399 0.2383-0.66245 0.96957-1.5459 1.5476-1.8685" style="stroke-width:.17484"/><path d="m-348.86 135.81c-0.56894 2.0163-0.11439 4.5315 1.1015 6.0979 3.0763 3.963 8.322 2.1332 9.2021-3.1734 0.15768-0.9508-0.14283-3.3238-0.43731-3.4536-0.09-0.0396-0.52026 0.0792-0.95543 0.26464l-0.79211 0.33745 0.12096 1.2045c0.0922 0.91797 0.0393 1.4166-0.22252 2.0958-1.4008 3.6338-5.5962 3.0094-6.1036-0.92616-0.16192-1.2565 0.13509-2.3453 0.88791-3.2562 0.6321-0.76495 1.1926-1.0629 2.1965-1.1686 0 0 0.78999-0.0832 0.78999-0.0832l0.0348-1.0741c0.0191-0.59067 0.0334-1.1157 0.0316-1.1668-7e-3 -0.20709-1.2862-0.19918-2.0299 0.0128-1.6647 0.4744-3.2492 2.2493-3.8246 4.2889" style="stroke-width:.17484"/><path d="m-320.15 88.048c-0.36058 1.5522-0.23006 2.9102 0.44752 4.6559 0.28332 0.72996 0.49912 1.0172 1.4766 1.9661 1.3413 1.3025 2.1978 1.6599 3.6391 1.5222 1.3463-0.12866 2.0259-0.55773 2.9627-1.8692 0.82125-1.1492 0.86607-1.2855 1.1666-3.5147 0.0105-0.0807 0.74582 0.56658 1.6323 1.4367l1.6088 1.5791s0.56019-0.88 0.56019-0.88 0.55963-0.87912 0.55963-0.87912l-10.231-10.063-0.56898 0.8805c-0.5491 0.84974-0.55905 0.89171-0.26946 1.1759 0.165 0.16195 0.28387 0.31935 0.26427 0.3497-0.0197 0.03044-0.39313 0.23314-0.83025 0.45062-0.64681 0.32173-0.9328 0.59523-1.53 1.4629-0.45493 0.66018-0.79375 1.3195-0.88823 1.7261l-2e-5 2.5e-5m3.3704-1.1257c1.0452-0.52987 2.2219-0.30387 3.1453 0.60244 1.7201 1.6883 1.596 4.7999-0.23452 5.8539-0.66384 0.38236-1.5469 0.46616-2.1587 0.20451-0.53172-0.22742-1.5268-1.182-1.8131-1.7397-0.31819-0.6197-0.55186-2.1195-0.43033-2.7623 0.15731-0.83241 0.84888-1.8332 1.4919-2.1585l-4.5e-4 -4.4e-4" style="stroke-width:.17484"/><path d="m-290.15 44.444c-0.50498 1.515-0.40337 3.2693 0.28324 4.8899 0.36417 0.8595 0.58107 1.1662 1.4611 2.0665 1.2378 1.2661 1.9837 1.6114 3.4132 1.5812 3.9422-0.08306 5.3375-6.377 2.1545-9.6755 0 0-0.62366-0.6463-0.62366-0.6463l-2.1164 3.2977s-2.1247 3.3106-2.1247 3.3106l-0.25918-0.41044c-0.70069-1.1096-0.80036-2.977-0.20782-3.8934 0.64232-0.99786 1.7421-1.4255 2.9344-1.1492l0.56346 0.13055 0.0871-0.69806c0.1778-1.4255 0.16104-1.4787-0.53886-1.7093-0.86168-0.28387-2.1726-0.15053-2.9628 0.30237-0.71807 0.4115-1.7789 1.7494-2.0635 2.6032m6.8778 1.8367c0.80482 0.832 0.062 3.6142-1.119 4.1868-0.41578 0.20164-1.4657 0.22288-1.6502 0.03316-0.06-0.06166 0.48138-1.0247 1.261-2.2419 1.0512-1.6414 1.3964-2.0936 1.5082-1.978" style="stroke-width:.17484"/><path d="m-261.44 4.1762s2.787 3.0158 2.787 3.0158l-0.31895 0.49792s-0.31914 0.49822-0.31914 0.49822l0.70548 0.70056 0.70472 0.69982s0.329-0.42469 0.329-0.42469 0.32879-0.42443 0.32879-0.42443l0.64954 0.70288c1.112 1.2033 1.932 1.372 2.6864 0.55483 0.49517-0.53651 0.9369-1.6081 0.74723-1.8141-0.0856-0.092906-0.12047-0.22407-0.0776-0.29143 0.0434-0.068051-0.21032-0.43566-0.57103-0.82746-0.35725-0.38803-0.66298-0.68485-0.67925-0.65936-0.0162 0.025416-0.0827 0.32362-0.14775 0.66263-0.21399 1.116-0.36104 1.1966-0.97334 0.53267 0 0-0.53749-0.58281-0.53749-0.58281s0.41816-0.74059 0.41816-0.74059 0.41782-0.74 0.41782-0.74-0.65498-0.77315-0.65498-0.77315l-0.65562-0.7739s-0.47477 0.74118-0.47477 0.74118-0.4752 0.74185-0.4752 0.74185l-2.7817-3.0163s-2.7934-3.0289-2.7934-3.0289-0.55577 0.85994-0.55577 0.85994-0.55636 0.86083-0.55636 0.86083 2.7983 3.0279 2.7983 3.0279" style="stroke-width:.17484"/><path d="m-238.43-38.27c-0.34422 1.5634-0.26328 2.4039 0.40251 4.1812 0 0 0.3477 0.92813 0.3477 0.92813l0.56212-0.87343c0.55805-0.86711 0.56248-0.874 0.36148-1.5287-0.2873-0.94275-0.10591-1.97 0.51852-2.9384 0.79372-1.2309 1.7293-1.5054 2.595-0.76349l0.44859 0.38448s-0.36245 0.0981-0.36245 0.0981c-0.19945 0.05397-0.63906 0.31336-0.97698 0.5766-1.6073 1.252-2.04 4.1762-0.99277 6.7213 0.46205 1.123 1.7459 2.5741 2.6518 2.9984 0.86721 0.40621 2.1164 0.45535 2.9138 0.11558 0.5724-0.24393 0.73779-0.41284 1.3597-1.3885 0.63407-0.99498 0.71481-1.2017 0.78471-2.0021 0.0427-0.49094 0.0901-0.91219 0.10542-0.93618 0.0153-0.02397 0.14418 0.08896 0.28643 0.2509 0.24951 0.28406 0.27558 0.26762 0.74532-0.4702 0 0 0.48631-0.76385 0.48631-0.76385s-3.4128-3.8294-3.4128-3.8294c-3.371-3.7825-3.442-3.8541-4.0774-4.1103-0.88769-0.35792-1.5229-0.37228-2.2888-0.051-0.56016 0.23486-0.76411 0.43797-1.4722 1.4665-0.63054 0.91575-0.86147 1.3683-0.98592 1.9344 0 0 3e-5 -4.4e-5 3e-5 -4.4e-5m5.5359 1.4977c0.62251-0.30246 1.5086-0.03037 2.2336 0.68494 0.75422 0.74416 1.1424 1.523 1.2554 2.518 0.32132 2.8298-2.1906 4.2256-3.9891 2.206-0.88588-0.99435-1.2163-2.4345-0.86214-3.7571 0.15564-0.58145 0.82239-1.3895 1.3622-1.6519" style="stroke-width:.17484"/><path d="m-210.68-69.757 4.3014 5.0854 0.92535-1.4536-2.6791-3.1726 0.53955-0.19507c0.87597-0.31663 1.4248-0.86397 1.7297-1.7239 0.37322-1.0526 0.3318-2.1712-0.12369-3.3429-0.36811-0.94695-0.42806-1.0315-2.6765-3.7758 0 0-2.3082-2.8173-2.3082-2.8173s-0.4613 0.79626-0.4613 0.79626l-0.46172 0.797 2.2213 2.7388c1.933 2.3832 2.2314 2.796 2.3524 3.2534 0.29168 1.1019-0.34835 2.1704-1.3291 2.2166-1.0101 0.04762-1.1953-0.09546-3.4183-2.6436l-2.0173-2.3123s-0.46203 0.71496-0.46203 0.71496-0.46245 0.71562-0.46245 0.71562 4.3299 5.1191 4.3299 5.1191" style="stroke-width:.17484"/><g transform="translate(0,12)" style="stroke-width:.17484"><path d="m-88.278 487.58c0.63608-2.3879 0.13042-4.8997-1.2087-6.0004-0.29788-0.24484-0.78862-0.50223-1.0906-0.57195-0.68839-0.15889-1.8714 0.32524-2.6051 1.0673-0.46396 0.46916-0.60541 0.71012-1.0738 1.829-0.47856 1.1439-0.54601 1.3917-0.59549 2.1831-0.03051 0.49122-0.06368 0.91287-0.07372 0.93692-0.01005 0.0241-0.11414-7e-3 -0.23138-0.068-0.1937-0.10159-0.25252-0.0251-0.64407 0.83796 0 0-0.43114 0.95086-0.43114 0.95086l2.7616 2.2399 2.7486 2.2294 0.41626-1.0048c0.39588-0.95557 0.40626-1.0116 0.21684-1.1657l-0.1991-0.16195s0.57802-0.63149 0.57802-0.63149c0.6512-0.71144 1.1656-1.671 1.4318-2.6701l-1.41e-4 -1.7e-4m-2.3621 1.4147c-0.54852 0.52075-1.474 0.59561-2.0006 0.16094-1.1189-0.92352-1.2127-3.4069-0.1872-4.9503 0.76768-1.1555 2.1441-1.3504 2.8118-0.40086 1.0351 1.472 0.74496 3.8905-0.624 5.1902" style="stroke-width:.17484"/><path d="m-68.039 441.3c0.06631-0.40225 0.1187-0.96295 0.1164-1.2461l-0.0042-0.51475 0.50896 0.44491s0.35681-0.94146 0.35681-0.94146l0.35651-0.94068-3.4831-3.1009-3.5043-3.1198s-0.40082 0.95821-0.40082 0.95821-0.40118 0.9591-0.40118 0.9591l1.1014 0.96275 1.0993 0.96095s-0.60562 0.62544-0.60562 0.62544c-0.79248 0.81833-1.4033 2.2135-1.5735 3.596-0.14683 1.192 0.12232 2.9949 0.57225 3.8342 1.3589 2.5348 3.9386 2.1342 5.3061-0.81006 0.30499-0.65654 0.47064-1.1546 0.55533-1.6675 0 0-2.93e-4 -3e-4 -2.93e-4 -3e-4m-2.1703 1.4792c-0.56958 0.57923-1.556 0.67924-2.0952 0.21129-0.5406-0.46914-0.94255-1.7732-0.85869-2.7864 0.10579-1.2773 0.68426-2.3479 1.5128-2.8012 0.58077-0.31786 1.0436-0.24496 1.6001 0.25137 0.79079 0.70525 1.0753 1.9912 0.74871 3.3818-0.13346 0.56802-0.56218 1.392-0.90775 1.7431" style="stroke-width:.17484"/><path d="m-50.371 395.82c0.3144-1.7147-0.0029-3.6637-0.77022-4.7309-1.9516-2.7141-5.1806-0.40692-5.6499 4.061-0.08425 0.80229 0.14102 2.6893 0.3277 2.7453 0.05705 0.017 0.32464-0.15268 0.59397-0.37741l0.48938-0.40823s-0.09423-0.96032-0.09423-0.96032c-0.07184-0.73186-0.04656-1.1464 0.10612-1.7421 0.81466-3.1778 3.4141-3.3391 3.7879-0.24647 0.11926 0.98708-0.04551 1.9146-0.4933 2.7751-0.37678 0.72421-0.71752 1.0595-1.3359 1.3144l-0.48785 0.2011s-0.0047 0.87807-0.0047 0.87807c-0.0026 0.48302-0.0031 0.91195-0.0012 0.95314 0.0079 0.16697 0.7993-0.0592 1.255-0.35834 1.0166-0.66729 1.9586-2.3662 2.2772-4.1043" style="stroke-width:.17484"/><path d="m-31.765 353.66c0.19645-1.3164 0.09475-2.3911-0.34895-3.6874-0.18571-0.54261-0.32298-0.73888-0.94012-1.344-0.84935-0.83319-1.3858-0.98174-2.2799-0.63146-0.83844 0.32856-1.2573 0.79195-1.8249 2.0206-0.49902 1.0797-0.52515 1.199-0.68026 3.0766-0.0054 0.0679-0.47961-0.33465-1.0539-0.89474l-1.0457-1.0198s-0.34347 0.82111-0.34347 0.82111-0.34375 0.82178-0.34375 0.82178l3.3083 3.2195 3.2887 3.2005 0.33904-0.81954c0.32661-0.78949 0.3321-0.82537 0.14836-1.0046-0.10475-0.10215-0.18089-0.20889-0.16922-0.23707 0.0117-0.0283 0.23979-0.25959 0.50674-0.51397 0.39438-0.37576 0.56644-0.64808 0.92054-1.4562 0.26929-0.61393 0.46692-1.2061 0.51845-1.5513l1e-5 -2e-5m-2.0609 1.4995c-0.6404 0.61516-1.3766 0.63925-1.9673 0.0631-1.1043-1.0769-1.0745-3.6423 0.05534-4.8146 0.40821-0.42364 0.95662-0.64057 1.3408-0.53088 0.33336 0.0952 0.96428 0.70181 1.15 1.1054 0.20623 0.44818 0.37414 1.6235 0.30935 2.1652-0.08391 0.70203-0.49544 1.6345-0.88842 2.0115l2.85e-4 2.8e-4" style="stroke-width:.17484"/><path d="m-15.657 312.31c0.29017-1.3243 0.19946-2.7341-0.25297-3.933-0.24025-0.6366-0.38024-0.84886-0.94361-1.4305-0.79462-0.82023-1.2683-0.97435-2.1682-0.70372-2.5012 0.75213-3.2992 6.1988-1.2165 8.3359 0 0 0.40601 0.41663 0.40601 0.41663l1.288-3.0979 1.284-3.0882 0.16868 0.28967c0.45546 0.78216 0.54688 2.2885 0.19069 3.1436-0.38683 0.9324-1.0709 1.4834-1.8265 1.4754 0 0-0.35798-4e-3 -0.35798-4e-3s-0.04431 0.58969-0.04431 0.58969c-0.09057 1.205-0.07914 1.2456 0.3669 1.3048 0.54793 0.0726 1.3702-0.28025 1.8585-0.797 0.44271-0.46846 1.0835-1.7539 1.2473-2.5014m-4.3509-0.26045c-0.52412-0.53914-0.09461-2.9617 0.64484-3.6404 0.25968-0.23841 0.92151-0.43962 1.0406-0.31654 0.03868 0.04-0.28739 0.92376-0.76063 2.0602-0.64008 1.5371-0.85203 1.9716-0.92476 1.8968" style="stroke-width:.17484"/><path d="m-0.34083 271.7-1.8115-1.9653s0.19512-0.46863 0.19512-0.46863l0.19503-0.4684-0.91817-0.89726-0.20331 0.40995-0.20341 0.41015-0.42581-0.46197c-0.73072-0.79279-1.2602-0.78374-1.7339 0.0309-0.31158 0.53595-0.58113 1.5075-0.45541 1.6434 0.056693 0.0613 0.081213 0.16376 0.054482 0.22769-0.027006 0.0646 0.14241 0.32273 0.38115 0.58078 0.23622 0.25533 0.43767 0.44439 0.44776 0.4202 0.010067-0.0241 0.048422-0.28386 0.08519-0.57708 0.12094-0.96462 0.21429-1.0586 0.61759-0.6219 0 0 0.35348 0.38273 0.35348 0.38273s-0.25695 0.69064-0.25695 0.69064-0.25712 0.69109-0.25712 0.69109l0.43208 0.51719s0.43174 0.51678 0.43174 0.51678 0.29241-0.70229 0.29241-0.70229 0.2922-0.70179 0.2922-0.70179 1.8141 1.9642 1.8141 1.9642l1.8081 1.9577s0.3353-0.81058 0.3353-0.81058l0.33502-0.8099-1.8052-1.9583" style="stroke-width:.17484"/><path d="m17.154 235.27c0.19294-1.352 0.12889-2.0271-0.31877-3.3612l-0.23407-0.69751-0.34232 0.82501c-0.34051 0.82063-0.34322 0.82716-0.20564 1.3282 0.19664 0.72155 0.09744 1.6034-0.28409 2.5242-0.48617 1.1733-1.0789 1.5863-1.644 1.1438l-0.29338-0.22975 0.23088-0.15321c0.12693-0.0842 0.4043-0.38597 0.61626-0.67046 1.005-1.3488 1.2349-3.8433 0.5305-5.7437-0.31136-0.84005-1.1531-1.7999-1.7397-1.9831-0.56308-0.17585-1.3687 0.015-1.8791 0.44571-0.36716 0.30988-0.47191 0.48146-0.86126 1.4112-0.39787 0.95029-0.44741 1.1382-0.48115 1.8198-0.02058 0.41816-0.04529 0.77914-0.0549 0.80215-0.0096 0.023-0.09533-0.0464-0.19053-0.15417-0.16707-0.18915-0.18385-0.17037-0.48003 0.53776 0 0-0.30714 0.73435-0.30714 0.73435s2.2811 2.5266 2.2811 2.5266c2.232 2.4722 2.2787 2.5173 2.69 2.6017 0.57339 0.11767 0.97908 2e-3 1.462-0.41792 0.35245-0.30607 0.4788-0.51445 0.91188-1.5034 0.38473-0.87845 0.52362-1.2961 0.59343-1.7861l-1.8e-5 5e-5m-3.5467-0.15655c-0.39542 0.37316-0.97022 0.32144-1.449-0.13101-0.49912-0.47168-0.76233-1.0447-0.85043-1.8519-0.25054-2.2958 1.3527-3.9298 2.5383-2.5943 0.5818 0.65501 0.81468 1.7825 0.6086 2.9441-0.09066 0.51119-0.50522 1.31-0.84746 1.6331" style="stroke-width:.17484"/><path d="m30.135 193.97-2.8571-3.4023s-0.29074 0.69508-0.29074 0.69508l-0.29096 0.6956 1.7888 2.1266-0.34676 0.2681c-0.56427 0.43623-0.91348 1.0018-1.0996 1.7812-0.22806 0.95542-0.18451 1.8834 0.13011 2.7717 0.25401 0.71713 0.29432 0.77561 1.795 2.6047l1.5308 1.8657s0.28408-0.75827 0.28408-0.75827 0.28387-0.7577 0.28387-0.7577l-1.4691-1.8199c-1.2859-1.5929-1.4857-1.8771-1.5711-2.2345-0.2059-0.86134 0.19377-1.8806 0.8282-2.1134 0.65136-0.23909 0.77282-0.15668 2.2385 1.5171l1.3221 1.5098s0.28262-0.6832 0.28262-0.6832 0.28242-0.6827 0.28242-0.6827l-2.8413-3.3836" style="stroke-width:.17484"/></g></g></g><path d="m754.85-136.9 2.0792 7.669 268.18 358.53 0.2727-5.3172z" style="fill:#b5ba9f;stroke-width:1.0927px;stroke:#c1c6b7"/></g></g></g></svg>
