<?xml version="1.0" encoding="UTF-8"?>
<svg width="169.38mm" height="115.09mm" version="1.1" viewBox="0 0 169.38 115.09" xmlns="http://www.w3.org/2000/svg"><g transform="translate(-16.609 -79.948)"><path d="m181.8 90.344 4.1868 3.5232c-0.36852 0.85683-1.3063 1.8095-2.8025 2.8773-0.74806 0.31962-1.1276 0.64588-1.1276 0.96552 0 0.10226 0.18978 0.37095 0.55824 0.79925-24.037 13.875-44.424 26.892-61.203 39.055 22.553 17.079 36.33 26.855 41.365 29.297-0.93784 2.9924-2.9808 5.288-6.1516 6.8863-1.1165 0.53721-2.5121 1.1702-4.1979 1.9182-2.9699 1.4003-4.4548 2.142-4.4548 2.2571v0.14713l0.8373 1.7584c-0.75911 0.21094-1.4179 0.58832-1.9649 1.1189-2.0544 1.3938-4.2984 2.3593-6.7098 2.89-0.74803 0-1.6746-0.31962-2.8136-0.96552-0.73681-0.30694-1.6636-0.69056-2.78-1.1189-1.1276-0.42831-1.6636-0.64588-1.6636-0.64588-0.20103-0.10225-0.37957-0.1598-0.56935-0.1598 0 0-0.2903 0.11511-0.84857 0.32604-3.9076 2.7813-7.447 4.5397-10.618 5.288-0.55827 0-1.3063-0.15981-2.2329-0.48588-5.9619-3.5105-12.292-8.1079-19.002-13.76-5.5822-4.8019-9.7689-8.2291-12.583-10.256l-2.78 2.238-19.292 14.419c-2.4227 1.8159-9.3112 7.2636-20.688 16.324h-3.6396l-5.3255-3.3504c0.37954-0.85683 0.58058-1.2851 0.58058-1.2851 0.36849-0.63945 0.54703-0.95264 0.54703-0.95264 0-0.63944-0.55827-0.96551-1.6746-0.96551-1.1164 0-2.7911 0.3325-5.0242 0.96551-0.20102 0-0.74803 0.15337-1.6746 0.47964-2.0544-0.6459-5.0353-2.7813-8.954-6.4005-1.1165-0.95263-1.6635-1.605-1.6635-1.9246 0-0.21094 0.469-0.697 1.3956-1.4452 1.3063-1.1829 1.9538-2.1357 1.9538-2.8773 0-0.21094-0.92657-1.4578-2.7911-3.683-0.92657-1.605-1.3843-2.3978-1.3843-2.3978l13.688-10.09 30.469-20.161c0.74806-0.65214 1.4961-1.1829 2.2329-1.605-12.103-12.059-21.972-24.01-29.62-35.864-1.6746-2.8837-2.6905-4.9107-3.0702-6.0807 2.6124-2.3467 6.0513-4.7059 10.35-7.0527 1.8646 0.85683 3.2488 1.5025 4.1868 1.9246 0.73681 0.74814 1.4848 1.1189 2.2329 1.1189 1.8646 0 3.0702-0.79282 3.6285-2.3978 0.56933-2.9924 2.8916-4.5397 7.0003-4.6421 1.3063 0 3.0702 0.69056 5.3033 2.0717 11.756 10.998 23.033 20.762 33.819 29.305 24.25-15.263 44.257-27.054 60.111-35.385 3.1708-1.5985 4.9236-2.3978 5.3144-2.3978 0.9266 0 3.729 1.33 8.3958 3.9963l1.6636 1.2851c0 0.21093-0.27906 0.58187-0.83736 1.1253-0.36846 0.21094-0.547 0.42206-0.547 0.63302 0 0.31962 1.6635 1.1764 5.0017 2.5705l4.209-0.63944 1.6629 1.426v2e-6z" style="fill:#f00;stroke-width:.26458"/></g></svg>
