<?xml version="1.0" encoding="UTF-8"?>
<svg width="120mm" height="140mm" version="1.1" viewBox="0 0 120 140" xmlns="http://www.w3.org/2000/svg" xmlns:xlink="http://www.w3.org/1999/xlink"><defs><style type="text/css"><![CDATA[
    .fil5 {fill:#FFED00}
    .fil4 {fill:#EF7F1A}
    .fil6 {fill:#EF7F1A}
    .fil3 {fill:#E31E24}
    .fil2 {fill:#E31E24}
    .fil0 {fill:#FCEE5E}
    .fil1 {fill:#FFED00;fill-opacity:0.501961}
   ]]></style><filter id="a"><feGaussianBlur stdDeviation=".41431"/></filter><radialGradient id="b" cx="170.31" cy="209.17" r="104.54" gradientTransform="matrix(1.0744 -.88115 .89487 1.0911 -193.9 134.77)" gradientUnits="userSpaceOnUse"><stop stop-color="#70ffea" offset="0"/><stop stop-color="#0055f6" offset="1"/></radialGradient><filter id="u"><feGaussianBlur stdDeviation="34.6347"/></filter><linearGradient id="b-1"><stop stop-color="#fff" offset="0"/><stop stop-color="#fff" stop-opacity="0" offset="1"/></linearGradient><linearGradient id="c-3"><stop stop-opacity="0" offset="0"/><stop offset="1"/></linearGradient><linearGradient id="t" x1="-367.7" x2="315.17" y1="2082.7" y2="1824.1" gradientUnits="userSpaceOnUse"><stop stop-color="#f2f2f2" offset="0"/><stop stop-color="#f2f2f2" stop-opacity="0" offset="1"/></linearGradient><radialGradient id="h" cx="-249.67" cy="1545.8" r="78.609" gradientTransform="matrix(1.0922 -.19643 .18037 1.0029 -255.8 -53.565)" gradientUnits="userSpaceOnUse"><stop stop-color="#999" offset="0"/><stop stop-color="#999" stop-opacity="0" offset="1"/></radialGradient><radialGradient id="k" cx="-464.52" cy="1903.5" r="558.14" gradientTransform="matrix(.99679 -.47507 .25632 .53782 -491.73 615.9)" gradientUnits="userSpaceOnUse" xlink:href="#b-1"/><radialGradient id="j" cx="-472.87" cy="1866.4" r="409.06" gradientTransform="matrix(1.1907 -1.1486 .24423 .25319 -340.94 714.81)" gradientUnits="userSpaceOnUse" xlink:href="#c-3"/><radialGradient id="i" cx="-550.29" cy="1760.6" r="124.64" gradientTransform="matrix(.86996 .2431 -.21246 .76033 302.34 552.89)" gradientUnits="userSpaceOnUse" xlink:href="#c-3"/><radialGradient id="g" cx="-512.74" cy="1703.8" r="115.58" gradientTransform="matrix(.33835 -.34336 .6094 .60051 -1421.7 544.34)" gradientUnits="userSpaceOnUse" xlink:href="#b-1"/><clipPath id="ac"><path d="m688.38 337.76c33.959 3.6662 103.24-40.5 67.5-128.65s-146.41-69.02-162-18.265c-2.9502 9.6019 45.515 19.719 65.912 58.765s12.02 86.358 28.588 88.147z" style="fill-rule:evenodd"/></clipPath><clipPath id="ab"><path d="m265.82 354.97c-7.8299 9.3328-25.563 13.474-26.542 33.395-0.99345 20.213 17.934 56.514 45.548 63.567 27.525 7.0304 30.475-0.87881 44.565-0.29294 13.763 0.57227 14.746-48.92-9.8305-72.062-24.413-22.988-42.271-26.657-53.74-24.607z" style="fill-rule:evenodd"/></clipPath><filter id="x"><feGaussianBlur stdDeviation="2.88774"/></filter><filter id="w"><feGaussianBlur stdDeviation=".15907"/></filter><filter id="v"><feGaussianBlur stdDeviation=".17345"/></filter><filter id="aa" x="-.44669" y="-.25418" width="1.8934" height="1.5084"><feGaussianBlur stdDeviation="18.5373"/></filter><filter id="z" x="-.14467" y="-.09848" width="1.2894" height="1.197"><feGaussianBlur stdDeviation="5.98855"/></filter><filter id="y" x="-.17623" y="-.17892" width="1.3525" height="1.3578"><feGaussianBlur stdDeviation="6.44421"/></filter><style type="text/css">.str0 {stroke:#3F4446;stroke-width:2;stroke-linecap:round;stroke-linejoin:round}
    .fil1 {fill:none}
    .fil13 {fill:#007CC3}
    .fil15 {fill:#1F1A17}
    .fil16 {fill:#3C746B}
    .fil17 {fill:#3F4446}
    .fil14 {fill:#75C5F0}
    .fil10 {fill:#84C225}
    .fil9 {fill:#B8DB7C}
    .fil0 {fill:#DEDEDD}
    .fil18 {fill:#F7C5B4}
    .fil2 {fill:#F8C300}
    .fil12 {fill:white}
    .fil3 {fill:#FCDB00}
    .fil8 {fill:url(#a)}
    .fil11 {fill:url(#g)}
    .fil4 {fill:url(#h)}
    .fil6 {fill:url(#i);fill-rule:nonzero}
    .fil5 {fill:url(#j);fill-rule:nonzero}
    .fil7 {fill:url(#k);fill-rule:nonzero}</style><linearGradient id="a-6"><stop stop-color="#e3dedb" offset="0"/><stop stop-color="#917c6f" offset="1"/></linearGradient><linearGradient id="aj" x1="278.18" x2="304.61" y1="508.88" y2="506.84" gradientUnits="userSpaceOnUse" xlink:href="#a-6"/><linearGradient id="ag" x1="342.86" x2="359.39" gradientUnits="userSpaceOnUse" xlink:href="#a-6"/><linearGradient id="af" x1="386.27" x2="412.7" y1="357.67" y2="359.03" gradientUnits="userSpaceOnUse" xlink:href="#a-6"/><linearGradient id="ae" x1="391.43" x2="416.13" gradientUnits="userSpaceOnUse" xlink:href="#a-6"/><linearGradient id="ad" x1="271.28" x2="305" y1="522.24" y2="521.9" gradientUnits="userSpaceOnUse"><stop stop-color="#917c6f" offset="0"/><stop stop-color="#483e37" offset="1"/></linearGradient><style type="text/css">.str0 {stroke:#3F4446;stroke-width:2;stroke-linecap:round;stroke-linejoin:round}
    .fil1 {fill:none}
    .fil13 {fill:#007CC3}
    .fil15 {fill:#1F1A17}
    .fil16 {fill:#3C746B}
    .fil17 {fill:#3F4446}
    .fil14 {fill:#75C5F0}
    .fil10 {fill:#84C225}
    .fil9 {fill:#B8DB7C}
    .fil0 {fill:#DEDEDD}
    .fil18 {fill:#F7C5B4}
    .fil2 {fill:#F8C300}
    .fil12 {fill:white}
    .fil3 {fill:#FCDB00}
    .fil8 {fill:url(#a)}
    .fil11 {fill:url(#g)}
    .fil4 {fill:url(#h)}
    .fil6 {fill:url(#i);fill-rule:nonzero}
    .fil5 {fill:url(#j);fill-rule:nonzero}
    .fil7 {fill:url(#k);fill-rule:nonzero}</style><style type="text/css">.str0 {stroke:#3F4446;stroke-width:2;stroke-linecap:round;stroke-linejoin:round}
    .fil1 {fill:none}
    .fil13 {fill:#007CC3}
    .fil15 {fill:#1F1A17}
    .fil16 {fill:#3C746B}
    .fil17 {fill:#3F4446}
    .fil14 {fill:#75C5F0}
    .fil10 {fill:#84C225}
    .fil9 {fill:#B8DB7C}
    .fil0 {fill:#DEDEDD}
    .fil18 {fill:#F7C5B4}
    .fil2 {fill:#F8C300}
    .fil12 {fill:white}
    .fil3 {fill:#FCDB00}
    .fil8 {fill:url(#a)}
    .fil11 {fill:url(#g)}
    .fil4 {fill:url(#h)}
    .fil6 {fill:url(#i);fill-rule:nonzero}
    .fil5 {fill:url(#j);fill-rule:nonzero}
    .fil7 {fill:url(#k);fill-rule:nonzero}</style><style type="text/css"><![CDATA[
    .fil5 {fill:#FFED00}
    .fil4 {fill:#EF7F1A}
    .fil6 {fill:#EF7F1A}
    .fil3 {fill:#E31E24}
    .fil2 {fill:#E31E24}
    .fil0 {fill:#FCEE5E}
    .fil1 {fill:#FFED00;fill-opacity:0.501961}
   ]]></style><style type="text/css">.str0 {stroke:#3F4446;stroke-width:2;stroke-linecap:round;stroke-linejoin:round}
    .fil1 {fill:none}
    .fil13 {fill:#007CC3}
    .fil15 {fill:#1F1A17}
    .fil16 {fill:#3C746B}
    .fil17 {fill:#3F4446}
    .fil14 {fill:#75C5F0}
    .fil10 {fill:#84C225}
    .fil9 {fill:#B8DB7C}
    .fil0 {fill:#DEDEDD}
    .fil18 {fill:#F7C5B4}
    .fil2 {fill:#F8C300}
    .fil12 {fill:white}
    .fil3 {fill:#FCDB00}
    .fil8 {fill:url(#a)}
    .fil11 {fill:url(#g)}
    .fil4 {fill:url(#h)}
    .fil6 {fill:url(#i);fill-rule:nonzero}
    .fil5 {fill:url(#j);fill-rule:nonzero}
    .fil7 {fill:url(#k);fill-rule:nonzero}</style><style type="text/css">.fil28 {fill:none} .fil29 {fill:#FEFEFE} .fil30 {fill:#E6E7E8} .fil27 {fill:#403321} .fil31 {fill:#453621} .fil33 {fill:#5C492F} .fil32 {fill:#7A6343} .fil23 {fill:#7D6C4D} .fil17 {fill:#806641} .fil16 {fill:#967C57} .fil14 {fill:#A6814C} .fil15 {fill:#A98E68} .fil7 {fill:#AEBAAA} .fil10 {fill:#B3B489} .fil38 {fill:#B55E07} .fil39 {fill:#BD955E} .fil12 {fill:#C98054} .fil19 {fill:#C9B698} .fil8 {fill:#CCD4C9} .fil11 {fill:#CFD0B1} .fil37 {fill:#D26F0C} .fil13 {fill:#D6AF78} .fil26 {fill:#DBBF99} .fil36 {fill:#DBC5A2} .fil4 {fill:#DEAA85} .fil5 {fill:#DEE9DB} .fil22 {fill:#E0BB86} .fil24 {fill:#E0BB86} .fil2 {fill:#E1CBB7} .fil9 {fill:#E6EAE4} .fil6 {fill:#EBEAE6} .fil3 {fill:#EFD3BD} .fil0 {fill:#EFF4ED} .fil21 {fill:#F2CA91} .fil1 {fill:#F5F5F3} .fil25 {fill:#FAD29B} .fil35 {fill:#FAE9CE} .fil34 {fill:#D2D3D5;fill-rule:nonzero} .fil18 {fill:black;fill-rule:nonzero} .fil20 {fill:#7D6C4D;fill-rule:nonzero}</style><style type="text/css">.fil0 {fill:black;fill-rule:nonzero} .fil1 {fill:#110D0C;fill-rule:nonzero} .fil15 {fill:#1D1814;fill-rule:nonzero} .fil8 {fill:#241A11;fill-rule:nonzero} .fil16 {fill:#261D14;fill-rule:nonzero} .fil5 {fill:#322F36;fill-rule:nonzero} .fil14 {fill:#382F26;fill-rule:nonzero} .fil12 {fill:#3C3733;fill-rule:nonzero} .fil2 {fill:#4E4540;fill-rule:nonzero} .fil7 {fill:#515055;fill-rule:nonzero} .fil4 {fill:#5D5753;fill-rule:nonzero} .fil9 {fill:#694829;fill-rule:nonzero} .fil6 {fill:#877E75;fill-rule:nonzero} .fil13 {fill:#927462;fill-rule:nonzero} .fil11 {fill:#A48C72;fill-rule:nonzero} .fil10 {fill:#C8BDAE;fill-rule:nonzero} .fil3 {fill:#DAC6AD;fill-rule:nonzero}</style><style type="text/css">.fil3 {fill:#72371D} .fil4 {fill:#9A491F} .fil7 {fill:#A75F4A} .fil5 {fill:#BE5724} .fil1 {fill:#C5C6C6} .fil6 {fill:#CC6F3C} .fil0 {fill:#D9DADA} .fil8 {fill:url(#a)} .fil2 {fill:url(#b)}</style><style type="text/css">.fil0 {fill:black}</style><style type="text/css">.fil0 {fill:#020000}</style></defs><g transform="translate(-25.525 -56.213)"><rect x="25.525" y="56.237" width="7.5883" height="139.85" ry="3.3779" style="color-rendering:auto;color:#000000;fill:#deaa87;image-rendering:auto;isolation:auto;mix-blend-mode:normal;shape-rendering:auto;solid-color:#000000;stroke-width:1.3895"/><rect x="29.691" y="63.407" width="114.02" height="132.81" ry=".57281" style="color-rendering:auto;color:#000000;fill:#deaa87;image-rendering:auto;isolation:auto;mix-blend-mode:normal;shape-rendering:auto;solid-color:#000000;stroke-width:1.3895"/><rect x="29.691" y="63.407" width="111.81" height="130.42" ry=".56251" style="color-rendering:auto;color:#000000;fill:#fff;image-rendering:auto;isolation:auto;mix-blend-mode:normal;shape-rendering:auto;solid-color:#000000;stroke-width:1.3895"/><g transform="translate(-19.933 44.739)" style="fill:#e9c6af"><rect x="49.021" y="11.474" width="116.44" height="132.81" ry=".57281" style="color-rendering:auto;color:#000000;fill:#e9c6af;image-rendering:auto;isolation:auto;mix-blend-mode:normal;shape-rendering:auto;solid-color:#000000;stroke-width:1.3895"/></g><text x="49.090328" y="69.79509" style="fill:#aa0000;font-family:monospace;font-size:8.4667px;font-weight:bold;letter-spacing:0px;line-height:1.25;stroke-width:.26458;word-spacing:0px" xml:space="preserve"><tspan x="49.090328" y="69.79509" style="fill:#aa0000;font-family:monospace;font-size:8.4667px;font-weight:bold;stroke-width:.26458">111 Crosswords</tspan></text><g transform="matrix(.18074 0 0 .18074 34.986 75.785)" style="stroke-width:1.4639"><path d="m0 577v-577h577v577zm576.5-0.5v-0.5zm-575.5-0.5h575v-575h-575z" style="stroke-width:1.4639"/><path d="m36 576.5v-576h1v576z" style="stroke-width:1.4639"/><path d="m72 576.5v-576h1v576z" style="stroke-width:1.4639"/><path d="m108 576.5v-576h0.998v576z" style="stroke-width:1.4639"/><path d="m144 576.5v-576h1v576z" style="stroke-width:1.4639"/><path d="m180 576.5v-576h1v576z" style="stroke-width:1.4639"/><path d="m216 576.5v-576h0.998v576z" style="stroke-width:1.4639"/><path d="m252 576.5v-576h1v576z" style="stroke-width:1.4639"/><path d="m288 576.5v-576h1v576z" style="stroke-width:1.4639"/><path d="m324 576.5v-576h0.999v576z" style="stroke-width:1.4639"/><path d="m360 576.5v-576h1.001v576z" style="stroke-width:1.4639"/><path d="m396 576.5v-576h1v576z" style="stroke-width:1.4639"/><path d="m432 576.5v-576h0.999v576z" style="stroke-width:1.4639"/><path d="m468 576.5v-576h0.999v576z" style="stroke-width:1.4639"/><path d="m504 576.5v-576h1v576z" style="stroke-width:1.4639"/><path d="m540 576.5v-576h0.999v576z" style="stroke-width:1.4639"/><path d="m0.499 37v-1h576v1zm576-0.5v-0.5zm0-0.5v0.5z" style="stroke-width:1.4639"/><path d="m0.499 73v-1h576v1zm576-0.5v-0.5zm0-0.5v0.5z" style="stroke-width:1.4639"/><path d="m0.499 109v-0.998h576v0.998zm576-0.498v-0.5zm0-0.5v0.5z" style="stroke-width:1.4639"/><path d="m0.499 145v-1h576v1zm576-0.5v-0.5zm0-0.5v0.5z" style="stroke-width:1.4639"/><path d="m0.499 181v-1h576v1zm576-0.5v-0.5zm0-0.5v0.5z" style="stroke-width:1.4639"/><path d="m0.499 217v-0.998h576v0.998zm576-0.498v-0.5zm0-0.5v0.5z" style="stroke-width:1.4639"/><path d="m0.499 253v-1h576v1zm576-0.5v-0.5zm0-0.5v0.5z" style="stroke-width:1.4639"/><path d="m0.499 289v-1h576v1zm576-0.5v-0.5zm0-0.5v0.5z" style="stroke-width:1.4639"/><path d="m0.499 325v-0.999h576v0.998h-576zm576-0.499v-0.5zm0-0.5v0.5z" style="stroke-width:1.4639"/><path d="m0.499 361v-1.001h576v1.001zm576-0.5v-0.501zm0-0.501v0.501z" style="stroke-width:1.4639"/><path d="m0.499 397v-1h576v1zm576-0.5v-0.5zm0-0.5v0.5z" style="stroke-width:1.4639"/><path d="m0.499 433v-0.999h576v0.998h-576zm576-0.499v-0.5zm0-0.5v0.5z" style="stroke-width:1.4639"/><path d="m0.499 469v-0.999h576v0.998h-576zm576-0.499v-0.5zm0-0.5v0.5z" style="stroke-width:1.4639"/><path d="m0.499 505v-1h576v1zm576-0.5v-0.5zm0-0.5v0.5z" style="stroke-width:1.4639"/><path d="m0.499 541v-0.999h576v0.998h-576zm576-0.499v-0.5zm0-0.5v0.5z" style="stroke-width:1.4639"/><path d="m72.5 72.5v-36h-36v72h72v-36z" style="stroke-width:1.4639"/><path d="m36.5 468.5v72h36v-36h36v-36z" style="stroke-width:1.4639"/><path d="m504.5 36.5v36h-36v36h72v-72z" style="stroke-width:1.4639"/><path d="m468.5 468v36h36v36h36v-72z" style="stroke-width:1.4639"/><path d="m252 252h72v72h-72z" style="stroke-width:1.4639"/><path d="m0.5 216.5h72v36h-72z" style="stroke-width:1.4639"/><path d="m0.5 324.5h72v36h-72z" style="stroke-width:1.4639"/><path d="m180.5 216.5v36h-72v72h72v36h36v-144z" style="stroke-width:1.4639"/><path d="m108.5 361v35.5h-72v36h72v36.5h36v-108z" style="stroke-width:1.4639"/><path d="m108.5 108v36.5h-72v36h72v35.5h36v-108z" style="stroke-width:1.4639"/><path d="m504.5 324.5h72v36h-72z" style="stroke-width:1.4639"/><path d="m504.5 216.5h72v36h-72z" style="stroke-width:1.4639"/><path d="m468.5 252.5h-72v-36h-36v144h36v-36h72z" style="stroke-width:1.4639"/><path d="m540.5 144.5h-72v-36.5h-36v108h36v-35.5h72z" style="stroke-width:1.4639"/><path d="m540.5 396.5h-72v-36h-36v108h36v-36h72z" style="stroke-width:1.4639"/><path d="m216.5 0.5v36h35v36h73v-36h36v-36z" style="stroke-width:1.4639"/><path d="m180.5 72.5h36v36h-36z" style="stroke-width:1.4639"/><path d="m360.5 72.5h36v36h-36z" style="stroke-width:1.4639"/><path d="m324.5 108.5v36h-72.5v-35.5h-36v36h0.625v35.5h35.875v36h72v-36h35.875v-36h0.125v-36z" style="stroke-width:1.4639"/><path d="m325.5 540.5v-36h-73v36h-36v36h144v-36z" style="stroke-width:1.4639"/><path d="m360.5 468.5h36v36h-36z" style="stroke-width:1.4639"/><path d="m180.5 468.5h36v36h-36z" style="stroke-width:1.4639"/><path d="m360.38 432v-35.5h-35.875v-36h-72v36h-35.875v36h-0.125v36h36v-36h72.5v35.5h36v-36z" style="stroke-width:1.4639"/><path d="m5.331 3.688h-0.024l-1.355 0.731-0.204-0.802 1.703-0.912h0.9v7.795h-1.02z" style="stroke-width:1.4639"/><path d="m76.04 10.5v-0.647l0.828-0.804c1.991-1.895 2.891-2.902 2.902-4.078 0-0.792-0.384-1.523-1.547-1.523-0.708 0-1.295 0.36-1.655 0.66l-0.336-0.744c0.54-0.456 1.308-0.792 2.207-0.792 1.679 0 2.387 1.151 2.387 2.267 0 1.439-1.043 2.603-2.687 4.186l-0.624 0.576v0.024h3.502v0.875z" style="stroke-width:1.4639"/><path d="m112.29 9.289c0.3 0.192 0.996 0.492 1.727 0.492 1.355 0 1.775-0.863 1.763-1.511-0.012-1.091-0.996-1.559-2.015-1.559h-0.587v-0.792h0.587c0.768 0 1.739-0.396 1.739-1.319 0-0.624-0.396-1.175-1.367-1.175-0.624 0-1.224 0.276-1.559 0.516l-0.276-0.768c0.408-0.3 1.199-0.6 2.039-0.6 1.535 0 2.231 0.912 2.231 1.859 0 0.804-0.48 1.487-1.439 1.835v0.024c0.959 0.192 1.739 0.911 1.739 2.002 0 1.248-0.972 2.339-2.842 2.339-0.875 0-1.643-0.276-2.027-0.528z" style="stroke-width:1.4639"/><path d="m151.3 10.5v-2.123h-3.622v-0.695l3.479-4.978h1.139v4.846h1.091v0.827h-1.091v2.123zm0-2.95v-2.602c0-0.408 0.012-0.816 0.036-1.224h-0.036c-0.24 0.456-0.432 0.792-0.647 1.151l-1.907 2.65v0.025z" style="stroke-width:1.4639"/><path d="m188.69 3.592h-2.975l-0.3 2.003c0.18-0.024 0.348-0.048 0.636-0.048 0.6 0 1.199 0.132 1.679 0.419 0.611 0.348 1.115 1.02 1.115 2.003 0 1.523-1.211 2.663-2.902 2.663-0.852 0-1.571-0.24-1.943-0.479l0.264-0.804c0.324 0.192 0.959 0.432 1.667 0.432 0.996 0 1.847-0.647 1.847-1.691-0.012-1.007-0.684-1.727-2.243-1.727-0.444 0-0.792 0.048-1.08 0.084l0.504-3.742h3.73v0.887z" style="stroke-width:1.4639"/><path d="m368.49 3.448c-0.216-0.012-0.492 0-0.792 0.048-1.654 0.275-2.53 1.487-2.71 2.77h0.036c0.371-0.492 1.02-0.899 1.883-0.899 1.379 0 2.351 0.996 2.351 2.519 0 1.427-0.972 2.747-2.591 2.747-1.667 0-2.758-1.295-2.758-3.322 0-1.535 0.551-2.746 1.318-3.514 0.648-0.636 1.512-1.032 2.495-1.151 0.312-0.048 0.575-0.06 0.768-0.06zm-1.811 6.369c0.899 0 1.511-0.756 1.511-1.871s-0.636-1.787-1.607-1.787c-0.636 0-1.223 0.396-1.511 0.959-0.072 0.12-0.12 0.276-0.12 0.468 0.024 1.284 0.611 2.231 1.715 2.231z" style="stroke-width:1.4639"/><path d="m405.1 2.705v0.695l-3.394 7.1h-1.092l3.382-6.896v-0.024h-3.813v-0.875z" style="stroke-width:1.4639"/><path d="m437.48 6.399c-0.863-0.408-1.235-1.08-1.235-1.751 0-1.235 1.044-2.075 2.411-2.075 1.511 0 2.267 0.948 2.267 1.919 0 0.66-0.323 1.367-1.283 1.823v0.036c0.972 0.384 1.571 1.067 1.571 2.015 0 1.355-1.163 2.267-2.65 2.267-1.632 0-2.615-0.971-2.615-2.111 0-0.983 0.588-1.679 1.548-2.087zm2.663 2.075c0-0.948-0.66-1.403-1.715-1.703-0.912 0.264-1.403 0.864-1.403 1.607-0.036 0.792 0.563 1.487 1.559 1.487 0.947 0 1.559-0.6 1.559-1.391zm-2.902-3.898c0 0.78 0.588 1.199 1.487 1.439 0.671-0.228 1.188-0.708 1.188-1.416 0-0.624-0.372-1.271-1.319-1.271-0.877 1e-3 -1.356 0.576-1.356 1.248z" style="stroke-width:1.4639"/><path d="m472.15 9.757c0.228 0.024 0.492 0 0.852-0.036 0.611-0.083 1.188-0.335 1.631-0.755 0.516-0.468 0.888-1.151 1.031-2.075h-0.035c-0.433 0.527-1.056 0.839-1.835 0.839-1.403 0-2.303-1.055-2.303-2.387 0-1.475 1.067-2.771 2.662-2.771s2.578 1.295 2.578 3.286c0 1.715-0.575 2.915-1.343 3.658-0.6 0.587-1.428 0.947-2.267 1.043-0.384 0.06-0.72 0.072-0.972 0.06v-0.862zm1.907-6.381c-0.888 0-1.523 0.792-1.523 1.895 0 0.971 0.588 1.655 1.499 1.655 0.708 0 1.26-0.348 1.535-0.815 0.061-0.096 0.096-0.216 0.096-0.384 0-1.331-0.491-2.351-1.595-2.351z" style="stroke-width:1.4639"/><path d="m544.33 3.688h-0.023l-1.355 0.732-0.204-0.804 1.703-0.912h0.899v7.796h-1.02z" style="stroke-width:1.4639"/><path d="m553.38 6.519c0 2.651-0.983 4.114-2.71 4.114-1.523 0-2.555-1.427-2.579-4.006 0-2.614 1.128-4.054 2.711-4.054 1.643 0 2.578 1.463 2.578 3.946zm-4.233 0.12c0 2.027 0.624 3.178 1.583 3.178 1.079 0 1.595-1.259 1.595-3.25 0-1.919-0.491-3.179-1.583-3.179-0.923 0-1.595 1.128-1.595 3.251z" style="stroke-width:1.4639"/><path d="m78.331 39.688h-0.024l-1.355 0.732-0.204-0.804 1.703-0.912h0.9v7.796h-1.02z" style="stroke-width:1.4639"/><path d="m84.487 39.688h-0.024l-1.355 0.732-0.204-0.804 1.703-0.912h0.9v7.796h-1.02z" style="stroke-width:1.4639"/><path d="m221.33 39.688h-0.024l-1.355 0.732-0.204-0.804 1.703-0.912h0.9v7.796h-1.02z" style="stroke-width:1.4639"/><path d="m225.2 46.5v-0.647l0.828-0.804c1.991-1.895 2.891-2.902 2.902-4.078 0-0.792-0.384-1.523-1.547-1.523-0.708 0-1.295 0.36-1.655 0.66l-0.336-0.744c0.54-0.456 1.308-0.792 2.207-0.792 1.679 0 2.387 1.151 2.387 2.267 0 1.439-1.043 2.603-2.687 4.186l-0.624 0.576v0.024h3.502v0.875z" style="stroke-width:1.4639"/><path d="m328.33 39.688h-0.023l-1.355 0.732-0.204-0.804 1.703-0.912h0.899v7.796h-1.02z" style="stroke-width:1.4639"/><path d="m332.45 45.289c0.3 0.192 0.995 0.492 1.727 0.492 1.355 0 1.775-0.863 1.763-1.511-0.012-1.091-0.995-1.559-2.015-1.559h-0.588v-0.792h0.588c0.768 0 1.739-0.396 1.739-1.319 0-0.624-0.396-1.175-1.367-1.175-0.624 0-1.224 0.276-1.56 0.516l-0.275-0.768c0.407-0.3 1.199-0.6 2.039-0.6 1.535 0 2.23 0.912 2.23 1.859 0 0.804-0.479 1.487-1.439 1.835v0.024c0.96 0.192 1.739 0.911 1.739 2.002 0 1.248-0.972 2.339-2.843 2.339-0.875 0-1.643-0.276-2.026-0.528z" style="stroke-width:1.4639"/><path d="m114.33 75.688h-0.024l-1.355 0.732-0.204-0.804 1.703-0.912h0.9v7.796h-1.02z" style="stroke-width:1.4639"/><path d="m121.46 82.5v-2.123h-3.622v-0.695l3.479-4.978h1.139v4.846h1.091v0.827h-1.091v2.123zm0-2.95v-2.603c0-0.408 0.012-0.816 0.036-1.224h-0.036c-0.24 0.456-0.432 0.792-0.647 1.151l-1.907 2.65v0.024h2.554z" style="stroke-width:1.4639"/><path d="m221.33 75.688h-0.024l-1.355 0.732-0.204-0.804 1.703-0.912h0.9v7.796h-1.02z" style="stroke-width:1.4639"/><path d="m229.85 75.592h-2.975l-0.3 2.003c0.18-0.024 0.348-0.048 0.636-0.048 0.6 0 1.199 0.132 1.679 0.419 0.611 0.348 1.115 1.02 1.115 2.003 0 1.523-1.211 2.663-2.902 2.663-0.852 0-1.571-0.24-1.943-0.479l0.264-0.804c0.324 0.192 0.959 0.432 1.667 0.432 0.996 0 1.847-0.647 1.847-1.691-0.012-1.007-0.684-1.727-2.243-1.727-0.444 0-0.792 0.048-1.08 0.084l0.504-3.742h3.73v0.887z" style="stroke-width:1.4639"/><path d="m402.33 75.688h-0.023l-1.355 0.732-0.204-0.804 1.703-0.912h0.899v7.796h-1.02z" style="stroke-width:1.4639"/><path d="m410.64 75.448c-0.215-0.012-0.491 0-0.791 0.048-1.655 0.275-2.531 1.487-2.711 2.77h0.036c0.372-0.492 1.02-0.899 1.884-0.899 1.379 0 2.35 0.996 2.35 2.519 0 1.427-0.971 2.747-2.59 2.747-1.668 0-2.759-1.295-2.759-3.322 0-1.535 0.552-2.746 1.319-3.514 0.647-0.636 1.512-1.032 2.494-1.151 0.313-0.048 0.576-0.06 0.768-0.06zm-1.811 6.369c0.899 0 1.512-0.756 1.512-1.871s-0.637-1.787-1.607-1.787c-0.636 0-1.224 0.396-1.512 0.959-0.072 0.12-0.119 0.276-0.119 0.468 0.023 1.284 0.611 2.231 1.715 2.231z" style="stroke-width:1.4639"/><path d="m5.331 111.69h-0.024l-1.355 0.732-0.204-0.804 1.703-0.912h0.899v7.796h-1.02v-6.812z" style="stroke-width:1.4639"/><path d="m14.257 110.7v0.696l-3.394 7.1h-1.091l3.382-6.896v-0.024h-3.814v-0.875h4.917z" style="stroke-width:1.4639"/><path d="m186.33 111.69h-0.024l-1.355 0.732-0.204-0.804 1.703-0.912h0.9v7.796h-1.02z" style="stroke-width:1.4639"/><path d="m190.81 117.76c0.228 0.024 0.492 0 0.852-0.036 0.612-0.083 1.188-0.335 1.631-0.755 0.516-0.468 0.888-1.151 1.032-2.075h-0.036c-0.432 0.527-1.055 0.839-1.835 0.839-1.403 0-2.303-1.055-2.303-2.387 0-1.475 1.067-2.771 2.663-2.771s2.579 1.295 2.579 3.286c0 1.715-0.576 2.915-1.343 3.658-0.6 0.587-1.427 0.947-2.267 1.043-0.384 0.06-0.72 0.072-0.972 0.06v-0.862zm1.906-6.381c-0.887 0-1.523 0.792-1.523 1.895 0 0.971 0.588 1.655 1.499 1.655 0.708 0 1.259-0.348 1.535-0.815 0.06-0.096 0.096-0.216 0.096-0.384 0-1.331-0.492-2.351-1.595-2.351z" style="stroke-width:1.4639"/><path d="m255.04 118.5v-0.647l0.828-0.804c1.991-1.895 2.891-2.902 2.902-4.078 0-0.792-0.384-1.523-1.547-1.523-0.708 0-1.295 0.36-1.655 0.66l-0.336-0.744c0.54-0.456 1.308-0.792 2.207-0.792 1.679 0 2.387 1.151 2.387 2.267 0 1.439-1.043 2.603-2.687 4.186l-0.624 0.576v0.024h3.502v0.875z" style="stroke-width:1.4639"/><path d="m266.38 114.52c0 2.651-0.983 4.114-2.71 4.114-1.523 0-2.555-1.427-2.579-4.006 0-2.614 1.127-4.054 2.71-4.054 1.643 0 2.579 1.463 2.579 3.946zm-4.233 0.12c0 2.027 0.624 3.178 1.583 3.178 1.08 0 1.595-1.259 1.595-3.25 0-1.919-0.492-3.179-1.583-3.179-0.924 0-1.595 1.128-1.595 3.251z" style="stroke-width:1.4639"/><path d="m364.04 118.5v-0.647l0.828-0.804c1.991-1.895 2.891-2.902 2.902-4.078 0-0.792-0.384-1.523-1.547-1.523-0.708 0-1.295 0.36-1.655 0.66l-0.336-0.744c0.54-0.456 1.308-0.792 2.207-0.792 1.679 0 2.387 1.151 2.387 2.267 0 1.439-1.044 2.603-2.687 4.186l-0.624 0.576v0.024h3.503v0.875z" style="stroke-width:1.4639"/><path d="m372.49 111.69h-0.023l-1.355 0.732-0.204-0.804 1.702-0.912h0.9v7.796h-1.02z" style="stroke-width:1.4639"/><path d="m471.54 118.5v-0.647l0.827-0.804c1.991-1.895 2.891-2.902 2.902-4.078 0-0.792-0.384-1.523-1.547-1.523-0.708 0-1.296 0.36-1.655 0.66l-0.336-0.744c0.54-0.456 1.308-0.792 2.207-0.792 1.679 0 2.387 1.151 2.387 2.267 0 1.439-1.044 2.603-2.687 4.186l-0.624 0.576v0.024h3.502v0.875z" style="stroke-width:1.4639"/><path d="m477.7 118.5v-0.647l0.827-0.804c1.991-1.895 2.891-2.902 2.902-4.078 0-0.792-0.384-1.523-1.547-1.523-0.708 0-1.296 0.36-1.655 0.66l-0.336-0.744c0.54-0.456 1.308-0.792 2.207-0.792 1.679 0 2.387 1.151 2.387 2.267 0 1.439-1.044 2.603-2.687 4.186l-0.624 0.576v0.024h3.502v0.875z" style="stroke-width:1.4639"/><path d="m148.04 157.5v-0.647l0.827-0.804c1.991-1.895 2.891-2.902 2.902-4.078 0-0.792-0.384-1.523-1.547-1.523-0.708 0-1.296 0.36-1.655 0.66l-0.336-0.744c0.54-0.456 1.308-0.792 2.207-0.792 1.679 0 2.387 1.151 2.387 2.267 0 1.439-1.044 2.603-2.687 4.186l-0.624 0.576v0.024h3.502v0.875z" style="stroke-width:1.4639"/><path d="m154.45 156.29c0.3 0.192 0.995 0.492 1.727 0.492 1.355 0 1.775-0.863 1.763-1.511-0.012-1.091-0.995-1.559-2.015-1.559h-0.588v-0.792h0.588c0.768 0 1.739-0.396 1.739-1.319 0-0.624-0.396-1.175-1.367-1.175-0.624 0-1.224 0.276-1.56 0.516l-0.275-0.768c0.407-0.3 1.199-0.6 2.039-0.6 1.535 0 2.23 0.912 2.23 1.859 0 0.804-0.479 1.487-1.439 1.835v0.024c0.96 0.192 1.739 0.911 1.739 2.002 0 1.248-0.972 2.339-2.843 2.339-0.875 0-1.643-0.276-2.026-0.528z" style="stroke-width:1.4639"/><path d="m367.04 158.5v-0.647l0.828-0.804c1.991-1.895 2.891-2.902 2.902-4.078 0-0.792-0.384-1.523-1.547-1.523-0.708 0-1.295 0.36-1.655 0.66l-0.336-0.744c0.54-0.456 1.308-0.792 2.207-0.792 1.679 0 2.387 1.151 2.387 2.267 0 1.439-1.044 2.603-2.687 4.186l-0.624 0.576v0.024h3.503v0.875z" style="stroke-width:1.4639"/><path d="m376.46 158.5v-2.123h-3.621v-0.695l3.479-4.978h1.139v4.846h1.092v0.827h-1.092v2.123zm0-2.95v-2.603c0-0.408 0.013-0.816 0.037-1.224h-0.037c-0.239 0.456-0.432 0.792-0.646 1.151l-1.907 2.65v0.024h2.553z" style="stroke-width:1.4639"/><path d="m3.04 190.5v-0.647l0.828-0.804c1.991-1.895 2.891-2.902 2.902-4.078 0-0.792-0.384-1.523-1.547-1.523-0.708 0-1.295 0.36-1.655 0.66l-0.336-0.744c0.54-0.456 1.308-0.792 2.207-0.792 1.679 0 2.387 1.151 2.387 2.267 0 1.439-1.043 2.603-2.687 4.186l-0.624 0.576v0.024h3.502v0.875z" style="stroke-width:1.4639"/><path d="m13.85 183.59h-2.975l-0.3 2.003c0.18-0.024 0.348-0.048 0.636-0.048 0.6 0 1.199 0.132 1.679 0.419 0.611 0.348 1.115 1.02 1.115 2.003 0 1.523-1.211 2.663-2.902 2.663-0.852 0-1.571-0.24-1.943-0.479l0.264-0.804c0.324 0.192 0.959 0.432 1.667 0.432 0.996 0 1.847-0.647 1.847-1.691-0.012-1.007-0.684-1.727-2.243-1.727-0.444 0-0.792 0.048-1.08 0.084l0.504-3.742h3.73v0.887z" style="stroke-width:1.4639"/><path d="m76.04 190.5v-0.647l0.828-0.804c1.991-1.895 2.891-2.902 2.902-4.078 0-0.792-0.384-1.523-1.547-1.523-0.708 0-1.295 0.36-1.655 0.66l-0.336-0.744c0.54-0.456 1.308-0.792 2.207-0.792 1.679 0 2.387 1.151 2.387 2.267 0 1.439-1.043 2.603-2.687 4.186l-0.624 0.576v0.024h3.502v0.875z" style="stroke-width:1.4639"/><path d="m86.646 183.45c-0.216-0.012-0.492 0-0.792 0.048-1.655 0.275-2.531 1.487-2.71 2.77h0.036c0.372-0.492 1.02-0.899 1.883-0.899 1.379 0 2.351 0.996 2.351 2.519 0 1.427-0.972 2.747-2.59 2.747-1.667 0-2.759-1.295-2.759-3.322 0-1.535 0.552-2.746 1.319-3.514 0.647-0.636 1.511-1.032 2.495-1.151 0.312-0.048 0.576-0.06 0.768-0.06v0.862zm-1.812 6.369c0.899 0 1.511-0.756 1.511-1.871s-0.636-1.787-1.607-1.787c-0.636 0-1.224 0.396-1.511 0.959-0.072 0.12-0.12 0.276-0.12 0.468 0.024 1.284 0.612 2.231 1.715 2.231z" style="stroke-width:1.4639"/><path d="m148.04 190.5v-0.647l0.827-0.804c1.991-1.895 2.891-2.902 2.902-4.078 0-0.792-0.384-1.523-1.547-1.523-0.708 0-1.296 0.36-1.655 0.66l-0.336-0.744c0.54-0.456 1.308-0.792 2.207-0.792 1.679 0 2.387 1.151 2.387 2.267 0 1.439-1.044 2.603-2.687 4.186l-0.624 0.576v0.024h3.502v0.875z" style="stroke-width:1.4639"/><path d="m159.26 182.7v0.696l-3.394 7.1h-1.092l3.382-6.896v-0.024h-3.813v-0.875h4.917z" style="stroke-width:1.4639"/><path d="m219.04 190.5v-0.647l0.827-0.804c1.991-1.895 2.891-2.902 2.902-4.078 0-0.792-0.384-1.523-1.547-1.523-0.708 0-1.296 0.36-1.655 0.66l-0.336-0.744c0.54-0.456 1.308-0.792 2.207-0.792 1.679 0 2.387 1.151 2.387 2.267 0 1.439-1.044 2.603-2.687 4.186l-0.624 0.576v0.024h3.502v0.875z" style="stroke-width:1.4639"/><path d="m226.64 186.4c-0.863-0.408-1.235-1.08-1.235-1.751 0-1.235 1.044-2.075 2.411-2.075 1.511 0 2.267 0.948 2.267 1.919 0 0.66-0.323 1.367-1.283 1.823v0.036c0.972 0.384 1.571 1.067 1.571 2.015 0 1.355-1.163 2.267-2.65 2.267-1.632 0-2.615-0.971-2.615-2.111 0-0.983 0.588-1.679 1.548-2.087zm2.663 2.075c0-0.948-0.66-1.403-1.715-1.703-0.912 0.264-1.403 0.864-1.403 1.607-0.036 0.792 0.563 1.487 1.559 1.487 0.947 0 1.559-0.6 1.559-1.391zm-2.902-3.898c0 0.78 0.588 1.199 1.487 1.439 0.671-0.228 1.188-0.708 1.188-1.416 0-0.624-0.372-1.271-1.319-1.271-0.877 1e-3 -1.356 0.576-1.356 1.248z" style="stroke-width:1.4639"/><path d="m326.04 190.5v-0.647l0.828-0.804c1.991-1.895 2.891-2.902 2.902-4.078 0-0.792-0.384-1.523-1.547-1.523-0.708 0-1.295 0.36-1.655 0.66l-0.336-0.744c0.54-0.456 1.308-0.792 2.207-0.792 1.679 0 2.387 1.151 2.387 2.267 0 1.439-1.044 2.603-2.687 4.186l-0.624 0.576v0.024h3.503v0.875z" style="stroke-width:1.4639"/><path d="m332.81 189.76c0.229 0.024 0.492 0 0.852-0.036 0.612-0.083 1.188-0.335 1.631-0.755 0.517-0.468 0.889-1.151 1.032-2.075h-0.036c-0.432 0.527-1.055 0.839-1.835 0.839-1.403 0-2.303-1.055-2.303-2.387 0-1.475 1.067-2.771 2.663-2.771s2.578 1.295 2.578 3.286c0 1.715-0.576 2.915-1.344 3.658-0.6 0.587-1.427 0.947-2.266 1.043-0.385 0.06-0.721 0.072-0.973 0.06v-0.862zm1.907-6.381c-0.888 0-1.522 0.792-1.522 1.895 0 0.971 0.588 1.655 1.498 1.655 0.708 0 1.26-0.348 1.535-0.815 0.061-0.096 0.097-0.216 0.097-0.384 0-1.331-0.491-2.351-1.595-2.351z" style="stroke-width:1.4639"/><path d="m471.79 189.29c0.301 0.192 0.996 0.492 1.728 0.492 1.355 0 1.774-0.863 1.763-1.511-0.012-1.091-0.995-1.559-2.015-1.559h-0.587v-0.792h0.587c0.768 0 1.739-0.396 1.739-1.319 0-0.624-0.396-1.175-1.367-1.175-0.624 0-1.224 0.276-1.559 0.516l-0.276-0.768c0.407-0.3 1.199-0.6 2.038-0.6 1.535 0 2.231 0.912 2.231 1.859 0 0.804-0.479 1.487-1.439 1.835v0.024c0.96 0.192 1.739 0.911 1.739 2.002 0 1.248-0.972 2.339-2.842 2.339-0.876 0-1.644-0.276-2.027-0.528z" style="stroke-width:1.4639"/><path d="m482.88 186.52c0 2.651-0.984 4.114-2.711 4.114-1.523 0-2.555-1.427-2.578-4.006 0-2.614 1.127-4.054 2.71-4.054 1.644 0 2.579 1.463 2.579 3.946zm-4.234 0.12c0 2.027 0.624 3.178 1.584 3.178 1.079 0 1.595-1.259 1.595-3.25 0-1.919-0.491-3.179-1.583-3.179-0.924 0-1.596 1.128-1.596 3.251z" style="stroke-width:1.4639"/><path d="m76.292 225.29c0.3 0.192 0.995 0.492 1.727 0.492 1.355 0 1.775-0.863 1.763-1.511-0.012-1.091-0.995-1.559-2.015-1.559h-0.588v-0.792h0.588c0.768 0 1.739-0.396 1.739-1.319 0-0.624-0.396-1.175-1.367-1.175-0.624 0-1.224 0.276-1.56 0.516l-0.275-0.768c0.407-0.3 1.199-0.6 2.039-0.6 1.535 0 2.23 0.912 2.23 1.859 0 0.804-0.479 1.487-1.439 1.835v0.024c0.96 0.192 1.739 0.911 1.739 2.002 0 1.248-0.972 2.339-2.843 2.339-0.875 0-1.643-0.276-2.026-0.528z" style="stroke-width:1.4639"/><path d="m84.487 219.69h-0.023l-1.355 0.732-0.204-0.804 1.703-0.912h0.899v7.796h-1.02z" style="stroke-width:1.4639"/><path d="m219.29 225.29c0.3 0.192 0.996 0.492 1.727 0.492 1.355 0 1.775-0.863 1.763-1.511-0.012-1.091-0.996-1.559-2.015-1.559h-0.587v-0.792h0.587c0.768 0 1.739-0.396 1.739-1.319 0-0.624-0.396-1.175-1.367-1.175-0.624 0-1.224 0.276-1.559 0.516l-0.276-0.768c0.408-0.3 1.199-0.6 2.039-0.6 1.535 0 2.231 0.912 2.231 1.859 0 0.804-0.48 1.487-1.439 1.835v0.024c0.959 0.192 1.739 0.911 1.739 2.002 0 1.248-0.972 2.339-2.842 2.339-0.875 0-1.643-0.276-2.027-0.528z" style="stroke-width:1.4639"/><path d="m225.2 226.5v-0.647l0.828-0.804c1.991-1.895 2.891-2.902 2.902-4.078 0-0.792-0.384-1.523-1.547-1.523-0.708 0-1.295 0.36-1.655 0.66l-0.336-0.744c0.54-0.456 1.308-0.792 2.207-0.792 1.679 0 2.387 1.151 2.387 2.267 0 1.439-1.043 2.603-2.687 4.186l-0.624 0.576v0.024h3.502v0.875z" style="stroke-width:1.4639"/><path d="m400.29 225.29c0.301 0.192 0.996 0.492 1.728 0.492 1.355 0 1.774-0.863 1.763-1.511-0.012-1.091-0.995-1.559-2.015-1.559h-0.587v-0.792h0.587c0.768 0 1.739-0.396 1.739-1.319 0-0.624-0.396-1.175-1.367-1.175-0.624 0-1.224 0.276-1.559 0.516l-0.276-0.768c0.407-0.3 1.199-0.6 2.038-0.6 1.535 0 2.231 0.912 2.231 1.859 0 0.804-0.479 1.487-1.439 1.835v0.024c0.96 0.192 1.739 0.911 1.739 2.002 0 1.248-0.972 2.339-2.842 2.339-0.876 0-1.644-0.276-2.027-0.528z" style="stroke-width:1.4639"/><path d="m406.45 225.29c0.3 0.192 0.996 0.492 1.727 0.492 1.355 0 1.775-0.863 1.764-1.511-0.012-1.091-0.996-1.559-2.016-1.559h-0.587v-0.792h0.587c0.768 0 1.74-0.396 1.74-1.319 0-0.624-0.396-1.175-1.367-1.175-0.624 0-1.225 0.276-1.56 0.516l-0.276-0.768c0.408-0.3 1.199-0.6 2.039-0.6 1.535 0 2.23 0.912 2.23 1.859 0 0.804-0.479 1.487-1.439 1.835v0.024c0.96 0.192 1.74 0.911 1.74 2.002 0 1.248-0.973 2.339-2.843 2.339-0.876 0-1.644-0.276-2.026-0.528z" style="stroke-width:1.4639"/><path d="m3.292 261.04c0.3 0.192 0.996 0.492 1.727 0.492 1.355 0 1.775-0.863 1.763-1.511-0.012-1.091-0.996-1.559-2.015-1.559h-0.587v-0.792h0.587c0.768 0 1.739-0.396 1.739-1.319 0-0.624-0.396-1.175-1.367-1.175-0.624 0-1.224 0.276-1.559 0.516l-0.276-0.768c0.408-0.3 1.199-0.6 2.039-0.6 1.535 0 2.231 0.912 2.231 1.859 0 0.804-0.48 1.487-1.439 1.835v0.024c0.959 0.192 1.739 0.911 1.739 2.002 0 1.248-0.972 2.339-2.842 2.339-0.875 0-1.643-0.276-2.027-0.528z" style="stroke-width:1.4639"/><path d="m12.458 262.25v-2.123h-3.622v-0.695l3.479-4.978h1.139v4.846h1.091v0.827h-1.091v2.123zm0-2.95v-2.603c0-0.408 0.012-0.816 0.036-1.224h-0.036c-0.24 0.456-0.432 0.792-0.647 1.151l-1.907 2.65v0.024h2.554z" style="stroke-width:1.4639"/><path d="m39.292 261.04c0.3 0.192 0.995 0.492 1.727 0.492 1.355 0 1.775-0.863 1.763-1.511-0.012-1.091-0.995-1.559-2.015-1.559h-0.588v-0.792h0.588c0.768 0 1.739-0.396 1.739-1.319 0-0.624-0.396-1.175-1.367-1.175-0.624 0-1.224 0.276-1.56 0.516l-0.275-0.768c0.407-0.3 1.199-0.6 2.039-0.6 1.535 0 2.23 0.912 2.23 1.859 0 0.804-0.479 1.487-1.439 1.835v0.024c0.96 0.192 1.739 0.911 1.739 2.002 0 1.248-0.972 2.339-2.843 2.339-0.875 0-1.643-0.276-2.026-0.528z" style="stroke-width:1.4639"/><path d="m49.85 255.34h-2.975l-0.3 2.003c0.18-0.024 0.348-0.048 0.636-0.048 0.6 0 1.199 0.132 1.679 0.419 0.612 0.348 1.115 1.02 1.115 2.003 0 1.523-1.211 2.663-2.902 2.663-0.852 0-1.57-0.24-1.942-0.479l0.264-0.804c0.324 0.192 0.959 0.432 1.667 0.432 0.995 0 1.847-0.647 1.847-1.691-0.012-1.007-0.684-1.727-2.242-1.727-0.444 0-0.792 0.048-1.08 0.084l0.504-3.742h3.73v0.887z" style="stroke-width:1.4639"/><path d="m471.79 261.04c0.3 0.192 0.995 0.492 1.727 0.492 1.355 0 1.775-0.863 1.763-1.511-0.012-1.091-0.995-1.559-2.015-1.559h-0.588v-0.792h0.588c0.768 0 1.739-0.396 1.739-1.319 0-0.624-0.396-1.175-1.367-1.175-0.624 0-1.224 0.276-1.56 0.516l-0.275-0.768c0.407-0.3 1.199-0.6 2.039-0.6 1.535 0 2.23 0.912 2.23 1.859 0 0.804-0.479 1.487-1.439 1.835v0.024c0.96 0.192 1.739 0.911 1.739 2.002 0 1.248-0.972 2.339-2.843 2.339-0.875 0-1.643-0.276-2.026-0.528z" style="stroke-width:1.4639"/><path d="m482.15 255.2c-0.216-0.012-0.492 0-0.792 0.048-1.654 0.275-2.53 1.487-2.71 2.77h0.036c0.371-0.492 1.02-0.899 1.883-0.899 1.379 0 2.351 0.996 2.351 2.519 0 1.427-0.972 2.747-2.591 2.747-1.667 0-2.758-1.295-2.758-3.322 0-1.535 0.551-2.746 1.318-3.514 0.648-0.636 1.512-1.032 2.495-1.151 0.312-0.048 0.575-0.06 0.768-0.06zm-1.811 6.369c0.899 0 1.511-0.756 1.511-1.871s-0.636-1.787-1.607-1.787c-0.636 0-1.223 0.396-1.511 0.959-0.072 0.12-0.12 0.276-0.12 0.468 0.024 1.284 0.611 2.231 1.715 2.231z" style="stroke-width:1.4639"/><path d="m507.29 261.04c0.301 0.191 0.996 0.491 1.728 0.491 1.355 0 1.774-0.863 1.763-1.511-0.012-1.092-0.995-1.56-2.015-1.56h-0.587v-0.791h0.587c0.768 0 1.739-0.396 1.739-1.319 0-0.624-0.396-1.176-1.367-1.176-0.624 0-1.224 0.276-1.559 0.516l-0.276-0.768c0.407-0.3 1.199-0.6 2.038-0.6 1.535 0 2.231 0.911 2.231 1.859 0 0.804-0.479 1.487-1.439 1.835v0.023c0.96 0.192 1.739 0.912 1.739 2.003 0 1.248-0.972 2.339-2.842 2.339-0.876 0-1.644-0.275-2.027-0.527z" style="stroke-width:1.4639"/><path d="m518.26 254.46v0.696l-3.395 7.1h-1.091l3.382-6.896v-0.023h-3.813v-0.876h4.917z" style="stroke-width:1.4639"/><path d="m542.29 261.04c0.3 0.191 0.995 0.491 1.727 0.491 1.355 0 1.775-0.863 1.763-1.511-0.012-1.092-0.995-1.56-2.015-1.56h-0.588v-0.791h0.588c0.768 0 1.739-0.396 1.739-1.319 0-0.624-0.396-1.176-1.367-1.176-0.624 0-1.224 0.276-1.56 0.516l-0.275-0.768c0.407-0.3 1.199-0.6 2.039-0.6 1.535 0 2.23 0.911 2.23 1.859 0 0.804-0.479 1.487-1.439 1.835v0.023c0.96 0.192 1.739 0.912 1.739 2.003 0 1.248-0.972 2.339-2.843 2.339-0.875 0-1.643-0.275-2.026-0.527z" style="stroke-width:1.4639"/><path d="m549.64 258.15c-0.863-0.408-1.235-1.08-1.235-1.751 0-1.235 1.044-2.075 2.411-2.075 1.511 0 2.267 0.947 2.267 1.919 0 0.66-0.323 1.367-1.283 1.823v0.036c0.972 0.384 1.571 1.067 1.571 2.015 0 1.355-1.163 2.267-2.65 2.267-1.632 0-2.615-0.972-2.615-2.11 0-0.983 0.588-1.68 1.548-2.087zm2.663 2.074c0-0.947-0.66-1.402-1.715-1.702-0.912 0.264-1.403 0.863-1.403 1.606-0.036 0.792 0.563 1.487 1.559 1.487 0.947 1e-3 1.559-0.599 1.559-1.391zm-2.902-3.897c0 0.779 0.588 1.199 1.487 1.439 0.671-0.229 1.188-0.708 1.188-1.415 0-0.624-0.372-1.271-1.319-1.271-0.877 0-1.356 0.575-1.356 1.247z" style="stroke-width:1.4639"/><path d="m3.292 297.29c0.3 0.191 0.996 0.491 1.727 0.491 1.355 0 1.775-0.863 1.763-1.511-0.012-1.092-0.996-1.56-2.015-1.56h-0.587v-0.791h0.587c0.768 0 1.739-0.396 1.739-1.319 0-0.624-0.396-1.176-1.367-1.176-0.624 0-1.224 0.276-1.559 0.516l-0.276-0.768c0.408-0.3 1.199-0.6 2.039-0.6 1.535 0 2.231 0.911 2.231 1.859 0 0.804-0.48 1.487-1.439 1.835v0.023c0.959 0.192 1.739 0.912 1.739 2.003 0 1.248-0.972 2.339-2.842 2.339-0.875 0-1.643-0.275-2.027-0.527z" style="stroke-width:1.4639"/><path d="m9.808 297.76c0.228 0.023 0.492 0 0.852-0.036 0.612-0.084 1.188-0.336 1.631-0.756 0.516-0.468 0.888-1.151 1.032-2.075h-0.036c-0.432 0.528-1.055 0.84-1.835 0.84-1.403 0-2.303-1.056-2.303-2.387 0-1.476 1.067-2.771 2.663-2.771s2.579 1.295 2.579 3.286c0 1.715-0.576 2.915-1.343 3.658-0.6 0.588-1.427 0.947-2.267 1.043-0.384 0.061-0.72 0.072-0.972 0.061v-0.863zm1.906-6.381c-0.887 0-1.523 0.792-1.523 1.895 0 0.972 0.588 1.655 1.499 1.655 0.708 0 1.259-0.348 1.535-0.815 0.06-0.096 0.096-0.216 0.096-0.384 0-1.331-0.492-2.351-1.595-2.351z" style="stroke-width:1.4639"/><path d="m474.8 298.5v-2.123h-3.622v-0.695l3.479-4.978h1.139v4.846h1.092v0.827h-1.092v2.123zm0-2.95v-2.603c0-0.408 0.013-0.815 0.036-1.224h-0.036c-0.239 0.456-0.432 0.792-0.647 1.151l-1.907 2.65v0.024h2.554z" style="stroke-width:1.4639"/><path d="m482.88 294.52c0 2.65-0.984 4.113-2.711 4.113-1.523 0-2.555-1.427-2.578-4.006 0-2.614 1.127-4.054 2.71-4.054 1.644 1e-3 2.579 1.464 2.579 3.947zm-4.234 0.119c0 2.027 0.624 3.179 1.584 3.179 1.079 0 1.595-1.26 1.595-3.25 0-1.919-0.491-3.179-1.583-3.179-0.924 0-1.596 1.128-1.596 3.25z" style="stroke-width:1.4639"/><path d="m79.302 334.5v-2.123h-3.622v-0.695l3.479-4.978h1.139v4.846h1.091v0.827h-1.091v2.123zm0-2.95v-2.603c0-0.408 0.012-0.815 0.036-1.224h-0.036c-0.24 0.456-0.432 0.792-0.647 1.151l-1.907 2.65v0.024h2.554z" style="stroke-width:1.4639"/><path d="m84.487 327.69h-0.024l-1.355 0.731-0.204-0.803 1.703-0.912h0.9v7.796h-1.02z" style="stroke-width:1.4639"/><path d="m151.3 334.5v-2.123h-3.622v-0.695l3.479-4.978h1.139v4.846h1.092v0.827h-1.092v2.123zm0-2.95v-2.603c0-0.408 0.012-0.815 0.036-1.224h-0.036c-0.239 0.456-0.432 0.792-0.647 1.151l-1.907 2.65v0.024h2.554z" style="stroke-width:1.4639"/><path d="m154.2 334.5v-0.647l0.827-0.804c1.991-1.895 2.891-2.902 2.902-4.078 0-0.791-0.384-1.522-1.547-1.522-0.708 0-1.296 0.359-1.655 0.659l-0.336-0.743c0.54-0.456 1.308-0.792 2.207-0.792 1.679 0 2.387 1.151 2.387 2.267 0 1.439-1.044 2.603-2.687 4.186l-0.624 0.576v0.023h3.502v0.876h-4.976z" style="stroke-width:1.4639"/><path d="m222.3 334.5v-2.123h-3.622v-0.695l3.479-4.978h1.139v4.846h1.091v0.827h-1.091v2.123zm0-2.95v-2.603c0-0.408 0.012-0.815 0.036-1.224h-0.036c-0.24 0.456-0.432 0.792-0.647 1.151l-1.907 2.65v0.024h2.554z" style="stroke-width:1.4639"/><path d="m225.45 333.29c0.3 0.191 0.996 0.491 1.727 0.491 1.355 0 1.775-0.863 1.763-1.511-0.012-1.092-0.996-1.56-2.015-1.56h-0.587v-0.791h0.587c0.768 0 1.739-0.396 1.739-1.319 0-0.624-0.396-1.176-1.367-1.176-0.624 0-1.224 0.276-1.559 0.516l-0.276-0.768c0.408-0.3 1.199-0.6 2.039-0.6 1.535 0 2.231 0.911 2.231 1.859 0 0.804-0.48 1.487-1.439 1.835v0.023c0.959 0.192 1.739 0.912 1.739 2.003 0 1.248-0.972 2.339-2.842 2.339-0.875 0-1.643-0.275-2.027-0.527z" style="stroke-width:1.4639"/><path d="m403.3 334.5v-2.123h-3.622v-0.695l3.479-4.978h1.139v4.846h1.092v0.827h-1.092v2.123zm0-2.95v-2.603c0-0.408 0.013-0.815 0.036-1.224h-0.036c-0.239 0.456-0.432 0.792-0.647 1.151l-1.907 2.65v0.024h2.554z" style="stroke-width:1.4639"/><path d="m409.46 334.5v-2.123h-3.621v-0.695l3.479-4.978h1.139v4.846h1.092v0.827h-1.092v2.123zm0-2.95v-2.603c0-0.408 0.013-0.815 0.037-1.224h-0.037c-0.239 0.456-0.432 0.792-0.646 1.151l-1.907 2.65v0.024h2.553z" style="stroke-width:1.4639"/><path d="m6.302 370.5v-2.123h-3.622v-0.695l3.479-4.978h1.139v4.846h1.092v0.827h-1.093v2.123zm0-2.95v-2.603c0-0.408 0.012-0.815 0.036-1.224h-0.036c-0.239 0.456-0.432 0.792-0.647 1.151l-1.907 2.65v0.024h2.554z" style="stroke-width:1.4639"/><path d="m13.85 363.59h-2.975l-0.3 2.003c0.18-0.024 0.348-0.048 0.636-0.048 0.6 0 1.199 0.132 1.679 0.42 0.612 0.348 1.115 1.02 1.115 2.003 0 1.522-1.211 2.662-2.902 2.662-0.852 0-1.57-0.24-1.942-0.479l0.264-0.804c0.324 0.192 0.959 0.432 1.667 0.432 0.995 0 1.847-0.647 1.847-1.691-0.012-1.007-0.684-1.727-2.242-1.727-0.444 0-0.792 0.048-1.08 0.084l0.504-3.742h3.73v0.887z" style="stroke-width:1.4639"/><path d="m187.3 370.5v-2.123h-3.622v-0.695l3.479-4.978h1.139v4.846h1.092v0.827h-1.092v2.123zm0-2.95v-2.603c0-0.408 0.012-0.815 0.036-1.224h-0.036c-0.239 0.456-0.432 0.792-0.647 1.151l-1.907 2.65v0.024h2.554z" style="stroke-width:1.4639"/><path d="m195.26 362.7v0.696l-3.394 7.1h-1.092l3.382-6.896v-0.023h-3.813v-0.876h4.917z" style="stroke-width:1.4639"/><path d="m329.3 370.5v-2.123h-3.622v-0.695l3.479-4.978h1.139v4.846h1.092v0.827h-1.092v2.123zm0-2.95v-2.603c0-0.408 0.012-0.815 0.036-1.224h-0.036c-0.239 0.456-0.432 0.792-0.647 1.151l-1.907 2.65v0.024h2.554z" style="stroke-width:1.4639"/><path d="m333.64 366.4c-0.863-0.408-1.235-1.08-1.235-1.751 0-1.235 1.044-2.075 2.411-2.075 1.511 0 2.267 0.947 2.267 1.919 0 0.66-0.323 1.367-1.283 1.823v0.036c0.972 0.384 1.571 1.067 1.571 2.015 0 1.355-1.163 2.267-2.65 2.267-1.632 0-2.615-0.972-2.615-2.11 0-0.983 0.588-1.68 1.548-2.087zm2.663 2.074c0-0.947-0.66-1.402-1.715-1.702-0.912 0.264-1.403 0.863-1.403 1.606-0.036 0.792 0.563 1.487 1.559 1.487 0.947 1e-3 1.559-0.599 1.559-1.391zm-2.902-3.897c0 0.779 0.588 1.199 1.487 1.439 0.671-0.229 1.188-0.708 1.188-1.415 0-0.624-0.372-1.271-1.319-1.271-0.877 0-1.356 0.575-1.356 1.247z" style="stroke-width:1.4639"/><path d="m367.3 370.5v-2.123h-3.622v-0.695l3.479-4.978h1.139v4.846h1.092v0.827h-1.092v2.123zm0-2.95v-2.603c0-0.408 0.012-0.815 0.036-1.224h-0.036c-0.239 0.456-0.432 0.792-0.647 1.151l-1.907 2.65v0.024h2.554z" style="stroke-width:1.4639"/><path d="m370.81 369.76c0.228 0.023 0.492 0 0.852-0.036 0.611-0.084 1.188-0.336 1.631-0.756 0.516-0.468 0.888-1.151 1.031-2.075h-0.035c-0.433 0.528-1.056 0.84-1.835 0.84-1.403 0-2.303-1.056-2.303-2.387 0-1.476 1.067-2.771 2.662-2.771s2.578 1.295 2.578 3.286c0 1.715-0.575 2.915-1.343 3.658-0.6 0.588-1.428 0.947-2.267 1.043-0.384 0.061-0.72 0.072-0.972 0.061v-0.863zm1.907-6.381c-0.888 0-1.523 0.792-1.523 1.895 0 0.972 0.588 1.655 1.499 1.655 0.708 0 1.26-0.348 1.535-0.815 0.061-0.096 0.096-0.216 0.096-0.384 0-1.331-0.491-2.351-1.595-2.351z" style="stroke-width:1.4639"/><path d="m476.19 363.59h-2.975l-0.3 2.003c0.18-0.024 0.348-0.048 0.636-0.048 0.6 0 1.199 0.132 1.679 0.42 0.612 0.348 1.115 1.02 1.115 2.003 0 1.522-1.211 2.662-2.902 2.662-0.852 0-1.57-0.24-1.942-0.479l0.264-0.804c0.324 0.192 0.959 0.432 1.667 0.432 0.995 0 1.847-0.647 1.847-1.691-0.012-1.007-0.684-1.727-2.242-1.727-0.444 0-0.792 0.048-1.08 0.084l0.504-3.742h3.73v0.887z" style="stroke-width:1.4639"/><path d="m482.88 366.52c0 2.65-0.983 4.113-2.71 4.113-1.523 0-2.555-1.427-2.579-4.006 0-2.614 1.128-4.054 2.711-4.054 1.643 1e-3 2.578 1.464 2.578 3.947zm-4.233 0.119c0 2.027 0.624 3.179 1.583 3.179 1.079 0 1.595-1.26 1.595-3.25 0-1.919-0.491-3.179-1.583-3.179-0.923 0-1.595 1.128-1.595 3.25z" style="stroke-width:1.4639"/><path d="m546.69 363.59h-2.975l-0.3 2.003c0.18-0.024 0.348-0.048 0.636-0.048 0.6 0 1.199 0.132 1.68 0.42 0.611 0.348 1.115 1.02 1.115 2.003 0 1.522-1.212 2.662-2.902 2.662-0.852 0-1.572-0.24-1.943-0.479l0.264-0.804c0.324 0.192 0.959 0.432 1.667 0.432 0.995 0 1.847-0.647 1.847-1.691-0.012-1.007-0.684-1.727-2.242-1.727-0.443 0-0.792 0.048-1.08 0.084l0.504-3.742h3.73v0.887z" style="stroke-width:1.4639"/><path d="m550.49 363.69h-0.023l-1.355 0.731-0.204-0.803 1.702-0.912h0.9v7.796h-1.02z" style="stroke-width:1.4639"/><path d="m152.69 399.59h-2.975l-0.3 2.003c0.18-0.024 0.348-0.048 0.636-0.048 0.6 0 1.199 0.132 1.679 0.42 0.612 0.348 1.115 1.02 1.115 2.003 0 1.522-1.211 2.662-2.902 2.662-0.852 0-1.57-0.24-1.942-0.479l0.264-0.804c0.324 0.192 0.959 0.432 1.667 0.432 0.995 0 1.847-0.647 1.847-1.691-0.012-1.007-0.684-1.727-2.242-1.727-0.444 0-0.792 0.048-1.08 0.084l0.504-3.742h3.73v0.887z" style="stroke-width:1.4639"/><path d="m154.2 406.5v-0.647l0.827-0.804c1.991-1.895 2.891-2.902 2.902-4.078 0-0.791-0.384-1.522-1.547-1.522-0.708 0-1.296 0.359-1.655 0.659l-0.336-0.743c0.54-0.456 1.308-0.792 2.207-0.792 1.679 0 2.387 1.151 2.387 2.267 0 1.439-1.044 2.603-2.687 4.186l-0.624 0.576v0.023h3.502v0.876h-4.976z" style="stroke-width:1.4639"/><path d="m368.69 399.59h-2.975l-0.3 2.003c0.18-0.024 0.348-0.048 0.636-0.048 0.6 0 1.199 0.132 1.68 0.42 0.611 0.348 1.115 1.02 1.115 2.003 0 1.522-1.212 2.662-2.902 2.662-0.852 0-1.572-0.24-1.943-0.479l0.264-0.804c0.324 0.192 0.959 0.432 1.667 0.432 0.995 0 1.847-0.647 1.847-1.691-0.012-1.007-0.684-1.727-2.242-1.727-0.443 0-0.792 0.048-1.08 0.084l0.504-3.742h3.73v0.887z" style="stroke-width:1.4639"/><path d="m370.45 405.29c0.3 0.191 0.996 0.491 1.727 0.491 1.355 0 1.775-0.863 1.764-1.511-0.012-1.092-0.996-1.56-2.016-1.56h-0.587v-0.791h0.587c0.768 0 1.74-0.396 1.74-1.319 0-0.624-0.396-1.176-1.367-1.176-0.624 0-1.225 0.276-1.56 0.516l-0.276-0.768c0.408-0.3 1.199-0.6 2.039-0.6 1.535 0 2.23 0.911 2.23 1.859 0 0.804-0.479 1.487-1.439 1.835v0.023c0.96 0.192 1.74 0.912 1.74 2.003 0 1.248-0.973 2.339-2.843 2.339-0.876 0-1.644-0.275-2.026-0.527z" style="stroke-width:1.4639"/><path d="m150.33 111.69h-0.024l-1.355 0.732-0.204-0.804 1.703-0.912h0.9v7.796h-1.02z" style="stroke-width:1.4639"/><path d="m155.64 114.4c-0.864-0.408-1.235-1.08-1.235-1.751 0-1.235 1.043-2.075 2.411-2.075 1.511 0 2.267 0.948 2.267 1.919 0 0.66-0.324 1.367-1.283 1.823v0.036c0.972 0.384 1.571 1.067 1.571 2.015 0 1.355-1.164 2.267-2.651 2.267-1.631 0-2.614-0.971-2.614-2.111 0-0.983 0.587-1.679 1.547-2.087zm2.663 2.075c0-0.948-0.66-1.403-1.715-1.703-0.911 0.264-1.403 0.864-1.403 1.607-0.036 0.792 0.564 1.487 1.56 1.487 0.946 0 1.558-0.6 1.558-1.391zm-2.902-3.898c0 0.78 0.587 1.199 1.487 1.439 0.672-0.228 1.188-0.708 1.188-1.416 0-0.624-0.372-1.271-1.319-1.271-0.877 1e-3 -1.356 0.576-1.356 1.248z" style="stroke-width:1.4639"/><path d="m151.3 370.5v-2.123h-3.622v-0.695l3.479-4.978h1.139v4.846h1.091v0.827h-1.091v2.123zm0-2.95v-2.603c0-0.408 0.012-0.815 0.036-1.224h-0.036c-0.24 0.456-0.432 0.792-0.647 1.151l-1.907 2.65v0.024h2.554z" style="stroke-width:1.4639"/><path d="m158.65 363.45c-0.216-0.013-0.492 0-0.792 0.048-1.655 0.275-2.531 1.487-2.71 2.771h0.036c0.372-0.492 1.02-0.899 1.883-0.899 1.379 0 2.351 0.995 2.351 2.519 0 1.427-0.972 2.746-2.59 2.746-1.667 0-2.759-1.295-2.759-3.322 0-1.535 0.552-2.746 1.319-3.514 0.647-0.636 1.511-1.031 2.495-1.151 0.312-0.048 0.576-0.061 0.768-0.061v0.863zm-1.812 6.368c0.899 0 1.511-0.756 1.511-1.871s-0.636-1.787-1.607-1.787c-0.636 0-1.224 0.396-1.511 0.96-0.072 0.12-0.12 0.275-0.12 0.468 0.024 1.283 0.612 2.23 1.715 2.23z" style="stroke-width:1.4639"/><path d="m7.694 435.59h-2.975l-0.3 2.003c0.18-0.024 0.348-0.048 0.636-0.048 0.6 0 1.199 0.132 1.679 0.42 0.611 0.348 1.115 1.02 1.115 2.002 0 1.523-1.211 2.663-2.902 2.663-0.852 0-1.571-0.239-1.943-0.479l0.264-0.804c0.324 0.192 0.959 0.432 1.667 0.432 0.996 0 1.847-0.647 1.847-1.69-0.012-1.008-0.684-1.728-2.243-1.728-0.444 0-0.792 0.048-1.08 0.084l0.504-3.742h3.73v0.887z" style="stroke-width:1.4639"/><path d="m12.458 442.5v-2.123h-3.622v-0.695l3.479-4.978h1.139v4.846h1.091v0.827h-1.091v2.123zm0-2.95v-2.603c0-0.408 0.012-0.816 0.036-1.224h-0.036c-0.24 0.456-0.432 0.792-0.647 1.151l-1.907 2.65v0.024h2.554z" style="stroke-width:1.4639"/><path d="m152.69 435.59h-2.975l-0.3 2.003c0.18-0.024 0.348-0.048 0.636-0.048 0.6 0 1.199 0.132 1.679 0.42 0.611 0.348 1.115 1.02 1.115 2.002 0 1.523-1.211 2.663-2.902 2.663-0.852 0-1.571-0.239-1.943-0.479l0.264-0.804c0.324 0.192 0.959 0.432 1.667 0.432 0.996 0 1.847-0.647 1.847-1.69-0.012-1.008-0.684-1.728-2.243-1.728-0.444 0-0.792 0.048-1.08 0.084l0.504-3.742h3.73v0.887z" style="stroke-width:1.4639"/><path d="m158.85 435.59h-2.975l-0.3 2.003c0.18-0.024 0.348-0.048 0.636-0.048 0.6 0 1.199 0.132 1.679 0.42 0.611 0.348 1.115 1.02 1.115 2.002 0 1.523-1.211 2.663-2.902 2.663-0.852 0-1.571-0.239-1.943-0.479l0.264-0.804c0.324 0.192 0.959 0.432 1.667 0.432 0.996 0 1.847-0.647 1.847-1.69-0.012-1.008-0.684-1.728-2.243-1.728-0.444 0-0.792 0.048-1.08 0.084l0.504-3.742h3.73v0.887z" style="stroke-width:1.4639"/><path d="m259.69 435.59h-2.975l-0.3 2.003c0.18-0.024 0.348-0.048 0.636-0.048 0.6 0 1.199 0.132 1.679 0.42 0.611 0.348 1.115 1.02 1.115 2.002 0 1.523-1.211 2.663-2.902 2.663-0.852 0-1.571-0.239-1.943-0.479l0.264-0.804c0.324 0.192 0.959 0.432 1.667 0.432 0.996 0 1.847-0.647 1.847-1.69-0.012-1.008-0.684-1.728-2.243-1.728-0.444 0-0.792 0.048-1.08 0.084l0.504-3.742h3.73v0.887z" style="stroke-width:1.4639"/><path d="m265.65 435.45c-0.216-0.012-0.492 0-0.792 0.049-1.655 0.275-2.531 1.486-2.71 2.77h0.036c0.372-0.491 1.02-0.898 1.883-0.898 1.379 0 2.351 0.995 2.351 2.518 0 1.428-0.972 2.747-2.59 2.747-1.667 0-2.759-1.296-2.759-3.322 0-1.535 0.552-2.746 1.319-3.514 0.647-0.636 1.511-1.032 2.495-1.151 0.312-0.049 0.576-0.061 0.768-0.061v0.862zm-1.812 6.369c0.899 0 1.511-0.756 1.511-1.871s-0.636-1.787-1.607-1.787c-0.636 0-1.224 0.396-1.511 0.959-0.072 0.121-0.12 0.276-0.12 0.469 0.024 1.283 0.612 2.23 1.715 2.23z" style="stroke-width:1.4639"/><path d="m295.69 435.59h-2.975l-0.3 2.003c0.18-0.024 0.348-0.048 0.636-0.048 0.6 0 1.199 0.132 1.68 0.42 0.611 0.348 1.115 1.02 1.115 2.002 0 1.523-1.212 2.663-2.902 2.663-0.852 0-1.572-0.239-1.943-0.479l0.264-0.804c0.324 0.192 0.959 0.432 1.667 0.432 0.995 0 1.847-0.647 1.847-1.69-0.012-1.008-0.684-1.728-2.242-1.728-0.443 0-0.792 0.048-1.08 0.084l0.504-3.742h3.73v0.887z" style="stroke-width:1.4639"/><path d="m302.26 434.7v0.696l-3.395 7.1h-1.091l3.382-6.896v-0.023h-3.813v-0.876h4.917z" style="stroke-width:1.4639"/><path d="m368.69 435.59h-2.975l-0.3 2.003c0.18-0.024 0.348-0.048 0.636-0.048 0.6 0 1.199 0.132 1.68 0.42 0.611 0.348 1.115 1.02 1.115 2.002 0 1.523-1.212 2.663-2.902 2.663-0.852 0-1.572-0.239-1.943-0.479l0.264-0.804c0.324 0.192 0.959 0.432 1.667 0.432 0.995 0 1.847-0.647 1.847-1.69-0.012-1.008-0.684-1.728-2.242-1.728-0.443 0-0.792 0.048-1.08 0.084l0.504-3.742h3.73v0.887z" style="stroke-width:1.4639"/><path d="m371.64 438.4c-0.863-0.408-1.235-1.08-1.235-1.751 0-1.235 1.044-2.075 2.411-2.075 1.511 0 2.266 0.947 2.266 1.919 0 0.659-0.323 1.367-1.283 1.823v0.035c0.973 0.385 1.572 1.068 1.572 2.016 0 1.355-1.164 2.267-2.651 2.267-1.631 0-2.614-0.972-2.614-2.11 0-0.984 0.588-1.68 1.547-2.088zm2.662 2.074c0-0.947-0.659-1.402-1.715-1.703-0.911 0.264-1.403 0.864-1.403 1.607-0.036 0.792 0.563 1.487 1.56 1.487 0.947 1e-3 1.558-0.599 1.558-1.391zm-2.902-3.897c0 0.78 0.588 1.199 1.487 1.439 0.672-0.228 1.188-0.708 1.188-1.415 0-0.624-0.372-1.271-1.319-1.271-0.876 0-1.356 0.576-1.356 1.247z" style="stroke-width:1.4639"/><path d="m476.19 435.59h-2.975l-0.3 2.003c0.18-0.024 0.348-0.048 0.636-0.048 0.6 0 1.199 0.132 1.68 0.42 0.611 0.348 1.115 1.02 1.115 2.003 0 1.522-1.212 2.662-2.902 2.662-0.852 0-1.572-0.24-1.943-0.479l0.264-0.804c0.324 0.192 0.959 0.432 1.667 0.432 0.995 0 1.847-0.647 1.847-1.691-0.012-1.007-0.684-1.727-2.242-1.727-0.443 0-0.792 0.048-1.08 0.084l0.504-3.742h3.73v0.887z" style="stroke-width:1.4639"/><path d="m478.31 441.76c0.229 0.023 0.492 0 0.852-0.036 0.612-0.084 1.188-0.336 1.631-0.756 0.517-0.468 0.889-1.151 1.032-2.075h-0.036c-0.432 0.528-1.055 0.84-1.835 0.84-1.403 0-2.303-1.056-2.303-2.387 0-1.476 1.067-2.771 2.663-2.771s2.578 1.295 2.578 3.286c0 1.715-0.576 2.915-1.344 3.658-0.6 0.588-1.427 0.947-2.266 1.043-0.385 0.061-0.721 0.072-0.973 0.061v-0.863zm1.907-6.381c-0.888 0-1.522 0.792-1.522 1.895 0 0.972 0.588 1.655 1.498 1.655 0.708 0 1.26-0.348 1.535-0.815 0.061-0.096 0.097-0.216 0.097-0.384 0-1.331-0.491-2.351-1.595-2.351z" style="stroke-width:1.4639"/><path d="m116.49 471.45c-0.216-0.012-0.492 0-0.792 0.049-1.655 0.275-2.531 1.486-2.71 2.77h0.036c0.372-0.491 1.02-0.898 1.883-0.898 1.379 0 2.351 0.995 2.351 2.518 0 1.428-0.972 2.747-2.591 2.747-1.667 0-2.758-1.296-2.758-3.322 0-1.535 0.552-2.746 1.319-3.514 0.647-0.636 1.511-1.032 2.495-1.151 0.312-0.049 0.576-0.061 0.768-0.061v0.862zm-1.811 6.369c0.899 0 1.511-0.756 1.511-1.871s-0.636-1.787-1.607-1.787c-0.636 0-1.224 0.396-1.511 0.959-0.072 0.121-0.12 0.276-0.12 0.469 0.024 1.283 0.612 2.23 1.715 2.23z" style="stroke-width:1.4639"/><path d="m123.38 474.52c0 2.651-0.983 4.114-2.71 4.114-1.523 0-2.555-1.427-2.579-4.006 0-2.614 1.127-4.054 2.71-4.054 1.643 1e-3 2.579 1.464 2.579 3.946zm-4.233 0.121c0 2.026 0.624 3.178 1.583 3.178 1.08 0 1.595-1.26 1.595-3.25 0-1.919-0.492-3.179-1.583-3.179-0.924 0-1.595 1.128-1.595 3.251z" style="stroke-width:1.4639"/><path d="m223.49 471.45c-0.216-0.012-0.492 0-0.792 0.049-1.655 0.275-2.531 1.486-2.71 2.77h0.036c0.372-0.491 1.02-0.898 1.883-0.898 1.379 0 2.351 0.995 2.351 2.518 0 1.428-0.972 2.747-2.591 2.747-1.667 0-2.758-1.296-2.758-3.322 0-1.535 0.552-2.746 1.319-3.514 0.647-0.636 1.511-1.032 2.495-1.151 0.312-0.049 0.576-0.061 0.768-0.061v0.862zm-1.811 6.369c0.899 0 1.511-0.756 1.511-1.871s-0.636-1.787-1.607-1.787c-0.636 0-1.224 0.396-1.511 0.959-0.072 0.121-0.12 0.276-0.12 0.469 0.024 1.283 0.612 2.23 1.715 2.23z" style="stroke-width:1.4639"/><path d="m227.49 471.69h-0.024l-1.355 0.732-0.204-0.805 1.703-0.911h0.9v7.796h-1.02z" style="stroke-width:1.4639"/><path d="m331.49 471.45c-0.216-0.012-0.491 0-0.792 0.049-1.654 0.275-2.53 1.486-2.71 2.77h0.036c0.371-0.491 1.02-0.898 1.883-0.898 1.379 0 2.351 0.995 2.351 2.518 0 1.428-0.972 2.747-2.591 2.747-1.667 0-2.758-1.296-2.758-3.322 0-1.535 0.551-2.746 1.318-3.514 0.648-0.636 1.512-1.032 2.495-1.151 0.312-0.049 0.575-0.061 0.768-0.061zm-1.812 6.369c0.9 0 1.512-0.756 1.512-1.871s-0.636-1.787-1.607-1.787c-0.635 0-1.223 0.396-1.511 0.959-0.072 0.121-0.12 0.276-0.12 0.469 0.023 1.283 0.611 2.23 1.715 2.23z" style="stroke-width:1.4639"/><path d="m333.2 478.5v-0.647l0.828-0.804c1.99-1.895 2.891-2.902 2.902-4.078 0-0.791-0.385-1.523-1.547-1.523-0.708 0-1.296 0.36-1.656 0.66l-0.336-0.744c0.541-0.455 1.309-0.791 2.207-0.791 1.68 0 2.387 1.151 2.387 2.267 0 1.439-1.043 2.603-2.686 4.187l-0.624 0.575v0.024h3.502v0.875h-4.977z" style="stroke-width:1.4639"/><path d="m404.49 471.45c-0.216-0.012-0.491 0-0.792 0.049-1.654 0.275-2.53 1.486-2.71 2.77h0.036c0.371-0.491 1.02-0.898 1.883-0.898 1.379 0 2.351 0.995 2.351 2.518 0 1.428-0.972 2.747-2.591 2.747-1.667 0-2.758-1.296-2.758-3.322 0-1.535 0.551-2.746 1.318-3.514 0.648-0.636 1.512-1.032 2.495-1.151 0.312-0.049 0.575-0.061 0.768-0.061zm-1.812 6.369c0.9 0 1.512-0.756 1.512-1.871s-0.636-1.787-1.607-1.787c-0.635 0-1.223 0.396-1.511 0.959-0.072 0.121-0.12 0.276-0.12 0.469 0.023 1.283 0.611 2.23 1.715 2.23z" style="stroke-width:1.4639"/><path d="m406.45 477.29c0.3 0.191 0.996 0.491 1.727 0.491 1.355 0 1.775-0.863 1.764-1.511-0.012-1.092-0.996-1.56-2.016-1.56h-0.587v-0.792h0.587c0.768 0 1.74-0.395 1.74-1.318 0-0.624-0.396-1.176-1.367-1.176-0.624 0-1.225 0.275-1.56 0.516l-0.276-0.768c0.408-0.3 1.199-0.6 2.039-0.6 1.535 0 2.23 0.912 2.23 1.859 0 0.803-0.479 1.486-1.439 1.834v0.025c0.96 0.191 1.74 0.91 1.74 2.002 0 1.248-0.973 2.339-2.843 2.339-0.876 0-1.644-0.276-2.026-0.528z" style="stroke-width:1.4639"/><path d="m440.49 471.45c-0.216-0.012-0.491 0-0.792 0.049-1.654 0.275-2.53 1.486-2.71 2.77h0.036c0.371-0.491 1.02-0.898 1.883-0.898 1.379 0 2.351 0.995 2.351 2.518 0 1.428-0.972 2.747-2.591 2.747-1.667 0-2.758-1.296-2.758-3.322 0-1.535 0.551-2.746 1.318-3.514 0.648-0.636 1.512-1.032 2.495-1.151 0.312-0.049 0.575-0.061 0.768-0.061zm-1.812 6.369c0.9 0 1.512-0.756 1.512-1.871s-0.636-1.787-1.607-1.787c-0.635 0-1.223 0.396-1.511 0.959-0.072 0.121-0.12 0.276-0.12 0.469 0.023 1.283 0.611 2.23 1.715 2.23z" style="stroke-width:1.4639"/><path d="m445.46 478.5v-2.123h-3.621v-0.695l3.479-4.978h1.139v4.846h1.092v0.827h-1.092v2.123zm0-2.95v-2.603c0-0.408 0.013-0.816 0.037-1.224h-0.037c-0.239 0.456-0.432 0.792-0.646 1.151l-1.907 2.65v0.024h2.553z" style="stroke-width:1.4639"/><path d="m80.49 507.45c-0.216-0.013-0.492 0-0.792 0.048-1.655 0.275-2.531 1.487-2.71 2.771h0.036c0.372-0.492 1.02-0.899 1.883-0.899 1.379 0 2.351 0.995 2.351 2.519 0 1.427-0.972 2.746-2.591 2.746-1.667 0-2.758-1.295-2.758-3.322 0-1.535 0.552-2.746 1.319-3.514 0.647-0.636 1.511-1.031 2.495-1.151 0.312-0.048 0.576-0.061 0.768-0.061v0.863zm-1.811 6.368c0.899 0 1.511-0.756 1.511-1.871s-0.636-1.787-1.607-1.787c-0.636 0-1.224 0.396-1.511 0.96-0.072 0.12-0.12 0.275-0.12 0.468 0.024 1.283 0.612 2.23 1.715 2.23z" style="stroke-width:1.4639"/><path d="m86.85 507.59h-2.975l-0.3 2.003c0.18-0.024 0.348-0.048 0.636-0.048 0.6 0 1.199 0.132 1.679 0.42 0.611 0.348 1.115 1.02 1.115 2.003 0 1.522-1.211 2.662-2.902 2.662-0.852 0-1.571-0.24-1.943-0.479l0.264-0.804c0.324 0.192 0.959 0.432 1.667 0.432 0.996 0 1.847-0.647 1.847-1.691-0.012-1.007-0.684-1.727-2.243-1.727-0.444 0-0.792 0.048-1.08 0.084l0.504-3.742h3.73v0.887z" style="stroke-width:1.4639"/><path d="m188.49 507.45c-0.216-0.012-0.492 0-0.792 0.049-1.655 0.275-2.531 1.486-2.71 2.77h0.036c0.372-0.491 1.02-0.898 1.883-0.898 1.379 0 2.351 0.995 2.351 2.518 0 1.428-0.972 2.747-2.591 2.747-1.667 0-2.758-1.296-2.758-3.322 0-1.535 0.552-2.746 1.319-3.514 0.647-0.636 1.511-1.032 2.495-1.151 0.312-0.049 0.576-0.061 0.768-0.061v0.862zm-1.811 6.369c0.899 0 1.511-0.756 1.511-1.871s-0.636-1.787-1.607-1.787c-0.636 0-1.224 0.396-1.511 0.959-0.072 0.121-0.12 0.276-0.12 0.469 0.024 1.283 0.612 2.23 1.715 2.23z" style="stroke-width:1.4639"/><path d="m194.65 507.45c-0.216-0.012-0.492 0-0.792 0.049-1.655 0.275-2.531 1.486-2.71 2.77h0.036c0.372-0.491 1.02-0.898 1.883-0.898 1.379 0 2.351 0.995 2.351 2.518 0 1.428-0.972 2.747-2.59 2.747-1.667 0-2.759-1.296-2.759-3.322 0-1.535 0.552-2.746 1.319-3.514 0.647-0.636 1.511-1.032 2.495-1.151 0.312-0.049 0.576-0.061 0.768-0.061v0.862zm-1.812 6.369c0.899 0 1.511-0.756 1.511-1.871s-0.636-1.787-1.607-1.787c-0.636 0-1.224 0.396-1.511 0.959-0.072 0.121-0.12 0.276-0.12 0.469 0.024 1.283 0.612 2.23 1.715 2.23z" style="stroke-width:1.4639"/><path d="m332.49 507.45c-0.216-0.012-0.491 0-0.792 0.049-1.654 0.275-2.53 1.486-2.71 2.77h0.036c0.371-0.491 1.02-0.898 1.883-0.898 1.379 0 2.351 0.995 2.351 2.518 0 1.428-0.972 2.747-2.591 2.747-1.667 0-2.758-1.296-2.758-3.322 0-1.535 0.551-2.746 1.318-3.514 0.648-0.636 1.512-1.032 2.495-1.151 0.312-0.049 0.575-0.061 0.768-0.061zm-1.812 6.369c0.9 0 1.512-0.756 1.512-1.871s-0.636-1.787-1.607-1.787c-0.635 0-1.223 0.396-1.511 0.959-0.072 0.121-0.12 0.276-0.12 0.469 0.023 1.283 0.611 2.23 1.715 2.23z" style="stroke-width:1.4639"/><path d="m339.26 506.7v0.696l-3.395 7.1h-1.091l3.382-6.896v-0.023h-3.813v-0.876h4.917z" style="stroke-width:1.4639"/><path d="m368.49 507.45c-0.216-0.012-0.491 0-0.792 0.049-1.654 0.275-2.53 1.486-2.71 2.77h0.036c0.371-0.491 1.02-0.898 1.883-0.898 1.379 0 2.351 0.995 2.351 2.518 0 1.428-0.972 2.747-2.591 2.747-1.667 0-2.758-1.296-2.758-3.322 0-1.535 0.551-2.746 1.318-3.514 0.648-0.636 1.512-1.032 2.495-1.151 0.312-0.049 0.575-0.061 0.768-0.061zm-1.812 6.369c0.9 0 1.512-0.756 1.512-1.871s-0.636-1.787-1.607-1.787c-0.635 0-1.223 0.396-1.511 0.959-0.072 0.121-0.12 0.276-0.12 0.469 0.023 1.283 0.611 2.23 1.715 2.23z" style="stroke-width:1.4639"/><path d="m371.64 510.4c-0.863-0.408-1.235-1.08-1.235-1.751 0-1.235 1.044-2.075 2.411-2.075 1.511 0 2.266 0.947 2.266 1.919 0 0.659-0.323 1.367-1.283 1.823v0.035c0.973 0.385 1.572 1.068 1.572 2.016 0 1.355-1.164 2.267-2.651 2.267-1.631 0-2.614-0.972-2.614-2.11 0-0.984 0.588-1.68 1.547-2.088zm2.662 2.074c0-0.947-0.659-1.402-1.715-1.703-0.911 0.264-1.403 0.864-1.403 1.607-0.036 0.792 0.563 1.487 1.56 1.487 0.947 1e-3 1.558-0.599 1.558-1.391zm-2.902-3.897c0 0.78 0.588 1.199 1.487 1.439 0.672-0.228 1.188-0.708 1.188-1.415 0-0.624-0.372-1.271-1.319-1.271-0.876 0-1.356 0.576-1.356 1.247z" style="stroke-width:1.4639"/><path d="m475.99 507.45c-0.216-0.012-0.491 0-0.792 0.049-1.654 0.275-2.53 1.486-2.71 2.77h0.036c0.371-0.491 1.02-0.898 1.883-0.898 1.379 0 2.351 0.995 2.351 2.518 0 1.428-0.972 2.747-2.591 2.747-1.667 0-2.758-1.296-2.758-3.322 0-1.535 0.551-2.746 1.318-3.514 0.648-0.636 1.512-1.032 2.495-1.151 0.312-0.049 0.575-0.061 0.768-0.061zm-1.812 6.369c0.9 0 1.512-0.756 1.512-1.871s-0.636-1.787-1.607-1.787c-0.635 0-1.223 0.396-1.511 0.959-0.072 0.121-0.12 0.276-0.12 0.469 0.023 1.283 0.611 2.23 1.715 2.23z" style="stroke-width:1.4639"/><path d="m478.31 513.76c0.229 0.024 0.492 0 0.852-0.035 0.612-0.084 1.188-0.336 1.631-0.756 0.517-0.468 0.889-1.151 1.032-2.074h-0.036c-0.432 0.527-1.055 0.839-1.835 0.839-1.403 0-2.303-1.056-2.303-2.387 0-1.476 1.067-2.771 2.663-2.771s2.578 1.295 2.578 3.286c0 1.716-0.576 2.915-1.344 3.658-0.6 0.587-1.427 0.947-2.266 1.044-0.385 0.06-0.721 0.071-0.973 0.06v-0.864zm1.907-6.38c-0.888 0-1.522 0.792-1.522 1.896 0 0.971 0.588 1.654 1.498 1.654 0.708 0 1.26-0.348 1.535-0.815 0.061-0.096 0.097-0.216 0.097-0.384 0-1.331-0.491-2.351-1.595-2.351z" style="stroke-width:1.4639"/><path d="m8.102 543.7v0.696l-3.394 7.1h-1.092l3.382-6.896v-0.023h-3.814v-0.876h4.918z" style="stroke-width:1.4639"/><path d="m14.377 547.52c0 2.651-0.983 4.114-2.71 4.114-1.523 0-2.555-1.427-2.579-4.006 0-2.614 1.127-4.054 2.71-4.054 1.643 1e-3 2.579 1.464 2.579 3.946zm-4.233 0.121c0 2.026 0.624 3.178 1.583 3.178 1.08 0 1.595-1.26 1.595-3.25 0-1.919-0.492-3.179-1.583-3.179-0.924 0-1.595 1.128-1.595 3.251z" style="stroke-width:1.4639"/><path d="m369.1 543.7v0.696l-3.394 7.1h-1.092l3.382-6.896v-0.023h-3.813v-0.876h4.917z" style="stroke-width:1.4639"/><path d="m372.49 544.69h-0.023l-1.355 0.731-0.204-0.803 1.703-0.912h0.899v7.796h-1.02z" style="stroke-width:1.4639"/></g></g><style type="text/css">.st0{clip-path:url(#b);fill:url(#a);}
	.st1{clip-path:url(#b);}
	.st2{fill:url(#y);}
	.st3{fill:#FFFFFF;}
	.st4{fill:#D1D3D4;}
	.st5{fill:#E6E7E8;}
	.st6{opacity:0.76;clip-path:url(#b);}
	.st7{opacity:0.25;fill:url(#z);}
	.st8{fill:url(#aa);}
	.st9{fill:url(#aj);}
	.st10{opacity:0.2;fill:url(#ab);}
	.st11{fill:none;}
	.st12{opacity:0.15;fill:url(#ac);}
	.st13{opacity:0.5;fill:url(#t);}
	.st14{fill:url(#u);}
	.st15{opacity:3.000000e-02;fill:none;stroke:#FFFFFF;stroke-width:2;stroke-miterlimit:10;}
	.st16{opacity:0.5;fill:url(#v);}
	.st17{fill:url(#w);}
	.st18{fill:url(#ad);}
	.st19{fill:url(#ae);}
	.st20{fill:url(#af);}
	.st21{fill:url(#ag);}
	.st22{clip-path:url(#x);}
	.st23{clip-path:url(#SVGID_21_);fill:url(#SVGID_22_);}
	.st24{opacity:0.71;clip-path:url(#SVGID_21_);}
	.st25{clip-path:url(#SVGID_21_);}
	.st26{fill:url(#SVGID_23_);}
	.st27{fill:#262262;}
	.st28{fill:#2B3990;}
	.st29{opacity:0.26;clip-path:url(#SVGID_21_);}
	.st30{opacity:0.25;fill:url(#SVGID_24_);}
	.st31{fill:url(#SVGID_25_);}
	.st32{fill:url(#SVGID_26_);}
	.st33{opacity:0.2;fill:url(#SVGID_27_);}
	.st34{opacity:0.15;fill:url(#SVGID_28_);}
	.st35{opacity:0.5;fill:url(#SVGID_29_);}
	.st36{fill:url(#SVGID_30_);}
	.st37{opacity:0.5;fill:url(#SVGID_31_);}
	.st38{fill:url(#SVGID_32_);}
	.st39{fill:url(#SVGID_33_);}
	.st40{fill:url(#SVGID_34_);}
	.st41{fill:url(#SVGID_35_);}
	.st42{fill:url(#SVGID_36_);}</style><style type="text/css">.st0{clip-path:url(#b);fill:url(#a);}
	.st1{clip-path:url(#b);}
	.st2{fill:url(#y);}
	.st3{fill:#FFFFFF;}
	.st4{fill:#D1D3D4;}
	.st5{fill:#E6E7E8;}
	.st6{opacity:0.76;clip-path:url(#b);}
	.st7{opacity:0.25;fill:url(#z);}
	.st8{fill:url(#aa);}
	.st9{fill:url(#aj);}
	.st10{opacity:0.2;fill:url(#ab);}
	.st11{fill:none;}
	.st12{opacity:0.15;fill:url(#ac);}
	.st13{opacity:0.5;fill:url(#t);}
	.st14{fill:url(#u);}
	.st15{opacity:3.000000e-02;fill:none;stroke:#FFFFFF;stroke-width:2;stroke-miterlimit:10;}
	.st16{opacity:0.5;fill:url(#v);}
	.st17{fill:url(#w);}
	.st18{fill:url(#ad);}
	.st19{fill:url(#ae);}
	.st20{fill:url(#af);}
	.st21{fill:url(#ag);}
	.st22{clip-path:url(#x);}
	.st23{clip-path:url(#SVGID_21_);fill:url(#SVGID_22_);}
	.st24{opacity:0.71;clip-path:url(#SVGID_21_);}
	.st25{clip-path:url(#SVGID_21_);}
	.st26{fill:url(#SVGID_23_);}
	.st27{fill:#262262;}
	.st28{fill:#2B3990;}
	.st29{opacity:0.26;clip-path:url(#SVGID_21_);}
	.st30{opacity:0.25;fill:url(#SVGID_24_);}
	.st31{fill:url(#SVGID_25_);}
	.st32{fill:url(#SVGID_26_);}
	.st33{opacity:0.2;fill:url(#SVGID_27_);}
	.st34{opacity:0.15;fill:url(#SVGID_28_);}
	.st35{opacity:0.5;fill:url(#SVGID_29_);}
	.st36{fill:url(#SVGID_30_);}
	.st37{opacity:0.5;fill:url(#SVGID_31_);}
	.st38{fill:url(#SVGID_32_);}
	.st39{fill:url(#SVGID_33_);}
	.st40{fill:url(#SVGID_34_);}
	.st41{fill:url(#SVGID_35_);}
	.st42{fill:url(#SVGID_36_);}</style></svg>
