<?xml version="1.0" encoding="UTF-8" standalone="no"?>
<!-- Created with Inkscape (http://www.inkscape.org/) -->

<svg
   xmlns:dc="http://purl.org/dc/elements/1.1/"
   xmlns:cc="http://creativecommons.org/ns#"
   xmlns:rdf="http://www.w3.org/1999/02/22-rdf-syntax-ns#"
   xmlns:svg="http://www.w3.org/2000/svg"
   xmlns="http://www.w3.org/2000/svg"
   xmlns:xlink="http://www.w3.org/1999/xlink"
   xmlns:sodipodi="http://sodipodi.sourceforge.net/DTD/sodipodi-0.dtd"
   xmlns:inkscape="http://www.inkscape.org/namespaces/inkscape"
   width="100mm"
   height="114mm"
   viewBox="0 0 100 114"
   version="1.1"
   id="svg8"
   inkscape:version="0.92.3 (2405546, 2018-03-11)"
   sodipodi:docname="dices.svg">
  <defs
     id="defs2">
    <linearGradient
       id="c">
      <stop
         id="stop815"
         offset="0"
         stop-color="#ccc" />
      <stop
         id="stop817"
         offset=".4608"
         stop-color="#b4b4b4" />
      <stop
         id="stop819"
         offset="1"
         stop-color="#808080" />
    </linearGradient>
    <linearGradient
       id="a">
      <stop
         id="stop822"
         offset="0"
         stop-color="#fff" />
      <stop
         id="stop824"
         offset="1" />
    </linearGradient>
    <linearGradient
       gradientUnits="userSpaceOnUse"
       y2="135"
       y1="31.577999"
       x2="278.73999"
       x1="135.39"
       id="aa">
      <stop
         id="stop827"
         offset="0"
         stop-color="#ececec" />
      <stop
         id="stop829"
         offset="1"
         stop-color="#b5b5b5" />
    </linearGradient>
    <linearGradient
       gradientUnits="userSpaceOnUse"
       y2="61.289001"
       y1="244.00999"
       x2="74.248001"
       x1="79.835999"
       id="z">
      <stop
         id="stop832"
         offset="0"
         stop-color="#b3b3b3" />
      <stop
         id="stop834"
         offset=".6607"
         stop-color="#bfbfbf" />
      <stop
         id="stop836"
         offset="1"
         stop-color="#ebebeb" />
    </linearGradient>
    <linearGradient
       gradientUnits="userSpaceOnUse"
       y2="108.1"
       y1="288.79001"
       x2="188.8"
       x1="263.69"
       id="y">
      <stop
         id="stop839"
         offset="0"
         stop-color="#808080" />
      <stop
         id="stop841"
         offset=".8343"
         stop-color="#808080" />
      <stop
         id="stop843"
         offset="1"
         stop-opacity="0"
         stop-color="#808080" />
    </linearGradient>
    <linearGradient
       gradientUnits="userSpaceOnUse"
       gradientTransform="matrix(0.94833,0,0,1.0623,6.8156,-21.727)"
       y2="252.97"
       y1="252.67"
       x2="170.03999"
       x1="139.05"
       id="x">
      <stop
         id="stop846"
         offset="0"
         stop-color="#b4b4b4" />
      <stop
         id="stop848"
         offset="1"
         stop-color="#808080" />
    </linearGradient>
    <linearGradient
       gradientUnits="userSpaceOnUse"
       y2="95.348999"
       y1="131.89999"
       x2="232.02"
       x1="246.32001"
       id="w">
      <stop
         id="stop851"
         offset="0"
         stop-color="#808080" />
      <stop
         id="stop853"
         offset=".5979"
         stop-color="#d0d0d0" />
      <stop
         id="stop855"
         offset=".7873"
         stop-color="#d9d9d9" />
      <stop
         id="stop857"
         offset="1"
         stop-color="#cecece" />
    </linearGradient>
    <linearGradient
       gradientUnits="userSpaceOnUse"
       y2="79.457001"
       y1="139.84"
       x2="90.581001"
       x1="76.278999"
       id="v">
      <stop
         id="stop860"
         offset="0"
         stop-color="#bcbcbc" />
      <stop
         id="stop862"
         offset="1"
         stop-color="#e7e7e7" />
    </linearGradient>
    <linearGradient
       gradientUnits="userSpaceOnUse"
       gradientTransform="matrix(-0.20663,-0.26045,0.30792,-0.17406,155.2,114.85)"
       y2="-39.219002"
       y1="-123.31"
       x2="-33.286999"
       x1="-13.41"
       id="u">
      <stop
         id="stop865"
         offset="0"
         stop-color="#ccc" />
      <stop
         id="stop867"
         offset=".4202"
         stop-color="#bdbdbd" />
      <stop
         id="stop869"
         offset=".5521"
         stop-color="#b4b4b4" />
      <stop
         id="stop871"
         offset="1"
         stop-color="#c8c8c8" />
    </linearGradient>
    <linearGradient
       gradientUnits="userSpaceOnUse"
       gradientTransform="matrix(-0.20663,-0.26045,0.30792,-0.17406,154.65,110.69)"
       y2="-94.424004"
       y1="-171.53999"
       x2="-160"
       x1="-87.955002"
       id="s">
      <stop
         id="stop874"
         offset="0"
         stop-color="#ccc" />
      <stop
         id="stop876"
         offset=".5733"
         stop-color="#b4b4b4" />
      <stop
         id="stop878"
         offset="1"
         stop-color="#808080" />
    </linearGradient>
    <linearGradient
       xlink:href="#c"
       gradientUnits="userSpaceOnUse"
       gradientTransform="matrix(-0.21133,-0.28432,0.31493,-0.19001,150.14,108.43)"
       y2="-54.424"
       y1="-34.424"
       x2="-140"
       x1="-70"
       id="t" />
    <radialGradient
       gradientUnits="userSpaceOnUse"
       gradientTransform="matrix(1.0608,-1.3488e-8,-1.4581e-8,0.1109,-1.2163,33.786)"
       r="23.566999"
       cy="38"
       cx="20"
       id="h">
      <stop
         id="stop882"
         offset="0" />
      <stop
         id="stop884"
         offset="1"
         stop-opacity="0" />
    </radialGradient>
    <radialGradient
       xlink:href="#a"
       gradientUnits="userSpaceOnUse"
       gradientTransform="matrix(0.36634,0.09991,-0.20861,0.76488,236.47,25.969)"
       r="23.858999"
       cy="242.56"
       cx="342.85999"
       id="p" />
    <radialGradient
       xlink:href="#a"
       gradientUnits="userSpaceOnUse"
       gradientTransform="matrix(0.32269,0.09589,-0.19982,0.67245,204,78.197)"
       r="23.858999"
       cy="282.14999"
       cx="219.69"
       id="o" />
    <radialGradient
       xlink:href="#a"
       gradientUnits="userSpaceOnUse"
       gradientTransform="matrix(-0.11491,-0.25499,0.39474,-0.17789,265.57,148.08)"
       r="30.114"
       cy="103.24"
       cx="259.41"
       id="n" />
    <radialGradient
       xlink:href="#a"
       gradientUnits="userSpaceOnUse"
       gradientTransform="matrix(0.1073,0.22488,-0.32399,0.15459,190.54,38.408)"
       r="34.334999"
       cy="102.71"
       cx="184.74001"
       id="m" />
    <radialGradient
       xlink:href="#a"
       gradientUnits="userSpaceOnUse"
       gradientTransform="matrix(0.084395,-0.83577,0.43205,0.043627,185.49,371.17)"
       r="23.858999"
       cy="238.48"
       cx="300.10001"
       id="l" />
    <radialGradient
       xlink:href="#a"
       gradientUnits="userSpaceOnUse"
       gradientTransform="matrix(0.34207,0.035805,-0.077763,0.74294,152.85,40.508)"
       r="23.858999"
       cy="163.60001"
       cx="230.58"
       id="k" />
    <radialGradient
       xlink:href="#a"
       gradientUnits="userSpaceOnUse"
       gradientTransform="matrix(0.34914,-0.21992,0.40044,0.63573,-25.152,63.157)"
       r="18.41"
       cy="117.22"
       cx="37.103001"
       id="j" />
    <radialGradient
       xlink:href="#c"
       gradientUnits="userSpaceOnUse"
       gradientTransform="matrix(0.64412,-1.5728,2.1875,0.72334,-272.81,291.6)"
       r="24.632"
       cy="150.57001"
       cx="158.91"
       id="i" />
    <linearGradient
       inkscape:collect="always"
       xlink:href="#aa"
       id="linearGradient1275"
       gradientUnits="userSpaceOnUse"
       x1="135.39"
       y1="31.577999"
       x2="278.73999"
       y2="135" />
    <linearGradient
       inkscape:collect="always"
       xlink:href="#z"
       id="linearGradient1277"
       gradientUnits="userSpaceOnUse"
       x1="79.835999"
       y1="244.00999"
       x2="74.248001"
       y2="61.289001" />
    <linearGradient
       inkscape:collect="always"
       xlink:href="#y"
       id="linearGradient1279"
       gradientUnits="userSpaceOnUse"
       x1="263.69"
       y1="288.79001"
       x2="188.8"
       y2="108.1" />
    <radialGradient
       inkscape:collect="always"
       xlink:href="#a"
       id="radialGradient1281"
       gradientUnits="userSpaceOnUse"
       gradientTransform="matrix(0.36634,0.09991,-0.20861,0.76488,236.47,25.969)"
       cx="342.85999"
       cy="242.56"
       r="23.858999" />
    <radialGradient
       inkscape:collect="always"
       xlink:href="#a"
       id="radialGradient1283"
       gradientUnits="userSpaceOnUse"
       gradientTransform="matrix(0.32269,0.09589,-0.19982,0.67245,204,78.197)"
       cx="219.69"
       cy="282.14999"
       r="23.858999" />
    <linearGradient
       inkscape:collect="always"
       xlink:href="#x"
       id="linearGradient1285"
       gradientUnits="userSpaceOnUse"
       gradientTransform="matrix(0.94833,0,0,1.0623,6.8156,-21.727)"
       x1="139.05"
       y1="252.67"
       x2="170.03999"
       y2="252.97" />
    <linearGradient
       inkscape:collect="always"
       xlink:href="#w"
       id="linearGradient1287"
       gradientUnits="userSpaceOnUse"
       x1="246.32001"
       y1="131.89999"
       x2="232.02"
       y2="95.348999" />
    <radialGradient
       inkscape:collect="always"
       xlink:href="#a"
       id="radialGradient1289"
       gradientUnits="userSpaceOnUse"
       gradientTransform="matrix(-0.11491,-0.25499,0.39474,-0.17789,265.57,148.08)"
       cx="259.41"
       cy="103.24"
       r="30.114" />
    <radialGradient
       inkscape:collect="always"
       xlink:href="#a"
       id="radialGradient1291"
       gradientUnits="userSpaceOnUse"
       gradientTransform="matrix(0.1073,0.22488,-0.32399,0.15459,190.54,38.408)"
       cx="184.74001"
       cy="102.71"
       r="34.334999" />
    <radialGradient
       inkscape:collect="always"
       xlink:href="#a"
       id="radialGradient1293"
       gradientUnits="userSpaceOnUse"
       gradientTransform="matrix(0.084395,-0.83577,0.43205,0.043627,185.49,371.17)"
       cx="300.10001"
       cy="238.48"
       r="23.858999" />
    <radialGradient
       inkscape:collect="always"
       xlink:href="#a"
       id="radialGradient1295"
       gradientUnits="userSpaceOnUse"
       gradientTransform="matrix(0.34207,0.035805,-0.077763,0.74294,152.85,40.508)"
       cx="230.58"
       cy="163.60001"
       r="23.858999" />
    <linearGradient
       inkscape:collect="always"
       xlink:href="#v"
       id="linearGradient1297"
       gradientUnits="userSpaceOnUse"
       x1="76.278999"
       y1="139.84"
       x2="90.581001"
       y2="79.457001" />
    <radialGradient
       inkscape:collect="always"
       xlink:href="#a"
       id="radialGradient1299"
       gradientUnits="userSpaceOnUse"
       gradientTransform="matrix(0.34914,-0.21992,0.40044,0.63573,-25.152,63.157)"
       cx="37.103001"
       cy="117.22"
       r="18.41" />
    <radialGradient
       inkscape:collect="always"
       xlink:href="#c"
       id="radialGradient1301"
       gradientUnits="userSpaceOnUse"
       gradientTransform="matrix(0.64412,-1.5728,2.1875,0.72334,-272.81,291.6)"
       cx="158.91"
       cy="150.57001"
       r="24.632" />
    <linearGradient
       inkscape:collect="always"
       xlink:href="#u"
       id="linearGradient1303"
       gradientUnits="userSpaceOnUse"
       gradientTransform="matrix(-0.20663,-0.26045,0.30792,-0.17406,155.2,114.85)"
       x1="-13.41"
       y1="-123.31"
       x2="-33.286999"
       y2="-39.219002" />
    <linearGradient
       inkscape:collect="always"
       xlink:href="#c"
       id="linearGradient1305"
       gradientUnits="userSpaceOnUse"
       gradientTransform="matrix(-0.21133,-0.28432,0.31493,-0.19001,150.14,108.43)"
       x1="-70"
       y1="-34.424"
       x2="-140"
       y2="-54.424" />
    <linearGradient
       inkscape:collect="always"
       xlink:href="#s"
       id="linearGradient1307"
       gradientUnits="userSpaceOnUse"
       gradientTransform="matrix(-0.20663,-0.26045,0.30792,-0.17406,154.65,110.69)"
       x1="-87.955002"
       y1="-171.53999"
       x2="-160"
       y2="-94.424004" />
  </defs>
  <sodipodi:namedview
     id="base"
     pagecolor="#ffffff"
     bordercolor="#666666"
     borderopacity="1.0"
     inkscape:pageopacity="0.0"
     inkscape:pageshadow="2"
     inkscape:zoom="0.98994949"
     inkscape:cx="-15.163576"
     inkscape:cy="172.69523"
     inkscape:document-units="mm"
     inkscape:current-layer="layer1"
     showgrid="false"
     fit-margin-top="0"
     fit-margin-left="0"
     fit-margin-right="0"
     fit-margin-bottom="0"
     inkscape:window-width="1920"
     inkscape:window-height="1017"
     inkscape:window-x="-8"
     inkscape:window-y="-8"
     inkscape:window-maximized="1" />
  <metadata
     id="metadata5">
    <rdf:RDF>
      <cc:Work
         rdf:about="">
        <dc:format>image/svg+xml</dc:format>
        <dc:type
           rdf:resource="http://purl.org/dc/dcmitype/StillImage" />
        <dc:title></dc:title>
      </cc:Work>
    </rdf:RDF>
  </metadata>
  <g
     inkscape:label="Layer 1"
     inkscape:groupmode="layer"
     id="layer1"
     transform="translate(-84.401805,-30.847063)">
    <g
       id="g1035"
       transform="matrix(2.3363669,0,0,2.2986198,82.414043,58.708119)"
       inkscape:transform-center-x="2543.3023"
       inkscape:transform-center-y="-242.99696">
      <g
         transform="matrix(0.078485,0,0,0.085801,0.86194,6.9492)"
         id="ab">
        <g
           id="g936"
           transform="matrix(0.95913,0,0,0.97178,-0.33871,3.8605)">
          <path
             id="path899"
             d="m 190.56,-2.3373 c 16.589,-3.239 116.85,40.148 151.69,57.839 24.553,12.468 -193.89,84.334 -193.89,84.334 -45.919,-28.673 -152.18,-39.261 -144.93,-80.363 -0.58074,-9.927 43.582,-21.971 52.315,-25.163 8.733,-3.192 125.35,-39.843 134.81,-36.648 z"
             inkscape:connector-curvature="0"
             style="fill:url(#linearGradient1275);fill-rule:evenodd" />
          <path
             id="path901"
             d="m 0.35314,66.883 c 11.317,-23.132 151.54,57.88 150.49,76.95 6.3463,74.712 20.791,233.35 0.71054,212.91 l -133.72,-101.05 c -9.6364,-12.675 -18.935,-120.13 -17.477,-188.81 z"
             inkscape:connector-curvature="0"
             style="fill:url(#linearGradient1277);fill-rule:evenodd" />
          <path
             id="path903"
             d="m 348.61,66.615 -199,71.379 c 0,0 -0.78079,210.86 11.238,222.71 11.616,11.459 177.51,-82.121 181.59,-95.781 6.5174,-21.846 6.1765,-198.31 6.1765,-198.31 z"
             inkscape:connector-curvature="0"
             style="fill:url(#linearGradient1279);fill-rule:evenodd" />
          <path
             id="path905"
             d="m 318.91,254.9 c -7.9561,16.54 -22.922,25.854 -33.422,20.8 -10.5,-5.054 -12.557,-22.561 -4.5927,-39.097 7.9643,-16.536 22.922,-25.854 33.422,-20.8 10.5,5.054 12.557,22.561 4.5927,39.097 z"
             inkscape:connector-curvature="0"
             style="fill:url(#radialGradient1281)" />
          <path
             id="path907"
             d="m 227.14,298.15 c -7.9561,16.54 -22.922,25.854 -33.422,20.8 -10.5,-5.054 -12.557,-22.561 -4.5927,-39.097 7.9643,-16.536 22.922,-25.854 33.422,-20.8 10.5,5.054 12.557,22.561 4.5927,39.097 z"
             inkscape:connector-curvature="0"
             style="fill:url(#radialGradient1283)" />
          <path
             id="path909"
             d="m 171.08,138.65 c -16.278,8.802 -30.922,1.1278 -39.183,-6.7528 l 5.2746,209.34 c 8.6232,11.443 24.786,28.789 37.676,16.882 2.9067,-2.6851 -3.0141,-217.78 -3.7676,-219.47 z"
             inkscape:connector-curvature="0"
             style="fill:url(#linearGradient1285);fill-rule:evenodd" />
          <path
             id="path911"
             d="m 149.38,175.6 c -1.1974,-24.048 -3.3265,-42.413 -18.275,-51.647 l 198.64,-74.69 c 15.796,3.1158 20.808,5.9122 19.07,38.14 l -199.44,88.198 z"
             inkscape:connector-curvature="0"
             style="fill:url(#linearGradient1287);fill-rule:evenodd" />
          <path
             id="path913"
             d="m 268.1,46.67 c 16.275,2.2234 26.709,9.5786 23.301,16.426 -3.408,6.8474 -19.365,10.593 -35.637,8.364 -16.275,-2.2234 -26.709,-9.5786 -23.301,-16.426 3.408,-6.8474 19.365,-10.593 35.637,-8.364 z"
             inkscape:connector-curvature="0"
             style="fill:url(#radialGradient1289)" />
          <path
             d="m 169.82,109.23 c 18.556,-2.4033 30.452,-10.354 26.567,-17.755 -3.885,-7.401 -22.079,-11.45 -40.632,-9.0407 -18.556,2.4033 -30.452,10.354 -26.567,17.755 3.885,7.401 22.079,11.45 40.632,9.0407 z"
             id="q"
             inkscape:connector-curvature="0"
             style="fill:url(#radialGradient1291)" />
          <path
             id="path916"
             d="m 321.01,146.26 c -7.9561,16.54 -22.922,25.854 -33.422,20.8 -10.5,-5.054 -12.557,-22.561 -4.5927,-39.097 7.9643,-16.536 22.922,-25.854 33.422,-20.8 10.5,5.054 12.557,22.561 4.5927,39.097 z"
             inkscape:connector-curvature="0"
             style="fill:url(#radialGradient1293)" />
          <path
             id="path918"
             d="m 226.09,185.82 c -7.9561,16.54 -22.922,25.854 -33.422,20.8 -10.5,-5.054 -12.557,-22.561 -4.5927,-39.097 7.9643,-16.536 22.922,-25.854 33.422,-20.8 10.5,5.054 12.557,22.561 4.5927,39.097 z"
             inkscape:connector-curvature="0"
             style="fill:url(#radialGradient1295)" />
          <path
             id="path920"
             d="m 142.23,167.65 c -3.607,-18.33 -8.1039,-36.956 25.426,-42.907 L 27.816,44.491 C -8.51,53.8841 1.359,67.364 4.773,90.576 l 137.46,77.074 z"
             inkscape:connector-curvature="0"
             style="fill:url(#linearGradient1297);fill-rule:evenodd" />
          <path
             d="m 22.169,130.43 c 7.4233,14.899 19.074,22.396 26.018,16.743 6.944,-5.653 6.5521,-22.314 -0.87657,-37.208 -7.4233,-14.899 -19.074,-22.396 -26.018,-16.743 -6.944,5.653 -6.5521,22.314 0.87657,37.208 z"
             id="r"
             inkscape:connector-curvature="0"
             style="fill:url(#radialGradient1299)" />
          <path
             id="path923"
             d="m 183.55,150.57 c 0.005,13.388 -11.024,24.244 -24.632,24.244 -13.608,0 -24.637,-10.856 -24.632,-24.244 -0.005,-13.388 11.024,-24.244 24.632,-24.244 13.608,0 24.637,10.856 24.632,24.244 z"
             transform="matrix(1,0,0,1.0984,-3.1783,-9.2483)"
             inkscape:connector-curvature="0"
             style="fill:url(#radialGradient1301);fill-rule:evenodd" />
          <use
             xlink:href="#q"
             height="367.09293"
             width="349.46875"
             transform="translate(15.097,-35.756)"
             id="b"
             x="0"
             y="0" />
          <use
             id="use926"
             xlink:href="#b"
             height="367.09293"
             width="349.46875"
             transform="matrix(0.90743,0,0,0.85905,-70.937,12.043)"
             x="0"
             y="0" />
          <use
             id="use928"
             xlink:href="#b"
             height="367.09293"
             width="349.46875"
             transform="matrix(0.89586,0,0,0.7463,15.743,-15.35)"
             x="0"
             y="0" />
          <use
             xlink:href="#r"
             height="367.09293"
             width="349.46875"
             transform="matrix(0.95684,0,0,0.9174,7.856,75.083)"
             id="g"
             x="0"
             y="0" />
          <use
             xlink:href="#g"
             height="367.09293"
             width="349.46875"
             transform="matrix(0.95489,0,0,0.92497,5.0321,70.718)"
             id="f"
             x="0"
             y="0" />
          <use
             xlink:href="#f"
             height="367.09293"
             width="349.46875"
             transform="matrix(1.2598,0,0,1.2758,64.379,-11.562)"
             id="e"
             x="0"
             y="0" />
          <use
             xlink:href="#e"
             height="367.09293"
             width="349.46875"
             transform="matrix(0.86876,0,0,0.87284,9.8098,-27.34)"
             id="d"
             x="0"
             y="0" />
          <use
             id="use934"
             xlink:href="#d"
             height="367.09293"
             width="349.46875"
             transform="matrix(0.93526,0,0,1.1457,3.0231,-102.17)"
             x="0"
             y="0" />
        </g>
        <g
           id="g944"
           transform="matrix(1,0,0,1.0571,0,-7.2184)"
           style="fill-rule:evenodd">
          <path
             id="path938"
             d="m 124.18,162.57 22.677,-9.9424 7.8382,-22.586 c -8.9985,-4.4231 -18.996,-5.0592 -26.435,-0.85445 -10.946,6.1872 -12.508,20.685 -4.081,33.383 z"
             inkscape:connector-curvature="0"
             style="fill:url(#linearGradient1303)" />
          <path
             id="path940"
             d="m 146.43,150.58 23.574,24.102 c 8.4694,-8.3301 8.1864,-23.68 -1.3818,-36.552 -4.0804,-5.4895 -9.2717,-9.7429 -14.792,-12.516 l -7.401,24.966 z"
             inkscape:connector-curvature="0"
             style="fill:url(#linearGradient1305)" />
          <path
             id="path942"
             d="m 127.19,163.64 c 10.525,13.266 28.57,18.663 40.285,12.041 1.302,-0.73598 2.4747,-1.5959 3.5102,-2.5501 l -23.049,-22.078 -22.939,9.5245 c 0.66609,1.0333 1.3954,2.0576 2.1933,3.0632 z"
             inkscape:connector-curvature="0"
             style="fill:url(#linearGradient1307)" />
        </g>
      </g>
      <use
         id="use947"
         xlink:href="#ab"
         height="365.57642"
         width="619.7326"
         transform="matrix(0.96251,0.29653,-0.24812,0.96251,20.743676,-23.19826)"
         x="0"
         y="0" />
    </g>
  </g>
</svg>
