<?xml version="1.0" encoding="UTF-8"?>
<svg width="100.05mm" height="100.12mm" version="1.1" viewBox="0 0 100.05 100.12" xmlns="http://www.w3.org/2000/svg" xmlns:xlink="http://www.w3.org/1999/xlink"><defs><style type="text/css"><![CDATA[
    .fil6 {fill:#2B2A29}
    .fil1 {fill:#86776F}
    .fil8 {fill:#EF7F1A}
    .fil5 {fill:#FFED00}
    .fil0 {fill:#46372C}
    .fil2 {fill:#4A3224}
    .fil4 {fill:#523321}
    .fil3 {fill:#695245}
    .fil7 {fill:#FEFEFE;fill-opacity:0.180392}
   ]]></style><linearGradient id="k-5" x1="-328.23" x2="-307.82" y1="288.41" y2="310.17" gradientTransform="scale(.93694 1.0673)" gradientUnits="userSpaceOnUse"><stop stop-color="#00a944" stop-opacity="0" offset="0"/><stop stop-color="#00c03d" stop-opacity=".58547" offset="1"/></linearGradient><linearGradient id="j-9" x1="-512.8" x2="-440.68" y1="96.893" y2="202.28" gradientTransform="scale(.90884 1.1003)" gradientUnits="userSpaceOnUse"><stop stop-color="#d2f0ec" offset="0"/><stop stop-color="#16de3f" stop-opacity="0" offset="1"/></linearGradient></defs><g transform="translate(-153.52 -22.284)"><g transform="matrix(.35063 0 0 .41962 75.872 -36.241)" style="stroke-width:.68979"><path transform="matrix(.45454 0 0 .45454 533.25 159.72)" d="m-589.62-25.28-4.1645 34.01 98.217 94.827-18.453 8.6164-9.3105 15.676-1.3882 13.882-92.025-31.291 8.448 14.576 3.4704 20.584 50.717 26.642-9.4789 27.098 13.882 8.3289-0.69408 17.352-90.924-3.4704-31.928 13.187-9.7171 13.882 19.434 13.882 38.868 10.411 74.266-21.516-4.7395 27.217 9.7868 21.607-12.732 6.2467-9.023 20.822 21.516 8.3289 15.27-15.964 11.155 21.278 10.411 5.5526-77.737 74.266-2.7763 36.092 38.868-14.576 58.303-88.148 4.8586 4.8586-3.4704 26.375 14.001 0.0697 4.7395 12.424 27.763-9.023 9.023-11.105 13.882 5.5526 0.69408 13.882-13.882 51.362 20.822 27.763 18.74-37.48-2.0822-26.375 14.218 7.9717 8.6862-6.5835 17.352-25.681 8.448 17.282 15.845-9.6473 13.187 11.799 13.882-4.8586 8.3289 13.187 25.611-0.16842 5.6224-25.512-5.5526-34.704h12.493l64.549 54.138 47.197 3.4704-2.0822-43.727-13.882-20.128-77.737-31.928 12.493-11.105 4.1645-19.434 33.147-16.231 60.405 20.584 37.866-2.1724 30.667-16.826-30.211-23.529-37.817-13.783-66.085-0.50523 16.449-15.557-9.7171-13.187-29.151-11.105 38.174-16.658 23.599-20.128 3.4704-20.822-32.622-8.3289-54.138 4.8586 0.69408-18.74-5.5526-6.2467 87.454-61.079 6.9408-31.234 3.8072-15.964-20.465-2.0822-31.234 6.9408-79.125 94.395-9.7171-15.27-15.27-9.7171 4.8586-21.516-6.9408-11.105-23.599-7.6349-22.905 27.763-11.799-2.0822 12.493-51.362-13.882-30.539-21.516-19.434-26.375 29.151 13.882 41.645 3.4704 23.599-15.27-12.493h-11.799l-13.187-14.576-17.352 2.7763-8.3289 7.6349 6.9408 16.658-9.7171 7.6349 0.69408 15.964-20.822 15.27-71.869-125.1-33.983 8.0641z" style="fill-rule:evenodd;fill:#11b66a;stroke-linecap:square;stroke-width:4.3112;stroke:#21ed9c"/><path transform="matrix(.44264 0 0 .45454 191.8 38.73)" d="m532.84 488.72a157.36 147.36 0 1 0-314.71 0 157.36 147.36 0 1 0 314.71 0z" style="fill-rule:evenodd;fill:#22e37e;stroke-width:.68979"/><path transform="matrix(.45454 0 0 .45454 533.25 159.72)" d="m-405.39 86.562c-46.846 8.4332-80.953 30.525-99.881 58.541-19.043 28.186-29.817 79.346-11.425 89.084 19.893 11.036 128.15-98.364 111.31-147.62z" style="fill-rule:evenodd;fill:url(#j-9);stroke-width:.68979"/><path transform="matrix(.45454 0 0 .45454 533.25 159.72)" d="m-343.22 354.2c13.645 1.5091 52.028-19.977 70.25-41.021s37.403-65.095 30.282-75.474c-23.452-3.555-107.05 91.891-100.53 116.49z" style="fill-rule:evenodd;fill:url(#k-5);stroke-width:.68979"/><path transform="matrix(.45454 0 0 .45454 533.25 159.72)" d="m-593.36 7.5908 24.265 2.2372 8.8342-6.871 3.3336-35.4m-12.875 41.29 49.607 70.658m-41.754-76.821 75.73 88.704" style="fill:none;stroke-opacity:.72115;stroke-width:2.5867;stroke:#25f69e"/><path transform="matrix(.45454 0 0 .45454 533.25 159.72)" d="m-412.28-13.048 25.681 14.229 12.84-6.9408 9.023-17.005m-21.516 23.946 2.7763 23.599-1.7352 34.704m12.493-64.549 1.7352 16.658v46.85m-0.34704-47.197 21.169-3.4704" style="fill:none;stroke-opacity:.72115;stroke-width:2.5867;stroke:#25f69e"/><path transform="matrix(.45454 0 0 .45454 533.25 159.72)" d="m-327.6 35.537 3.4704 19.087 19.087-12.493m7.6349 11.105-26.375 1.0411-5.2056 15.617" style="fill:none;stroke-opacity:.72115;stroke-width:2.5867;stroke:#25f69e"/><path transform="matrix(.45454 0 0 .45454 533.25 159.72)" d="m-197.47 7.0802 22.558 12.146 7.2878 13.535 8.676 14.576m-9.7171-15.617-76.349 75.655m68.367-87.801-89.883 82.595m99.6-102.38 0.69408 13.882-9.7171 5.5526m10.064-5.5526 13.535 7.6349" style="fill:none;stroke-opacity:.72115;stroke-width:2.5867;stroke:#25f69e"/><path transform="matrix(.45454 0 0 .45454 533.25 159.72)" d="m-185.32 129.58-16.311 19.781 21.516 27.763m-21.169-27.069-29.845 12.146m73.919-5.2056-21.863-7.6349-21.516-0.34703m18.393 0.69408 27.416-11.105" style="fill:none;stroke-opacity:.72115;stroke-width:2.5867;stroke:#25f69e"/><path transform="matrix(.45454 0 0 .45454 533.25 159.72)" d="m-191.22 205.59-15.27 11.452-10.411 1.7352m37.827 0-27.069-1.3882" style="fill:none;stroke-opacity:.72115;stroke-width:2.5867;stroke:#25f69e"/><path transform="matrix(.45454 0 0 .45454 533.25 159.72)" d="m-91.965 251.4-15.27 17.699 15.617 20.128m-39.91-53.791-12.84 17.352 13.187 36.786m23.599-21.516-36.786-15.964-55.873 0.69408" style="fill:none;stroke-opacity:.72115;stroke-width:2.5867;stroke:#25f69e"/><path transform="matrix(.45454 0 0 .45454 533.25 159.72)" d="m-147.84 412.07-26.375-21.863 24.64-21.169m-23.599 20.475-21.169 20.128m20.822-20.128 9.023-40.257m-9.7171 39.91-78.431-56.22" style="fill:none;stroke-opacity:.72115;stroke-width:2.5867;stroke:#25f69e"/><path transform="matrix(.45454 0 0 .45454 533.25 159.72)" d="m-305.74 402.36 12.493-17.699 26.722 5.5526m-6.5938 24.64-20.128-29.845-13.882-17.352" style="fill:none;stroke-opacity:.72115;stroke-width:2.5867;stroke:#25f69e"/><path transform="matrix(.45454 0 0 .45454 533.25 159.72)" d="m-550.4 440.53-17.352-5.2056-19.087-14.923m-2.7763 36.092 22.21-21.169 43.033-56.22" style="fill:none;stroke-opacity:.72115;stroke-width:2.5867;stroke:#25f69e"/><path transform="matrix(.45454 0 0 .45454 533.25 159.72)" d="m-673.6 234.74 23.599 9.3701-14.229 18.046m-21.169-14.923 34.357-3.1234 34.01 7.2878 63.161-12.493m-87.107-18.046 22.905 28.804m0.34704 0.69408-7.6349 20.128" style="fill:none;stroke-opacity:.72115;stroke-width:2.5867;stroke:#25f69e"/><path transform="matrix(.45454 0 0 .45454 533.25 159.72)" d="m-605.58 144.16 65.243 20.128m-68.367-40.257 18.393 10.064 60.038 13.882m-61.079-14.576 2.7763-11.452m-3.1234 11.452-11.799 10.411" style="fill:none;stroke-opacity:.72115;stroke-width:2.5867;stroke:#25f69e"/><path transform="matrix(.45454 0 0 .45454 533.25 159.72)" d="m-558.73 305.53 12.493 11.799 0.69408 15.27m-2.0822-15.964-20.128 9.7171m20.822-11.799 10.411-9.7171" style="fill:none;stroke-opacity:.72115;stroke-width:2.5867;stroke:#25f69e"/><path transform="matrix(.45454 0 0 .45454 533.25 159.72)" d="m-383.83 416.59-9.7171-27.069 1.3882-4.8586m18.046 26.375-18.74-22.211" style="fill:none;stroke-opacity:.72115;stroke-width:2.5867;stroke:#25f69e"/><path transform="matrix(.45454 0 0 .45454 533.25 159.72)" d="m-414.02 474.19v-37.827l18.74 2.4293m-38.868 9.023c2.0822-1.3882 18.74-12.146 18.74-12.146m1.0411 2.4293 4.8586-34.01" style="fill:none;stroke-opacity:.72115;stroke-width:2.5867;stroke:#25f69e"/><path transform="matrix(.45454 0 0 .45454 533.25 159.72)" d="m-478.22 383.27 11.799-16.658m22.21 20.128-8.3289-14.576" style="fill:none;stroke-opacity:.72115;stroke-width:2.5867;stroke:#25f69e"/><path transform="matrix(.45454 0 0 .45454 533.25 159.72)" d="m-439.27 47.193 15.207-3.7182m-10.681-16.82-4.8991 20.029-18.785-7.9051" style="fill:none;stroke-opacity:.72115;stroke-width:2.5867;stroke:#25f69e"/></g></g></svg>
