<?xml version="1.0" encoding="UTF-8"?>
<svg width="29.986mm" height="26.489mm" version="1.1" viewBox="0 0 29.986 26.489" xmlns="http://www.w3.org/2000/svg" xmlns:xlink="http://www.w3.org/1999/xlink"><defs><linearGradient id="a"><stop stop-color="#999" stop-opacity="0" offset="0"/><stop stop-color="#e6e6e6" offset=".50655"/><stop stop-color="#999" stop-opacity="0" offset="1"/></linearGradient><linearGradient id="b" x2="0" y1="1052.3" y2="924.34" gradientUnits="userSpaceOnUse"><stop stop-color="#986601" offset="0"/><stop stop-color="#fdca01" offset=".3308"/><stop stop-color="#ff9" offset="1"/></linearGradient><linearGradient id="f" x2="0" y1="8.8525" y2="91.242" gradientUnits="userSpaceOnUse"><stop stop-color="#eee" offset="0"/><stop stop-color="#eee" stop-opacity="0" offset="1"/></linearGradient><linearGradient id="e" x1="9.4289" x2="119.84" gradientUnits="userSpaceOnUse" xlink:href="#a"/><linearGradient id="d" x1="2.3979" x2="260.11" y1="121.4" y2="127.34" gradientTransform="matrix(-.22907 .39622 -.39675 -.22876 160.44 982.35)" gradientUnits="userSpaceOnUse" xlink:href="#a"/><linearGradient id="c" x1="19.107" x2="260.11" gradientTransform="matrix(.22907 .39622 .39675 -.22876 -31.745 985.75)" gradientUnits="userSpaceOnUse" xlink:href="#a"/></defs><g transform="translate(-109.74 -103.84)"><g transform="matrix(.26458 0 0 .26458 107.32 -143.86)"><g transform="translate(-3,-2)"><path d="m15.562 1034h106.56l-53.281-92.125-53.281 92.125z" style="opacity:.03"/><path d="m15.031 1034.3h107.62l-53.812-93.094-53.812 93.094z" style="opacity:.03"/><path d="m68.781 940.66c-17.867 31.268-36.692 62.853-54.031 93.906 36.091-0.084 72.453 0.167 108.38-0.125-18.123-31.228-36.18-62.714-54.344-93.781z" style="opacity:.03"/><path d="m68.719 940.34c-18.216 31.323-36.516 62.859-54.469 94.281 3.7417 0.6849 8.4006 0.01 12.438 0.25 32.199-0.1047 64.635 0.2091 96.688-0.1562-2.0184-4.5363-5.3261-9.2498-7.781-13.847-15.606-26.808-31.036-53.972-46.75-80.56-0.04179 9e-3 -0.10287-0.0245-0.125 0.0312z" style="opacity:.03"/><path d="m68.625 940.06c-1.8984 2.4981-3.282 5.6153-4.997 8.3334-16.534 28.684-33.22 57.338-49.659 86.042 0.03222 1.4296 2.3846 0.414 3.325 0.7187 35.335-0.021 70.705 0.042 106.02-0.031 1.2252-0.6532-0.7388-2.314-1.0078-3.2436-17.684-30.563-35.378-61.221-53.055-91.725-0.17511-0.11773-0.42125-0.17697-0.625-0.0937z" style="opacity:.03"/><path d="m68.594 939.66c-0.84915 0.26354-1.046 1.3532-1.557 2.0271l-53.38 92.348c-0.38242 0.719 0.17471 1.5807 0.975 1.5313h108.52c0.89258-0.022 1.2668-1.0887 0.72476-1.7909l-54.162-93.615c-0.13844-0.39413-0.69914-0.63415-1.125-0.5z" style="opacity:.03"/><path d="m68.562 939.44c-1.5903 0.85105-1.9059 3.1298-3.0333 4.4897-17.383 30.121-34.865 60.219-52.185 90.354-0.26697 1.59 1.857 1.73 2.9875 1.5 35.677-0.021 71.388 0.042 107.04-0.031 1.4978-0.393 0.95277-2.2528 0.0615-3.1109-17.946-30.972-35.824-62.041-53.812-92.952-0.29837-0.1963-0.69598-0.36722-1.0625-0.25z" style="opacity:.03"/><path d="m68.438 939.19c-2.6655 1.8568-3.3763 5.9331-5.4415 8.4794-16.597 28.909-33.571 57.685-49.933 86.677 0.03767 3.0044 4.4616 1.2959 6.2688 1.7187 34.807-0.1049 69.689 0.2093 104.45-0.1563 2.4848-1.8446-1.4715-4.7803-2.0168-6.799-17.363-29.874-34.53-59.954-52.014-89.701-0.3632-0.23912-0.89982-0.38311-1.3125-0.21875z" style="opacity:.03"/><path d="m68.281 938.91c-4.2417 4.5067-6.419 11.252-10.039 16.428-15.095 26.421-30.799 52.674-45.523 79.197 0.97349 3.9884 7.0912 0.8607 9.9125 1.8438 33.767-0.1709 67.712 0.339 101.37-0.25 3.0278-2.6896-2.7575-6.5679-3.3369-9.4803-17.042-29.142-33.624-58.763-50.944-87.613-0.44673-0.17465-0.97621-0.34944-1.4375-0.125z" style="opacity:.03"/><path d="m68.25 938.62c-4.2483 3.6207-5.7996 10.308-9.2571 14.821-15.417 27.057-31.593 53.899-46.555 81.085 0.9832 4.5373 7.9507 1.0268 11.094 2.125 33.518-0.1928 67.217 0.3823 100.62-0.2812 3.3917-3.0568-2.9838-7.3811-3.6941-10.665-16.916-28.896-33.343-58.324-50.556-86.897-0.47527-0.26042-1.1388-0.4023-1.6562-0.1875z" style="opacity:.03"/><path d="m68.156 938.31c-4.447 3.5972-5.908 10.417-9.4446 14.977-15.461 27.023-31.441 53.848-46.587 80.991 0.50474 5.1808 8.1519 1.69 11.406 2.6876 33.573-0.2149 67.308 0.4253 100.78-0.3126 3.729-3.2084-2.7475-7.7207-3.5694-11.103-16.973-28.933-33.342-58.431-50.681-87.022-0.58501-0.29694-1.2807-0.43981-1.9062-0.21875z" style="opacity:.03"/></g><path d="m64.585 936.67a0.91635 0.91512 0 0 0-0.74446 0.45752l-54.289 93.905a0.91635 0.91512 0 0 0 0.78741 1.3726h108.59a0.91635 0.91512 0 0 0 0.78742-1.3726l-54.289-93.905a0.91635 0.91512 0 0 0-0.84468-0.45752z" style="fill:#999"/><path d="m65.646 999.77-56.094 31.257c-0.31872 0.5515 0.14982 1.3682 0.78741 1.3726h108.59c0.6376 0 1.1061-0.8211 0.78742-1.3726-54.099-31.032-54.133-31.297-54.072-31.257z" style="fill:url(#e)"/><path d="m65.153 937.65c-0.31889-0.5514-1.2614-0.55452-1.584-5e-3l-54.296 93.916c-0.31523 0.5535 0.15893 1.3672 0.79655 1.3673 14.094-12.934 46.15-28.836 55.905-35.232l-0.82149-60.046z" style="fill:url(#d)"/><path d="m63.537 941.04c0.31889-0.5514 1.2614-0.55453 1.584-5e-3l54.296 93.916c0.31523 0.5535-0.15893 1.3672-0.79655 1.3673 0.2424-0.1153-53.188-32.813-53.212-32.816l-1.8716-62.462z" style="fill:url(#c)"/><path d="m16.653 1027.8h95.964l-47.975-82.967z" style="fill:url(#b)"/><path d="m57.484 974.02 2.8633 32.598h7.3301l3.8941-32.598h-14.088z" style="stroke:#333"/><path d="m69.624 1016.3c0 3.1269-2.5383 5.6617-5.6694 5.6617s-5.6694-2.5348-5.6694-5.6617 2.5383-5.6617 5.6694-5.6617 5.6694 2.5348 5.6694 5.6617z" style="stroke:#333"/><path d="m64.5 936.67a0.91635 0.91512 0 0 0-0.65625 0.4375l-54.281 93.906a0.91635 0.91512 0 0 0 0.78125 1.375h0.75l52.75-91.281a0.91635 0.91512 0 0 1 0.75-0.4375 0.91635 0.91512 0 0 1 0.84375 0.4375l52.75 91.281h0.75a0.91635 0.91512 0 0 0 0.78125-1.375l-54.281-93.906a0.91635 0.91512 0 0 0-0.84375-0.4375 0.91635 0.91512 0 0 0-0.09375 0z" style="fill:#eee;opacity:.5"/><path d="m9.9688 1030.3-0.40625 0.6875a0.91635 0.91512 0 0 0 0.78125 1.375h108.59a0.91635 0.91512 0 0 0 0.78125-1.375l-0.40625-0.6875a0.91635 0.91512 0 0 1-0.375 0.062h-108.59a0.91635 0.91512 0 0 1-0.375-0.062z" style="fill:#eee;opacity:.4"/><path transform="translate(0,924.36)" d="m64.656 20.5-30.438 52.594c10.344-5.4402 23.958-8.7188 38.875-8.7188 6.2317 0 12.241 0.58818 17.875 1.6562l-26.312-45.531z" style="fill:url(#f)"/></g></g></svg>
