<?xml version="1.0" encoding="UTF-8"?>
<svg width="3600px" height="2400px" clip-rule="evenodd" fill-rule="evenodd" image-rendering="optimizeQuality" shape-rendering="geometricPrecision" text-rendering="geometricPrecision" version="1.1" viewBox="0 0 3600 2545.45" xmlns="http://www.w3.org/2000/svg">
 <defs>
  <style type="text/css">.fil2 {fill:#DA251D} .fil1 {fill:white} .fil3 {fill:#1F1A17;fill-rule:nonzero} .fil4 {fill:#71625B;fill-rule:nonzero} .fil0 {fill:#957F66;fill-rule:nonzero} .fil5 {fill:#C0A062;fill-rule:nonzero}</style>
 </defs>
 <polygon class="fil0" points="877.57 244.71 917.48 270.72 912.84 277.86 872.92 251.86"/>
 <polygon class="fil0" points="522.3 1324.8 573.04 1296.2 577.21 1303.6 526.47 1332.3"/>
 <path class="fil1" d="m580.66 1297.7c204.3-344.3 310.77-686.21 334.5-1023.4 271.7-24.322 680.19-162.4 995.49-172.76 162.13-5.3261 483.41-42.108 526.02-7.96 9.7346 7.8012 10.583 16.761 5.2485 26.302l7.3636 29.95c-0.56848 27.573-4.6861 54.97-11.379 81.703-8.8582 35.377-22.171 69.678-38.067 102.46l-3.0133 6.2182-5.7273 5.6861c62.304-1.3224 119.06-4.8921 148.05-7.6218 107.64-10.133 263.54-48.466 424.68-72.007 329.97-48.204 657.88-55.11 470.76 163.33-258.4 240.48-382.3 535.61-414.15 868.13-452.42-70.876-1082.3 128.32-1277-2.6546-19.932-25.621 95.573-104.42 143.36-156.64-507.6 0.078788-957.93 42.206-1306.2 159.29z" fill="#fff"/>
 <path class="fil3" d="m566.1 1289.1c100.01-168.53 176.4-336.43 230.98-503.41 56.178-171.89 89.267-342.84 101.21-512.55 0.58667-8.7976 7.8109-15.565 16.457-15.768 117.54-10.635 261.74-42.866 412.81-76.629 196.1-43.827 403.69-90.223 582.56-96.099 44.873-1.4715 103.98-5.537 165.9-9.7952 158.64-10.903 335.54-23.067 371.23 5.5406 14.087 11.287 18.143 23.57 14.579 36.399-4.303 15.498-5.3127 23.743-6.0412 40.685-1.0994 25.474-5.1139 50.789-11.342 75.666-8.2012 32.749-20.281 64.786-34.61 95.408 54.082-1.5648 101.96-4.6691 127.72-7.0933l0.38909-0.031515c57.634-5.4546 130.46-19.331 210.63-34.605 67.322-12.83 139.78-26.639 212.8-37.306 166.57-24.333 332.98-38.172 434.98-18.195 116.66 22.846 158.48 83.844 51.064 209.24-0.41939 0.4897-0.86424 0.95515-1.3273 1.3854l0.0048485 0.0048485c-127.53 118.68-221.85 250.82-288.2 394.26-66.447 143.66-104.92 298.74-120.66 463.08-0.87636 9.2764-9.1091 16.087-18.386 15.211-0.43515-0.04-0.8703-0.10303-1.2958-0.17576-209.9-32.819-459.91-6.7867-685.86 16.747-260.27 27.108-489.18 50.947-597.62-22.002-1.5394-1.0315-2.8509-2.2776-3.9309-3.6654l-0.037576 0.029091c-23.102-29.698 29.869-75.682 82.839-121.66 11.048-9.5915 22.106-19.188 32.28-28.39-237.56 1.1406-462.23 11.854-669.32 35.599-218.51 25.056-417.02 64.61-589.89 122.73-8.8388 2.9576-18.406-1.8097-21.362-10.648-1.6146-4.8267-0.91879-9.8764 1.4788-13.942l-0.02303-0.013333zm1871.9-1139.5c-41.725 35.612-132.91 72.098-179.21 90.623-8.3927 3.3564-15.159 6.0654-20.847 8.5127-52.239 22.469-80.534 39.675-90.987 52.679-2.0182 2.5103-1.3661 4.4994 1.1721 6.0594 10.691 6.5758 30.867 11.427 56.64 14.933 50.907 6.9261 120.77 8.0048 184.91 6.6679 15.516-32.006 28.618-65.718 37.274-100.28 6.5261-26.063 10.496-52.584 11.044-79.193zm1030 187.73c-8.4739 6.7612-17.331 12.452-26.514 17.302-18.776 9.9152-38.709 16.198-59.325 20.734-36.712 8.0824-75.734 9.5746-114 11.038-26.608 1.0158-52.85 2.0267-77.547 5.3139-73.682 84.968-133.72 168.63-178.46 250.82-45.056 82.778-74.663 164.12-87.12 243.85-11.018 70.525-17.913 152.97-5.7515 227.33 10.653 65.149 36.007 124.1 86.313 163.02 17.223-160.98 56.162-313.18 121.6-454.67 68.039-147.1 164.65-282.56 295.16-404.18 27.704-32.485 42.132-59.045 45.638-80.561zm-492.17 937.36c-42.107-41.19-64.366-97.171-74.326-158.08-12.52-76.565-5.503-160.93 5.7527-232.97 12.788-81.846 43.064-165.13 89.097-249.7 45.908-84.343 107.43-169.93 182.86-256.61l0.009697 0.009697c1.3697-1.5758 3.2982-2.6909 5.5285-3.0073 26.307-3.7491 54.338-4.8218 82.782-5.9079 37.279-1.4242 75.299-2.88 110.76-10.685 19.268-4.2412 37.746-10.03 54.81-19.042 12.017-6.3454 23.434-14.342 34.07-24.608-6.9733-25.618-35.092-41.267-77.303-49.534-97.669-19.13-260.2-5.4133-423.6 18.458-73.24 10.698-144.9 24.356-211.48 37.042-80.559 15.352-153.76 29.303-213.54 34.973l-0.52121 0.05697c-59.926 5.6436-237.41 14.813-340.46 0.79273-15.907-2.1636-30.262-4.9176-42.463-8.3733-22.806-6.4521-21.762-16.322-33.851 6.9709-2.3467 4.5236-4.6267 9.0703-6.8364 13.642-21.92 45.301-37.193 92.679-48.041 141.28-14.595 65.372-21.235 133.14-25.303 201.13-5.0048 83.673-14.407 165-36.544 238.88-17.193 57.388-42.052 110.27-78.433 156.27-2.7491 3.4788-5.5685 6.9212-8.4509 10.316-13.6 16.027-17.506 30.767-32.096 45.24-2.2824 2.263-4.6412 4.5539-7.0703 6.8654-13.922 13.261-30.034 27.248-46.141 41.229-38.328 33.268-76.656 66.539-78.356 74.193 100.18 63.066 320.96 40.084 571.58 13.983 211.52-22.029 443.92-46.226 647.58-22.808zm-1068.3-171.42c4.5418-5.3952 8.9103-10.903 13.109-16.512 31.634-42.259 53.724-90.412 69.332-142.5 21.679-72.36 30.91-152.36 35.84-234.79 4.1115-68.721 10.85-137.35 25.722-203.96 10.086-45.179 23.904-89.354 43.15-131.89 3.84-8.4933 7.8982-16.92 12.183-25.27 13.913-27.128-6.7539-42.552 13.789-68.104 13.805-17.176 46.355-37.824 103.95-62.599 3.8582-1.6594 11.779-4.8303 21.642-8.7746 49.32-19.734 152.34-60.958 178.42-93.503 2.9406-3.6715 3.8218-6.7236 1.44-8.6303-25.332-20.299-195.35-8.6109-347.82 1.8691-61.361 4.2194-119.94 8.2485-167.09 9.7952-175.75 5.7746-381.74 51.813-576.35 95.304-146.51 32.746-286.62 64.062-403.86 76.008-12.959 167.8-46.266 336.72-101.74 506.45-51.211 156.68-121.3 314.05-211.7 471.87 165.13-51.543 351.43-87.338 554.53-110.63 207.12-23.747 432.12-34.508 670.26-35.718 6.6254-0.031515 13.263-0.06303 19.904-0.078788 15.981-0.038788 21.587-1.9648 27.417-4.777 4.5382-2.1903 9.4776-3.6097 17.859-13.566z"/>
 <path class="fil4" d="m840.26 135.2c5.8448-18.006 25.141-27.998 43.096-22.315 17.955 5.6824 27.773 24.888 21.93 42.894l-748 2303c-5.8448 18.006-25.141 27.998-43.096 22.315-17.955-5.6824-27.773-24.888-21.93-42.894l748-2303z"/>
 <path class="fil5" d="m811.32 239.29c-6.6679 0.52242-12.498-4.4594-13.021-11.127-0.52242-6.6679 4.4594-12.498 11.127-13.021 14.55-1.1479 27.959 0.4497 40.316 4.5539 12.392 4.1152 23.519 10.709 33.499 19.546 4.9939 4.4194 5.4606 12.052 1.0412 17.046-4.4194 4.9939-12.052 5.4606-17.046 1.0412-7.5733-6.7054-15.907-11.674-25.07-14.716-9.1964-3.0546-19.448-4.2218-30.847-3.3224z"/>
 <path class="fil5" d="m460.18 1319.6c-6.6679 0.36606-12.371-4.743-12.737-11.411-0.36606-6.6679 4.743-12.371 11.411-12.737 13.844-0.77818 26.888 0.81939 39.127 4.7927 12.232 3.9721 23.607 10.331 34.12 19.069 5.1248 4.2618 5.8242 11.873 1.5624 16.998-4.2618 5.1248-11.873 5.8242-16.998 1.5624-8.0546-6.6958-16.779-11.57-26.166-14.618-9.3818-3.0461-19.491-4.2642-30.32-3.6558z"/>
</svg>
