<?xml version="1.0" encoding="UTF-8"?>
<svg width="100mm" height="113.62mm" version="1.1" viewBox="0 0 100 113.62" xmlns="http://www.w3.org/2000/svg" xmlns:xlink="http://www.w3.org/1999/xlink"><defs><linearGradient id="b"><stop stop-color="#fff" offset="0"/><stop stop-color="#fff" stop-opacity="0" offset="1"/></linearGradient><filter id="f-0" style="color-interpolation-filters:sRGB"><feGaussianBlur stdDeviation=".39749"/></filter><filter id="g-5" style="color-interpolation-filters:sRGB"/><filter id="h-1" x="-.16603" y="-.46207" width="1.3321" height="1.9241" style="color-interpolation-filters:sRGB"><feGaussianBlur stdDeviation="5.25117"/></filter><filter id="a-8" x="-.53832" y="-.17639" width="2.0766" height="1.3528" style="color-interpolation-filters:sRGB"><feGaussianBlur stdDeviation="3.83559"/></filter><filter id="i-47" x="-.11844" y="-.2839" width="1.2369" height="1.5678" style="color-interpolation-filters:sRGB"><feGaussianBlur stdDeviation="2.48285"/></filter><linearGradient id="c-1"><stop stop-color="#fea" offset="0"/><stop stop-color="#fc0" offset="1"/></linearGradient><linearGradient id="j-6"><stop stop-color="#ffd5f6" offset="0"/><stop stop-color="#c837ab" offset="1"/></linearGradient><linearGradient id="k-9"><stop stop-color="#d5e5ff" offset="0"/><stop stop-color="#2a7fff" offset="1"/></linearGradient><linearGradient id="b-0"><stop stop-color="#df5" offset="0"/><stop stop-color="#8a0" offset="1"/></linearGradient><linearGradient id="e-9" x1="-384.9" x2="-382.48" y1="3.194" y2="21.804" gradientUnits="userSpaceOnUse" xlink:href="#b"/><linearGradient id="d-1" x1="-379.6" x2="-381.74" y1="4.7725" y2="22.295" gradientUnits="userSpaceOnUse" xlink:href="#b"/><radialGradient id="t-6" cx="-362.77" cy="74.681" r="12.781" gradientTransform="matrix(3.08 -.011308 .012684 3.4548 1275.1 485.79)" gradientUnits="userSpaceOnUse"><stop stop-color="#d5e5ff" offset="0"/><stop stop-color="#06f" offset="1"/></radialGradient><radialGradient id="r-8" cx="-394.26" cy="72.28" r="38.449" gradientTransform="matrix(2.0439,-6.2795e-8,6.2779e-8,2.7605,911.24,554.43)" gradientUnits="userSpaceOnUse"><stop stop-color="#d7e3f4" offset="0"/><stop stop-color="#06f" offset="1"/></radialGradient><radialGradient id="p-8" cx="-362.77" cy="74.681" r="12.781" gradientTransform="matrix(3.08 -.011308 .012684 3.4548 1498.2 482.9)" gradientUnits="userSpaceOnUse"><stop stop-color="#df5" offset="0"/><stop stop-color="#c837ab" offset="1"/></radialGradient><radialGradient id="ab-7" cx="-362.77" cy="74.681" r="12.781" gradientTransform="matrix(1.8194 -.0066798 .0074927 2.0408 296.69 -82.131)" gradientUnits="userSpaceOnUse" xlink:href="#b-0"/><radialGradient id="aa-8" cx="-437.75" cy="78.509" r="9.5156" gradientTransform="matrix(1.299 .35889 -.72844 2.6366 187.23 26.506)" gradientUnits="userSpaceOnUse" xlink:href="#b-0"/><radialGradient id="z-2" cx="-394.26" cy="72.28" r="38.449" gradientTransform="matrix(1.2074,-3.7093e-8,3.7084e-8,1.6307,81.755,-41.584)" gradientUnits="userSpaceOnUse" xlink:href="#b-0"/><radialGradient id="y-83" cx="-381.15" cy="22.365" r="31.439" gradientUnits="userSpaceOnUse" xlink:href="#b-0"/><radialGradient id="x-6" cx="-362.77" cy="74.681" r="12.781" gradientTransform="matrix(3.08 -.011308 .012684 3.4548 1680.5 483.62)" gradientUnits="userSpaceOnUse" xlink:href="#c-1"/><radialGradient id="w-22" cx="-437.75" cy="78.509" r="9.5156" gradientTransform="matrix(2.199 .60756 -1.2332 4.4634 1495.2 667.53)" gradientUnits="userSpaceOnUse" xlink:href="#c-1"/><radialGradient id="v-5" cx="-394.26" cy="72.28" r="38.449" gradientTransform="matrix(2.0439,-6.2795e-8,6.2779e-8,2.7605,1316.7,552.26)" gradientUnits="userSpaceOnUse" xlink:href="#c-1"/><radialGradient id="u-6" cx="-381.15" cy="22.365" r="31.439" gradientUnits="userSpaceOnUse" xlink:href="#c-1"/><radialGradient id="s-1" cx="-437.75" cy="78.509" r="9.5156" gradientTransform="matrix(2.199 .60756 -1.2332 4.4634 1089.8 669.7)" gradientUnits="userSpaceOnUse" xlink:href="#k-9"/><radialGradient id="q-5" cx="-381.15" cy="22.365" r="31.439" gradientUnits="userSpaceOnUse" xlink:href="#k-9"/><radialGradient id="o-9" cx="-437.75" cy="78.509" r="9.5156" gradientTransform="matrix(2.199 .60756 -1.2332 4.4634 1312.9 666.81)" gradientUnits="userSpaceOnUse" xlink:href="#j-6"/><radialGradient id="n-5" cx="-394.26" cy="72.28" r="38.449" gradientTransform="matrix(2.0439,-6.2795e-8,6.2779e-8,2.7605,1134.4,551.54)" gradientUnits="userSpaceOnUse" xlink:href="#j-6"/><radialGradient id="m-04" cx="-381.15" cy="22.365" r="31.439" gradientUnits="userSpaceOnUse" xlink:href="#j-6"/></defs><g transform="translate(-17.021 -81.864)"><g transform="translate(-.9429 -25.38)"><g transform="matrix(.16319 0 0 .13946 17.966 105.93)"><g transform="matrix(3.6783,0,0,3.6783,1719.4,48.284)"><path d="m-359.84 50.5c7.2084 5.3413 11.875 13.925 11.875 23.625v20.688c0 2.2812-0.26206 4.4956-0.75 6.625 4.4552 2.0232 9.0112 1.4037 12.844-0.78125 1.032-3.4675 1.5938-7.1578 1.5938-10.969v-3.188c0-16.706-10.662-30.826-25.562-36z" style="fill:url(#ab-7)"/><path d="m-416.72 53.781c-11.4 6.575-19.03 18.876-19.03 33.031v3.188c0 5.3389 1.0684 10.426 3.0312 15.031 3.0478 0.99527 6.3757 1.1309 9.6875 0.0625-1.187-3.1958-1.8438-6.6632-1.8438-10.281v-20.688c0-7.9121 3.1025-15.074 8.1562-20.344z" style="fill:url(#aa-8)"/><path d="m-396.69 44.75c-15.622 0-28.188 12.596-28.188 28.219v35.911c0 0.30131 0.022 0.60727 0.0312 0.90625 24.128 17.628 54.944 17.315 76.781 1.125 0.0467-0.66682 0.0937-1.3521 0.0937-2.0312v-35.911c0-15.622-12.596-28.219-28.219-28.219h-20.5z" style="fill:url(#z-2)"/><path transform="matrix(.65038 0 0 .9349 -120.95 2.9225)" d="m-360.23 54.072c7.2084 5.3413 11.875 13.925 11.875 23.625v20.688c1e-5 2.2812-0.26206 4.4956-0.75 6.625 1.885 0.85603 3.7976 1.2586 5.6562 1.25 1.2736-13.863-1.2373-32.647-8.0312-47.812-2.6867-1.8064-5.6337-3.293-8.75-4.375z" style="fill:#333;filter:url(#a-8);opacity:.67391"/><path transform="matrix(-.89517 0 0 .9349 -734.43 5.2277)" d="m-360.23 54.072c7.2084 5.3413 11.875 13.925 11.875 23.625v20.688c1e-5 2.2812-0.26206 4.4956-0.75 6.625 1.885 0.85603 3.7976 1.2586 5.6562 1.25 1.2736-13.863-1.2373-32.647-8.0312-47.812-2.6867-1.8064-5.6337-3.293-8.75-4.375z" style="fill:#333;filter:url(#a-8);opacity:.63043"/><path d="m-423.16 94.507v13.125c1e-5 0.3013 0.022 0.60727 0.0312 0.90625 23.795 17.385 54.098 17.315 75.875 1.7812-22.03 8.1819-51.312 9.0992-75.906-15.812z" style="fill:#4d4d4d;filter:url(#h-1);opacity:.60145"/><path transform="matrix(.60706 -.75321 .80836 .65152 -192.39 -232.79)" d="m-364.36 17.156a14.62 9.9866 0 1 1-29.24 0 14.62 9.9866 0 1 1 29.24 0z" style="fill:url(#e-9);filter:url(#f-0)"/><path transform="matrix(.98197 0 0 1 -7.4157 0)" d="m-361 39.212c-4.5673 9.767-14.471 16.538-25.959 16.538-10.28 0-19.298-5.4227-24.354-13.562 3.3864 10.449 13.196 18.013 24.768 18.013 12.647 0 23.194-9.0278 25.545-20.99z" style="fill:#333;filter:url(#i-47);opacity:.9058"/><path transform="translate(-2.4327,-7.1716)" d="m-354.54 31.884a31.439 31.439 0 1 1-62.878 0 31.439 31.439 0 1 1 62.878 0z" style="fill:url(#y-83)"/><path transform="matrix(.98373 -.49258 .52865 1.0558 -30.833 -194.06)" d="m-364.36 17.156a14.62 9.9866 0 1 1-29.24 0 14.62 9.9866 0 1 1 29.24 0z" style="fill:url(#d-1);filter:url(#g-5)"/></g><g transform="translate(-35.146,-28.194)"><path d="m163.67 710.32c12.203 9.0422 20.103 23.573 20.103 39.994v35.022c0 3.8618-0.44364 7.6105-1.2697 11.215 7.5422 3.4251 15.255 2.3763 21.743-1.3226 1.7471-5.8701 2.698-12.117 2.698-18.569v-5.3961c0-28.282-18.049-52.185-43.274-60.944z" style="fill:url(#t-6)"/><path d="m67.383 715.88c-19.294 11.131-32.218 31.955-32.218 55.918v5.3961c0 9.0382 1.8087 17.65 5.1316 25.446 5.1595 1.6849 10.793 1.9144 16.4 0.10581-2.0095-5.4102-3.1213-11.28-3.1213-17.405v-35.022c0-13.394 5.2521-25.518 13.808-34.44z" style="fill:url(#s-1)"/><path d="m101.29 700.59c-26.447 0-47.718 21.324-47.718 47.771v60.785c0 0.51008 0.03718 1.028 0.0529 1.5342 40.846 29.843 93.014 29.313 129.98 1.9045 0.0791-1.1288 0.15871-2.289 0.15871-3.4387v-60.785c0-26.447-21.324-47.771-47.771-47.771h-34.7z" style="fill:url(#r-8)"/><path transform="matrix(1.101,0,0,1.5827,568.08,629.78)" d="m-360.23 54.072c7.2084 5.3413 11.875 13.925 11.875 23.625v20.688c1e-5 2.2812-0.26206 4.4956-0.75 6.625 1.885 0.85603 3.7976 1.2586 5.6562 1.25 1.2736-13.863-1.2373-32.647-8.0312-47.812-2.6867-1.8064-5.6337-3.293-8.75-4.375z" style="fill:#333;filter:url(#a-8);opacity:.67391"/><path transform="matrix(-1.5154,0,0,1.5827,-470.47,633.68)" d="m-360.23 54.072c7.2084 5.3413 11.875 13.925 11.875 23.625v20.688c1e-5 2.2812-0.26206 4.4956-0.75 6.625 1.885 0.85603 3.7976 1.2586 5.6562 1.25 1.2736-13.863-1.2373-32.647-8.0312-47.812-2.6867-1.8064-5.6337-3.293-8.75-4.375z" style="fill:#333;filter:url(#a-8);opacity:.63043"/><path transform="matrix(1.6929,0,0,1.6929,772.84,624.83)" d="m-423.16 94.507v13.125c1e-5 0.3013 0.022 0.60727 0.0312 0.90625 23.795 17.385 54.098 17.315 75.875 1.7812-22.03 8.1819-51.312 9.0992-75.906-15.812z" style="fill:#4d4d4d;filter:url(#h-1);opacity:.60145"/><path transform="matrix(1.0277,-1.2751,1.3685,1.103,447.14,230.75)" d="m-364.36 17.156a14.62 9.9866 0 1 1-29.24 0 14.62 9.9866 0 1 1 29.24 0z" style="fill:url(#e-9);filter:url(#f-0)"/><path transform="matrix(1.6624,0,0,1.6929,760.29,624.83)" d="m-361 39.212c-4.5673 9.767-14.471 16.538-25.959 16.538-10.28 0-19.298-5.4227-24.354-13.562 3.3864 10.449 13.196 18.013 24.768 18.013 12.647 0 23.194-9.0278 25.545-20.99z" style="fill:#333;filter:url(#i-47);opacity:.9058"/><path transform="matrix(1.6929,0,0,1.6929,768.72,612.69)" d="m-354.54 31.884a31.439 31.439 0 1 1-62.878 0 31.439 31.439 0 1 1 62.878 0z" style="fill:url(#q-5)"/><path transform="matrix(1.6653 -.83388 .89494 1.7873 720.64 296.31)" d="m-364.36 17.156a14.62 9.9866 0 1 1-29.24 0 14.62 9.9866 0 1 1 29.24 0z" style="fill:url(#d-1);filter:url(#g-5)"/></g><g transform="translate(-39.939,-25.3)"><path d="m386.79 707.43c12.203 9.0422 20.103 23.573 20.103 39.994v35.022c0 3.8618-0.44364 7.6105-1.2697 11.215 7.5422 3.4251 15.255 2.3763 21.743-1.3226 1.7471-5.8701 2.698-12.117 2.698-18.569v-5.3961c0-28.282-18.049-52.185-43.274-60.944z" style="fill:url(#p-8)"/><path d="m290.51 712.98c-19.294 11.131-32.218 31.955-32.218 55.918v5.3961c0 9.0382 1.8087 17.65 5.1316 25.446 5.1595 1.6849 10.793 1.9144 16.4 0.10581-2.0095-5.4102-3.1213-11.28-3.1213-17.405v-35.022c0-13.394 5.2521-25.518 13.808-34.44z" style="fill:url(#o-9)"/><path d="m324.42 697.69c-26.447 0-47.718 21.324-47.718 47.771v60.785c0 0.51008 0.0372 1.028 0.0529 1.5342 40.846 29.843 93.014 29.313 129.98 1.9045 0.0791-1.1288 0.15871-2.289 0.15871-3.4387v-60.785c0-26.447-21.324-47.771-47.771-47.771h-34.704z" style="fill:url(#n-5)"/><path transform="matrix(1.101,0,0,1.5827,791.21,626.88)" d="m-360.23 54.072c7.2084 5.3413 11.875 13.925 11.875 23.625v20.688c1e-5 2.2812-0.26206 4.4956-0.75 6.625 1.885 0.85603 3.7976 1.2586 5.6562 1.25 1.2736-13.863-1.2373-32.647-8.0312-47.812-2.6867-1.8064-5.6337-3.293-8.75-4.375z" style="fill:#333;filter:url(#a-8);opacity:.67391"/><path transform="matrix(-1.5154,0,0,1.5827,-247.35,630.79)" d="m-360.23 54.072c7.2084 5.3413 11.875 13.925 11.875 23.625v20.688c1e-5 2.2812-0.26206 4.4956-0.75 6.625 1.885 0.85603 3.7976 1.2586 5.6562 1.25 1.2736-13.863-1.2373-32.647-8.0312-47.812-2.6867-1.8064-5.6337-3.293-8.75-4.375z" style="fill:#333;filter:url(#a-8);opacity:.63043"/><path transform="matrix(1.6929,0,0,1.6929,995.97,621.94)" d="m-423.16 94.507v13.125c1e-5 0.3013 0.022 0.60727 0.0312 0.90625 23.795 17.385 54.098 17.315 75.875 1.7812-22.03 8.1819-51.312 9.0992-75.906-15.812z" style="fill:#4d4d4d;filter:url(#h-1);opacity:.60145"/><path transform="matrix(1.0277,-1.2751,1.3685,1.103,670.27,227.86)" d="m-364.36 17.156a14.62 9.9866 0 1 1-29.24 0 14.62 9.9866 0 1 1 29.24 0z" style="fill:url(#e-9);filter:url(#f-0)"/><path transform="matrix(1.6624,0,0,1.6929,983.41,621.94)" d="m-361 39.212c-4.5673 9.767-14.471 16.538-25.959 16.538-10.28 0-19.298-5.4227-24.354-13.562 3.3864 10.449 13.196 18.013 24.768 18.013 12.647 0 23.194-9.0278 25.545-20.99z" style="fill:#333;filter:url(#i-47);opacity:.9058"/><path transform="matrix(1.6929,0,0,1.6929,991.85,609.79)" d="m-354.54 31.884a31.439 31.439 0 1 1-62.878 0 31.439 31.439 0 1 1 62.878 0z" style="fill:url(#m-04)"/><path transform="matrix(1.6653 -.83388 .89494 1.7873 943.77 293.42)" d="m-364.36 17.156a14.62 9.9866 0 1 1-29.24 0 14.62 9.9866 0 1 1 29.24 0z" style="fill:url(#d-1);filter:url(#g-5)"/></g><g transform="translate(.40228 -28.815)"><path d="m569.09 708.15c12.203 9.0422 20.103 23.573 20.103 39.994v35.022c0 3.8618-0.44364 7.6105-1.2697 11.215 7.5422 3.4251 15.255 2.3763 21.743-1.3226 1.7471-5.8701 2.698-12.117 2.698-18.569v-5.3961c0-28.282-18.049-52.185-43.274-60.944z" style="fill:url(#x-6)"/><path d="m472.8 713.7c-19.294 11.131-32.218 31.955-32.218 55.918v5.3961c0 9.0382 1.8087 17.65 5.1316 25.446 5.1595 1.6849 10.793 1.9144 16.4 0.10581-2.0095-5.4102-3.1213-11.28-3.1213-17.405v-35.022c0-13.394 5.2521-25.518 13.808-34.44z" style="fill:url(#w-22)"/><path d="m506.71 698.42c-26.447 0-47.718 21.324-47.718 47.771v60.785c0 0.51008 0.0372 1.028 0.0529 1.5342 40.846 29.843 93.014 29.313 129.98 1.9045 0.0791-1.1288 0.15871-2.289 0.15871-3.4387v-60.785c0-26.447-21.324-47.771-47.771-47.771h-34.704z" style="fill:url(#v-5)"/><path transform="matrix(1.101,0,0,1.5827,973.5,627.61)" d="m-360.23 54.072c7.2084 5.3413 11.875 13.925 11.875 23.625v20.688c1e-5 2.2812-0.26206 4.4956-0.75 6.625 1.885 0.85603 3.7976 1.2586 5.6562 1.25 1.2736-13.863-1.2373-32.647-8.0312-47.812-2.6867-1.8064-5.6337-3.293-8.75-4.375z" style="fill:#a05a2c;filter:url(#a-8);opacity:.67391"/><path transform="matrix(-1.5154,0,0,1.5827,-65.054,631.51)" d="m-360.23 54.072c7.2084 5.3413 11.875 13.925 11.875 23.625v20.688c1e-5 2.2812-0.26206 4.4956-0.75 6.625 1.885 0.85603 3.7976 1.2586 5.6562 1.25 1.2736-13.863-1.2373-32.647-8.0312-47.812-2.6867-1.8064-5.6337-3.293-8.75-4.375z" style="fill:#784421;filter:url(#a-8);opacity:.63043"/><path transform="matrix(1.6929,0,0,1.6929,1178.3,622.66)" d="m-423.16 94.507v13.125c1e-5 0.3013 0.022 0.60727 0.0312 0.90625 23.795 17.385 54.098 17.315 75.875 1.7812-22.03 8.1819-51.312 9.0992-75.906-15.812z" style="fill:#a05a2c;filter:url(#h-1);opacity:.60145"/><path transform="matrix(1.0277,-1.2751,1.3685,1.103,852.56,228.58)" d="m-364.36 17.156a14.62 9.9866 0 1 1-29.24 0 14.62 9.9866 0 1 1 29.24 0z" style="fill:url(#e-9);filter:url(#f-0)"/><path transform="matrix(1.6624,0,0,1.6929,1165.7,622.66)" d="m-361 39.212c-4.5673 9.767-14.471 16.538-25.959 16.538-10.28 0-19.298-5.4227-24.354-13.562 3.3864 10.449 13.196 18.013 24.768 18.013 12.647 0 23.194-9.0278 25.545-20.99z" style="fill:#a05a2c;filter:url(#i-47);opacity:.9058"/><path transform="matrix(1.6929,0,0,1.6929,1174.1,610.52)" d="m-354.54 31.884a31.439 31.439 0 1 1-62.878 0 31.439 31.439 0 1 1 62.878 0z" style="fill:url(#u-6)"/><path transform="matrix(1.6653 -.83388 .89494 1.7873 1126.1 294.14)" d="m-364.36 17.156a14.62 9.9866 0 1 1-29.24 0 14.62 9.9866 0 1 1 29.24 0z" style="fill:url(#d-1);filter:url(#g-5)"/></g></g></g></g></svg>
