<?xml version="1.0" encoding="UTF-8"?>
<svg width="87.368mm" height="90.144mm" version="1.1" viewBox="0 0 87.368 90.144" xmlns="http://www.w3.org/2000/svg"><defs><clipPath id="clipPath22239"><path d="m185.22 370.31h232.61v-198.48h-232.61z"/></clipPath><clipPath id="clipPath22315"><path d="m219.66 402.94h201.59v-99.211h-201.59z"/></clipPath><clipPath id="clipPath22331"><path d="m337.72 361.25h66.986v-57.514h-66.986z"/></clipPath><clipPath id="clipPath22347"><path d="m231.14 392.01h90.153v-49.857h-90.153z"/></clipPath><clipPath id="clipPath22363"><path d="m224.21 420.42h197.04v-64.56h-197.04z"/></clipPath></defs><g transform="translate(-66.508 -91.246)"><g transform="matrix(.35278 0 0 -.35278 152.72 172.59)"><path d="m0 0c-2.209-0.047-3.821 0.865-5.884-9e-3 -2.8-1.194 3.417-6.951 3.492-7.007 0.493-0.371-0.677-1.198-1.053-1.104-4.229 1.048-7.829 3.158-12.406 2.053-5.474-1.893-0.037-11.357 0.01-11.409 0.742-1.49-1.495-3.492-3.003-2.073-4.07 4.906-7.138 10.841-18.191 8.487-8.75-2.768-7.373-2.223-5.423-10.662 1.185-6.749-13.863 6.63-37.241 16.753-8.003-7.665-18.064-13.319-27.937-17.44-17.876-4.516-37.928-1.644-38.807-1.677-0.667-0.028-1.184 0.634-0.423 0.982 5.061 2.321 9.963 4.995 14.61 8.068 0.405 0.268 1.748 0.954 1.885 1.438 0.272 0.964-0.987 1.438-1.57 1.636-1.471 0.507-3.492 0.465-5.014 0.526-2.857 0.117-5.681-0.108-8.492-0.62-0.441-0.08-1.625 0.465-0.817 0.883 17.068 6.072 12.03 9.155 2.115 9.497 0 0.391-0.644 0.24-0.254 0.259 3.759 0.193 7.909 0.7 12.166 1.443-14.521-0.752-29.812 0.629-42.279 2.795 1.02-0.517 2.011-1.076 2.819-1.207 6.763-1.889 8.534-2.617 15.903-2.66 0.376-0.094 0.606 0 0.531-0.381-0.075-0.39-7.998-0.733-8.778-1.038-2.9-1.142 4.891-6.744 7.631-8.933 0.714-0.569-0.55-0.874-0.968-0.71-2.66 1.048-5.385 1.819-8.214 2.256-1.504 0.235-3.478 0.662-5.019 0.455-0.611-0.084-1.941-0.305-1.861-1.306 0.042-0.498 1.231-1.428 1.574-1.771 3.962-3.915 8.252-7.491 12.768-10.743 0.682-0.494 0.047-1.038-0.606-0.883-0.851 0.202-15.888-0.137-32.537 7.73-4.756-2.19-10.311-3.962-9.827-1.569 1.95 7.339 3.328 6.869-5.427 9.276-11.048 2.049-14.117-3.111-18.191-7.383-1.509-1.231-3.741 0.508-2.998 1.8 0.042 0.047 5.484 8.28 9e-3 9.93-4.582 0.958-8.181-0.875-12.406-1.786-0.376-0.085-1.546 0.634-1.057 0.958 0.075 0.052 6.297 5.057 3.496 6.095-2.063 0.762-3.675-0.032-5.888 0.01-0.414 9e-3 -1.25 1.264-0.578 1.583 8.271 3.901 20.395 8.285 29.657 9.756-23.346 44.318-5.743 58.106 23.275 59.845 0.893 2.739 1.847 5.536 2.881 8.397-0.353 5.907-0.324 11.452 0.023 16.251 0.841 11.714-11.4 19.229-8.914 37.147 3.576 6.461 8.675 12.006 14.958 16.471-6.147 23.064 26.301 37.786 39.003 12.462 4.751 0.24 9.676 0.132 14.733-0.362 10.531 28.431 56.569 18.041 47.044-17.894 23.952-24.737 43.148-48.435 46.268-70.945 30.762-5.921 42.355-49.159 12.124-60.164 9.263-1.687 15.4-7.199 23.666-11.687 0.672-0.362-0.164-1.81-0.578-1.819" style="fill:#40c64c"/></g><g transform="matrix(.35278 0 0 -.35278 84.02 128.18)"><path d="m0 0c33.164 8.099 56.357-23.708 90.037-9.508 10.904-28.665-7.541-39.288 0.584-54.365 19.601-44.671 0.334-49.243-11.023-58.416-33.915-3.566-36.341-0.865-46.627 11.297-13.413 18.125-26.527 34.493-24.645 80.025z" style="fill:#aee079"/></g><g transform="matrix(.35278 0 0 -.35278 124.21 127.19)"><path d="m0 0c0-4.107-3.329-7.437-7.437-7.437-4.106 0-7.436 3.33-7.436 7.437s3.33 7.437 7.436 7.437c4.108 0 7.437-3.33 7.437-7.437" style="fill:#2c9b2e"/></g><g transform="matrix(.35278 0 0 -.35278 121.59 138.28)"><path d="m0 0c0-1.993-1.615-3.608-3.608-3.608s-3.608 1.615-3.608 3.608 1.615 3.608 3.608 3.608 3.608-1.615 3.608-3.608" style="fill:#2c9b2e"/></g><g transform="matrix(.35278 0 0 -.35278 129.52 134.35)"><path d="m0 0c0-4.152-3.366-7.519-7.519-7.519-4.152 0-7.519 3.367-7.519 7.519 0 4.153 3.367 7.519 7.519 7.519 4.153 0 7.519-3.366 7.519-7.519" style="fill:#2c9b2e"/></g><g transform="matrix(.35278 0 0 -.35278 139.9 151.76)"><path d="m0 0c0-3.114-1.788-5.638-3.994-5.638s-3.995 2.524-3.995 5.638 1.789 5.638 3.995 5.638 3.994-2.524 3.994-5.638" style="fill:#2c9b2e"/></g><g transform="matrix(.35278 0 0 -.35278 137.3 156.01)"><path d="m0 0c0-3.539-2.869-6.407-6.408-6.407-3.538 0-6.407 2.868-6.407 6.407s2.869 6.408 6.407 6.408c3.539 0 6.408-2.869 6.408-6.408" style="fill:#2c9b2e"/></g><g transform="matrix(.35278 0 0 -.35278 144.71 152.75)"><path d="m0 0c0-1.557-1.262-2.819-2.819-2.819s-2.819 1.262-2.819 2.819 1.262 2.819 2.819 2.819 2.819-1.262 2.819-2.819" style="fill:#2c9b2e"/></g><g transform="matrix(.35278 0 0 -.35278 127.3 140.19)"><path d="m0 0c0-1.418-1.15-2.568-2.568-2.568s-2.568 1.15-2.568 2.568 1.15 2.568 2.568 2.568 2.568-1.15 2.568-2.568" style="fill:#2c9b2e"/></g><g transform="matrix(.35278 0 0 -.35278 78.4 152.25)"><path d="m0 0c0-0.778-0.631-1.409-1.41-1.409-0.778 0-1.409 0.631-1.409 1.409s0.631 1.41 1.409 1.41c0.779 0 1.41-0.632 1.41-1.41" style="fill:#2c9b2e"/></g><g transform="matrix(.35278 0 0 -.35278 79.81 159.43)"><path d="m0 0c0-2.932-2.377-5.309-5.31-5.309-2.932 0-5.309 2.377-5.309 5.309s2.377 5.309 5.309 5.309c2.933 0 5.31-2.377 5.31-5.309" style="fill:#2c9b2e"/></g><g transform="matrix(.35278 0 0 -.35278 81.92 155.21)"><path d="m0 0c0-1.25-1.013-2.264-2.264-2.264-1.25 0-2.264 1.014-2.264 2.264s1.014 2.264 2.264 2.264c1.251 0 2.264-1.014 2.264-2.264" style="fill:#2c9b2e"/></g><g transform="matrix(.35278 0 0 -.35278 142.72 162.67)"><path d="m0 0c0-2.128-1.263-3.854-2.82-3.854s-2.819 1.726-2.819 3.854c0 2.129 1.262 3.854 2.819 3.854s2.82-1.725 2.82-3.854" style="fill:#2c9b2e"/></g><g transform="matrix(.35278 0 0 -.35278 4.1078 240.39)"><g clip-path="url(#clipPath22239)" style="opacity:.35001"><g transform="translate(267.22 351.22)"><path d="m0 0c-0.437-0.094-0.874-0.188-1.311-0.286-1.123-0.254-2.232-0.527-3.337-0.832-0.075-0.024-0.15-0.043-0.225-0.066-0.508-0.146-1.015-0.296-1.518-0.456-0.057-0.019-0.108-0.038-0.164-0.052-0.029-0.014-0.062-0.023-0.094-0.033-0.517-0.169-1.039-0.347-1.551-0.54-0.672-0.249-1.335-0.512-1.997-0.78-1.358-0.555-2.703-1.137-4.042-1.725-2.646-0.907-5.239-1.959-7.721-3.228-1.753 3.435-1.748 7.439-0.15 10.803 0.822 1.749 2.077 3.327 3.736 4.568 3.848 2.876 8.839 3.153 12.857 1.123 1.344-0.672 2.571-1.602 3.614-2.768 0.239-0.263 0.465-0.545 0.681-0.836 1.081-1.443 1.786-3.045 2.148-4.695-0.311-0.065-0.621-0.131-0.926-0.197m150.58-157.15c0.066 0.066 0.014 0.117-0.052 0.145 0.052 0.085 0.089 0.179 0.08 0.287-0.042 0.423-0.808 0.696-1.137 0.822-4.06 2.656-8.764 4.601-13.21 6.509-0.018 9e-3 -0.037 0.019-0.056 0.024-5e-3 0.032-0.014 0.065-0.056 0.098-1.833 1.565-4.314 2.542-6.518 3.482-1.029 0.437-2.063 0.865-3.107 1.264 3.68 1.95 6.988 4.606 9.474 7.97 1.466 1.979 2.688 4.154 3.506 6.48 0.272 0.785 0.611 1.739 0.794 2.698 0.108 0.253 0.216 0.503 0.324 0.756 1.814 4.3 2.016 8.717 1.156 13.285-0.545 2.933-1.231 5.884-2.472 8.581-0.272 2.321-1.602 5.009-2.476 6.649-1.452 2.731-3.459 5.062-5.978 6.857-3.604 2.575-8.646 4.516-13.467 5.037-0.409 3.144-2.087 6.335-3.877 9.084-0.334 1.217-0.644 2.251-0.837 2.848-0.169 0.512-6.696 13.012-7.124 14.257-0.752 2.181-1.555 4.295-2.702 6.302-0.837 1.456-3.868 6.189-4.385 7.096-2.067 3.609-4.793 7.711-8.439 10.065-1.551 2.044-3.421 3.934-5.043 5.583-1.668 1.701-3.416 3.313-5.23 4.854-0.606 1.18-1.635 1.918-2.773 2.707-0.244 1.485-1.442 3.036-2.123 4.323-1.049 1.998-1.81 4.155-2.439 6.316-1.166 4.013-1.363 8.304-2.557 12.303 0.282 1.898 0.357 3.806-0.08 5.695-0.653 2.82-2.594 5.762-5.07 7.627-1.137 1.584-2.557 2.965-4.093 3.976-4.234 2.786-9.549 2.486-14.342 1.739-4.916-0.766-9.531-1.749-12.89-5.687-0.381-0.451-0.743-0.911-1.095-1.381-1.908-1.236-3.008-3.539-4.441-5.268-1.142-1.372-2.547-2.505-3.783-3.769-4.262-0.113-8.529-0.822-12.754-1.297-1.118-0.127-2.236-0.277-3.35-0.446-0.085 0.451-0.376 0.874-0.771 1.25-0.451 1.259-1.274 2.514-1.894 3.529-1.325 2.166-2.913 4.107-4.986 5.597-4.525 3.256-10.639 3.989-15.864 2.157-4.991-1.753-8.421-5.846-9.883-10.856-0.686-2.363-1.231-4.878-1.062-7.349 0.16-2.355 0.766-3.783 2.355-4.756-0.113-0.075-0.226-0.145-0.334-0.216-2.214-1.495-4.328-3.13-6.142-5.089-0.099-0.108-0.188-0.216-0.282-0.325-1.908-0.263-3.806-1.668-4.859-3.05-1.908-2.495-2.947-5.549-3.642-8.575-0.78-3.407-0.728-6.979-0.165-10.419 0.423-2.561 1.218-6.588 3.421-8.472 0.306-1.349 0.734-2.693 1.331-4.145 1.597-3.887 2.128-7.481 2.124-11.682-5e-3 -3.981-0.536-7.919-0.456-11.908 0.028-1.593 0.066-3.365 0.39-5.028-0.442 0.051-0.931-0.095-1.091-0.456-1.005-2.223-1.997-4.474-2.819-6.772-0.362-1.005-1.654-3.515-1.908-3.6-10.183-3.571-18.693-11.701-22.674-21.715-2.18-5.498-3.125-11.428-2.631-17.331 0.432-5.112 2.086-11.085 5.187-15.423 0.193-0.3 0.405-0.587 0.64-0.855 0.065-0.089 0.141-0.169 0.211-0.254-0.207-0.22-0.404-0.469-0.587-0.737-0.926-0.48-1.57-1.264-1.838-2.256-0.254-0.084-0.507-0.174-0.761-0.263-0.291-9e-3 -0.578-0.099-0.71-0.268-1.066-0.409-2.114-0.855-3.139-1.306-1.846-0.668-3.632-1.485-5.225-2.153-3.675-1.536-8.426-3.388-11.109-6.405-0.122-0.136-0.103-0.239-0.014-0.314-0.292-0.297-0.545-0.625-0.743-0.997-0.141-0.268 0.362-0.338 0.508-0.319 2.133 0.291 3.952 1.334 5.878 2.251 2.054 0.972 4.112 1.912 6.217 2.763 2.106 0.846 4.244 1.616 6.396 2.321 0.075 0.024 0.155 0.047 0.235 0.071 0.141-1.128 0.541-2.275 1.09-3.342-1.019-0.784-1.945-1.715-2.739-2.509-2.275-2.293-3.764-4.478-4.751-7.537-0.155-0.48 0.709-0.597 1.029-0.362 0.418-0.071 0.888-0.024 1.132 0.145 1.88 1.335 3.488 3.027 5.32 4.432 0.954 0.728 1.946 1.372 2.965 1.978 0.686-0.597 1.452-1.137 2.27-1.621 1.476-1.118 3.322-1.885 4.892-2.632 1.861-0.888 3.792-1.767 5.343-3.157 0.935-0.837 1.753-1.725 1.725-3.017-0.015-0.851-0.532-1.683-0.391-2.534 0.372-2.227 4.935-2.824 5.837-0.765 0.207 0.465 0.103 0.963-0.071 1.442 0 0.057-9e-3 0.122-0.032 0.188-0.136 0.381-0.306 0.752-0.489 1.119-0.019 0.052-0.038 0.103-0.057 0.155 0.09 0.164 0.09 0.347-0.042 0.54-0.183 0.315-0.357 0.625-0.526 0.94-0.244 0.63-0.489 1.255-0.733 1.885-0.775 2.016-1.546 4.027-2.307 6.047-1.048 3.544-1.669 7.115-1.706 10.832-0.038 3.604 1.16 7.176 0.192 10.653-0.094 0.353-0.38 0.536-0.733 0.606 0 2.731-9e-3 5.466 0.033 8.196 0.108 6.654 0.188 13.228 2.068 19.671 1.842 6.311 8.313 23.872 8.764 25.085 0.427 1.141 0.86 2.279 1.302 3.416 0.192-1.387 0.371-2.772 0.554-4.159 0.235-1.795 0.71-3.534 1.156-5.282-0.061-3.003 2.011-9.3 2.101-9.563-0.259-4.262 5.343-20.78 7.467-24.497-0.273-0.832-1.927-24.046-1.668-24.323 0.253-0.282 0.549-0.531 0.869-0.762-0.179-0.385-0.353-0.775-0.559-1.132-0.32-0.55-0.607-1.053-0.87-1.57-0.399 0.179-0.893 0.259-1.423 0.156-2.468-0.475-4.7-0.532-6.918-1.88-1.87-1.138-3.421-2.848-4.074-4.958-0.061-0.198-0.042-0.399 0.113-0.554l0.366-0.362c0.146-0.141 0.376-0.15 0.564-0.09 1.791 0.555 2.763 2.688 4.352 3.741 2.161 1.433 4.243 1.208 6.635 1.725 0.108 0.023 0.202 0.051 0.287 0.079 0.014-9e-3 0.023-0.014 0.037-0.023 0.935-0.352 1.814-0.54 2.763-0.672 0.014-5e-3 0.033-9e-3 0.052-0.014 0.038-0.019 0.075-0.038 0.118-0.057 0.079-0.042 0.22-0.032 0.333 5e-3 0.066-0.014 0.137-0.023 0.202-0.033 1.734-0.907 3.6-1.484 5.593-1.471 1.014-0.277 2.029-0.545 3.045-0.803 0.352-0.085 1.86-0.268 1.757-0.917-0.01-0.079-0.869-0.507-0.977-0.587-0.391-0.286-0.954-0.639-1.095-1.137-0.245-0.851 0.286-1.847 0.926-2.599-0.433 0.184-0.898 0.325-1.382 0.513-1.513 0.587-3.017 1.203-4.558 1.705-2.04 0.672-4.296 0.921-6.457 1.048 9e-3 0.01 9e-3 0.028-0.019 0.028-0.023 0-0.023-0.014-0.019-0.023-0.225 9e-3 -0.451 0.023-0.676 0.033-0.01 0-0.019-0.01-5e-3 -0.014 2.425-0.808 4.958-1.171 7.335-2.143 2.148-0.874 4.512-2.308 6.857-2.35 0.136-5e-3 0.394 0.108 0.253 0.277-0.178 0.217-0.376 0.386-0.582 0.531-0.494 0.752-1.194 1.725-1.081 2.557 0.178 1.255 1.715 1.8 2.622 2.303 0.028 0.019 0.07 0.061 0.066 0.103-0.052 0.592-0.08 0.367-0.555 0.686-0.507 0.333-1.828 0.202-2.378 0.263-0.883 0.104-1.724 0.301-2.565 0.54 0.169 0.01 0.333 0.019 0.502 0.038 0.235 0.029 0.221 0.268 0 0.306-1.687 0.287-3.364 0.596-4.957 1.123 9e-3 0.084-0.052 0.174-0.24 0.221-0.475 0.113-0.926 0.249-1.367 0.408-0.874 0.405-1.711 0.907-2.5 1.537 0.634 0.423 1.17 0.945 1.649 1.683 0.169 0.263 0.357 0.554 0.536 0.859 1.955-0.808 4.318-1.146 6.241-1.48 2.725-0.789 5.502-1.395 8.374-1.832 5.69-0.861 11.358-1.673 17.114-1.876 4.995-0.178 10.042-0.235 15.042 0.09-0.822-0.724-1.691-1.396-2.678-1.847-1.57-0.719-3.322-0.935-5.005-1.255-0.446-0.084-0.846-0.512-0.357-0.855 1.175-0.827 1.621-2.35 1.071-3.623-0.178-0.414-0.512-0.818-0.794-1.213-0.235-0.173-0.441-0.366-0.615-0.591-0.235-0.306 0.084-0.579 0.394-0.616 1.946-0.24 3.797 0.484 5.686 0.921 2.012 0.465 4.028 0.902 6.063 1.259 2.016 0.348 4.041 0.677 6.066 0.968 1.964 0.287 4.164 0.287 6.025 0.954 0.235 0.085 0.258 0.357 0 0.433-1.739 0.507-3.694 0.347-5.494 0.305-2.335-0.056-4.699-0.291-6.997-0.672-2.161-0.357-4.314-0.789-6.428-1.353-0.715-0.193-1.57-0.353-2.411-0.588 0.474 1.231 0.122 2.792-0.795 3.91 2.731 0.653 5.546 1.513 7.853 3.101 0.437 0.301 0.912 0.64 1.405 1.001 2.03 0.216 4.041 0.55 6.001 1.152 1.161 0.357 5 2.575 5.841 3.045 0.47 0.089 10.386 5.432 9.281 5.644-34.112 4.924-67.872 28.853-71.024 42.199-6.621 34.552 4.416 38.926 1.156 51.579-1.762 7.847-6.396 15.206-5.16 23.158 2.561-0.734 5.263-1.067 7.857-1.636 3.731-0.817 7.43-1.809 11.029-3.092 6.932-2.472 13.262-6.24 20.334-8.402 6.833-2.091 14.365-3.952 21.551-2.984 2.965 0.399 5.958 1.424 8.548 2.923 0.643 0.371 3.171 0.912 3.44 0.855 0.305-0.916 0.864-1.781 1.668-2.321 1.132-0.762 2.758-1.029 4.041-0.461 1.072 0.179 2.096 0.804 2.571 1.824 1.668 3.595-0.597 8.021-3.783 9.905-0.094 0.052-5.155-3.045-5.221-4.939-5e-3 -0.056 0-0.117 0-0.178-1.96-1.692-4.591-2.834-6.95-3.726-2.938-1.119-6.25-1.297-9.361-1.124-6.824 0.381-13.783 2.369-20.113 4.859-6.104 2.402-11.772 5.578-18.097 7.454-5.272 1.559-9.093 2.56-16.983 3.839 2.011 6.132 12.838 15.69 21.165 19.252 4.827 2.063 9.831 3.638 14.878 5.057 5.367 1.508 10.888 1.771 16.316 2.937l-0.597 2.763c2.026 1.964 3.464 4.38 5.047 6.762 1.1 1.65 2.261 3.29 3.731 4.634 2.19 2.002 4.878 2.838 7.74 3.378 4.986 0.931 10.883 2.045 15.517-0.657 1.241-0.724 2.194-1.636 2.984-2.66-5e-3 -1.654 1.076-3.276 1.598-4.803 0.686-2.025 1.184-4.065 1.161-6.212-0.052-4.436-1.96-8.614-1.956-13.06 5e-3 -4.299 2.139-7.551 5.353-10.234 3.243-2.717 6.964-5.682 11.058-6.894 0.065-0.019 0.164-0.033 0.263-0.033 1.494-1.429 2.941-2.909 4.323-4.455 13.717-27.632 14.868-53.242 11.076-65.799 0 0-5e-3 -5e-3 -5e-3 -9e-3 -0.094-0.122 4.61 4.126 7.176 5.822 2.533 1.668 5.207 2.571 7.965 3.731 0.076 0.033 0.268 0.071 0.536 0.113 4.596-0.249 9.22-0.484 13.51-2.377 2.491-1.101 4.657-2.674 6.387-4.785 1.419-1.734 2.344-3.9 3.952-5.469 0.239-0.677 0.451-1.363 0.625-2.054 0.752-5.197-0.982-9.995-3.182-14.662-2.424-5.15-5.366-9.478-9.572-13.336-7.133-6.546-14.972-12.171-24.295-14.624 1.673 4.215 2.862 8.599 3.294 13.196 1.325 14.106-4.032 28.425-12.251 39.698-2.293 3.144-4.817 5.997-7.627 8.689-2.739 2.627-5.813 5.583-9.281 7.195-0.395 0.183-1.602 0.014-1.334-0.648 0.648-1.608 1.987-2.951 3.007-4.343 0.658-0.897 1.344-1.776 2.03-2.655-0.146-0.103-0.225-0.263-0.179-0.47 1.438-6.551 5.771-12.321 8.379-18.435 2.933-6.875 3.708-13.947 4.347-21.32 0.606-6.946 0.841-13.802-1.687-20.419-1.142-2.979-2.692-5.836-4.582-8.406-0.855-1.161-1.79-2.261-2.768-3.323-1.01-1.104-2.382-2.067-2.998-3.444-0.371-0.832 0.113-1.325 0.841-1.598 0.278-0.442 0.804-0.836 1.565-1.024 0.315-0.081 0.63-0.141 0.94-0.193 2.533-1.781 5.86-2.74 8.52-4.229 1.964-1.1 3.816-2.421 5.705-3.666 2.773-2.674 5.869-6.292 9.535-6.903 0.197-0.033 0.474-0.023 0.705 0.061 1.038-1.194 2.481-2.509 3.914-1.626 3.017 1.866-6.518 10.842-8.055 12.27-3.11 2.881-6.743 5.611-10.737 7.321 2.077 1.819 3.787 4.164 5.037 6.471 0.935 1.734 1.814 3.492 2.613 5.277 0.846-0.197 1.72-0.305 2.533-0.399 2.848-0.329 5.738-0.522 8.604-0.507 0.734 4e-3 1.471 0.028 2.209 0.065 2.241-0.733 4.591-0.973 6.927-1.259 2.439-0.301 4.741-0.982 7.114-1.471 0.489-0.174 1.015-0.357 1.523-0.442 0.014-9e-3 0.033-0.023 0.047-0.037s0.075 0 0.051 0.028c-1.033 1.09-2.279 2.025-3.472 2.932-0.78 0.592-1.579 1.208-2.416 1.748 1.283 0.357 2.538 0.79 3.76 1.297 3.914-1.147 7.763-2.486 11.574-3.952 4.709-1.818 9.018-4.271 13.524-6.504 0.057-0.028 0.141-0.042 0.231-0.037 0.056-0.089 0.098-0.179 0.108-0.273-0.602-0.079-1.25-0.423-1.715-0.653-0.475-0.235-1.166-0.583-1.622-1.043-2.044 1.471-4.755 2.378-7.128 3.097-2.378 0.728-5.038 1.452-7.533 1.522 0.15-0.08 3.402-2.016 4.948-2.974 1.452-0.893 6.476-3.111 8.567-4.07 0-0.028 0-0.056 4e-3 -0.084 0.01-0.076 0.075-0.118 0.156-0.132 0.587-0.968 1.315-1.889 1.691-2.937-3.214 0.954-7.566 1.278-10.705-0.221-8.426 5.733-13.834 8.529-29.417 9.662 10.39-3.863 19.192-8.346 25.432-14.3 0.099 0 2.298 2.157 3.562 3.421 1.429 0.517 2.839 1.043 4.38 1.245 2.5 0.334 4.934-0.023 7.274-0.926 0.24-0.089 1.058-0.079 0.997 0.362-0.155 1.109-0.588 1.932-1.138 2.909-0.295 0.526-0.526 1.086-0.756 1.65 0.573 0.521 1.123 1.062 1.776 1.499 0.794 0.536 1.908 0.747 2.585 1.405" style="fill:#063"/></g></g></g><g transform="matrix(.35278 0 0 -.35278 119.04 117.76)"><path d="m0 0c0-4.07-1.978-7.674-5.028-9.901-0.978 0.526-2.106 1.118-3.346 1.739-4.479 2.264-10.437 4.952-16.029 6.503-0.075 0.54-0.113 1.095-0.113 1.659 0 4.699 2.65 8.783 6.537 10.836 1.705 0.907 3.656 1.42 5.723 1.42 4.808 0 8.971-2.768 10.973-6.8 0.672-1.339 1.1-2.82 1.236-4.38 0.033-0.352 0.047-0.714 0.047-1.076" style="fill:#1d1d1b"/></g><g transform="matrix(.35278 0 0 -.35278 119.02 117.38)"><path d="m0 0c-1.541-4.008-4.53-7.298-8.327-9.238-4.479 2.264-10.437 4.952-16.029 6.503-0.075 0.54-0.113 1.095-0.113 1.659 0 4.699 2.65 8.783 6.537 10.836 1.705 0.907 3.656 1.42 5.723 1.42 4.808 0 8.971-2.768 10.973-6.8 0.672-1.34 1.1-2.82 1.236-4.38" style="fill:#282826"/></g><g transform="matrix(.35278 0 0 -.35278 118.18 116.59)"><path d="m0 0c0-2.21-1.791-4.001-4.001-4.001s-4.001 1.791-4.001 4.001 1.791 4.001 4.001 4.001 4.001-1.791 4.001-4.001" style="fill:#fff"/></g><g transform="matrix(.35278 0 0 -.35278 116.77 117.64)"><path d="m0 0c0-1.646-1.335-2.981-2.981-2.981-1.647 0-2.982 1.335-2.982 2.981 0 1.647 1.335 2.981 2.982 2.981 1.646 0 2.981-1.334 2.981-2.981" style="fill:#fff"/></g><g transform="matrix(.35278 0 0 -.35278 113.51 115.11)"><path d="m0 0c0-0.76-0.616-1.376-1.376-1.376s-1.377 0.616-1.377 1.376 0.617 1.376 1.377 1.376 1.376-0.616 1.376-1.376" style="fill:#fff"/></g><g transform="matrix(.35278 0 0 -.35278 93.352 118.16)"><path d="m0 0c1.995 0.879 3.994 1.746 6.038 2.508 2.682 1 5.407 1.667 8.202 2.263 0.307 0.065 0.615 0.131 0.924 0.195-0.363 1.651-1.068 3.255-2.146 4.698-0.217 0.29-0.445 0.571-0.682 0.834-1.044 1.168-2.273 2.097-3.613 2.767-4.017 2.031-9.009 1.755-12.859-1.123-1.657-1.238-2.912-2.816-3.735-4.564-1.597-3.367-1.601-7.37 0.148-10.804 2.483 1.266 5.078 2.322 7.723 3.226" style="fill:#1d1d1b"/></g><g transform="matrix(.35278 0 0 -.35278 93.352 118.16)"><path d="m0 0c1.995 0.879 3.994 1.746 6.038 2.508 2.26 0.843 4.553 1.448 6.891 1.975 0.153 2.007-0.038 4.044-0.593 6.015-1.044 1.168-2.273 2.097-3.613 2.767-4.017 2.031-9.009 1.755-12.859-1.123-1.657-1.238-2.912-2.816-3.735-4.564-1.597-3.367-1.601-7.37 0.148-10.804 2.483 1.266 5.078 2.322 7.723 3.226" style="fill:#282826"/></g><g transform="matrix(.35278 0 0 -.35278 96.562 114.33)"><path d="m0 0c1.323-1.77 0.961-4.277-0.809-5.6s-4.277-0.961-5.6 0.809-0.961 4.277 0.809 5.6 4.277 0.961 5.6-0.809" style="fill:#fff"/></g><g transform="matrix(.35278 0 0 -.35278 94.731 117.57)"><path d="M 0,0 C 0.706,0.288 1.414,0.569 2.129,0.835 2.795,1.084 3.464,1.311 4.136,1.523 4.511,2.456 4.415,3.552 3.769,4.416 2.784,5.735 0.915,6.004 -0.403,5.018 -1.722,4.033 -1.992,2.164 -1.006,0.846 -0.731,0.477 -0.382,0.2 0,0" style="fill:#fff"/></g><g transform="matrix(.35278 0 0 -.35278 91.935 115.94)"><path d="m0 0c0.455-0.609 0.331-1.471-0.278-1.926-0.609-0.456-1.471-0.331-1.927 0.278-0.455 0.609-0.33 1.471 0.279 1.926 0.608 0.455 1.471 0.331 1.926-0.278" style="fill:#fff"/></g><g transform="matrix(.35278 0 0 -.35278 117.42 129.32)"><path d="m0 0c-1.935 3.352-5.19 5.096-7.27 3.895-1.803-1.041-2.129-3.951-0.925-6.891-1.086-1.172-2.174-2.35-3.509-3.217-2.9-1.882-6.303-2.91-9.746-3.116-8.75-0.523-17.211 3.535-25.215 6.489-8.535 3.151-17.277 5.737-26.133 7.817-6.57 1.544-16.361 3.455-21.881-1.752-1.121-1.057 1.431-1.524 2.057-1.298 3.26 1.181 6.225 1.946 9.728 1.688 3.505-0.258 10.32-2.052 10.32-2.052s14.087-4.199 20.991-6.706c12.454-4.522 25.365-10.679 38.764-6.25 2.793 0.924 5.419 2.324 7.707 4.171 1.657-1.335 3.5-1.801 4.85-1.022 2.08 1.201 2.197 4.892 0.262 8.244" style="fill:#217218"/></g><g transform="matrix(.35278 0 0 -.35278 100.86 120.62)"><path d="m0 0c-0.711-1.751-2.078-2.849-3.054-2.453s-1.191 2.137-0.481 3.887c0.71 1.751 2.078 2.85 3.054 2.453 0.976-0.396 1.192-2.136 0.481-3.887" style="fill:#063"/></g><g transform="matrix(.35278 0 0 -.35278 93.406 120.53)"><path d="m0 0c-0.578-1.425-1.752-2.294-2.623-1.94-0.871 0.353-1.107 1.794-0.53 3.219 0.579 1.425 1.753 2.294 2.624 1.941 0.87-0.354 1.107-1.795 0.529-3.22" style="fill:#063"/></g><g transform="matrix(.35278 0 0 -.35278 149.65 172.23)"><path d="m0 0c-0.517-0.479-0.902-0.935-0.785-1.917-2.326 2.025-13.082 6.189-13.416 6.316 0.268-0.198 6.786-4.916 9.413-6.438 1.47-0.856 2.885-1.833 4.309-2.792-3.13 0.804-6.523 0.828-9.249-0.268-2.875-1.155-3.543-4.483-3.543-4.483-2.669 2.698-7.556 6.523-25.742 13.257 14.948-7.801 19.652-12.119 21.499-13.764-3.064 1.71-7.599 1.635-14.333 1.321-11.109-1.316-5.681-6.575-5.296-10.005 0.386-5.795-19.22 13.345-29.784 17.067 13.044 15.219 18.007 37.328 1.494 69.209 0.55 1.175 0.419 2.876 0.68 4.099 0.371 1.733 1.806 3.91 1.528 5.64-0.061 0.38-0.615 0.374-0.877 0.23-1.957-1.079-2.779-3.572-3.265-5.647-0.038-0.165-0.078-0.338-0.117-0.515-1.891 3.39-4.017 6.884-6.397 10.49-0.395 0.597-1.236 0.705-1.768 0.221-0.418-0.376-0.502-1.001-0.211-1.481 31.255-51.277 18.214-80.878-26.349-99.421-8.867-3.078-19.088-3.346-28.026-3.675 2.082 1.029 4.098 2.293 5.945 3.482 1.663 1.067 6.033 3.416 5.944 5.752-0.089 2.34-3.896 2.354-5.479 2.5-1.447 0.13-3.077 0.256-4.703 0.224 3.758 0.76 7.485 1.69 11.239 2.465 4.54 0.938 9.128 1.629 13.627 2.758 0.421 0.106 0.307 0.508-0.106 0.494-4.755-0.162-9.42-1.027-14.066-2.003-2.991-0.629-6.009-1.303-8.957-2.177 3.051 2.027 3.355 4.768 1.58 5.274 3.637-0.24 7.687 1.696 12.913 2.81 13.05 5.451 27.57 15.22 27.57 32.721 0 8.021-3.049 17.659-10.685 29.253-0.282 0.427-0.856 0.559-1.302 0.3-0.447-0.263-0.602-0.827-0.367-1.287 1.599-3.08 2.985-5.998 4.166-8.774-1.413 0.913-2.896 1.599-4.115 1.972-0.719 0.219-1.993-0.459-0.898-0.97 2.104-0.981 3.983-2.117 5.582-3.831 0.37-0.397 0.713-0.808 1.044-1.223 7.777-21.064 2.258-33.254-15.859-43.147-20.62-2.331-49.384-1.26-61.513 5.155-0.113 6.635 0.766 15.188 2.002 19.304 3.614-6.419 8.106-11.377 13.609-15.089 0.874-0.587 3.553-0.451 2.42 0.512-26.038 22.12-25.282 64.615-25.498 83.431-0.136 11.842-12.359 21.132-7.162 35.577 6.796 15.005 30.447 25.109 66.091 24.531 9.384 28.717 49.502 20.376 38.966-16.161 23.633-21.518 41.287-44.54 45.597-70.226-7.636-0.366-15.386-4.694-20.611-14.948 5.385 7.509 14.563 13.407 22.265 12.876 33.36-4.478 33.6-57.345-4.953-58.115 0 0-9.201 0.38-17.035 1.353 0.738-1.316 6.908-3.238 16.565-3.548 0.084 0 0.16 5e-3 0.244 5e-3 8.365-1.133 16.946-2.552 16.946-2.552-2.613 1.062-7.435 3.017-10.987 3.158 3.736 0.273 4.76 0.479 7.801 1.471 8.477-2.514 17.504-5.329 25.46-9.281-1.02 0.033-1.767-0.395-3.045-1.49m-157.8-2.288c-2.233-1.162-0.918-3.212 0.882-4.957-1.019 0.42-2.051 0.813-3.088 1.173-3.347 1.162-6.859 2.323-10.354 2.939-0.029 5e-3 -0.074-0.028-0.029-0.044 3.14-1.125 6.216-2.087 9.222-3.567 1.149-0.565 2.382-1.367 3.65-2.111-1.162 0.197-2.314 0.33-3.37 0.439-1.584 0.169-5.32 0.888-5.86-1.391-0.54-2.275 3.294-5.428 4.718-6.795 1.584-1.523 3.313-3.158 5.16-4.563-8.708 2.049-13.515 2.88-21.617 7.622-4.873 2.289-6.269 5.019-8.28 9.746-6.621 15.564-1.034 50.865 7.58 77.885 1.302-13.435 4.577-28.082 10.55-39.948-2.571-11.236-2.481-26.038-1.626-31.17-3.017 0.254-5.799-1.006-10.851-5.197-1.87-2.068-0.845-3.191 0.738-1.56 5.207 4.558 8.384 4.774 12.5 4.422 4.69-0.856 5.757-1.917 10.075-2.923m-31.184-13.214c0.39 2.983 5.813 7.556-5.291 8.703-6.734 0.272-11.274 0.338-14.333-1.147 1.65 1.273 5.602 5.747 17.115 11.334 0.597-3.688 1.433-6.771 2.439-9.201 1.541-3.731 3.068-7.128 4.586-9.384-2.044-0.639-4.582-1.17-4.516-0.305m-27.415 11.893c-2.721 0.954-6.114 0.935-9.249 0.235 1.429 0.832 2.844 1.682 4.314 2.425 2.623 1.325 9.141 5.432 9.408 5.602-0.333-0.114-11.085-3.732-13.416-5.494 0.122 0.851-0.263 1.25-0.785 1.668-1.273 0.949-2.02 1.325-3.04 1.297 7.956 3.435 19.328 5.413 27.81 7.604 3.036-0.865 1.715-0.573 5.451-0.808-3.501-0.123-8.219-1.777-10.864-2.707 0.986 0.305 7.579 2.321 14.576 3.303 0.146-1.983 0.353-3.839 0.616-5.564-14.549-5.014-18.844-9.323-21.278-11.456 0 0-0.667 2.889-3.543 3.895m32.73 71.01c-7.204-23.364-9.309-42.161-8.661-55.648-5.427 0.066-7.96-0.249-11.278 1.626-18.825 42.27-4.779 51.884 19.939 54.022m44.704 94.136c-12.068-1.194-22.881-4.728-31.682-10.217-3.304 19.399 19.436 30.029 31.682 10.217m148.26-160.73c-8.266 4.488-14.403 10-23.665 11.687 30.23 11.006 18.637 54.244-12.124 60.165-3.121 22.509-20.907 46.208-44.859 70.944 9.525 35.935-35.593 47.298-48.454 19.775-5.057 0.493-9.981-0.339-14.732-0.578-12.063 24.224-45.151 9.661-39.004-13.403-6.283-4.464-11.382-10.009-14.958-16.471-2.486-17.918 9.756-25.432 8.915-37.147-0.348-4.798-0.376-10.343-0.024-16.25-1.034-2.861-1.988-5.658-2.88-8.398-29.018-1.738-46.622-15.526-23.276-59.844-9.262-1.471-21.386-5.856-29.657-9.756-0.672-0.319 0.165-1.574 0.578-1.584 2.214-0.042 3.825 0.752 5.888-9e-3 2.801-1.038-3.421-6.043-3.496-6.095-0.489-0.324 0.681-1.043 1.057-0.959 4.225 0.912 7.825 2.745 12.406 1.786 5.475-1.649 0.033-9.882-9e-3 -9.929-0.743-1.293 1.49-3.032 2.998-1.8 4.074 4.272 7.143 9.431 18.191 7.382 8.755-2.406 7.378-1.936 5.427-9.276-0.483-2.392 5.071-0.62 9.827 1.57 16.649-7.867 31.687-7.528 32.537-7.731 0.654-0.155 1.288 0.39 0.607 0.884-4.516 3.252-8.807 6.828-12.768 10.742-0.344 0.343-1.532 1.274-1.575 1.772-0.08 1.001 1.251 1.222 1.861 1.306 1.542 0.207 3.515-0.22 5.019-0.455 2.829-0.438 5.555-1.208 8.214-2.256 0.419-0.165 1.683 0.141 0.968 0.71-2.739 2.189-10.531 7.791-7.631 8.933 0.78 0.305 7.945 0.083 8.778 0.568 0.45 0.336 0.777 1.56-0.531 1.791 0 0-17.702 2.41-18.722 2.927 12.467-2.166 27.759-3.548 42.279-2.796-4.257-0.742-7.467-0.31-11.226-0.503-0.39-0.018-1.626-1.278-1.626-1.668 9.915-0.343 15.893-2.956-1.175-9.027-0.808-0.418 0.376-0.963 0.818-0.883 2.81 0.512 5.634 0.737 8.491 0.62 1.523-0.061 3.544-0.019 5.014-0.526 0.583-0.198 1.843-0.672 1.57-1.636-0.136-0.484-1.48-1.17-1.884-1.438-4.648-3.073-9.549-5.747-14.611-8.068-0.761-0.348-0.244-1.011 0.423-0.982 0.879 0.032 20.931-2.839 38.807 1.677 9.873 4.121 19.934 9.775 27.937 17.439 23.379-10.122 38.426-23.501 37.242-16.753-1.951 8.44-3.327 7.895 5.423 10.663 11.052 2.354 14.121-3.581 18.19-8.487 1.509-1.419 3.746 0.583 3.003 2.072-0.047 0.052-5.484 9.516-9e-3 11.41 4.577 1.104 8.176-1.006 12.406-2.053 0.376-0.094 1.546 0.733 1.052 1.104-0.075 0.056-6.292 5.813-3.491 7.006 2.063 0.874 3.674-0.037 5.883 0.01 0.414 9e-3 1.25 1.457 0.578 1.818" style="fill:#063"/></g><g transform="matrix(.35278 0 0 -.35278 153.46 99.153)"><path d="m0 0c0 19.11-7.127-3.603-23.183-15.821-3.363 2.356-8.268 2.698-13.941 2.037l-26.292 22.086c-20.563 14.79-42.106 16.377-65.03-0.627-34.591 19.766-87.305-13.762-76.598-45.397l-0.47-0.152c1.152-2.121 2.314-4.196 3.496-6.197l0.047-0.083 1e-3 1e-3c4.197-7.098 8.645-13.197 13.776-16.587l3.845 2.994c-5.266 26.848 29.125 34.054 39.004 13.402l14.732 0.578c14.624 28.434 57.54 14.458 48.454-19.775l8.563-9.103c7.14-8.401 11.718-13.198 17.401-21.06l0.835-0.097 1.215-2.81c19.684 5.289 40.674 17.128 35.192 32.231-15.821 1.742-26.629 3.481-37.125 10.025 27.9 8.981 55.269 18.489 56.078 54.355" style="fill:#7837dd"/></g><g transform="matrix(.35278 0 0 -.35278 4.1078 240.39)"><g clip-path="url(#clipPath22315)" style="opacity:.2"><g transform="translate(365.45 361.25)"><path d="m0 0 1.371 8.394c-4.162-6.148-8.003-8.623-10.771-8.132 1.676 10.658 0.595 18.19-0.664 25.519-1.038 4.034-15.723 15.371-32.016 1.567 11.372-12.112 22.311-23.493 31.39-31.73v-1.246l2.34-0.845c4.301-3.773 8.12-6.733 11.287-8.59 41.295 13.452 48.167 25.71 52.867 39.561-6.654-9.74-26.051-24.485-43.981-25.852 2.412 3.052 5.447 14.017-2.777 20.87 2.027-5.458 4.788-8.869-0.274-20.97-3.013 0.037-5.961 0.491-8.772 1.454m-98.853 41.693c-8.274-0.123-16.533-2.714-23.816-6.539-14.408-7.568-27.408-22.423-21.769-39.55 0.113-0.193 0.225-0.388 0.338-0.579l0.047-0.084 1e-3 2e-3c4.197-7.098 8.646-13.197 13.776-16.587l3.845 2.994c-5.266 26.848 29.126 34.054 39.004 13.402l14.732 0.578c8.468 16.466 26.423 18.709 38.274 11.033-10.797 10.07-22.178 19.589-35.085 26.605-8.834 4.802-19.133 8.877-29.347 8.725m105.29-69.671c-9.974 4.563-17.866 12.158-25.637 19.704-2.825 2.743-5.66 5.513-8.523 8.274 4.313-6.005 6.163-14.341 3.482-24.445l8.563-9.103c7.14-8.401 11.718-13.198 17.401-21.06l0.835-0.097 1.215-2.81c15.687 4.215 32.203 12.59 35.489 23.462-11.018-0.548-22.809 1.493-32.825 6.075" style="fill:#1d1d1b"/></g></g></g><g transform="matrix(.35278 0 0 -.35278 4.1078 240.39)"><g clip-path="url(#clipPath22331)" style="opacity:.2"><g transform="translate(371.88 333.27)"><path d="m0 0c-9.974 4.563-17.866 12.158-25.638 19.704-2.824 2.743-5.659 5.513-8.522 8.274 2.689-3.744 4.42-8.395 4.692-13.815l0.023-0.969c0.055-3.003-0.322-6.227-1.234-9.661l8.564-9.103c7.14-8.401 11.718-13.198 17.4-21.06l0.836-0.097 1.215-2.81c15.686 4.215 32.203 12.59 35.489 23.462-11.019-0.548-22.81 1.493-32.825 6.075" style="fill:#1d1d1b"/></g></g></g><g transform="matrix(.35278 0 0 -.35278 4.1078 240.39)"><g clip-path="url(#clipPath22347)" style="opacity:.2"><g transform="translate(306.66 381.88)"><path d="m0 0c-11.9 6.502-26.099 10.415-39.695 10.111-12.847-0.287-28.169-5.547-33.559-18.315-4.204-9.958-2.583-23.492 5.039-31.526l0.569 0.443c-5.266 26.849 29.125 34.054 39.004 13.403l14.732 0.577c6.362 12.372 18.08 16.713 28.541 14.852-4.477 3.997-9.327 7.557-14.631 10.455" style="fill:#1d1d1b"/></g></g></g><g transform="matrix(.35278 0 0 -.35278 4.1078 240.39)"><g clip-path="url(#clipPath22363)" style="opacity:.2"><g transform="translate(421.25 406.22)"><path d="m0 0c-1.332 2.78-13.49-17.915-21.068-21.695l0.716-2.306c-2.592 4.626-7.121 5.837-13.597 4.763l0.264-4.138c-9.792 16.902-36.427 36.152-57.872 37.416-11.779 1.109-23.17-3.623-34.326-11.906-7.957 3.466-16.54 5.653-25.981 6.247-27.754-2.226-36.183-14.412-45.18-26.306 15.34 11.111 29.59 20.375 51.138 18.317 27.328-2.898 50.438-30.075 77.218-50.752-12.423 16.319-24.792 31.029-38.911 41.67 26.145 17.462 57.217 1.898 77.446-23.5-0.319 1.641-0.877 3.351-1.642 5.104 5.279 1.447 9.889-0.18 14.006-8.821-0.067 1.886-0.22 3.59-0.455 5.13 11.43 6.501 10.805 17.347 18.244 30.777" style="fill:#fff"/></g></g></g><g transform="matrix(.35278 0 0 -.35278 131.53 115.97)"><path d="m0 0c3.983 2.945 6.872 8.907 5.613 16.956-2.098-6.778-4.186-10.999-8.419-14.529-1.006 0.906-2.003 1.84-2.993 2.797 3.987 7.488 4.12 19.045-0.022 29.119 0.414-10.958-0.159-19.335-3.078-26.032-14.455 14.777-28.404 33.938-53.658 46.733 12.084 9.186 21.373 10.519 33.396 10.519 13.001 0 69.224-31.817 55.687-52.973 5.977 5.76 6.589 11.754 1.19 19.669 7.995 1.687 11.616-1.045 14.541-14.634 0.357 5.158 0.487 9.884-1.527 13.307 6.577 4.149 11.369 10.761 15.421 17.303 2.969 6.777 3.893 5.088 3.896-3.161-0.207-28.214-21.391-40.276-53.945-49.636-2.1 1.393-4.126 2.922-6.102 4.562m63.338 45.127c0.019 15.904-3.563 15.167-7.823 7.361-5.125-8.61-10.972-14.929-17.971-18.75-2.782 2.524-6.797 3.449-12.086 1.9-13.144 16.803-43.546 34.434-53.522 34.434-16.056 0-26.16-2.82-39.439-12.668-33.41 14.127-55.565-0.034-72.754-20.53-13.747-16.08-3.722-39.968 10.854-53.1l3.37 3.144c-11.519 13.584-23.713 32.842-10.964 48.689 26.537 27.116 40.874 28.546 68.888 18.557 46.232-21.7 55.709-69.572 100.66-71.59 9.333 0.262 12.1-0.353 5.933-9.869-6.651-10.081-18.686-15.24-32.523-18.751l3.144-4.457c16.636 3.564 28.148 11.441 35.101 23.157 6.085 13.973-0.553 14.325-10.815 14.105-8.805 0.249-16.134 2.418-22.653 5.899 38.368 9.464 52.038 31.532 52.595 52.469" style="fill:#440075"/></g><g transform="matrix(.35278 0 0 -.35278 124.93 118.69)"><path d="m0 0-0.222-2.522c8.442-1.091 15.975-16.328 21.538-27.384-2.056 8.635-10.103 28.078-21.316 29.906m-112.38 40.465c-8.577-15.113-1.351-33.291 7.283-43.938l1.624 1.112c-7.968 11.635-15.428 25.305-8.907 42.826m144.38-4.66c2.878-10.453 2.115-14.078-2.185-23.496 6.649 6.07 7.942 16.115 2.185 23.496" style="fill:#440075"/></g></g></svg>
