<?xml version="1.0" encoding="UTF-8"?>
<svg width="194.82mm" height="196.14mm" version="1.1" viewBox="0 0 194.82 196.14" xmlns="http://www.w3.org/2000/svg" xmlns:xlink="http://www.w3.org/1999/xlink"><defs><linearGradient id="a"><stop stop-color="#771800" offset="0"/><stop stop-color="#b3452a" offset="1"/></linearGradient><linearGradient id="b"><stop stop-color="#b3452a" offset="0"/><stop stop-color="#ff9902" offset="1"/></linearGradient><linearGradient id="c"><stop stop-color="#ff9d3d" offset="0"/><stop stop-color="#ff9d3d" stop-opacity="0" offset="1"/></linearGradient><linearGradient id="ar"><stop stop-color="#333" offset="0"/><stop stop-color="#acacac" offset="1"/></linearGradient><linearGradient id="aq"><stop stop-color="#d61a88" offset="0"/><stop stop-color="#ff8fc8" offset="1"/></linearGradient><linearGradient id="ax" x1="357.8" x2="378.79" y1="-83.713" y2="-51.894" gradientTransform="translate(-8.0812,15.152)" gradientUnits="userSpaceOnUse"><stop stop-color="#8db800" offset="0"/><stop stop-color="#006500" offset="1"/></linearGradient><linearGradient id="ay" x1="446.65" x2="476.92" y1="-139.15" y2="-98.489" gradientTransform="translate(-8.0812,15.152)" gradientUnits="userSpaceOnUse" xlink:href="#aq"/><linearGradient id="az" x1="252.12" x2="233.45" y1="-93.58" y2="-57.467" gradientTransform="translate(-8.0812,15.152)" gradientUnits="userSpaceOnUse" xlink:href="#aq"/><linearGradient id="ba" x1="322.24" x2="273.19" y1="-37.369" y2="-43.178" gradientTransform="translate(-8.0812,15.152)" gradientUnits="userSpaceOnUse" xlink:href="#ar"/><linearGradient id="bb" x1="294.11" x2="239.25" y1="-66.258" y2="-101.97" gradientTransform="translate(-8.0812,15.152)" gradientUnits="userSpaceOnUse" xlink:href="#ar"/><linearGradient id="bc" x1="326.66" x2="366.94" y1="40.707" y2="19.494" gradientTransform="translate(-8.0812,15.152)" gradientUnits="userSpaceOnUse"><stop stop-color="#a00" offset="0"/><stop stop-color="#570000" offset="1"/></linearGradient><linearGradient id="bd" x1="391.19" x2="400.27" y1="-73.977" y2="-20.439" gradientTransform="translate(-8.0812,15.152)" gradientUnits="userSpaceOnUse" xlink:href="#c"/><linearGradient id="be" x1="296.04" x2="310.93" y1="-145.39" y2="-122.15" gradientTransform="translate(-8.0812,15.152)" gradientUnits="userSpaceOnUse" xlink:href="#c"/><linearGradient id="bf" x1="358.56" x2="360.51" y1="-139.2" y2="-107.09" gradientTransform="translate(-8.0812,15.152)" gradientUnits="userSpaceOnUse" xlink:href="#c"/><linearGradient id="bg" x1="359.63" x2="370.04" y1="-175.08" y2="-132.4" gradientTransform="translate(-8.0812,15.152)" gradientUnits="userSpaceOnUse" xlink:href="#c"/><linearGradient id="bh" x1="255.01" x2="272.73" y1="-52.307" y2="-18.557" gradientTransform="translate(-8.0812,15.152)" gradientUnits="userSpaceOnUse" xlink:href="#c"/><linearGradient id="bi" x1="489.61" x2="494.6" y1="-187.26" y2="-167.98" gradientTransform="translate(-8.0812,15.152)" gradientUnits="userSpaceOnUse" xlink:href="#c"/><linearGradient id="bj" x1="230.27" x2="232.75" y1="-150.79" y2="-121.86" gradientTransform="translate(-8.0812,15.152)" gradientUnits="userSpaceOnUse" xlink:href="#c"/><linearGradient id="bk" x1="370.6" x2="362.77" y1="36.088" y2="28.007" gradientTransform="translate(-8.0812,15.152)" gradientUnits="userSpaceOnUse"><stop stop-color="#f00" offset="0"/><stop stop-color="#ff8b8b" offset="1"/></linearGradient><linearGradient id="bl" x1="330.93" x2="367.8" y1="-86.117" y2="-76.773" gradientTransform="translate(-8.0812,15.152)" gradientUnits="userSpaceOnUse"><stop stop-color="#bffbf9" offset="0"/><stop stop-color="#fff" offset="1"/></linearGradient><linearGradient id="bm" x1="376.97" x2="412.59" y1="318.96" y2="319.67" gradientUnits="userSpaceOnUse" xlink:href="#b"/><radialGradient id="aw" cx="352.37" cy="197.93" r="348.89" gradientTransform="matrix(.22772 -.010422 .0031492 .06881 282.23 250.83)" gradientUnits="userSpaceOnUse" xlink:href="#a"/><linearGradient id="bn" x1="128.7" x2="125.61" y1="209.56" y2="152.06" gradientUnits="userSpaceOnUse" xlink:href="#a"/><linearGradient id="bo" x1="299.53" x2="290.48" y1="457.9" y2="404.33" gradientUnits="userSpaceOnUse" xlink:href="#a"/><linearGradient id="bp" x1="467.15" x2="404.82" y1="535.75" y2="617.54" gradientUnits="userSpaceOnUse" xlink:href="#a"/><linearGradient id="bq" x1="124.72" x2="155.4" y1="213.45" y2="178.1" gradientUnits="userSpaceOnUse" xlink:href="#b"/><linearGradient id="br" x1="131.38" x2="124.89" y1="137.42" y2="106.7" gradientUnits="userSpaceOnUse" xlink:href="#b"/><linearGradient id="bs" x1="66.775" x2="74.982" y1="170.17" y2="142.13" gradientUnits="userSpaceOnUse" xlink:href="#b"/><linearGradient id="bt" x1="38.936" x2="42.018" y1="227.54" y2="207.36" gradientUnits="userSpaceOnUse" xlink:href="#b"/><linearGradient id="bu" x1="563.04" x2="603.65" y1="191.36" y2="169.93" gradientUnits="userSpaceOnUse" xlink:href="#b"/><linearGradient id="bv" x1="693.43" x2="717.07" y1="272.22" y2="239" gradientUnits="userSpaceOnUse" xlink:href="#b"/><linearGradient id="bw" x1="704.82" x2="704.78" y1="208.52" y2="174.59" gradientUnits="userSpaceOnUse" xlink:href="#b"/><linearGradient id="bx" x1="650.21" x2="650.28" y1="166.06" y2="122.49" gradientUnits="userSpaceOnUse" xlink:href="#b"/><linearGradient id="by" x1="439.29" x2="367.75" y1="541.76" y2="470.33" gradientUnits="userSpaceOnUse" xlink:href="#a"/><linearGradient id="bz" x1="433.64" x2="390.32" y1="592.81" y2="568.17" gradientUnits="userSpaceOnUse" xlink:href="#a"/><linearGradient id="ca" x1="189.33" x2="203.75" y1="792.61" y2="690.82" gradientUnits="userSpaceOnUse" xlink:href="#a"/><linearGradient id="cb" x1="299.26" x2="367.32" y1="694.99" y2="639.64" gradientUnits="userSpaceOnUse" xlink:href="#a"/><linearGradient id="cc" x1="177.74" x2="156.91" y1="729.81" y2="699.1" gradientUnits="userSpaceOnUse" xlink:href="#a"/><linearGradient id="as" x1="215.29" x2="238.59" y1="730.72" y2="720.36" gradientUnits="userSpaceOnUse" xlink:href="#a"/><linearGradient id="at" x1="363.75" x2="389.05" y1="676.28" y2="666.64" gradientUnits="userSpaceOnUse" xlink:href="#a"/><linearGradient id="au" x1="396.44" x2="419.11" y1="677.42" y2="667.42" gradientUnits="userSpaceOnUse" xlink:href="#a"/></defs><g transform="translate(25.593 17.251)"><g transform="matrix(.26458 0 0 .26458 -27.454 -75.813)"><g transform="matrix(1.0399,0,0,1.0399,-14.988,193.26)"><path d="m274.47 417.53c-3.2089-3.5864-5.0469-10.158-6.315-14.738-6.0257 4.675-5.2743 12.862-5.185 18.488 0.26288 16.553 3.3313 34.436 15.656 46.531 6.3764 6.2574 13.958 11.867 22.656 14.312 17.419-8.2308 30.377-26.594 28.688-46.406-3.3332-24.327-3.6469-47.853-20.295-61.535-0.56945 5.9488-1.9911 14.535-4.7636 19.865-2.5285-13.303-8.1774-25.954-20.16-33.549-2.5745 19.688-4.2328 41.008-10.281 57.031z" style="stroke-linejoin:round;stroke-width:5;stroke:#000"/><path d="m301.07 480.04c-0.89286 0-29.821-10-34.286-40.893-4.4643-30.893 0.35715-31.607 0.35715-31.607 3.5714 11.429 8.0357 13.036 8.0357 13.036s7.6786-11.964 11.25-56.25c14.464 10.357 16.964 36.964 16.964 36.964s6.6071-8.75 8.0357-21.964c6.7857 5.3571 17.857 36.429 16.429 62.679s-26.786 38.036-26.786 38.036z" style="fill:url(#bo)"/></g><g transform="matrix(1.0399,0,0,1.0399,-14.988,193.26)"><path d="m123.41 107.09c-12.87 1.3225-18.06 16.404-19.125 27.844-0.8484 9.1146-0.0774 18.917 0.71875 27.531-5.535 0.057-10.249 3.8993-12.656 8.6875-7.0769-10.654-9.7051-24.269-18.562-33.469-6.8965-7.1628-21.481-3.3679-23.938 6.9062-4.5208 18.905 4.3841 37.815 12.976 54.129 5.4116 10.275 11.791 20.001 18.43 29.496-12.33-7.646-23.601-18.184-37.438-22.375-9.3111-2.8206-22.234 7.3246-19.844 17.031 3.4708 14.097 19.876 20.115 32.094 25.656 12.76 5.7873 24.235 14.382 38.049 17.987 7.9421 12.347 23.079 19.137 37.527 20.17 8.4618 0.60482 16.758-0.23172 25.049-2.1562 30.52 19.666 64.841 33.431 100.89 39.128 21.402 3.3825 41.191 7.2632 62.691 9.635-5.069 76.255-34.727 162.16-90.286 234.42-18.122-6.9425-31.057 6.7022-36.365 14.474-18.564 27.181-29.528 58.889-39.882 90.034-4.8922 14.716-8.9388 33.13 1.6711 46.532 6.0407 7.6304 13.698 12.415 23.206 14.031 10.545 7.5595 26.643 4.3956 35.463 0.28886 15.996 4.1793 29.918-7.9714 37.3-21.32 18.682-31.532 23.94-68.504 19.889-104.46 21.18-24.459 41.627-48.906 60.365-66.66 13.225-12.53 29.931-20.464 47.246-25.819-28.886 13.477-33.297 25.243-36.835 46.14-3.0195 17.834-4.2104 35.767-8.8836 53.329-4.2751 16.065-8.9239 36.674-0.97383 52.205 5.263 10.282 18.148 16.198 30.541 12.625 14.698 9.7855 27.446 7.6872 38.96 2.1518 20.101-6.2301 31.426-23.953 33.584-42.312 3.3331-28.353 5.0031-56.194 3.6998-88.125 9.2732-27.586 13.867-55.09 14.29-80.436 10.714-13.878 18.326-33.486 15.636-51.333-8.2715-46.822-25.507-84.454-40.624-123.3 46.962 0.76578 79.946-10.595 122.22-26.092 12.65 10.984 32.066 6.7196 47.514 7.1264 31.572 0.83156 63.963 12.205 95.381 5.1574 10.953-2.457 24.266-12.803 22.971-25.082-0.98274-9.3232-13.843-10.758-21.633-10.837-15.531-0.15814-30.699-3.1725-45.875-6.1875 23.565-8.8129 48.861-17.049 68.175-33.553 7.4856-6.3966 13.717-20.353 6.5856-28.889-5.3558-6.4105-16.643-8.6934-24.135-5.8399-24.931 11.194-38.862 19.759-65.156 27.562 15.433-15.26 32.004-31.216 39.688-51.938 3.8503-10.384 1.3799-26.277-10.938-29.625-8.3908-2.281-17.162 1.6573-22.219 8.6562-10.103 13.983-20.942 27.062-33.782 38.648-4.7358 4.2732-7.68 7.3615-12.004 11 2.8022-11.85 1.3074-22.34-8.125-30.366-9.3744-7.9764-28.925-6.917-34.009 4.625-3.3175 7.5313 3.1606 16.795 1.6607 24.955-2.6808 14.587-5.7066 29.921-17.705 39.839-11.658 9.6365-26.979 13.691-41.013 18.589-27.365 9.55-53.921 18.899-82.429 24.179-12.385 2.2939-22.834 0.19949-35.17-2.4821-11.178-2.4298-28.004-1.88-37.743 4.2774-6.663 4.2124-13.353 8.4726-21.529 8.9056-30.977 1.6404-61.776-3.352-92.062-9.0938-17.544-3.326-35.195-7.0107-48.714-16.732-2.5819-13.832-13.665-23.295-24.831-30.662-10.834-26.793-6.2868-56.763-10.294-84.931-1.4532-10.216-8.5349-21.021-19.688-19.875z" style="stroke-linejoin:round;stroke-width:5;stroke:#000"/><path d="m658.5 118.94c-4.3046-0.0847-8.3929 1.3125-10.469 2.7188-5.5357 3.75-19.991 26.237-29.812 35.344-9.8214 9.1071-22.312 21.625-22.312 21.625s-4.3884 13.098-9.6562 19.438c7.5 0.89286 19.656 8.058 15.906 28.594-2.8468 15.59-18.246 24.568-25.5 28 6.8555-3.4068 20.701-12.598 21.906-31.75 1.6071-25.536-19.281-21.094-19.281-21.094s23.027-29.272 11.062-47.844c-11.964-18.571-31.067-10-34.281-3.75s4.1205 12.848-0.34375 32.312c-4.4643 19.464-9.1116 32.326-23.219 39.469s-51.621 19.656-82.156 28.406c-30.536 8.75-37.5 10.522-55 10.344s-14.765-5.8668-38.5-3.125c-22.503 2.5995-12.871 11.855-38.125 13.875-25.254 2.0203-74.799-5.1964-112.66-14.125-8.8419-2.0853-20.776-6.8093-27.406-11.964 0.51718 7.1593-4.3389 13.083-10.915 16.312-10.961 5.3825-22.246 5.3045-33.71 1.808-17.586-5.3636-28.592-25.26-24.75-43.094-8.6004-9.2677-17.806-20.18-19.781-33.438-0.64493-4.329 2.12e-4 -9.3042 1.8125-13.656-11.091-18.45-15.111-33.159-20.969-35.625-6.7857-2.8571-23.906-3.9375-18.906 26.062s38.219 72.5 38.219 72.5-34.841-23.866-44.438-27.906c-9.5964-4.0406-21.847 8.2769-18.969 15.156 6.0355 14.423 31.253 22.433 48 31.812 13.135 7.357 18.219 7.9375 18.219 7.9375s-1.4598-4.3036-0.65625-6.625c0 0 7.6829 20.673 29.906 25.219 22.223 4.5457 35.375 0.5 35.375 0.5s38.881 26.502 81.812 35.594c42.931 9.0914 87.125 13.406 87.125 13.406l-3.0312 3.2812s1.2487 45.945-23.5 113.62-66.299 126.6-90.406 150.53c10-13.571 18.688-28.812 18.688-28.812s-13.501-5.1518-25.875 6.8438-26.646 42.663-37 69.938c-10.354 27.274-18.444 50.009-11.625 64.656s21.33 17.973 21.33 17.973-10.754-11.875 1.9241-50.268c-8.3731 49.635 4.1998 54.697 15.902 55.263 16.514 0.79907 37.263-9.3581 45.982-33.621-4.8214 23.036-19.732 30.339-19.732 30.339s18.178 2.2698 31.562-21.469c13.385-23.739 22.223-54.036 17.938-99.75l-15.406 10.875s51.02-54.817 67.688-73 33.966-27.068 53.031-33.205c19.328-6.2215 29.719-16.138 29.719-16.138s-9.6339 12.683-23.562 18.219c-3.0357 15.179-6.9866 56.964-6.9866 56.964s0.37054-38.397 2.5134-52.683c0 0-13.388 1.6071-23.746 18.75-10.357 17.143-9.1027 45.165-13.031 61.594s-15.723 54.821 1.0625 68.75c16.786 13.929 26.461 3.642 31.438-1.25 5.4298-5.3375 11.594-25.875 11.594-25.875-2.8571 24.464-9.817 29.455-16.96 35.17 3.3929 2.8572 18.379 9.8304 30.522 1.0804 4.3488-3.1337 11.449-7.7626 18.938-29.388-1.6071 21.607-13.562 28.857-13.562 28.857s18.92-5.183 27.312-25.719c8.3929-20.536 7.8438-98.594 7.8438-98.594s-18.548 56.115-45.531 58.406c-18.929 1.6071-24.647-15.527-29.647-29.634-4.3874-12.379-3.5714-38.942-3.5714-38.942s2.8642 65.183 29.125 64.826c25.533-0.34724 42.665-42.143 51.594-68.75 8.9286-26.607 11.25-64.812 11.25-64.812s-5.0848 8.6116-26.156 20.219c12.741-10.306 41.645-36.746 42.062-64.875 0.53571-36.071-28.763-105.88-35.906-122.31s-13.75-35.188-13.75-35.188l11.438 19.656c12.679 0.44643 37.871 0.88393 77.156-11.438 39.286-12.321 47.844-15.188 47.844-15.188s7.5 9.8438 31.25 8.5938 46.973 3.567 70.188 5.5312c23.214 1.9643 49.638 1.0536 58.031-15.375 8.3928-16.429-16.241-17.482-24.812-17.125-8.5714 0.35714-39.929-6.3482-39.929-6.3482-0.625 4.1071-4.1161 6.3348-4.1161 6.3348s3.0625-7.5804-0.95536-19.455c3.8393 2.4107 5.1562 9.8125 5.1562 9.8125s65.897-21.955 74.469-43.562c8.5714-21.607-15.714-21.804-20-21.625-4.2857 0.17857-24.103 13.763-40.531 19.656-16.429 5.8929-26.594 8.4062-26.594 8.4062l-4.6562 3.9062c3.3036 4.9107 4.6473 10.996 5.7188 15.906-6.25-14.643-16.062-24.125-16.062-24.125s5.4196 0.65179 8.1875 5.5625c0 0 45.897-40.196 45.719-64.125-0.11161-14.955-7.8882-19.171-15.062-19.312z" style="fill:url(#aw)"/><path d="m105.12 164.47c-5.0893 0.17857-10.112 3.2455-12.969 12.531-5.7143 18.571 17.473 39.022 17.473 39.022s2.4241-4.9866 7.1562-6.3259c0 0-11.607 13.906-0.71428 36.049 6.6408 13.499 19.831 17.674 32.147 18.692 3.0458 1.4332 6.6415 2.2812 10.5 2.2812 10.949 0 19.812-6.6774 19.812-14.906-2.0748-6.1933-2.1517-11.257-5.5-17.844-6.3971-12.585-16.946-16.237-28.375-26.594s-20.179-33.42-26.25-38.062c-3.0357-2.3214-8.192-5.0223-13.281-4.8438z" style="fill:#b3452a"/><path d="m124.25 109.06c-7.9706 0.20819-13.849 8.7812-16.031 15.969-2.5108 8.2707-3.3238 21.068-1 37.469 4.6788 0.28754 9.3142 2.0913 12.531 5.3125 11.82 11.836 15.631 30.369 29.344 40.688 0.37865 0.28494 0.76966 0.56245 1.1562 0.84375-1.2776-3.9682-2.4818-8.269-3.4688-12.875-6.9643-32.5 0.72322-72.326-12.312-83.219-3.6663-3.0636-7.0998-4.269-10.219-4.1875z" style="fill:url(#bn)"/><path d="m383.35 282.63c11.238 2.6516 20.708 22.097 20.708 22.097s-7.955-2.5254-15.91-1.5152c14.521 6.4397 10.733 26.011 10.733 26.011s-3.5355-4.4194-7.3236-4.672c4.5457 15.531-7.0711 32.577-7.0711 32.577s-14.9-25.254-14.521-44.573 13.385-29.926 13.385-29.926z"/><path d="m372.39 336.43c2.1476 6.0298 5.7972 13.045 11.008 20.705 4.9187-11.503 9.7448-23.282 4.7538-35.706 5.1556 0.0304 7.32 1.8046 9.1639 2.9776 0.8368-9.1878-5.4629-19.062-15.535-21.981 10.061-3.1895 16.594-1.009 18.348-0.67479-4.0964-6.6553-12.598-16.152-20.069-19.179-14.066 17.579-13.024 38.823-7.669 53.858z" style="fill:url(#bm)"/><path d="m436.59 554.31s-18.548 56.115-45.531 58.406c-18.929 1.6071-24.656-15.518-29.656-29.625-8.0165 4.714-11.916 16.606-15.688 20.688 14.175 59.249 50.912 22.674 83.031 49.125 8.3929-20.536 7.8438-98.594 7.8438-98.594z" style="fill:url(#bp)"/><path d="m104.78 166.5c-9.2446 1.1137-12.623 12.767-11.156 20.656 1.9714 9.8201 8.7791 19.35 15.781 25.5 3.0583-4.444 8.6194-5.4543 13.344-7.2188-10.314 9.532-11.767 25.318-5.7812 37.469 4.822 13.085 19.119 18.95 32.062 19.719 9.3494 4.5608 24.839 1.8869 27.438-9.625-1.8105-11.667-5.9467-23.916-16.094-30.875-11.297-8.0087-22.691-16.457-29.156-29.094-6.1856-8.4419-8.8839-21.142-19.5-25.281-2.1957-0.82751-4.5353-1.4516-6.9375-1.25z" style="fill:url(#bq)"/><path d="m123.59 111.09c-10.931 2.3304-14.764 15.459-15.406 25.281-0.60152 8.0534-0.50873 16.708 1.0625 24.344 9.0966-21.491 33.117-6.9354 29.469-35.094-1.152-7.5127-7.0556-14.942-15.125-14.531z" style="fill:url(#br)"/><path d="m62.281 138.41c-9.2793 0.88917-10.407 12.176-9.5625 19.562 2.765 24.179 16.837 45.306 29.89 65.16 6.2079 0.0967 12.909-0.16404 24.516-2.0663-10.81-11.708-25.263-28.918-18.469-47.125-6.6372-10.118-11.044-28.341-19.125-34.406-2.0102-1.5086-4.746-1.3649-7.25-1.125z" style="fill:url(#bs)"/><path d="m87.411 236.65s-39.286-26.161-44.732-27.143c-5.4464-0.98215-15.893 5.7143-14.554 11.518 1.3393 5.8036 11.25 15.268 27.946 23.482 16.696 8.2143 26.161 12.232 26.161 12.232z" style="fill:url(#bt)"/><path d="m513.21 233.26s20.714-6.7857 27.857-13.214 18.75-33.75 18.393-48.929c-0.35715-15.179-3.5714-16.786-1.4286-19.821 2.1428-3.0357 13.75-11.071 23.393-2.3214 9.6429 8.75 9.6429 16.964 8.2143 26.071-1.4286 9.1072-16.071 30.536-16.071 30.536s9.4643-4.4643 18.036 3.3928c8.5714 7.8572 2.5 25.893-1.25 30.536s-27.143 18.929-27.143 18.929z" style="fill:url(#bu)"/><path d="m598.93 180.4c1.6072-1.25 21.25-18.571 28.929-28.214 7.6786-9.6429 15.714-23.929 20.714-28.214 5-4.2857 17.143-4.8214 20.893 3.3929s2.5 16.964-1.0714 23.393-21.25 28.393-30.179 37.143-39.286-7.5-39.286-7.5z" style="fill:url(#bx)"/><path d="m634.82 204.68s27.857-7.5 36.964-12.857c9.1071-5.3572 26.071-15.893 30-16.25 3.9286-0.35715 16.071-1.0714 17.857 7.3214 1.7857 8.3928-1.0714 17.321-11.607 23.929-10.536 6.6071-56.071 26.964-56.071 26.964z" style="fill:url(#bw)"/><path d="m649.82 245.4s21.429 5.5357 30 4.8214c8.5714-0.71428 28.214 1.0714 30.179 5.3572 1.9643 4.2857-1.9643 14.464-10.893 18.214-8.9286 3.75-28.036 5.8929-42.857 3.5714s-29.821-6.4286-29.821-6.4286z" style="fill:url(#bv)"/><path d="m250.36 618.08c2.5-2.5 61.071-75.357 80.357-88.571s40.357-16.071 57.143-26.429c16.786-10.357 28.571-8.9286 51.071-30.357 22.5-21.429 23.929-31.429 22.857-47.5-1.0714-16.071-3.5714-58.929-41.429-50-37.857 8.9286-74.286 31.786-111.07 87.857-36.786 56.071-95.714 138.57-95.714 138.57s5.7143 21.786 36.786 16.429z" style="fill:url(#by)"/><path d="m381.25 519.33s-10.179 65.893-5.5357 75.536c4.6428 9.6429 7.5 13.75 17.143 10.893 9.6429-2.8571 28.214-26.607 40.536-59.643 12.321-33.036 12.143-59.286 12.143-59.286z" style="fill:url(#bz)"/><path d="m185 662.18c-1.4286 2.5-12.5 38.393-7.6786 54.643s16.071 16.786 30.536 12.5c14.464-4.2857 21.964-13.929 28.929-34.286 6.9643-20.357 8.0357-30 8.0357-30z" style="fill:url(#ca)"/><path d="m341.79 591.47s-9.1072 44.821-8.5714 54.821c0.53571 10 7.8571 24.643 17.321 26.786 9.4643 2.1428 18.929-3.5714 23.393-16.429 4.4643-12.857 8.75-27.321 8.75-27.321z" style="fill:url(#cb)"/><path d="m156.59 682.72c-1.2285 0-2.4383 7e-3 -3.6562 0.0312-2.69 11.391-3.1779 21.122 0.34375 28.688 6.8185 14.647 21.344 17.969 21.344 17.969s-9.8838-10.941 0.5-45.719c-6.0045-0.62378-12.207-0.96875-18.531-0.96875z" style="fill:url(#cc)"/><path d="m237.31 705.25c-5.6609 19.531-18.625 25.875-18.625 25.875s15.693 1.9416 28.656-16.844c-2.8566-3.1957-6.2069-6.2131-10.031-9.0312z" style="fill:url(#as)"/><path d="m385.19 647c-1.0924 0-2.1714 0.0288-3.25 0.0625-3.1328 20.904-9.6875 25.625-16.406 31 3.3929 2.8572 18.388 9.8438 30.531 1.0938 4.2339-3.0509 11.075-7.5593 18.344-27.75-8.7264-2.8095-18.664-4.4062-29.219-4.4062z" style="fill:url(#at)"/><path d="m414.84 651.56c-2.1127 20.214-13.406 27.062-13.406 27.062s16.518-4.5207 25.531-21.875c-3.6805-2.0098-7.7392-3.7483-12.125-5.1875z" style="fill:url(#au)"/></g><g transform="matrix(1.0399,0,0,1.0399,-4.7908,408.13)"><path d="m477.98-177.07c-20.792 1.186-36.159 16.992-51.161 29.5-7.5398 6.2861-15.452 12.399-20.183 21.219-10.442-8.0879-23.979-11.372-37.062-12.062 5.2591-8.4247 13.767-14.226 20.156-21.781-12.296 1.4923-22.863 10.399-31.5 17.406 0.27926-11.216-2.5011-23.619-12.594-30.031 2.0547 9.8578 0.74151 21.379-3.25 29.875-3.32-10.944-14.733-16.916-25.656-17.531 4.3467 6.9246 8.5508 14.342 9.5312 22.531-21.857-1.205-41.111 9.9032-51.663 23.22-11.74-0.4323-23.136-6.3499-31.035-14.526-4.187-4.3342-9.9032-11.713-16.897-11.987-10.661-0.41625-18.419 8.6937-21.645 17.88-9.7864 27.868-10.727 58.6-4.2924 87.289 1.4882 6.6355 2.6098 16.049 9.345 18.624 4.8054 1.8368 4.1928-6.9604 4.7812-10.438 3.5142-1.573 6.0195-4.669 7.375-8.2188 1.11 3.3055 1.3761 6.8046 2.2188 10.188 1.5427-2.7785 3.1776-6.5748 4.375-9.0312 2.8224 2.3074 4.0462 5.919 4.875 9.3438 2.3711-0.59896 4.7814-3.1979 6.0312-4.3438 0.36338 2.494-0.0324 4.2127-7e-3 6.1854 2.0605-1.1484 5.4792-4.2313 8.6618-6.3595 1.3947 4.71-3.4555 8.136-5.4987 11.299-9.2092 14.256-12.105 31.953-9.9062 48.531 0.77478-1.9088 1.7921-3.3189 3.6384-7.7009-0.1001 8.9053 0.4458 24.811 12.049 28.504 3.8061 3.5282 8.1275 5.4148 14.304 8.9145 12.512 7.0898 26.964 8.4637 39.665 15.001 18.214 8.0836 40.309 10.399 58.281 0.28125 10.485-5.9032 19.821-14.031 27.688-22.938 32.811-6.6312 43.128-28.85 47.875-36.675-0.0949 2.7674-0.75408 7.166-3.148 13.252 9.5307-7.3485 10.992-14.21 12.086-21.202 0 0 1.3786 2.2885 2.2653 3.5241 3.394-11.46 0.65735-24.345-1.2341-28.399 2.107 0.85483 3.2187 2.0234 4.6888 3.2184 0.14156-16.429-5.3186-28.822-14.439-35.718 3.0884-0.92834 7.5506-0.67768 11.592-0.89254-1.4997-1.1723-2.8113-2.0598-4.1521-3.3978 5.4409-2.9024 9.6463-9.4763 11.842-13.897 0.80977 4.0716 0.73169 6.7378 1.073 9.9063 2.4138-2.441 3.2397-4.4133 4.5833-7.7085 0.34788 5.3072-0.13216 12.957-0.625 18.365 6.5056-4.3497 12.214-10.806 16.188-16.906 4e-3 5.5719-1.5486 10.918-2.9062 16.312 5.2058-3.551 10.089-7.4409 14.375-11.938-0.4297 2.4655-1.0313 3.0545-1.6774 4.9899 2.5005-0.8454 2.295-0.28789 6.7073-4.0577-0.32277 1.4703-0.69964 2.7171-1.004 3.6289 4.07-1.1283 8.681-4.3054 11.724-5.7886-1.3328 9.6815 1.5985 14.337 5.7812 11.477 10.229-6.9918 12.032-20.564 13.408-32.167 2.9013-24.463 4.8242-51.765-8.4848-73.514-7.6947-12.575-21.709-22.136-37.142-21.256z" style="fill:#1a1a1a;stroke-linejoin:round;stroke-width:5;stroke:#000"/><path d="m334.36 10.15c-0.65529 5.5405-6.8185 15.405-19.445 19.698-12.627 4.2932-19.193 1.7678-22.728-1.5152-3.5355-3.283-16.463-45.677-7.0711-63.892 8.3338-16.162 21.495-8.3119 27.022-4.0406 5.991 4.6301 23.79 36.504 22.223 49.75z" style="fill:#333"/><path d="m286.88-75.966 2.2728 4.7982s38.638-31.062 36.618-58.463c-20.582 32.83-38.891 53.664-38.891 53.664z" style="fill:#333"/><path d="m258.85-56.899 0.50508 10.859-9.4702 10.733s-0.75762-5.6821 0.63134-9.9753c1.389-4.2931 8.3338-11.617 8.3338-11.617z" style="fill:#333"/><path d="m274.17-79.916c-6.181-0.22057-13.201 7.2442-13.438 9.375-0.25254 2.2728 0.0117 40.674 5.0625 45.094 2.749 2.4054 9.3066 0.10009 14.719-2.4688 1.1834-6.1958 4.021-12.47 8.7812-16.156 0.30991-4.5364-0.18304-10.6-1.6562-20.281-1.7678-11.617-5.8103-14.017-12.25-15.406-0.40248-0.0868-0.80668-0.14155-1.2188-0.15625z" style="fill:url(#bb)"/><path d="m219.42-101.85c-1.119-5e-3 -2.2689 0.25944-3.5 0.875-6.566 3.283-5.5439 30.817-4.2812 39.656 1.2627 8.8388 3.5287 21.222 3.7812 24s-0.75 7.3125-0.75 7.3125 5.993-2.8206 6.6875-11.344c2.9042 1.9572 3.9062 9.3438 3.9062 9.3438s1.8431-3.4108 1.9062-6.0625c5.8084 1.7046 7.8125 9.5938 7.8125 9.5938s2.9147-1.4511 5.1875-6.3125c2.0834 1.7046 1.5 7.0625 1.5 7.0625s3.0854-2.5364 6.375-5.9688c-0.68748-5.7049-0.76457-11.81 2.8125-16.531 0.35047-0.75561 0.84884-1.4533 1.375-2.125-0.25614-4.548-0.56321-9.1007-0.375-13.656-0.457-8.1425 2.4462-15.341 6.3438-22.125-5.4296-0.41003-12.084-1.4752-18.281-4-11.08-4.5141-15.651-9.6955-20.5-9.7187z" style="fill:url(#az)"/><path d="m294.83-128.1c-17.22 10.485-24.47 24.858-27.5 29.656-3.0305 4.7982-7.9632 10.497-11.625 20.094-2.2584 5.9187-2.072 16.563-1.5938 23.875 1.4077-1.8663 3.5418-3.6686 4.72-5.2394-0.85513-5.0784-0.2421-11.348 2.3509-15.712 4.3036-7.2419 18.691-10.334 23.867-1.4553 14.337-16.876 37.292-48.828 40.168-58.99-16.183 0.44656-24.481 4.175-30.386 7.7708z" style="fill:#b3452a"/><path d="m479.86-175.1c-9.8332-0.0158-18.295 4.0027-23.156 6.8438-9.7227 5.6821-40.268 31.44-44.688 37.375-4.4194 5.9346-4.6562 7.9375-4.6562 7.9375s-5.4961-6.4846-19.954-10.594c-11.996-3.4093-20.957-2.8996-20.957-2.8996s0.62341-5.4481 17.67-20.474c-14.395 4.7982-28.165 19.467-28.165 19.467s2.5403-21.851-7.6875-30.438c2.2728 16.036-6.5938 31.438-6.5938 31.438s-0.35564-18.061-20.938-21.344c0 0 8.1938 12.999 7.5625 22.469-0.50863 7.6294 1.0239 11.178-2.1875 18.469-0.0202 0.0629-0.0421 0.12467-0.0625 0.1875-6.3823 19.705-21.7 35.174-37.156 48.281 1.3947 7.5509 2.6328 15.255 2.4375 22.969 1.728-0.95727 3.6796-1.6063 5.8438-1.8438 6.2137-0.42903 12.124 2.7864 16.812 6.5938 10.249 12.075 17.324 26.922 21.594 42.156 3.9752 11.826-5.0168 23.313-15.281 28.281-9.2077 4.2783-24.515 8.9644-30.344-1.0625-6.6874-11.503-11.922-37.274-9.7812-54.312-4.6629 2.053-9.7803 4.4182-14.719 2.3438-5.4995-4.578-4.463-13.084-5.7188-19.5-4.0805 3.3061-7.813 8.8217-8.9745 10.67-0.17179 3.5358 1.3114 6.386-0.99422 8.3922-4.0279 3.5049-10.458 12.48-13.036 22.299-1.4566 5.548-2.9777 16.813-2.6205 24.67 0 0 3.1558-9.5709 6.3125-11.844-2.6516 10.228-2.283 16.285-0.0102 25.376 2.2728 9.0914 5.5726 10.217 5.5726 10.217s-2.2939-9.4683-1.0312-12.625c1.5152 5.9346 2.2854 13.373 8.0938 16.656s15.66 11.123 30.812 14.406 36.106 18.938 62.875 12.625c26.769-6.3134 47.875-37 47.875-37-0.12627 4.5457-2.4062 7.7188-2.4062 7.7188s19.795-4.6975 32.312-20.344c11.112-13.89 13.136-20.72 13.136-20.72 2.1466 3.5355 0.23858 13.908 0.23858 13.908s6.9502-10.098 5.6875-22.094l2.7813 5.1563s2.161-16.651-4.5312-26.5c2.6516-0.12627 7.3125 3.5312 7.3125 3.5312s-0.26364-24.005-17.562-32.844c4.2932-1.5152 11.375-1.625 11.375-1.625s-12.88-9.5947-15.531-28.156c-2.6516-18.562-4.7878-24.487 5.1875-38.25s26.509-35.988 47.344-30.938c20.834 5.0508 28.522 29.922 29.406 50.125 0.88389 20.203-3.2838 40.266-3.0312 44.937 0.25254 4.672 3.1723 3.6766 4.6875 1.6562 1.5152-2.0203 5.9185-6.5839 7.8125-13.781 1.894-7.1973 13.146-64.14-7.5625-90.656-10.354-13.258-21.573-17.297-31.406-17.312z" style="fill:#b3452a"/><path d="m350.64-161.69c-0.23525 11.821-4.8479 22.977-10.938 32.938 1.7238-10.659-3.3863-22.718-14.344-25.844-0.94019 0.62248 2.3348 5.0549 2.6875 7.3125 3.2405 8.2066 2.43 17.385 1.625 25.969-3.4171 13.15-10.514 24.674-19.281 34.875 67.561-40.607 68.958-26.669 97.531-32.875-10.445-11.787-27.39-14.966-42.469-15.125-3.0762-0.17415 0.21443-5.2472 1.375-7.125 1.8165-2.6087 3.8819-5.1255 6.125-7.4375-7.3467 4.7651-13.657 10.72-19.562 17.125 1.1662-9.9112 1.7335-20.701-2.75-29.812z" style="fill:url(#bg)"/><path d="m344.21 6.8543c2.2728-2.5254 7.9944-27.352 33.588-39.396 25.759-12.122 53.538-11.112 59.599-5.8084 6.0609 5.3033 10.102 16.162 10.102 16.162s-5.5558-4.0406-9.5964-1.2627c0 0 5.5558 7.3236 6.8185 19.698-2.7779-4.2931-6.8185-4.2931-6.8185-4.2931 6.3134 8.5863 2.7779 18.183 2.7779 18.183s-1.7678-7.0711-7.3236-8.3338c1.5152 5.3033-0.75762 9.5964-5.3033 15.657-9.6262 12.835-28.537 19.445-40.911 18.688-12.374-0.75762-42.931-29.294-42.931-29.294z" style="fill:url(#bd)"/><path d="m223.17-138.01c-14.822 1.062-19.826 22.339-23.219 45.375-3.3928 23.036 0.91071 45.527 2.875 56.062 1.9643 10.536 6.9464 18.228 8.375 17.156 1.4286-1.0714 2.1607-10.915 1.625-19.844-0.53572-8.9286-3.5938-17.496-4.8438-34.281-1.25-16.786 3.058-29.634 9.8438-31.062 6.7857-1.4286 6.2455 3.9196 23.031 9.8125 6.5668 2.3054 13.156 3.6216 18.781 4.3438 4.8119-7.7397 9.5641-15.914 14.062-22.25-13.689-0.94982-22.157-6.826-28.938-12.094-8.8717-6.936-11.749-13.924-21.594-13.219z" style="fill:#b3452a"/><path d="m322.81-70.521c1.7857-1.7857 2.5-34.821 23.571-42.5 21.071-7.6786 47.5 41.071 47.5 41.071z" style="fill:url(#bf)"/><path d="m352.79-96.978c-0.40239 7e-3 -0.81299 0.0268-1.2188 0.0625-11.921 0.3343-19.887 11.685-21.438 22.688-3.0902 16.79-0.48661 36.539 7.6562 55.062 9.1412-0.29029 12.368-0.56767 15-1.3438-0.80593 1.5589-1.0625 2.5-1.0625 2.5s9.5638-8.4592 17.5-13.75c9.1071-6.0714 23.75-9.8125 23.75-9.8125-2.653-1.6979-6.0102-2.0504-11.25-0.3125-0.83489-16.649-3.2689-33.924-13.531-47.469-3.7664-4.6061-9.3704-7.7238-15.406-7.625z"/><path d="m352.83-94.947c-0.76123 6e-3 -1.5402 0.0502-2.3438 0.15625-25.714 3.3928-19.263 46.804-17.656 52.875s7.3125 20.688 7.3125 20.688 8.7589 0.19196 13.938-1.5938l0.1875-0.125c2.2315-3.2857 6.3092-7.7793 13.719-12.188 4.797-2.8539 8.6915-4.8268 11.938-6.0938-0.28433-10.859-4.4047-53.887-27.094-53.719z" style="fill:url(#bl)"/><path d="m354.67-80.103c-0.97243 0.0183-1.9449 0.17167-2.9062 0.40625-10.255 2.5022-15.607 16.71-11.938 31.75 2.6674 10.932 9.355 19.274 16.75 22.062 3.8244-1.4672 7.0441-4.7912 12.416-7.9873 3.5709-2.1244 6.7002-4.1273 8.3024-6.2314 1.1456-5.0493 1.1524-10.903-0.3125-16.906-3.3258-13.63-12.912-23.271-22.312-23.094z"/><path d="m355.04-77.166c-0.86917 0.0164-1.7344 0.13408-2.5938 0.34375-9.1659 2.2365-13.936 14.963-10.656 28.406 2.6103 10.698 9.5371 18.613 16.875 20.281 2.2926-2.228 5.3084-4.6178 9.3125-7 2.3985-1.427 4.5835-2.6479 6.5625-3.6562 1.726-5.035 2.0102-11.305 0.4375-17.75-2.9726-12.183-11.536-20.784-19.938-20.625z" style="fill:url(#ax)"/><path transform="matrix(.47489 -.11587 .12133 .49727 167.78 -83.297)" d="m387.52 154.46c0 15.482-8.9604 28.032-20.014 28.032-11.053 0-20.014-12.55-20.014-28.032 0-15.481 8.9604-28.032 20.014-28.032 11.053 0 20.014 12.55 20.014 28.032z"/><path transform="matrix(.42273 -.10315 .10801 .44266 179.67 -90.902)" d="m387.52 154.46c0 15.482-8.9604 28.032-20.014 28.032-11.053 0-20.014-12.55-20.014-28.032 0-15.481 8.9604-28.032 20.014-28.032 11.053 0 20.014 12.55 20.014 28.032z" style="fill:#fff"/><path d="m396.2-17.072c-2.7286-0.01184-6.2359 0.33423-10.75 1.2812-18.056 3.7881-19.781 12.312-19.781 12.312s9.1889-5.5712 17.406-8.1875c0.93369 10.087-18.267 42.71-45.938 50.344-37.839 10.438-68.397-1.1666-79.781-10.844 1.8269-4.6408 5.2812-12.375 5.2812-12.375s-9.5976 8.214-9.2188 14.906 2.6562 9.0938 2.6562 9.0938-0.70427-4.6384 0.21875-8.5938c8.2758 9.89 38.031 14.5 38.031 14.5s19.883 31.362 52.781 24.75c25.759-5.177 31.331-33.319 35.75-45.062 3.8286-10.173 5.6817-21.941 6.25-38.094 8.1142-1.2471 16.406-0.75 16.406-0.75s-1.1267-3.2457-9.3125-3.2812z"/><path d="m298.63 45.631c10.354 16.162 31.82 22.602 35.482 22.728-0.88389-5.0508 5.177-17.425 12.753-23.991 10.481-9.0832 16.794-7.3236 16.794-7.3236 6.3134-4.1669 12.753-2.3991 12.753-2.3991 9.3439-23.739 9.7227-42.3 9.7227-42.3s-10.656 36.572-44.068 47.856c-28.789 9.7227-43.437 5.4296-43.437 5.4296z" style="fill:url(#bc)"/><path d="m337.01 68.36c5.0508 0.37881 17.678-0.50508 25.128-8.3338 7.4499-7.8287 13.006-22.728 13.006-22.728s-4.9245-1.1364-9.7227 1.7678-9.3439 9.5964-9.3439 9.5964 0.25254-5.0508 4.1669-8.8388c0 0-8.8388 1.6415-15.531 10.859-6.6923 9.2176-7.7024 17.678-7.7024 17.678z" style="fill:url(#bk)"/><path d="m473.95-148.79c-0.48991 3.7e-4 -0.97055 8.1e-4 -1.4688 0.0312-17.514 1.9438-28.471 17.801-38.25 30.781-6.7533 7.8263-8.2961 18.566-6.0938 28.406 0.76344 12.485 5.156 25.126 14.188 33.75 2.0312-1.1511 4.5188-3.1076 7.3125-6.5 5.3033-6.4397 6.6875-12.375 6.6875-12.375 1.5152 1.6415 2.0312 9.8437 2.0312 9.8437s2.155-3.6693 2.2812-8.5937c4.7982 5.4296 2.7812 21.219 2.7812 21.219s9.0666-6.5631 14.875-18.937c2.3991 6.9448-0.75 17.937-0.75 17.937s9.7318-7.0801 14.656-14.656c1.6415 3.283-2.2812 9.3438-2.2812 9.3438l9.8438-7.8438c-0.25254 4.0406-4.5312 7.8438-4.5312 7.8438s5.1516-3.2734 10.031-5.8125c1.9242-18.883 4.4189-38.13-1.4062-56.5-3.5556-13.769-14.719-27.949-29.906-27.938z" style="fill:url(#ay)"/><path d="m324.89-96.042s7.4499-20.961 23.36-22.476 28.284 14.9 28.284 14.9-15.91-12.879-27.905-11.869c-11.996 1.0102-23.739 19.445-23.739 19.445z"/><path d="m297.92-43.285c-9.938 0.87831-13.764 12.897-14.031 21.438-0.42602 16.642 2.727 33.608 9.625 48.688 7.8223 6.4586 19.717 2.3109 27.75-2.2188 7.7991-4.6347 13.813-14.058 10.188-23.188-4.3066-14.154-10.753-28.23-20.531-39.437-3.7334-2.8519-8.1654-5.413-13-5.2812z" style="fill:url(#ba)"/><path d="m320.98-133.66c-22.362 0.38208-41.058 16.368-51.344 35.281-7.1681 10.318-15.054 21.399-13.844 34.719-0.71432 3.571 1.3006 5.4726 0.71875 1.0312-0.90391-8.9429 3.6739-19.059 13.125-21 5.3019-1.481 11.662-0.72282 15.5 3.5312 13.522-17.011 27.16-34.279 37.156-53.656l-1.3125 0.0937z" style="fill:url(#be)"/><path d="m279.43-16.379s-20.834-8.5863-28.916-3.283-12.914 19.551-14.521 31.694c0 0 3.46-3.9666 6.6743-5.3952-3.5714 17.143-0.2346 22.947-0.2346 22.947s10.733-11.364 17.678-14.521 24.749 1.894 24.749 1.894-5.9653-19.764-5.4296-33.335z" style="fill:url(#bh)"/><path d="m480.42-173.13c-0.74859-6e-3 -1.4936 9e-3 -2.25 0.0625-19.845 1.1298-34.003 16.995-48.75 28.531-7.0864 6.674-16.151 12.696-20.031 21.875 2.2363 9.4025 7.1168 18.01 14 25.281-0.0537-0.79206-0.13995-1.5896-0.1875-2.375-0.0427-14.204 11.133-24.698 19.156-35.031 9.5249-11.309 24.639-21.915 40.125-16.656 18.519 5.9163 26.347 26.675 28.344 44.531 1.1578 9.086 0.75584 18.174-0.0312 27.25 3.0939-1.1656 6.0634-2.533 8.9062-4.0312 0.39597-3.9061 0.74215-7.8245 1.2812-11.625 1.26-21.217 1.3887-44.896-12.25-62.437-6.8112-8.6123-17.084-15.285-28.312-15.375z" style="fill:url(#bi)"/><path d="m223.36-136c-10.833 1.0297-14.893 13.663-17.333 22.494-7.4632 27.452-6.839 56.966 0.89526 84.318 0.83105 1.8662 2.3052 6.286 3.4375 6.125 3.6753-23.79-9.4164-47.607-2.6875-71.281 1.3177-6.919 7.6862-14.979 15.469-11.844 10.49 7.2185 22.711 12.023 35.5 13.594 3.4132-6.1162 8.5979-13.111 11.031-18.531-15.233-1.7614-27.015-12.31-37.688-22.406-2.4273-1.9342-5.5549-2.7898-8.625-2.4688z" style="fill:url(#bj)"/></g></g></g></svg>
