<?xml version="1.0" encoding="UTF-8"?>
<svg width="356.3mm" height="214.19mm" version="1.1" viewBox="0 0 356.3 214.19" xmlns="http://www.w3.org/2000/svg" xmlns:xlink="http://www.w3.org/1999/xlink"><defs><style type="text/css">.fil1 {fill:none}
    .fil23 {fill:url(#a)}
    .fil21 {fill:url(#aa)}
    .fil26 {fill:url(#al)}
    .fil3 {fill:url(#as)}
    .fil17 {fill:url(#at)}
    .fil18 {fill:url(#au)}
    .fil9 {fill:url(#av)}
    .fil8 {fill:url(#aw)}
    .fil12 {fill:url(#ax)}
    .fil0 {fill:url(#ay)}
    .fil25 {fill:url(#ab)}
    .fil6 {fill:url(#ac)}
    .fil10 {fill:url(#ad)}
    .fil15 {fill:url(#ae)}
    .fil24 {fill:url(#af)}
    .fil19 {fill:url(#ag)}
    .fil7 {fill:url(#ah)}
    .fil4 {fill:url(#ai)}
    .fil22 {fill:url(#aj)}
    .fil2 {fill:url(#ak)}
    .fil16 {fill:url(#am)}
    .fil13 {fill:url(#an)}
    .fil5 {fill:url(#ao)}
    .fil11 {fill:url(#ap)}
    .fil14 {fill:url(#aq)}
    .fil20 {fill:url(#ar)}</style><linearGradient id="a" x1="16231" x2="18992" y1="10096" y2="8533.6" gradientUnits="userSpaceOnUse"><stop stop-color="#00A0E3" offset="0"/><stop stop-color="#002D3B" offset="1"/></linearGradient><linearGradient id="aa" x1="14947" x2="15107" y1="11298" y2="-89.822" gradientTransform="matrix(.019111 0 0 .019111 -95.929 -42.758)" gradientUnits="userSpaceOnUse" xlink:href="#a"/><linearGradient id="al" x1="17035" x2="17116" y1="11247" y2="5534.3" gradientTransform="matrix(.019111 0 0 .019111 -95.929 -42.758)" gradientUnits="userSpaceOnUse" xlink:href="#a"/><linearGradient id="as" x1="1382.6" x2="1433.9" y1="3615.8" y2="-35.082" gradientTransform="matrix(.019111 0 0 .019111 -95.929 -42.758)" gradientUnits="userSpaceOnUse" xlink:href="#a"/><linearGradient id="at" x1="10193" x2="10353" y1="11312" y2="-103.79" gradientTransform="matrix(.019111 0 0 .019111 -95.929 -42.758)" gradientUnits="userSpaceOnUse" xlink:href="#a"/><linearGradient id="au" x1="11394" x2="11555" y1="11311" y2="-102.87" gradientTransform="matrix(.019111 0 0 .019111 -95.929 -42.758)" gradientUnits="userSpaceOnUse" xlink:href="#a"/><linearGradient id="av" x1="3637.8" x2="3783.1" y1="10249" y2="-92.306" gradientTransform="matrix(.019111 0 0 .019111 -95.929 -42.758)" gradientUnits="userSpaceOnUse" xlink:href="#a"/><linearGradient id="aw" x1="3075.8" x2="3196.4" y1="8502" y2="-78.014" gradientTransform="matrix(.019111 0 0 .019111 -95.929 -42.758)" gradientUnits="userSpaceOnUse" xlink:href="#a"/><linearGradient id="ax" x1="6420.9" x2="6581.4" y1="11318" y2="-110.37" gradientTransform="matrix(.019111 0 0 .019111 -95.929 -42.758)" gradientUnits="userSpaceOnUse" xlink:href="#a"/><linearGradient id="ay" x1="-230.97" x2="4138" y1="3904" y2="1148.2" gradientTransform="matrix(.019111 0 0 .019111 -95.929 -42.758)" gradientUnits="userSpaceOnUse" xlink:href="#a"/><linearGradient id="ab" x1="16385" x2="18889" y1="8741.3" y2="9977" gradientTransform="matrix(.019111 0 0 .019111 -95.929 -42.758)" gradientUnits="userSpaceOnUse" xlink:href="#a"/><linearGradient id="ac" x1="-410.96" x2="7579.5" y1="7262.5" y2="2508.3" gradientTransform="matrix(.019111 0 0 .019111 -95.929 -42.758)" gradientUnits="userSpaceOnUse" xlink:href="#a"/><linearGradient id="ad" x1="62.768" x2="11508" y1="9140.5" y2="2067.4" gradientTransform="matrix(.019111 0 0 .019111 -95.929 -42.758)" gradientUnits="userSpaceOnUse" xlink:href="#a"/><linearGradient id="ae" x1="3395.8" x2="14705" y1="8893.8" y2="2314.1" gradientTransform="matrix(.019111 0 0 .019111 -95.929 -42.758)" gradientUnits="userSpaceOnUse" xlink:href="#a"/><linearGradient id="af" x1="12223" x2="19007" y1="7983.4" y2="4127.5" gradientTransform="matrix(.019111 0 0 .019111 -95.929 -42.758)" gradientUnits="userSpaceOnUse" xlink:href="#a"/><linearGradient id="ag" x1="8632.1" x2="18546" y1="8602.9" y2="2605" gradientTransform="matrix(.019111 0 0 .019111 -95.929 -42.758)" gradientUnits="userSpaceOnUse" xlink:href="#a"/><linearGradient id="ah" x1="4.7678" x2="9546.9" y1="3490" y2="7717.9" gradientTransform="matrix(.019111 0 0 .019111 -95.929 -42.758)" gradientUnits="userSpaceOnUse" xlink:href="#a"/><linearGradient id="ai" x1="-116.6" x2="6562.6" y1="3693.3" y2="5962.8" gradientTransform="matrix(.019111 0 0 .019111 -95.929 -42.758)" gradientUnits="userSpaceOnUse" xlink:href="#a"/><linearGradient id="aj" x1="13045" x2="18812" y1="5417.9" y2="7652.3" gradientTransform="matrix(.019111 0 0 .019111 -95.929 -42.758)" gradientUnits="userSpaceOnUse" xlink:href="#a"/><linearGradient id="ak" x1="42.322" x2="5422.2" y1="5254.5" y2="1989.2" gradientTransform="matrix(.019111 0 0 .019111 -95.929 -42.758)" gradientUnits="userSpaceOnUse" xlink:href="#a"/><linearGradient id="am" x1="7468.4" x2="16780" y1="3425.3" y2="7782.6" gradientTransform="matrix(.019111 0 0 .019111 -95.929 -42.758)" gradientUnits="userSpaceOnUse" xlink:href="#a"/><linearGradient id="an" x1="4359.6" x2="13577" y1="3929.4" y2="7278.5" gradientTransform="matrix(.019111 0 0 .019111 -95.929 -42.758)" gradientUnits="userSpaceOnUse" xlink:href="#a"/><linearGradient id="ao" x1="170.77" x2="8322.8" y1="8019.3" y2="3188.6" gradientTransform="matrix(.019111 0 0 .019111 -95.929 -42.758)" gradientUnits="userSpaceOnUse" xlink:href="#a"/><linearGradient id="ap" x1="4315.4" x2="12620" y1="8070.3" y2="3137.6" gradientTransform="matrix(.019111 0 0 .019111 -95.929 -42.758)" gradientUnits="userSpaceOnUse" xlink:href="#a"/><linearGradient id="aq" x1="8052.6" x2="15722" y1="7825.8" y2="3382.1" gradientTransform="matrix(.019111 0 0 .019111 -95.929 -42.758)" gradientUnits="userSpaceOnUse" xlink:href="#a"/><linearGradient id="ar" x1="12800" x2="18620" y1="7889.4" y2="4509.3" gradientTransform="matrix(.019111 0 0 .019111 -95.929 -42.758)" gradientUnits="userSpaceOnUse" xlink:href="#a"/><linearGradient id="linearGradient7479" x1="16231" x2="18992" y1="10096" y2="8533.6" gradientTransform="matrix(.019111 0 0 .019111 -95.929 -42.758)" gradientUnits="userSpaceOnUse" xlink:href="#a"/><style type="text/css">.fil1 {fill:none}
    .fil23 {fill:url(#a)}
    .fil21 {fill:url(#aa)}
    .fil26 {fill:url(#al)}
    .fil3 {fill:url(#as)}
    .fil17 {fill:url(#at)}
    .fil18 {fill:url(#au)}
    .fil9 {fill:url(#av)}
    .fil8 {fill:url(#aw)}
    .fil12 {fill:url(#ax)}
    .fil0 {fill:url(#ay)}
    .fil25 {fill:url(#ab)}
    .fil6 {fill:url(#ac)}
    .fil10 {fill:url(#ad)}
    .fil15 {fill:url(#ae)}
    .fil24 {fill:url(#af)}
    .fil19 {fill:url(#ag)}
    .fil7 {fill:url(#ah)}
    .fil4 {fill:url(#ai)}
    .fil22 {fill:url(#aj)}
    .fil2 {fill:url(#ak)}
    .fil16 {fill:url(#am)}
    .fil13 {fill:url(#an)}
    .fil5 {fill:url(#ao)}
    .fil11 {fill:url(#ap)}
    .fil14 {fill:url(#aq)}
    .fil20 {fill:url(#ar)}</style><style type="text/css">.fil0 {fill:url(#d)}</style><linearGradient id="d" x1="1292.6" x2="73.434" y1="62.23" y2="705.77" gradientUnits="userSpaceOnUse"><stop stop-color="#434242" offset="0"/><stop offset="1"/></linearGradient><style type="text/css">.fil0 {fill:url(#a)}</style><style type="text/css">.fil1 {fill:none}
    .fil23 {fill:url(#a)}
    .fil21 {fill:url(#aa)}
    .fil26 {fill:url(#al)}
    .fil3 {fill:url(#as)}
    .fil17 {fill:url(#at)}
    .fil18 {fill:url(#au)}
    .fil9 {fill:url(#av)}
    .fil8 {fill:url(#aw)}
    .fil12 {fill:url(#ax)}
    .fil0 {fill:url(#ay)}
    .fil25 {fill:url(#ab)}
    .fil6 {fill:url(#ac)}
    .fil10 {fill:url(#ad)}
    .fil15 {fill:url(#ae)}
    .fil24 {fill:url(#af)}
    .fil19 {fill:url(#ag)}
    .fil7 {fill:url(#ah)}
    .fil4 {fill:url(#ai)}
    .fil22 {fill:url(#aj)}
    .fil2 {fill:url(#ak)}
    .fil16 {fill:url(#am)}
    .fil13 {fill:url(#an)}
    .fil5 {fill:url(#ao)}
    .fil11 {fill:url(#ap)}
    .fil14 {fill:url(#aq)}
    .fil20 {fill:url(#ar)}</style><style type="text/css">.fil0 {fill:url(#d)}</style><style type="text/css">.fil0 {fill:url(#a)}</style><linearGradient id="a-6-2" x1="960" x2="960" y1="86.4" y2="993.6" gradientTransform="matrix(.18557 0 0 .19832 -260.37 -171.43)" gradientUnits="userSpaceOnUse"><stop stop-color="#434242" style="stop-color:#434242;stop-opacity:.51759" offset="0"/><stop style="stop-color:#005;stop-opacity:.65829" offset="1"/></linearGradient></defs><g transform="translate(95.929 42.758)"><path class="fil0" d="m-21.264-42.758-74.665 96.546v-96.546z" style="clip-rule:evenodd;fill-rule:evenodd;fill:url(#ay);image-rendering:optimizeQuality;shape-rendering:geometricPrecision;stroke-width:.0090184"/><path class="fil1" d="m-21.264-42.758-74.665 96.546v-96.546z" style="clip-rule:evenodd;fill:none;image-rendering:optimizeQuality;shape-rendering:geometricPrecision;stroke-width:.0090184"/><path class="fil2" d="m-95.929 53.788 74.665-96.546h29.774l-104.44 138.44z" style="clip-rule:evenodd;fill-rule:evenodd;fill:url(#ak);image-rendering:optimizeQuality;shape-rendering:geometricPrecision;stroke-width:.0090184"/><path class="fil1" d="m-95.929 53.788 74.665-96.546h29.774l-104.44 138.44z" style="clip-rule:evenodd;fill:none;image-rendering:optimizeQuality;shape-rendering:geometricPrecision;stroke-width:.0090184"/><path class="fil3" d="m-95.929 0.5653 34.609-43.324h19.225l-53.834 68.435z" style="clip-rule:evenodd;fill-rule:evenodd;fill:url(#as);image-rendering:optimizeQuality;shape-rendering:geometricPrecision;stroke-width:.0090184"/><path class="fil1" d="m-95.929 0.5653 34.609-43.324h19.225l-53.834 68.435z" style="clip-rule:evenodd;fill:none;image-rendering:optimizeQuality;shape-rendering:geometricPrecision;stroke-width:.0090184"/><path class="fil4" d="m-95.929 49.316 71.397-92.075h51.79l-3.2297 21.232-119.96 163.3z" style="clip-rule:evenodd;fill-rule:evenodd;fill:url(#ai);image-rendering:optimizeQuality;shape-rendering:geometricPrecision;stroke-width:.0090184"/><path class="fil1" d="m-95.929 49.316 71.397-92.075h51.79l-3.2297 21.232-119.96 163.3z" style="clip-rule:evenodd;fill:none;image-rendering:optimizeQuality;shape-rendering:geometricPrecision;stroke-width:.0090184"/><path class="fil5" d="m-95.929 143.97 137-186.73h25.321l-153.71 214.19h-8.6188z" style="clip-rule:evenodd;fill-rule:evenodd;fill:url(#ao);image-rendering:optimizeQuality;shape-rendering:geometricPrecision;stroke-width:.0090184"/><path class="fil1" d="m-95.929 143.97 137-186.73h25.321l-153.71 214.19h-8.6188z" style="clip-rule:evenodd;fill:none;image-rendering:optimizeQuality;shape-rendering:geometricPrecision;stroke-width:.0090184"/><path class="fil6" d="m-95.929 25.677 53.834-68.435h83.169l-137 186.73z" style="clip-rule:evenodd;fill-rule:evenodd;fill:url(#ac);image-rendering:optimizeQuality;shape-rendering:geometricPrecision;stroke-width:.0090184"/><path class="fil1" d="m-95.929 25.677 53.834-68.435h83.169l-137 186.73z" style="clip-rule:evenodd;fill:none;image-rendering:optimizeQuality;shape-rendering:geometricPrecision;stroke-width:.0090184"/><path class="fil7" d="m-95.929 118.23 119.86-160.99h62.683l-4.3572 22.474-133.72 191.72h-44.47z" style="clip-rule:evenodd;fill-rule:evenodd;fill:url(#ah);image-rendering:optimizeQuality;shape-rendering:geometricPrecision;stroke-width:.0090184"/><path class="fil1" d="m-95.929 118.23 119.86-160.99h62.683l-4.3572 22.474-133.72 191.72h-44.47z" style="clip-rule:evenodd;fill:none;image-rendering:optimizeQuality;shape-rendering:geometricPrecision;stroke-width:.0090184"/><path class="fil8" d="m-95.929 91.493 101.53-134.25h18.327l-119.86 160.99z" style="clip-rule:evenodd;fill-rule:evenodd;fill:url(#aw);image-rendering:optimizeQuality;shape-rendering:geometricPrecision;stroke-width:.0090184"/><path class="fil1" d="m-95.929 91.493 101.53-134.25h18.327l-119.86 160.99z" style="clip-rule:evenodd;fill:none;image-rendering:optimizeQuality;shape-rendering:geometricPrecision;stroke-width:.0090184"/><path class="fil9" d="m-95.929 121.46 122.04-164.22h19.779l-141.82 194.11z" style="clip-rule:evenodd;fill-rule:evenodd;fill:url(#av);image-rendering:optimizeQuality;shape-rendering:geometricPrecision;stroke-width:.0090184"/><path class="fil1" d="m-95.929 121.46 122.04-164.22h19.779l-141.82 194.11z" style="clip-rule:evenodd;fill:none;image-rendering:optimizeQuality;shape-rendering:geometricPrecision;stroke-width:.0090184"/><path class="fil10" d="m-95.929 151.35 141.82-194.11h79.309l-145.68 214.19h-75.448z" style="clip-rule:evenodd;fill-rule:evenodd;fill:url(#ad);image-rendering:optimizeQuality;shape-rendering:geometricPrecision;stroke-width:.0090184"/><path class="fil1" d="m-95.929 151.35 141.82-194.11h79.309l-145.68 214.19h-75.448z" style="clip-rule:evenodd;fill:none;image-rendering:optimizeQuality;shape-rendering:geometricPrecision;stroke-width:.0090184"/><path class="fil11" d="m-20.481 171.43 145.68-214.19h27.08l-142.01 214.19z" style="clip-rule:evenodd;fill-rule:evenodd;fill:url(#ap);image-rendering:optimizeQuality;shape-rendering:geometricPrecision;stroke-width:.0090184"/><path class="fil1" d="m-20.481 171.43 145.68-214.19h27.08l-142.01 214.19z" style="clip-rule:evenodd;fill:none;image-rendering:optimizeQuality;shape-rendering:geometricPrecision;stroke-width:.0090184"/><path class="fil12" d="m-56.428 171.43 149.98-214.19h19.512l-147.34 214.19z" style="clip-rule:evenodd;fill-rule:evenodd;fill:url(#ax);image-rendering:optimizeQuality;shape-rendering:geometricPrecision;stroke-width:.0090184"/><path class="fil1" d="m-56.428 171.43 149.98-214.19h19.512l-147.34 214.19z" style="clip-rule:evenodd;fill:none;image-rendering:optimizeQuality;shape-rendering:geometricPrecision;stroke-width:.0090184"/><path class="fil13" d="m-18.245 171.43 145.41-214.19h42.005l-3.8794 24.251-122.46 189.94z" style="clip-rule:evenodd;fill-rule:evenodd;fill:url(#an);image-rendering:optimizeQuality;shape-rendering:geometricPrecision;stroke-width:.0090184"/><path class="fil1" d="m-18.245 171.43 145.41-214.19h42.005l-3.8794 24.251-122.46 189.94z" style="clip-rule:evenodd;fill:none;image-rendering:optimizeQuality;shape-rendering:geometricPrecision;stroke-width:.0090184"/><path class="fil14" d="m51.26 171.43 137.08-214.19h22.894l-133.95 214.19z" style="clip-rule:evenodd;fill-rule:evenodd;fill:url(#aq);image-rendering:optimizeQuality;shape-rendering:geometricPrecision;stroke-width:.0090184"/><path class="fil1" d="m51.26 171.43 137.08-214.19h22.894l-133.95 214.19z" style="clip-rule:evenodd;fill:none;image-rendering:optimizeQuality;shape-rendering:geometricPrecision;stroke-width:.0090184"/><path class="fil15" d="m-34.279 171.43 147.34-214.19h75.276l-137.08 214.19z" style="clip-rule:evenodd;fill-rule:evenodd;fill:url(#ae);image-rendering:optimizeQuality;shape-rendering:geometricPrecision;stroke-width:.0090184"/><path class="fil1" d="m-34.279 171.43 147.34-214.19h75.276l-137.08 214.19z" style="clip-rule:evenodd;fill:none;image-rendering:optimizeQuality;shape-rendering:geometricPrecision;stroke-width:.0090184"/><path class="fil16" d="m41.858 171.43 138.21-214.19h49.611l-5.1598 25.513-114.55 188.68z" style="clip-rule:evenodd;fill-rule:evenodd;fill:url(#am);image-rendering:optimizeQuality;shape-rendering:geometricPrecision;stroke-width:.0090184"/><path class="fil1" d="m41.858 171.43 138.21-214.19h49.611l-5.1598 25.513-114.55 188.68z" style="clip-rule:evenodd;fill:none;image-rendering:optimizeQuality;shape-rendering:geometricPrecision;stroke-width:.0090184"/><path class="fil17" d="m20.721 171.43 140.75-214.19h18.595l-138.21 214.19z" style="clip-rule:evenodd;fill-rule:evenodd;fill:url(#at);image-rendering:optimizeQuality;shape-rendering:geometricPrecision;stroke-width:.0090184"/><path class="fil1" d="m20.721 171.43 140.75-214.19h18.595l-138.21 214.19z" style="clip-rule:evenodd;fill:none;image-rendering:optimizeQuality;shape-rendering:geometricPrecision;stroke-width:.0090184"/><path class="fil18" d="m44.38 171.43 137.9-214.19h20.066l-135.19 214.19z" style="clip-rule:evenodd;fill-rule:evenodd;fill:url(#au);image-rendering:optimizeQuality;shape-rendering:geometricPrecision;stroke-width:.0090184"/><path class="fil1" d="m44.38 171.43 137.9-214.19h20.066l-135.19 214.19z" style="clip-rule:evenodd;fill:none;image-rendering:optimizeQuality;shape-rendering:geometricPrecision;stroke-width:.0090184"/><path class="fil19" d="m67.16 171.43 135.19-214.19h58.02v22.761l-112.14 191.43z" style="clip-rule:evenodd;fill-rule:evenodd;fill:url(#ag);image-rendering:optimizeQuality;shape-rendering:geometricPrecision;stroke-width:.0090184"/><path class="fil1" d="m67.16 171.43 135.19-214.19h58.02v22.761l-112.14 191.43z" style="clip-rule:evenodd;fill:none;image-rendering:optimizeQuality;shape-rendering:geometricPrecision;stroke-width:.0090184"/><path class="fil20" d="m148.23 171.43 112.14-191.43v43.247l-84.507 148.18z" style="clip-rule:evenodd;fill-rule:evenodd;fill:url(#ar);image-rendering:optimizeQuality;shape-rendering:geometricPrecision;stroke-width:.0090184"/><path class="fil1" d="m148.23 171.43 112.14-191.43v43.247l-84.507 148.18z" style="clip-rule:evenodd;fill:none;image-rendering:optimizeQuality;shape-rendering:geometricPrecision;stroke-width:.0090184"/><path class="fil21" d="m122.14 171.43 128.58-214.19h9.6508v17.257l-115.75 196.93z" style="clip-rule:evenodd;fill-rule:evenodd;fill:url(#aa);image-rendering:optimizeQuality;shape-rendering:geometricPrecision;stroke-width:.0090184"/><path class="fil1" d="m122.14 171.43 128.58-214.19h9.6508v17.257l-115.75 196.93z" style="clip-rule:evenodd;fill:none;image-rendering:optimizeQuality;shape-rendering:geometricPrecision;stroke-width:.0090184"/><path class="fil22" d="m156.58 171.43 103.79-178.61v79.576l-54.828 99.031z" style="clip-rule:evenodd;fill-rule:evenodd;fill:url(#aj);image-rendering:optimizeQuality;shape-rendering:geometricPrecision;stroke-width:.0090184"/><path class="fil1" d="m156.58 171.43 103.79-178.61v79.576l-54.828 99.031z" style="clip-rule:evenodd;fill:none;image-rendering:optimizeQuality;shape-rendering:geometricPrecision;stroke-width:.0090184"/><path class="fil23" d="m220.92 171.43 39.444-72.372v41.852l-16.244 30.52z" style="clip-rule:evenodd;fill-rule:evenodd;fill:url(#linearGradient7479);image-rendering:optimizeQuality;shape-rendering:geometricPrecision;stroke-width:.0090184"/><path class="fil1" d="m220.92 171.43 39.444-72.372v41.852l-16.244 30.52z" style="clip-rule:evenodd;fill:none;image-rendering:optimizeQuality;shape-rendering:geometricPrecision;stroke-width:.0090184"/><path class="fil24" d="m144.61 171.43 115.75-196.93v124.56l-39.444 72.372z" style="clip-rule:evenodd;fill-rule:evenodd;fill:url(#af);image-rendering:optimizeQuality;shape-rendering:geometricPrecision;stroke-width:.0090184"/><path class="fil1" d="m144.61 171.43 115.75-196.93v124.56l-39.444 72.372z" style="clip-rule:evenodd;fill:none;image-rendering:optimizeQuality;shape-rendering:geometricPrecision;stroke-width:.0090184"/><path class="fil25" d="m221.88 171.43 38.489-70.671v70.671z" style="clip-rule:evenodd;fill-rule:evenodd;fill:url(#ab);image-rendering:optimizeQuality;shape-rendering:geometricPrecision;stroke-width:.0090184"/><path class="fil1" d="m221.88 171.43 38.489-70.671v70.671z" style="clip-rule:evenodd;fill:none;image-rendering:optimizeQuality;shape-rendering:geometricPrecision;stroke-width:.0090184"/><path class="fil26" d="m200.44 171.43 59.931-107.69v37.017l-38.489 70.671z" style="clip-rule:evenodd;fill-rule:evenodd;fill:url(#al);image-rendering:optimizeQuality;shape-rendering:geometricPrecision;stroke-width:.0090184"/><path class="fil1" d="m200.44 171.43 59.931-107.69v37.017l-38.489 70.671z" style="clip-rule:evenodd;fill:none;image-rendering:optimizeQuality;shape-rendering:geometricPrecision;stroke-width:.0090184"/><rect class="fil0" transform="scale(-1)" x="-260.37" y="-171.43" width="356.3" height="214.19" style="clip-rule:evenodd;fill-rule:evenodd;fill:url(#a-6-2);image-rendering:optimizeQuality;shape-rendering:geometricPrecision;stroke-width:.26458"/></g></svg>
