<?xml version="1.0" encoding="UTF-8"?>
<svg width="120mm" height="142mm" version="1.1" viewBox="0 0 120 142" xmlns="http://www.w3.org/2000/svg" xmlns:xlink="http://www.w3.org/1999/xlink"><defs><linearGradient id="b"><stop stop-color="#f5f5f2" offset="0"/><stop stop-color="#f6f6f4" offset=".10354"/><stop stop-color="#f6f6f4" offset=".88421"/><stop stop-color="#fcfbf7" offset=".91561"/><stop stop-color="#d7d7cf" offset="1"/></linearGradient><linearGradient id="bg" x1="221.68" x2="185.07" y1="857.57" y2="885.28" gradientTransform="matrix(.55962 0 0 .54517 72.04 -413.21)" gradientUnits="userSpaceOnUse"><stop stop-color="#e3e3d9" offset="0"/><stop stop-color="#fff" offset=".5"/><stop stop-color="#f9f9f4" offset="1"/></linearGradient><linearGradient id="bf" x2="0" y1="312.36" y2="342.36" gradientTransform="matrix(.26734 .43095 -.30966 .18231 230.16 -77.298)" gradientUnits="userSpaceOnUse"><stop stop-color="#e5e5e0" offset="0"/><stop stop-color="#fff" stop-opacity="0" offset="1"/></linearGradient><linearGradient id="be" x2="0" y1="832.19" y2="1016.5" gradientTransform="matrix(.55962 0 0 .54517 72.04 -413.21)" gradientUnits="userSpaceOnUse" xlink:href="#b"/><linearGradient id="bd" x1="505.23" x2="163.63" y1="619.42" y2="863.72" gradientTransform="matrix(.55962 0 0 .54517 72.04 -413.21)" gradientUnits="userSpaceOnUse" xlink:href="#b"/><pattern id="ar" width="87.62443" height="115.00439" patternTransform="translate(6.404 223.37)" patternUnits="userSpaceOnUse"><path d="m2.096 1.9889h77.355" stroke="#716c61" stroke-linecap="round" stroke-width="4"/><path d="m2.096 11.572h75.965" stroke="#716c61" stroke-linecap="round" stroke-width="4"/><path d="m2.096 21.156h78.596" stroke="#716c61" stroke-linecap="round" stroke-width="4"/><path d="m2.096 30.739h31" stroke="#716c61" stroke-linecap="round" stroke-width="4"/><path d="m2.096 40.322h81.673" stroke="#716c61" stroke-linecap="round" stroke-width="4"/><path d="m2.096 49.906h83.373" stroke="#716c61" stroke-linecap="round" stroke-width="4"/><path d="m2.096 59.489h78.621" stroke="#716c61" stroke-linecap="round" stroke-width="4"/><path d="m2.096 69.073h75.196" stroke="#716c61" stroke-linecap="round" stroke-width="4"/><path d="m2.096 78.656h83.5" stroke="#716c61" stroke-linecap="round" stroke-width="4"/><path d="m2.096 88.239h80.426" stroke="#716c61" stroke-linecap="round" stroke-width="4"/><path d="m2.096 97.823h44.086" stroke="#716c61" stroke-linecap="round" stroke-width="4"/><path d="m2.096 107.41h68.278" stroke="#716c61" stroke-linecap="round" stroke-width="4"/></pattern><pattern id="as" patternTransform="matrix(.35464 .0045423 -.0036637 .27145 -17.628 -50.508)" xlink:href="#l"/><pattern id="at" patternTransform="matrix(.35467 0 0 .27148 -18.16 -12.652)" xlink:href="#m"/><pattern id="au" patternTransform="matrix(.35467 0 0 .27148 -9.8942 -35.811)" xlink:href="#n"/><pattern id="av" patternTransform="matrix(.35467 0 0 .27148 -10.924 -9.8826)" xlink:href="#o"/><pattern id="aw" patternTransform="matrix(.35467 0 0 .27148 -14.287 -33.297)" xlink:href="#p"/><pattern id="ax" patternTransform="matrix(.35467 0 0 .27148 -18.16 -12.652)" xlink:href="#q"/><pattern id="ay" patternTransform="matrix(.35467 0 0 .27148 1.4046 -35.058)" xlink:href="#r"/><pattern id="az" patternTransform="matrix(.35467 0 0 .27148 -9.8942 -35.811)" xlink:href="#s"/><pattern id="ba" patternTransform="matrix(.35467 0 0 .27148 -18.16 -12.652)" xlink:href="#t"/><pattern id="bb" patternTransform="matrix(.35467 0 0 .27148 204.52 47.24)" xlink:href="#u"/><pattern id="l" patternTransform="matrix(.68616 0 0 .53915 1221.2 771.89)" xlink:href="#d"/><pattern id="d" patternTransform="matrix(.68616 0 0 .53915 1221.2 771.89)" xlink:href="#i"/><pattern id="i" patternTransform="matrix(.68616 0 0 .53915 -8.4553 272.06)" xlink:href="#y"/><pattern id="y" patternTransform="matrix(.68616 0 0 .53915 -8.4553 272.06)" xlink:href="#ag"/><pattern id="ag" patternTransform="matrix(.68616 0 0 .53915 171.54 226.56)" xlink:href="#ao"/><pattern id="ao" patternTransform="matrix(.68616 0 0 .53915 6.5447 226.56)" xlink:href="#a"/><pattern id="a" patternTransform="matrix(.54351 0 0 .45219 6.404 226.56)" xlink:href="#ar"/><pattern id="m" patternTransform="matrix(.68616 0 0 .53915 1209.9 863.06)" xlink:href="#h"/><pattern id="h" patternTransform="matrix(.68616 0 0 .53915 1209.9 863.06)" xlink:href="#w"/><pattern id="w" patternTransform="matrix(.68616 0 0 .53915 -8.4553 272.06)" xlink:href="#ae"/><pattern id="ae" patternTransform="matrix(.68616 0 0 .53915 171.54 226.56)" xlink:href="#an"/><pattern id="an" patternTransform="matrix(.68616 0 0 .53915 6.5447 226.56)" xlink:href="#a"/><pattern id="n" patternTransform="matrix(.68616 0 0 .53915 1225.9 817.06)" xlink:href="#aq"/><pattern id="aq" patternTransform="matrix(.68616 0 0 .53915 1225.9 817.06)" xlink:href="#a"/><pattern id="o" patternTransform="matrix(.68616 0 0 .53915 1223.9 868.56)" xlink:href="#aa"/><pattern id="aa" patternTransform="matrix(.68616 0 0 .53915 1223.9 868.56)" xlink:href="#ai"/><pattern id="ai" patternTransform="matrix(.68616 0 0 .53915 6.5447 226.56)" xlink:href="#a"/><pattern id="p" patternTransform="matrix(.68616 0 0 .53915 1217.4 822.06)" xlink:href="#ab"/><pattern id="ab" patternTransform="matrix(.68616 0 0 .53915 1217.4 822.06)" xlink:href="#aj"/><pattern id="aj" patternTransform="matrix(.68616 0 0 .53915 6.5447 226.56)" xlink:href="#a"/><pattern id="q" patternTransform="matrix(.68616 0 0 .53915 1209.9 863.06)" xlink:href="#z"/><pattern id="z" patternTransform="matrix(.68616 0 0 .53915 1209.9 863.06)" xlink:href="#ac"/><pattern id="ac" patternTransform="matrix(.68616 0 0 .53915 171.54 226.56)" xlink:href="#ap"/><pattern id="ap" patternTransform="matrix(.68616 0 0 .53915 6.5447 226.56)" xlink:href="#a"/><pattern id="r" patternTransform="matrix(.68616 0 0 .53915 1247.8 818.56)" xlink:href="#k"/><pattern id="k" patternTransform="matrix(.68616 0 0 .53915 1247.8 818.56)" xlink:href="#ah"/><pattern id="ah" patternTransform="matrix(.68616 0 0 .53915 7.5447 226.06)" xlink:href="#a"/><pattern id="s" patternTransform="matrix(.68616 0 0 .53915 1225.9 817.06)" xlink:href="#g"/><pattern id="g" patternTransform="matrix(.68616 0 0 .53915 1225.9 817.06)" xlink:href="#ak"/><pattern id="ak" patternTransform="matrix(.68616 0 0 .53915 7.5447 226.06)" xlink:href="#a"/><pattern id="t" patternTransform="matrix(.68616 0 0 .53915 1209.9 863.06)" xlink:href="#f"/><pattern id="f" patternTransform="matrix(.68616 0 0 .53915 1209.9 863.06)" xlink:href="#v"/><pattern id="v" patternTransform="matrix(.68616 0 0 .53915 -8.4553 272.06)" xlink:href="#ad"/><pattern id="ad" patternTransform="matrix(.68616 0 0 .53915 171.54 226.56)" xlink:href="#al"/><pattern id="al" patternTransform="matrix(.68616 0 0 .53915 6.5447 226.56)" xlink:href="#a"/><pattern id="u" patternTransform="matrix(.68616 0 0 .53915 1640.7 982)" xlink:href="#e"/><pattern id="e" patternTransform="matrix(.68616 0 0 .53915 1640.7 982)" xlink:href="#j"/><pattern id="j" patternTransform="matrix(.68616 0 0 .53915 -8.4553 272.06)" xlink:href="#x"/><pattern id="x" patternTransform="matrix(.68616 0 0 .53915 -8.4553 272.06)" xlink:href="#af"/><pattern id="af" patternTransform="matrix(.68616 0 0 .53915 171.54 226.56)" xlink:href="#am"/><pattern id="am" patternTransform="matrix(.68616 0 0 .53915 6.5447 226.56)" xlink:href="#a"/><radialGradient id="c" cx="348" cy="471.36" r="22.5" gradientTransform="matrix(1.1739 .41326 -.19554 1.1192 -134.62 -603.77)" gradientUnits="userSpaceOnUse"><stop stop-color="#dcdcd5" offset="0"/><stop stop-color="#fff" stop-opacity="0" offset="1"/></radialGradient><style type="text/css"><![CDATA[
    .fil5 {fill:#FFED00}
    .fil4 {fill:#EF7F1A}
    .fil6 {fill:#EF7F1A}
    .fil3 {fill:#E31E24}
    .fil2 {fill:#E31E24}
    .fil0 {fill:#FCEE5E}
    .fil1 {fill:#FFED00;fill-opacity:0.501961}
   ]]></style><style type="text/css">.str0 {stroke:#3F4446;stroke-width:2;stroke-linecap:round;stroke-linejoin:round}
    .fil1 {fill:none}
    .fil13 {fill:#007CC3}
    .fil15 {fill:#1F1A17}
    .fil16 {fill:#3C746B}
    .fil17 {fill:#3F4446}
    .fil14 {fill:#75C5F0}
    .fil10 {fill:#84C225}
    .fil9 {fill:#B8DB7C}
    .fil0 {fill:#DEDEDD}
    .fil18 {fill:#F7C5B4}
    .fil2 {fill:#F8C300}
    .fil12 {fill:white}
    .fil3 {fill:#FCDB00}
    .fil8 {fill:url(#a)}
    .fil11 {fill:url(#g)}
    .fil4 {fill:url(#h)}
    .fil6 {fill:url(#i);fill-rule:nonzero}
    .fil5 {fill:url(#j);fill-rule:nonzero}
    .fil7 {fill:url(#k);fill-rule:nonzero}</style><style type="text/css">.str0 {stroke:#3F4446;stroke-width:2;stroke-linecap:round;stroke-linejoin:round}
    .fil1 {fill:none}
    .fil13 {fill:#007CC3}
    .fil15 {fill:#1F1A17}
    .fil16 {fill:#3C746B}
    .fil17 {fill:#3F4446}
    .fil14 {fill:#75C5F0}
    .fil10 {fill:#84C225}
    .fil9 {fill:#B8DB7C}
    .fil0 {fill:#DEDEDD}
    .fil18 {fill:#F7C5B4}
    .fil2 {fill:#F8C300}
    .fil12 {fill:white}
    .fil3 {fill:#FCDB00}
    .fil8 {fill:url(#a)}
    .fil11 {fill:url(#g)}
    .fil4 {fill:url(#h)}
    .fil6 {fill:url(#i);fill-rule:nonzero}
    .fil5 {fill:url(#j);fill-rule:nonzero}
    .fil7 {fill:url(#k);fill-rule:nonzero}</style><style type="text/css">.str0 {stroke:#3F4446;stroke-width:2;stroke-linecap:round;stroke-linejoin:round}
    .fil1 {fill:none}
    .fil13 {fill:#007CC3}
    .fil15 {fill:#1F1A17}
    .fil16 {fill:#3C746B}
    .fil17 {fill:#3F4446}
    .fil14 {fill:#75C5F0}
    .fil10 {fill:#84C225}
    .fil9 {fill:#B8DB7C}
    .fil0 {fill:#DEDEDD}
    .fil18 {fill:#F7C5B4}
    .fil2 {fill:#F8C300}
    .fil12 {fill:white}
    .fil3 {fill:#FCDB00}
    .fil8 {fill:url(#a)}
    .fil11 {fill:url(#g)}
    .fil4 {fill:url(#h)}
    .fil6 {fill:url(#i);fill-rule:nonzero}
    .fil5 {fill:url(#j);fill-rule:nonzero}
    .fil7 {fill:url(#k);fill-rule:nonzero}</style><style type="text/css"><![CDATA[
    .fil5 {fill:#FFED00}
    .fil4 {fill:#EF7F1A}
    .fil6 {fill:#EF7F1A}
    .fil3 {fill:#E31E24}
    .fil2 {fill:#E31E24}
    .fil0 {fill:#FCEE5E}
    .fil1 {fill:#FFED00;fill-opacity:0.501961}
   ]]></style><style type="text/css">.str0 {stroke:#3F4446;stroke-width:2;stroke-linecap:round;stroke-linejoin:round}
    .fil1 {fill:none}
    .fil13 {fill:#007CC3}
    .fil15 {fill:#1F1A17}
    .fil16 {fill:#3C746B}
    .fil17 {fill:#3F4446}
    .fil14 {fill:#75C5F0}
    .fil10 {fill:#84C225}
    .fil9 {fill:#B8DB7C}
    .fil0 {fill:#DEDEDD}
    .fil18 {fill:#F7C5B4}
    .fil2 {fill:#F8C300}
    .fil12 {fill:white}
    .fil3 {fill:#FCDB00}
    .fil8 {fill:url(#a)}
    .fil11 {fill:url(#g)}
    .fil4 {fill:url(#h)}
    .fil6 {fill:url(#i);fill-rule:nonzero}
    .fil5 {fill:url(#j);fill-rule:nonzero}
    .fil7 {fill:url(#k);fill-rule:nonzero}</style></defs><g transform="translate(-41.297,-50.03)"><g transform="matrix(1,0,0,1.4,-42.376,-4.9845)" style="stroke-width:.84516"><g style="stroke-width:.46682"><path d="m202.38 42.486c-0.56046 33.186-0.85198 62.809-0.16984 95.388l-70.658-10.325-11.698-84.686s51.255-1.8839 82.522-0.37394z" style="fill:url(#bd);stroke-width:.46682"/><path d="m173.66 47.36 23.775 0.30451-0.52364 38.798-23.775-0.30452z" style="fill:url(#as);opacity:.75;stroke-width:.46682"/><path d="m83.673 40.725v100h120v-34.397c-2.0914-33.654-21.787-56.43-36.182-65.6z" style="fill:url(#be);stroke-width:.46682"/><path d="m158.64 40.725 43.967 70.872 1.0661-0.62939v-4.6419c-0.40684-6.5469-1.4821-12.675-3.0528-18.379l-25.941-41.809c-2.47-2.1407-4.8944-3.9521-7.1878-5.413h-8.8516z" style="fill:url(#bf);stroke-width:.46682"/><path d="m169.25 41.903c-7.1402 2.3703-12.511 8.2026-13.94 16.381-2.4299 13.907 7.4447 29.341 22.032 34.476 9.0413 3.1828 17.764 1.6557 23.68-3.273-5.9549-23.254-20.202-39.554-31.772-47.584z" style="fill:url(#c);stroke-width:.46682"/></g><path d="m174.68 70.268h16.282" style="fill:none;stroke-linecap:round;stroke-width:.64673;stroke:#716c61"/><path d="m174.43 82.758h23.777v38.801h-23.777z" style="fill:url(#at);stroke-width:.46682"/><path d="m170.25 51.939h8.5516v13.152h-8.5516z" style="opacity:.35;stroke-width:.46682"/><g style="fill:#716c61;stroke-width:.46682"><path d="m89.068 66.806h95.365v1.7623h-95.365z" style="stroke-width:.46682"/></g><g style="stroke-width:.46682"><path d="m89.141 82.921h23.777v57.15h-23.777z" style="fill:url(#au);stroke-width:.46682"/><path d="m117.57 114.27h23.777v26.057h-23.777z" style="fill:url(#av);stroke-width:.46682"/><path d="m146 114.27h23.777v25.805h-23.777z" style="fill:url(#aw);stroke-width:.46682"/><path d="m174.43 131.89h23.777v8.1808h-23.777z" style="fill:url(#ax);stroke-width:.46682"/></g><path d="m118.2 110.56h35.087" style="fill:none;stroke-linecap:round;stroke-width:1.049;stroke:#716c61"/><g style="stroke-width:.46682"><path d="m117.5 75.371h52.334v33.485h-52.334z" style="fill:#a3c093;stroke-width:.46682"/><path d="m117.5 75.371h52.334v22.03s-10.721 2.0614-13.964 1.133c-3.2425-0.92843-13.096 7.3101-17.59 5.8513-4.4938-1.4589-5.4005-6.1696-10.452-6.4804-5.051-0.31076-10.33 4.5317-10.33 4.5317z" style="fill:#bedaae;stroke-width:.46682"/><path d="m117.5 75.371h52.334v18.175s-7.4587-5.5983-11.85-5.6076c-6.0484-0.01236-10.36 6.8789-16.356 7.6552-5.6197 0.72743-11.054-2.8916-16.722-3.0264-2.491-0.05934-7.4077 0.97912-7.4077 0.97912z" style="fill:#b3b3b3;stroke-width:.46682"/><path d="m117.5 75.371h52.334v13.14s-0.55327-4.8711-2.4944-5.7079c-3.1081-1.34-6.4748 2.0343-9.6294 3.2662-2.6622 1.0395-4.9705 3.2651-7.8308 3.4741-2.6624 0.19451-5.1585-2.9271-7.7026-2.1389-1.7624 0.54598-1.7348 3.6074-3.477 4.2117-3.2217 1.1175-6.7726-1.079-10.035-2.0773-3.063-0.93725-5.6841-4.001-8.8739-3.6476-0.93608 0.10364-2.2908 1.6127-2.2908 1.6127z" style="fill:#f2f2f2;stroke-width:.46682"/><path d="m117.5 75.371h52.334v11.125s-0.78325-4.124-2.4944-4.7008c-3.3333-1.1236-6.3411 3.0303-9.6294 4.2732-2.5576 0.96669-5.0898 2.5795-7.8308 2.467-2.7817-0.11415-5.004-3.8123-7.7026-3.1459-1.7926 0.44265-1.8066 3.4386-3.477 4.2117-3.0216 1.3984-6.7944 0.74371-10.035-0.06326-3.2549-0.81034-8.8739-4.6547-8.8739-4.6547l-2.2908 0.60564z" style="fill:#dae5eb;stroke-width:.46682"/></g><g style="fill:none;stroke-linecap:round;stroke-width:.84516;stroke:#716c61"><path d="m90.361 70.268h16.282" style="stroke-width:.64673"/><path d="m90.361 72.034h8.3994" style="stroke-width:.64673"/><path d="m166.17 110.56h3.0407" style="stroke-width:1.049"/></g><g style="stroke-width:.46682"><path d="m144.38 54.976h12.147v10.574h-12.147z" style="fill:url(#ay);stroke-width:.46682"/><path d="m96.442 75.371h16.476v7.6787h-16.476z" style="fill:url(#az);stroke-width:.46682"/><path d="m95.346 78.928c-8e-6 0.46903-0.04911 0.88833-0.14732 1.2579-0.09821 0.36959-0.23303 0.69603-0.40442 0.97932-0.17139 0.2833-0.37169 0.52342-0.60086 0.7204-0.22916 0.19698-0.47568 0.35834-0.73952 0.48403s-0.53731 0.21763-0.8204 0.27579c-0.28309 0.05811-0.56139 0.08716-0.83485 0.08716h-3.4607v-0.46715c0.26192-0.05254 0.45739-0.10982 0.58641-0.17164 0.12902-0.06202 0.19355-0.1191 0.19355-0.17164v-5.6451l-0.77996 0.10694-0.08088-0.57407c0.19643-0.04512 0.43139-0.08819 0.70485-0.1294s0.55945-0.07789 0.85796-0.10982c0.29851-0.03194 0.59893-0.05625 0.90129-0.07315 0.30236-0.01648 0.58256-0.02534 0.84063-0.02534 0.60856 2.1e-5 1.1478 0.07789 1.6177 0.23358 0.46991 0.15577 0.86565 0.38179 1.1873 0.6782 0.32162 0.29642 0.56523 0.65851 0.73085 1.0863 0.16564 0.42773 0.24842 0.91366 0.24844 1.4577zm-4.2176-2.8141-0.19355 0.0021c-0.06741 0.0016-0.13384 0.0041-0.19933 0.0082v5.5382c-4e-6 0.06387 0.0038 0.12198 0.01163 0.17452 0.0076 0.05254 0.03754 0.09746 0.08955 0.13496s0.13384 0.06655 0.24555 0.08716c0.1117 0.02061 0.26961 0.03091 0.47376 0.03091 0.20798 0 0.43234-0.0544 0.67308-0.16319 0.24073-0.10879 0.46316-0.2814 0.6673-0.5178 0.20415-0.23638 0.37457-0.5403 0.5113-0.91176 0.13674-0.37148 0.2051-0.82174 0.2051-1.3508-6e-6 -1.0018-0.20992-1.7579-0.62974-2.2682s-1.038-0.76542-1.8546-0.76542z" style="fill:#716c61;stroke-width:.46682"/><path d="m180 124.15h18.203v8.0919h-18.203z" style="fill:url(#ba);stroke-width:.46682"/><path d="m173.58 131.66v-0.46715c0.26192-0.0525 0.4574-0.10983 0.58642-0.17164 0.12902-0.0618 0.19353-0.11909 0.19353-0.17164v-5.465c0-0.0451-0.0607-0.10138-0.1821-0.16896-0.12141-0.0676-0.32066-0.12754-0.59797-0.18008v-0.46715h5.2922l0.23687 0.19698c-4e-3 0.0975-0.0127 0.22512-0.029 0.38271-0.0148 0.15763-0.0337 0.31894-0.055 0.48402-0.0212 0.16505-0.0442 0.32082-0.0694 0.46716-0.025 0.14629-0.0491 0.25514-0.0724 0.32644h-0.50264c-0.0106-0.34895-0.0569-0.62379-0.13579-0.82454-0.0789-0.20069-0.19163-0.3011-0.338-0.30112h-1.9297v2.2232h2.103l0.22532 0.21387c-0.0347 0.0676-0.075 0.13785-0.1214 0.21108-0.0463 0.0731-0.0943 0.14341-0.14447 0.21105-0.0501 0.0676-0.0992 0.1294-0.14721 0.18565-0.0482 0.0563-0.0916 0.0995-0.13008 0.1294-0.0577-0.0562-0.11951-0.10323-0.18485-0.14073-0.0656-0.0375-0.14151-0.0694-0.22821-0.0956s-0.18866-0.0451-0.3062-0.0563c-0.11739-0.0103-0.25709-0.0165-0.41888-0.0165h-0.64708v2.6847c0 0.0225 0.0148 0.047 0.0433 0.0731 0.0288 0.0264 0.0789 0.0536 0.15017 0.0816 0.0712 0.028 0.16858 0.0581 0.29176 0.09 0.12332 0.0319 0.27926 0.0647 0.46799 0.0985v0.46715z" style="fill:#716c61;stroke-width:.46682"/><path d="m181.65 75.371h15.005v7.6465h-15.005z" style="fill:url(#bb);stroke-width:.46682"/><path d="m167.49 40.725c19.873 6.9678 36.358 38.933 36.182 66.728-3.8981-25.517-11.34-39.694-32.121-37.765 2.9906-12.289 1.9457-23.506-4.0612-28.961z" style="fill:url(#bg);stroke-width:.46682"/><path d="m179.98 75.626c0.019 0.01442 0.0212 0.05357 2e-3 0.11539-0.0169 0.06182-0.0453 0.13785-0.0838 0.22793-0.0385 0.09004-0.0848 0.18668-0.13874 0.28987-0.054 0.10323-0.10872 0.20172-0.16456 0.29547-0.0558 0.09375-0.10892 0.17741-0.15884 0.25045-0.0501 0.07315-0.0924 0.12486-0.12712 0.15474l-0.42175-0.09004c-0.12713-0.20254-0.25422-0.37334-0.38131-0.51217-0.12713-0.13888-0.25807-0.25045-0.39289-0.33489-0.13473-0.08448-0.27347-0.14547-0.41598-0.18297-0.14256-0.0375-0.29463-0.05625-0.45642-0.05625-0.0962 2.1e-5 -0.20601 0.01854-0.3293 0.05625-0.12331 0.0375-0.25036 0.10034-0.38132 0.18853-0.13092 0.08819-0.25806 0.2046-0.38131 0.34896-0.1233 0.14444-0.23399 0.32644-0.33222 0.54594-0.0981 0.21948-0.17725 0.47745-0.23687 0.77387-0.0596 0.29642-0.0895 0.63976-0.0895 1.03 0 0.4953 0.0558 0.91928 0.16752 1.272 0.11167 0.35269 0.26189 0.64161 0.45062 0.86674 0.18867 0.22513 0.40444 0.39116 0.64711 0.4981 0.24263 0.10694 0.49685 0.1603 0.76262 0.1603 0.18486 0 0.34951-0.01442 0.49396-0.04512 0.14446-0.03008 0.27636-0.07129 0.39576-0.12384v-1.6603c0-0.04121-4e-3 -0.08159-0.0148-0.12095-8e-3 -0.03936-0.0403-0.07789-0.0924-0.11539-0.052-0.0375-0.13473-0.075-0.24842-0.1125-0.11358-0.0375-0.27635-0.075-0.48821-0.1125v-0.46715h2.9523v0.46715c-0.11168 0.02637-0.20221 0.05625-0.27154 0.09004-0.0694 0.03379-0.12521 0.07129-0.16751 0.1125s-0.0713 0.08345-0.0868 0.12672c-0.0148 0.04327-0.0231 0.08716-0.0231 0.13228v1.6378c-0.28504 0.22888-0.55465 0.41743-0.80887 0.56564-0.25421 0.14815-0.49398 0.26545-0.71928 0.35174-0.22532 0.08633-0.43815 0.14629-0.63843 0.18009-0.20029 0.03379-0.38708 0.05069-0.56042 0.05069-0.28501 0-0.56714-0.03091-0.8464-0.09293-0.27923-0.06181-0.545-0.15577-0.79729-0.28142-0.25227-0.12569-0.48529-0.28422-0.69907-0.47558-0.21377-0.19142-0.39865-0.41463-0.55464-0.66978-0.1561-0.25515-0.27828-0.54312-0.36687-0.86394-0.0886-0.3208-0.13282-0.67443-0.13282-1.0609 0-0.62286 0.103-1.181 0.30907-1.6744 0.20601-0.49342 0.49109-0.91176 0.85508-1.2551s0.79537-0.60502 1.2942-0.78514c0.49879-0.18009 1.0409-0.27015 1.6264-0.27015 0.12711 0 0.28211 0.01236 0.46507 0.03936 0.18296 0.02617 0.37072 0.06387 0.56331 0.1125 0.19248 0.04883 0.38035 0.10879 0.5633 0.18008 0.18296 0.07129 0.33605 0.15206 0.45932 0.242z" style="fill:#716c61;stroke-width:.46682"/></g><path d="m118.82 69.788c-0.0914 0-0.17217 0.01442-0.25844 0.03132-0.0658 0.01236-0.1322 0.0408-0.19375 0.06305-0.0347 0.01236-0.0636 0.03173-0.0969 0.04739-0.0501 0.02328-0.0992 0.0342-0.14535 0.06305l-0.0647 0.04739c-0.0243 0.01648-0.0578 0.02864-0.0808 0.04739-0.0295 0.02411-0.0538 0.05234-0.0807 0.07871-0.027 0.02637-0.0568 0.0511-0.0808 0.07871-0.03 0.03482-0.0546 0.07232-0.0807 0.11003-0.0378 0.05398-0.0679 0.11353-0.0969 0.17308-0.015 0.03132-0.0356 0.06202-0.0486 0.09437l-0.0161 0.03132c-0.0197 0.05398-0.0362 0.116-0.0486 0.17308v0.01648c-0.0154 0.07912-0.032 0.15248-0.032 0.23607 0 0.33217 0.14364 0.63671 0.35536 0.86542l0.032 0.03132c0.0212 0.02164 0.0419 0.04286 0.0647 0.06284 0.0403 0.03585 0.0849 0.06387 0.12921 0.09437 0.0414 0.02823 0.0849 0.05522 0.12923 0.07871l0.0808 0.04739c0.0523 0.02308 0.10575 0.0307 0.16159 0.04739l0.0969 0.03132c0.0911 0.01854 0.17745 0.03132 0.2746 0.03132 0.0973 0 0.18445-0.01236 0.27458-0.03132 0.17239-0.0342 0.32749-0.09602 0.46844-0.18874 0.0106-0.0082 0.0211-0.02308 0.0321-0.03132 0.33107-0.23458 0.5492-0.60922 0.5492-1.0385 0-0.16134-0.0254-0.31396-0.0808-0.45635-0.0127-0.03214-0.0331-0.06346-0.0487-0.09437-0.0956-0.19595-0.24159-0.36145-0.41998-0.48778l-0.0645-0.04739c-0.0451-0.02823-0.0967-0.04039-0.1453-0.06284-0.0939-0.04327-0.18592-0.08942-0.29074-0.11024-0.0863-0.01648-0.18317-0.03132-0.27464-0.03132zm13.407 0c-0.0914 0-0.18845 0.01442-0.27458 0.03132-0.60356 0.12033-1.0499 0.63526-1.0499 1.2588 0 0.71259 0.59301 1.2903 1.3245 1.2903 0.11105 0 0.22033-0.02061 0.32305-0.04739 0.10279-0.02761 0.2003-0.06346 0.29074-0.11024 0.41955-0.21652 0.71072-0.63823 0.71072-1.133 0-0.4912-0.27989-0.91495-0.69454-1.1329-4e-3 -0.0041-0.0127 0-0.0169 0-0.0694-0.03585-0.15039-0.05501-0.22612-0.07871-0.0218-0.0062-0.0423-0.02576-0.0645-0.03132-0.10555-0.02658-0.20876-0.04739-0.32303-0.04739zm13.988 0c-0.0914 0-0.17218 0.01442-0.25843 0.03132-0.0658 0.01236-0.13219 0.0408-0.19396 0.06305-0.0347 0.01236-0.0636 0.03173-0.0969 0.04739-0.0501 0.02328-0.0992 0.0342-0.14531 0.06305l-0.0645 0.04739c-0.0243 0.01648-0.0578 0.02864-0.0808 0.04739-0.0294 0.02411-0.0537 0.05234-0.0808 0.07871s-0.0567 0.0511-0.0808 0.07871c-0.03 0.03482-0.0546 0.07232-0.0808 0.11003-0.0377 0.05398-0.0678 0.11353-0.0969 0.17308-0.0148 0.03132-0.0357 0.06202-0.0487 0.09437l-0.0169 0.03132c-0.019 0.05398-0.0368 0.116-0.0487 0.17308v0.01648c-0.0148 0.07912-0.0321 0.15248-0.0321 0.23607 0 0.33217 0.14362 0.63671 0.35536 0.86542l0.0321 0.03132c0.0211 0.02164 0.0419 0.04286 0.0648 0.06284 0.0402 0.03585 0.0848 0.06387 0.12923 0.09437 0.0415 0.02823 0.0848 0.05522 0.12924 0.07871l0.0808 0.04739c0.0522 0.02308 0.10575 0.0307 0.1616 0.04739l0.0969 0.03132c0.0911 0.01854 0.17745 0.03132 0.27462 0.03132 0.0971 0 0.18444-0.01236 0.27457-0.03132 0.17238-0.0342 0.32751-0.09602 0.46845-0.18874 0.0106-0.0082 0.0211-0.02308 0.0321-0.03132 0.33106-0.23458 0.54919-0.60922 0.54919-1.0385 0-0.16134-0.0253-0.31396-0.0808-0.45635-0.0127-0.03214-0.0331-0.06346-0.0487-0.09437-0.0956-0.19595-0.24161-0.36145-0.41998-0.48778l-0.0645-0.04739c-0.0451-0.02823-0.0967-0.04039-0.14531-0.06284-0.0939-0.04327-0.18592-0.08942-0.29074-0.11024-0.0863-0.01648-0.18317-0.03132-0.27463-0.03132zm13.407 0c-0.7315 0-1.3245 0.57765-1.3245 1.2903 0 0.71264 0.59302 1.2903 1.3245 1.2903 0.11104 0 0.22035-0.0206 0.32304-0.04739 0.57131-0.1432 1.0015-0.64184 1.0015-1.2431 0-0.4912-0.2799-0.91497-0.69455-1.133-0.0732-0.03874-0.16181-0.05357-0.24231-0.07871-0.0218-0.0062-0.0423-0.02576-0.0645-0.03132-0.10555-0.02658-0.20876-0.04739-0.32305-0.04739z" style="fill:none;stroke-width:.21558;stroke:#716c61"/><path d="m122.03 70.9h5.9443" style="fill:none;stroke-linecap:round;stroke-width:.64673;stroke:#716c61"/><g style="stroke-width:.46682"><path d="m133.55 71.08a1.3245 1.2903 0 0 1-2.649 0 1.3245 1.2903 0 1 1 2.649 0z" style="fill:#330080;opacity:.25;stroke-width:.46682"/><path d="m132.22 69.788c-0.7315 0-1.3245 0.57772-1.3245 1.2903 0 0.71259 0.59303 1.2903 1.3245 1.2903 0.22205 0 0.43-0.06326 0.61379-0.15742-0.62779-0.01648-1.1307-0.51749-1.1307-1.133 0-0.62049 0.51187-1.1246 1.1468-1.133-0.18761-0.09932-0.40129-0.15742-0.6299-0.15742z" style="fill:#d4aa00;opacity:.25;stroke-width:.46682"/><path d="m133.44 70.966-0.3708-0.03441-0.16201 0.32671-0.0808-0.3542-0.36903-0.04925 0.32078-0.18441-0.066-0.3571 0.27915 0.24021 0.32825-0.17143-0.14827 0.33287z" style="fill:#fae17a;opacity:.25;stroke-width:.46682"/><path d="m132.5 71.759-0.12564-0.14238-0.18064 0.06532 0.10009-0.1603-0.1195-0.14712 0.1874 0.04327 0.1066-0.15618 0.0148 0.18709 0.18549 0.05048-0.17767 0.07253z" style="fill:#fae17a;opacity:.25;stroke-width:.46682"/></g><path d="m135.47 70.9h4.3289" style="fill:none;stroke-linecap:round;stroke-width:.64673;stroke:#716c61"/><path d="m140.9 70.9h1.163" style="fill:none;stroke-linecap:round;stroke-width:.64673;stroke:#716c61"/><g style="stroke-width:.46682"><path d="m120.15 71.08a1.3245 1.2903 0 0 1-2.649 0 1.3245 1.2903 0 1 1 2.649 0z" style="fill:#5f8dd3;opacity:.25;stroke-width:.46682"/><path d="m118.83 69.799c-0.64535 0-1.1745 0.44325-1.2922 1.0385h2.5844c-0.11761-0.59527-0.64681-1.0385-1.2922-1.0385z" style="fill:#fc0;opacity:.25;stroke-width:.46682"/><path d="m119.7 70.955a0.58151 0.56649 0 0 1-1.163 0 0.58151 0.56649 0 1 1 1.163 0z" style="fill:#fff6d5;opacity:.25;stroke-width:.46682"/><path d="m117.85 71.944c0.24242 0.26189 0.57865 0.42487 0.96916 0.42487 0.38673 0 0.72699-0.16731 0.96914-0.42487z" style="fill:#2ca02c;opacity:.25;stroke-width:.46682"/></g><g style="fill:none;stroke-linecap:round;stroke-width:.64673;stroke:#716c61"><path d="m149.42 70.9h5.9443" style="stroke-width:.64673"/><path d="m162.86 70.9h4.3289" style="stroke-width:.64673"/><path d="m168.29 70.9h1.163" style="stroke-width:.64673"/></g><g style="stroke-width:.46682"><path d="m147.55 71.08a1.3245 1.2903 0 0 1-2.649 0 1.3245 1.2903 0 1 1 2.649 0z" style="fill:#5f8dd3;opacity:.25;stroke-width:.46682"/><path d="m146.22 69.799c-0.64534 0-1.1745 0.44325-1.2922 1.0385h2.5844c-0.11761-0.59527-0.64683-1.0385-1.2922-1.0385z" style="fill:#fc0;opacity:.25;stroke-width:.46682"/><path d="m147.1 70.955a0.5815 0.56648 0 0 1-1.163 0 0.5815 0.56648 0 1 1 1.163 0z" style="fill:#fff6d5;opacity:.25;stroke-width:.46682"/><path d="m145.25 71.944c0.24241 0.26189 0.57865 0.42487 0.96915 0.42487 0.38674 0 0.727-0.16731 0.96916-0.42487z" style="fill:#2ca02c;opacity:.25;stroke-width:.46682"/><path d="m160.94 71.08a1.3245 1.2903 0 0 1-2.649 0 1.3245 1.2903 0 1 1 2.649 0z" style="fill:#330080;opacity:.25;stroke-width:.46682"/><path d="m159.62 69.788c-0.73147 0-1.3245 0.57772-1.3245 1.2903 0 0.71259 0.59303 1.2903 1.3245 1.2903 0.22206 0 0.43001-0.06326 0.6138-0.15742-0.62778-0.01648-1.1307-0.51749-1.1307-1.133 0-0.62049 0.51187-1.1246 1.1468-1.133-0.18762-0.09932-0.40131-0.15742-0.6299-0.15742z" style="fill:#d4aa00;opacity:.25;stroke-width:.46682"/><path d="m160.84 70.966-0.37078-0.03441-0.16201 0.32671-0.0808-0.3542-0.36904-0.04925 0.3208-0.18441-0.066-0.3571 0.27915 0.24021 0.32825-0.17143-0.14827 0.33287z" style="fill:#fae17a;opacity:.25;stroke-width:.46682"/><path d="m159.9 71.759-0.12564-0.14238-0.18063 0.06532 0.10009-0.1603-0.11972-0.14712 0.1874 0.04327 0.1066-0.15618 0.0148 0.18709 0.18551 0.05048-0.17767 0.07253z" style="fill:#fae17a;opacity:.25;stroke-width:.46682"/><path d="m180.44 49.083c0.79344 5.3416 0.78382 7.1003 0.75875 8.4893-0.0254 0.32141 0.25157 0.63638 0.58145 0.66108 0.32987 0.02473 0.65312-0.24528 0.67848-0.56665 0.11739-1.5333 0.0522-2.1953-0.54872-7.0888-0.49008-0.50839-0.96916-1.0154-1.4699-1.4948zm3.1821 3.3359c0.49394 4.5513 0.35542 3.2364 0.33871 5.673-0.0736 0.33505 0.20009 0.70202 0.54998 0.73744 0.34982 0.03544 0.69504-0.26893 0.69381-0.61157 0.41785-3.8533 0.15737-0.13496-0.17725-4.1464-0.46214-0.56316-0.93119-1.1148-1.4052-1.6522zm3.1013 3.7765c0.21351 2.1776 0.10681 2.1725-0.0652 2.9348-0.13578 0.31391 0.059 0.7217 0.39285 0.82283 0.33391 0.10117 0.73159-0.12734 0.80243-0.46095 0.10385-0.55606 0.45445-0.60988 0.29122-1.3141-0.46618-0.67318-0.93967-1.3358-1.4215-1.9827zm2.859 4.1541c8e-3 2.4039-0.20749 4.9131-0.74299 7.5844-0.10214 0.32654 0.13599 0.7134 0.4798 0.77948 0.34377 0.06614 0.71487-0.20358 0.74778-0.54341 0.41144-2.0521 0.64075-4.0129 0.72689-5.9009-0.39579-0.65092-0.80161-1.2879-1.2115-1.9197zm2.2937 3.7293c-0.0127 1.8561-0.17598 3.7114-0.56533 5.5547-0.0677 0.31723 0.16709 0.66582 0.49265 0.73174 0.32563 0.06593 0.68342-0.16278 0.75108-0.47997 0.25677-1.2153 0.42456-2.424 0.51687-3.6349-0.39153-0.73301-0.78631-1.4577-1.1953-2.1715zm2.0352 3.7922c0.0311 1.4186 0 2.8111-0.12924 4.1541-0.0294 0.32135 0.2436 0.63992 0.57343 0.66881 0.32985 0.02885 0.65689-0.2373 0.6865-0.55862 0.0542-0.56704 0.0882-1.1374 0.11316-1.7152-0.40272-0.86097-0.81749-1.7089-1.2438-2.5491zm2.1644 4.579c-0.0273 0.54963-0.0491 1.1204-0.0808 1.6522-0.0169 0.45776 0.62123 0.78879 1.0014 0.51928-0.29804-0.73079-0.60561-1.4523-0.92074-2.1714z" style="fill:#716c61;opacity:.75;stroke-width:.46682"/><path d="m187.26 68.096-0.47455-0.06676c-0.0169-0.26003-0.0459-0.4567-0.0905-0.58996-0.0446-0.13331-0.0933-0.20358-0.14679-0.21118-1.6879-0.77101-3.5155-1.4731-5.5523-1.1128-0.0455-0.0062-0.11167 0.04389-0.19755 0.15124-0.0861 0.10756-0.17534 0.29094-0.26848 0.55076l-0.47461-0.06676c0.33635-1.2013 0.3269-2.0659 0.45442-3.0637l0.47465 0.06676c0.0169 0.26003 0.0472 0.45681 0.0935 0.59035 0.0463 0.13352 0.0962 0.20399 0.14954 0.21155 0.78705-0.05666 1.5741 0.24802 2.3612 0.30458l0.4049-2.7295c-0.78712-0.06861-1.5742-0.34488-2.3612-0.3046-0.0455-0.0062-0.11167 0.04389-0.19755 0.15144-0.0861 0.10756-0.17534 0.2909-0.26847 0.55076l-0.47465-0.06676c0.32908-0.67518 0.47505-1.7072 0.45443-3.0637l0.47461 0.06676c0.0169 0.26007 0.0469 0.45687 0.0935 0.59035 0.0463 0.13352 0.0962 0.20419 0.14954 0.21159 1.7972-0.10467 3.6386 0.42341 5.5523 1.1128 0.0455 0.0062 0.11062-0.0443 0.19458-0.15186 0.084-0.10735 0.1726-0.29129 0.26569-0.55116l0.47455 0.06676c-0.16583 1.3332-0.26873 1.928-0.45439 3.0637l-0.47459-0.06676c-0.0169-0.26007-0.0459-0.4567-0.0905-0.59-0.0444-0.13331-0.0933-0.20358-0.14679-0.21114-0.76912-0.32572-1.563-0.60333-2.4477-0.70373l-0.40481 2.7295c0.8159 0.13105 1.6318 0.24219 2.4477 0.70373 0.0455 0.0062 0.11041-0.04327 0.19438-0.14897 0.0838-0.1057 0.17237-0.29038 0.26603-0.55398l0.47457 0.06676c-4e-3 0.43229-0.26527 2.0155-0.45441 3.0638z" style="fill:#716c61;opacity:.75;stroke-width:.46682"/></g></g></g><style type="text/css">.st0{clip-path:url(#b);fill:url(#a);}
	.st1{clip-path:url(#b);}
	.st2{fill:url(#y);}
	.st3{fill:#FFFFFF;}
	.st4{fill:#D1D3D4;}
	.st5{fill:#E6E7E8;}
	.st6{opacity:0.76;clip-path:url(#b);}
	.st7{opacity:0.25;fill:url(#z);}
	.st8{fill:url(#aa);}
	.st9{fill:url(#aj);}
	.st10{opacity:0.2;fill:url(#ab);}
	.st11{fill:none;}
	.st12{opacity:0.15;fill:url(#ac);}
	.st13{opacity:0.5;fill:url(#t);}
	.st14{fill:url(#u);}
	.st15{opacity:3.000000e-02;fill:none;stroke:#FFFFFF;stroke-width:2;stroke-miterlimit:10;}
	.st16{opacity:0.5;fill:url(#v);}
	.st17{fill:url(#w);}
	.st18{fill:url(#ad);}
	.st19{fill:url(#ae);}
	.st20{fill:url(#af);}
	.st21{fill:url(#ag);}
	.st22{clip-path:url(#x);}
	.st23{clip-path:url(#SVGID_21_);fill:url(#SVGID_22_);}
	.st24{opacity:0.71;clip-path:url(#SVGID_21_);}
	.st25{clip-path:url(#SVGID_21_);}
	.st26{fill:url(#SVGID_23_);}
	.st27{fill:#262262;}
	.st28{fill:#2B3990;}
	.st29{opacity:0.26;clip-path:url(#SVGID_21_);}
	.st30{opacity:0.25;fill:url(#SVGID_24_);}
	.st31{fill:url(#SVGID_25_);}
	.st32{fill:url(#SVGID_26_);}
	.st33{opacity:0.2;fill:url(#SVGID_27_);}
	.st34{opacity:0.15;fill:url(#SVGID_28_);}
	.st35{opacity:0.5;fill:url(#SVGID_29_);}
	.st36{fill:url(#SVGID_30_);}
	.st37{opacity:0.5;fill:url(#SVGID_31_);}
	.st38{fill:url(#SVGID_32_);}
	.st39{fill:url(#SVGID_33_);}
	.st40{fill:url(#SVGID_34_);}
	.st41{fill:url(#SVGID_35_);}
	.st42{fill:url(#SVGID_36_);}</style><style type="text/css">.st0{clip-path:url(#b);fill:url(#a);}
	.st1{clip-path:url(#b);}
	.st2{fill:url(#y);}
	.st3{fill:#FFFFFF;}
	.st4{fill:#D1D3D4;}
	.st5{fill:#E6E7E8;}
	.st6{opacity:0.76;clip-path:url(#b);}
	.st7{opacity:0.25;fill:url(#z);}
	.st8{fill:url(#aa);}
	.st9{fill:url(#aj);}
	.st10{opacity:0.2;fill:url(#ab);}
	.st11{fill:none;}
	.st12{opacity:0.15;fill:url(#ac);}
	.st13{opacity:0.5;fill:url(#t);}
	.st14{fill:url(#u);}
	.st15{opacity:3.000000e-02;fill:none;stroke:#FFFFFF;stroke-width:2;stroke-miterlimit:10;}
	.st16{opacity:0.5;fill:url(#v);}
	.st17{fill:url(#w);}
	.st18{fill:url(#ad);}
	.st19{fill:url(#ae);}
	.st20{fill:url(#af);}
	.st21{fill:url(#ag);}
	.st22{clip-path:url(#x);}
	.st23{clip-path:url(#SVGID_21_);fill:url(#SVGID_22_);}
	.st24{opacity:0.71;clip-path:url(#SVGID_21_);}
	.st25{clip-path:url(#SVGID_21_);}
	.st26{fill:url(#SVGID_23_);}
	.st27{fill:#262262;}
	.st28{fill:#2B3990;}
	.st29{opacity:0.26;clip-path:url(#SVGID_21_);}
	.st30{opacity:0.25;fill:url(#SVGID_24_);}
	.st31{fill:url(#SVGID_25_);}
	.st32{fill:url(#SVGID_26_);}
	.st33{opacity:0.2;fill:url(#SVGID_27_);}
	.st34{opacity:0.15;fill:url(#SVGID_28_);}
	.st35{opacity:0.5;fill:url(#SVGID_29_);}
	.st36{fill:url(#SVGID_30_);}
	.st37{opacity:0.5;fill:url(#SVGID_31_);}
	.st38{fill:url(#SVGID_32_);}
	.st39{fill:url(#SVGID_33_);}
	.st40{fill:url(#SVGID_34_);}
	.st41{fill:url(#SVGID_35_);}
	.st42{fill:url(#SVGID_36_);}</style><text transform="scale(.8535 1.1716)" x="6.3891134" y="29.491865" style="fill:#716c61;font-family:'Times New Roman';font-size:12.4px;font-weight:bold;letter-spacing:0px;line-height:1.25;stroke-width:.26458;word-spacing:0px" xml:space="preserve"><tspan x="6.3891134" y="29.491865" style="fill:#716c61;font-family:'Times New Roman';font-weight:bold;stroke-width:.26458">NOWOŚCI</tspan></text></svg>
