<?xml version="1.0" encoding="UTF-8"?>
<svg width="100mm" height="114.12mm" version="1.1" viewBox="0 0 100 114.12" xmlns="http://www.w3.org/2000/svg" xmlns:xlink="http://www.w3.org/1999/xlink"><defs><filter id="ab" style="color-interpolation-filters:sRGB"><feGaussianBlur stdDeviation="1.1941658"/></filter><linearGradient id="x" x1="558.81" x2="506.73" y1="-107.78" y2="-168.02" gradientTransform="matrix(.76634 0 0 .78094 -269.92 256.82)" gradientUnits="userSpaceOnUse"><stop stop-color="#eaeaea" offset="0"/><stop stop-color="#ccc" stop-opacity="0" offset="1"/></linearGradient><linearGradient id="w" x1="505.67" x2="589.03" y1="133.13" y2="104.95" gradientUnits="userSpaceOnUse"><stop stop-color="#1a1a1a" offset="0"/><stop stop-color="#1a1a1a" stop-opacity="0" offset="1"/></linearGradient><filter id="z" style="color-interpolation-filters:sRGB"><feGaussianBlur stdDeviation="0.8766966"/></filter><filter id="a" style="color-interpolation-filters:sRGB"><feGaussianBlur stdDeviation="0.068100339"/></filter><linearGradient id="d" x1="372.26" x2="363.82" y1="108.53" y2="99.779" gradientUnits="userSpaceOnUse"><stop stop-color="#333" offset="0"/><stop stop-color="#333" stop-opacity="0" offset="1"/></linearGradient><linearGradient id="v" x1="466.55" x2="466.57" y1="-182.75" y2="-187.66" gradientTransform="rotate(-9.657 507.93 -148.3)" gradientUnits="userSpaceOnUse" xlink:href="#c"/><linearGradient id="c"><stop stop-color="#dfdfdf" offset="0"/><stop stop-color="#cacaca" offset=".0625"/><stop stop-color="#666" offset=".0625"/><stop stop-color="#e6e6e6" offset=".4445"/><stop stop-color="#e6e6e6" offset=".54985"/><stop stop-color="#999" offset=".7169"/><stop stop-color="#535353" offset="1"/></linearGradient><radialGradient id="m" cx="454.42" cy="67.896" r="1.2908" gradientTransform="matrix(1.8565 -.063317 .0536 1.5716 -392.86 -9.9858)" gradientUnits="userSpaceOnUse" xlink:href="#b"/><linearGradient id="b"><stop stop-color="#fff" offset="0"/><stop stop-color="#fff" stop-opacity="0" offset="1"/></linearGradient><filter id="e" style="color-interpolation-filters:sRGB"><feGaussianBlur stdDeviation="0.016546211"/></filter><linearGradient id="u" x1="466.55" x2="466.57" y1="-182.75" y2="-187.66" gradientTransform="rotate(-9.657 585.91 -155.88)" gradientUnits="userSpaceOnUse" xlink:href="#c"/><radialGradient id="l" cx="454.42" cy="67.896" r="1.2908" gradientTransform="matrix(1.8565 -.063317 .0536 1.5716 -392.08 -241.54)" gradientUnits="userSpaceOnUse" xlink:href="#b"/><linearGradient id="t" x1="466.55" x2="466.57" y1="-182.75" y2="-187.66" gradientTransform="rotate(-9.657 657.38 -162.74)" gradientUnits="userSpaceOnUse" xlink:href="#c"/><radialGradient id="k" cx="454.42" cy="67.896" r="1.2908" gradientTransform="matrix(1.8565 -.063317 .0536 1.5716 -389.91 -229.65)" gradientUnits="userSpaceOnUse" xlink:href="#b"/><linearGradient id="s" x1="466.55" x2="466.57" y1="-182.75" y2="-187.66" gradientTransform="rotate(-9.657 732.8 -170.55)" gradientUnits="userSpaceOnUse" xlink:href="#c"/><radialGradient id="j" cx="454.42" cy="67.896" r="1.2908" gradientTransform="matrix(1.8565 -.063317 .0536 1.5716 -387.54 -217.11)" gradientUnits="userSpaceOnUse" xlink:href="#b"/><linearGradient id="r" x1="466.55" x2="466.57" y1="-182.75" y2="-187.66" gradientTransform="rotate(-9.657 806.91 -178.46)" gradientUnits="userSpaceOnUse" xlink:href="#c"/><radialGradient id="i" cx="454.42" cy="67.896" r="1.2908" gradientTransform="matrix(1.8565 -.063317 .0536 1.5716 -385.16 -204.79)" gradientUnits="userSpaceOnUse" xlink:href="#b"/><linearGradient id="q" x1="466.55" x2="466.57" y1="-182.75" y2="-187.66" gradientTransform="rotate(-9.657 874.58 -185.63)" gradientUnits="userSpaceOnUse" xlink:href="#c"/><radialGradient id="h" cx="454.42" cy="67.896" r="1.2908" gradientTransform="matrix(1.8565 -.063317 .0536 1.5716 -382.99 -193.54)" gradientUnits="userSpaceOnUse" xlink:href="#b"/><linearGradient id="p" x1="466.55" x2="466.57" y1="-182.75" y2="-187.66" gradientTransform="rotate(-9.657 947.55 -194.94)" gradientUnits="userSpaceOnUse" xlink:href="#c"/><radialGradient id="g" cx="454.42" cy="67.896" r="1.2908" gradientTransform="matrix(1.8565 -.063317 .0536 1.5716 -380.4 -181.44)" gradientUnits="userSpaceOnUse" xlink:href="#b"/><filter id="aa" style="color-interpolation-filters:sRGB"><feGaussianBlur stdDeviation="1.0463309"/></filter><linearGradient id="o" x1="551.46" x2="530.44" y1="-191.49" y2="-184.59" gradientTransform="matrix(.75548 -.131 .12855 .76987 -245.18 321.61)" gradientUnits="userSpaceOnUse"><stop stop-color="#999" offset="0"/><stop stop-color="#ececec" offset="1"/></linearGradient><linearGradient id="n" x1="529.98" x2="543.48" y1="-175.84" y2="-185.35" gradientTransform="matrix(.75548 -.131 .12855 .76987 -245.18 321.61)" gradientUnits="userSpaceOnUse"><stop stop-color="#fff" offset="0"/><stop stop-color="#fff" stop-opacity="0" offset="1"/></linearGradient><filter id="f" style="color-interpolation-filters:sRGB"><feGaussianBlur stdDeviation="0.037155765"/></filter><filter id="ac" style="color-interpolation-filters:sRGB"><feGaussianBlur stdDeviation="0.012121789"/></filter><linearGradient id="linearGradient1186" x1="372.26" x2="363.82" y1="108.53" y2="99.779" gradientUnits="userSpaceOnUse" xlink:href="#d"/></defs><g transform="translate(-4.2776 -78.224)"><g transform="matrix(1.0466 0 0 1.0685 -74.414 -12.821)" style="stroke-width:.94564"><rect transform="matrix(.9853 -.17085 .1647 .98634 0 0)" x="61.698" y="116.32" width="70.464" height="84.219" rx="6.1341" style="fill-rule:evenodd;fill:#816647;stroke-width:.73156"/><path d="m98.507 183.1 63.497-11.409-13.872-77.74-62.016 11.255z" style="fill:#4d4d4d;stroke-width:.73155"/><path d="m98.507 183.1 62.585-11.053-14.06-77.707-60.914 10.866z" style="fill:#fff;stroke-width:.73155"/><g transform="matrix(.75549 -.131 .12783 .7655 -245.25 321.19)" style="filter:url(#ab);stroke-width:.94564"><path d="m471.87-99.622 80.634-0.254-0.32065-72.098c-1.0512-7.9973-12.408-3.5253-23.075-5.3251-1.3955-2.4505 2.3423-22.295-5.769-23.723l-50.676 0.35702z" style="stroke-width:.94564"/><path d="m512.16-201.09 12-0.25c9.9876 7.1612 24.657 16.814 28.25 29.75-0.82178-3.6183-2.3267-3.1014-4.25-4.75-5.9386-1.5516-12.123-1-19-1-0.42097-9.4636 0.37562-19.953-6.5-24.25-0.33333-0.16667-0.66667-0.33334-1-0.5" style="stroke-width:.94564"/></g><path d="m98.507 183.1 60.885-10.758-9.5103-55.464c-1.8222-6.0192-9.8276-1.0886-18.117-1.0768-1.3693-1.7038-1.0965-17.471-7.4081-17.509l-38.239 6.9134z" style="fill:#fff;stroke-width:.73155"/><path d="m98.507 183.1 60.885-10.758-9.5103-55.464c-1.8222-6.0192-9.8276-1.0886-18.117-1.0768-1.3693-1.7038-1.0965-17.471-7.4081-17.509l-38.239 6.9134z" style="fill:url(#x);stroke-width:.73155"/><path transform="matrix(.76634 0 0 .78094 -271.14 65.857)" d="m502.14 133.52 55.683 2.617 1.1742 3.7181h2.3483l0.39138 2.7397 2.7397-0.97846-1.7612-10.372-2.544 0.58707-0.39139-2.3483-1.9569 0.19569-0.58707-2.9354-45.382 4.2208z" style="fill:url(#w);filter:url(#z);opacity:.19027;stroke-width:.94564"/><path transform="matrix(.6746 0 0 .66497 -228.6 234.15)" d="m476.41-182.16c-0.19226-0.0131-0.39744-0.0102-0.59375 0.0312-1.0316 0.2176-1.8443 1.1698-2.1875 2.4062l-11.875 2.5312c-2.5005 0.64978-2.3378 5.0049-1.093 4.5432l11.078-2.2493c0.61179 0.59959 1.7826 1.8418 5.1404 0.61237 1.5109-0.55319 2.6092-2.3701 2.3125-4.5312-0.25957-1.891-1.4354-3.2522-2.7812-3.3438z" style="fill-rule:evenodd;filter:url(#a);opacity:.34186;stroke-width:.94564"/><path transform="matrix(.6746 0 0 .66497 -227.14 244.48)" d="m476.41-182.16c-0.19226-0.0131-0.39744-0.0102-0.59375 0.0312-1.0316 0.2176-1.8443 1.1698-2.1875 2.4062l-11.875 2.5312c-2.5005 0.64978-2.3378 5.0049-1.093 4.5432l11.078-2.2493c0.61179 0.59959 1.7826 1.8418 5.1404 0.61237 1.5109-0.55319 2.6092-2.3701 2.3125-4.5312-0.25957-1.891-1.4354-3.2522-2.7812-3.3438z" style="fill-rule:evenodd;filter:url(#a);opacity:.34186;stroke-width:.94564"/><path transform="matrix(.6746 0 0 .66497 -225.34 253.82)" d="m476.41-182.16c-0.19226-0.0131-0.39744-0.0102-0.59375 0.0312-1.0316 0.2176-1.8443 1.1698-2.1875 2.4062l-11.875 2.5312c-2.5005 0.64978-2.3378 5.0049-1.093 4.5432l11.078-2.2493c0.61179 0.59959 1.7826 1.8418 5.1404 0.61237 1.5109-0.55319 2.6092-2.3701 2.3125-4.5312-0.25957-1.891-1.4354-3.2522-2.7812-3.3438z" style="fill-rule:evenodd;filter:url(#a);opacity:.34186;stroke-width:.94564"/><path transform="matrix(.6746 0 0 .66497 -223.67 263.58)" d="m476.41-182.16c-0.19226-0.0131-0.39744-0.0102-0.59375 0.0312-1.0316 0.2176-1.8443 1.1698-2.1875 2.4062l-11.875 2.5312c-2.5005 0.64978-2.3378 5.0049-1.093 4.5432l11.078-2.2493c0.61179 0.59959 1.7826 1.8418 5.1404 0.61237 1.5109-0.55319 2.6092-2.3701 2.3125-4.5312-0.25957-1.891-1.4354-3.2522-2.7812-3.3438z" style="fill-rule:evenodd;filter:url(#a);opacity:.34186;stroke-width:.94564"/><path transform="matrix(.6746 0 0 .66497 -221.8 273.34)" d="m476.41-182.16c-0.19226-0.0131-0.39744-0.0102-0.59375 0.0312-1.0316 0.2176-1.8443 1.1698-2.1875 2.4062l-11.875 2.5312c-2.5005 0.64978-2.3378 5.0049-1.093 4.5432l11.078-2.2493c0.61179 0.59959 1.7826 1.8418 5.1404 0.61237 1.5109-0.55319 2.6092-2.3701 2.3125-4.5312-0.25957-1.891-1.4354-3.2522-2.7812-3.3438z" style="fill-rule:evenodd;filter:url(#a);opacity:.34186;stroke-width:.94564"/><path transform="matrix(.6746 0 0 .66497 -220.34 282.18)" d="m476.41-182.16c-0.19226-0.0131-0.39744-0.0102-0.59375 0.0312-1.0316 0.2176-1.8443 1.1698-2.1875 2.4062l-11.875 2.5312c-2.5005 0.64978-2.3378 5.0049-1.093 4.5432l11.078-2.2493c0.61179 0.59959 1.7826 1.8418 5.1404 0.61237 1.5109-0.55319 2.6092-2.3701 2.3125-4.5312-0.25957-1.891-1.4354-3.2522-2.7812-3.3438z" style="fill-rule:evenodd;filter:url(#a);opacity:.34186;stroke-width:.94564"/><path transform="matrix(.6746 0 0 .66497 -218.81 291.66)" d="m476.41-182.16c-0.19226-0.0131-0.39744-0.0102-0.59375 0.0312-1.0316 0.2176-1.8443 1.1698-2.1875 2.4062l-11.875 2.5312c-2.5005 0.64978-2.3378 5.0049-1.093 4.5432l11.078-2.2493c0.61179 0.59959 1.7826 1.8418 5.1404 0.61237 1.5109-0.55319 2.6092-2.3701 2.3125-4.5312-0.25957-1.891-1.4354-3.2522-2.7812-3.3438z" style="fill-rule:evenodd;filter:url(#a);opacity:.34186;stroke-width:.94564"/><g transform="matrix(.76634 0 0 .78094 -270.82 255.29)" style="stroke-width:.94564"><path transform="matrix(1.1503 -.18804 .19573 1.1051 25.72 -227.34)" d="m373.61 105.74a3.2289 3.5844 0 1 1-6.4578 0 3.2289 3.5844 0 1 1 6.4578 0z" style="fill-rule:evenodd;fill:url(#linearGradient1186);filter:url(#a);stroke-width:.94564"/><path d="m454.25-174.1 18.68-3.2387c2.6311-0.42819 1.454-5.3334-0.88324-4.8378l-18.652 3.0535c-3.2661 0.65772-1.8464 5.8133 0.8547 5.023z" style="fill:url(#v);stroke-width:.94564"/><path transform="translate(-1.5938,-244.53)" d="m454.35 66.052c-0.89549 0.96221-0.97289 3.4032 0.62268 3.8053 0.74595 0.04209 0.70367-0.03909 1.2454-0.06919-1.3315-1.1826-1.4536-2.7659-0.89943-4.0129-0.43306-0.11233-0.56928 0.23238-0.96862 0.27675z" style="fill:url(#m);filter:url(#e);stroke-width:.94564"/><path transform="matrix(1.1503 -.18804 .19573 1.1051 28.099 -214.37)" d="m373.61 105.74a3.2289 3.5844 0 1 1-6.4578 0 3.2289 3.5844 0 1 1 6.4578 0z" style="fill-rule:evenodd;fill:url(#linearGradient1186);filter:url(#a);stroke-width:.94564"/><path d="m456.63-161.13 18.68-3.2387c2.6311-0.42819 1.454-5.3334-0.88324-4.8378l-18.652 3.0535c-3.2661 0.65772-1.8464 5.8133 0.8547 5.023z" style="fill:url(#u);stroke-width:.94564"/><path d="m455.14-165.51c-0.89549 0.96221-0.97289 3.4032 0.62268 3.8053 0.74595 0.0421 0.70367-0.0391 1.2454-0.0692-1.3315-1.1826-1.4536-2.7659-0.89943-4.0129-0.43306-0.11234-0.56928 0.23237-0.96862 0.27675z" style="fill:url(#l);filter:url(#e);stroke-width:.94564"/><path transform="matrix(1.1503 -.18804 .19573 1.1051 30.261 -202.48)" d="m373.61 105.74a3.2289 3.5844 0 1 1-6.4578 0 3.2289 3.5844 0 1 1 6.4578 0z" style="fill-rule:evenodd;fill:url(#linearGradient1186);filter:url(#a);stroke-width:.94564"/><path d="m458.79-149.24 18.68-3.2387c2.6311-0.42819 1.454-5.3334-0.88324-4.8378l-18.652 3.0535c-3.2661 0.65772-1.8464 5.8133 0.8547 5.023z" style="fill:url(#t);stroke-width:.94564"/><path d="m457.3-153.61c-0.89549 0.96221-0.97289 3.4032 0.62268 3.8053 0.74595 0.0421 0.70367-0.0391 1.2454-0.0692-1.3315-1.1826-1.4536-2.7659-0.89943-4.0129-0.43306-0.11234-0.56928 0.23237-0.96862 0.27675z" style="fill:url(#k);filter:url(#e);stroke-width:.94564"/><path transform="matrix(1.1503 -.18804 .19573 1.1051 32.639 -189.94)" d="m373.61 105.74a3.2289 3.5844 0 1 1-6.4578 0 3.2289 3.5844 0 1 1 6.4578 0z" style="fill-rule:evenodd;fill:url(#linearGradient1186);filter:url(#a);stroke-width:.94564"/><path d="m461.17-136.7 18.68-3.2387c2.6311-0.42819 1.454-5.3334-0.88324-4.8378l-18.652 3.0535c-3.2661 0.65772-1.8464 5.8133 0.8547 5.023z" style="fill:url(#s);stroke-width:.94564"/><path d="m459.68-141.07c-0.89549 0.96221-0.97289 3.4032 0.62268 3.8053 0.74595 0.0421 0.70367-0.0391 1.2454-0.0692-1.3315-1.1826-1.4536-2.7659-0.89943-4.0129-0.43306-0.11234-0.56928 0.23237-0.96862 0.27675z" style="fill:url(#j);filter:url(#e);stroke-width:.94564"/><path transform="matrix(1.1503 -.18804 .19573 1.1051 35.018 -177.61)" d="m373.61 105.74a3.2289 3.5844 0 1 1-6.4578 0 3.2289 3.5844 0 1 1 6.4578 0z" style="fill-rule:evenodd;fill:url(#linearGradient1186);filter:url(#a);stroke-width:.94564"/><path d="m463.55-124.37 18.68-3.2387c2.6311-0.42819 1.454-5.3334-0.88324-4.8378l-18.652 3.0535c-3.2661 0.65772-1.8464 5.8133 0.8547 5.023z" style="fill:url(#r);stroke-width:.94564"/><path d="m462.06-128.75c-0.89549 0.96221-0.97289 3.4032 0.62268 3.8053 0.74595 0.0421 0.70367-0.0391 1.2454-0.0692-1.3315-1.1826-1.4536-2.7659-0.89943-4.0129-0.43306-0.11234-0.56928 0.23237-0.96862 0.27675z" style="fill:url(#i);filter:url(#e);stroke-width:.94564"/><path transform="matrix(1.1503 -.18804 .19573 1.1051 37.18 -166.37)" d="m373.61 105.74a3.2289 3.5844 0 1 1-6.4578 0 3.2289 3.5844 0 1 1 6.4578 0z" style="fill-rule:evenodd;fill:url(#linearGradient1186);filter:url(#a);stroke-width:.94564"/><path d="m465.71-113.13 18.68-3.2387c2.6311-0.42819 1.454-5.3334-0.88324-4.8378l-18.652 3.0535c-3.2661 0.65772-1.8464 5.8133 0.8547 5.023z" style="fill:url(#q);stroke-width:.94564"/><path d="m464.22-117.51c-0.89549 0.96221-0.97289 3.4032 0.62268 3.8053 0.74595 0.0421 0.70367-0.0391 1.2454-0.0692-1.3315-1.1826-1.4536-2.7659-0.89943-4.0129-0.43306-0.11234-0.56928 0.23237-0.96862 0.27675z" style="fill:url(#h);filter:url(#e);stroke-width:.94564"/><path transform="matrix(1.1503 -.18804 .19573 1.1051 39.774 -154.26)" d="m373.61 105.74a3.2289 3.5844 0 1 1-6.4578 0 3.2289 3.5844 0 1 1 6.4578 0z" style="fill-rule:evenodd;fill:url(#linearGradient1186);filter:url(#a);stroke-width:.94564"/><path d="m468.31-101.02 18.68-3.2387c2.6311-0.42819 1.454-5.3334-0.88324-4.8378l-18.652 3.0535c-3.2661 0.65772-1.8464 5.8133 0.8547 5.023z" style="fill:url(#p);stroke-width:.94564"/><path d="m466.81-105.4c-0.89549 0.96221-0.97289 3.4032 0.62268 3.8053 0.74595 0.0421 0.70367-0.0391 1.2454-0.0692-1.3315-1.1826-1.4536-2.7659-0.89943-4.0129-0.43306-0.11234-0.56928 0.23237-0.96862 0.27675z" style="fill:url(#g);filter:url(#e);stroke-width:.94564"/></g><path d="m98.929 120.02 27.418-5.0192" style="fill:none;stroke-width:.73155px;stroke:#9ea8af"/><path d="m99.58 125.04 27.418-5.0192" style="fill:none;stroke-width:.73155px;stroke:#9ea8af"/><path d="m101.06 134.41 45.971-8.7004" style="fill:none;stroke-width:.73155px;stroke:#9ea8af"/><path d="m101.88 138.76 45.971-8.7004" style="fill:none;stroke-width:.73155px;stroke:#9ea8af"/><path d="m103.03 144.11 45.971-8.7004" style="fill:none;stroke-width:.73155px;stroke:#9ea8af"/><path d="m103.85 148.46 45.971-8.7004" style="fill:none;stroke-width:.73155px;stroke:#9ea8af"/><path d="m104.67 153.49 45.971-8.7004" style="fill:none;stroke-width:.73155px;stroke:#9ea8af"/><path d="m105.5 157.84 45.971-8.7004" style="fill:none;stroke-width:.73155px;stroke:#9ea8af"/><path d="m106.15 172.06 45.971-8.7004" style="fill:none;stroke-width:.73155px;stroke:#9ea8af"/><path transform="matrix(.75548 -.131 .12855 .76987 -277.82 133.56)" d="m553.36 72.529-0.61382-2.1484-4.6036-1.5346-12.737 1.8415-1.9949 1.8415-1.8415-12.737-5.9848-16.113 9.0539 7.5193 14.271 13.504z" style="fill:#333;filter:url(#aa);opacity:.26991;stroke-width:.94564"/><path d="m115.9 99.703 9.0337-1.7644c8.4658 4.2048 20.789 9.7148 25.167 19.203-1.086-2.678-2.1565-2.0829-3.8214-3.1002-2.2317-0.72058-11.468 2.0473-14.71 3.2172-1.5346-7.2306-2.0542-16.908-7.8014-19.316-0.27325-0.08464-0.44787 0.42142-0.72113 0.33677" style="fill:url(#o);stroke-width:.73155"/><path d="m115.9 99.703 9.0337-1.7644c8.4658 4.2048 20.789 9.7148 25.167 19.203-1.086-2.678-2.1565-2.0829-3.8214-3.1002-2.2317-0.72058-11.468 2.0473-14.71 3.2172-1.5346-7.2306-2.0542-16.908-7.8014-19.316-0.27325-0.08464-0.44787 0.42142-0.72113 0.33677" style="fill:url(#n);opacity:.63717;stroke-width:.73155"/><g transform="matrix(.76634 0 0 .78094 -325.14 225.64)" style="stroke-width:.94564"><path d="m582-96.744 55.151-82.131c6.0018 0.10921 8.2629 2.0593 9.9192 6.3483l-53.564 81.734-21.029 20.632z" style="fill:#ff8080;stroke-width:.94564"/><path d="m582-96.744 48.964-72.127c6.5576 12.562 7.2098 2.0593 8.8661 6.3483l-46.324 71.73-21.029 20.632z" style="fill:#e9afaf;stroke-width:.94564"/><path d="m591.15-88.464 0.88754-3.6702-3.629 0.81376 0.17911-2.3469-3.3981 1.359-3.7298-2.8855 0.14609-1.153 48.803-72.212 9.1257 7.9354-46.138 69.905z" style="fill:#c83737;stroke-width:.94564"/><path d="m572.83-70.967 12.33-21.412-0.70369-3.4811-3.0514 0.76508z" style="fill:#f4d7d7;stroke-width:.94564"/><path d="m584.49-96.131 48.39-71.001-2.4446-1.438-48.707 72.206-0.13894 1.1156z" style="fill:#d35f5f;stroke-width:.94564"/><path d="m588.72-93.999 46.6-70.688-2.4446-1.438-48.236 70.118 0.66446 3.4313z" style="fill:#a02c2c;stroke-width:.94564"/><path d="m592.23-92.263 45.678-70.123-2.3008-2.157-46.878 70.748-0.24302 2.39z" style="fill:#782121;stroke-width:.94564"/><path d="m593.36-90.612 46.134-70.049-1.438-1.5818-45.727 70.173-0.95205 3.3421z" style="fill:#782121;stroke-width:.94564"/><path d="m573.11-70.679 18.053-17.807 0.92278-3.6447-3.6762 0.79484z" style="fill:#de8787;stroke-width:.94564"/><path d="m574.99-77.072 1.2277 0.39901 0.82871 0.70594 0.55247 0.89009-5.0643 4.9109z" style="fill:#916f6f;stroke-width:.94564"/><path d="m629.59-167.43c3.641 2.0193 7.4054 4.0437 9.3462 7.7632 0.72252-0.49932 1.9496-0.36789 1.4019-2.455-1.9314-3.2025-5.8514-5.3703-9.5107-7.1906-0.94764 0.0923-1.6456 0.43426-1.2374 1.8824z" style="fill:#ac9393;stroke-width:.94564"/><path d="m629.59-167.43c3.641 2.0193 7.4054 4.0437 9.3462 7.7632 0.72252-0.49932 0.79468-0.19679-0.22357-1.8989-1.9314-3.2025-4.7392-4.7715-8.3985-6.5917-0.94764 0.0923-1.1323-0.72069-0.72412 0.72742z" style="fill:#483737;filter:url(#f);opacity:.86726;stroke-width:.94564"/><path transform="matrix(-.25345 -.96735 -.96735 .25345 552.47 37.38)" d="m169.5-135.22c4.5463 0.41134 9.573 4.8908 10.48 8.041 0.0516-0.19088 0.5661-0.22534-0.45215-1.9275-1.9314-3.2025-4.7392-4.7715-8.3985-6.5917-0.94764 0.0923-1.682 0.21928-1.6296 0.47823z" style="fill:#e3dbdb;filter:url(#f);opacity:.86726;stroke-width:.94564"/><path d="m630.66-169.38 6.5019-9.4535c3.1021 0.17357 6.0934 1.3556 7.5713 3.0799l-7.4002 10.052c-1.6738-2.7209-6.673-3.6787-6.673-3.6787z" style="fill:#f9e8e8;stroke-width:.94564"/><path d="m632.71-166.9 0.85552-0.89829c-0.79633-0.4354-2.0659-1.1046-3.3585-1.1727-0.45634-0.0572-0.47913 0.45183-0.62697 0.71465 1.3169 0.16475 2.1176 0.72357 3.13 1.3563z" style="fill:#fff;filter:url(#ac);opacity:.70354;stroke-width:.94564"/><path d="m637.38-165.83 7.3574-9.8812c0.62111 0.38745 1.9014 1.5267 2.2244 3.2938l-6.5019 9.9668c-1.6738-2.7209-3.0799-3.3793-3.0799-3.3793z" style="fill:#eab2b2;stroke-width:.94564"/><path d="m634.53-167.72 6.6208-10.033c0.62111 0.38745 3.6542 0.84231 3.9772 2.6093l-7.1039 10.184c-1.6738-1.3948-3.4941-2.7606-3.4941-2.7606z" style="fill:#eec1c1;stroke-width:.94564"/></g></g></g></svg>
