<?xml version="1.0" encoding="UTF-8"?>
<svg width="100mm" height="114mm" version="1.1" viewBox="0 0 100 114" xmlns="http://www.w3.org/2000/svg" xmlns:xlink="http://www.w3.org/1999/xlink"><defs><linearGradient id="linearGradient4098"><stop stop-color="#ffb142" offset="0"/><stop stop-color="#c87600" offset="1"/></linearGradient><linearGradient id="linearGradient6390" x1="219.61" x2="219.61" y1="354.02" y2="362.28" gradientTransform="matrix(2.4093 0 0 2.3068 -266.7 -30.397)" gradientUnits="userSpaceOnUse" xlink:href="#linearGradient4098"/><linearGradient id="linearGradient6392" x1="238.98" x2="238.98" y1="354.02" y2="362.28" gradientTransform="matrix(2.4093 0 0 2.3068 -313.37 -30.397)" gradientUnits="userSpaceOnUse" xlink:href="#linearGradient4098"/><linearGradient id="linearGradient6394" x1="229.44" x2="229.44" y1="354.02" y2="362.28" gradientTransform="matrix(2.4093 0 0 2.3068 -290.37 -30.397)" gradientUnits="userSpaceOnUse" xlink:href="#linearGradient4098"/><linearGradient id="linearGradient6396" x1="176.39" x2="176.39" y1="354.02" y2="362.28" gradientTransform="matrix(2.4093 0 0 2.3068 -162.56 -30.397)" gradientUnits="userSpaceOnUse" xlink:href="#linearGradient4098"/><linearGradient id="linearGradient6398" x1="195.75" x2="195.75" y1="354.02" y2="362.28" gradientTransform="matrix(2.4093 0 0 2.3068 -209.22 -30.397)" gradientUnits="userSpaceOnUse" xlink:href="#linearGradient4098"/><linearGradient id="linearGradient6401" x1="186.21" x2="186.21" y1="354.02" y2="362.28" gradientTransform="matrix(2.4093 0 0 2.3068 -186.23 -30.397)" gradientUnits="userSpaceOnUse" xlink:href="#linearGradient4098"/><linearGradient id="linearGradient6403" x1="346.24" x2="359.47" y1="537.41" y2="537.41" gradientTransform="matrix(.86765 0 0 1.0523 -49.778 -17.662)" gradientUnits="userSpaceOnUse" xlink:href="#linearGradient4098"/><linearGradient id="linearGradient55785" x1="76" x2="76" y1="516.36" y2="412.36" gradientUnits="userSpaceOnUse" xlink:href="#linearGradient55779"/><linearGradient id="linearGradient55779"><stop stop-color="#96511f" offset="0"/><stop stop-color="#d0823f" offset="1"/></linearGradient><linearGradient id="linearGradient55752" x1="100.5" x2="100.5" y1="526.36" y2="361.36" gradientUnits="userSpaceOnUse"><stop stop-color="#421805" offset="0"/><stop stop-color="#b06528" offset="1"/></linearGradient><filter id="filter55807" color-interpolation-filters="sRGB"><feGaussianBlur stdDeviation="3.0648148"/></filter><linearGradient id="linearGradient55793" x1="118.5" x2="118.5" y1="286.88" y2="183.88" gradientTransform="translate(-18,177)" gradientUnits="userSpaceOnUse" xlink:href="#linearGradient55779"/><linearGradient id="linearGradient55766" x1="100.5" x2="100.5" y1="465.88" y2="414.38" gradientTransform="translate(0,-2)" gradientUnits="userSpaceOnUse"><stop stop-color="#421805" offset="0"/><stop stop-color="#c47530" offset="1"/></linearGradient><linearGradient id="linearGradient55819" x1="99.05" x2="99.05" y1="523.86" y2="365.86" gradientTransform="translate(1,-2)" gradientUnits="userSpaceOnUse"><stop stop-color="#eeeeec" offset="0"/><stop stop-color="#eeeeec" stop-opacity="0" offset="1"/></linearGradient><linearGradient id="linearGradient55970" x1="79.207" x2="128.43" y1="321.15" y2="372.7" gradientTransform="matrix(.87054 0 0 .87054 17.735 43.864)" gradientUnits="userSpaceOnUse"><stop stop-color="#c1722f" offset="0"/><stop stop-color="#995320" offset="1"/></linearGradient><linearGradient id="linearGradient55972" x1="128.43" x2="79.207" y1="372.7" y2="321.15" gradientTransform="matrix(.87054 0 0 .87054 17.735 43.864)" gradientUnits="userSpaceOnUse"><stop stop-color="#461b06" offset="0"/><stop stop-color="#ca8c57" offset="1"/></linearGradient><linearGradient id="linearGradient55967" x1="41.75" x2="86.988" y1="318.38" y2="331" gradientTransform="matrix(.87054 0 0 .87054 24.814 54.02)" gradientUnits="userSpaceOnUse"><stop stop-color="#d38646" offset="0"/><stop stop-color="#d38646" stop-opacity="0" offset="1"/></linearGradient><linearGradient id="linearGradient55963" x1="89.33" x2="89.689" y1="456.04" y2="511.18" gradientTransform="matrix(.87054 0 0 .87054 17.735 43.864)" gradientUnits="userSpaceOnUse"><stop stop-color="#be702e" offset="0"/><stop stop-color="#96511f" offset="1"/></linearGradient><linearGradient id="linearGradient55925" x1="-70.253" x2="-70.253" y1="420.42" y2="400.64" gradientTransform="translate(166.16,69.047)" gradientUnits="userSpaceOnUse" spreadMethod="reflect" xlink:href="#linearGradient55919"/><linearGradient id="linearGradient55919"><stop stop-color="#babdb6" offset="0"/><stop stop-color="#eeeeec" offset=".43196"/><stop stop-color="#d3d7cf" offset=".7395"/><stop stop-color="#eeeeec" offset="1"/></linearGradient><linearGradient id="linearGradient55917" x1="-69.899" x2="-57.238" y1="407.69" y2="376.97" gradientTransform="translate(165.81,81.775)" gradientUnits="userSpaceOnUse"><stop stop-color="#555753" offset="0"/><stop stop-color="#b1b2af" offset=".60466"/><stop stop-color="#eeeeec" offset="1"/></linearGradient><linearGradient id="linearGradient56022" x1="128" x2="139" y1="487.86" y2="498.86" gradientUnits="userSpaceOnUse"><stop stop-color="#2e3436" offset="0"/><stop stop-color="#2e3436" stop-opacity="0" offset="1"/></linearGradient><linearGradient id="linearGradient56040" x1="88.919" x2="89.095" y1="474.39" y2="480.31" gradientUnits="userSpaceOnUse" spreadMethod="reflect"><stop stop-color="#704c2e" offset="0"/><stop stop-color="#704c2e" stop-opacity="0" offset="1"/></linearGradient><linearGradient id="linearGradient56010" x1="460.61" x2="484.86" y1="-96" y2="-96" gradientTransform="matrix(0 -1 -1 0 -.25 938.47)" gradientUnits="userSpaceOnUse" xlink:href="#linearGradient55919"/><linearGradient id="linearGradient56012" x1="453.86" x2="484.86" y1="-96" y2="-96" gradientTransform="matrix(0 -1 -1 0 -.25 938.47)" gradientUnits="userSpaceOnUse"><stop stop-color="#555753" offset="0"/><stop stop-color="#555753" stop-opacity="0" offset="1"/></linearGradient><linearGradient id="linearGradient56050" x1="96" x2="95.714" y1="394.36" y2="379.36" gradientTransform="matrix(1.0704,0,0,1,-11.289,-770.22)" gradientUnits="userSpaceOnUse"><stop stop-color="#fff" offset="0"/><stop stop-color="#b86e32" offset="1"/></linearGradient></defs><g transform="translate(-34.845 -87.642)"><g transform="matrix(.17868 0 0 .18167 34.852 52.907)"><g stroke="#000" stroke-linecap="round" stroke-linejoin="round" stroke-width="6.7628"><path d="m248.88 784.19a19.274 31.141 0 0 1-38.549 0 19.274 31.141 0 1 1 38.549 0z" fill="url(#linearGradient6390)"/><path d="m202.21 784.19a19.274 31.141 0 0 1-38.549 0 19.274 31.141 0 1 1 38.549 0z" fill="url(#linearGradient6392)"/><path d="m225.21 784.19a19.274 31.141 0 0 1-38.549 0 19.274 31.141 0 1 1 38.549 0z" fill="url(#linearGradient6394)"/><path d="m353.01 784.19a19.274 31.141 0 0 1-38.549 0 19.274 31.141 0 1 1 38.549 0z" fill="url(#linearGradient6396)"/><path d="m306.37 784.19a19.274 31.141 0 0 1-38.549 0 19.274 31.141 0 1 1 38.549 0z" fill="url(#linearGradient6398)"/><path d="m329.35 784.19a19.274 31.141 0 0 1-38.549 0 19.274 31.141 0 1 1 38.549 0z" fill="url(#linearGradient6401)"/></g><path d="m182.94 753.04c-7.8535 0-14.581 7.6152-17.583 18.513 25.659 6.8633 53.851 10.867 83.478 11.412-0.40356-16.616-8.8497-29.924-19.232-29.924-4.4647 0-8.5662 2.4718-11.835 6.5937-3.2688-4.1219-7.3701-6.5937-11.835-6.5937-4.309 0-8.2858 2.3059-11.497 6.1711-3.2108-3.8651-7.1878-6.1711-11.497-6.1711zm104.15 0c-10.355 0-18.788 13.242-19.232 29.799 29.596-0.95266 57.639-5.388 83.097-12.638-3.1748-10.165-9.6804-17.161-17.203-17.161-4.4647 0-8.5662 2.4718-11.835 6.5937-3.2688-4.1219-7.3701-6.5937-11.835-6.5937-4.309 0-8.2858 2.3059-11.497 6.1711-3.2108-3.8651-7.1878-6.1711-11.497-6.1711z" fill-opacity=".31373" stroke-width="2.2822"/><g stroke="#000"><path d="m244.24 370.4c54.241-0.28165 91.387 0.35883 135.93-10.384 29.4-7.0904 60.624-3.2682 60.624-3.2682-0.13652 0.15587 7.9232-1.5945 3.8086 3.3325-10.306 12.341-31.254 31.159-68.236 38.441-89.735 9.3496-178.42 9.4781-266.43 3.9307-21.494-1.0456-36.945-13.167-51.811-25.792-13.128-11.149-18.49-27.893 7.8533-20.161 25.868 7.5926 124.02 14.182 178.27 13.901z" stroke-width="8.1424"/><path d="m479.7 546.02a223.93 223.93 0 0 1-447.86 0 223.93 223.93 0 1 1 447.86 0z" fill="#784421" stroke-linecap="round" stroke-width="6.7628"/><path d="m366.46 657.98c-35.842-6.6595-3.0397 29.258-8.5356 42.244-21.727-10.683-13.448 24.684-23.274 34.509-18.616-0.99564-21.522 17.777-34.509 23.274-15.692-8.7059-27.263 8.5357-42.244 8.5357-14.982 0-23.847-16.565-42.244-8.5357-12.987-5.496-15.893-23.591-34.509-23.274-9.8249-9.8249-8.309-47.221-23.274-34.509-5.496-12.987 19.868-51.607-8.5357-42.244 0-14.982 30.091-42.782 8.5357-42.244 5.496-12.987 33.06-22.655 23.274-34.509 19.65-19.65 46.79-31.809 76.753-31.809 29.963 0 57.103 12.159 76.753 31.809-14.521 7.1196 17.777 21.522 23.274 34.509-24.26-1.2152 8.5356 27.263 8.5356 42.244z" fill="#fff" stroke-linecap="round" stroke-linejoin="round" stroke-width="6.7628"/></g><path d="m453.61 441.11c2.6788 13.84 4.0998 28.114 4.0998 42.732 0 5.0448-0.17824 10.043-0.50722 15.005-4.9674-0.24725-10.25 0.0258-15.893 0.84535-47.632 10.142-27.286 69.879-39.69 132.38-28.678 46.171-43.843 51.5-117.39 69.991-16.217 3.7357-33.106 5.7096-50.45 5.7096-41.082 0-79.573-11.101-112.68-30.433-32.028-74.989 10.924-156.44-45.523-170.51-62.368-11.261-86.523 46.605-46.199 133.31 22.264 47.874 59.139 71.387 86.267 80.518 38.364 30.839 87.093 49.284 140.12 49.284 62.149 0 118.43-25.346 159.01-66.275 23.607-11.791 49.857-33.265 68.092-69.192 34.101-67.183 27.571-117.78-7.3968-131.79-4.2873-21.825-11.721-42.527-21.852-61.583z" fill-opacity=".31373" fill-rule="evenodd" stroke-width="2.2822"/><path d="m193.6 373.14c-42.246 0-76.559 39.671-76.559 88.554s34.313 88.554 76.559 88.554c24.828 0 46.858-13.716 60.843-34.936 13.985 21.235 36.063 34.936 60.903 34.936 42.246 0 76.559-39.671 76.559-88.554s-34.313-88.554-76.559-88.554c-24.835 0-46.917 13.705-60.903 34.936-13.986-21.215-36.02-34.936-60.843-34.936z" fill="#fff" stroke="#000" stroke-linecap="round" stroke-width="6.7628"/><path d="m256.77 523.17c-12.563 0-26.218 13.968-25.67 22.79 0.5462 8.8221 22.394 45.58 27.309 45.58 4.9159 0 24.032-36.022 23.486-46.315-0.54622-10.292-16.932-22.79-25.125-22.055z" fill-opacity=".31373" fill-rule="evenodd" stroke-width="2.2822"/><g stroke="#000" stroke-width="6.7628"><path d="m253.9 508.82c-12.563 0-26.218 12.587-25.67 20.537 0.5462 7.9498 22.394 41.073 27.309 41.073 4.9159 0 24.032-32.462 23.486-41.737-0.5462-9.2746-16.932-20.537-25.125-19.874z" fill="url(#linearGradient6403)" fill-rule="evenodd"/><path d="m249.63 467.69a22.165 22.165 0 1 1-44.329 0 22.165 22.165 0 1 1 44.329 0z" stroke-linecap="round"/><path d="m305.75 467.69a22.165 22.165 0 1 1-44.329 0 22.165 22.165 0 1 1 44.329 0z" stroke-linecap="round"/></g><g stroke-width="2.2822"><path d="m225.21 459.93a5.7484 5.7484 0 0 1-11.497 0 5.7484 5.7484 0 1 1 11.497 0z" fill="#fff"/><path d="m281.33 459.93a5.7484 5.7484 0 0 1-11.497 0 5.7484 5.7484 0 1 1 11.497 0z" fill="#fff"/><path d="m5.4989 536.25c-4.6687 22.325-1.7563 52.308 10.525 87.662 32.266 92.888 123.52 106.83 110.53 90.072-5.5576-7.1684-10.172-14.438-13.948-21.725-25.634-6.1619-73.103-32.978-94.554-94.734-7.9512-22.89-11.975-43.522-12.552-61.277zm96.412 8.5802c-1.1941 11.545-2.5107 23.822-3.0855 36.689 1.3435-13.242 2.8126-25.62 3.0855-36.689z" fill-opacity=".31373" fill-rule="evenodd"/></g><g transform="matrix(1.0667 -.3613 .3613 1.0667 131.73 220.12)"><rect x="-15" y="364.36" width="231" height="159" ry="9.7193" fill="url(#linearGradient55785)" stroke="url(#linearGradient55752)" stroke-width="6"/><path d="m-6.2812 371.38c-5.3845 0-9.7188 4.3343-9.7188 9.7188v35.141l40 55.141h151l40-55.141v-35.141c0-5.3845-4.3343-9.7188-9.7188-9.7188h-211.56z" fill="#2e3436" filter="url(#filter55807)" opacity=".5"/><path d="m-5.2812 362.38c-5.3845 0-9.7188 4.3343-9.7188 9.7188v35.141l40 55.141h151l40-55.141v-35.141c0-5.3845-4.3343-9.7188-9.7188-9.7188h-211.56z" fill="url(#linearGradient55793)" stroke="url(#linearGradient55766)" stroke-width="3"/><rect x="-14.006" y="364.36" width="228.11" height="157.01" ry="9.5978" fill="none" stroke="url(#linearGradient55819)" stroke-width=".9875"/><path d="m77.961 323.87c-16.203 0-29.245 13.041-29.245 29.245v7.318h16.404v-6.9371c0-7.3299 5.8914-13.248 13.221-13.248h37.379c7.3299 0 13.221 5.9186 13.221 13.248v6.9371h16.404v-7.318c0-16.203-13.041-29.245-29.245-29.245h-38.14z" fill="url(#linearGradient55970)" stroke="url(#linearGradient55972)" stroke-width=".87054"/><path d="m77.781 324.43c-15.721 0-28.374 12.653-28.374 28.374v7.1001h2.9562v-3.7216c0-15.721 12.653-28.374 28.374-28.374h37.005c7.7106 0 14.692 3.041 19.796 7.9976-5.1648-6.9151-13.418-11.376-22.752-11.376h-37.005z" fill="url(#linearGradient55967)"/><path d="m129.47 356.56c0-4.5005-0.30145-6.3258-1.404-8.5017-0.3091-0.60997-0.47062-1.109-0.35895-1.109 0.4454 0 2.6298 2.723 3.3683 4.1989 1.1326 2.2632 1.4415 3.7288 1.4415 6.8374v2.6747h-3.0468v-4.1002z" fill="#2e3436" opacity=".62406"/><path d="m84.853 434.67h21.92v60.489l-10.96 12-10.96-12z" fill="url(#linearGradient55963)" stroke="#461b06"/><g fill="#431905"><rect x="86.621" y="437.89" width="4.2426" height="1.4142"/><rect x="93.737" y="437.89" width="4.2426" height="1.4142"/><rect x="100.32" y="437.71" width="4.2426" height="1.4142"/></g><path d="m86.806 450.42c-4.5589 0-8.2252 3.6662-8.2252 8.2252v22.094c0 4.559 3.6662 8.2252 8.2252 8.2252h18.2c4.5589 0 8.2252-3.6662 8.2252-8.2252v-22.094c0-4.559-3.6662-8.2252-8.2252-8.2252zm2.8657 6.0595h12.469c3.1261 0 5.6439 2.5177 5.6439 5.6439v15.138c0 3.1261-2.5178 5.6439-5.6439 5.6439h-12.469c-3.1261 0-5.6439-2.5178-5.6439-5.6439v-15.138c0-3.1261 2.5177-5.6439 5.6439-5.6439z" fill="url(#linearGradient55925)" stroke="url(#linearGradient55917)"/><circle transform="matrix(.86364 0 0 .86364 -19.295 42.527)" cx="133.5" cy="493.36" r="5" fill="#704c2e" stroke="url(#linearGradient56022)"/><path d="m85.031 468.47v11.844h20.844v-11.844h-5.5938c2e-3 0.0533 0.0312 0.10249 0.0312 0.15625 0 2.3849-1.9276 4.3125-4.3125 4.3125s-4.3125-1.9276-4.3125-4.3125c0-0.0538 0.0293-0.10297 0.03125-0.15625h-6.6875z" fill="url(#linearGradient56040)" opacity=".64286"/><path d="m95.625 464.38c-0.87755 0-1.6777 0.30964-2.3438 0.84375v16.406c0 1.3717 1.0971 2.4688 2.4688 2.4688s2.4688-1.0971 2.4688-2.4688v-16.188c-0.707-0.66-1.608-1.06-2.594-1.06z" fill="url(#linearGradient56010)" stroke="url(#linearGradient56012)" stroke-width="1.0482"/><rect transform="scale(1,-1)" x="-14.5" y="-390.86" width="228" height="27" ry="9.7193" fill="url(#linearGradient56050)" opacity=".21805"/></g><path d="m400.73 530.66c-6.1405 95.962 13.911 87.084 3.028 148.09-14.909 83.572-6.9221 57.078-26.049 58.981 6.211 9.758 13.552 23.806 42.46-68.192 22.916-72.925 13.157-125.1-17.494-140.4l-1.9439 1.5266z" fill-opacity=".31373" fill-rule="evenodd" stroke-width="2.2822"/><g fill="#784421" fill-rule="evenodd" stroke="#000"><path d="m75.389 495.95c65.072 23.399-19.157 127.33 51.153 218.02 12.996 16.763-78.27 2.8279-110.53-90.06-31.378-90.332-1.5316-145.45 59.383-127.96z" stroke-width="6.7628"/><path d="m98.934 483.69c-18.109-6.234-36.819 10.258-40.395 19.179 18.276-4.6694 26.672-5.9862 31.403-1.8675-2.038 4.5601-23.545 9.1188-30.212 39.051 16.811-11.655 30.166-25.125 35.534-19.589-3.8975 6.8085-8.3853 19.608-5.3609 32.3 9.6592-12.747 19.529-26.211 28.596-26.574" stroke-linecap="round" stroke-linejoin="round" stroke-width="6.7628"/><path d="m435.79 496.4c-64.91 25.656 19.109 139.62-51.025 239.06-12.964 18.38 78.074 3.1008 110.26-98.749 31.298-99.047 1.5277-159.49-59.234-140.31z" stroke-width="7.0728"/><path d="m411.87 483.69c18.109-6.234 36.819 10.258 40.395 19.179-18.276-4.6694-26.672-5.9862-31.403-1.8675 2.0379 4.5601 23.545 9.1188 30.212 39.051-16.811-11.655-30.166-25.125-35.534-19.589 3.8975 6.8085 8.3853 19.608 5.3609 32.3-9.6592-12.747-19.529-26.211-28.596-26.574" stroke-linecap="round" stroke-linejoin="round" stroke-width="6.7628"/></g><path d="m457.08 492.71c-0.55807-9.1e-4 -1.1248 0.0306-1.6907 0.0466 21.928 19.534 31.207 64.737 19.992 127.6-14.909 83.572-72.464 119.63-91.594 121.53 6.211 9.758 82.467-12.149 111.37-104.15 27.455-87.374 8.0082-144.96-38.083-145.03z" fill-opacity=".31373" fill-rule="evenodd" stroke-width="2.2822"/><g transform="matrix(1.468 0 0 1.468 808.82 280.84)" stroke="#000"><path d="m-294.64 51.062c-0.71204-17.528 1.7932-34.804-0.13139-53.346-2.1209-20.433-15.535-57.463-92.865-56.09-77.329 1.373-88.092 40.877-88.208 58.744l-0.34639 53.353c62.892-10.209 122.28-8.8554 181.55-2.6608z" fill="#1a1a1a" stroke-width="5.3126"/><path d="m-478.43 55.376-0.24782-12.202c60.085-15.209 120.04-15.855 186.13-4.0101l-3.1321 11.599c-63.29 17.75-124.35 15.638-182.75 4.6131v8.8e-5z" fill="#4d4d4d" stroke-width="5.5"/><path d="m-383.09 54.381c43.459-0.96334 79.91-11.529 108.01-21.371 9.3082-3.2602 16.145 0.96579 20.649 6.0381 7.0148 10.064 8.0974 12.871 4.7435 12.431-1.1227-0.14731-2.7879-1.0229-4.6613-2.1394-22.762-0.66193-59.707 17.195-128.89 17.395-35.317 0.10198-101.67-9.6682-124.54-17.818-4.5723-1.6297-8.3947 2.186-9.7312 5.7813-1.078 0.02518-3.0052-21.043 16.298-16.116 19.303 4.9272 74.658 16.762 118.12 15.799l4e-5 1.07e-4h-1e-5z" fill="#333" stroke-linecap="round" stroke-width="6.6848"/></g></g></g></svg>
