<?xml version="1.0" encoding="UTF-8"?>
<svg width="194.62mm" height="171.87mm" version="1.1" viewBox="0 0 194.62 171.87" xmlns="http://www.w3.org/2000/svg" xmlns:xlink="http://www.w3.org/1999/xlink"><defs><linearGradient id="a"><stop stop-color="#5a3722" offset="0"/><stop stop-color="#df7b3f" offset="1"/></linearGradient><linearGradient id="b"><stop stop-color="#fec417" offset="0"/><stop stop-color="#f15d01" offset="1"/></linearGradient><linearGradient id="y"><stop stop-color="#008000" offset="0"/><stop stop-color="#8f8" offset="1"/></linearGradient><linearGradient id="x"><stop stop-color="#fec417" offset="0"/><stop stop-color="#e67601" offset="1"/></linearGradient><linearGradient id="c"><stop stop-color="#fec417" offset="0"/><stop stop-color="#fbfe68" offset="1"/></linearGradient><linearGradient id="aq" x1="295.59" x2="275.23" y1="317.86" y2="291.09" gradientTransform="matrix(.33208 0 0 .33208 -7.4234 14.717)" gradientUnits="userSpaceOnUse" xlink:href="#c"/><linearGradient id="z" x1="360.47" x2="342.06" y1="327.44" y2="326.94" gradientTransform="matrix(.33208 0 0 .33208 -7.4234 14.717)" gradientUnits="userSpaceOnUse" xlink:href="#x"/><linearGradient id="aa" x1="340.53" x2="327.11" y1="270.51" y2="250.23" gradientTransform="matrix(.16136 0 0 .22336 31.669 42.239)" gradientUnits="userSpaceOnUse" xlink:href="#y"/><linearGradient id="ab" x1="342.81" x2="326.28" y1="270.48" y2="251.54" gradientTransform="matrix(.29223 0 0 .29223 6.1436 24.248)" gradientUnits="userSpaceOnUse" xlink:href="#y"/><linearGradient id="ac" x1="299.57" x2="305.13" y1="228.46" y2="269.37" gradientTransform="matrix(.33208 0 0 .33208 -7.4234 14.717)" gradientUnits="userSpaceOnUse" xlink:href="#b"/><linearGradient id="ad" x1="396.25" x2="401.87" y1="305.1" y2="192.24" gradientTransform="matrix(.33208 0 0 .33208 -7.4234 14.717)" gradientUnits="userSpaceOnUse" xlink:href="#a"/><linearGradient id="ae" x1="375.93" x2="359.76" y1="186.16" y2="137.41" gradientTransform="matrix(.33208 0 0 .33208 -7.4234 14.717)" gradientUnits="userSpaceOnUse" xlink:href="#a"/><linearGradient id="af" x1="254.64" x2="209.69" y1="295.44" y2="263.18" gradientTransform="matrix(.33208 0 0 .33208 -7.4234 14.717)" gradientUnits="userSpaceOnUse" xlink:href="#a"/><linearGradient id="ag" x1="346.61" x2="414.06" y1="412.98" y2="699.86" gradientTransform="matrix(.33208 0 0 .33208 -7.4234 14.717)" gradientUnits="userSpaceOnUse" xlink:href="#a"/><linearGradient id="ah" x1="325.99" x2="366.16" y1="415.99" y2="535.7" gradientTransform="matrix(.33208 0 0 .33208 -7.4234 14.717)" gradientUnits="userSpaceOnUse" xlink:href="#c"/><linearGradient id="ai" x1="205.68" x2="72.34" y1="360.82" y2="335.82" gradientTransform="matrix(.33208 0 0 .33208 -7.4234 14.717)" gradientUnits="userSpaceOnUse" xlink:href="#a"/><linearGradient id="aj" x1="453.52" x2="620.27" y1="327.73" y2="234.15" gradientTransform="matrix(.33208 0 0 .33208 -7.4234 14.717)" gradientUnits="userSpaceOnUse" xlink:href="#a"/><linearGradient id="ak" x1="465.11" x2="430.11" y1="553.11" y2="537.45" gradientTransform="matrix(.33208 0 0 .33208 -7.4234 14.717)" gradientUnits="userSpaceOnUse" xlink:href="#b"/><linearGradient id="al" x1="504.89" x2="491.77" y1="540.11" y2="545.67" gradientTransform="matrix(.33208 0 0 .33208 -7.4234 14.717)" gradientUnits="userSpaceOnUse" xlink:href="#x"/><linearGradient id="am" x1="528.87" x2="516.78" y1="541.41" y2="543.93" gradientTransform="matrix(.33208 0 0 .33208 -7.4234 14.717)" gradientUnits="userSpaceOnUse" xlink:href="#b"/><linearGradient id="an" x1="359.23" x2="343.53" y1="597.2" y2="596.19" gradientTransform="matrix(.33208 0 0 .33208 -7.4234 14.717)" gradientUnits="userSpaceOnUse" xlink:href="#b"/><linearGradient id="ao" x1="332.5" x2="320.17" y1="595.17" y2="595.17" gradientTransform="matrix(.33208 0 0 .33208 -7.4234 14.717)" gradientUnits="userSpaceOnUse" xlink:href="#b"/><linearGradient id="ap" x1="304.91" x2="292.28" y1="586.77" y2="585.01" gradientTransform="matrix(.33208 0 0 .33208 -7.4234 14.717)" gradientUnits="userSpaceOnUse" xlink:href="#c"/></defs><g transform="translate(-11.549 -54.621)"><path d="m121.73 189.37s14.054 9.666 15.181 10.793c1.1267 1.1267 1.5418 2.3127 0.41511 3.4986-1.1267 1.186-6.523 2.372-7.7684 4.151-1.2453 1.779-1.8383 3.6766-0.4744 4.744 1.3639 1.0674 3.4393 2.3127 5.515 1.9569 2.0755-0.35581 14.647-9.1916 14.647-9.1916s2.372 4.4476 5.6928 4.5069c3.3208 0.0593 4.6847-4.2696 4.6847-4.2696 2.2534 0.0593 3.973-1.0674 3.973-1.0674s1.3046 1.3046 3.9732 1.4232c2.6686 0.1186 4.8032-1.9569 5.0406-3.2615 0.2372-1.3046 0.0593-4.0918-0.65231-5.3369-0.71159-1.2453-2.8464-9.3102-5.6335-10.318-2.7871-1.0081-4.922-0.41511-4.922-0.41511s-0.96562-2.0608-3.2615-2.6686c-2.0162-0.53369-3.6835-0.6237-6.4045 0.35581-1.4825 0.53369-3.2022 2.1941-3.2022 2.1941s-2.5499-1.0674-4.2696 0.1186c-1.7197 1.186-3.4393 3.0242-3.4393 3.0242l-11.623-7.294s-3.5581 0.88951-5.2776 3.2022c-1.7197 2.3127-2.1941 3.8544-2.1941 3.8544z" style="stroke-linejoin:round;stroke-width:1.6604;stroke:#000"/><path d="m129.2 183.56 10.852 6.9382-2.7278 5.8708s5.6335-9.3694 9.1916-9.3694c3.5581 0 6.4638 2.0755 8.5984 8.0648 2.1348 5.9894 3.9137 6.6416 3.5581 9.4287-0.35581 2.7871-1.6604 4.8032-3.5581 4.6254-1.8976-0.1779-4.151-1.4232-7.116-8.4799-2.9649-7.0567-4.2696-6.8789-4.2696-6.8789l2.6092 5.6928c-0.56335 0.77092-3.143 1.2453-3.143 1.2453s2.876 0.50405 3.9137 0.1186l1.7197 3.38s-11.564 8.895-14.173 9.3102c-2.6092 0.4151-5.5742-1.3639-5.0406-3.4986 0.53371-2.1348 3.6766-3.143 5.1591-3.6174 1.4825-0.4744 3.9137-1.779 4.151-3.7359 0.2372-1.9569-1.9569-3.7359-3.6174-4.744-1.6604-1.0081-12.097-8.9543-12.097-8.9543 0.28136-1.7776 2.672-4.2685 5.9894-5.3964z" style="fill:url(#ak);stroke-width:.26458"/><path d="m149.84 186.64s2.0459 0.4744 3.1134 2.3424c1.0674 1.868 2.3127 3.4393 2.9353 5.5446 0.62264 2.1052 2.8464 6.2561 3.2615 7.2348 0.41513 0.9787 0.38544 2.9353 0.38544 2.9353s2.6092-0.0297 4.4476-1.6604c1.8383-1.6308 2.5499-2.6982 2.2238-4.3585s-2.4906-5.0109-3.5878-7.4126c-1.0971-2.4016-2.0162-5.4261-3.7952-6.1079-1.779-0.68197-3.9434-1.0378-5.6039-0.2372-1.6604 0.80055-3.38 1.7197-3.38 1.7197z" style="fill:url(#al);stroke-width:.26458"/><path d="m162 187.59s1.7785 3.8537 2.6686 5.6335c1.0971 2.1941 2.3127 3.8248 2.4906 5.752 0.17444 1.8898-0.80055 3.1134-1.5122 3.7952-0.7116 0.68197-1.186 1.0378-1.186 1.0378s1.3046 1.4825 3.5878 1.0081c2.2831-0.4744 3.7359-1.5418 3.8544-3.4988 0.1186-1.9569-1.5715-6.0783-2.372-7.7388-0.80055-1.6604-1.7494-4.744-3.3504-5.6039-1.6011-0.85984-4.1807-0.38544-4.1807-0.38544z" style="fill:url(#am);stroke-width:.26458"/><path d="m31.321 108.3s-8.554-9.4557-9.225-18.345c-0.6709-8.8895 5.3673-13.502 7.2962-14.508 1.9289-1.0064 6.4632-2.2159 8.3024-1.0064 3.1597 2.078 4.4447 10.148 8.8056 17.108 4.3609 6.9607 10.818 15.347 15.263 18.534 4.4447 3.1869 11.07 7.38 14.928 13.083 3.8576 5.7028 8.3389 15.013 8.6379 24.74 0.25159 8.1862-6.6252 12.663-9.9798 15.011-3.3547 2.3482-12.915 9.9798-26.165 9.1411-13.25-0.83863-13.67-3.103-14.508-7.1284-0.83862-4.0254 1.4676-7.1702 3.6899-8.6378-3.3547-0.41931-15.266-2.812-19.289-10.734-4.1513-8.1767 0.6709-11.657 3.2708-13.083 2.5998-1.4257 6.9607-0.33543 6.9607-0.33543s-13.554-8.2637-15.389-11.364c-1.8869-3.1869-1.8031-7.2541-0.96443-10.189 0.83862-2.9353 2.6042-7.034 6.2058-7.2123 4.2352-0.20966 5.7446 1.5095 7.38 2.6837 1.4483 1.0398 4.7802 2.2434 4.7802 2.2434z" style="stroke-linejoin:round;stroke-width:1.6604;stroke:#000"/><path d="m122.53 129.27c-1.041-6.7106-1.0339-12.725 1.3381-15.69 2.372-2.9649 6.1672-5.5742 9.0136-6.0486 2.8464-0.4744 5.6928 0 8.0648-1.779 2.372-1.779 8.1836-7.116 13.046-16.13 4.8625-9.0136 5.4557-25.143 6.0486-27.04 0.59302-1.8976 6.8789-3.6766 9.6068-3.0837 2.7278 0.59301 5.4557 2.6092 6.2857 5.5742 0.83021 2.9649-0.4744 16.13-0.4744 16.13s4.6254-8.3021 6.2857-12.453c1.6604-4.151 6.8789-4.8625 8.895-3.7952 2.0162 1.0674 5.3369 3.3208 5.0998 11.504-0.23721 8.1836-3.3208 13.52-6.2857 19.688-2.9649 6.1672-5.2184 9.1324-5.2184 9.1324s3.5581 0.2372 6.523-1.6604 8.658-4.744 10.081-4.6254c1.4232 0.1186 4.1212 2.4053 4.4566 7.6049 0.33543 5.1996-1.4257 7.5478-3.6481 10.818-2.2224 3.2708-5.82 7.5255-11.473 10.231-3.4494 1.651-7.5218 3.2708-7.5218 3.2708s5.7057-1.4574 7.1313-1.3736c1.4257 0.0839 4.4418 1.2478 4.3159 4.9377-0.12579 3.6899-0.88797 6.7019-5.6608 9.3506-4.2884 2.3799-9.7631 4.2585-13.795 3.606 0 0-0.1258 4.0674-5.619 7.4639-5.493 3.3965-10.651 4.9898-16.647 4.277-5.9962-0.71284-13.334-5.493-17.108-9.6861-8.7969-10.28-12.285-17.287-12.741-20.223z" style="stroke-linejoin:round;stroke-width:1.6604;stroke:#000"/><path d="m83.662 142.52c-1.1669-6.3974-5.8113-19.213-16.604-27.04-10.793-7.8277-18.264-16.485-22.653-24.906-4.3881-8.4206-5.2184-14.944-7.9462-15.418s-11.86 2.0162-13.046 11.979c-1.186 9.9624 11.623 23.602 11.623 23.602s-4.2696-0.83021-7.9462-2.9649c-3.6766-2.1348-4.9813-4.151-9.1324-2.8464-4.151 1.3046-5.3369 11.504-3.3208 14.825 2.0162 3.3208 20.281 14.588 20.281 14.588s-7.116-2.2534-10.674-1.186c-3.5581 1.0674-7.2348 4.9813-5.2184 9.3694 2.0162 4.3881 4.2696 7.4718 10.437 10.081 6.1672 2.6092 15.062 2.6092 15.062 2.6092s-6.5823 0.7116-8.2428 5.5742c-1.6604 4.8625 0.0593 8.0055 4.0918 9.0728 4.0325 1.0674 11.148 1.8976 15.892 0.8895 4.744-1.0081 13.817-4.922 21.585-11.148 7.7684-6.2264 6.532-13.128 5.8113-17.079z" style="fill:url(#ai);stroke-width:.26458"/><path d="m54.96 120.64s-14.903-17.371-22.06-10.674c-6.3082 5.9031-2.7321 11.696 0.59301 15.121 2.9559 3.0451 11.623 8.8358 11.623 8.8358s-10.793 1.3639-10.14 7.0567c0.6523 5.6928 4.2103 8.0648 9.2509 9.0728 5.0406 1.0081 12.69 0.23721 12.69 0.23721s-1.8976 3.5581-0.1186 4.922c1.779 1.3639 5.752 4.5069 10.14 3.143 4.3881-1.3639 4.2696-3.4393 4.2696-3.4393s-4.744 4.3881-9.9031 1.8383c-5.1591-2.5499-4.3288-4.8032-2.372-7.0567 1.9569-2.2534 2.5499-2.0162 3.7952-2.372-4.3288 0.0593-6.0486 2.6092-13.936 1.9569-6.2526-0.51715-12.453-1.7197-12.512-8.4206-0.0593-6.7008 15.121-6.2264 15.121-6.2264s-5.2184-0.29649-12.097-6.4045c-6.8789-6.1079-9.0728-7.8277-8.2428-12.572 1.0308-5.8904 6.1079-6.3452 9.488-5.0406 3.3801 1.3046 14.41 10.022 14.41 10.022z" style="stroke-width:.26458"/><path d="m167.98 60.646c-1.1201 0.01442-2.1449 0.26371-2.9784 0.45662-1.8098 0.41889-3.4541 0.7412-3.7775 1.8057-0.51027 1.6798-0.49495 15.557-4.9398 24.782-4.4447 9.225-9.057 14.761-12.412 17.445-3.3547 2.6837-4.6683 2.8125-6.0396 2.9369-15.935 1.4431-14.517 10.183-14.549 18.794-0.0203 5.4753 16.194 35.235 35.065 31.226 7.62-1.8087 10.059-3.9182 11.778-5.2821s3.0178-3.0218 3.2274-6.9633c0 0 2.4017 1.9776 9.7549-0.80944 7.3533-2.7871 10.521-6.3436 9.869-10.969-0.6523-4.6254-4.9205-3.2586-6.1955-3.0509-1.275 0.20755-4.6847 1.3387-6.2264 1.1312-1.5418-0.20755-2.4595-0.57076-2.4595-0.57076s14.078-4.554 19.614-10.928 7.8822-11.494 6.2889-16.106c-1.5934-4.6125-3.0657-4.6141-4.7011-3.9849-1.6353 0.62897-7.0892 3.7801-9.0181 4.535-1.9289 0.75478-5.6578 2.5514-8.5511 1.6708 0 0 14.128-19.996 12.702-32.491-1.4257-12.496-9.3038-7.8034-10.814-5.7907-1.5096 2.0127-6.0365 13.387-10.149 18.036 0 0 3.6954-18.451 0.50851-22.644-1.9918-2.6207-4.1315-3.2515-5.9981-3.2274z" style="fill:url(#aj);stroke-width:.26458"/><path d="m66.083 116.54-3.2287 4.8641s0.79671-9.9798 4.6964-16.186c3.8997-6.2058 7.7573-11.405 7.9671-14.047 0.20966-2.6417-2.0127-10.525-3.6899-16.647-1.6773-6.1219-0.6709-8.6379 0.75478-9.1411 1.4257-0.50324 4.1931 2.3901 7.8412 3.5221 3.6481 1.1322 9.6443 2.0546 9.6443 2.0546s2.6417-1.6773 7.7155-2.1385c5.0738-0.46125 15.515 0.33544 18.45-0.33544 2.9353-0.6709 7.6734-3.103 12.076-8.4283s4.1513-4.6125 4.6964-4.5286c0.54512 0.08386 3.061 2.8093 2.0966 7.5896-0.96443 4.7802-4.5704 13.963-6.2058 18.366-1.6353 4.4029-1.845 6.1219-1.2999 8.0507 0.54512 1.9289 3.6481 8.7638 4.822 9.4766 1.1741 0.71284 3.2287 2.1385 4.0254 4.1092 0.79671 1.9708 1.9708 7.9671 1.9708 7.9671l-1.1741-1.5515s1.4676 2.6837 0.75477 6.0801c-0.71284 3.3964-2.3062 8.3024-2.3062 8.3024s4.3609 2.474 6.2479 6.5834c1.8869 4.1092 3.4803 11.112 3.4803 11.112l-1.8869-1.2999s3.103 6.0801 1.845 18.073c-1.258 11.992-6.3736 28.178-8.4701 32.538-2.0966 4.3609-8.6378 12.915-14.76 14.928-6.1219 2.0127-19.792 4.1092-29.52-2.3482-9.7282-6.4574-18.953-18.953-20.379-22.308-1.4257-3.3546-3.7738-15.347-3.0192-21.217 0.75478-5.8703 2.1804-13.837 3.1869-16.521 1.0064-2.6837-0.08386-8.9733-1.258-10.315-1.1741-1.3418-3.3872-6.2172-3.3872-6.2172l-1.0081 2.1941s-2.2203-5.5253-0.6785-12.582z" style="stroke-linejoin:round;stroke-width:1.6604;stroke:#000"/><path d="m147.35 124.38s5.515 3.9137 5.2776 9.6068c-0.22171 5.3208-1.7197 7.294-5.0406 8.0055-3.3208 0.7116-3.2615-0.1779-3.2615-0.1779s1.3046 1.8383 5.2776 0.65231c3.973-1.186 4.6847-7.0567 4.5069-9.3102-0.1779-2.2534-2.7279-6.6119-2.7279-6.6119s8.0648 4.6551 18.205-2.8168c10.14-7.4718 3.8544-16.13 1.8976-16.663-1.9569-0.53369-2.8464-0.41511-2.8464-0.41511s8.4206-5.6335 5.4557-12.453c-2.9649-6.8196-10.318-3.6766-11.445-2.9649-1.1267 0.7116-2.5499 3.4393-2.5499 3.4393s3.9732-4.5662 8.1836-3.6174c4.2103 0.9488 5.3964 3.3208 5.0406 7.294-0.35581 3.9732-8.0944 9.7846-8.0944 9.7846s5.248-1.4825 6.79 0.88951c1.5418 2.372 2.7871 6.523 0.0593 10.377-2.7278 3.8544-8.505 6.8842-12.275 7.294-3.7632 0.40902-6.2344-1.0835-12.453-2.3127z" style="stroke-width:.26458"/><path d="m108.71 108.84s-0.79547 8.1283-4.5908 10.975c-3.7952 2.8464-9.1324 4.4476-12.809 5.1591-3.6766 0.7116-8.3614 6.4045-8.3614 6.4045s-10.2-7.5904-6.7601-18.502c3.4393-10.911 15.952-7.0567 17.612-6.3452 1.6604 0.71159 5.2184 3.5581 8.8358 2.1348 3.6174-1.4232 6.9974-6.7601 9.488-5.9894 2.4906 0.77092 4.5069 2.6092 2.6686 11.623-1.8383 9.0137-2.7279 18.264-4.4476 19.095-1.7198 0.83026-4.151-0.88951-6.4045-2.8464-2.2535-1.9569-6.1672-6.2264-6.1672-6.2264l1.3046-0.59301s6.7601 6.523 8.9839 5.9005c2.2238-0.62264 3.1726-5.9301 2.7871-11.653-0.38544-5.7224-1.2127-6.9728-1.2127-6.9728l0.56039-2.6932c1.845-0.33544 2.4906 2.0162 2.4906 2.0162s0.97846-2.7278-1.0081-3.3208c-1.9866-0.59301-3.5724 0.68705-4.3188 1.3343-0.75798 0.65731-1.7002 2.7575-1.7002 2.7575s1.9587-2.0899 3.0488-2.2576z" style="fill:#fec417;stroke-width:.26458"/><path d="m99.92 123.35s5.8915 5.43 7.5266 5.6608c1.6353 0.23063 2.7675-4.8432 2.7255-7.2541-0.0421-2.4109-0.31448-5.619-0.46125-6.7299-0.14676-1.1112-0.58703-2.453-0.58703-2.453l-1.0902 3.7738c0.35642 4.0045-1.1741 9.8959-1.1741 9.8959s-2.1595-4.1513-3.5642-4.7382z" style="fill:#800000;stroke-width:.26458"/><path d="m104.03 121.07s2.1385-1.1112 3.2917-3.8158c-0.0839 3.7738-0.71284 7.338-0.71284 7.338s-1.0273-2.6628-2.5788-3.5221z" style="fill:#ff2a2a;stroke-width:.26458"/><path d="m76.439 86.223s-5.7028-15.641-4.0254-18.576c1.6773-2.9353 2.5998 0.9225 7.0025 2.1804s7.2962 2.0127 9.5184 2.0127c-2.7255 0.96443-4.8641 3.103-4.8641 3.103s7.8965-4.2558 13.125-5.0318c5.9468-0.88281 15.599 0.25159 19.163-0.46125s8.2185-3.4803 9.9378-5.493c1.7192-2.0127 5.5769-7.4639 6.4156-7.2123 0.83862 0.25159 1.8869 3.103 1.3837 7.0025-0.50318 3.8997-7.8412 19.54-7.7573 23.524 0.0839 3.9836 4.3609 11.573 5.5769 12.454 1.216 0.88056 3.1869 2.8093 3.732 3.8576 0.54512 1.0483 1.5515 4.9059 1.5515 4.9059s-2.3727-4.7315-4.1516-5.5467c0 0 4.4453 5.2533 4.1936 10.285-0.25159 5.0318-3.0192 11.238-3.0192 11.238s5.0318 2.9353 6.8768 6.7929c1.845 3.8576 2.8093 8.3024 2.8093 8.3024s-1.7821-2.998-3.9415-4.1513c0 0 5.4512 6.9607 4.822 17.443-0.62897 10.483-5.3673 30.107-8.3024 35.766-2.9353 5.6608-8.2185 13.418-13.628 15.599-5.4094 2.1804-9.9187 2.8715-16.93 2.3439-7.9248-0.59632-12.902-4.278-15.735-6.5791-4.4696-3.6298-15.095-15.389-16.563-19.456-1.4676-4.0674-3.606-14.466-2.8514-22.769 0.75478-8.3024 2.9353-12.621 3.103-17.318 0.16773-4.6964-1.6903-7.571-2.8932-9.1411-1.8999-2.4797-3.1448-7.7573-3.1448-7.7573l-0.71284 2.5578s-1.7616-3.8928 0.43246-12.61c-1.7203 1.147-3.1581 3.9301-3.1581 3.9301s0.74152-8.495 11.356-23.142c0 4.5662 2.1876 9.4303 2.1876 9.4303-0.9488 0-1.6773 0.62897-1.6773 0.62897s2.948 0.46162 4.6379 1.618c0 0-1.0528 0.28993-1.8075 0.9189 0 0-3.5012-1.6982-4.6334-0.14676-1.1322 1.5515 0.62897 6.0381 0.62897 6.0381s-1.1473 4.1087-0.46125 7.2123c1.7611 7.9671 8.596 13.041 8.596 13.041s4.1931-5.8285 6.2479-6.4574c2.0546-0.62897 7.5057-1.9289 7.5057-1.9289s8.5492 9.8012 12.53 10.02c3.5981 0.19737 3.9068-8.5101 4.4101-11.403 0.50319-2.8932 2.4464-10.549 2.7676-15.053 0.20325-2.8519-1.3838-5.8703-3.3756-6.4156-2.0149-0.55145-4.0045 0.54509-4.0045 0.54509s2.0966-2.8093 5.0318-3.7319c2.9353-0.9225 4.4447-1.3418 4.4447-1.3418l-1.0064-0.62897s3.0192-9.77-2.1385-16.102c-5.1575-6.3317-13.494-7.0189-16.353-6.164-2.9445 0.88056-6.3796 2.1385-10.022 8.596 0 0-2.4446-5.0408-5.4512-4.7382-1.9795 0.19928-4.7776 1.3364-7.38 8.0089z" style="fill:url(#ag);stroke-width:.26458"/><path d="m81.587 105.28s-1.868-2.1348-1.9569-7.4718c-0.08895-5.3369 1.986-7.8632 4.2399-8.0944 2.3714-0.24338 5.0456 2.976 5.3964 7.5904 0.38544 5.0702-0.6523 7.3237-0.6523 7.3237 4.9517 0.32616 6.3452 1.6901 6.3452 1.6901s-3.0541-5.5742-1.8087-11.356c1.2453-5.7817 4.8038-9.6496 8.895-9.5472 4.508 0.11282 8.2428 5.1591 8.7172 8.4503s0.14825 5.515 0.14825 5.515c3.0242-2.1052 5.752-2.4017 5.752-2.4017s3.469-11.178-2.6686-16.812c-6.1375-5.6335-11.625-5.525-14.173-5.1887-6.727 0.88794-10.793 10.2-10.793 10.2s-2.1941-6.7601-5.4853-6.2857c-3.2912 0.4744-6.79 6.1375-6.9678 11.979-0.1779 5.8412 0.32615 7.4718 2.3127 13.076 0.767 0.24702 1.8649 0.93398 2.6982 1.3343z" style="fill:url(#ac);stroke-width:.26458"/><path d="m75.56 111.91s0.88056-2.8094 2.7675-4.4656c0 0-2.5788-0.98539-3.1869-0.0209-0.60801 0.96443 0.41931 4.4868 0.41931 4.4868z" style="fill:#fec417;stroke-width:.26458"/><path d="m95.729 106.47s2.6837 1.7192 4.8641 1.6773c2.1804-0.0419 5.8285-2.9771 6.6672-4.1092 0.83862-1.1322 2.6837-3.732 2.9353-4.7802 0.25159-1.0483 0.16772-8.1767-4.1931-11.405-4.3608-3.2287-8.2606 0.04193-9.0154 0.96443-0.75478 0.9225-3.3547 4.5707-3.3547 9.0154 0 4.4447 2.0966 8.6379 2.0966 8.6379z" style="fill:#fff;stroke-width:.26458"/><path d="m82.394 105.09c2.5159-0.75478 5.619-0.41931 5.619-0.41931s1.8162-9.8108-2.3482-13.25c-3.6925-3.0501-5.2835 3.5624-5.2835 5.619 0 5.2835 2.0127 8.0507 2.0127 8.0507z" style="fill:#fff;stroke-width:.26458"/><path d="m109.52 99.345c0 3.96-2.4405 7.1702-5.4511 7.1702-3.0105 0-5.4511-3.2102-5.4511-7.1702 0-3.96 2.4405-7.1702 5.4511-7.1702s5.4511 3.2102 5.4511 7.1702z" style="stroke-width:.33208"/><path d="m108.87 99.348c0 3.4849-2.1477 6.3099-4.797 6.3099-2.6493 0-4.797-2.825-4.797-6.3099 0-3.4849 2.1477-6.3099 4.797-6.3099s4.797 2.825 4.797 6.3099z" style="fill:url(#ab);stroke-width:.29223"/><path d="m107.37 99.892c0 1.6967-1.0456 3.072-2.3355 3.072-1.2898 0-2.3355-1.3754-2.3355-3.072 0-1.6967 1.0456-3.072 2.3355-3.072 1.2898 0 2.3355 1.3754 2.3355 3.072z" style="stroke-width:.14228"/><path d="m104.48 97.443c0 1.9124-1.0538 3.4627-2.3538 3.4627-1.3 0-2.3538-1.5503-2.3538-3.4627 0-1.9124 1.0538-3.4627 2.3538-3.4627 1.3 0 2.3538 1.5503 2.3538 3.4627z" style="fill:#fff;stroke-width:.15164"/><path d="m88.751 99.64c0 3.0268-1.3476 5.4805-3.0099 5.4805-1.6623 0-3.0099-2.4537-3.0099-5.4805 0-3.0268 1.3476-5.4805 3.0099-5.4805 1.6623 0 3.0099 2.4537 3.0099 5.4805z" style="stroke-width:.21574"/><path d="m88.391 99.64c0 2.6636-1.1858 4.8228-2.6487 4.8228-1.4628 0-2.6487-2.1592-2.6487-4.8228 0-2.6636 1.1858-4.8228 2.6487-4.8228 1.4628 0 2.6487 2.1592 2.6487 4.8228z" style="fill:url(#aa);stroke-width:.18984"/><path d="m87.563 100.06c0 1.2968-0.57735 2.3481-1.2896 2.3481-0.7122 0-1.2896-1.0513-1.2896-2.3481 0-1.2968 0.57735-2.3481 1.2896-2.3481s1.2896 1.0513 1.2896 2.3481z" style="stroke-width:.09243"/><path d="m85.965 98.185c0 1.4618-0.58188 2.6467-1.2997 2.6467-0.71779 0-1.2997-1.185-1.2997-2.6467 0-1.4618 0.58188-2.6467 1.2997-2.6467s1.2997 1.185 1.2997 2.6467z" style="fill:#fff;stroke-width:.098516"/><path d="m98.367 204.55s2.3127-2.9056 4.2696-2.6092c1.9569 0.29649 2.6092 0.94879 3.0837 1.6011 0.4744 0.6523 1.186 2.1348 1.186 2.1348s2.1348-2.5499 4.151-2.1941c2.0162 0.35581 3.4393 1.2453 4.2103 5.0998 0.77089 3.8544 0.59301 9.9031-0.41511 12.394-1.0081 2.4906-2.6686 3.9732-5.0406 3.7359-2.372-0.2372-4.0918-2.3127-4.0918-2.3127s-1.8383 3.38-5.1591 3.2615c-3.3208-0.1186-4.0918-3.973-4.0918-3.973s-1.2453 3.4986-4.3881 3.5581c-3.143 0.0593-4.8625-3.4393-5.2184-5.752-0.35581-2.3127-0.29649-10.971-0.0593-14.825 0.2372-3.8544 3.4393-5.3964 5.6928-5.3369 2.2534 0.0593 3.7359 1.3046 4.2696 2.1348 0.53366 0.83021 1.6011 3.0837 1.6011 3.0837z" style="stroke-linejoin:round;stroke-width:1.6604;stroke:#000"/><path d="m97.124 220.68s0.83021 3.7952 2.9649 4.0325c2.1348 0.2372 4.5069-1.4232 5.2184-3.4988 0.7116-2.0755 2.1348-8.9543 1.1267-12.868-1.0081-3.9137-2.372-5.3964-4.151-5.3369-1.779 0.0593-3.6174 3.4986-3.6174 3.4986s0.9488 3.2615 0.7116 7.116-2.2534 7.0567-2.2534 7.0567z" style="fill:url(#ao);stroke-width:.26458"/><path d="m107.2 207.04s0.85984 4.1214 0.53371 7.1752c-0.32615 3.0541-1.5715 7.2345-1.5715 7.2345s2.1052 2.4906 4.8032 2.1052c2.6982-0.38544 3.7656-5.3964 3.7359-8.895-0.0297-3.4986-0.50406-9.1324-2.7575-10.022-2.2534-0.8895-4.744 2.4016-4.744 2.4016z" style="fill:url(#an);stroke-width:.26458"/><path d="m94.1 200.96c-2.8162-0.87984-4.6551-0.1186-5.6039 1.7494-0.9488 1.868-0.80021 10.514-0.74126 13.491 0.0593 2.9946 0.83021 7.62 4.2103 8.0351 2.6511 0.3256 5.3073-5.515 5.6335-6.7008 0.32615-1.186 1.2567-5.1927 0.29649-9.6068-0.62915-2.8919-1.1029-6.1267-3.7952-6.9678z" style="fill:url(#ap);stroke-width:.26458"/><path d="m91.237 134.32c-0.09784 1.8097-1.4883 4.7532-2.3508 6.3529 0.15289-1.2256 0.11105-1.5844 0.01474-3.0416-2.2919 3.9087-3.0292 11.932-2.9252 16.987 0.16857 2.8014 1.0673 7.2033 1.9614 9.8602-0.96364-1.1214-2.392-2.8808-2.8538-5.3147-0.25261 3.2626 0.5743 6.4717 1.8472 9.4435-1.7565-2.5804-1.2603-0.45914-0.84058 1.3283 1.8035 6.718 3.946 13.451 6.9842 19.707 3.1898 6.2727 9.8396 10.12 16.749 10.834 4.2818 0.71294 9.1636 0.84942 12.619-2.2 4.9715-4.173 7.2517-10.6 9.2464-16.583 1.3326-6.1275 0.79123-12.615-0.37367-18.708-0.1823-0.71332-0.56402-1.1326-0.83013-0.47382-0.0916-1.5367-0.71263-4.9731-1.7271-6.4193-0.61979 1.5426-0.28795 0.75703-0.94584 1.9762-0.16176-2.4686-1.0842-4.1476-1.8517-5.1723-0.24163 0.95046-0.26001 2.0074-0.80944 2.8435-0.0679-1.7942-0.48929-3.5914-1.733-4.9604 0.28215 2.0201-0.1094 4.0645-1.2157 4.6876-4e-3 -2.0872-0.45894-5.4946-1.358-7.4065 0.13626 2.1001-0.27482 4.4349-0.92065 5.7758-0.11734-2.5832-1.5752-6.5058-3.1784-8.5156 0.57174 2.1489 1.0208 4.3034 0.27872 6.7424-0.93261-5.393-2.5305-6.886-4.2741-8.9736-0.17196 1.1155-0.42918-1.069-0.95473-1.4736-1.3633-2.0487-3.4867-3.3435-5.5311-4.6387 0.87654 1.6611-1.4489-0.49694-2.0963-0.55002-1.425-0.72517-2.9088-1.3075-4.5037-1.5359 0.25363 0.60436-0.29096 2.2436-0.81984 1.0066-0.72784-0.90229-1.8353-1.3382-2.8747-1.7849 0.20287 0.70562 0.6468 1.9169 0.0934 2.4284-0.61844-1.1354-1.8808-1.6042-2.9472-2.2 0.5882 1.3241-0.53644-0.59468-1.0561-0.72916-1.1966-1.1325-0.65902-0.43352-0.82225 0.70842z" style="stroke-width:.26458"/><path d="m91.904 134.34c1.7197 1.3639 2.1941 4.4476 2.1941 4.4476s0.77089-1.8976 0.2372-3.0242c1.2453 0.6523 1.6011 2.1348 1.6011 2.1348s1.3639-1.3046 1.0081-2.6092c1.2453 0.4744 2.1941 2.1348 2.1941 2.1348s1.186-0.7116 1.186-1.7197c2.6686 0.41511 7.4718 3.5581 7.4718 3.5581l-0.2372-0.6523s3.4393 2.0755 4.2103 4.4476c0.77092 2.372 0.8895 4.0325 0.8895 4.0325l0.4744-2.4906s2.0162 2.6092 2.3127 4.151c0.29652 1.5418 0.53369 3.8544 0.53369 3.8544s1.4825-1.7197 1.4232-5.0998c1.8976 2.6686 1.5418 7.294 1.5418 7.294s1.7197-2.5499 1.9569-4.6254c0.59301 2.5499 0.35581 6.1079 0.35581 6.1079s1.8383-1.9569 2.372-3.973c1.0081 1.186 0.8895 5.2184 0.8895 5.2184s1.4825-1.186 1.779-2.9649c1.2453 1.779 1.0674 5.752 1.0674 5.752l1.4232-2.7871c1.7197 2.8464 0.7116 10.081 0.7116 10.081s1.2453-1.4825 1.3046-4.2103c0 0 2.3127 12.572-0.1779 19.51-2.4906 6.9382-6.5823 17.672-15.952 17.316-9.3694-0.35581-18.146-2.7279-22.653-14.41-4.5069-11.682-5.3964-16.545-5.3964-16.545 1.0081 1.186 2.0162 1.4232 2.0162 1.4232s-2.6686-4.8032-2.9057-9.3102c1.2453 2.4906 3.4393 3.8544 3.4393 3.8544s-3.3208-6.4638-2.4313-15.418c0.8895-8.9543 2.0162-10.259 2.0162-10.259l0.1186 2.0755s2.9649-4.3288 3.0242-7.294z" style="fill:url(#ah);stroke-width:.26458"/><path d="m102.65 109.45c-3.1869 0.83862-6.2058-0.16773-9.4345-2.1804-3.2287-2.0127-9.77-1.8869-13.041 0.79671-2.8268 2.3195-4.8641 6.4995-3.6899 11.573 1.1741 5.0736 6.0801 10.483 6.0801 10.483s3.9415-4.7382 6.4995-5.3673c2.558-0.62918 8.2185-2.0127 10.357-3.3126 2.1385-1.2999 3.2287-11.992 3.2287-11.992z" style="fill:url(#aq);stroke-width:.26458"/><path d="m110.53 108.27c-0.10607 1e-3 -0.21677 0.0102-0.33208 0.0311l-0.56038 2.6982s0.82872 1.2512 1.2142 6.9736c0.38544 5.7224-0.55743 11.031-2.7813 11.654-2.2238 0.62265-8.9868-5.9047-8.9868-5.9047l-1.3076 0.59153s3.9108 4.2696 6.1643 6.2264c2.2534 1.9569 4.6937 3.684 6.4132 2.8538 1.6168-0.78052 2.4924-9.004 4.1198-17.476l-1.7434-5.7179c-0.0229 0.0757-0.0415 0.12453-0.0415 0.12453s-0.56738-2.0728-2.1585-2.0548z" style="fill:url(#z);stroke-width:.26458"/><path d="m109.52 102.14s6.5966-5.9494 13.639-4.0325c7.5634 2.0589 9.3102 4.5662 11.208 7.7684 1.8976 3.2023 2.0162 5.6928 1.7197 8.7765s-4.9813 14.469-4.9813 14.469l-16.901-6.8789s3.5581-13.283 2.1941-17.079c-1.3639-3.7952-3.6766-3.6766-3.9137-3.7359-0.2372-0.0593-2.9649 0.7116-2.9649 0.7116z" style="fill:url(#ad);stroke-width:.26458"/><path d="m82 78.301s4.2696-4.8625 10.674-6.5823c6.4045-1.7197 18.264-1.7197 22.89-1.3639 4.6254 0.35581 10.377-4.4476 11.623-6.1079 1.2454-1.6603 4.5662-6.6416 5.3369-6.7008 0.77089-0.0593 0.8895 2.5499 0.65231 6.0486-0.23721 3.4986-7.3533 17.019-7.5311 20.044-0.17791 3.0242-0.4744 6.2857 1.0081 9.1916 1.4825 2.9057-6.5823 0.29649-8.4799-7.2348-1.8976-7.5311-10.2-11.623-14.41-11.564-4.2103 0.0593-8.658 0.59301-11.682 4.8032-3.0242 4.2103-2.8464 4.2696-2.8464 4.2696s-2.1941-4.8625-4.2103-4.922c-2.0162-0.0593-3.0242 0.1186-3.0242 0.1186z" style="fill:url(#ae);stroke-width:.26458"/><path d="m75.745 94.221c-11 15.537-11.297 23.157-11.297 23.157s2.1348-3.469 3.0837-3.8544c-2.2238 8.1836-0.4744 12.453-0.4744 12.453l0.83021-2.4906c0.8895 5.7224 4.4476 9.8438 4.4476 9.8438l8.5984-2.4906s-5.3369-5.6928-6.2857-9.9031c-0.9488-4.2103 0.35581-8.124 0.35581-8.124s-1.7197-5.0998-0.50406-6.1375c1.2157-1.0377 2.5499-0.48921 2.876-0.42992 0.32615 0.0593 1.7197 0.59301 1.7197 0.59301l1.8087-0.90432c-1.8828-1.3639-4.6254-1.6604-4.6254-1.6604l1.6308-0.56335s-1.3258-2.3806-2.1644-9.488z" style="fill:url(#af);stroke-width:.26458"/></g></svg>
