<?xml version="1.0" encoding="UTF-8"?>
<svg width="135.39mm" height="162.04mm" version="1.1" viewBox="0 0 135.39 162.04" xmlns="http://www.w3.org/2000/svg"><defs><clipPath id="clipPath698"><path d="m2106.3 2027.7h370.14v-450.12h-370.14z"/></clipPath><clipPath id="clipPath734"><path d="m2290.2 1927.3h51.52v-16.24h-51.52z"/></clipPath><clipPath id="clipPath754"><path d="m2336 1930.5h9.41v-11.79h-9.41z"/></clipPath><clipPath id="clipPath770"><path d="m2277.4 1916.8h22.57v-5.86h-22.57z"/></clipPath><clipPath id="clipPath794"><path d="m2302.6 1932h10.19v-6.6h-10.19z"/></clipPath><clipPath id="clipPath810"><path d="m2322 1936.1h9.63v-4.28h-9.63z"/></clipPath><clipPath id="clipPath854"><path d="m2241.9 1872.5h133.71v-52.55h-133.71z"/></clipPath><clipPath id="clipPath870"><path d="m2238.2 1886.4h136.49v-47.98h-136.49z"/></clipPath><clipPath id="clipPath946"><path d="m2445 1976.4h33.48v-36h-33.48z"/></clipPath></defs><g transform="translate(-195.13 173.96)"><g transform="matrix(.35278 0 0 -.35278 327.97 -122.96)"><path d="m0 0c7.144 31.578-2.842 35.12-26.462 22.733-27.361-11.893-54.17-21.305-80.311-27.683 17.756 17.824 23.913 45.326 4.783 84.448-14.456 30.237-41.139 70.181-70.489 63.511-51.429-13.354-81.377-25.27-86.934-68.847-5.416-34.813-14.767-74.629 18.598-93.5-33.006-14.394-70.54-24.233-111.54-30.57-26.582-2.155-33.132-10.479-10.226-33.352 24.12-22.866 61.508-45.379 92.239-51.909-5.919-16.854-19.848-34.347-29.863-52.213 0.075-0.678-0.077-1.418-0.543-2.169-3.981-6.418-4.471-14.27-6.024-21.497-0.456-2.123-2.215-2.833-3.862-2.528-0.127-0.673-0.251-1.345-0.351-2.018-4.436 5.93-10.346 14.054-16.529 23.193-2.415 3.575-5.117 6.964-8.139 10.052-5.402 5.877-9.111 6.25-12.159 2.981-6.15 0.901-8.032-10.939-2.308-24.219-0.074-0.256-0.143-0.519-0.206-0.787 4.222-17.297 10.427-34.764 22.395-48.266 6.051-6.827 13.175-11.738 21.871-14.568 0.983-0.32 1.974-0.615 2.968-0.894 10.954 2.128 21.637 5.407 32.459 8.107 0.408 0.638 1.047 1.164 1.956 1.451 5.353 1.691 10.185 5.017 15.743 6.074 5.227 0.994 9.559-0.838 14.25-2.946 8.32-3.74 16.714-7.475 25.177-10.972 15.052-3.494 31.756-5.725 46.022-4.866-0.735 3.988 5.687 5.512 7.118 1.336 1.359-3.963 4.147-7.321 6.815-10.481 2.695-3.193 5.418-6.353 8.227-9.447 6.46-7.118 13.06-14.106 19.66-21.094 0.28-0.297 0.493-0.608 0.653-0.926 13.468-4.494 32.437-3.389 54.382 0.745 4.709 1.067 9.638 3.895 12.487 6.997 14.314 2.021 23.453 9.785 19.484 14.568 1.208 4.303-1.04 7.278-8.871 8.832-4.209 0.98-8.505 1.521-12.821 1.728-16.796 0.8-31.264 2.294-37.561 3.008 23.493 17.436 13.474 39.575 14.375 54.87 0.813 19.565 6.69 45.353-3.876 112.1 33.119 20.445 78.904 75.522 87.416 109.02" style="fill:#3f3f3f"/></g><g transform="matrix(.35278 0 0 -.35278 295.83 -30.11)"><path d="m0 0c2.034 7.716 4.179 15.401 6.62 22.997-0.038 0.583-0.087 1.17-0.155 1.76-1.285 11.06-5.372 21.677-4.499 32.952 0.911 11.764 3.187 23.368 3.705 35.155l-0.728 0.818c-16.299 6.879-31.944 14.427-35.253 34.563l-7.702 66.038c1.677 12.595 23.393 37.915 13.039 64.171 55.478 43.487-18.524 154.3-53.74 83.123-42.793 54.118-121.2-83.151-38.668-100.01l-22.138-2.312c12.655-16.08 30.584-34.069 28.973-52.357l-16.157-62.112c-3.86-14.786-42.729-32.093-72.845-37.381-7.015-10.198-12.211-21.894-15.781-33.893 1.356-10.722 2.918-21.472 5.34-31.997l10.018-13.728c1.366-1.416 2.752-2.811 4.163-4.178 3.76 0.136 7.531 0.119 10.776 0.855 5.709 1.294 11.135 3.645 16.858 4.865 5.523 1.177 11.136 1.053 16.703 0.281 9.008-1.25 17.971-3.879 26.723-6.66 7.561-1.208 15.118-2.444 22.615-3.978 4.34 0.213 8.719 0.097 13.067-0.13 4.973-0.26 10.146-0.74 14.734-2.809 4.286-1.933 6.858-5.266 8.866-9.405 1.008-2.08 1.929-4.382 3.836-5.814 1.98-1.486 4.491-1.909 6.899-2.004 4.267-0.168 8.791 0.69 12.958-0.519 6.276 0.567 12.188 3.016 18.059 5.161 3.308 1.208 6.61 2.427 9.898 3.678 4.626 4.268 9.188 8.61 13.816 12.871" style="fill:#ededed"/></g><g transform="matrix(.35278 0 0 -.35278 225.81 -32.987)"><path d="m0 0c-3.155 2.993-6.029 6.281-8.574 9.807-2.678 3.708-4.889 8.565-8.283 11.631-0.08 0.073-0.236 0.135-0.406 0.171-1.095 3.552-1.905 7.219-3.157 10.704-2.431 6.763-6.932 12.062-11.359 17.605-1.461 1.831-2.868 3.708-4.255 5.6 0.281 0.74 0.368 1.551 0.222 2.29-0.585 2.949-3.107 6.014-4.893 8.335-2.028 2.635-4.67 4.749-7.305 6.759-1.642 1.252-3.964 3.113-6.231 2.321-0.762-0.267-1.142-0.643-1.284-1.085-2.628 0.444-5.727-0.503-5.803-2.925-0.031-0.33-0.027-0.647-8e-3 -0.959 0.02-4.697 1.207-9.592 2.28-14.303-1.012-3.659 0.213-8.823 0.845-12.112 0.924-4.817 2.403-9.342 4.425-13.812 2.02-4.464 4.441-8.732 7.195-12.784 0.026-0.039 0.053-0.077 0.08-0.117 3.519-6.76 7.784-13.171 13.008-18.187 2.056-1.974 4.337-3.644 6.788-4.961 4.725-3.563 10.309-5.639 16.597-5.621 3.778 0.01 9.766 0.796 12.592 3.635 2.929 2.943-0.324 5.968-2.474 8.008" style="fill:#f39200"/></g><g transform="matrix(.35278 0 0 -.35278 313.51 -22.807)"><path d="m0 0c-2.74 2.794-7.215 3.808-11.199 3.563-1.957 0.287-3.906 0.434-5.568 0.648-5.563 0.716-11.164 1.151-16.749 1.679-5.563 0.525-11.37 1.595-16.958 1.262-0.948-0.056-1.875-0.181-2.787-0.352-4.033 0.511-7.664-0.401-11.657-2.326-5.144-2.479-10.418-4.637-15.962-6.053-2.77-0.707-5.584-1.222-8.411-1.64-1.36-0.201-2.856-0.401-4.148-0.956-1.922 0.539-4.61 0.104-5.439-1.018-3.485-4.712 4.491-11.802 7.882-14.491 6.29-4.989 13.535-6.377 21.364-6.913 8.164-0.559 16.354-0.823 24.518-0.142 4.137 0.345 8.292 0.796 12.296 1.928 1.977 0.559 5.577 1.4 7.531 3.131 3.079 0.89 6.12 2.014 9.13 2.851 5.292 1.47 10.848 2.724 14.785 6.857 2.996 3.145 4.855 8.42 1.372 11.972" style="fill:#f39200"/></g><g transform="matrix(.35278 0 0 -.35278 220.32 -38.031)"><path d="m0 0c-0.496 0.997-1.196 1.945-2.008 2.857 0.077 0.607 0.025 1.197-0.116 1.772 0.197 0.095 0.346 0.245 0.371 0.473 0.754 6.861-3.025 13.329-6.185 19.2-3.381 6.279-7.302 11.97-11.711 17.57-0.279 0.354-1.577 0.245-1.3-0.346 2.877-6.141 5.591-12.407 8.221-18.658 0.404-0.959 0.791-1.923 1.176-2.888-3.113 4.74-6.372 9.373-9.547 14.075-3.546 5.252-6.883 10.774-10.758 15.793-2.935 3.801-7.04 8.42-12.152 8.698-0.822 0.045-1.963-0.377-2.066-1.303-0.1-0.909 0.09-1.463 0.569-2.259 0.371-0.615 2.006-0.881 2.304-0.03 3.577-2.822 6.023-8.26 8.262-11.821 3.088-4.915 6.214-9.81 9.235-14.767 1.286-2.111 2.595-4.202 3.911-6.288-2.538 2.579-5.099 5.138-7.651 7.703-3.018 3.031-6.434 7.774-10.658 8.986-0.696 0.201-1.803 0.163-1.977-0.715-0.429-2.175 1.675-4.02 2.951-5.635 1.79-2.268 3.661-4.463 5.579-6.623 3.757-4.229 7.646-8.285 11.686-12.245 4.06-3.979 8.187-7.888 12.381-11.725 1.875-1.715 6.621-6.463 9.189-3.241 0.31 0.389 0.54 0.922 0.294 1.417" style="fill:#f9b233"/></g><g transform="matrix(.35278 0 0 -.35278 307.53 -21.835)"><path d="m0 0c-3.528 0.302-7.058 0.565-10.594 0.739-9.323 0.459-18.721 0.374-28.085 0.626 0.533 0.091 1.068 0.182 1.604 0.269 4.051 0.658 8.125 1.191 12.173 1.863 0.933 0.114 1.847 0.271 2.728 0.486 0.328 0.061 0.658 0.112 0.985 0.175 1.1 0.215 2.21 0.398 3.324 0.563 3.073 0.259 6.153 0.412 9.203 0.42 3.133 7e-3 6.509 0.04 9.578-0.662 3.232-0.739 4.025-2.323 4.374-4.914-1.758 0.216-3.544 0.285-5.29 0.435m16.173-4.044c0.758 1.097 0.845 2.411 0.501 3.652 0.227 1.161-0.235 2.488-1.214 3.824-2.134 2.911-5.795 3.86-9.206 4.304-4.317 0.561-8.763 0.791-13.113 0.775-2.961-0.011-7.083 0.364-10.163-0.727-0.665 0.231-1.345 0.424-2.11 0.514-1.811 0.214-3.614 0.178-5.43 0.182-0.748 0.223-1.544 0.333-2.36 0.376-0.594 0.369-1.313 0.598-2.02 0.559-2.421-0.134-4.827-0.388-7.229-0.662-0.674-5e-3 -1.348-9e-3 -2.022-9e-3 -0.466 0.035-0.932 0.075-1.395 0.125-0.022 2e-3 -0.042 0-0.064 1e-3 -0.149 0.125-0.33 0.229-0.541 0.311-3.349 1.304-6.789-0.176-9.958-1.362-1.14-0.427-2.233-0.932-3.305-1.473-0.402-0.092-0.715-0.259-0.932-0.48-1.945-1.028-3.835-2.155-5.804-3.179-0.026-0.013-0.041-0.027-0.065-0.041-2.076 0.09-4.094-0.214-5.682-1.687-0.724-0.672-0.518-1.575 0-2.265 1.541-2.056 4.301-1.784 6.593-2.043 2.753-0.311 5.486-0.811 8.191-1.4 5.455-1.187 10.753-2.849 16.067-4.534 5.327-1.689 10.673-3.278 16.177-4.288 1.961-0.36 6.249-0.162 6.762-2.626 0.526-2.525-3.827-4.333-5.624-4.701-0.302-0.062-0.201-0.341 0.073-0.339 3.117 0.017 9.468-0.509 12.79 1.552 0.154-0.013 0.305-0.021 0.452-0.026 1.191 1.21 2.349 2.453 3.457 3.748 0.822 0.962 1.797 1.28 2.72 1.168 0.131 1.284-0.268 2.646-1.412 3.861-1.442 1.532-3.487 2.249-5.463 2.783-1.098 0.296-2.175 0.551-3.318 0.547-0.724-2e-3 -1.418-0.144-2.114-0.261-3.873 1.084-8.349 1.332-11.338 2.014-5.912 1.349-11.756 2.933-17.616 4.468 5.947-0.594 11.911-1.015 17.945-1.349 5.739-0.319 11.483-0.64 17.208-1.175 2.701-0.253 5.66-0.376 8.285-1.13 1.958-0.562 4.252-2.577 3.744-4.942-0.576-2.675 3.488-2.654 5.03-1.847 3.079 1.61 5.965 4.824 3.503 7.782" style="fill:#f9b233"/></g><g transform="matrix(.35278 0 0 -.35278 -546.03 543.29)"><g clip-path="url(#clipPath698)" style="opacity:.2"><g transform="translate(2474.9 1900)"><path d="m0 0c-4.602-4.523-8.042-9.582-11.583-14.927-3.523-5.316-7.61-9.945-11.854-14.687-4.223-4.717-8.186-9.614-12.618-14.148-4.455-4.56-9.152-8.867-13.645-13.385-9.525-9.578-19.456-18.702-29.458-27.773-4.982-4.519-9.821-9.214-14.508-14.039-4.183-4.308-7.706-9.3-8.391-15.429-0.746-6.68 1.879-14.547 3.958-20.816 1.151-3.468 2.342-6.921 3.454-10.401 0.603-1.886 1.057-3.786 2.137-5.453 0.199-0.306 0.415-0.619 0.64-0.935 0.459-1.938 0.995-3.849 1.643-5.718 0.799-4.112 1.523-8.717 5.132-11.112 0.309-0.206 1.019-0.24 1.268 0.103 2.595 3.563-0.04 8.775-1.346 12.439-0.286 0.802-0.589 1.591-0.898 2.375 0.453 2.167 1.37 4.35 1.239 6.619-0.193 3.342-0.39 6.681-0.537 10.026-0.268 6.106-1.394 12.245-0.784 18.362 0.224 2.248 0.67 4.246 1.359 6.087 2.011 1.72 4.149 3.291 6.154 5.093 3.331 2.993 6.652 5.958 10.129 8.784 6.671 5.421 13.566 10.759 19.511 16.987 5.947 6.231 11.424 12.908 16.377 19.955 2.396 3.408 4.905 6.852 6.649 10.644 0.279 0.607 0.616 1.309 0.954 2.062 3.816 4.715 7.444 9.584 10.834 14.478 3.616 5.22 6.428 10.979 9.584 16.476 3.294 5.736 6.081 11.328 6.105 18.076 3e-3 0.671-1.186 0.571-1.505 0.257m-42.23-296.32c-4.131 0.898-9.932 0.698-13.76-1.151-0.224-0.109-0.179-0.353 0.079-0.379 2.874-0.283 5.791-0.056 8.681-0.214 1.068-0.059 2.951-0.029 4.072-0.38 0.611-0.191 3.695-2.378 4.383-3.078 3.101-3.153-2.853-7.642-5.424-8.787-1.918-0.854-3.818-0.926-5.729-1.052 0.051 0.022 0.102 0.043 0.146 0.068 1.978 1.153-0.11 3.631-1.315 4.528-0.994 0.739-2.092 1.175-3.244 1.445-1.853 0.703-4.031 0.859-5.881 1.007-2.042 0.164-5.385 0.651-7.021-0.906-0.028-0.026-0.015-0.073 0.018-0.089 3.043-1.49 6.967-0.123 10.176-1.507 3.013-1.3 2.679-3.482 0.725-5.588-0.012-0.014-0.025-0.024-0.038-0.038-0.69-0.052-1.308 0.12-2.105 0.076-1.193-0.066-2.351-0.413-3.543-0.509-2.794-0.223-5.533-0.894-8.334-1.213-5.906-0.673-11.88-0.935-17.821-1.077-3.029-0.072-6.06-0.09-9.091-0.055-2.342 0.027-5.106-0.204-7.51 0.302-0.796 1.3-2.313 2.523-3.013 3.506-0.366 0.512-0.71 1.039-1.047 1.571 4.672 1.701 8.989 4.3 12.391 7.776 1.563 1.597 2.903 3.371 4.128 5.237 1.185 1.806 1.488 3.758 1.93 5.853 0.476 2.26 0.874 6.552-2.437 6.603-1.404 0.022-2.48-0.894-3.422-1.872-1.355 1.843-4.749 1.652-6.559 1.141-2.948-0.833-5.07-3.423-7.348-5.387-2.208-1.903-4.764-3.38-7.308-4.784-2.24-1.237-4.633-2.047-7.111-2.658-0.101-0.025-0.209-0.05-0.321-0.074-1.393 0.812-3.067 1.273-4.479 1.973-0.981 0.487-1.958 0.822-2.941 1.111 0.176 0.097 0.351 0.203 0.526 0.309 2.795-0.198 5.639-0.05 8.343 0.186 3.384 0.296 9.648 1.051 11.583 4.3 0.261 0.439-0.554 0.688-0.815 0.674-3.979-0.204-7.864-1.684-11.894-1.989-4.37-0.331-9.313-0.487-13.265 1.653-5.194 2.812-7.745 7.966-10.766 12.747-0.996 3.295-2.709 7.013-5.605 7.008-0.257 0.078-0.534 0.144-0.834 0.195-3.154 0.539-6.065 1.318-9.321 1.564-3.285 0.249-6.566 0.481-9.853 0.7-5.855 0.389-11.69 1.148-17.474 2.132-12.15 2.068-24.113 5.209-35.661 9.522-6.098 2.277-12.03 4.826-18.447 6.124-2.981 0.603-6.141 0.974-9.184 0.824-2.303-0.113-4.426-0.633-6.575-1.194-0.141 0.035-0.285 0.066-0.424 0.103-2.885 0.772-5.103 2.135-6.861 3.922-0.47 1.349-0.833 2.747-1.174 4.071-1.327 5.141-1.693 10.496-1.819 15.788-0.13 5.447 0.463 10.836 1.748 16.109 3.169 6.313 6.108 12.724 9.715 18.821 0.625 1.057 1.25 2.112 1.872 3.168 1.383 1.69 2.755 3.389 4.096 5.116 4.448 5.727 8.699 11.726 11.981 18.21 3.319 6.558 6.419 14.581 5.563 22.054-1.927 16.826-21.057 21.83-34.592 26.172-16.229 5.207-32.959 9.752-48.326 17.258-7.407 3.619-14.442 8.098-20.904 13.215-3.289 2.604-6.225 5.589-9.222 8.513-1.555 1.516-2.967 3.133-4.299 4.848-0.435 0.56-0.892 1.126-1.288 1.713-0.615 0.706-1.037 1.515-1.267 2.426 0.309 0.707 0.304 0.958-6e-3 0.766 0.818 0.774 0.749 1.949-0.338 2.614-2.629 1.61-7.385 1.225-9.036-1.733-0.374-0.668-0.533-1.376-0.55-2.102-1.04-0.727-1.777-1.859-1.929-3.369-0.347-3.464 2.498-7.511 4.325-10.221 5.021-7.453 12.25-12.856 19.436-18.073 5.364-3.894 10.908-7.56 16.581-11.033 1.555-1.736 3.271-3.31 5.069-4.85 5.446-4.666 11.325-8.59 17.708-11.856 7.033-3.599 14.349-6.579 21.817-9.145 3.912-1.344 7.867-2.548 11.812-3.792 1.126-0.355 2.251-0.745 3.38-1.109 0.919-1.206 1.885-2.442 2.933-3.583-0.237-0.804-0.483-1.579-0.763-2.286-5.564-14.012-14.663-26.087-22.614-38.769-4.51-7.194-8.517-14.643-11.301-22.688-1.114-3.219-2.139-7.241-2.325-11.189-0.87-1.096-1.966-2.04-3.022-2.942-1.267-1.082-2.554-2.125-3.746-3.254 0.036 0.049 0.065 0.1 0.102 0.15 1.235 1.68-2.084 2.181-3.082 1.5-6.987-4.77-5.982-14.167-4.138-21.347 0.495-1.926 1.148-3.939 1.982-5.892 0.282-1.16 0.601-2.293 0.96-3.376 2.426-7.315 6.744-14.374 13.938-17.748 3.98-1.866 8.508-2.491 12.848-1.751 3.488 0.595 8.873 2.309 9.171 6.457 5e-3 0.064-6e-3 0.122-6e-3 0.184 0.044-3e-3 0.085-9e-3 0.129-0.012 0.836-0.402 1.736-0.728 2.719-0.948 6.468-1.45 12.818 1.245 18.506 4.125 2.357 1.193 4.287 2.721 6.104 4.62 0.766 0.8 1.924 1.618 2.88 2.526 1.608-0.745 3.219-1.59 4.884-2.365 12.561-5.844 26.178-10.02 39.744-12.738 7.954-1.594 15.985-2.633 24.068-3.29 3.681-0.299 7.38-0.594 11.074-0.486 2.267 0.066 4.581 0.106 6.833 0.387 0.698 0.087 1.36 0.246 2.012 0.425 0.882-2.325 1.126-4.872 1.707-7.291 0.805-3.354 2.474-6.373 4.897-8.838 2.954-3.007 6.858-5.139 10.999-6.018 0.035-0.461 0.055-0.922 0.034-1.385-0.091-2.051 0.397-4.228 1.78-5.888 1.639-1.966 3.818-3.305 6.203-4.216 0.93-1.947 2.023-3.632 3.909-5.209 2.654-2.22 5.724-3.819 9.013-4.878 3.899-1.255 7.968-1.806 12.058-1.812 2.612-4e-3 7.326-0.351 9.563 1.57 1.963 0.038 3.892 0.13 5.714 0.167 7.807 0.157 15.643 0.612 23.4 1.52 3.025 0.354 6.708 0.56 9.443 1.999 0.925 0.487 2.605 1.353 3.427 2.167 1.671 0.224 3.356 1.29 4.428 2.672 3.562 0.183 6.774 0.611 9.967 2.528 2.182 1.309 6.193 4.369 5.812 7.348-0.374 2.919-3.286 5.507-5.997 6.096m-207.53 281.89c2.978-3.553 6.345-6.32 10.023-8.464 3.35-3.273 7.244-6.078 11.241-8.475-3.056-1.023-5.834-2.635-8.427-5.059-0.205-0.192-0.382-0.439-0.525-0.715-0.29 0.073-0.579 0.15-0.879 0.2-0.674 0.114-1.525-0.038-1.888-0.676-2.247-3.946 3.337-10.489 5.982-12.96 4.25-3.969 8.905-7.683 13.865-10.73 10.827-6.652 23.611-10.974 36.133-12.905 24.586-3.792 49.966 1.8 68.906 18.347 8.065 7.046 14.437 15.918 17.581 26.21 0.725 2.374 1.885 5.508 0.02 7.658-1.022 1.18-2.722 1.985-4.221 2.251-0.646 0.114-1.366 0.145-2.066 0.107-0.071-0.012-0.151-0.026-0.243-0.042-2.627-0.455-4.529-1.362-5.942-3.116-3.207 0.51-6.909-7e-3 -8.692-1.169-4.709-3.067-8.912-7.23-14.226-9.288-0.445-0.173-0.899-0.33-1.357-0.478-2.042-0.295-4.058-0.763-6.024-1.392-3.549-0.569-7.199-0.845-10.598-1.312-9.49-1.303-19.207-2.528-28.856-2.427-0.6 0.179-1.204 0.349-1.81 0.512 0.568 0.345 1.129 0.708 1.674 1.11 1.18 0.871-0.524 1.572-1.337 1.448-4.212-0.643-8.358-0.639-12.417-0.107-45.894 13.008-72.585 117.59 3.736 163.02 5.286 3.036-46.734-4.427-60.79-50.197-4.324-9.459-6.157-20.326-6.851-30.646-0.734-10.916-1.333-21.99-1.06-32.932 0.253-10.141 2.4-19.845 9.048-27.775m49.149 35.368c-1.477-0.955-2.31-2.677-1.868-4.407 0.524-2.046 2.952-3.253 5.166-3.169 2.291-4.962 7.651-8.423 12.47-10.891 2.538-1.957 5.225-3.703 7.846-5.173 5.801-3.253 12.244-5.322 18.942-5.264 6.021 0.052 11.942 1.879 16.561 5.818 1.755 1.497 3.86 3.777 5.348 6.304 0.68-1.458 1.299-2.935 1.71-4.503 1.138-4.336-0.708-8.182-0.055-12.415 0.135-0.872 1.477-0.928 2.082-0.544 2.673 1.698 3.999 4.199 4.285 6.991 1.398 3.913 0.232 9.039-0.032 12.901-0.191 2.806-0.463 5.606-0.742 8.404 0.055 1.828 0.111 3.661 0.529 5.464 0.535 2.312 1.511 4.424 2.41 6.572 2.795 1.846 3.181 6.386 0.651 8.707-1.697 1.556-5.461 1.862-6.025-0.889-0.026-0.128-0.016-0.239 0.019-0.337-0.473-0.981-0.515-2.419-0.674-3.318-0.317-1.798-0.635-3.596-0.953-5.395-0.35-1.986-0.866-4.017-1.002-6.032-9e-3 -0.14-0.018-0.271-0.024-0.395-0.055-0.189-0.114-0.376-0.167-0.565-0.261 1.265-0.634 2.536-1.146 3.805-0.303 0.752-1.902 0.818-2.362 0.195-1.711-2.32-3.211-4.522-4.509-7.098-1.334-2.646-2.237-5.651-3.982-8.063-3.64-5.029-9.839-5.68-15.598-5.237-5.725 0.441-11.438 2.15-16.529 4.785-5.677 2.938-10.584 6.924-16.252 9.833-0.202 0.244-0.397 0.493-0.55 0.742-0.118 0.651-0.042 1.423 0.097 1.847 0.201 0.612-0.066 0.991-0.523 1.198-0.855 1.649-3.932 0.899-5.123 0.129" style="fill:#1d1d1b"/></g></g></g><g transform="matrix(.35278 0 0 -.35278 296.43 -65.062)"><path d="m0 0c0-24.727-3.962-36.534-3.682-57.005 0.767-18.024 17.123-38.689-28.236-58.7-23.853-7.557-33.685-2.334-34.019 15.562 0 0-71.133 3.869-97.388 19.571-13.001-10.793-24.594-18.13-38.688-4.002-30.017 40.242 9.558 60.034 29.79 120.29-30.884 6.437-63.61 22.326-97.829 49.581-17.163 15.355-15.275 23.539 7.111 24.013 45.406 3.355 85.975 13.641 121.72 30.857l-0.013 0.014c6.316-2.261 13.714-3.989 22.372-5.076 26.041-5.116 59.994-2.028 84.794 11.666 32.946 6.124 66.157 18.09 99.629 35.94 19.185 11.56 25.148 5.644 18.844-16.496-14.374-41.323-67.464-83.166-90.137-105.11 4.369-27.695 5.73-46.613 5.73-61.101m28.876-117.51c4.236-0.193 8.452-0.647 12.627-1.414 5.19-0.634 7.004-1.828 6.411-4.536-3.195 1.408-8.545 2.168-16.516 1.768-5.216-0.601-3.682-2.522 0-2.328 18.877 1.708 24.754-7.431 2.281-10.646-0.38 3.455-5.563 6.083-19.398 5.383-5.222-0.594-3.688-2.521 0-2.321 17.323 0.933 22.173-5.81 4.503-10.346-37.394-6.197-58.346 0.194-64.169 16.089 4.255 0.42 8.971 1.307 14.134 2.595 7.064 2.468 12.861 5.142 17.624 7.984 16.282-1.214 29.383-1.627 42.503-2.228m-233.45 21.105c-18.023-6.79-35.947 7.151-51.282 45.253-5.323 17.456 2.955 16.816 11.173 1.534 1.748-3.249 4.189-3.562 1.981 1.207-6.597 12.18-11.533 15.242-14.688 13.774-8.945 20.865 1.921 20.592 10.279 3.589 1.747-3.249 4.189-3.562 1.988 1.207-3.803 7.018-7.231 11.187-10.099 13.188 2.007 1.914 3.968 0.987 7.211-3.122 2.821-3.162 5.409-6.53 7.777-10.046 5.764-8.558 11.42-17.162 18.184-26.895-0.394-11.453 3.655-22.986 15.142-34.532 1.834-1.428 3.641-2.642 5.436-3.669zm40.583 334.23c2.441 37.354 30.237 54.197 66.643 63.346 47.526 11.363 61.869-32.169 77.211-59.791 40.69-74.928-24.353-108.56-94.72-100.06-52.47 14.235-57.045 19.044-49.134 96.501m253.41-73.715c7.144 31.578-2.842 35.12-26.462 22.733-27.361-11.893-54.17-21.305-80.311-27.682 17.756 17.823 23.913 45.325 4.783 84.447-14.456 30.237-30.139 78.431-92.055 61.592-34.13-10.51-59.811-23.35-65.368-66.928-5.416-34.813-14.767-74.628 18.598-93.499-33.006-14.395-70.54-24.234-111.54-30.571-26.582-2.155-33.132-10.479-10.226-33.352 24.12-22.866 61.508-45.379 92.239-51.909-9.005-25.641-35.22-48.761-39.309-76.423-4.436 5.93-9.012 10.053-15.195 19.191-2.415 3.575-5.783 6.964-8.805 10.052-5.403 5.877-11.113 6.251-14.161 2.982-6.15 0.9-8.032-10.939-2.308-24.22-1.168-4.05-1.014-9.726 0.52-14.308 14.468-38.342 32.438-62.829 59.367-51.829l15.422 6.17c8.458 0.14 16.275 4.262 23.406 10.639 14.822-9.078 59.801-21.726 89.824-17.784 0.8-11.979 6.477-17.823 16.296-19.223 5.97-26.322 35.6-28.556 74.655-21.199 4.709 1.067 9.638 3.896 12.487 6.997 14.314 2.021 23.453 9.786 19.484 14.569 1.208 4.302-1.04 9.945-8.871 11.499-4.209 0.981-8.505 1.521-12.821 1.728-16.796 0.8-25.928 2.294-32.225 3.008 23.493 17.437 8.138 36.907 9.039 52.203 0.813 19.564 6.69 45.352-3.876 112.1 33.119 20.445 78.904 75.522 87.416 109.02" style="fill:#262626"/></g><g transform="matrix(.35278 0 0 -.35278 225.36 -31.579)"><path d="m0 0-3.102-1.487c-18.023-6.791-35.947 7.15-51.282 45.252-5.323 17.456 2.955 16.816 11.173 1.534 1.748-3.249 4.189-3.562 1.981 1.207-6.597 12.18-11.533 15.242-14.688 13.775-8.945 20.865 1.921 20.591 10.279 3.588 1.748-3.248 4.189-3.562 1.988 1.208-3.802 7.017-7.231 11.186-10.099 13.187 2.008 1.914 3.969 0.987 7.211-3.122 2.821-3.161 5.409-6.53 7.777-10.046 5.764-8.557 11.42-17.162 18.184-26.895-0.041-1.18 1.918 9.937 1.814 9.233-4.436 5.929-9.012 10.052-15.195 19.19-2.415 3.575-5.783 6.964-8.805 10.052-5.403 5.877-11.113 6.251-14.161 2.982-6.15 0.9-8.032-10.939-2.308-24.22-1.168-4.049-1.014-9.725 0.52-14.308 14.468-38.342 32.438-62.829 59.367-51.829l14.386 5.755c-4.02 0.512-7.726 0.981-15.04 4.944" style="fill:#c64700"/></g><g transform="matrix(.35278 0 0 -.35278 314.34 -20.809)"><path d="m0 0c1.207 4.303-1.041 9.945-8.872 11.5-4.209 0.98-8.505 1.52-12.82 1.727-16.797 0.801-25.928 2.295-32.225 3.009-2.705-2.425-4.577-3.127-10.466-6.07 16.282-1.215 29.383-1.628 42.504-2.228 4.235-0.194 8.451-0.647 12.627-1.414 5.19-0.634 7.004-1.828 6.41-4.536-3.195 1.407-8.544 2.168-16.516 1.768-5.216-0.601-3.682-2.522 0-2.329 18.878 1.708 24.754-7.431 2.281-10.646-0.38 3.456-5.563 6.084-19.397 5.383-5.223-0.593-3.689-2.521 0-2.321 17.323 0.934 22.172-5.81 4.502-10.346-37.394-6.196-58.346 0.194-64.169 16.089-3.204-0.227-7.72-0.793-10.485 0.047 5.969-26.321 35.599-28.556 74.654-21.199 4.71 1.068 9.639 3.896 12.488 6.998 14.314 2.021 23.453 9.785 19.484 14.568" style="fill:#c64700"/></g><g transform="matrix(.35278 0 0 -.35278 273.47 -126.63)"><path d="m0 0c-15.539 1e-3 -40.625 5.901-46.446 16.588-0.111 0.019-0.222 0.038-0.334 0.058-1.552 0.283-2.648 1.532-2.725 3.106-0.077 1.563 0.883 2.903 2.39 3.334 16.688 4.779 29.362 11.454 38.748 20.409 0.623 0.594 1.439 0.921 2.297 0.921 0.51 0 1.022-0.119 1.48-0.347 8.931-4.435 17.645-6.591 26.641-6.591 0.208 0 0.623 4e-3 0.623 4e-3 1.513 0 2.753-0.903 3.199-2.301 0.446-1.4-0.043-2.857-1.248-3.713-0.345-0.246-0.698-0.491-1.057-0.736-3.769-16.758-9.147-26.35-16.903-30.168l-0.176-0.087-0.193-0.033c-1.762-0.295-3.879-0.444-6.294-0.444z" style="fill:#ba5000"/></g><g transform="matrix(.35278 0 0 -.35278 275.57 -137.59)"><path d="m0 0c-4.057-0.761-7.837-3.508-11.681-5.015-4.133-1.621-8.265-2.779-12.633-3.555-1.866-0.331-5.7-2.091-5.329-4.564-1.836 0.556-3.682 1.02-5.623 0.874-1.02-0.077-3.172-0.462-3.07-1.936 0.243-3.489 5.193-5.055 7.858-6.42 3.849-1.972 7.819-3.46 12.172-3.912 9.385-0.975 18.099 2.224 24.734 8.901 2.377 2.393 5.757 5.794 5.717 9.405-0.063 5.706-7.862 7.025-12.145 6.222" style="fill:#ff5745"/></g><g transform="matrix(.35278 0 0 -.35278 -546.03 543.29)"><g clip-path="url(#clipPath734)" style="opacity:.5"><g transform="translate(2341.8 1926.7)"><path d="m0 0c0.429 3.583-47.934-8.832-51.402-10.283-1.109-0.463 5.612-5.521 6.33-5.303 20.021 5.003 32.143 4.919 36.996 2.64 1.327-0.297 8.05 12.728 8.076 12.946" style="fill:#1d1d1b"/></g></g></g><g transform="matrix(.35278 0 0 -.35278 257.4 -132.9)"><path d="m0 0c5.575-12.006 38.71-18.191 51.633-16.027 8 3.939 12.963 14.655 16.305 29.781l-5.434-1.578c-1.608-4.981-2.603-11.639-12.348-19.587-14.77-4.308-27.471-0.029-37.234 7.043z" style="fill:#f39200"/></g><g transform="matrix(.35278 0 0 -.35278 -546.03 543.29)"><g clip-path="url(#clipPath754)" style="opacity:.3"><g transform="translate(2343.7 1923.9)"><path d="m0 0c0.599 2.115 1.155 4.341 1.67 6.675l-5.434-1.578c-0.928-2.873-1.658-6.305-3.975-10.22 2.642 1.649 5.206 3.432 7.739 5.123" style="fill:#c92b00"/></g></g></g><g transform="matrix(.35278 0 0 -.35278 -546.03 543.29)"><g clip-path="url(#clipPath770)" style="opacity:.3"><g transform="translate(2300 1910.9)"><path d="m0 0c-3.471 1.468-6.699 3.349-9.655 5.491l-12.922 0.368c0.597-1.287 1.513-2.507 2.686-3.657 6.595-1.225 13.224-1.951 19.891-2.202" style="fill:#c92b00"/></g></g></g><g transform="matrix(.35278 0 0 -.35278 257.05 -132.96)"><path d="m0 0c29.509-5.382 55.819 4.242 70.392 14.596 1.591 1.131 0.788 3.615-1.164 3.593-8.818-0.099-18.048 1.849-27.87 6.726-0.755 0.374-1.655 0.237-2.264-0.344-10.201-9.731-23.695-16.257-39.303-20.726-2.014-0.577-1.852-3.469 0.209-3.845" style="fill:#f9b233"/></g><g transform="matrix(.35278 0 0 -.35278 281.47 -139.38)"><path d="m0 0c-8.818-0.099-18.049 1.848-27.871 6.725-0.35 0.174-0.732 0.233-1.101 0.193 0.351-3.922 1.483-7.687 3.859-11.052 2.537-3.592 6.078-6.224 9.902-8.322 6.388 2.616 11.93 5.705 16.375 8.863 1.591 1.131 0.788 3.615-1.164 3.593" style="fill:#f39200"/></g><g transform="matrix(.35278 0 0 -.35278 -546.03 543.29)"><g clip-path="url(#clipPath794)" style="opacity:.3"><g transform="translate(2312.6 1931.1)"><path d="m0 0c-0.605 1.284-3.322 1.277-6.068-0.016-2.746-1.294-4.483-3.383-3.878-4.667 0.605-1.285 3.321-1.277 6.068 0.016 2.746 1.293 4.482 3.382 3.878 4.667" style="fill:#c92b00"/></g></g></g><g transform="matrix(.35278 0 0 -.35278 -546.03 543.29)"><g clip-path="url(#clipPath810)" style="opacity:.3"><g transform="translate(2331.6 1933)"><path d="m0 0c0.2 1.074-1.786 2.345-4.435 2.839-2.65 0.494-4.961 0.025-5.161-1.049s1.786-2.345 4.435-2.839c2.651-0.495 4.961-0.025 5.161 1.049" style="fill:#c92b00"/></g></g></g><g transform="matrix(.35278 0 0 -.35278 261.82 -143.18)"><path d="m0 0c-2.222 8.875-12.616 13.918-20.651 11.906-6.808-1.704-14.828-11.357-12.606-20.232 2.222-8.874 10.82-11.617 20.003-9.318 9.184 2.3 15.476 8.769 13.254 17.644" style="fill:#1d1d1b"/></g><g transform="matrix(.35278 0 0 -.35278 262.13 -142.14)"><path d="m0 0c-2.222 8.875-12.327 13.99-20.092 12.046-6.578-1.646-14.268-11.217-12.046-20.091 2.222-8.875 10.569-11.68 19.444-9.458 8.874 2.221 14.916 8.628 12.694 17.503" style="fill:#1d1d1b"/></g><g transform="matrix(.35278 0 0 -.35278 259.99 -142.69)"><path d="m0 0c0-4.421-3.584-8.005-8.005-8.005s-8.004 3.584-8.004 8.005 3.583 8.004 8.004 8.004 8.005-3.583 8.005-8.004" style="fill:#fff"/></g><g transform="matrix(.35278 0 0 -.35278 283.97 -148.62)"><path d="m0 0c-2.222 8.875-12.616 13.918-20.652 11.906-6.807-1.704-14.827-11.357-12.606-20.232 2.222-8.874 10.82-11.617 20.004-9.317 9.184 2.299 15.475 8.768 13.254 17.643" style="fill:#1d1d1b"/></g><g transform="matrix(.35278 0 0 -.35278 283.81 -147.58)"><path d="m0 0c-2.222 8.875-12.327 13.99-20.092 12.046-6.578-1.647-14.268-11.217-12.046-20.092 2.222-8.874 10.569-11.679 19.444-9.458 8.874 2.222 14.916 8.629 12.694 17.504" style="fill:#1d1d1b"/></g><g transform="matrix(.35278 0 0 -.35278 281.68 -148.13)"><path d="m0 0c0-4.421-3.584-8.005-8.005-8.005s-8.004 3.584-8.004 8.005 3.583 8.005 8.004 8.005 8.005-3.584 8.005-8.005" style="fill:#fff"/></g><g transform="matrix(.35278 0 0 -.35278 291.6 -121.86)"><path d="m0 0c1.787-6.918 0.63-12.2-2.359-16.462 7.698-30.071-0.603-36.203-13.045-36.139-8.554 1.052-16.415 2.414-19.666 5.835-8.074-4.072-16.352-7.818-28.681-5.07-6.542-6.84-14.082-11.408-22.908-13.049-5.755-0.106-10.423 3.259-14.248 9.318l-3.324 12.475c-13.393 2.256-24.388 10.121-32.634 24.414 12.963-4.483 24.866-7.718 33.716-7.356 5.086 10.56 18.389 9.614 36.102-0.856 10.42 4.561 19.641 6.222 27.898 5.549 9.661 11.272 19.658 17.681 30.398 13.364z" style="fill:#cc0027"/></g><g transform="matrix(.35278 0 0 -.35278 -546.03 543.29)"><g clip-path="url(#clipPath854)" style="opacity:.14999"><g transform="translate(2368.8 1872.5)"><path d="m0 0c1.474-21.951-0.655-30.949-5.504-32.565-9.048-3.117-16.268 0.205-19.985 2.848 0 0-1.046 0.173-2.501-0.179 0.369 0.783 0.553 1.642 0.504 2.6-18.051-9.538-30.435-8.982-28.209 16.368-8.07-0.576-7.862-13.143-4.158-24.189l-2.37 0.343c-2.111-7.728-17.455-12.236-20.66-10.78-6.237 2.963-10.41 15.35-15.152 26.127-0.015-0.385-0.026-0.767-0.037-1.148-0.763 1.073-1.159 2.105-0.643 7.171-2.671-6.847-12.888-8.827-28.176 1.123 8.901-8.69 17.911-17.174 29.531-20.662 1.452-8.675 5.217-15.616 12.923-19.604 9.736 1.86 18.637 7.147 27.198 13.828 5.422-3.312 17.436-0.347 21.756 3.261 0.462 0.197 0.91 0.399 1.35 0.605 14.35-3.648 27.464-5.779 35.753-1.981 7.788 8.424 6.484 26.296-1.62 36.834m-5.064-29.868c-7.303 2.252-13.325 4.712-22.422 12.788v-10.216c8.379-3.096 14.585-3.562 22.422-2.572" style="fill:#1d1d1b"/></g></g></g><g transform="matrix(.35278 0 0 -.35278 -546.03 543.29)"><g clip-path="url(#clipPath870)" style="opacity:.25"><g transform="translate(2243.3 1860.2)"><path d="m0 0c3.817-2.536 19.711-5.844 25.619-3.337l-30.719 10.244zm131.4 26.2c-0.087-0.109-6.617-5.906-10.156-9.045-2.94 2.009-7.119 2.05-12.708-0.149l-15.742-12.774s-0.425-0.483-0.998-1.153l-0.03 0.036c-3.879 2.048-16.332 0.562-20.685-2.307-2.669 0.487-2.04-7.847-0.588-14.125 0.415 6.765 3.681 11.395 9.874 11.815 7.88-1.441 11.091-5.16 15.704-14.863 1.612 5.217 1.269 10.091-1.014 14.624 0.283 0.347 0.568 0.698 0.846 1.038l2.569-7.156c3.458 5.389 8.483 10.853 18.05 14.919-7.358-0.411-13.423-2.763-18.508-5.194 0.013 0.015 0.021 0.026 0.021 0.026 13.407 10.609 23.085 14.385 28.279 5.11-0.357 2.327-0.921 4.327-1.701 5.983 3.648 3.295 5.584 9.108 6.787 13.215m-93.282-32.215c16.316-1.904 20.671-8.761 23.203-15.773l3.215 2.756-2.04 13.017c-6.73 1.408-14.563 1.702-24.378 0m23.231 0.912 2.745 3.461c-20.764 11.811-39.492 12.965-34.868-9.854 1.59 13.885 10.714 12.799 32.123 6.393" style="fill:#f6f6f6"/></g></g></g><g transform="matrix(.35278 0 0 -.35278 290.49 -106.87)"><path d="m0 0c-3.471-11.138-18.202-9.216-29.18-3.686 0.131 0.084 0.265 0.169 0.392 0.251 0.367 1.02 0.636 2.084 0.828 3.175 5.773-1.969 16.552-2.621 20.425-0.151-9.523-0.188-16.1 1.399-20.093 3.746 0.085 4.557-1.036 9.287-2.843 13.217 3.963 3.459 9.725 5.595 19.001 7.734-7.187 0.46-15.009-1.292-20.406-5.065-0.267 0.442-0.541 0.871-0.824 1.279-0.198 0.103-0.401 0.194-0.602 0.289 10.295 7.903 20.432 20.261 27.676 9.501 5.77-8.407 7.657-18.782 5.626-30.29m-32.263-1.109c-5.134-4.752-20.414-10.676-26.755-7.22-3.746 7.212-3.902 14.933-3.036 23.016 6.097 3.861 20.345 7.082 25.998 3.106 3.672-5.908 4.777-9.717 3.793-18.902m-61.015-14.322c-5.488 10.317-6.899 20.767-4.01 30.546 3.645 12.754 18.637 3.774 31.175-0.417-0.22-0.856-0.388-1.715-0.53-2.575-6.734 2.095-16.473 1.772-23.232-0.913 9.768 0.858 17.474 0.189 22.885-2.178-0.214-3.593 0.214-7.214 1.195-10.86-2.84-4.011-9.703-8.485-20.19-11.666 5.163-1.337 17.883 4.205 21.292 8.177 0.509-1.409 1.089-2.821 1.748-4.236-8.769-8.978-23.4-15.666-30.333-5.878m-36.084 36.923c10.271-5.612 18.111-6.976 26.994-7.603-0.801-4.07-1.08-7.978-0.896-11.729-8.729 2.537-16.824 7.719-26.098 19.332m131.91 19.217c1.453-3.765 0.078-8.638-1.938-11.938-0.973 1.933-2.099 3.864-3.389 5.791-0.11 0.157-0.229 0.293-0.344 0.44 2.415 1.847 4.374 3.742 5.671 5.707m0.25-16.956c3.136 6.091 3.579 14.543 1.24 21.992-3.084-3.447-6.157-6.53-9.204-8.705-8.279 6.147-22.847-3.654-32.601-14.757-9.047 1.914-19.656-1.67-26.548-4.806-13.861 8.209-32.634 13.147-36.834 1.265-10.546 0.674-22.497 3.889-35.293 8.631 1.213-10.29 14.225-26.436 33.731-30.334 0.908-5.497 2.807-10.636 5.465-15.432 7.844-11.515 25.083-4.839 36.678 6.507 8.856-2.564 19.267 1.409 26.68 5.423 14.643-7.451 34.633-8.669 38.583 4.874 1.613 8.299 1.261 16.816-1.897 25.342" style="fill:#5b000f"/></g><g transform="matrix(.35278 0 0 -.35278 315.54 -71.63)"><path d="m0 0c-4.368 0.364-7.72 2.397-8.966 5.44l-0.222 0.541 10.529 189.6 30.371-2.529-20.983-188.8-0.372-0.536c-2.21-3.196-6.96-4-10.357-3.717" style="fill:#b75b00"/></g><g transform="matrix(.35278 0 0 -.35278 318.23 -73.479)"><path d="m0 0c-2.425-3.807-11.758-3.747-13.557 1.129l10.787 186.33 22.949-1.911z" style="fill:#e09500"/></g><g transform="matrix(.35278 0 0 -.35278 317.05 -72.866)"><path d="m0 0c-2.031-0.895-4.66-1.155-7.395-0.404l12.936 189.19 12.812-2.933z" style="fill:#f7ba23"/></g><g transform="matrix(.35278 0 0 -.35278 320.56 -81.501)"><path d="m0 0c-7.903-3.775-15.44-3.147-22.609 1.883-2.815 2.711-1.023 17.604 1.323 15.895 7.241-4.176 14.778-4.803 22.61-1.883 2.462 0.71 1.122-14.271-1.324-15.895" style="fill:#b75b00"/></g><g transform="matrix(.35278 0 0 -.35278 320.15 -82.283)"><path d="m0 0c-6.979-3.334-13.633-2.779-19.964 1.662-2.485 2.394-1.131 12.816 0.941 11.306 6.394-3.686 13.049-4.241 19.964-1.662 2.174 0.627 1.219-9.872-0.941-11.306" style="fill:#e09500"/></g><g transform="matrix(.35278 0 0 -.35278 319.89 -86.078)"><path d="m0 0c-3.334-1.007-6.607-1.288-9.819-0.82-0.585-3.899-1.416-7.781-2.107-11.645 2.77-0.633 5.599-0.566 8.483 0.181 1.088 4.093 2.472 8.147 3.443 12.284" style="fill:#f7ba23"/></g><g transform="matrix(.35278 0 0 -.35278 324.24 -115.62)"><path d="m0 0c-9.469-3.645-18.572-2.886-27.308 2.274-3.442 2.763-1.905 18.412 1.881 16.367 8.808-4.306 16.88-4.978 26.278-2.188 4.128 0.926 2.072-14.869-0.851-16.453" style="fill:#b75b00"/></g><g transform="matrix(.35278 0 0 -.35278 323.72 -116.23)"><path d="m0 0c-8.362-3.218-16.399-2.549-24.113 2.008-3.039 2.439-1.584 12.853 0.941 11.306 7.777-3.802 15.815-4.471 24.113-2.008 2.612 0.59 1.64-9.907-0.941-11.306" style="fill:#e09500"/></g><g transform="matrix(.35278 0 0 -.35278 323.35 -120.04)"><path d="m0 0c-4.005-0.952-7.949-1.177-11.831-0.653-0.639-3.894-1.575-7.767-2.342-11.625 3.352-0.681 6.764-0.663 10.231 0.035 1.242 4.081 2.842 8.117 3.942 12.243" style="fill:#f7ba23"/></g><g transform="matrix(.35278 0 0 -.35278 326.37 -136.13)"><path d="m0 0c-10.073-3.594-20.81-2.7-30.15 2.51-3.683 2.784-2.045 19.461 2.002 17.395 9.411-4.357 19.049-5.159 29.051-2.419 4.394 0.903 2.204-15.917-0.903-17.486" style="fill:#b75b00"/></g><g transform="matrix(.35278 0 0 -.35278 325.66 -137.12)"><path d="m0 0c-8.895-3.174-17.466-2.46-25.713 2.141-3.252 2.458-1.759 12.868 0.942 11.306 8.31-3.846 16.881-4.56 25.712-2.141 2.781 0.577 1.802-9.921-0.941-11.306" style="fill:#e09500"/></g><g transform="matrix(.35278 0 0 -.35278 325.24 -140.93)"><path d="m0 0c-4.263-0.93-8.466-1.134-12.607-0.589-0.66-3.892-1.637-7.762-2.432-11.617 3.577-0.7 7.212-0.7 10.905-0.021 1.301 4.075 2.984 8.105 4.134 12.227" style="fill:#f7ba23"/></g><g transform="matrix(.35278 0 0 -.35278 329.58 -146.88)"><path d="m0 0c-1-12.003-11.54-20.923-23.543-19.923-12.003 0.999-20.923 11.54-19.924 23.543s11.54 20.923 23.543 19.923c12.003-0.999 20.923-11.54 19.924-23.543" style="fill:#5b000f"/></g><g transform="matrix(.35278 0 0 -.35278 328.29 -146.98)"><path d="m0 0c-0.832-9.991-9.606-17.416-19.597-16.584s-17.416 9.606-16.584 19.597 9.606 17.416 19.597 16.584 17.416-9.606 16.584-19.597" style="fill:#cc0027"/></g><g transform="matrix(.35278 0 0 -.35278 -546.03 543.29)"><g clip-path="url(#clipPath946)" style="opacity:.25"><g transform="translate(2461.8 1976.3)"><path d="m0 0c-6.957 0.579-13.321-2.847-16.827-8.354 1.65 0.811 3.409 1.403 5.189 1.754 3.315 0.656 6.921 0.512 10.011-0.956 2.861-1.359 5.172-3.872 6.634-6.649 3.125-5.937 2.576-13.22-0.96-18.84-0.664-1.055-1.401-2.014-2.198-2.885 7.832 1.468 14.042 8.008 14.735 16.333 0.832 9.992-6.593 18.765-16.584 19.597" style="fill:#f6f6f6"/></g></g></g><g transform="matrix(.35278 0 0 -.35278 320.3 -149.47)"><path d="m0 0c-2.14-4.187-5.385-6.808-7.25-5.855-1.864 0.953-1.641 5.119 0.498 9.305 2.139 4.187 5.386 6.809 7.25 5.855 1.864-0.952 1.641-5.118-0.498-9.305" style="fill:#fff"/></g><g transform="matrix(.35278 0 0 -.35278 330.36 -123.55)"><path d="m0 0c-2.34-14.954-13.158-33.13-19.901-32.075-6.742 1.055-10.887 26.125-8.547 41.079 2.341 14.953 10.28 27.372 17.022 26.317s13.766-20.367 11.426-35.321" style="fill:#262626"/></g><g transform="matrix(.35278 0 0 -.35278 323.75 -113.84)"><path d="m0 0c-0.622 0.295-3.091 3.195-4.7 12.758-1.298 7.712-1.461 16.612-0.427 23.226 2.221 14.186 8.126 21.741 11.535 21.741 0.132 0 0.259-0.01 0.388-0.03 1.133-0.178 3.621-2.817 5.474-9.143 1.859-6.344 2.362-14.009 1.346-20.503-2.492-15.924-10.515-28.05-13.58-28.05-0.013 0-0.025 0-0.036 1e-3" style="fill:#3f3f3f"/></g></g></svg>
