<?xml version="1.0" encoding="UTF-8"?>
<svg width="554.36mm" height="612.33mm" version="1.1" viewBox="0 0 554.36 612.33" xmlns="http://www.w3.org/2000/svg"><defs><clipPath id="clipPath831"><path d="m0 2187.7h1865.7v-2187.7h-1865.7z"/></clipPath><clipPath id="clipPath847"><path d="m535.04 202.5h673.46v-107.26h-673.46z"/></clipPath><clipPath id="clipPath871"><path d="m1122.7 1349h529.86v-394.71h-529.86z"/></clipPath><clipPath id="clipPath887"><path d="m1206.5 1337.3h404.89v-238.93h-404.89z"/></clipPath><clipPath id="clipPath911"><path d="m1206.2 795.42h215.05v-195.07h-215.05z"/></clipPath><clipPath id="clipPath939"><path d="m503.77 690.57h388.66v-561.59h-388.66z"/></clipPath><clipPath id="clipPath955"><path d="m639.59 341.95h193.26v-100.96h-193.26z"/></clipPath><clipPath id="clipPath983"><path d="m925.9 506.43h257.17v-358.94h-257.17z"/></clipPath><clipPath id="clipPath999"><path d="m976.3 383.74h204.74v-123.96h-204.74z"/></clipPath><clipPath id="clipPath1051"><path d="m1055.7 1388h138.08v-130.93h-138.08z"/></clipPath><clipPath id="clipPath1067"><path d="m573.78 1505.7h217.28v-254.88h-217.28z"/></clipPath><clipPath id="clipPath1083"><path d="m1123.2 1330.2h177.59v-618.42h-177.59z"/></clipPath><clipPath id="clipPath1099"><path d="m674.14 1176.3h575.66v-748.51h-575.66z"/></clipPath><clipPath id="clipPath1115"><path d="m473.1 1685h834.48v-1404.7h-834.48z"/></clipPath><clipPath id="clipPath1135"><path d="m108.52 1104.5h513.31v-179.64h-513.31z"/></clipPath><clipPath id="clipPath1151"><path d="m146.53 1327.1h389.69v-262.99h-389.69z"/></clipPath><clipPath id="clipPath1183"><path d="m102.18 998.66h291.92v-375.36h-291.92z"/></clipPath><clipPath id="clipPath1199"><path d="m398.98 787.77h153.95v-170.39h-153.95z"/></clipPath><clipPath id="clipPath1227"><path d="m596.76 1852.7h618.42v-626.41h-618.42z"/></clipPath><clipPath id="clipPath1243"><path d="m688.99 1590.3h301.24v-326.55h-301.24z"/></clipPath><clipPath id="clipPath1271"><path d="m1152.5 1505.3h44.45v-115.12h-44.45z"/></clipPath><clipPath id="clipPath1287"><path d="m1135.4 1800.3h39.17v-50.76h-39.17z"/></clipPath><clipPath id="clipPath1303"><path d="m617.71 1777.6h46.001v-81.87h-46.001z"/></clipPath><clipPath id="clipPath1319"><path d="m891.2 1405.4h227.87v-100.58h-227.87z"/></clipPath><clipPath id="clipPath1367"><path d="m873.4 1661.8h230.6v-197.87h-230.6z"/></clipPath><clipPath id="clipPath1383"><path d="m972.27 1531.1h84.539v-47.23h-84.539z"/></clipPath><clipPath id="clipPath1399"><path d="m842.65 1615.1h48.633v-60.41h-48.633z"/></clipPath><clipPath id="clipPath1415"><path d="m1103.9 1606h28.75v-53.59h-28.75z"/></clipPath><clipPath id="clipPath1431"><path d="m914.25 1756.1h140.27v-63.23h-140.27z"/></clipPath><clipPath id="clipPath1455"><path d="m843.41 1746.3c-45.423-7.065-25.259-62.165-25.259-62.165s14.061-5.125 25.111-5.207c6.994-0.052 24.526 3.29 33.105 5.739 12.7 3.628 9.856 18.247 9.856 18.247s2.281 44.065-34.498 44.065c-2.575 0-5.342-0.216-8.315-0.679"/></clipPath><clipPath id="clipPath1483"><path d="m0 2187.7h1865.7v-2187.7h-1865.7z"/></clipPath><clipPath id="clipPath1499"><path d="m1047.1 1734.4c9.337-9.949 16.427-23.873 20.055-37.426 5.747-0.601 11.625-0.997 14.954-0.598 8.871 1.064 19.734 6.699 19.734 6.699s11.532 48.794-25.564 50.734c-0.821 0.043-1.622 0.064-2.401 0.064-16.656 0-23.816-9.583-26.778-19.473"/></clipPath><clipPath id="clipPath1527"><path d="m0 2187.7h1865.7v-2187.7h-1865.7z"/></clipPath><clipPath id="clipPath1539"><path d="m1002 1802.9h116.75v-60.07h-116.75z"/></clipPath><clipPath id="clipPath1555"><path d="m1009 1814.1h110.95v-49.03h-110.95z"/></clipPath><clipPath id="clipPath1575"><path d="m760.15 1795.7h151.94v-88.41h-151.94z"/></clipPath><clipPath id="clipPath1591"><path d="m773.8 1808.8h140.52v-50.82h-140.52z"/></clipPath></defs><g transform="translate(81.632 144.69)"><g transform="matrix(.35278 0 0 -.35278 -115.15 510.14)"><g clip-path="url(#clipPath831)"><g clip-path="url(#clipPath847)" style="opacity:.2"></g><g transform="translate(459.6 556.19)"><path d="m0 0c3.219-6.242 8.634-11.322 15.068-14.137 1.114 9.978 2.708 20.921 10.243 27.557 9.831 8.657 25.444 5.914 36.708-0.774 15.798-9.379 27.075-24.948 35.067-41.492 8.667-17.94 14.009-38.3 10.146-57.845-3.864-19.546-18.581-37.755-38.183-41.327-18.876-17.489-50.423-19.164-71.046-3.772 6.35-1.815 13.425-0.924 19.126 2.407-21.414 3.969-37.978 22.516-44.896 43.167s-5.67 43.131-2.457 64.671c1.566-8.887 5.29-17.387 10.762-24.563-4.22 11.429-4.224 24.363-0.012 35.795 4.117-11.838 12.328-22.209 22.908-28.93-4.687 12.442-5.889 26.176-3.434 39.243" style="fill:#eadab6"/></g><g transform="translate(1186.8 1349)"><path d="m0 0s154.28-18.096 254.98-85.318 213.51-189.7 218.35-203.31c4.837-13.615-18.445-96.293-117.3-105.52-98.854-9.229-299.5 97.421-313.18 109.48s-94.623 49.707-105.83 148.44c-11.21 98.729 62.988 136.23 62.988 136.23" style="fill:#eadab6"/></g><g clip-path="url(#clipPath871)" style="opacity:.2"><g transform="translate(1578.8 1109.6)"><path d="m0 0c-33.847 17.212-89.943 13.665-125.96 1.114-19.653-6.85-38.761-15.087-58.253-22.36-7.936-2.962-16.246 7.649-22.103 12.246-9.382 7.364-18.66 14.875-27.607 22.764-36.326 32.028-67.884 68.772-90.748 111.62-19.183 35.952-33.776 74.018-49.689 111.47-11.158 1.785-17.638 2.546-17.638 2.546s-74.198-37.502-62.988-136.23c11.209-98.729 92.143-136.38 105.83-148.44 13.688-12.062 214.33-118.71 313.18-109.48 74.154 6.923 102.3 60.178 109.69 92.106-15.021 35.851-29.714 37.575-73.724 62.637" style="fill:#402312"/></g></g><g clip-path="url(#clipPath887)" style="opacity:.5"><g transform="translate(1611.3 1098.4)"><path d="m0 0s-34.196 37.615-93.997 39.803-78.733-12.929-78.733-12.929-9.55 25.251 77.231 36.699c-75.461 92.681-309.39 175.35-309.39 175.35s148.46-20.452 237.89-82.42c89.431-61.968 167-156.5 167-156.5" style="fill:#fdf3d8"/></g></g><g transform="translate(1224.2 840.33)"><path d="m0 0s41.325 70.379 109.64 152.85c54.623 65.943 72.193 81.637 72.193 81.637s95.041 31.383 140.47 22.133c47.513-9.675 119.85-20.266 119.94-56.31 0.101-38.07-22.937-118.1-107.14-210.17-84.201-92.071-129.15-113.54-129.15-113.54s-81.552-25.832-139.24 17.849c-57.683 43.68-66.711 105.55-66.711 105.55" style="fill:#eadab6"/></g><g transform="translate(1381.6 822.91)"><path d="m0 0s-119.89 68.459-130 55.635c-74.221-94.165-40.424-146.14-17.491-161.7 19.856-13.469 167.06-142.29 221.65-114.53 7.519 3.823 59.454 24.381 77.751 58.163 11.33 20.917 14.684 49.857 2.009 77.329-3.704 8.029-32.572 22.998-41.352 24.644-8.774 1.645-33.414-43.286-33.414-43.286s42.746 42.585 20.087 55.17c-22.383 12.433-99.245 48.572-99.245 48.572" style="fill:#eadab6"/></g><g clip-path="url(#clipPath911)" style="opacity:.2"><g transform="translate(1379.3 661.41)"><path d="m0 0c0.334 4.868 0.562 10.68-1.238 15.012-3.014 7.251-10.744 12.43-17.194 16.394-14.074 8.65-29.435 14.813-44.427 21.641-14.574 6.635-27.052 15.161-40.041 24.497-23.831 17.13-47.844 35.022-68.069 56.461-8.809-42.762 10.771-68.422 25.733-78.571 16.504-11.195 120.97-102.06 187.12-116.49-6.802 5.965-45.172 13.203-41.889 61.06" style="fill:#402312"/></g></g><g transform="translate(1401.1 642.42)"><path d="m0 0c3.069-4.137 7.413-6.906 11.859-8.901 14.555-6.531 39.273-20.703 51.728-12.115 4.608 3.178 60.898 33.156 61.471 75.376 0.081 5.971-6.244 34.708-11.021 38.411-3.415 2.647-16.392 13.713-32.02-2.866-5.903-6.262-11.253-8.869-9.864-16.249 1.402-7.445 15.552-11.337 0.776-23.469-2.811-2.309-5.452 7.875-9.133 7.713-3.684-0.162-9.453-1.203-9.786 2.797-0.149 1.794 1.277 7.863 1.912 9.422 4.041 9.906 2.523 6.739 6.479 16.454 2.243 5.508-31.085-37.585-48.37-57.166-5.85-6.627-19.978-21.392-14.031-29.407" style="fill:#fdf3d8"/></g><g transform="translate(1307.1 939.48)"><path d="m0 0c4.178 6.268 98.906 135.34 98.906 135.34s97.484 31.803 153.89 17.178c56.409-14.624 83.57-27.16 83.57-27.16s-133.71 22.982-227.73-29.249c-37.473-20.819-108.64-96.106-108.64-96.106" style="fill:#fdf3d8"/></g><g transform="translate(843.14 538.82)"><path d="m0 0c-91.744 170.84-344.05 220.92-339.31 26.691 6.268-256.97 188.33-462.44 273.29-433.88 10.021 3.368 16.217 30.49 26.464 32.732-11.143 73.124 5.571 109.34 66.856 143.46 54.321 46.66-6.595 192.43-27.305 231" style="fill:#eadab6"/></g><g clip-path="url(#clipPath939)" style="opacity:.10001"><g transform="translate(843.14 538.82)"><path d="m0 0c-91.744 170.84-344.05 220.92-339.31 26.691 6.268-256.97 188.33-462.44 273.29-433.88 10.021 3.368 16.217 30.49 26.464 32.732-11.143 73.124 5.571 109.34 66.856 143.46 54.321 46.66-6.595 192.43-27.305 231" style="fill:#402312"/></g></g><g clip-path="url(#clipPath955)" style="opacity:.2"><g transform="translate(639.59 341.95)"><path d="m0 0s81.829-34.821 118.04-45.964c36.214-11.142 75.213-15.321 75.213-15.321s-24.218-23.053-27.857-37.606c-2.437-9.75-60.087 17.381-93.32 32.035-44.222 19.5-72.079 66.856-72.079 66.856" style="fill:#402312"/></g></g><g transform="translate(720.72 146.26)"><path d="m0 0s45.964 59.195 89.838 49.446c43.874-9.75 48.053-50.143 48.053-50.143s4.132-20.912-36.91-22.981c-82.874-4.179-100.98 23.678-100.98 23.678" style="fill:#eadab6"/></g><g transform="translate(858.61 145.56)"><path d="M 0,0 C 0,0 -4.179,40.393 -48.053,50.142 -63.441,53.562 -79.078,48.489 -92.907,40.474 -56.894,46.038 -28.691,14 -16.601,-19.549 2.559,-13.048 0,0 0,0" style="fill:#fdf3d8"/></g><g transform="translate(1165.7 483.32)"><path d="m0 0c27.16-71.731 24.688-144.71-23.678-243.75-29.25-59.892-55.017-94.713-87.053-91.927-8.741 0.76-57.106 11.839-61.284 23.678 18.803 82.177-35.012 144.12-67.553 195.69-9.053 121.18 217.98 173.33 239.57 116.3" style="fill:#eadab6"/></g><g clip-path="url(#clipPath983)" style="opacity:.10001"><g transform="translate(1165.7 483.32)"><path d="m0 0c27.16-71.731 24.688-144.71-23.678-243.75-29.25-59.892-55.017-94.713-87.053-91.927-8.741 0.76-57.106 11.839-61.284 23.678 18.803 82.177-35.012 144.12-67.553 195.69-9.053 121.18 217.98 173.33 239.57 116.3" style="fill:#402312"/></g></g><g clip-path="url(#clipPath999)" style="opacity:.2"><g transform="translate(976.3 290.41)"><path d="m0 0s8.058-3.247 50.142 9.75c94.713 29.249 154.6 83.57 154.6 83.57s-41.785-65.463-123.96-100.28c-45.033-19.082-68.249-23.679-68.249-23.679z" style="fill:#402312"/></g></g><g transform="translate(1021.6 210.33)"><path d="m0 0s-25.768-6.268-44.571-27.857-12.535-33.428-12.535-33.428 16.714-25.767 55.017-20.196c38.303 5.572 63.373 25.768 63.373 25.768s-10.446 26.464-25.07 37.606c-14.625 11.143-36.214 18.107-36.214 18.107" style="fill:#eadab6"/></g><g transform="translate(998.88 200.48)"><path d="m0 0c-0.074-0.057-0.151-0.108-0.224-0.165 18.035-6.623 45.127-8.274 46.524-32.689 0.729-12.717-4.584-25.349-12.228-36.133 30.601 7.576 49.902 23.119 49.902 23.119s-10.447 26.464-25.071 37.607c-14.625 11.142-36.215 18.106-36.215 18.106s-10.335-2.52-22.688-9.845" style="fill:#fdf3d8"/></g><g transform="translate(812.88 144.15)"><path d="m0 0c-1.536 7.596-4.202 15.064-9.849 20.524-0.424 0.41-0.986-0.105-0.77-0.593 3.382-7.643 5.829-14.653 6.508-23.036 0.498-6.141-1.188-12.784 0.572-18.619 0.783-2.599 4.521-2.635 5.288 0 1.906 6.547-0.402 15.061-1.749 21.724" style="fill:#402312"/></g><g transform="translate(822.67 169.33)"><path d="m0 0c-1.166 0.804-2.725-0.781-1.943-1.943 3.744-5.564 7.613-10.886 10.731-16.846 3.916-7.486 4.327-15.572 7.345-23.17 1.176-2.961 5-2.381 5.386 0.729 1.788 14.411-10.064 33.332-21.519 41.23" style="fill:#402312"/></g><g transform="translate(841.98 170.72)"><path d="m0 0c-1.05 0.987-3.007-0.355-2.076-1.602 8.689-11.646 13.826-24.646 15.772-38.996 0.459-3.379 6.323-2.586 5.964 0.807-1.635 15.433-8.363 29.181-19.66 39.791" style="fill:#402312"/></g><g transform="translate(990.52 185.99)"><path d="m0 0c-13.443-8.339-26.652-26.66-25.674-43.182 0.193-3.257 5.03-4.199 5.868-0.793 1.991 8.096 2.478 15.32 6.293 23.035 3.702 7.484 9.8 13.126 14.753 19.701 0.561 0.746-0.509 1.693-1.24 1.239" style="fill:#402312"/></g><g transform="translate(995.78 156.73)"><path d="m0 0c1.726 7.808 4.662 15.365 7.71 22.738 0.266 0.645-0.759 1.241-1.186 0.691-6.747-8.69-10.513-18.134-12.638-28.917-1.277-6.478-4.645-20.01-0.416-25.464 2.262-2.916 6.734-0.31 6.797 2.816l9e-3 0.48c0.045 2.197-2.404 4.397-4.626 3.525 3.494 1.371 3.659 21.006 4.35 24.131" style="fill:#402312"/></g><g transform="translate(1022.3 152.94)"><path d="m0 0c5e-3 8.103 1.896 15.95 2.703 23.962 0.135 1.341-1.986 1.9-2.555 0.692-3.141-6.673-4.269-13.895-5.084-21.181-0.983-8.798-1.73-20.149 0.947-28.623 1.176-3.722 7.41-3.246 7.07 0.957-0.663 8.195-3.086 15.765-3.081 24.193" style="fill:#402312"/></g><g transform="translate(1309.2 715.93)"><path d="m0 0c0-244.9-123.78-432.45-457.52-435.59-238.5-2.239-350.74 160.36-372.91 404.25-21.936 241.3 0.024 1050.6 435.59 1056.1 247.56 3.134 394.85-779.83 394.85-1024.7" style="fill:#eadab6"/></g><g clip-path="url(#clipPath1051)" style="opacity:.2"><g transform="translate(1055.7 1257)"><path d="m0 0s56.893 34.045 82.177 64.071c33.428 39.695 45.964 66.856 45.964 66.856l9.75-36.214s4.875-7.661-34.821-43.178-103.07-51.535-103.07-51.535" style="fill:#402312"/></g></g><g clip-path="url(#clipPath1067)" style="opacity:.2"><g transform="translate(573.78 1440.9)"><path d="m0 0s8.357-81.481 66.856-125.36c58.499-43.875 150.43-64.767 150.43-64.767s-106.55 50.142-152.52 133.71c-32.92 59.854-37.607 121.18-37.607 121.18z" style="fill:#402312"/></g></g><g clip-path="url(#clipPath1083)" style="opacity:.5"><g transform="translate(1123.2 1270.3)"><path d="m0 0s87.749-90.534 129.53-238.87c36.686-130.23 48.053-319.66 48.053-319.66s-13.348 295.7-56.41 454.06c-43.178 158.78-52.232 164.36-52.232 164.36z" style="fill:#fdf3d8"/></g></g><g clip-path="url(#clipPath1099)" style="opacity:.7"><g transform="translate(1230.8 835.74)"><path d="m0 0c6.656-7.05 13.017-14.377 18.982-22.021-8.882 29.005-20.809 57.071-35.471 83.627-3.964 12.702-8.2 25.184-12.648 37.367 6.113-0.911 12.039-3.094 17.237-6.439-12.246 25.865-27.324 50.382-44.842 73.011-3.497 7.483-7.034 14.741-10.588 21.748 5.788-1.842 11.303-4.55 16.267-8.05-11.43 30.889-31.995 58.278-58.24 78.15-3.71 5.062-7.335 9.693-10.836 13.82-22.916 27.006-52.293 40.058-81.007 46.672-15.184 9.836-31.756 17.531-49.091 22.709 5.128-5.206 9.654-10.995 13.503-17.205-9.771 0.911-19.064 1.396-27.521 1.804-0.415 0.02-0.854 0.014-1.275 0.027-22.057 3.942-44.552 5.44-66.934 4.402 3.772-6.431 11.673-8.811 18.471-11.873 0.43-0.194 0.86-0.401 1.291-0.617-8.733-2.788-17.747-6.236-26.8-10.285-6.457 0.061-12.918-0.288-19.326-1.103-4.07-9.07-12.348-16.146-21.942-18.754 2.648 0.771 5.306 1.504 7.967 2.225-19.596-12.101-37.795-26.705-51.76-42.972-7.09-8.259-14.38-18.283-21.681-29.767-18.254-12.164-34.63-27.146-48.31-44.293 8.619 3.465 17.74 5.674 26.988 6.558-4.24-8.369-8.419-17.16-12.501-26.32-14.615-13.448-27.326-28.967-37.552-45.994 7.394 4.907 15.326 9.001 23.605 12.196-1.924-5.04-3.809-10.16-5.654-15.348-3.785-6.049-7.025-12.439-9.623-19.085 1.278 0.725 2.557 1.449 3.836 2.174-1.518-4.623-2.997-9.294-4.441-14.005-7.961-11.38-15.061-23.363-21.198-35.822 3.847 4.366 8.8 7.441 13.895 10.358-11.411-42.683-19.342-87.915-21.539-132.38-9.085-19.427-15.173-40.257-17.932-61.526 4.858 7.042 10.873 13.27 17.691 18.437 0.377-9.262 1.05-18.438 2.033-27.5-3.213-22.839-3.676-46.064-1.306-69.006 2.044 7.968 5.27 15.616 9.45 22.7 2.359-9.414 5.139-18.622 8.375-27.578 0.561-18.091 3.37-36.114 8.405-53.5 0.496 7.69 2.312 15.28 5.265 22.396 1.96-3.722 4.015-7.384 6.174-10.981 2.627-21.447 9.984-42.322 21.524-60.596-1.228 9.888-0.858 19.952 0.949 29.75 5.11-5.802 10.598-11.34 16.452-16.611 9.404-22.049 24.202-41.817 43.005-56.701-1.725 9.895-3.451 19.79-5.177 29.686 29.77-16.668 66.237-28.064 110.46-32.631-4.767-5.1-10.63-9.577-16.235-13.554 11.624-2.646 24.312-0.209 34.129 6.554-4.835-5.949-9.671-11.899-14.507-17.848 16.778 3.602 32.607 11.486 45.642 22.642 1.653 0.012 3.307 0.025 4.979 0.054-0.402-9.189-2.632-18.298-6.567-26.614 17.518 3.971 33.492 14.337 44.329 28.654 0.475 0.045 0.958 0.082 1.431 0.128-0.248-7.014-2.095-13.969-5.408-20.158 11.499 5.526 22.424 12.247 32.542 20.018-1.479-8.427-4.772-16.531-9.589-23.602 17.004 9.139 33.147 19.877 48.147 32.027-0.222-4.056-0.444-8.113-0.666-12.169 8.589 7.202 16.572 15.112 23.933 23.565 65.553 24.801 105.08 68.838 126.07 122.78 1.803-10.915 1.929-22.108 0.272-33.047 22.798 37.838 29.377 84.912 18.713 127.71 2.336 45.944-3.298 94.55-13.841 142.01" style="fill:#fdf3d8"/></g></g><g clip-path="url(#clipPath1115)" style="opacity:.10001"><g transform="translate(1287.2 607.3)"><path d="m0 0c-23.679-58.763-66.823-288.36-420.92-257-100.35 8.888-171.47 57.84-221.52 128.29-5.818-13.727-11.635-27.455-17.452-41.184 1.809 17.978 4.896 35.82 9.143 53.382-2.494 3.808-4.933 7.67-7.314 11.586-8.814-18.379-16.944-37.086-24.333-56.083 3.232 23.678 8.774 47.027 16.402 69.674-1.639 2.93-3.245 5.891-4.827 8.873-8.976-13.051-16.946-26.793-23.796-41.073 3.733 19.892 8.72 39.542 14.83 58.837-106.47 222.17-71.674 566.75-62.88 651.76 18.803 181.77 85.659 369.8 195.39 490.66-266.88-187.64-279.67-796.62-261.15-1000.4 22.172-243.89 134.42-406.49 372.91-404.25 311.93 2.929 440.43 166.97 455.9 388.35-5.567-20.719-12.256-41.2-20.39-61.386" style="fill:#402312"/></g></g><g transform="translate(563.33 1346.9)"><path d="m0 0s-161.12-34.36-257.57-107.55-201.64-202.27-205.65-216.15 24.238-95.001 123.47-98.231c99.232-3.229 337.26 124.93 350.19 137.8 12.934 12.868 87.749 27.16 89.838 142.07 2.273 125-100.28 142.07-100.28 142.07" style="fill:#eadab6"/></g><g clip-path="url(#clipPath1135)" style="opacity:.2"><g transform="translate(178.32 1077.2)"><path d="m0 0c32.743 19.228 88.951 19.083 125.66 8.733 20.032-5.648 39.604-12.713 59.5-18.793 8.1-2.476 89.123-81.73 258.35 37.357-22.982-37.606-299.01-182.81-398.25-179.58-74.437 2.423-105.75 53.877-115.06 85.299 12.823 36.695 27.385 39.305 69.798 66.984" style="fill:#402312"/></g></g><g clip-path="url(#clipPath1151)" style="opacity:.5"><g transform="translate(146.53 1064.1)"><path d="m0 0s31.858 39.615 91.416 45.418c59.559 5.803 79.371-8.141 79.371-8.141s8.005 25.782-79.31 31.958c69.714 97.078 298.21 193.75 298.21 193.75s-146.95-29.398-232.47-96.664-157.22-166.32-157.22-166.32" style="fill:#fdf3d8"/></g></g><g transform="translate(548.61 829.92)"><path d="m0 0s-45.508 67.749-118.69 145.93c-58.513 62.517-77.001 77.119-77.001 77.119s-96.765 25.574-141.55 13.592c-46.841-12.533-118.4-27.48-116.32-63.464 2.202-38.007 30.041-116.5 119.66-203.3s135.79-105.52 135.79-105.52 82.967-20.85 137.9 26.241c54.935 47.091 60.202 109.4 60.202 109.4" style="fill:#eadab6"/></g><g transform="translate(392.54 803)"><path d="m0 0s115.53 75.588 126.39 63.399c79.782-89.501 49.192-143.43 27.243-160.34-19.005-14.646-158.15-152.14-214.32-127.73-7.736 3.361-60.82 20.738-81.128 53.351-12.574 20.193-17.674 48.877-6.685 77.066 3.212 8.238 31.121 24.927 39.786 27.101 8.658 2.172 35.971-41.184 35.971-41.184s-45.244 39.919-23.387 53.853c21.589 13.764 96.123 54.488 96.123 54.488" style="fill:#eadab6"/></g><g transform="translate(383.98 621.66)"><path d="m0 0c-2.813-4.315-6.981-7.342-11.298-9.602-14.133-7.4-37.948-23.042-50.901-15.223-4.792 2.893-62.793 29.411-65.919 71.518-0.443 5.955 4.132 35.022 8.676 39.007 3.249 2.85 15.533 14.68 32.135-0.922 6.271-5.894 11.769-8.172 10.829-15.623-0.949-7.516-14.837-12.257 0.646-23.474 2.946-2.134 4.965 8.192 8.65 8.253 3.686 0.061 9.508-0.629 9.598 3.384 0.04 1.799-1.75 7.771-2.479 9.288-4.632 9.644-2.926 6.575-7.463 16.033-2.572 5.362 33.302-35.636 51.741-54.134 6.241-6.261 21.236-20.145 15.785-28.505" style="fill:#fdf3d8"/></g><g transform="translate(502.74 1317.6)"><path d="m0 0s97.007 4.159 119.09-73.124c25.071-87.748 2.089-129.53 2.089-129.53s54.584 59.11 33.428 135.8c-33.428 121.18-154.6 66.856-154.6 66.856" style="fill:#fdf3d8"/></g><g clip-path="url(#clipPath1183)" style="opacity:.10001"><g transform="translate(102.18 998.66)"><path d="m0 0c15.021-58.9 46.985-112.6 86.99-158.37 40.004-45.766 181.26-180.78 204.93-216.99-29.249 114.21-85.388 133.45-158.78 213.1-62.213 67.52-103.69 88.136-133.14 162.25" style="fill:#402312"/></g></g><g clip-path="url(#clipPath1199)" style="opacity:.5"><g transform="translate(398.97 617.38)"><path d="m0 0s144.86 105.86 149.03 118.39c4.179 12.536 9.75 43.178-2.785 51.535-12.536 8.357-119.78-98.891-119.78-98.891z" style="fill:#fdf3d8"/></g></g><g transform="translate(118.32 1025.1)"><path d="m0 0s50.142 39.696 135.8 35.517c85.66-4.178 106.55-18.803 106.55-18.803l158.26-175.45s-108.12 133.67-214.68 160.83c-62.858 16.023-185.94-2.089-185.94-2.089" style="fill:#fdf3d8"/></g><g transform="translate(1194.3 1781.4)"><path d="m0 0c0-28.269-22.917-51.187-51.187-51.187-28.269 0-51.186 22.918-51.186 51.187 0 28.27 22.917 51.187 51.186 51.187 28.27 0 51.187-22.917 51.187-51.187" style="fill:#d4c097"/></g><g transform="translate(1215.2 1514)"><path d="m0 0c0-168.46-141.92-291.66-312.69-287.62-170.77 4.038-305.73 133.78-305.73 302.24 0 90.823 42.471 196.75 107.94 257.68 55.971 52.078 127.84 65.79 214.5 69.641 89.567 3.981 173.08-40.258 234-104.46 51.535-54.321 29.25-118.39 29.25-118.39s32.731-77.68 32.731-119.09" style="fill:#eadab6"/></g><g clip-path="url(#clipPath1227)" style="opacity:.10001"><g transform="translate(1196.9 1505.3)"><path d="m0 0c-12.583-12.763-33.904-22.989-34.309-42.468-0.696-33.453-6.568-58.048-9.053-66.881-22.634-80.437-87.584-124.32-157.74-127.79-30.56-1.511-75.315 13.136-101.68 29.25-23.531 14.383-37.606 48.749-42.211 73.444-1.099 5.893-7.27 9.508-13.001 11.265-48.929 15.005-101.07 40.045-120.53 89.63-11.379 29.002-15.079 84.032 13.126 118.5-21.938 15.669-47.879 43.699-12.536 69.99 12.768 9.497 103.46 21.507 121.16 21.191 18.589-0.332 37.31-2.085 55.886-0.591 9.806 0.788 19.73 2.276 28.987 5.747 7.514 2.817 202.42 11.955 219.83 13.348 4.987 0.399-17.385 40.977-27.509 48.401-16.836 12.347-68.945 26.812-86.356 1.045-46.958-3.986-88.768-6.91-96.453-6.268-16.689 1.395-55.177 6.512-71.732 4.875-23.539-2.327-60.817-44.588-84.266-38.651-9.526 2.411-20.264 9.371-26.116 17.758-31.339 44.92 32.392 86.937 49.357 97.234 21.346 12.956 45.352 21.497 69.43 27.781 0.742 0.194 1.491 0.377 2.235 0.568-66.48-6.855-122.93-23.773-168.73-66.386-65.475-60.921-107.94-166.85-107.94-257.68 0-168.46 134.96-298.21 305.73-302.24 170.77-4.038 312.69 119.16 312.69 287.62 0 4.909-0.472 10.337-1.283 16.074-4.5-9.171-10.082-17.763-16.988-24.767" style="fill:#402312"/></g></g><g clip-path="url(#clipPath1243)" style="opacity:.10001"><g transform="translate(848.16 1378.2)"><path d="m0 0c-66.43 18.483-115.82 57.988-129.78 93.555-11.379 29.002-15.079 84.032 13.126 118.5-1.139 0.814-143.81-154.95 99.936-230.17 25.071-57.106 72.427-100.28 158.78-96.106-121.18 15.322-126.75 73.821-142.07 114.21" style="fill:#402312"/></g></g><g transform="translate(692.86 1760.6)"><path d="m0 0s2.089 78.347-59.544 67.901c-69.373-11.758-47.094-96.766-43.874-107.6 11.491-38.651 54.321-37.606 54.321-37.606z" style="fill:#d4c097"/></g><g transform="translate(709.58 1642.5)"><path d="m0 0s12.535 20.893 74.169 25.071c61.632 4.179 92.971-7.312 92.971-7.312s-76.577-23.344-106.55-28.205c-77.302-12.536-60.588 10.446-60.588 10.446" style="fill:#fdf3d8"/></g><g transform="translate(1083.6 1680.1)"><path d="m0 0s11.491 15.669 40.74 14.625c29.25-1.045 35.518-3.134 35.518-3.134s9.303-2.937-8.357 32.384c-15.67 31.339-21.938 40.74-21.938 40.74s45.481-40.061 51.187-71.035c7.313-39.695 1.045-50.142 1.045-50.142s-12.536 26.116-43.874 31.339c-31.339 5.223-54.321 5.223-54.321 5.223" style="fill:#fdf3d8"/></g><g clip-path="url(#clipPath1271)" style="opacity:.2"><g transform="translate(1196.9 1505.3)"><path d="m0 0-32.568-33.788s-3.482-52.231-10.794-75.561 24.723 29.597 24.723 61.633c0 8.472 18.639 47.716 18.639 47.716" style="fill:#402312"/></g></g><g clip-path="url(#clipPath1287)" style="opacity:.39999"><g transform="translate(1173.3 1787.6)"><path d="m0 0c1.531-4.49 1.329-9.41 1.159-14.085-0.237-6.479-1.758-12.855-4.51-18.725-0.11-0.233-0.217-0.462-0.322-0.688-2.409-5.146-9.458-6.24-13.07-1.854-5.342 6.489-15.597 11.116-19.185 18.616-3.794 7.93-2.017 18.256 4.419 24.245 6.437 5.99 17.091 6.95 24.333 1.965 3.319-2.285 5.875-5.66 7.176-9.474" style="fill:#402312"/></g></g><g clip-path="url(#clipPath1303)" style="opacity:.39999"><g transform="translate(663.55 1745.6)"><path d="m0 0c-0.536 6.823-2.454 13.534-5.604 19.61-3.163 6.102-8.431 12.029-15.295 12.38-3.161 0.161-6.284-0.914-9.031-2.488-12.522-7.181-16.782-23.493-15.763-37.893 0.675-9.538 3.224-19.132 8.707-26.966 5.483-7.835 14.151-13.725 23.681-14.508 7.252 15.819 14.669 32.516 13.305 49.865" style="fill:#402312"/></g></g><g clip-path="url(#clipPath1319)" style="opacity:.2"><g transform="translate(894.48 1405.4)"><path d="m0 0s27.866-61.117 82.525-69.99c53.625-8.705 112.82 19.848 124.31 27.16 11.491 7.313 17.758 18.804 17.758 18.804s-4.01-60.556-95.409-74.169c-65.463-9.75-100.28 12.536-114.21 27.857-28.682 31.55-14.973 70.338-14.973 70.338" style="fill:#402312"/></g></g><g transform="translate(940.09 1388)"><path d="m0 0s14.091-37.255 96.106-26.464c52.928 6.964 57.956 17.183 68.249 30.643 18.107 23.678-26.464 44.57-26.464 44.57s-27.857 12.536-103.07-12.535c-53.069-17.69-34.821-36.214-34.821-36.214" style="fill:#fdf3d8"/></g><g transform="translate(948.5 1749.4)"><path d="m0 0c-12.07-4.357-23.992-9.252-35.549-14.839-11.038-5.336-12.888-12.488-15.312-23.958-2.835-13.412-4.916-26.965-6.741-40.548-2.093-15.585-4.952-32.402-3.793-48.125 0.203-2.749 4.542-3.739 5.098-0.69 4.3 23.601 4.484 48.097 8.471 71.876 1.759 10.499 1.967 26.707 8.881 35.325 3.701 4.614 13.233 7.894 18.459 10.619 6.712 3.5 13.775 6.47 20.747 9.395 0.565 0.238 0.345 1.164-0.261 0.945" style="fill:#402312"/></g><g transform="translate(846.07 1552.3)"><path d="m0 0s-20.358 24.815-0.697 46.66c18.804 20.892 46.828 22.237 46.828 22.237s1.922 96.154 15.154 105.9 51.535 28.553 75.213 28.553 35.646 0.764 35.646 0.764 30.514-14.692 36.781-34.888c6.268-20.197 20.893-70.339 19.5-82.178s25.071-4.875 40.392-22.981c15.321-18.108 27.161-45.964 18.803-59.196-8.356-13.232-30.642-16.714-30.642-16.714s4.179 29.249-7.66 36.214c-11.84 6.964-28.553 5.571-28.553 5.571s16.017-34.125-1.393-35.517c-17.411-1.393-29.25 14.624-44.571 10.446-15.321-4.179-51.535-25.071-72.428-20.196-20.892 4.875-34.82 13.232-28.553 26.464 6.268 13.232 11.143 25.071 11.143 25.071s-34.124 0-52.231-19.5c-16.32-17.575-13.929-29.249-13.929-29.249z" style="fill:#fdf3d8"/></g><g transform="translate(1062 1512.6)"><path d="m0 0c-3.076-23.841-18.125-46.66-47.356-46.66-29.232 0-59.892 27.16-60.589 43.178-1.044 24.016 17.411 26.464 54.321 32.035 28.904 4.363 56.41-6.964 53.624-28.553" style="fill:#eee4cb"/></g><g transform="translate(1078 1575.6)"><path d="m0 0c-1.253 0.499-2.54-1.226-1.77-2.302 2.335-3.258 4.794-6.436 7.099-9.717-0.191-0.341-0.35-0.715-0.434-1.157-1.65-8.693-5.275-15.074-12.739-20.066-9.459-6.325-19.286-2.802-28.957 0.622-3.712 1.314-7.476 2.179-11.265 2.732 3.685 10.18 3.725 21.666 2.506 32.424 11.759 9.625 36.991 30.25 38.59 31.316 2.09 1.393 8.357 13.232 8.357 29.249 0 13.237-3.332 31.204-8.025 40.983-1.746 13.841-7.633 28.255-14.092 40.214-8.537 15.804-24.109 27.234-39.038 36.565-1.264 0.79-2.502-0.963-1.543-1.999 11.852-12.801 26.283-22.371 35.154-37.738 5.045-8.74 7.359-18.297 10.039-27.739-6.139 2.342-14.994 2.147-29.851 2.642-20.893 0.697-67.552-2.089-67.552-2.089s-21.589-16.018-15.322-63.374c3.097-23.398 51.479-43.479 70.079-50.373-0.043-3.944 0.773-7.921 0.872-11.911 0.144-5.783-0.774-11.644-0.521-17.414-9.543-0.025-19.132-1.806-28.42-4.284-19.371-5.17-38.085-15.943-58.759-12.488-17.571 2.936-26.45 19.491-39.23 29.713 5.445 6.255 12.373 8.804 19.663 12.194 0.894 0.416 0.727 2.05-0.287 2.193-8.334 1.177-16.752-3.693-22.653-9.172-5.959-5.531-12.858-16.344-10.915-24.79 0.499-2.167 3.986-2.813 4.968-0.649 1.326 2.925 1.601 6.085 2.575 9.156 0.706 2.225 1.797 4.325 3.07 6.308 6.776-14.249 19.431-25.75 33.928-31.818 21.432-8.97 46.075 3.387 66.402 9.619 13.579 4.164 27.707 6.273 41.763 3.537 9.779-1.904 18.454-7.688 28.773-6.301 13.172 1.771 24.865 10.762 29.069 23.112 1.163-2.288 2.395-4.529 4.007-6.541 2.044-2.551 6.508-0.429 6.353 2.632-0.575 11.332-11.847 22.716-21.894 26.711" style="fill:#402312"/></g><g transform="translate(992.02 1639.7)"><path d="m0 0c-0.358 0.41-0.901 0.596-1.419 0.763-9.206 2.956-18.683 5.067-28.273 6.299-0.511-6.637 3.692-12.612 7.691-17.934 8.714-11.592 18.008-23.658 31.268-29.531-5.871 11.83-8.903 25.057-8.773 38.263 8e-3 0.75-1e-3 1.575-0.494 2.14" style="fill:#1a1a1a"/></g><g transform="translate(1042.2 1600.6)"><path d="m0 0c12.301 11.302 20.1 27.375 21.365 44.032 2.772 0.09 5.302-1.83 6.711-4.219 1.409-2.388 1.903-5.193 2.32-7.934 0.28-1.847 0.537-3.726 0.27-5.575-0.36-2.496-1.646-4.751-2.94-6.916-3.386-5.669-7.484-11.592-13.774-13.602-3.932-1.256-8.652-0.975-11.568-3.897 0.947 2.303-4.217-3.573-2.384-1.889" style="fill:#1a1a1a"/></g><g transform="translate(1068.3 1676.9)"><path d="m0 0c-0.846 2.282-1.905 4.601-3.803 6.123-2.431 1.949-5.757 2.236-8.868 2.405-26.428 1.437-53.002 0.181-79.177-3.741-7.092-1.062-15.845-4.07-16.336-11.225 34.057-2.381 68.253-1.228 102.37-0.075 3.909-5.792 6.993-12.139 9.13-18.792 0.806 8.541-0.338 17.261-3.32 25.305" style="fill:#fff"/></g><g clip-path="url(#clipPath1367)" style="opacity:.3"><g transform="translate(912.24 1547.5)"><path d="m0 0c5.692-3.535 11.578-7.145 18.191-8.224 6.115-0.998 18.213-2.096 24.281-0.85 17.336 3.56 28.806 9.47 46.143 13.03 1.471 0.302 3 0.63 4.184 1.554 1.035 0.807 1.699 1.99 2.277 3.169 2.456 5.009 3.662 11.455 0.236 15.858-2.767 3.556-7.583 4.59-11.876 5.958-10.466 3.335-19.583 9.838-28.507 16.243-5.018 3.601-10.158 7.329-13.484 12.533-3.368 5.272-4.582 11.607-5.44 17.804-1.734 12.535-2.155 25.897 3.523 37.206 17.653-6.007 36.116-9.626 54.731-10.728 0.719-7.539 1.493-15.276 4.884-22.048 3.392-6.771 10.038-12.461 17.611-12.452 10.588 0.014 17.798 10.15 24.797 18.095 2.541 2.885 5.591 5.758 9.412 6.188 6.843 0.77 12.077-7.226 11.082-14.041-0.995-6.814-6.075-12.242-11.168-16.876-9.261-8.424-19.62-16.089-26.044-26.833-6.425-10.745-7.725-25.906 0.987-34.895 8.847-9.129 24.712-7.971 34.897-0.364 2.029 1.516 3.915 3.259 5.357 5.342 5.383 7.776 2.723 19.892-5.423 24.698 8.269 3.838 18.881 1.823 25.167-4.779 6.287-6.601 7.781-17.299 3.544-25.37-0.366 3.299-0.805 6.782-2.837 9.406-2.032 2.625-6.247 3.853-8.714 1.632-1.082-0.975-1.626-2.394-2.236-3.717-5.024-10.889-17.439-17.865-29.352-16.492-2.366-1.036-0.908-4.744-1.923-7.119-1.418-3.315-4.472-6.896-7.811-5.537-11.584 4.709-25.806 6.659-38.304 6.267-9.499-0.297-29.917-4.009-36.91-10.446-11.503-10.59-6.045-23.63 4.875-34.821s46.63-19.38 61.285-13.928c-2.649-5.777-24.983-9.02-31.339-9.054-18.351-0.096-40.118 3.043-51.535 17.411-9.059 11.401-11.121 27.935-10.446 42.482-22.054-5.772-41.455 9.572-53.068 29.189-0.66 1.114-1.403 2.353-2.651 2.698-1.844 0.51-3.507-1.2-4.57-2.791-4.283-6.407-6.871-13.936-7.431-21.622-6.048 6.582-6.514 16.922-3.181 25.217 3.332 8.294 9.825 14.894 16.605 20.72 3.942 3.387 8.153 6.659 13.095 8.272 4.941 1.612 10.791 1.296 14.81-1.999-5.146-2.205-10.412-4.488-14.466-8.35s-6.707-9.699-5.27-15.11c1.524-5.735 6.971-9.395 12.012-12.526" style="fill:#1a1a1a"/></g></g><g clip-path="url(#clipPath1383)" style="opacity:.5"><g transform="translate(1049.2 1498.9)"><path d="m0 0c-0.611-5.248-2.261-10.374-4.826-14.993 6.798 3.844 11.546 11.103 12.346 18.872 0.8 7.768-2.37 15.842-8.241 20.991-8.941 7.841-22.141 8.188-33.932 6.641-9.579-1.256-19.03-3.485-28.162-6.641-3.274-1.131-6.62-2.454-9.027-4.947-3.441-3.565-4.328-8.809-5.054-13.711 1.743 1.579 3.763 2.849 5.94 3.736-2.408-1.576-3.821-4.553-3.522-7.416 6.238 4.224 14.01 5.317 21.479 6.299 9.013 1.185 18.025 2.37 27.038 3.555 5.8 0.763 11.7 1.525 17.473 0.582 2.063-0.337 4.169-0.931 5.742-2.307 2.877-2.516 3.188-6.865 2.746-10.661" style="fill:#fff"/></g></g><g clip-path="url(#clipPath1399)" style="opacity:.5"><g transform="translate(852.35 1604)"><path d="m0 0c-6.904-6.062-10.269-15.632-9.625-24.798 0.643-9.165 5.03-17.849 11.334-24.534-2.099 6.798-1.118 14.239 1.286 20.936 5.691 15.851 19.609 28.488 35.935 32.626-3.948 4.968-10.639 7.602-16.914 6.657-3.576-0.539-6.897-2.126-10.149-3.709-4.17-2.03-8.382-4.118-11.867-7.178" style="fill:#fff"/></g></g><g clip-path="url(#clipPath1415)" style="opacity:.5"><g transform="translate(1103.9 1597)"><path d="m0 0c11.617-10.248 16.058-27.87 10.686-42.399-0.209-0.564-0.421-1.231-0.087-1.731 0.454-0.68 1.493-0.489 2.25-0.177 10.397 4.279 15.951 16.271 15.905 27.515-0.022 5.544-1.201 11.169-4.043 15.93s-7.453 8.584-12.853 9.842c-2.719 0.633-11.805-11.771-11.858-8.98" style="fill:#fff"/></g></g><g clip-path="url(#clipPath1431)" style="opacity:.5"><g transform="translate(936.05 1742.2)"><path d="m0 0c-9.292-3.634-19.326-9.114-21.807-18.778 12.619 0.853 25.237 1.707 37.856 2.56-3.082-2.446-6.403-6.846-3.758-9.76 0.607-0.668 1.442-1.085 2.287-1.403 5.136-1.934 10.835-0.673 16.311-0.315s11.852-0.728 14.625-5.465c-6.126-2.913-11.199-7.988-14.11-14.117 28.409-2.677 57.068-2.7 85.481-0.067 1.742 0.879 1.747 3.336 1.409 5.258-2.558 14.541-10.493 28.074-21.932 37.409-6.683 5.453-15.031 10.232-17.37 18.535-26.902 0.685-53.93-4.057-78.992-13.857" style="fill:#fff"/></g></g><g transform="translate(891.47 1693.2)"><path d="m0 0c-0.124-4.764-0.059-11.243-3.606-12.773-7.104-3.065-19.683-4.785-32.383-6.616-19.213-2.768-44.805 0.697-51.536 0.697-18.803 0-44.57-6.616-44.57-6.616s5.223 11.142 41.398 13.456c8.005 0.512 7.003 0.298 7.003 0.298s-4.034 18.966-2.096 37.115c2.618 24.518 31.162 39.938 49.64 41.121s22.101-0.164 22.101-0.164-17.384-2.725-21.697-4.736c-4.312-2.01-6.954-3.299-6.954-3.299s16.354 0.791 23.238-3.479c22.82-14.152 19.462-55.004 19.462-55.004" style="fill:#402312"/></g><g transform="translate(886.12 1694)"><path d="m0 0c-1.607-4.825-5.854-8.197-10.795-9.402-8.655-2.11-24.899-5.792-32.059-5.739-11.05 0.082-25.112 5.207-25.112 5.207s-20.164 55.1 25.26 62.165c45.423 7.065 42.812-43.386 42.812-43.386z" style="fill:#fdf3d8"/></g></g><g clip-path="url(#clipPath1455)"><g transform="translate(804.23 1707.6)"><path d="m0 0c3.81-16.386 20.607-26.678 37.518-22.986 16.911 3.691 27.532 19.968 23.722 36.354s-20.607 26.677-37.518 22.986-27.532-19.968-23.722-36.354" style="fill:#fff9f0"/></g><g transform="translate(810.51 1711)"><path d="m0 0c3.915-17.261 21.18-28.101 38.56-24.213 17.381 3.889 28.297 21.033 24.381 38.294-3.915 17.26-21.179 28.1-38.56 24.212-17.38-3.889-28.296-21.033-24.381-38.293" style="fill:#29a9e1"/></g><g transform="translate(823.91 1714)"><path d="M 0,0 C 2.249,-9.913 12.164,-16.139 22.146,-13.905 32.128,-11.672 38.397,-1.826 36.149,8.087 33.9,18 23.985,24.226 14.003,21.992 4.021,19.759 -2.249,9.913 0,0" style="fill:#1a1a1a"/></g><g transform="translate(860.94 1729.7)"><path d="m0 0c3.96-5.748 3.545-12.367-0.927-14.781-4.472-2.416-11.307 0.286-15.267 6.035-3.96 5.748-3.545 12.366 0.927 14.781 4.472 2.416 11.307-0.287 15.267-6.035" style="fill:#fff"/></g><g transform="translate(872.92 1740.1)"><path d="m0 0c4.772-6.928 4.272-14.903-1.117-17.814-5.39-2.911-13.627 0.346-18.399 7.273-4.772 6.928-4.272 14.904 1.117 17.815 5.39 2.91 13.627-0.346 18.399-7.274" style="fill:#fff"/></g></g><g clip-path="url(#clipPath1483)"><g transform="translate(1116 1702.3)"><path d="m0 0c-4.498-0.197-5.472-0.301-5.649-0.347 0.03 0.309 1.601 16.651-1.465 31.807-4.181 20.67-28.422 31.25-43.369 30.597s-17.743-2.128-17.743-2.128 14.199-0.76 17.834-2.086 5.867-2.188 5.867-2.188-13.206-0.797-18.376-5.056c-4.714-3.884-7.658-9.316-9.459-15.146 12.45-11.292 21.526-29.766 24.814-46.627 1.402-0.059 2.813-0.115 4.23-0.172 15.67-0.633 35.94 4.623 41.347 5.229 15.108 1.691 36.372-1.632 36.372-1.632s-5.141 9.031-34.403 7.749" style="fill:#402312"/></g><g transform="translate(1076.2 1753.8)"><path d="m0 0c-18.377 0.96-26.078-9.056-29.179-19.408 9.337-9.95 16.427-23.874 20.055-37.426 5.746-0.601 11.626-0.998 14.954-0.598 8.871 1.063 19.734 6.698 19.734 6.698s11.531 48.795-25.564 50.734" style="fill:#fdf3d8"/></g></g><g clip-path="url(#clipPath1499)"><g transform="translate(1111 1724.4)"><path d="m0 0c-1.672-14.315-14.296-24.6-28.196-22.974-13.9 1.627-23.813 14.549-22.141 28.864s14.295 24.6 28.196 22.974c13.9-1.627 23.813-14.549 22.141-28.864" style="fill:#fff9f0"/></g><g transform="translate(1036.6 1723.9)"><path d="m0 0c3.512-15.484 19-25.209 34.592-21.721 15.592 3.489 25.385 18.869 21.872 34.353-3.512 15.484-19 25.209-34.592 21.721s-25.385-18.869-21.872-34.353" style="fill:#29a9e1"/></g><g transform="translate(1048.6 1726.6)"><path d="m0 0c2.017-8.893 10.912-14.478 19.867-12.474 8.955 2.003 14.579 10.836 12.562 19.729s-10.912 14.478-19.867 12.474c-8.955-2.003-14.579-10.836-12.562-19.729" style="fill:#1a1a1a"/></g><g transform="translate(1081.8 1740.6)"><path d="m0 0c3.552-5.157 3.18-11.094-0.832-13.261-4.011-2.166-10.143 0.258-13.695 5.415-3.553 5.157-3.18 11.094 0.831 13.261 4.012 2.166 10.144-0.258 13.696-5.415" style="fill:#fff"/></g><g transform="translate(1092.6 1750)"><path d="m0 0c4.281-6.215 3.832-13.37-1.003-15.981-4.834-2.611-12.224 0.31-16.505 6.525s-3.832 13.37 1.003 15.981c4.834 2.611 12.224-0.31 16.505-6.525" style="fill:#fff"/></g></g><g clip-path="url(#clipPath1527)"><g transform="translate(1009.4 1808.6)"><path d="m0 0s-9.402-37.607-1.567-45.963c7.835-8.358 24.549 2.089 67.901-2.09 15.51-1.495 30.294-8.879 31.861-8.879s22.982 17.759 9.401 33.428c-9.305 10.737-32.809 27.696-57.454 31.861-37.084 6.268-50.142-8.357-50.142-8.357" style="fill:#603a17"/></g><g clip-path="url(#clipPath1539)" style="opacity:.3"><g transform="translate(1005.6 1794.5)"><path d="m0 0s-13.58-26.638 12.71-40.218c12.125-6.264 29.423 2.96 47.53-1.567s40.218-9.924 40.218-9.924 7.835 2.612 10.62 9.924c2.786 7.312 2.09 14.276 2.09 14.276l-5.223 3.831-5.223-12.188 1.741 15.322-7.313 3.83-7.312-10.795 4.178 12.536-8.705-10.794 4.527 13.58-9.75 6.616-6.964-10.447 1.741 14.277-7.313-11.491 4.527 14.625s-9.75-14.625-9.401-13.58c0.348 1.044-1.045 6.964-1.045 6.964l3.134 10.098-13.58 2.089-3.134-9.053-0.348 9.053-11.84 1.393-3.133-12.884-4.179 12.884-8.705-1.393s0-13.232 0.348-11.839-2.437 11.491-2.437 11.491l-2.786-12.884s-1.393 14.277-1.741 12.884-13.232-6.616-13.232-6.616"/></g></g><g clip-path="url(#clipPath1555)" style="opacity:.39999"><g transform="translate(1011.1 1805.8)"><path d="m0 0-2.089-7.313 8.008 6.616 1.742-8.705 3.83 10.795 2.089-7.313 1.044 6.616 8.358 0.697 3.134-12.884 2.437 14.625 14.277-1.393-0.697-12.884 4.527 13.232 14.624-5.223-3.481-14.973 8.357 13.58-2.09-11.839 6.268 9.402-1.741-14.277 6.268 12.884 10.446-8.357-3.482-14.625 8.357 11.491s-3.482-12.535-2.786-10.795c0.697 1.742 6.268 9.054 6.268 9.054l6.616-5.223-2.089-10.447 4.875 8.706 3.83-4.527 0.696-3.134 0.348-4.527s3.831 8.009-4.178 17.411c-8.009 9.401-33.08 29.249-61.633 31.339-28.553 2.089-42.133-8.009-42.133-8.009" style="fill:#e7b763"/></g></g><g transform="translate(788.27 1725.7)"><path d="m0 0s38.999 22.982 66.856 22.285c27.857-0.696 48.749-0.348 48.749-0.348s12.188 14.277 12.188 29.25-3.83 23.678-3.83 23.678-30.295 20.544-86.704 5.92c-56.41-14.625-59.892-43.178-59.892-43.178s-6.616-21.938 4.178-34.821c10.794-12.884 18.455-2.786 18.455-2.786" style="fill:#603a17"/></g><g clip-path="url(#clipPath1575)" style="opacity:.3"><g transform="translate(831.7 1767.4)"><path d="m0 0c-2.912 8.167-8.533 15.341-15.766 20.122l4.108-23.66c-2.517 7.493-6.81 14.386-12.433 19.944-7.196-4.965-5.408-3.732-12.604-8.697 3.163-6.82 5.52-14.014 7.003-21.384-1.192 4.996-5.216 9.212-10.151 10.635l-3.1 5.798c-1.693-1.614-4.164-2.372-6.47-1.986l3.567-22.047c-3.876 0.219-7.811-0.726-11.166-2.681-0.636 6.157-0.048 12.438 1.722 18.37-4.992 0.315-7.213 7.13-9.898 2.91-2.686-4.219-6.123-19.31-6.319-24.308-0.307-7.811 1.034-15.664 3.809-22.971 3.86-10.162 16.71-13.482 25.067-6.531 13.601 11.313 28.286 21.255 45.273 25.545 16.697 4.217 34.152 5.875 49.538-0.268 5.451-2.177 11.654-1.204 16.01 2.729 4.721 4.263 8.997 8.271 12.199 14.775-1.466-2.458-5.575-1.701-7.167 0.677-1.591 2.379 1.408 15.935 2.092 24.281-4.092 1.837-10.93 8.835-15.321 9.75-2.961-8.206-3.451-13.343-4.041-22.046-7.118 5.906-6.145 16.903-4.532 26.011-3.426 2.305-7.607 3.467-11.731 3.262-0.325-6.874-1.19-13.723-2.583-20.463-1.537 3.959-2.458 8.157-2.721 12.396-0.118 1.895-0.146 3.93-1.25 5.475-3.473 4.865-11.512-0.542-17.057 1.689l2.201-25.858c-1.588 8.719-4.312 17.232-8.08 25.253-1.115-1.16-1.761-2.758-1.764-4.367-3.439 0.786-7.005 1.016-10.516 0.679z"/></g></g><g clip-path="url(#clipPath1591)" style="opacity:.39999"><g transform="translate(906.25 1786.2)"><path d="m0 0c-3.962 3.584-8.83 6.159-14.022 7.418l3.546 7.053c-4.343-1.661-7.429-5.705-9.039-10.067-1.611-4.363-1.95-9.075-2.275-13.714-2.126 7.534-3.038 14.693-0.079 21.94-4.058 2.261-5.964 2.432-10.446 3.656-2.761-5.568-5.552-8.964-6.16-15.149-0.158 4.579-0.994 7.436-1.152 12.015-6.418 2.63-10.608 2.039-17.236 0-0.804-5.206-3.196-7.902-2.254-13.086-0.981 5.409-2.511 8.722-3.492 14.131-2.01-0.778-3.07-0.601-5.223-0.522 0.798-1.261 0.223-1.434-0.598-2.68-1.251 2.278-2.043 2.38-4.625 2.68-0.347-1.2-1.22-1.935-1.567-3.134-1.57 0.699-2.609-0.178-4.179 0.522-0.137-7.369-0.219-12.143 2.826-18.855-1.153 4.229-10.623 19.102-14.962 19.725 0.73-1.473-0.922-3.454-2.501-2.999 1.665-4.87 3.33-9.741 4.995-14.611-1.426 5.879-3.292 7.347-8.116 10.995-1.408-2.985-14.088-6.008-14.625-8.88s-0.421-2.639 1.181-5.082c1.602-2.444 3.378-5.032 3.339-7.954-3.28-0.32-5.356 3.373-6.389 6.503s-0.591 3.659-3.876 3.922c-0.325-1.829-8.706-2.438-9.171-0.479-0.978-7.188-0.584-14.56 1.152-21.604-2.403 5.5-4.458 11.152-6.148 16.911-0.905-1.006-0.956-2.671-0.116-3.73-2.406 1.643-0.89 5.432 1.028 7.625 9.864 11.279 29.764 21.106 44.245 24.955 27.2 7.23 51.152 6.375 78.455-0.454 3.207-0.802 6.496-1.809 8.953-4.02 2.476-2.226 3.831-5.433 4.79-8.622 3.18-10.57 2.462-22.95-4.567-31.463 1.917 11.021 2.079 22.344 0.478 33.415-0.723-2.121-1.447-4.241-2.17-6.361" style="fill:#e7b763"/></g></g></g></g></g></svg>
