<?xml version="1.0" encoding="UTF-8"?>
<svg width="100mm" height="114mm" version="1.1" viewBox="0 0 100 114" xmlns="http://www.w3.org/2000/svg" xmlns:xlink="http://www.w3.org/1999/xlink"><defs><linearGradient id="a"><stop stop-color="#02e2ff" offset="0"/><stop stop-color="#0079a8" offset="1"/></linearGradient><linearGradient id="e" x1="37.276" x2="55.954" y1="25.293" y2="48.402" gradientTransform="scale(.78657 1.2713)" gradientUnits="userSpaceOnUse" xlink:href="#a"/><radialGradient id="d" cx="49.978" cy="11.178" r="11.971" gradientTransform="scale(.99987 1.0001)" gradientUnits="userSpaceOnUse" xlink:href="#a"/><radialGradient id="c" cx="16.434" cy="49.47" r="4.0208" gradientUnits="userSpaceOnUse" xlink:href="#a"/><radialGradient id="b" cx="8.1286" cy="79.793" r="5.9592" gradientTransform="scale(.90044 1.1106)" gradientUnits="userSpaceOnUse" xlink:href="#a"/><radialGradient id="radialGradient881" cx="81.516" cy="33.923" r="4.0208" gradientUnits="userSpaceOnUse" xlink:href="#a"/><radialGradient id="radialGradient883" cx="51.112" cy="105.07" r="5.7273" gradientTransform="scale(1.2573 .79535)" gradientUnits="userSpaceOnUse" xlink:href="#a"/></defs><g transform="translate(-33.155 -78.982)"><g transform="translate(-28.026 54.693)"><g transform="matrix(1.2183 0 0 1.2334 54.614 16.617)"><path d="m42.79 18.193c0 6.6088 5.3621 11.972 11.969 11.972s11.969-5.3636 11.969-11.972-5.3621-11.972-11.969-11.972-11.969 5.3636-11.969 11.972z" style="fill-rule:evenodd;fill:url(#d)"/><path d="m82.563 38.837c-7.7247 15.165-24.618 6.4907-32.775-6.7997-15.753-7.0575-32.489-1.2827-31.76 17.134" style="fill:none;stroke-width:2.5;stroke:#00007f"/><path d="m63.179 87.771c-1.3878-6.6224 0.15413-17.202-0.35441-21.044-4.0135 0.69432-12.139 0.49881-22.966 4.3368-7.3164 9.6746-16.517 18.622-26.398 18.53" style="fill:none;stroke-width:2.5;stroke:#00007f"/><path d="m33.078 48.827c-1.7997 11.045-1.2982 20.329 8.3892 21.908 8.7199 1.2022 13.11-7.0663 14.91-18.112s1.514-20.076-8.3892-21.908c-9.6526-1.7912-13.11 7.0663-14.91 18.112z" style="fill-rule:evenodd;fill:url(#e)"/><path d="m79.972 36.208c0 2.07 1.68 3.75 3.75 3.75s3.75-1.68 3.75-3.75-1.68-3.75-3.75-3.75-3.75 1.68-3.75 3.75z" style="fill-rule:evenodd;fill:url(#radialGradient881)"/><path d="m61.726 87.903c0.43782 2.0232 3.5298 3.0729 6.9018 2.3432s5.7533-2.9639 5.3154-4.9871-3.5298-3.0729-6.9018-2.3432-5.7533 2.9639-5.3154 4.9871z" style="fill-rule:evenodd;fill:url(#radialGradient883)"/><path d="m13.292 87.689c-1.7556-1.0967-4.6639 0.38793-6.4918 3.3139s-1.8865 6.1908-0.13089 7.2875 4.6639-0.38793 6.4918-3.3139 1.8865-6.1908 0.13089-7.2875z" style="fill-rule:evenodd;fill:url(#b)"/><path d="m14.89 51.755c0 2.07 1.68 3.75 3.75 3.75s3.75-1.68 3.75-3.75-1.68-3.75-3.75-3.75-3.75 1.68-3.75 3.75z" style="fill-rule:evenodd;fill:url(#c)"/></g></g></g></svg>
