<?xml version="1.0" encoding="UTF-8"?>
<svg width="90.002mm" height="77.659mm" version="1.1" viewBox="0 0 90.002 77.659" xmlns="http://www.w3.org/2000/svg"><defs><filter id="f"><feGaussianBlur stdDeviation="2.7425"/></filter><filter id="e"><feGaussianBlur stdDeviation="2.96695"/></filter><filter id="d"><feGaussianBlur stdDeviation="3.26656"/></filter><linearGradient id="c" x1="470.09" x2="653.5" y1="286.65" y2="471.14" gradientUnits="userSpaceOnUse"><stop stop-color="#960000" offset="0"/><stop stop-color="#ff7878" offset="1"/></linearGradient><linearGradient id="b" x1="191.26" x2="379.98" y1="326.67" y2="519.02" gradientTransform="matrix(.26458 0 0 .26458 9.5794 55.758)" gradientUnits="userSpaceOnUse"><stop stop-color="#006400" offset="0"/><stop stop-color="#78dc78" offset="1"/></linearGradient><linearGradient id="a" x1="191.26" x2="379.98" y1="326.67" y2="519.02" gradientTransform="matrix(-.18709 -.18709 .18709 -.18709 91.386 301.88)" gradientUnits="userSpaceOnUse"><stop stop-color="#c8c800" offset="0"/><stop stop-color="#e6e600" offset="1"/></linearGradient></defs><g transform="translate(-57.052 -120.59)"><path d="m110.33 167.03c0-2.1203-1.7244-3.8365-3.8447-3.8365-1.4096 0-2.6397 0.76115-3.3073 1.8934h-3.3816c0.32877-6.631 2.2732-12.834 5.457-18.223 0.0156-0.0263 0.0257-0.0564 0.0413-0.0827-5.3216-3.1197-11.434-5.03-17.967-5.3578v3.1832c1.0714 0.68109 1.7859 1.8775 1.7859 3.2412 0 2.1203-1.7244 3.8365-3.8447 3.8365-2.1202 0-3.8365-1.7162-3.8365-3.8365 0-1.4086 0.76245-2.6394 1.8934-3.3073v-3.1171c-6.5394 0.32528-12.657 2.2346-17.983 5.3578l0.04961 0.0827c3.1837 5.3893 5.1282 11.592 5.457 18.223h-3.3898c-0.66794-1.131-1.8987-1.8934-3.3073-1.8934-2.1203 0-3.8365 1.7162-3.8365 3.8365 0 2.1203 1.7162 3.8447 3.8365 3.8447 1.3636 0 2.5601-0.71451 3.2411-1.7859h3.456c-0.3292 6.6368-2.2762 12.847-5.4652 18.24l-0.01654 0.0248c-0.01688 0.0274-0.03326 0.0553-0.04961 0.0827 5.325 3.1274 11.444 5.0371 17.983 5.366v-3.1171c-1.1323-0.66762-1.8934-1.8977-1.8934-3.3073 0-2.1203 1.7162-3.8447 3.8365-3.8447s3.8447 1.7244 3.8447 3.8447c0 1.3641-0.71392 2.5602-1.7859 3.2411v3.1832c6.5513-0.32415 12.683-2.2341 18.017-5.366-0.0157-0.0263-0.0269-0.0555-0.0413-0.0827-5e-3 -9e-3 -0.0115-0.0164-0.0165-0.0248-3.189-5.3925-5.1361-11.603-5.4652-18.24h3.4478c0.68096 1.072 1.8771 1.7859 3.2411 1.7859 2.1203 0 3.8447-1.7244 3.8447-3.8447z" fill="url(#b)" stroke="#003200" stroke-width=".26458"/><path transform="matrix(.26458 0 0 .26458 9.5794 55.758)" d="m274.94 327.88c-21.302 1.6382-41.281 7.8151-59.031 17.625 11.293 20.159 18.226 43.094 19.438 67.531a3.7797 3.7797 0 0 1-3.7812 3.9688h-12.812a3.7797 3.7797 0 0 1-3.25-1.8438c-1.869-3.1647-5.2899-5.3125-9.25-5.3125-5.9742 0-10.719 4.7445-10.719 10.719s4.7544 10.75 10.719 10.75c3.8336 0 7.1552-1.9996 9.0625-5a3.7797 3.7797 0 0 1 3.1875-1.75h13.062a3.7797 3.7797 0 0 1 3.7812 3.9688c-0.20881 4.21-0.58321 8.3855-1.125 12.5 15.399-1.5533 31.718-7.6588 47.5-21.531 18.283-16.071 38.269-21.562 57-21.594 2.8065-18.77 8.9837-36.441 17.906-52.375-17.739-9.8097-37.711-16.007-59-17.656v6.1875c4.0618 3.3556 6.75 8.3396 6.75 14 0 10.063-8.2595 18.281-18.312 18.281s-18.281-8.2282-18.281-18.281c0-5.8438 2.8644-10.963 7.1562-14.312v-5.875z" fill="#fff" filter="url(#f)" opacity=".20816"/><g transform="matrix(.26458 0 0 .26458 -30.926 47.806)"><path d="m562.14 282.42c-8.0136 0-14.5 6.5176-14.5 14.531 0 5.3276 2.8768 9.9767 7.1562 12.5v12.781c-25.062-1.2426-48.506-8.5915-68.875-20.625-0.0995-0.0588-0.21319-0.0973-0.3125-0.15625-11.791 20.113-19.011 43.216-20.25 67.906h12.031c2.5742-4.0495 7.0962-6.75 12.25-6.75 8.0136 0 14.5 6.5176 14.5 14.531s-6.4864 14.5-14.5 14.5c-5.3239 0-9.9755-2.8817-12.5-7.1562h-11.781c1.2294 24.716 8.4456 47.837 20.25 67.969l0.3125-0.1875c20.369-12.033 43.813-19.382 68.875-20.625v12.812c-4.2746 2.5245-7.1562 7.1761-7.1562 12.5 0 8.0136 6.4864 14.5 14.5 14.5s14.531-6.4864 14.531-14.5c0-5.1538-2.7005-9.6758-6.75-12.25v-13.062c25.084 1.2442 48.557 8.603 68.938 20.656l0.0937 0.0625 0.3125 0.1875c11.82-20.126 19.038-43.253 20.281-67.969h-11.781c-2.5233 4.2795-7.1724 7.1562-12.5 7.1562-8.0136 0-14.531-6.4864-14.531-14.5s6.5176-14.531 14.531-14.531c5.1555 0 9.6763 2.6983 12.25 6.75h12.031c-1.2251-24.761-8.4437-47.936-20.281-68.094-0.0993 0.0592-0.20963 0.10153-0.3125 0.15625l-0.0937 0.0625c-20.381 12.053-43.854 19.412-68.938 20.656v-13.031c4.0517-2.5737 6.75-7.0945 6.75-12.25 0-8.0136-6.5176-14.531-14.531-14.531z" fill="url(#c)" stroke="#320000"/><path d="m562.12 286.28c-5.9061 0-10.625 4.74-10.625 10.656 0 3.9284 2.1133 7.3068 5.25 9.1562a3.8873 3.8873 0 0 1 1.9062 3.3438v12.781a3.8873 3.8873 0 0 1-4.0625 3.875c-24.416-1.2106-47.318-8.1363-67.469-19.406-9.7612 17.679-15.938 37.576-17.594 58.781h6.0312c3.3755-4.0714 8.3807-6.75 14.062-6.75 10.121 0 18.375 8.2952 18.375 18.406s-8.264 18.375-18.375 18.375c-5.8656 0-11.005-2.8544-14.375-7.1562h-5.7188c0.2035 2.621 0.50362 5.2332 0.84375 7.8125 24.911 4.8882 56.449 2.6813 89.844-20.594 36.817-25.66 69.76-26.241 94-19.969-2.5731-17.538-8.2537-34.049-16.5-48.969-20.185 11.317-43.153 18.255-67.625 19.469a3.8873 3.8873 0 0 1-4.0625-3.875v-13.031a3.8873 3.8873 0 0 1 1.7812-3.2812c2.9721-1.888 4.9688-5.1695 4.9688-8.9688 0-5.9061-4.7501-10.656-10.656-10.656z" fill="#fff" filter="url(#e)" opacity=".2"/></g><path d="m98.829 151.96c-1.4993 1.4993-1.4934 3.9322 0.0058 5.4314 0.99674 0.99674 2.4047 1.3283 3.6774 0.99976l2.3912 2.3912c-4.9212 4.4564-10.682 7.4676-16.744 9.0271-0.02962 8e-3 -0.05809 0.0217-0.0877 0.0292 1.5569 5.9687 4.5283 11.642 8.9159 16.493l2.2509-2.2509c-0.27601-1.2392 0.06477-2.5905 1.029-3.5547 1.4993-1.4993 3.9322-1.4934 5.4314 6e-3 1.4991 1.4993 1.4993 3.9264 0 5.4255-0.99605 0.99605-2.4054 1.3272-3.6774 0.99976l-2.2041 2.2041c4.854 4.3942 10.53 7.3697 16.505 8.9276 8e-3 -0.031 0.0154-0.0626 0.0234-0.0936 1.5595-6.0621 4.5707-11.823 9.027-16.744l2.3971 2.3971c-0.32739 1.272 4e-3 2.6816 0.99976 3.6774 1.4993 1.4993 3.9264 1.4993 5.4255 0 1.4991-1.4993 1.5051-3.9322 6e-3 -5.4314-0.96422-0.96422-2.3155-1.305-3.5547-1.029l-2.4438-2.4438c4.9258-4.4601 10.694-7.4747 16.762-9.0329l0.0292-6e-3 0.0935-0.0234c-1.5538-5.9767-4.5302-11.654-8.9218-16.511l-2.2041 2.2041c0.32856 1.2727-3e-3 2.6808-0.99976 3.6774-1.4993 1.4993-3.9322 1.5051-5.4314 6e-3 -1.4991-1.4993-1.4993-3.9381 0-5.4372 0.96454-0.96454 2.3151-1.3055 3.5547-1.029l2.2509-2.2509c-4.8617-4.4032-10.548-7.3885-16.534-8.9453-7e-3 0.0297-0.0202 0.0582-0.0292 0.0877-3e-3 9e-3 -3e-3 0.0197-6e-3 0.0292-1.558 6.068-4.5728 11.836-9.0329 16.762l-2.438-2.438c0.27652-1.2395-0.0645-2.5902-1.029-3.5547-1.4993-1.4993-3.938-1.4993-5.4372 0z" fill="url(#a)" stroke="#373200" stroke-width=".26458"/><path transform="matrix(.26458 0 0 .26458 9.5794 55.758)" d="m409.03 329.34c-6.4327 21.914-17.723 42.687-33.938 60.594a5.5505 5.5505 0 0 1-8.0625 0.21875l-9.2188-9.2188a5.5505 5.5505 0 0 1-1.4688-5.1562c0.65084-2.9176-0.12481-5.9686-2.4062-8.25-3.5358-3.5358-9.1517-3.5358-12.688 0s-3.5262 9.0676 0.0312 12.625c2.3529 2.3529 5.6208 3.1112 8.5938 2.3438a5.5505 5.5505 0 0 1 5.3125 1.4688l9.0312 9.0625a5.5505 5.5505 0 0 1-0.2187 8.0312c-17.872 16.183-38.612 27.411-60.469 33.844 2.8283 9.3903 6.647 18.548 11.438 27.312 29.887-1.5251 61.83-9.8631 90.656-31.375 29.842-22.271 62.103-28.018 91.688-25.906-5.0407-10.507-11.443-20.521-19.188-29.812l-2.2188 2.2188c0.44179 5.6501-1.3638 11.458-5.6562 15.75-7.7827 7.7827-20.609 7.8284-28.406 0.0312s-7.7972-20.64 0-28.438c4.1784-4.1784 9.7933-5.9849 15.281-5.6875l2.4375-2.4375c-15.232-12.718-32.442-21.779-50.531-27.219z" fill="#fff" filter="url(#d)" opacity=".2"/></g></svg>
