<?xml version="1.0" encoding="UTF-8"?>
<svg width="12.369mm" height="19.96mm" version="1.1" viewBox="0 0 12.369 19.96" xmlns="http://www.w3.org/2000/svg" xmlns:xlink="http://www.w3.org/1999/xlink"><defs><linearGradient id="a"><stop stop-color="#a18930" offset="0"/><stop stop-color="#e3c565" offset=".66667"/><stop stop-color="#fffbcc" offset="1"/></linearGradient><linearGradient id="c" x1="32.232" x2="41.601" y1="52.825" y2="65.947" gradientUnits="userSpaceOnUse" spreadMethod="reflect" xlink:href="#a"/><linearGradient id="b" x1="44.906" x2="51.25" y1="38.795" y2="47.564" gradientUnits="userSpaceOnUse" spreadMethod="reflect" xlink:href="#a"/></defs><g transform="translate(-59.709 -126.39)"><g transform="matrix(1.0216 0 0 1.0212 -96.896 -30.514)" style="stroke-width:.97904"><g transform="matrix(.26458 0 0 .26458 117.59 -63.791)" style="stroke-width:.97904"><path d="m158.39 822.8c6.1991 7e-5 11.299 1.9339 15.3 5.8014s6.0012 8.5012 6.0013 13.901c-4e-5 3.6662-0.86674 6.9326-2.6001 9.7992-1.2675 2.0671-3.1016 4.067-5.5023 5.9998-1.5992 1.2675-3.1983 2.5014-4.7974 3.7018-1.4018 1.3998-2.1027 3.0996-2.1027 5.0995-3e-5 1.3326 0.0335 2.1658 0.10071 2.4994l-14.301 1.4008c-0.26653-2.1342-0.39979-4.5674-0.39978-7.2998-1e-5 -0.46791-1e-5 -0.83514 0-1.1017-1e-5 -5.3324 2.15-9.3322 6.4499-12s6.4499-5.2002 6.4499-7.5989c-3e-5 -1.534-0.66633-2.8676-1.9989-4.0009s-2.7659-1.6998-4.2999-1.6998c-1.8677 6e-5 -3.4678 0.46647-4.8004 1.3992s-2.5991 2.266-3.7994 3.9993l-11.801-8.8989c5.601-7.3343 12.968-11.002 22.101-11.002zm-0.20141 50.702 10.303 10.3-10.303 10.501-10.498-10.501z" style="fill:url(#c);stroke-width:1.9581;stroke:url(#b)"/></g></g></g></svg>
