<?xml version="1.0" encoding="UTF-8"?>
<svg width="146.28mm" height="159.43mm" version="1.1" viewBox="0 0 146.28 159.43" xmlns="http://www.w3.org/2000/svg"><defs><clipPath id="clipPath2615"><path d="m2670 554.91h383.59v-368.64h-383.59z"/></clipPath><clipPath id="clipPath2631"><path d="m2753.4 620.38h329.48v-419.56h-329.48z"/></clipPath><clipPath id="clipPath2651"><path d="m2977.9 455.03h13.2v-4.883h-13.2z"/></clipPath><clipPath id="clipPath2719"><path d="m2869.4 627.17h168.84v-300.85h-168.84z"/></clipPath><clipPath id="clipPath2735"><path d="m2901.2 631.33h123.27v-282.75h-123.27z"/></clipPath></defs><g transform="translate(-29.818 -52.723)"><g transform="translate(-416.94 -299.34)"><g transform="matrix(.35278 0 0 -.35278 579.53 508.44)"><path d="m0 0c-2.739-0.879-8.516-0.524-13.283-0.514-2.95-0.794-6.863 0.763-11.953 0.657-7.764-1.891-36.041-1.456-60.339-0.408-1.309-1.345-4.555-4.025-6.583-4.708-3.046-1.033-7.14-1.753-12.462-1.827-3.279-0.932-7.664-0.44-13.341-0.646-9.12-2.368-46.31-0.668-74.152 0.222-2.77 3.909-4.528 7.494-6.54 16.254-61.701-14.76-90.109-3.834-135.93 16.291l17.303 6.885c-24.542 17.122-43.254 33.895-56.494 76.439-20.655 76.873 90.209 137 56.139 196.84 51.653-19.389 70.725-34.886 81.523-82.715 2.341 1.853 5.471 8.553 7.187 11.482 31.491-58.533-56.817-138.54 26.195-169.88 1.726 11.577 6.17 19.055 11.848 31.326 11.709 23.065 12.837 84.987 43.025 98.122-16.211 6.117-30.786 14.803-46.367 29.007 5.82-0.789 10.491 0.842 14.935 1.557-4.036 4.216-7.261 9.098-7.928 13.018 31.3 3.84 13.59 45.483 24.642 80.099-36.431 9.908-36.935 83.456-30.564 87.497 4.063 2.58 25.517-16.969 50.79-44 0.959-1.028 1.743-2.224 2.278-3.527 1.287-3.12 1.922-6.684 1.292-9.168 0 0 1.721 1.075 3.522 2.076 15.867 9.104 33.18 13.309 51.304 14.761 3.908 0.487 7.6 0.667 11.09 0.566-1.859 1.759-4.174 3.93-4.761 7.256-0.244 1.382-0.223 2.812 0.037 4.194 6.853 36.369 16.238 58.878 21.052 58.878 7.547 0 43.809-55.652 18.361-83.542 27.885-23.303 35.241-67.954 63.729-54.423 1.536-3.67 1.425-9.522 0.281-15.242 4.136 1.779 7.933 3.516 12.43 7.298 1.181-29.293-27.815-71.545-75.047-92.338 3.888-5.789 4.905-11.175 7.415-16.307 15.338-14.337 33.901-55.604 30.124-71.127 2.628-8.617 1.256-21.439-6.424-30.914 12.928-12.647 17.928-34.774-7.663-52.596 2.203-0.402 5.598-0.333 7.017-1.7 1.081 0.276 4.274 0.038 6.578-0.386 11.726-2.871 10.746-21.222-0.27-24.76" style="fill:#82868e"/></g><g transform="matrix(.35278 0 0 -.35278 509.5 503.21)"><path d="m0 0c0.682 7.333 0.112 14.747-0.194 22.086-0.158 3.805-0.291 7.611-0.281 11.419 8e-3 3.414 0.202 6.637-0.903 9.923-0.734 2.181-1.787 4.215-2.82 6.251-6e-3 -0.048-0.015-0.092-0.023-0.14-83.012 31.338 5.297 111.35-26.194 169.88-1.716-2.929-4.846-9.629-7.187-11.482-10.799 47.829-29.87 63.326-81.524 82.715 34.07-59.846-76.794-119.97-56.139-196.84 13.241-42.543 31.952-59.316 56.494-76.439l-17.302-6.885c45.659-20.056 74.034-30.973 135.3-16.438 0.32 1.975 0.591 3.957 0.777 5.953" style="fill:#5e6268"/></g><g transform="matrix(.35278 0 0 -.35278 578.48 473.6)"><path d="m0 0c0.182 5.151-1.872 9.772-3.707 14.455-2.705 4.442-6.412 7.978-11.916 8.088-5.694 0.114-10.291-2.709-14.207-6.616-6.709-6.693-11.39-15.382-15.589-23.793-1.213-2.43-2.374-5.128-2.303-7.9 0.075-2.952 2.092-5.358 3.124-8.017 0.892-2.298 1.36-5.274 3.199-7.032 2.334-2.23 5.769-1.071 8.636-1.36 1.552-0.157 3.037-0.675 4.578-0.894 1.4-0.199 2.707-0.021 4.033 0.457 2.645 0.955 4.975 2.71 7.089 4.524 4.088 3.506 7.856 7.472 10.88 11.936 3.251 4.798 5.974 10.26 6.183 16.152" style="fill:#5e6268"/></g><g transform="matrix(.35278 0 0 -.35278 549.64 465.32)"><path d="m0 0c-5.574 1.779-11.424-2.726-15.52-5.977-8.173-6.486-13.945-15.548-15.825-25.77 2e-3 -0.023 7e-3 -0.045 3e-3 -0.07-0.597-3.841-0.681-7.664-0.543-11.547 0.135-3.746 0.547-7.534 1.582-11.148 0.808-2.823 2.491-4.491 5.062-5.792 1.311-0.664 2.792-1.128 4.015-1.95 1.211-0.813 1.772-2.211 2.806-3.203 2.568-2.464 6.284-0.804 9.253-0.272 2.739 0.49 5.698 0.042 7.99 1.943 2.478 2.055 4.645 4.733 6.545 7.312 1.865 2.532 3.133 5.178 4.064 8.18 1.837 5.919 3.723 11.839 4.277 18.044 0.57 6.372-0.106 12.95-2.786 18.814-2.168 4.741-5.733 9.779-10.923 11.436" style="fill:#5e6268"/></g><g transform="matrix(.35278 0 0 -.35278 579.62 499.71)"><path d="m0 0c-2.304 0.424-5.497 0.662-6.578 0.386-1.228 1.183-7.021 1.319-7.496 1.192-2.172-0.583-4.292-1.292-6.438-1.945-2.168-0.659-4.569-1.59-6.652-0.736-5.329 0.812-8.279 0.575-21.426-2.852-8.14-3.014-9.643-4.318-18.45-4.399-0.089-1e-3 -13.898-8.819-15.881-10.398-1.512 0.814-2.747 1.595-2.693 1.952 0.35 2.269 0.432 4.55-0.493 6.709-0.802 1.869-7.41 6.634-9.399 6.336-1.469-0.22-2.811-0.574-4.264-0.045-1.585 0.577-2.87 1.724-4.503 2.24-3.923 1.239-11.828-2.286-12.032-2.126-1.345 1.05-11.091 0.838-14.186 0.035-3.633-0.943-7.258-1.791-10.836-2.943-7.919-2.548-10.242-3.883-18.442-5.381-3.976-0.726-26.257-5.206-37.507-1.959 1.781-7.026 2.397-14.526 4.893-18.049 27.842-0.89 65.032-2.59 74.152-0.223 5.677 0.207 10.062-0.286 13.341 0.646 5.322 0.075 9.416-0.264 12.462 0.768 1.397 0.471 5.301 5.284 5.301 5.284l4.365 0.494c0.04-0.041 0.08-0.076 0.119-0.122 23.625-0.965 49.656-1.302 57.137 0.519 5.089 0.106 9.003-1.451 11.953-0.656 4.767-0.011 10.544-0.366 13.283 0.513 11.016 3.538 11.996 21.889 0.27 24.76" style="fill:#5e6268"/></g><g transform="matrix(.35278 0 0 -.35278 462.03 434.51)"><path d="m0 0c21.013 7.337 44.875 7.769 66.138 1.185 11.384-3.525 22.331-9.203 31.977-16.183 4.327-3.132 7.891-6.48 11.194-10.414 3.125 17.345 3.255 34.493-5.148 50.113-1.716-2.929-4.846-9.629-7.187-11.482-2.105 9.324-4.529 17.412-7.444 24.545-0.996 0.761-1.753 1.812-2.033 3.078-0.262 1.186-0.669 1.899-1.705 2.917-0.814 0.799-1.167 1.051-1.641 1.374-0.81 0.553-1.647 1.062-2.503 1.54-3.547 1.979-6.708 3.093-10.828 4.336-7.47 2.254-15.199 3.248-22.731 1.9-7.193-1.288-13.931-3.949-20.281-7.449-9.832-7.434-18.635-16.772-25.514-26.076-5.172-8.385-10.859-16.898-16.411-25.577 4.518 2.424 9.238 4.49 14.117 6.193" style="fill:#c9cdd1"/></g><g transform="matrix(.35278 0 0 -.35278 459.83 470.49)"><path d="m0 0c11.021 9.899 24.07 17.182 37.666 22.897 12.428 5.223 25.212 8.932 38.657 10.266 9.307 0.925 18.911 0.488 27.594-2.629 1.411 5.773 3.056 11.666 4.706 17.623-1.364 0.958-2.338 2.504-2.41 4.641-0.017 0.523-0.328 1.623-0.688 2.234-0.666 1.129-1.004 1.557-2.141 2.708-2.191 2.217-4.415 3.742-7.075 5.446-5.089 3.262-10.239 6.683-15.908 8.853-11.501 4.403-23.913 5.916-36.165 5.922-11.785 6e-3 -22.837-1.409-34.107-4.966-19.515-6.159-37.081-18.948-45.823-37.729-2.012-11.045-1.937-22.424 1.226-34.196 4.203-13.505 8.958-24.411 14.276-33.558 3.692 12.686 10.319 23.62 20.192 32.488" style="fill:#c9cdd1"/></g><g transform="matrix(.35278 0 0 -.35278 497.69 504.94)"><path d="m0 0c-10.067 9.546-13.647 24.567-9.795 37.782 1.599 5.489 4.362 10.374 7.902 14.719 2.716 4.937 6.336 9.357 10.494 13.232-10.632 8.573-15.016 18.979-15.863 30.565-8.851 4.596-20.244 1.711-29.815-1.276-9.927-3.099-19.328-6.909-27.91-12.904-7.942-5.548-14.833-12.871-19.828-21.208-5.666-9.457-9.36-20.417-8.752-31.583 0.021-0.387 0.062-0.77 0.093-1.155 2.654-1.989 5.381-3.944 8.187-5.902l-6.673-2.655c0.876-3.271 2.042-6.472 3.399-9.6 31.03-10.527 72.19-17.409 73.092-17.256 4.931 0.835 12.053 2.359 19.392 4.028-1.363 0.963-2.674 2.029-3.923 3.213" style="fill:#c9cdd1"/></g><g transform="matrix(.35278 0 0 -.35278 587.71 409.95)"><path d="m0 0 0.478 15.676s-4.427-1.225-11.686-2.168c-12.099-1.572-27.533-1.834-32.282 5.129-9.158 17.637-18.039 34.481-37.051 33.28-7.854-0.495-13.698-3.382-18.255-9.879-1.391-1.983-2.035-6.329-2.257-11.423-0.284-6.51-12.414-8.951-16.096-3.575-3.409 4.978-6.844 9.017-9.49 9.95-9.237 3.258-18.426-0.497-24.731-6.769-10.967-14.118-11.496-29.218-12.06-39.748-4.732-19.961-22.841-27.427-42.017-33.956l5.943-12.099s-4.519-4.676-9.438-3.924c15.526-13.115 31.241-17.693 52.019-25.103 0 0 3.289-4.094 3.211-4.244 4.537-6.239 8.794-12.747 11.098-20.176 2.221-7.162 1.798-14.308 2.159-21.689 0.153-3.134 0.141-7.544 2.433-9.98 2.088-2.219 5.382-3.378 8.179-4.355 60.165-18.267 29.133-75.117 18.881-77.463-1.767-0.684-3.619-1.097-5.477-1.447-1.171-0.219-4.509-0.269-5.216-1.167-0.549-0.698-2.888-20.149-5.305-23.057-2.238-2.694-4.951-4.951-7.407-7.442 4.039 0.442 6.151 0.912 12.278-2.301 4.563 0.092 8.722-0.388 11.104-3.553 2.91-3.864 3.012-8.131 3.199-12.871 32.448 18.565 41.527 37.533 48.863 60.486-4.982-1.224-8.588 1.529-10.707 5.895-13.361 19.769 14.101 41.666 18.287 46.251 1.191 1.309 2.833 3.049 2.79 4.95-9e-3 0.385-1.159 28.505-2.547 35.248-1.286 6.253-8.039 38.899-8.862 40.125 26.169 11.52 46.729 29.628 59.669 48.469 4.232 9.989 11.451 36.933 11.451 36.933z" style="fill:#c9cdd1"/></g><g transform="matrix(.35278 0 0 -.35278 548.63 410.64)"><path d="m0 0c-2.247 14.532-9.052 29.98-27.465 27.706-15.217-2.36-15.603-14.875-17.541-24.671-0.037-0.012-0.047-0.033-0.017-0.07 0 0 0-7e-3 1e-3 -0.01-2.162-18.485 1e-3 -34.445-49.642-44.476l9.392-13.722-12.886-2.301 21.007-15c33.277-2.604 61.645 35.899 75.494 61.359 1.661 3.664 1.742 8.241 1.657 11.185" style="fill:#5e6268"/></g><g transform="matrix(.35278 0 0 -.35278 555.29 408.13)"><path d="m0 0c-4.353 14.025-5.229 30.726 11.395 36.143 13.944 4.043 19.665-7.094 25.532-15.148 0.036 4e-3 0.054-0.011 0.044-0.057 1e-3 -2e-3 3e-3 -6e-3 4e-3 -9e-3 9.801-15.804 9.973-24.678 56.469-13.593l-1.538-12.498 13.379 6.629-9.638-26.248c-27.148-15.848-66.685-1.998-89.42 15.359-2.99 2.633-5.031 6.731-6.227 9.422" style="fill:#5e6268"/></g><g transform="matrix(.35278 0 0 -.35278 -495.15 575.87)"><g clip-path="url(#clipPath2615)" style="opacity:.25"><g transform="translate(2998.5 498.39)"><path d="m0 0c0.615-0.163 1.195-0.414 1.74-0.732-1.609 0.373-3.289 0.446-4.895 0.197-0.504-0.079-0.986-0.194-1.452-0.332 1.425 0.82 3.044 1.282 4.607 0.867m-11.96-26.498c2.165-2.01 5.286-2.632 8.14-2.798 1.578-0.092 3.393-0.014 5.247 0.269 7.377-0.904 15.898 0.722 17.462 8.616 0.855 4.319-0.312 9.61-1.855 13.668-1.569 4.123-4.485 7.862-8.298 10.134-7.364 4.389-17.538 3.052-23.188-3.55-5.592-6.535-4.475-15.307-0.244-22.085 0.633-1.615 1.513-3.118 2.736-4.254m-65.651-13.65c0.408-0.956 2.262-1.106 3.154-0.511 2.015-2.7 4.772-4.707 7.87-6.003-1.743 0.432-3.325 1.094-4.494 2.082-0.248 0.209-1.169 0.127-0.829-0.306 2.904-3.7 8.775-4.263 13.161-4.251 5.038 0.013 10.19 1.379 14.214 4.497 1.195 0.925 2.16 1.905 2.897 2.959-0.398-1.064-0.737-2.154-1.002-3.275-0.597-2.532-0.637-7.583 1.67-9.694 1.285-2.706 5.547-4.722 7.796-5.647 3.918-1.611 8.267-2.276 12.498-1.928 0.244-0.935 0.571-1.854 0.801-2.681 0.41-1.476 0.66-3.333 1.267-4.902-0.197-0.334-0.404-0.705-0.671-1.127-0.903-1.433-1.985-2.755-3.176-3.958-2.559-2.584-5.835-4.611-9.41-5.404-3.442-0.763-7.099-0.327-10.305 1.126-2.752 1.248-4.441 3.493-6.624 5.286 1.393 1.442 2.58 4.417 0.322 5.182 0.077 0.059 0.155 0.117 0.229 0.182 0.834 0.723-0.687 1.394-1.24 1.364-2.309-0.124-4.902-2.07-5.539-4.402-0.359-0.645-0.535-1.363-0.326-2.112 0.417-1.489 1.922-2.089 3.362-2.012 0.258 0.014 0.59 0.07 0.939 0.165 0.466-0.914 1.224-1.772 2.102-2.543 3.382-4.539 10.535-6.1 15.792-5.506 4.242 0.478 8.3 2.118 11.864 4.438 2.445 1.592 5.503 3.751 7.639 6.221 1.895-0.951 4.142-1.457 5.926-1.708 3.624-0.511 7.435-0.188 10.844 1.191 5.889 2.383 10.224 7.885 9.781 14.145 1.911 0.069 4.102 0.934 4.001 3.202-0.093 2.109-1.821 3.776-3.721 4.421-1.639 0.556-4.496 0.637-5.461-1.166-0.578-1.08 0.095-2.097 1.077-2.409 0.031-0.523 0.09-1.045 0.155-1.571-0.111-0.156-0.185-0.336-0.175-0.501 0.085-1.425-0.036-2.856-0.342-4.239-2.2-3.421-3.485-7.292-7.603-9.062-4.976-2.138-10.715 0.556-15.24 2.554-0.04 0.018-0.098 0.029-0.162 0.037 0.048 1.158-0.4 2.299-0.715 3.555-0.271 1.077-0.673 2.044-1.109 2.991 3.602 1.002 6.941 2.95 9.382 5.814 1.662 1.951 3.414 5.406 3.114 8.298 0.387 0.364 0.188 0.848-0.263 1.215-0.249 0.713-0.664 1.365-1.286 1.919-0.141 0.124-0.414 0.147-0.551 0-0.024-0.026-0.042-0.054-0.066-0.081-0.413 0.15-0.953 0.143-1.265 0.015-5.425-2.219-11.004-4.091-16.717-5.416-2.917-0.677-5.864-1.143-8.815-1.586 0.183 1.631-0.304 3.507-0.264 5.091 0.063 2.566 0.53 5.093 1.312 7.536 1.671 5.218 4.558 10.388 10.573 10.832 0.316 0.024 0.515 0.226 0.45 0.4 0.051 0.082 0.033 0.17-0.145 0.218-5.987 1.632-12.595-0.657-16.093-5.851-0.227-0.337-0.438-0.686-0.641-1.04-0.395-0.616-0.773-1.243-1.147-1.854-0.47-0.768-0.91-1.55-1.319-2.344 0.343 1.539 0.318 3.224-0.094 5.102-0.352 1.605-0.95 3.329-1.728 5.027-0.799 3.209-2.151 6.273-3.722 8.705-5.676 8.787-17.041 11.452-26.137 6.277-4.381-2.491-7.146-6.477-8.123-11.395-1.105-5.561 0.139-10.427 2.328-15.562m96.968-215.71c7.771 5.38 13.446 6.265 18.62 10.271-3.603-8.361-10.426-18.259-21.831-23.803 2.599 4.447 3.518 9.055 3.211 13.532m32.692-42.054c-0.685 4.472-5.155 9.276-9.392 10.674 0.129-0.322 0.011-5.425 0.067-9.064-0.014 0.012-0.03 0.021-0.044 0.033-1.297-0.539-0.444-0.376-1.658-0.588-1.166 4.34-6.757 9.147-11.471 10.225 0 0 0.5-5.68 0.901-9.145-13.981-5.897-29.106-4.858-44.295-0.651l0.039 0.064c2.31 3.848 5.792 6.855 9.926 8.605l2.825 1.196c15.802 5.164 20.422 4.282 28.699 3.706 14.991 6.142 32.063 38.943 16.797 44.686 0.163 0.26 0.327 0.524 0.49 0.799l-6.194 12.725-10.88-11.936c-4.062-4.086-6.437-4.486-15.533-6.273 0.214 0.663 0.426 1.326 0.634 2.004-2.39-0.348-12.921-4.542-11.95 8.652-6.302 6.251-5.467 16.946 19.358 44.96 8.607 1.898 15.177 1.981 17.772-1.477-5.852 18.628-12.167 41.811-20.529 52.386l-9.836 27.057c-6.954-1.238-13.945-2.863-21.243-4.376 0.941 0.537 1.473 0.843 1.473 0.843-2.908 0.143-5.8 0.323-8.67 0.546-35.013 2.616-67.123 11.01-90.458 22.847 10.513 1.34 19.924 10.1 24.892 15.094-7.462-2.436-24.04-2.118-24.04-2.118 38.339 26.127-9.061 43.163 27.631 115.74 1.154 1.923 2.457 3.819 3.913 5.688l-1.541 1.848c-2.394-1.128-4.761-2.362-7.097-3.701-1.8-1.001-3.521-2.077-3.521-2.077 0.63 2.484-6e-3 6.048-1.293 9.168-0.535 1.303-1.318 2.5-2.277 3.527-0.646 0.689-1.287 1.377-1.933 2.055-3.326 0.514-6.901 0.758-10.524 0.71-12.149-0.148-24.796-3.564-30.198-11.345-1.875-2.701-2.876-5.926-2.675-9.723 5.244-12.065 13.288-21.979 25.104-25.194-11.053-34.616 6.657-76.259-24.643-80.099 0.667-3.919 3.893-8.802 7.928-13.017-4.443-0.716-9.114-2.347-14.935-1.558 15.581-14.204 30.156-22.89 46.368-29.007-0.974-0.423-1.923-0.9-2.839-1.424 1.079-0.523 2.209-1.071 3.372-1.633l-0.482-0.558 10.35-8.317c11.95-8.207 16.837-16.333 19.887-24.225l0.907-21.92 13.785-2.383c0.091 4.316-0.451 9.652-1.731 15.03 24.04-11.681 55.532-2.469 71.061 8.96-4.098-26.954-13.573-47.765-38.639-72.533-0.368-5.974-2.642-11.663-5.292-17.195-0.69-1.441-1.464-3.198-2.506-4.873l0.633 3.013c-4.456-3.793-7.89-4.351-10.539-2.423-6.222-3.174-9.6-1.52-10.339 4.613-16.433-4.104-10.957 26.547-14.471 27.435-32.366 5.963-20.02 23.077-47.347 39.127l-4.119-47.363c38.672-8.871 39.544-44.532 67.219-37.735h0.277c-0.376-9.148-1.476-14.394-12.516-25.859l15.946-2.555c9.805-1.953 10.189-7.146 9.403-13.468-0.491-0.404-1.043-0.794-1.631-1.152-1.21 4.11-6.356 9.551-10.78 11.251l0.957-9.587c-0.61-0.846-1.435-1.599-2.374-2.177-1.15 4.843-6.196 12.181-12.741 14.718 2.415-3.108 3.13-7.234 2.353-12.335-15.525-8.28-58.127-12.65-70.981-1.673-7.9 6.746-11.951 20.387-17.951 41.76-1.093-4.679-1.913-8.661-2.502-12.088-0.176-0.043-0.358-0.086-0.534-0.129-31.311-7.525-51.997-13.918-90.723-7.101 15.963 3.473 21.603 7.981 31.247 14.829-24.537 7.594-62.139 36.003-60.905 91.226-5.651-6.658-9.708-13.034-14.3-22.589-1.233 28.112 11.027 49.345 27.54 76.418-13.24-5.232-24.595-16.243-31.687-23.519 23.277 52.829 84.294 75.131 37.714 123.8l-9.321 3.479c13.743-55.694-80.501-112.63-61.319-184.02 13.241-42.544 31.952-59.317 56.494-76.44l-17.302-6.884c45.192-19.851 73.452-30.755 133.43-16.874 0.7 1.661 1.351 3.235 1.833 4.406 2.575-3.823 6.123-7.59 8.791-17.721l95.066 1.731 9.856 4.694c-0.367-1.41-0.467-2.252 0.026-1.822 1.651 1.438 63.458 1.526 63.458 1.526l24.228 0.952 5.125 8.415c-1.485-0.555-1.487-1.035-3.075-1.291" style="fill:#1d1d1b"/></g></g></g><g transform="matrix(.35278 0 0 -.35278 -495.15 575.87)"><g clip-path="url(#clipPath2631)" style="opacity:.25"><g transform="translate(2860.6 291.56)"><path d="m0 0c-5.29-13.997-10.187-25.179-13.417-33.542-0.127 3.13-0.259 6.404-0.385 9.665-1.415-3.786-2.495-7.669-3.168-12.176-83.012 31.338 5.296 111.35-26.195 169.88-1.716-2.928-4.845-9.628-7.187-11.482-8.304 36.771-21.491 54.434-50.62 69.443-3.765-0.831-6.186-1.382-6.186-1.382 1.833-3.109 3.665-6.297 5.466-9.549 19.908-35.919 36.369-79.966 12.943-115.73 13.897 4.284 19.723 7.462 30.491 15.406-3.708-38.068-20.83-27.116-19.596-77.614-10.895-1.06-14.988 7.652-19.781 12.52 8.616-58.74 33.365-70.402 81.459-69.846 1.197 0.01 2.41 0.032 3.639 0.058 0 0-0.042 0.952-0.114 2.611 13.373 9.508 38.255 120.66 60.956 133.2l-10.35 8.317c-18.247-20.403-23.594-31.82-37.955-89.78m179.45-75.281-15.634 0.068c-7.749 0.614-17.629-1.223-29.824-5.724 14.277-4.022 18.344 3.767 33.429 1.127 4.998 0.824 9.805-0.587 13.635-1.665 3.773 0.25 7.556-4.549 11.938-6.416-1.53 5.248-1.077 10.232-13.544 12.61m-93.192-4.187c-3.394 3.834-8.904 3.875-16.535 0.114-6.127 2.778-21.855-0.806-43.463-8.288 28.159-0.241 23.462 5.288 48.593 5.474 4.529 1.318 7.37 0.284 12.661-0.624 6.361-0.862 10.234-4.265 13.348-7.953-2.602 8.019-6.722 13.183-14.604 11.277m122.69 258.23 0.478 15.676-12.676-3.321c-18.982 7.504-28.253 40.506-51.554 59.119 21.631 36.651-5.453 77.074-16.253 78.577 17.778-34.514 20.722-57.865 10.511-74.489-1.453 0.913-2.953 1.773-4.511 2.566-24.887 9.958-51.965 3.268-83.74-8.788 99.315 8.674 89.494-66.137 141.93-61.311-2.301-12.959-7.917-22.372-11.472-28.866 9.533 0.662 12.782 1.324 20.919 7.691-8.134-15.239-35.561-52.003-36.013-54.297 35.646 29.532 44.355 33.991 55.758 74.073zm-55.983-164.51c20.577-1.533 25.697-11.596 21.283-35.163 19.949 31.247-2.254 53.378-21.283 35.163m-82.767 21.907c-2.959 28.509-2.104 31.263-21.887 45.302 16.205-23.939 11.467-36.203 5.845-49.446-1.646-1.047-3.168-2.299-4.53-3.773 35.996 1.126 58.834-23.062 58.663-61.047 25.248 37.517-10.197 68.622-38.091 68.964" style="fill:#f6f6f6"/></g></g></g><g transform="matrix(.35278 0 0 -.35278 566.39 418.36)"><path d="m0 0c-2.187 0.634-4.596-1.046-5.017-2.499-0.359-1.235 1.052-1.173 2.826-1.517-1.925-15.644-10.895-16.8-23.233-9.179l-1.704 5.317c3.804 2.853 14.022 11.104 12.44 16.308-1.937 6.373-40.171-2.063-37.881-8.791 1.974-5.796 18.397-7.936 22.909-8.417l1.368-5.968c-5.811-13.106-21.388-17.135-31.025-4.663 1.35 1.201 2.595 1.867 1.656 2.747-1.103 1.034-4.033 1.25-5.59-0.411s-1.152-4.571-0.048-5.605c0.728-0.683 1.244-0.059 1.957 0.92 11.083-13.976 27.53-8.298 35.892 4.229 12.886-6.076 23.858-4.7 26.199 12.526 1.113-0.479 1.874-0.752 2.152 0.207 0.422 1.452-0.714 4.161-2.901 4.796" style="fill:#1d1d1b"/></g><g transform="matrix(.35278 0 0 -.35278 -495.15 575.87)"><g clip-path="url(#clipPath2651)" style="opacity:.2"><g transform="translate(2991.1 452.29)"><path d="m0 0c-0.061-1.338-3.066-2.287-6.712-2.12s-6.552 1.387-6.491 2.724c0.062 1.338 3.067 2.287 6.713 2.121 3.645-0.167 6.551-1.387 6.49-2.725" style="fill:#f6f6f6"/></g></g></g><g transform="matrix(.35278 0 0 -.35278 546.57 411.38)"><path d="m0 0c0-9.165-7.43-18.184-16.595-18.184s-16.594 9.019-16.594 18.184 7.429 18.183 16.594 18.183 16.595-9.018 16.595-18.183" style="fill:#001116"/></g><g transform="matrix(.35278 0 0 -.35278 539.66 409.44)"><path d="m0 0c0-4.183 3.391-7.573 7.573-7.573 4.183 0 7.574 3.39 7.574 7.573s-3.391 7.573-7.574 7.573c-4.182 0-7.573-3.39-7.573-7.573" style="fill:#fff"/></g><g transform="matrix(.35278 0 0 -.35278 568.34 405.2)"><path d="m0 0c0-8.512-6.9-16.887-15.412-16.887-8.511 0-15.411 8.375-15.411 16.887s6.9 16.887 15.411 16.887c8.512 0 15.412-8.375 15.412-16.887" style="fill:#001116"/></g><g transform="matrix(.35278 0 0 -.35278 561.92 403.39)"><path d="m0 0c0-3.885 3.149-7.034 7.033-7.034 3.885 0 7.034 3.149 7.034 7.034s-3.149 7.034-7.034 7.034c-3.884 0-7.033-3.149-7.033-7.034" style="fill:#fff"/></g><g transform="matrix(.35278 0 0 -.35278 543.63 396.23)"><path d="m0 0c1.007-3.289-5.93-5.215-13.343-7.484-7.414-2.269-16.602-6.357-17.609-3.067-1.324 6.022 5.198 13.493 15.548 16.662 7.414 2.269 14.397-2.822 15.404-6.111" style="fill:#5e6268"/></g><g transform="matrix(.35278 0 0 -.35278 552.15 393.27)"><path d="M 0,0 C 0.941,-3.309 7.811,-1.158 15.268,0.962 22.726,3.083 32.661,4.641 31.72,7.95 29.562,13.726 20.028,16.458 9.615,13.496 2.158,11.376 -0.941,3.309 0,0" style="fill:#5e6268"/></g><g transform="matrix(.35278 0 0 -.35278 558.4 381.48)"><path d="m0 0c-10.162 18.117 2.295 49.584 7.004 49.584 5.76-0.354 16.734-37.086 5.699-53.181z" style="fill:#f4a195"/></g><g transform="matrix(.35278 0 0 -.35278 526.34 388.86)"><path d="m0 0c3.322 12.058-24.042 43.901-29.162 40.48-5.824-3.707 2.825-48.289 23.303-54.697z" style="fill:#f4a195"/></g><g transform="matrix(.35278 0 0 -.35278 560.52 380.29)"><path d="m0 0c-2.162 6.05-2.485 12.942-1.606 19.264 0.751 5.403 3.172 10.794 8.065 13.674 0.574 0.338 1.141 0.602 1.7 0.803-2.181 7.21-5.027 12.33-7.159 12.46-4.709 0-17.166-31.466-7.005-49.583l9.066-2.567c-1.333 1.85-2.348 3.954-3.061 5.949" style="fill:#f7857f"/></g><g transform="matrix(.35278 0 0 -.35278 521.03 388.43)"><path d="m0 0c-3.671 4.572-6.934 9.097-8.519 14.857-1.456 5.288-1.694 11.989 2.37 16.236 0.828 0.865 1.716 1.485 2.621 1.886-4.69 4.658-8.868 7.438-10.575 6.298-5.825-3.707 2.825-48.289 23.303-54.697l3.201 7.768c-5.108-0.442-9.46 3.989-12.401 7.652" style="fill:#f7857f"/></g><g transform="matrix(.35278 0 0 -.35278 578.66 506.92)"><path d="m0 0c-1.673-0.609-2.992-0.598-4.639-0.535 5.916 6.557 6.471 10.979 2.012 18.129 0.355 0.01 0.715 0.016 1.102 0.01 12.674-1.737 9.172-14.792 1.525-17.604m-11.519 0.111c-1.727-0.715-3.072-0.683-4.793-0.609 5.063 5.556 5.153 15.672-0.615 20.02 0.938 0.301 1.96 0.418 3.39 0.402 15.767-2.405 10.81-16.164 2.018-19.813m-10.963-0.333c-8.442-3.294-38.18-1.859-57.85-1.017 22.281 12.785 39.149 29.987 48.497 60.662 5.063-0.699 11.032 2.828 15.02 5.709 2.929 2.118 5.073 4.613 7.388 7.383 0.106 0.127 0.212 0.254 0.323 0.386 21.492-21.989 6.89-40.192-10.386-51.992-0.593 0.217-1.223 0.392-1.896 0.508-12.393 0.499-14.061-1.17-25.104-5.036 12.436 2.346 14.199 3.241 21.969 2.071 12.674-1.833 9.687-15.687 2.039-18.674m-69.088 18.382c-2.585 0.435-4.37 0.085-5.566-0.243-1.611 1.504-3.644 2.579-6.117 2.992-0.503 0.059-0.986 0.09-1.457 0.101 11.201 9.284 10.327 19.924 9.856 28.043 1.653 0.164 3.279 0.747 4.772 1.748 5.095-2.209 14.951 0.656 22.509 24.796 3.903 22.387 0.333 42.936-28.578 53.904-5.905 2.262-10.932 3.596-15.258 4.189-2.463 28.377-8.5 36.11-23.59 43.895 11.837-12.722 17.663-12.997 19.363-43.54-13.595 0.313-18.96-8.103-22.556-18.393 7.886 17.133 24.463 17.609 39.975 9.84 20.38-7.579 32.529-20.416 26.852-48.115-3.941-12.6-10.545-24.744-15.884-23.971 3.305 4.01 5.228 10.63 3.909 19.4-2.298-16.603-10.958-26.015-17.785-17.7 4.582 3.257 7.076 12.722 5.646 22.869-1.419-14.485-8.77-23.838-14.553-17.88-4.094 5.09-3.703 21.148-1.955 32.1-1.335-1.398-2.436-4.931-3.061-9.294-9.644 4.628-28.531 10.136-30.712 15.882-3.284 10.016-5.54 24.612-15.603 33.604 9.931-15.888 9.459-25.357 13.543-36.305 0.82-1.906 2.526-3.611 4.809-5.184-11.832-2.034-23.515-8.13-35.527-15.862 15.756 8.166 29.25 12.266 40.441 13.018 6.816-3.422 15.735-6.377 22.594-9.84-0.44-7.706 0.572-16.456 4.051-20.867 2.462-2.447 4.788-3.48 6.864-3.432 1.838-2.463 4.052-3.957 6.345-4.576 0.556-8.728 1.535-19.384-12.218-29.452-0.668-0.291-1.261-0.609-1.796-0.937-0.662 0.228-1.366 0.418-2.119 0.534-16.894 0-27.332-6.074-42.67-11.005 21.692 3.977 21.412 7.563 39.218 7.642 14.183-1.832 11.084-17.36 2.589-20.824-9.946-4.057-46.77-2.563-68.495-2.007-2.197 0.058-4.141 1.477-4.83 3.564-8.299 25.167-7.589 66.917 7.902 93.334 8.14 22.339 12.531 79.421 38.366 95.028 1.504 0.911 3.082 1.679 4.739 2.294 24.161-7.854 48.296-7.865 70.651-2.754 7.96 1.816 15.692 4.284 23.123 7.277 16.392-20.475 18.775-52.665 17.377-76.662-2.04-1.308-4.121-3.019-6.229-5.206-6.604-7.674-25.283-37.248-13.452-38.985-1.97-8.5 6.366-11.99 11.387-10.386-9.507-28.493-24.77-45.112-46.521-57.944 0.841 6.439-2.67 13.552-10.349 15.31m0.249-22.248c-1.854-0.71-3.326-0.721-5.169-0.679 4.66 5.328 5.132 14.412 1.35 20.274 0.392 0.016 0.8 0.027 1.229 0.027 14.188-1.727 11.085-16.355 2.59-19.622m-11.684-0.054c-1.912-0.826-3.415-0.815-5.338-0.757 5.561 6.286 5.492 17.583-1.022 22.344 1.038 0.35 2.176 0.499 3.776 0.509 14.183-1.949 11.079-18.42 2.584-22.096m-209.35 24.627 11.122 8.299c-19.68 9.555-44.133 30.538-59.317 72.378-22.9 80.024 76.8 117.22 59.873 183.72 5.381-2.812 10.635-5.317 15.682-7.907 21.916-11.254 39.975-24.129 48.2-71.127 3.178 2.384 7.357 4.152 8.739 8.739 18.849-60.577-65.307-128.88 29.187-164.85-0.291-2.723-0.492-5.403-0.609-8.025-0.159-3.394-0.18-6.704-0.085-9.898 0.175-6.127 0.773-11.853 1.668-17.048-25.474-13.007-82.137-14.194-114.46 5.714m131.49 194.22c6.328-0.774 10.83 0.423 16.518 1.551-6.424 3.644-11.683 8.273-12.917 12.192 48.19 13.971-8.458 81.38 49.191 113.79 8.621 4.851 19.802 8.913 34.276 11.9 81.142 13.966 76.922-78.796 117.97-68.32 1.059-3.972-0.901-10.698-4.37-17.212 5.403 2.097 10.741 4.067 15.677 8.108-15.115-32.82-50.229-74.617-101.58-86.036-32.184-7.155-70.746-2.378-114.77 24.024m-1.679 133.41c-6.303 19.395-5.063 41.379-3.617 42.761 2.917 2.277 18.086-13.997 33.815-31.417 2.124-2.351 4.259-4.724 6.371-7.075 2.691-2.987 3.671-7.139 2.628-11.021-0.292-1.086-1.144-2.188-1.399-3.316-6.636-5.91-10.55-11.069-13.526-18.229-12.732 3.929-20.131 15.555-24.272 28.297m114.95 25.58c4.423 26.211 10.667 47.851 14.84 47.443 3.252-0.646 33.53-43.592 11.726-69.157-6.356 4.449-12.128 7.235-20.899 8.67-0.821 0.816-1.981 2.33-1.981 2.33s-4.353 6.753-3.686 10.714m63.962-262.13c-3.951 5.694-10.264 8.659-17.567 6.313 1.271 16.042 1.732 29.251-2.087 43.375 10.275-15.39 18.293-37.708 19.654-49.688m-30.087-48.158c-4.846-1.371-12.568 1.335-8.554 8.898l10.042 8.823-11.832-7.277c-0.71 0.292-1.308 0.906-1.689 1.965-2.696 7.383 8.823 25.237 15.862 32.762 24.712 22.159 33.185-13.24 20.655-30.362-3.591-8.771-18.579-20.205-21.651-15.593l7.923 10.28zm36.442-42.951c-2.304 0.424-5.497 0.662-6.577 0.386-1.42 1.367-4.815 1.298-7.018 1.7 25.591 17.822 20.592 39.949 7.664 52.596 7.679 9.475 9.051 22.297 6.424 30.914 3.776 15.523-14.787 56.79-30.124 71.127-2.511 5.132-3.528 10.518-7.415 16.307 47.231 20.793 76.227 63.045 75.046 92.338-4.497-3.781-8.294-5.519-12.43-7.298 1.144 5.72 1.255 11.572-0.281 15.242-28.488-13.531-35.844 31.12-63.728 54.423 25.448 27.89-10.815 83.542-18.362 83.542-4.814 0-14.199-22.509-21.052-58.878-0.259-1.382-0.281-2.812-0.037-4.194 0.588-3.326 2.902-5.497 4.761-7.256-3.49 0.101-7.181-0.079-11.09-0.566-15.46-1.24-30.326-4.481-44.207-11.059-2.394-1.128-4.761-2.362-7.097-3.702-1.8-1.001-3.522-2.076-3.522-2.076 0.631 2.484-5e-3 6.048-1.292 9.168-0.535 1.303-1.318 2.499-2.277 3.527-0.646 0.688-1.287 1.377-1.933 2.055-24.426 25.962-44.901 44.461-48.857 41.945-4.306-2.727-5.471-37.179 5.46-62.304 5.243-12.064 13.288-21.979 25.104-25.193-11.053-34.616 6.657-76.259-24.643-80.099 0.667-3.919 3.893-8.802 7.928-13.018-4.443-0.715-9.115-2.346-14.935-1.557 15.581-14.204 30.156-22.89 46.368-29.007-0.975-0.424-1.923-0.901-2.839-1.425-27.434-15.671-28.854-74.378-40.187-96.697-3.469-7.493-6.477-13.203-8.68-19.15-1.415-3.787-2.495-7.669-3.168-12.176-83.012 31.337 5.297 111.35-26.194 169.88-1.716-2.929-4.846-9.629-7.187-11.482-8.304 36.771-21.492 54.433-50.621 69.443-8.759 4.517-18.96 8.791-30.903 13.272 2.431-4.269 4.126-8.538 5.18-12.817 13.743-55.694-80.501-112.63-61.319-184.02 13.241-42.544 31.952-59.317 56.494-76.439l-17.302-6.885c45.192-19.85 73.452-30.755 133.43-16.873 0.826 0.185 1.657 0.381 2.494 0.582 2.013-8.76 3.771-12.345 6.541-16.254 27.842-0.889 65.031-2.589 74.151-0.222 5.678 0.206 10.063-0.286 13.341 0.646 5.323 0.074 9.417-0.265 12.462 0.768 2.029 0.683 7.113 4.708 7.113 4.708s52.045-1.483 59.809 0.408c5.09 0.106 9.003-0.392 11.954 0.403 4.766-0.011 10.544-0.366 13.282 0.513 11.016 3.538 11.996 21.889 0.27 24.76" style="fill:#3c3c3b"/></g><g transform="matrix(.35278 0 0 -.35278 574.34 444.27)"><path d="m0 0c1.786 7.683 1.717 12.921-2.858 12.223l-3.186 8.518c-33.216-15.327-82.163-18.354-136.11-6.293l-5.637-9.455c-6.964-5.711-10.088-12.454 24.211-29.255 38.422-13.744 68.967-12.938 94.493-2.859-2.438-24.8 1.262-23.707 25.562-15.973 14.867 11.315 11.053 26.791 3.526 43.094m-74.985 149.28c25.889 8.751 43.725 20.331 55.296 34.112-16.865-4.485-31.906-0.978-44.436 13.53l0.146 1.046c0.861-0.63 1.43-1.046 1.43-1.046 0.066 0.199 4.666 20.93 4.666 20.93l-2.91 2.955-22.152 4.469c-0.447-0.468-0.901-0.93-1.368-1.38-3.195-3.085-6.755-6.016-10.848-7.814-6.826-2.997-14.207-2.36-20.301 1.503 0.107-0.18 0.208-0.359 0.317-0.538l-15.136-15.689-7.081-12.015c5.975-6.352 7.852-8.039 10.74-11.47 0 0 0.384 0.774 0.956 1.928l0.282-1.319c-5.005-13.98-15.995-26.56-30.541-38.309 20.935-5.221 48.539-1.334 80.94 9.107" style="fill:#f48811"/></g><g transform="matrix(.35278 0 0 -.35278 522.2 442.51)"><path d="m0 0c-6.034-4.948-9.179-10.673 12.396-23.041 0.757 3.159 1.648 6.303 1.819 9.48 0.316 5.854 0.532 11.19 4.119 16.12 0.989 1.358 2.066 2.608 3.229 3.75-5.253 0.903-10.563 1.947-15.926 3.146zm12.011 115.32c42.317 1.755 81.41 13.329 105.38 27.937 33.118 22.732 27.04 31.087 15.226 37.337-14.693-15.374-34.488-27.177-58.522-36.013-28.655-12.699-57.585-13.492-86.648-8.474-5.196-8.158-2.857-24.164 24.569-20.787m135.78-120.31c1.786 7.682 1.717 12.921-2.858 12.223l-3.186 8.518c-3.204-1.478-6.564-2.833-10.053-4.078 1.212-1.551 2.313-3.219 3.253-4.962 4.685-7.129 8.936-16.22 5.219-23.08-8e-3 -3.558-3.015-7.072-6.678-6.487-1.921-1.744-4.09-3.166-6.657-4.05-1.708-0.588-3.882 0.993-3.724 2.837 0.908 10.608-2.351 22.418-9.209 30.683-7.914-1.748-16.315-3.01-25.143-3.746 3.6-14.128 3.312-28.776-1.392-42.13 11.269 0.865 21.67 3.333 31.341 7.151-0.242-2.456-0.422-4.654-0.528-6.62 12.518 0.861 24.637 3.943 34.591 12.069 0.506 0.414 1 0.839 1.49 1.268-0.657 6.468-3.213 13.358-6.466 20.404m-115.61-18.894c-0.14-2.668-0.176-5.335-0.136-8.001 8.421-2.651 16.448-4.576 24.121-5.847 0.265 2.339 0.576 4.673 0.873 7.005 1.398 10.972 1.421 22.062 3.438 32.949-6.61 0.235-13.376 0.72-20.28 1.474-5.54-7.861-7.523-18.111-8.016-27.58m21.32 235.96c3.704 1.848 6.97 4.611 9.909 7.497 0.342 0.336 0.677 0.679 1.008 1.025-7e-3 19.455-6.34 31.574-21.713 33.21-17.766-12.575-18.908-26.113-10.989-40.174 6.464-4.55 14.563-5.16 21.785-1.558m34.368-8.385c1.06 4.764 2.036 9.162 2.036 9.162l-2.911 2.956-5.393 1.088c-8.402-7.394-18.258-13.198-29.035-16.263-9.196-2.615-21.733-4.249-31.279-0.355l-3.78-3.919-5.269-8.939c34.418-9.028 72.481 11.856 75.631 16.27m-75.824-53.27c6.655-0.525 13.437-0.776 20.11-0.543 6.879 0.24 11.326 0.773 17.782 2.063 6.331 1.266 12.573 3.003 18.63 5.239 3.362 1.242 4.589 1.763 7.764 3.297 2.884 1.395 5.676 2.951 8.427 4.591 5.311 3.165 10.445 6.62 15.401 10.315 1.126 0.84 2.344 1.787 3.611 2.8-4.902 1.477-9.565 3.998-13.966 7.668-7.158-3.898-14.588-7.29-22.259-10.082-9.687-3.525-19.653-5.604-29.851-6.938-5.34-0.698-11.628-1.367-17.508-0.647-2.881-6.041-6.874-11.822-11.772-17.391 0.441-0.056 1.003-0.13 1.085-0.139 0.847-0.089 1.696-0.165 2.546-0.233" style="fill:#1aad33"/></g><g transform="matrix(.35278 0 0 -.35278 -495.15 575.87)"><g clip-path="url(#clipPath2719)" style="opacity:.25"><g transform="translate(3037.6 344.04)"><path d="m0 0c-0.018 0.062-0.037 0.122-0.056 0.184 0.035-0.146 0.056-0.215 0.056-0.184m0.71-4.032-1.008 5.017c0.081-0.262 0.162-0.531 0.242-0.801-0.366 1.523-2.498 12.047-4.088 19.938l-1.781 8.861c-5.668-8.526-11.295-17.09-20.961-21.916 2.068-4.623 3.67-10.678 4.578-18.867 3.692 19.382 10.77 28.16 16.711 22.749 0.576-3.055 0.816-13.283-1.386-22.078-20.124-4.656-22.17-0.566-23.165 14.943l-4.865-1.952 1.262-18.988c7.952-1.892 17.072 0.91 26.62 5.433-0.107-0.407-0.218-0.811-0.336-1.21l1.735 1.883c0.25 0.122 0.499 0.244 0.75 0.368-0.181-0.044-0.349-0.082-0.526-0.125zm-9.493 45.238c-0.582 9.399-4.207 11.372-10.951 5.741-1.569-14.305-10.965-24.541-31.78-40.033 22.909 8.45 36.559 21.514 42.731 34.292m-61.121-24.011c-37.968 0.071-63.5 10.984-66.335 24.037l-13.744 2.199c-2.382-3.278-3.642-6.678-3.065-10.277l-0.669 0.822c-5.785-2.953-6.721-8.028 1.298-17.021 25.265-18.989 62.48-24.944 88.68-20.714-39.966 4.532-66.38 12.038-77.826 22.829 20.723-8.489 45.357-7.26 71.661-1.875m-66.705 132.36c41.801 3.027 69.779 12.854 92.899 25.073-38.935-14.711-87.142-15.875-104.51-7.21 29.125-2.033 59.737 6.322 91.233 20.847-31.684-6.467-74.494-12.667-74.318-3.722 0.588 12.123 12.005 40.31 18.575 44.217h-3e-3c13.696 8.1 29.465 15.118 23.442 30.048-20.268-15.053-33.287 0.542-28.744 24.324-11.526-11.672-12.926-23.2-2.84-34.563-10.512-10.157-17.153-20.218-22.408-30.245l10.74-11.469c0.17 0.251 0.329 0.495 0.484 0.737-7.156-14.421-16.19-27.41-28.82-37.658l-5.392 0.148c-4.434-12.114-3.166-24.936 29.666-20.527" style="fill:#1d1d1b"/></g></g></g><g transform="matrix(.35278 0 0 -.35278 -495.15 575.87)"><g clip-path="url(#clipPath2735)" style="opacity:.2"><g transform="translate(2901.2 384.86)"><path d="m0 0c7.936-15.103 51.491-22.954 85.545-13.461-6.559-7.097-24.907-17.697-52.771-22.47 59.434-3.987 79.634 27.575 83.882 40.084l-0.022-0.011c0.743 0.816 1.463 1.651 2.141 2.519-34.6-13.014-79.952-16.108-118.78-6.661m62.917 190.21c1.307-13.397 7.09-26.075 27.468-36.406-15.675-9.97-34.835-17.615-64.471-25.294 36.013-0.886 66.38 7.326 84.863 15.832 17.882 13.385 13.924 26.537 4.509 29.406-23.245-8.841-40.09-1.841-52.369 16.462m6.153 0 3.513 15.802c-5.582 4.177-12.852 6.292-22.731 5.217 11.366-4.777 16.666-10.371 19.218-21.019m-29.649 26.967c4.983 1.703 6.808 9.568 4.075 17.567s-8.988 13.104-13.972 11.401-7.338-9.568-4.605-17.567c2.732-7.999 9.518-13.104 14.502-11.401" style="fill:#fff"/></g></g></g><g transform="matrix(.35278 0 0 -.35278 575.6 454.52)"><path d="m0 0c0-5.517-2.913-14.077-24.627-15.977-11.648-0.464-4.302 6.862-6.276 16.883 2.359 1.019 4.635 2.126 6.825 3.316 1.063-2.687 3.151-9.876 4.117-15.962 0.377 6.266-0.018 13.534-1.101 17.685 0.959 0.576 1.901 1.168 2.822 1.778 6.275 5.326 10.544 10.899 13.24 16.022 3.076-5.278 5.402-20.647 5-23.745m-135.32 10.685c-21.564 12.041-20.997 16.739-16.686 20.195 6.184-19.811 43.922-26.419 84.447-13.626-39.099-8.871-89.746 1.009-79.765 21.937 6.696 11.709 41.797-29.923 134.21 7.815 11.343-0.488 0.928-23.968-36.058-40.033 25.987 7.899 39.013 21.54 43.01 31.72 4.383-2.872-0.681-13.738-13.807-28.008-44.052-26.22-92.139-10.597-115.35 0m133.44 21.138c1.565 6.571 0.11 11.248-3.004 11.667l-1e-3 -2e-3c0.155 1.261 0.135 2.417-0.047 3.443l5e-3 -2e-3c-0.191 4.009-1.256 8.369-2.768 7.427 0 0-4.11-2.367-4.987-2.865-7.889-3.44-15.255-5.647-22.457-7.791-62.516-18.615-99.156 7.605-112.55 2.008l-3.187 1.515c-3.07-2.385-3.781-8.471-1.97-11.666l5e-3 7e-3c1e-3 -0.011 1e-3 -0.021 1e-3 -0.032l-6e-3 0.025c-8.153-1.981-11.141-15.023 16.121-28.584 39.385-17.219 75.977-17.739 102.81-7.302 0.453-7.384-4.554-16.962 2.935-19.402v-4.445c0-0.853 0.691-1.544 1.544-1.544s1.545 0.691 1.545 1.544v3.902c0.444-0.029 0.91-0.045 1.406-0.044 0.903-0.03 1.81-0.028 2.718 1e-3v-3.859c0-0.853 0.692-1.544 1.545-1.544s1.545 0.691 1.545 1.544v4.07c1.157 0.121 2.306 0.291 3.443 0.501v-3.865c0-0.853 0.692-1.544 1.545-1.544s1.545 0.691 1.545 1.544v4.547c0.989 0.256 1.962 0.543 2.912 0.862v-3.643c0-0.853 0.692-1.545 1.545-1.545s1.545 0.692 1.545 1.545v4.829c0.808 0.348 1.592 0.72 2.351 1.114v-4.001c0-0.853 0.691-1.545 1.544-1.545s1.545 0.692 1.545 1.545v5.829c0.839 0.568 1.623 1.167 2.351 1.794v-2.972c0-0.853 0.692-1.544 1.545-1.544s1.545 0.691 1.545 1.544v6.3c1.524 2.13 2.415 4.471 2.447 6.957-0.123 13.54-4.586 29.375-7.065 33.677m-159.67 136.35c43.635-10.506 115.47 12.857 141.72 44.254 0 0 18.683-7.962-3.812-23.887-16.66-12.976-58.006-36.613-124.62-37.21-14.976-0.852-18.751 8.741-13.282 16.843m141.7 15.811c16.144 14.442 13.893 26.936 1.37 34.813-0.538-0.902-1.146-1.811-1.819-2.724-10.958-5.231-33.531-5-50.826 15.012 7.111-19.905 29.763-26.922 46.255-20.292-24.674-24.985-92.345-50.535-131.54-40.968 18.62 12.027 25.353 26.056 30.089 45.063-6.489-14.081-15.148-29.905-34.945-43.635-1.108 0.382-2.194 0.789-3.242 1.239-4.782-4.946-11.48-25.489 16.431-25.273 39.945 0 90.921 6.826 128.22 36.765m-102.48 78.601c0 9.109 6.414 22.164 15.524 22.164 9.114 0 16.947-13.055 16.947-22.164 0-2.098-0.392-4.105-1.107-5.953-0.593-1.536-1.414-2.966-2.42-4.237-3.019-3.845-7.711-6.313-12.976-6.313-2.055 0-4.019 0.376-5.831 1.059-1.716 0.652-3.289 1.578-4.676 2.728-3.66 3.024-5.461 7.594-5.461 12.716m4.709-19.098c3.299-1.949 7.15-3.072 11.259-3.072 8.527 0 15.931 4.814 19.638 11.874 9.793-0.551 17.742-2.781 25.263-5.402l1.155 4.343c-7.378 2.812-15.481 4.745-24.734 5.264 0.551 1.933 0.848 3.978 0.848 6.091 0 12.239-10.37 27.831-22.614 27.831-12.24 0-21.72-15.592-21.72-27.831 0-6.281 2.611-11.948 6.806-15.979-8.427-6.223-15.852-14.675-22.499-24.865l3.279-3.363c6.89 9.972 14.522 18.595 23.319 25.109" style="fill:#994100"/></g><g transform="matrix(.35278 0 0 -.35278 567.26 388.01)"><path d="m0 0c-16.66-12.976-58.006-36.613-124.62-37.21-14.976-0.852-18.751 8.742-13.281 16.843 43.634-10.505 115.47 12.857 141.72 44.254 0 0 18.684-7.961-3.812-23.887m5.163 30.257c-0.539-0.902-1.146-1.811-1.82-2.723l-4.571-5.281c-24.674-24.985-92.344-50.535-131.54-40.968l-4.856 1.429c-1.107 0.382-2.193 0.789-3.242 1.238-4.781-4.946-11.479-25.489 16.431-25.272 39.946 0 90.921 6.826 128.22 36.765 16.143 14.441 13.892 26.935 1.37 34.812" style="fill:#005b11"/></g><g transform="matrix(.35278 0 0 -.35278 543.51 363.98)"><path d="m0 0c-0.593-1.536-1.414-2.966-2.42-4.237-3.019-3.844-7.711-6.313-12.976-6.313-2.055 0-4.02 0.376-5.831 1.06-1.716 0.651-3.289 1.578-4.676 2.727-3.66 3.024-5.461 7.595-5.461 12.716 0 9.109 6.414 22.164 15.523 22.164 9.115 0 16.948-13.055 16.948-22.164 0-2.097-0.392-4.104-1.107-5.953m5.926-0.138c0.551 1.934 0.848 3.978 0.848 6.091 0 12.239-10.37 27.832-22.615 27.832-12.239 0-21.719-15.593-21.719-27.832 0-6.281 2.611-11.948 6.805-15.978 0.953-1.063 2.848-2.492 4.099-3.12 3.3-1.949 7.15-3.071 11.26-3.071 8.527 0 15.931 4.814 19.638 11.873 0.713 1.234 1.291 2.651 1.684 4.205" style="fill:#005b11"/></g></g></g></svg>
