<?xml version="1.0" encoding="UTF-8"?>
<svg width="100mm" height="113.99mm" version="1.1" viewBox="0 0 100 113.99" xmlns="http://www.w3.org/2000/svg" xmlns:xlink="http://www.w3.org/1999/xlink"><g transform="translate(-86.217 -90.882)"><g transform="translate(36.432 -19.747)"><g transform="matrix(1 0 0 .79152 -43.217 65.485)"><g transform="matrix(1.6667 0 0 2.1821 -29.606 -80.256)"><g transform="translate(17.387 -20.411)"><g transform="translate(56.179 83.327)"><g transform="translate(-10 -221)"><rect x="10" y="233" width="60" height="20" ry="5.0878" style="fill-rule:evenodd;fill:#f9f9f9;stroke-width:.26966"/><circle cx="25" cy="243" r="9" style="fill-rule:evenodd;fill:#5df;paint-order:normal"/><ellipse cx="24.977" cy="242.98" rx="3.949" ry="3.949" style="fill-rule:evenodd;fill:#0cf;paint-order:normal"/><circle cx="23.255" cy="241.07" r="1.3776" style="fill-rule:evenodd;fill:#d5f6ff;paint-order:normal"/><circle cx="27.25" cy="245.53" r=".68878" style="fill-rule:evenodd;fill:#d5f6ff;paint-order:normal"/><circle cx="55" cy="243" r="9" style="fill-rule:evenodd;fill:#5df;paint-order:normal"/><ellipse cx="54.977" cy="242.98" rx="3.949" ry="3.949" style="fill-rule:evenodd;fill:#0cf;paint-order:normal"/><circle cx="53.255" cy="241.07" r="1.3776" style="fill-rule:evenodd;fill:#d5f6ff;paint-order:normal"/><circle cx="57.25" cy="245.53" r=".68878" style="fill-rule:evenodd;fill:#d5f6ff;paint-order:normal"/><ellipse cx="40" cy="251" rx="3.8666" ry=".86656" style="fill-rule:evenodd;fill:#ff8080;paint-order:normal;stroke-linecap:round;stroke-linejoin:round;stroke-width:.26687;stroke:#f9f9f9"/><path d="m35 253h10l1 4h-12z" style="fill-rule:evenodd;fill:#50162d"/><path transform="matrix(.068372 .11693 -.071171 .039884 75.181 251.94)" d="m87.612 250.32c0 30.701 3.5649 27.136-27.136 27.136-30.701 0-27.136 3.5649-27.136-27.136 0-30.701-3.5649-27.136 27.136-27.136 30.701 0 27.136-3.5649 27.136 27.136z" style="fill-rule:evenodd;fill:#50162d;paint-order:normal"/><circle cx="58" cy="263" r="4" style="fill-rule:evenodd;fill:#f9f9f9;paint-order:normal"/><path transform="matrix(.068372 -.11693 -.071171 -.039884 32.181 286.06)" d="m87.612 250.32c0 30.701 3.5649 27.136-27.136 27.136-30.701 0-27.136 3.5649-27.136-27.136 0-30.701-3.5649-27.136 27.136-27.136 30.701 0 27.136-3.5649 27.136 27.136z" style="fill-rule:evenodd;fill:#50162d;paint-order:normal"/><circle cx="22" cy="263" r="4" style="fill-rule:evenodd;fill:#f9f9f9;paint-order:normal"/><circle cx="64" cy="274" r="3" style="fill-rule:evenodd;fill:#f9f9f9;paint-order:normal"/><circle cx="16" cy="274" r="3" style="fill-rule:evenodd;fill:#f9f9f9;paint-order:normal"/><path transform="matrix(.5502 0 0 .3668 6.7261 175.18)" d="m87.612 250.32c0 30.701 3.5649 27.136-27.136 27.136-30.701 0-27.136 3.5649-27.136-27.136 0-30.701-3.5649-27.136 27.136-27.136 30.701 0 27.136-3.5649 27.136 27.136z" style="fill-rule:evenodd;fill:#f9f9f9;paint-order:normal"/><path transform="matrix(.14672 0 0 .12838 25.127 248.36)" d="m87.612 250.32c0 30.701 3.5649 27.136-27.136 27.136-30.701 0-27.136 3.5649-27.136-27.136 0-30.701-3.5649-27.136 27.136-27.136 30.701 0 27.136-3.5649 27.136 27.136z" style="fill-rule:evenodd;fill:#50162d;paint-order:normal"/><path transform="matrix(.14672 0 0 .12838 37.127 248.36)" d="m87.612 250.32c0 30.701 3.5649 27.136-27.136 27.136-30.701 0-27.136 3.5649-27.136-27.136 0-30.701-3.5649-27.136 27.136-27.136 30.701 0 27.136-3.5649 27.136 27.136z" style="fill-rule:evenodd;fill:#50162d;paint-order:normal"/><circle cx="34" cy="283" r="4" style="fill-rule:evenodd;fill:#f9f9f9;paint-order:normal"/><circle cx="46" cy="283" r="4" style="fill-rule:evenodd;fill:#f9f9f9;paint-order:normal"/><g transform="matrix(.060038 0 0 .06162 20 221)"><path d="m176.18 215.03s36.925-135.74 149.32-136.57 159.17 42.624 164.55 153.48c-104.22-41.083-187.46 15.797-218.16 43.969-31.64-40.63-33.99-59.43-95.71-60.88z"/><path d="m661.07 68.443c6.354 2.381 8.366 10.915-7.487 14.596l-332.06 101.24c-6.264 1.918-14.637 4.998-16.13 0.121l-304.61-78.23c-1.493-4.877 2.375-10.385 8.64-12.304l297.35-91.084c9.801-3.107 9.801-3.107 19.857 0.053z" style="stroke-width:.9162;stroke:#333"/><path d="m552.78 150.36c0-12.811-18.305-31.293-27.322-27.37" style="fill:none;stroke-width:6;stroke:#000"/><circle cx="552.67" cy="150.34" r="5.579"/><circle cx="552.78" cy="156.88" r="8.095"/><circle cx="552.78" cy="164.01" r="8.095"/><path d="m571.77 197.29c-0.737-1.001-1.598-1.822-1.805-2.672-1.618-6.629-6.54-26.801-13.305-28.636-0.915-0.248-1.477-1.281-1.256-2.308s1.144-1.654 2.057-1.409c7.684 2.083 12.294 17.014 15.79 31.343 0.249 1.019-0.028 2.269-0.397 3.485-0.05 0.167-0.296 1.196-0.444 1.196l-0.64-0.99z"/><path d="m567.52 200.05c-0.737-1.001-1.598-1.822-1.805-2.672-1.618-6.629-6.54-26.801-13.305-28.636-0.915-0.248-1.477-1.281-1.256-2.308s1.144-1.654 2.057-1.409c7.684 2.083 12.294 17.014 15.79 31.343 0.249 1.019-0.028 2.269-0.397 3.485-0.05 0.167-0.296 1.196-0.444 1.196l-0.65-0.99z"/><path d="m557.14 201.4c0.15-1.233 0.497-2.371 0.262-3.214-1.845-6.57-7.456-26.561-2.462-31.479 0.674-0.666 0.656-1.841-0.038-2.628-0.697-0.785-1.809-0.88-2.485-0.218-5.672 5.587-2.36 20.856 1.626 35.059 0.283 1.009 1.139 1.962 2.056 2.841 0.127 0.121 0.845 0.897 0.975 0.824l0.06-1.18z"/><path d="m550.8 200.9c0.15-1.233 0.497-2.371 0.262-3.214-1.845-6.57-7.456-26.561-2.462-31.479 0.674-0.666 0.656-1.841-0.038-2.628-0.697-0.785-1.809-0.88-2.485-0.218-5.672 5.587-2.36 20.856 1.626 35.059 0.283 1.009 1.139 1.962 2.056 2.841 0.127 0.121 0.845 0.897 0.975 0.824l0.06-1.18z"/><path d="m563.44 199.58c0.205-1.528 0.678-2.938 0.356-3.982-2.516-8.141-10.169-32.91-3.357-39.004 0.919-0.825 0.896-2.28-0.052-3.256-0.951-0.973-2.467-1.09-3.39-0.27-7.736 6.922-3.22 25.842 2.218 43.439 0.386 1.25 1.553 2.431 2.804 3.52 0.173 0.15 1.151 1.112 1.329 1.021l0.09-1.47z"/></g><g transform="rotate(-45 31.412 288.29)"><rect x="60" y="281" width="3" height="3" style="fill-rule:evenodd;fill:#f55;stroke-width:.25547"/><circle cx="61.5" cy="281" r="1.5" style="fill-rule:evenodd;fill:#f55;paint-order:normal"/><circle cx="63" cy="282.5" r="1.5" style="fill-rule:evenodd;fill:#f55;paint-order:normal"/></g></g><g transform="translate(-10 -221)" style="display:none"><ellipse cx="73.887" cy="54.906" rx="24.946" ry="12.473" style="fill-rule:evenodd;fill:#ff8080;paint-order:normal"/><ellipse cx="73.963" cy="54.734" rx="6.0136" ry="4.9445" style="fill-rule:evenodd;fill:#f00;paint-order:normal"/><ellipse cx="71.319" cy="52.497" rx="1.63" ry="1.5119" style="fill-rule:evenodd;fill:#fff;paint-order:normal"/><ellipse cx="76.375" cy="58.143" rx=".82682" ry=".87407" style="fill-rule:evenodd;fill:#fff;paint-order:normal"/><ellipse cx="136.45" cy="54.717" rx="24.946" ry="12.473" style="fill-rule:evenodd;fill:#ff8080;paint-order:normal"/><ellipse cx="136.53" cy="54.545" rx="6.0136" ry="4.9445" style="fill-rule:evenodd;fill:#f00;paint-order:normal"/><ellipse cx="133.88" cy="52.308" rx="1.63" ry="1.5119" style="fill-rule:evenodd;fill:#fff;paint-order:normal"/><ellipse cx="138.94" cy="57.954" rx=".82682" ry=".87407" style="fill-rule:evenodd;fill:#fff;paint-order:normal"/><rect x="92.743" y="50.845" width="24.054" height="7.7508" rx="4" ry="3.8754" style="fill-rule:evenodd;fill:#ff8080;stroke-width:.26458"/><rect x="95.237" y="58.325" width="19.762" height="29.762" rx="3.4856" ry="4.6318" style="display:inline;fill-rule:evenodd;fill:#ff8080"/></g></g></g></g></g></g></g></svg>
