<?xml version="1.0" encoding="UTF-8"?>
<svg width="100mm" height="114mm" version="1.1" viewBox="0 0 100 114" xmlns="http://www.w3.org/2000/svg"><g transform="translate(-5.1845 -85.03)"><g transform="translate(186.31 -13.056)"><g transform="matrix(1.7656 0 0 1.9139 -181.13 98.086)" style="fill-rule:evenodd"><path d="m14.371 15.783v-4.2335s0.16751-0.81634 0.71996-1.177 7.1892-4.6451 7.4612-4.8386 0.93111-0.04836 1.1549-0.16919c0.16852-0.17502 0.09514-0.64008 0.43296-0.88758l6.5925-4.286c0.27252-0.22551 0.81095-0.2815 1.0592 4.5e-4l6.9292 6.063c0.22046 0.20274 0.02726 0.94065 0.19971 1.1323 0.19365 0.21564 1.0214 0.07472 1.2447 0.21609l6.929 6.1589c0.27331 0.32043 0.18411 1.0275 0.38494 1.2512 0.30405 0.32986 1.0434 0.10412 1.4442 0.38573l7.5068 6.8327c0.2254 0.23987 0.28172 0.8666 0.09615 1.1549l-8.8299 18.359-5.505 4.1581c-0.1067 0.07865-0.42264 0.02008-0.53618 0.11253-0.07416 0.06631 0.03355 0.33805-0.07831 0.425l-3.3259 2.6401 0.86032 4.1364c0.02098 0.26972-0.06664 0.53955-0.19791 0.67901l-6.8335 5.3898c-0.46887 0.38046-0.9917 0.33692-1.3302 0.08695l-7.1474-4.2777c-0.4075-0.16078-0.38292-0.49871-0.59666-0.61405-0.25614-0.08807-0.46797 0.27488-0.70235 0.13239l-6.9956-4.197c-0.29328-0.20218-0.16504-0.66532-0.54864-0.82239-0.40626-0.05801-0.46034 0.30248-0.90306 0l-4.7788-2.8202c-0.17121-0.08392-0.38606-0.31965-0.48121-0.57747l-2.3284-6.8304c-0.10984-0.24582 0.17873-0.575 0.10176-0.79906-0.05127-0.21328-0.483-0.38651-0.5777-0.68675l-2.4037-7.7505c-0.12555-0.32481 0.24863-0.80848 0.16852-1.1106-0.19399-0.40626-0.63772-0.22192-0.83148-0.62818l-2.6041-8.3397c-0.24212-0.52171-0.09178-0.98104 0.19791-1.1886l7.6995-4.8123c0.32885-0.16919 0.72994-0.12084 1.0588 0l4.5235 1.8288c0.40155 0.18524 0.75508 0.17738 0.77011-0.09638z" style="fill:#1a1a1a"/><path d="m36.188 16.03c3.1193 2.8181 3.4453 3.4922-0.21598 0.23797s-4.0337-4.0405 0.21598-0.23797z" style="fill:#4d4d4d"/><path d="m23.128 17.672a0.30271 0.49183 0 1 0-0.60542 0 0.30271 0.49183 0 1 0 0.60542 0" style="fill:#808080"/><path d="m40.417 19.608a0.30271 0.49183 0 1 0-0.60542 0 0.30271 0.49183 0 1 0 0.60542 0" style="fill:#999"/><path d="m45.335 24.247c2.7678 2.5007 3.0571 3.0988-0.19174 0.21115s-3.5793-3.5853 0.19174-0.21115z" style="fill:#4d4d4d"/><path d="m49.6 27.782a0.30271 0.49183 0 1 0-0.60542 0 0.30271 0.49183 0 1 0 0.60542 0" style="fill:#808080"/><path d="m40.871 34.367a0.30271 0.49183 0 1 0-0.60542 0 0.30271 0.49183 0 1 0 0.60542 0" style="fill:#666"/><path d="m37.11 30.983c2.7679 2.5006 3.0572 3.0987-0.19163 0.21115s-3.5793-3.5853 0.19163-0.21115z" style="fill:#666"/><path d="m31.713 11.54a0.30271 0.49183 0 1 0-0.60542 0 0.30271 0.49183 0 1 0 0.60542 0" style="fill:#808080"/><path d="m27.619 8.1215c2.7679 2.5006 3.0572 3.0988-0.19163 0.21115s-3.5793-3.5853 0.19163-0.21115z" style="fill:#333"/><path d="m19.17 14.526c2.7679 2.5007 3.0572 3.0988-0.19163 0.21115s-3.5793-3.5853 0.19163-0.21115z" style="fill:#333"/><path d="m23.999 29.459a0.47542 0.49183 0 1 0-0.95084 0 0.47542 0.49183 0 1 0 0.95084 0" style="fill:#808080"/><path d="m15.269 25.622a0.30271 0.49183 0 1 0-0.60542 0 0.30271 0.49183 0 1 0 0.60542 0" style="fill:#808080"/><path d="m7.3653 22.266a0.30271 0.36136 0 1 0-0.60542 0 0.30271 0.36136 0 1 0 0.60542 0" style="fill:#808080"/><path d="m10.5 32.623a0.30271 0.36136 0 1 0-0.60542 0 0.30271 0.36136 0 1 0 0.60542 0" style="fill:#666"/><path d="m26.619 40.059a0.39318 0.40675 0 1 0-0.78635 0 0.39318 0.40675 0 1 0 0.78635 0" style="fill:#666"/><path d="m29.556 50.111a0.39318 0.40675 0 1 0-0.78635 0 0.39318 0.40675 0 1 0 0.78635 0" style="fill:#4d4d4d"/><path d="m21.037 46.25a0.39318 0.40675 0 1 0-0.78635 0 0.39318 0.40675 0 1 0 0.78635 0" style="fill:#4d4d4d"/><path d="m13.162 42.194a0.24834 0.25691 0 1 0-0.49667 0 0.24834 0.25691 0 1 0 0.49667 0" style="fill:#333"/><path d="m18.337 36.369a0.30271 0.36136 0 1 0-0.60542 0 0.30271 0.36136 0 1 0 0.60542 0" style="fill:#666"/><path d="m19.612 27.488c2.7308 1.1548 3.1042 1.5284-0.08886 0.20857s-3.6232-1.7573 0.08886-0.20857z" style="fill:#666"/><path d="m11.208 24.081c2.7308 1.1548 3.1042 1.5283-0.08886 0.20857s-3.6232-1.7573 0.08886-0.20857z" style="fill:#666"/><path d="m3.7633 20.816c2.242 0.94817 2.5485 1.2548-0.07293 0.17121s-2.9746-1.4427 0.07293-0.17121z" style="fill:#666"/><path d="m16.498 10.07 6.2289-3.9483c0.2668-0.16919 0.63727-0.14496 0.87692 0.06631l6.1607 5.436c0.23965 0.21138 0.21171 0.56906-0.04712 0.74891l-6.1377 4.2664c-0.25827 0.1794-0.6421 0.14989-0.87692-0.06631l-6.2519-5.7541c-0.23494-0.21642-0.21979-0.57971 0.04712-0.7489z" style="fill:#ffff25"/><path d="m25.125 4.4939 5.7363-3.7845c0.24672-0.1628 0.59688-0.13598 0.82049 0.06204l5.9451 5.267c0.22361 0.19803 0.20072 0.53708-0.04409 0.70066l-5.8328 3.9005c-0.24414 0.16336-0.60081 0.14013-0.82037-0.06204l-5.8488-5.383c-0.21979-0.20241-0.20263-0.53787 0.04409-0.70067z" style="fill:#2a4bb7"/><path d="m33.801 12.261 5.6455-3.8298c0.24459-0.16605 0.59565-0.13452 0.82037 0.06204l6.1723 5.4035c0.22473 0.19657 0.19511 0.529-0.04409 0.70066l-5.5603 3.9912c-0.23853 0.1711-0.59744 0.13609-0.82037-0.06216l-6.2574-5.5648c-0.22316-0.19836-0.20061-0.53461 0.04398-0.70066z" style="fill:#f03031"/><path d="m42.296 20.074 5.6455-4.1933c0.23752-0.17637 0.60025-0.13879 0.82049 0.06204l6.6717 6.0853c0.22035 0.20083 0.1904 0.52418-0.04409 0.70066l-5.424 4.0819c-0.23393 0.17604-0.59531 0.13306-0.82037-0.06204l-6.8933-5.9739c-0.22506-0.19511-0.19343-0.52418 0.04409-0.70066z" style="fill:#2ac44b"/><path d="m25.035 18.121 6.1904-4.4204c0.24066-0.17177 0.5961-0.13441 0.82049 0.06204l6.5812 5.7669c0.22428 0.19645 0.18782 0.5207-0.04409 0.70066l-4.5611 3.537c-0.23101 0.17918-0.65029 0.18209-0.82037-0.06204-0.53787-0.77191-1.036-1.2483-1.7499-1.4984l-4.8902-1.7136-1.5705-1.6715c-0.20408-0.21732-0.19657-0.52889 0.04409-0.70066z" style="fill:#2a4bb7"/><path d="m33.788 26.418 6.2289-4.6296c0.25356-0.18849 0.63637-0.14339 0.87703 0.06631l6.7512 5.8904c0.24066 0.20981 0.19982 0.55391-0.04712 0.74891l-6.0923 4.8114c-0.24616 0.19432-0.63783 0.14462-0.87692-0.06642l-6.8877-6.072c-0.23954-0.21126-0.20644-0.56053 0.04701-0.74891z" style="fill:#ffff25"/><path d="m48.007 30.381-2.1271 4.7311c-0.07237 0.16111-0.13912 0.29934-0.30169 0.43128l-5.6385 4.574c-0.16268 0.13205-0.47526 0.05251-0.42847-0.10838l1.1613-4.0018c0.04656-0.16033 0.13856-0.30024 0.30169-0.43128l6.6043-5.3033c0.16347-0.13116 0.50084-0.05273 0.42847 0.10838z" style="fill:#284299"/><path d="m55.866 24.339-2.3995 4.7765c-0.08056 0.16022-0.1371 0.30091-0.30181 0.43139l-5.3208 4.2104c-0.16481 0.13048-0.49849 0.05161-0.42847-0.10838l2.0699-4.7284c0.0699-0.15943 0.13351-0.30461 0.30169-0.43128l5.6505-4.2586c0.16863-0.12701 0.50892-0.05195 0.42847 0.10838z" style="fill:#b3b3b3"/><path d="m52.64 31.062-2.3999 4.9128c-0.07843 0.16044-0.12947 0.30685-0.30181 0.43128l-4.6391 3.3475c-0.17233 0.12454-0.49759 0.05183-0.42836-0.10838l1.7064-3.9564c0.069-0.15977 0.13912-0.30001 0.30181-0.43128l5.3324-4.3038c0.1628-0.13149 0.50679-0.05217 0.42847 0.10827z" style="fill:#b3b3b3"/><path d="m45.282 36.922-2.0816 4.2769c-0.0782 0.16055-0.14911 0.29283-0.30181 0.43128l-4.4431 3.5573c-0.15281 0.13856-0.47246 0.05206-0.42847-0.10827l0.965-3.3486c0.04611-0.15977 0.13935-0.30035 0.30181-0.43128l5.5596-4.4857c0.16302-0.13138 0.50668-0.05217 0.42847 0.10838z" style="fill:#1d8a35"/><path d="m49.372 37.712-1.9295 3.772c-0.06889 0.13464-0.11018 0.25727-0.25401 0.36307l-4.2684 3.1359c-0.14383 0.10569-0.42107 0.04331-0.3606-0.09121l1.6182-3.6028c0.06025-0.13419 0.10939-0.25883 0.25401-0.36307l4.5796-3.3051c0.14473-0.10434 0.4296-0.04353 0.36071 0.09122z" style="fill:#b34322"/><path d="m42.515 42.886-1.2816 3.3426c-0.04106 0.10692-0.09245 0.19758-0.19948 0.28509l-2.5747 2.0324c-0.10692 0.08751-0.264 0.02592-0.28329-0.07158l-0.40379-2.0454c-0.01919-0.09716 0.04241-0.14821 0.14911-0.23494l4.3104-3.3798c0.10872-0.08527 0.33087-0.03489 0.28329 0.07158z" style="fill:#b3b31a"/><path d="m39.572 38.42c-0.73196 2.5319-1.0416 2.9058-0.21542-0.05071s1.19-3.3882 0.21542 0.05071z" style="fill:#666"/><path d="m27.264 38.631 6.445-4.7552c0.25423-0.18759 0.43756-0.48379 0.37316-0.79636l-1.6674-7.9385c-0.0653-0.31213-0.38416-0.44631-0.67542-0.32705l-6.857 4.9043c-0.25446 0.18209-0.43947 0.48446-0.37316 0.79636l2.0794 7.7894c0.08101 0.30831 0.42129 0.51475 0.67542 0.32705z" style="fill:#ffff25"/><path d="m30.056 48.879 6.1242-4.5374c0.2539-0.18804 0.43756-0.48379 0.37316-0.79636l-1.7656-7.4072c-0.07371-0.30988-0.38427-0.4462-0.67542-0.32705l-6.2862 4.4791c-0.2539 0.18097-0.43936 0.48446-0.37316 0.79636l1.9275 7.4656c0.07966 0.30798 0.42129 0.51475 0.67553 0.32694z" style="fill:#2ac44b"/><path d="m32.628 58.492 5.7916-4.5668c0.22215-0.17514 0.38999-0.43655 0.33255-0.71861l-1.6973-7.2048c-0.05374-0.28251-0.34253-0.40267-0.60204-0.29507l-6.0641 4.5042c-0.22406 0.16639-0.39156 0.43711-0.33255 0.71861l1.9698 7.2674c0.07517 0.27679 0.37989 0.47021 0.60193 0.29507z" style="fill:#ffff25"/><path d="m30.952 23.245-6.9398 4.8853c-0.22967 0.16179-0.6007 0.21474-0.89644 0.11208l-6.4162-2.7366c-0.28172-0.12016-0.34433-0.3496-0.14754-0.5299l6.5201-4.6005c0.22753-0.16044 0.60182-0.21575 0.89644-0.11208l6.836 2.4517c0.29328 0.10535 0.37709 0.36823 0.14743 0.5299z" style="fill:#2a4bb7"/><path d="m21.875 19.846-6.5503 4.5611c-0.21676 0.15102-0.56693 0.20038-0.84618 0.10468l-6.0561-2.555c-0.2659-0.1122-0.32503-0.32638-0.13912-0.49478l6.154-4.2951c0.21474-0.14989 0.56816-0.2015 0.84618-0.10468l6.4523 2.289c0.27679 0.09828 0.356 0.34365 0.13924 0.49478z" style="fill:#f03031"/><path d="m13.237 16.685-6.183 4.2262c-0.19926 0.13621-0.51633 0.18243-0.77056 0.09525l-4.7881-1.9632c-0.24391-0.09985-0.29597-0.2972-0.12678-0.45046l6.2585-4.0567c0.20229-0.13116 0.51733-0.18344 0.77045-0.09537l4.7127 1.7938c0.24773 0.09436 0.32604 0.31426 0.12678 0.45047z" style="fill:#ffff25"/><path d="m16.435 27.376 5.9574 2.4805c0.22652 0.09436 0.44452 0.38954 0.51543 0.70358l1.9 7.6368c0.07809 0.31348-0.08112 0.50062-0.30495 0.43745l-5.7444-2.7653c-0.22349-0.1076-0.44587-0.38988-0.51531-0.70347l-2.1131-7.3521c-0.08953-0.31168 0.07831-0.53731 0.30495-0.43756z" style="fill:#ccc"/><path d="m19.833 38.166 5.3568 2.577c0.22641 0.10894 0.44452 0.38954 0.51531 0.70358l1.9455 7.1165c0.08561 0.31314-0.08101 0.50073-0.30484 0.43756l-5.559-2.6914c-0.22383-0.10838-0.44587-0.38988-0.51531-0.70347l-1.7434-7.0022c-0.07786-0.31291 0.07842-0.53731 0.30495-0.43756z" style="fill:#c02627"/><path d="m22.321 47.81 5.6306 2.757c0.20464 0.10019 0.40177 0.35196 0.46584 0.63581l1.7994 7.0236c0.07259 0.28296-0.07326 0.45249-0.27555 0.39549l-5.7024-3.4842c-0.19982-0.12218-0.40301-0.35229-0.46584-0.63581l-1.7277-6.2964c-0.0773-0.28184 0.0708-0.48558 0.27555-0.39538z" style="fill:#2a4bb7"/><path d="m8.481 24.039 5.4268 2.3257c0.20274 0.08684 0.39785 0.34859 0.46124 0.62964l2.0893 7.29c0.08022 0.27993-0.07259 0.448-0.27286 0.39156l-5.4483-2.6372c-0.19971-0.09682-0.39897-0.34882-0.46112-0.62953l-2.0679-6.9787c-0.08258-0.27892 0.07012-0.48087 0.27286-0.39156z" style="fill:#2a4bb7"/><path d="m1.0911 20.892 5.0523 2.1388c0.18501 0.07831 0.36295 0.31808 0.42085 0.57455l2.0772 7.1014c0.07461 0.25513-0.0662 0.40895-0.24907 0.35734l-4.9694-2.4706c-0.18198-0.09043-0.36419-0.3183-0.42085-0.57444l-2.16-6.7699c-0.08078-0.25345 0.06395-0.43868 0.24896-0.35723z" style="fill:#229d3c"/><path d="m11.501 34.135 5.4309 2.6797c0.21385 0.10546 0.41961 0.36767 0.48648 0.66409l1.8641 6.782c0.08134 0.29541-0.07652 0.47257-0.28778 0.41299l-5.4497-2.7364c-0.21104-0.10614-0.42085-0.368-0.48648-0.66409l-1.8455-6.7252c-0.08078-0.29463 0.07394-0.50712 0.28789-0.41299z" style="fill:#c02627"/><path d="m4.3186 30.615 4.759 2.311c0.21373 0.10378 0.41961 0.36767 0.48648 0.66409l1.8398 6.6653c0.08168 0.29541-0.07652 0.47257-0.28778 0.41299l-4.5521-2.3341c-0.21048-0.10804-0.42096-0.36811-0.48659-0.6642l-2.0467-6.6421c-0.09032-0.29328 0.07405-0.50724 0.28789-0.41299z" style="fill:#2a4bb7"/><path d="m14.346 43.884 5.3506 2.6042c0.20812 0.10131 0.4085 0.35802 0.47369 0.64658l1.8846 6.5198c0.08302 0.28722-0.0745 0.46011-0.28026 0.40211l-5.6164-3.3937c-0.20375-0.12319-0.40985-0.35824-0.47369-0.64658l-1.6188-5.7303c-0.08089-0.28644 0.07203-0.49377 0.28026-0.40211z" style="fill:#ccc"/><path d="m7.3143 40.334 4.476 2.1778c0.21373 0.10401 0.41961 0.36767 0.48648 0.66409l1.5569 5.5669c0.08258 0.29507-0.07652 0.47257-0.28778 0.41299l-4.2195-2.517c-0.20891-0.12476-0.42085-0.368-0.48648-0.6642l-1.8136-5.2276c-0.10086-0.29092 0.07405-0.50724 0.28789-0.41299z" style="fill:#ffff25"/><path d="m27.718 26.8c-2.7564 1.8667-3.3365 1.9901-0.14215-0.21115s3.8692-2.3392 0.14215 0.21115z" style="fill:#666"/></g></g></g></svg>
