<?xml version="1.0" encoding="UTF-8"?>
<svg width="320.68mm" height="402.82mm" version="1.1" viewBox="0 0 320.68 402.82" xmlns="http://www.w3.org/2000/svg"><defs><clipPath id="clipPath831"><path d="m0 2438.2h2228.3v-2438.2h-2228.3z"/></clipPath><clipPath id="clipPath843"><path d="m620.36 177.65h991.58v-63.25h-991.58z"/></clipPath><clipPath id="clipPath863"><path d="m1554.3 1678.6h348.99v-354.44h-348.99z"/></clipPath><clipPath id="clipPath879"><path d="m1542.6 1698.1h157.17v-373.88h-157.17z"/></clipPath><clipPath id="clipPath895"><path d="m1593 1703.3h257.11v-45.68h-257.11z"/></clipPath><clipPath id="clipPath915"><path d="m552.08 1297.6h303.3v-226.06h-303.3z"/></clipPath><clipPath id="clipPath939"><path d="m330.98 1527.9h89.773v-141.94h-89.773z"/></clipPath><clipPath id="clipPath955"><path d="m394.25 1518.5h31.556v-110.22h-31.556z"/></clipPath><clipPath id="clipPath971"><path d="m422.02 1609.8h261.46v-318.02h-261.46z"/></clipPath><clipPath id="clipPath999"><path d="m990.9 293.51h354.03v-130.51h-354.03z"/></clipPath><clipPath id="clipPath1015"><path d="m863.3 342.8h538.31v-193.24h-538.31z"/></clipPath><clipPath id="clipPath1043"><path d="m1237.6 362.54h192.13v-157.25h-192.13z"/></clipPath><clipPath id="clipPath1059"><path d="m1331.4 185.13h58.95v-38.631h-58.95z"/></clipPath><clipPath id="clipPath1075"><path d="m1090.2 481.66h108.3v-136.3h-108.3z"/></clipPath><clipPath id="clipPath1095"><path d="m1043.5 1845.3h615.36v-1450.3h-615.36z"/></clipPath><clipPath id="clipPath1123"><path d="m696.29 1248.7h724.53v-585.98h-724.53z"/></clipPath><clipPath id="clipPath1139"><path d="m1502.9 1646h80.77v-185.75h-80.77z"/></clipPath><clipPath id="clipPath1155"><path d="m1534.4 1563.9h77.38v-148.46h-77.38z"/></clipPath><clipPath id="clipPath1171"><path d="m731.82 1181.4h590.08v-301.99h-590.08z"/></clipPath><clipPath id="clipPath1187"><path d="m1433.4 1099.8h133.28v-379.5h-133.28z"/></clipPath><clipPath id="clipPath1207"><path d="m1450.6 894.51h407.92v-238.74h-407.92z"/></clipPath><clipPath id="clipPath1227"><path d="m1482.3 822.93h125.78v-33.478h-125.78z"/></clipPath><clipPath id="clipPath1243"><path d="m1491.2 1194.2h356.9v-350.66h-356.9z"/></clipPath><clipPath id="clipPath1291"><path d="m778.4 2020.7h579.99v-154.96h-579.99z"/></clipPath><clipPath id="clipPath1307"><path d="m1429.9 1906.3h136.78v-377.85h-136.78z"/></clipPath><clipPath id="clipPath1327"><path d="m1447.8 1742.4h119.04v-248.77h-119.04z"/></clipPath><clipPath id="clipPath1383"><path d="m803.2 1360.8h489.22v-148.29h-489.22z"/></clipPath><clipPath id="clipPath1411"><path d="m729.79 1645.4h577.15v-294.27h-577.15z"/></clipPath><clipPath id="clipPath1435"><path d="m586.95 1855.6h785.28v-371.94h-785.28z"/></clipPath><clipPath id="clipPath1451"><path d="m1278.5 1752.9h171.36v-115.06h-171.36z"/></clipPath><clipPath id="clipPath1467"><path d="m590.38 1894.9h628.47v-340.27h-628.47z"/></clipPath><clipPath id="clipPath1483"><path d="m792.83 1528.4h509.87v-220.05h-509.87z"/></clipPath><clipPath id="clipPath1499"><path d="m1074.3 1542.6h275.29v-292.23h-275.29z"/></clipPath></defs><g transform="translate(134.11 166.16)"><g transform="matrix(.20231 0 0 -.20231 -201.07 263.15)"><g clip-path="url(#clipPath831)"><g clip-path="url(#clipPath843)" style="opacity:.10001"></g><g transform="translate(1542.6 1690.2)"><path d="m0 0s78.31 39.155 204.81 10.542 168.67-85.84 168.67-85.84l-102.4-87.345-55.72 36.143 12.047-81.321-138.55-158.12z" style="fill:#5e7381"/></g><g clip-path="url(#clipPath863)" style="opacity:.3"><g transform="translate(1554.3 1637.2)"><path d="m0 0s33.163 48.275 162.64 40.659c115.2-6.776 186.35-67.764 186.35-67.764l-89.633-82.564-76.39 55.458 20.33-108.42-126.16-150.34z"/></g></g><g clip-path="url(#clipPath879)" style="opacity:.3"><g transform="translate(1676.4 1505.1)"><path d="m0 0c-21.214 69.177-51.457 149.19-112.59 192.96-13.794-4.267-21.155-7.934-21.155-7.934l88.851-365.95 68.319 77.973c-5.348 34.835-13.1 69.286-23.423 102.95"/></g></g><g clip-path="url(#clipPath895)" style="opacity:.5"><g transform="translate(1690.9 1689)"><path d="m0 0c-18.064 1.036-36.469 1.21-53.914-3.593-5.876-1.618-11.989-3.81-17.907-2.357-9.719 2.387-16.079 13.966-26.086 13.84 86.869 15.968 178.97 1.904 257.12-39.264-51.3 17.677-105.04 28.267-159.21 31.374" style="fill:#fff"/></g></g><g transform="translate(440.27 1614.9)"><path d="m0 0s79.815-229.66 213.84-291.4 168.67-42.92 168.67-42.92 52.708-7.529 24.095-106.92-93.369-96.381-93.369-96.381-150.6-19.578-203.3 13.553c-52.708 33.132-112.95 100.9-137.04 162.64-24.096 61.744-52.709 131.02-40.661 228.9 12.047 97.887 43.673 134.03 48.19 135.54 4.518 1.506 19.578-3.012 19.578-3.012" style="fill:#5e7381"/></g><g clip-path="url(#clipPath915)" style="opacity:.3"><g transform="translate(822.78 1280.5)"><path d="m0 0s-23.395-12.695-106.06 17.011c-11.655-41.657-26.885-82.216-52.006-117.77-20.19-28.58-44.729-54.49-75.137-72.274-12.06-7.052-24.612-12.866-37.49-17.835 54.304-31.552 201.42-12.433 201.42-12.433s64.756-3.011 93.369 96.381c28.613 99.393-24.095 106.92-24.095 106.92"/></g></g><g transform="translate(854 1242.2)"><path d="m0 0c-14.144-6.341-97.622-20.052-150.19-9.129-173.94 36.143-271.72 266.82-280.11 325.29-2.365 16.484-11.255 14.235-13.554-2.258-9.983-71.6-11.552-215.46 20.33-295.92 24.415-61.619 80.569-115.96 133.28-149.09 52.708-33.131 192.01-15.812 192.01-15.812s62.497-21.083 91.11 78.309c8.899 30.913 9.93 52.936 7.128 68.614" style="fill:#e1e9ee"/></g><g transform="translate(333.84 1469.8)"><path d="m0 0c-9.529-38.554 5.517-75.435 33.605-82.378 28.089-6.942 53.501 12.732 63.03 51.285 9.529 38.554-0.434 81.387-28.523 88.329-28.088 6.943-58.583-18.683-68.112-57.236" style="fill:#5e7381"/></g><g clip-path="url(#clipPath939)" style="opacity:.3"><g transform="translate(375.79 1415.5)"><path d="m0 0c-25.691 31.119-6.756 79.648 12.987 112.47-23.88-2.283-46.887-25.621-54.935-58.186-9.529-38.553 5.516-75.435 33.605-82.377 21.179-5.235 40.832 4.669 53.306 26.383-15.735-9.51-32.797-13.022-44.963 1.714"/></g></g><g clip-path="url(#clipPath955)" style="opacity:.5"><g transform="translate(425.8 1474)"><path d="m0 0c0.144 13.703-2.049 28.487-11.564 38.349-5.203 5.393-14.367 8.656-19.986 3.698 0.105-4.404 3.148-8.093 5.693-11.689 19.095-26.983 15.054-63.387 10.199-96.084 10.026 20.378 15.419 43.017 15.658 65.726" style="fill:#fff"/></g></g><g clip-path="url(#clipPath971)" style="opacity:.5"><g transform="translate(457.81 1562)"><path d="m0 0c-6.772 19.666-15.676 42.529-35.786 47.84 12.728-18.014 18.113-40.015 24.336-61.176 36.671-124.7 114.89-212.64 237.12-256.84-111.56 64.855-183.66 148.16-225.67 270.18" style="fill:#fff"/></g></g><g transform="translate(864.19 471.84)"><path d="m0 0s117.46-120.85 202.17-138.92c84.71-18.072 124.24-24.848 136.66 4.518s-4.518 30.495-4.518 30.495-75.674 6.777-83.58 62.121c-6.06 42.423 13.308 66.251 17.936 80.339 1.738 5.291 2.435 10.836 2.063 16.394-2.308 34.492-20.155 146.22-155.54 102.05-159.25-51.956-115.2-157-115.2-157" style="fill:#5e7381"/></g><g transform="translate(863.44 217.33)"><path d="m0 0s117.46-9.036 165.66 43.673c48.191 52.708 58.732 111.44 147.58 117.46 88.852 6.024 233.42-3.012 256.01-88.851 22.59-85.84-45.178-141.56-45.178-141.56l-54.215 10.542s7.53 66.262-48.19 81.321c-58.17 15.722-70.78 9.036-134.03-24.095s-93.133-66.262-170.17-66.262c-126.5 0-117.46 67.768-117.46 67.768" style="fill:#5e7381"/></g><g transform="translate(1333.4 173.42)"><path d="m0 0c0.988 2.674 1.914 5.378 2.745 8.125 1.83 6.045 11.308 3.467 9.469-2.61-0.886-2.927-1.869-5.809-2.923-8.656 10.338 25.903-5.156 112.4-93.294 121.77-47.738 5.075-159.25-91.482-256.05-110.5-34.616-6.803-70.89-13.073-100.99 4.119-0.012 3e-3 -0.024 2e-3 -0.036 4e-3 -11.025 2.467-20.561 8.541-27.401 16.931 5.354-19.933 27.549-53.041 115.97-53.041 77.04 0 106.92 33.131 170.17 66.263 63.25 33.13 75.86 39.816 134.03 24.094 38.952-10.527 46.985-46.053 48.299-66.497" style="fill:#e1e9ee"/></g><g clip-path="url(#clipPath999)" style="opacity:.5"><g transform="translate(1340.7 196.42)"><path d="m0 0c-2.582-2.366-5.348-4.64-7.703-7.236-2.855-3.147 1.739-7.8 4.681-4.681 2.417 2.565 4.481 5.513 6.653 8.286 1.998 2.551-1.127 5.925-3.631 3.631m-5.03 0.659c2.716 3.667 6.243 7.575 7.342 12.102 0.45 1.852-1.499 3.402-3.188 2.451-4.058-2.282-6.851-6.713-9.642-10.319-3.095-3.997 2.479-8.295 5.488-4.234m-2.245 17.925c2.148 3.637 4.041 7.214 5.143 11.314 0.491 1.825-1.654 2.815-2.964 1.725-3.295-2.738-5.757-6.029-8.189-9.525-2.054-2.95-5.209-5.992-3.39-9.671 0.381-0.772 1.285-1.18 2.103-1.207 3.947-0.128 5.573 4.445 7.297 7.364m-2.441 27.27c0.504 1.96-1.948 3.451-3.407 1.983-2.713-2.73-4.705-5.885-6.691-9.163-2.005-3.307-4.91-6.744-4.125-10.758 0.366-1.875 2.525-2.301 4.005-1.629 3.307 1.501 4.447 5.907 5.924 8.994 1.657 3.464 3.333 6.84 4.294 10.573m-13.075 16.955c-4.102-3.976-6.597-9.387-9.071-14.462-2.145-4.398-6.299-10.815-4.295-15.654 0.466-1.124 1.566-1.716 2.723-1.107 4.188 2.208 5.168 8.153 6.891 12.274 2.339 5.594 5.643 11.104 7.07 17.018 0.466 1.927-1.868 3.337-3.318 1.931m-12.529 12.074c-3.507-4.529-5.515-10.032-7.764-15.269-2.142-4.986-5.522-10.797-5.261-16.339 0.049-1.042 0.554-2.312 1.588-2.769 0.408-0.181 0.815-0.361 1.224-0.542 1.257-0.557 2.736-0.161 3.15 1.282 3.058 10.67 9.537 20.986 10.633 32.158 0.17 1.732-2.474 2.896-3.57 1.479m-15.786 8.951c-2.727-6.621-5.266-13.207-7.457-20.029-1.762-5.487-4.162-11.301-3.109-17.058 0.445-2.438 3.468-2.133 4.645-0.607 3.337 4.327 3.871 10.585 5.068 15.844 1.579 6.939 2.968 13.901 4.427 20.865 0.502 2.392-2.68 3.154-3.574 0.985m-17.632 6.264c-3.718-5.167-5.38-11.853-7.225-17.88-1.657-5.412-4.305-11.28-4.213-17.014 0.018-1.139 0.627-2.486 1.718-2.996 0.371-0.173 0.742-0.347 1.113-0.52 1.46-0.682 3.168-0.157 3.656 1.487 1.663 5.61 2.784 11.541 4.23 17.25 1.548 6.109 3.591 12.686 3.089 19.031-0.103 1.301-1.62 1.681-2.368 0.642m-20.341 5.871c-3.083-8.507-5.185-17.309-7.222-26.115-1.406-6.073-3.717-12.275-1.545-18.364 1.381-3.872 6.727-2.307 6.075 1.674-1.155 7.066 1.531 14.743 2.899 21.669 1.351 6.836 2.424 13.758 2.965 20.707 0.15 1.927-2.588 2.039-3.172 0.429m-19.579-4.23c-0.096 1.387-2.232 2.339-2.91 0.788-4.959-11.336-6.036-28.569-0.992-39.997 1.172-2.658 4.972-1.092 5.081 1.376 0.275 6.256-1.118 12.608-1.274 18.9-0.157 6.314 0.53 12.633 0.095 18.933m-22.939-8.33c-0.154 1.561-2.675 2.205-2.965 0.401-1.024-6.409-1.429-12.672-1.223-19.168 0.178-5.603 0.204-12.309 3.397-17.062 1.012-1.508 3.602-1.462 4.063 0.53 1.141 4.917-0.268 9.77-0.993 14.718-0.998 6.817-1.605 13.725-2.279 20.581m-19.458-7.249c-0.262 1.275-2.137 0.914-2.184-0.295-0.274-6.885-0.497-13.589 0.033-20.475 0.386-5.007 0.535-10.311 4.066-14.089 1.105-1.183 2.752-0.416 3.274 0.864 1.841 4.524 0.137 9.458-0.764 14.115-1.291 6.672-3.06 13.231-4.425 19.88m-19.144-11.226c-0.464 1.399-2.378 1.085-2.496-0.338-0.507-6.153-0.137-12.172 0.279-18.32 0.372-5.477 0.505-12.137 3.533-16.834 1.072-1.662 3.641-1.42 4.21 0.551 1.392 4.823-0.06 9.685-0.838 14.564-1.101 6.895-2.488 13.745-4.688 20.377m-13.878-7.415c-0.313 1.961-3.374 1.429-3.38-0.457-0.018-6.708 0.197-13.33 0.699-20.022 0.366-4.885 0.273-10.099 3.602-13.859 1.109-1.253 2.838-0.397 3.362 0.888 1.822 4.466-0.052 9.174-0.845 13.799-1.124 6.553-2.387 13.087-3.438 19.651m-17.964-11.006c-0.189 2.315-3.417 2.32-3.6 0-0.407-5.149-0.533-10.194 0.277-15.319 0.783-4.946 1.23-11.331 5.21-14.769 1.025-0.885 3.158-0.747 3.407 0.9 0.611 4.043-1.097 7.424-2.185 11.314-1.616 5.779-2.621 11.902-3.109 17.874m-19.016-9.324c-0.556 1.881-3.57 1.574-3.484-0.472 0.235-5.553 0.736-10.906 1.594-16.398 0.854-5.47 1.515-11.944 5.33-16.161 1.163-1.286 3.69-0.696 4.026 1.062 0.966 5.038-1.16 9.802-2.424 14.669-1.511 5.819-3.341 11.538-5.042 17.3m-19.876-11.332c-0.538 1.935-3.166 1.39-3.329-0.45-0.529-5.963-0.024-11.951 0.794-17.87 0.806-5.825 0.903-12.917 5.227-17.291 1.02-1.031 2.732-0.505 3.142 0.829 1.58 5.136-0.652 10.648-1.777 15.747-1.397 6.335-2.322 12.781-4.057 19.035m-18.122-8.138c-0.921 2.325-4.278 1.474-3.778-1.042 1.438-7.237 1.786-14.711 1.972-22.063 0.116-4.561 0.136-10.152 4.808-12.183 0.992-0.431 2.166-0.134 2.488 1.013 1.321 4.675-0.247 10.833-0.663 15.701-0.564 6.597-2.411 12.473-4.827 18.574m-17.235-7.529c-0.631 2.029-4.056 1.762-3.848-0.521 0.547-6.035 1.158-11.97 2.194-17.949 0.92-5.318 1.26-10.753 4.879-14.951 0.869-1.007 2.421-0.368 2.787 0.736 1.521 4.576 0.214 8.931-0.815 13.529-1.457 6.499-3.22 12.801-5.197 19.156m-18.126-8.456c-1.06 2.092-4.212 0.605-3.677-1.55 1.13-4.555 2.229-9.138 3.21-13.728 0.982-4.586 1.207-10.146 4.033-13.995 1.02-1.39 2.98-1.212 3.58 0.468 1.536 4.303-0.042 8.945-1.08 13.238-1.321 5.463-3.539 10.578-6.066 15.567m-15.322-5.161c-0.624 2.023-4.116 1.753-3.848-0.521 0.563-4.763 1.029-9.451 1.869-14.186 0.763-4.299 1.17-8.597 3.917-12.089 0.958-1.219 3.014-0.455 3.362 0.887 0.956 3.691-0.091 7.271-0.981 10.915-1.243 5.092-2.777 9.999-4.319 14.994m-25.85-8.407c0.509-3.677 0.946-7.379 1.439-11.064 0.467-3.485 0.354-6.717 2.378-9.727 0.693-1.031 2.151-1.083 2.834 0 4.015 6.37 0 16.3-3.216 22.239-1.101 2.036-3.705 0.507-3.435-1.448m-10.316-2.441c-0.659 1.488-3.045 1.022-3.387-0.443-0.693-2.976-0.459-5.98-0.339-9.007 0.116-2.946 0.257-6.318 2.415-8.515 0.812-0.826 2.099-0.562 2.702 0.348 1.517 2.289 1.168 5.131 0.815 7.744-0.456 3.369-0.82 6.742-2.206 9.873" style="fill:#193b52"/></g></g><g clip-path="url(#clipPath1015)" style="opacity:.3"><g transform="translate(1171.5 337.98)"><path d="m0 0c2.469 1.424 4.989 2.773 7.547 4.056-0.066 0.254-0.136 0.507-0.199 0.762-6.637-2.838-70.629-21.416-96.338-13.273-9.92-13.192-26.706-35.264-37.844-49.769-1.028-3.104-2.179-6.158-3.43-9.164 22.54 3.536 44.285 9.612 64.384 22.103 22.641 14.071 42.773 31.961 65.88 45.285m218.98-113.12c-24.884 46.064-84.023 89.086-133.28 93.369-132.28 11.502-118.51-95.536-316.25-126.5-21.408-3.353-44.608 6.929-62.204 21.376-1.349 1.108-1.773 2.431-1.612 3.688-8.581 0.142-13.741 0.537-13.741 0.537s-9.035-67.768 117.46-67.768c77.039 0 106.92 33.131 170.17 66.262s75.86 39.817 134.03 24.095c38.027-10.277 46.589-44.391 48.196-65.027 5.19 6.861 55.443-27.379 64.75-8.764 7.53 15.059 2.199 40.723-7.529 58.732"/></g></g><g transform="translate(870.97 261)"><path d="m0 0s19.296-69.188 84.333-81.322c100.9-18.824 147.58 9.036 147.58 9.036s-60.781-64.299-171.68-45.178c-87.345 15.059-89.13 77.858-85.839 95.627 3.765 20.331 25.601 21.837 25.601 21.837" style="fill:#e5e8ea"/></g><g transform="translate(860.81 251.97)"><path d="m0 0s19.296-69.187 84.333-81.322c100.9-18.824 147.58 9.036 147.58 9.036s-60.781-64.299-171.68-45.178c-87.345 15.059-89.13 77.858-85.839 95.628 3.765 20.33 25.601 21.836 25.601 21.836" style="fill:#8c959b"/></g><g transform="translate(1298.7 151.07)"><path d="m 0,0 c 0,0 12.048,-18.071 54.215,-15.059 42.166,3.011 47.437,26.354 47.437,26.354 0,0 -14.307,26.354 -50.45,24.848 C 15.06,34.637 0,0 0,0" style="fill:#bec9d0"/></g><g clip-path="url(#clipPath1043)" style="opacity:.5"><g transform="translate(1237.6 362.51)"><path d="m0 0c52.04-14.159 88.933-16.889 127.68-39.172 42.095-24.207 58.503-69.52 56.883-118.05 6.871 29.796 12.126 55.867 1.647 84.593-31.766 87.085-153.6 70.539-186.21 72.631" style="fill:#fff"/></g></g><g clip-path="url(#clipPath1059)" style="opacity:.5"><g transform="translate(1352.6 184.47)"><path d="m0 0c-11.02-2.4-19.972-12.326-21.227-23.534 5.442 6.932 13.051 12.138 21.485 14.697-5.901-8.05-12.063-16.875-11.955-26.856 5.373 8.882 12.627 16.619 21.145 22.552-2.978-8.25-5.956-16.5-8.934-24.751 6.392 6.856 12.784 13.711 19.176 20.566 0.699-7.434-1.869-15.118-6.897-20.638 5.48 3.123 10.959 6.246 16.439 9.369 2.743 1.564 5.609 3.245 7.213 5.964 2.562 4.341 1.011 10.202-2.428 13.887-3.438 3.684-8.341 5.609-13.176 7.029-6.76 1.986-13.957 3.214-20.841 1.715" style="fill:#fff"/></g></g><g clip-path="url(#clipPath1075)" style="opacity:.5"><g transform="translate(1104.2 370.67)"><path d="m0 0c20.965-29.717 62.573-31.722 94.352-14.04-13.824 5.379-24.303 4.05-37.074 11.597-11.332 6.697-22.416 14.089-31.443 23.67-22.052 23.405-29.334 59.655-18.032 89.762-23.571-31.865-30.652-78.603-7.803-110.99" style="fill:#fff"/></g></g><g transform="translate(1496.7 1820.1)"><path d="m0 0s267.67-399.81 115.2-809.79c-152.47-409.98-451.83-482.8-498.52-520.45-46.684-37.649-68.521-94.875-68.521-94.875s-48.943-21.083-115.2 19.577c-66.262 40.661-297.14 253.09-234.93 587.32 38.402 206.32 92.616 244.72 92.616 244.72s-20.33 431.46 180.72 539.88c201.04 108.43 528.64 33.61 528.64 33.61" style="fill:#5e7381"/></g><g clip-path="url(#clipPath1095)" style="opacity:.3"><g transform="translate(1496.7 1820.1)"><path d="m0 0s-176.85 40.389-350.42 18.809c82.442-56.96 275.49-166.68 318.74-316.71 72.286-250.74 49.847-474.77 9.064-580.75-38.557-100.19-99.516-195.53-182.65-264.59-25.937-21.547-54.754-39.623-82.592-58.558-35.659-24.257-71.582-48.614-103.83-77.335-75.968-67.663-60.156-145.97-60.156-145.97s21.837 57.226 68.521 94.875c46.685 37.649 346.04 110.47 498.52 520.45 152.47 409.98-115.2 809.79-115.2 809.79"/></g></g><g transform="translate(946.25 443.68)"><path d="m0 0c-9.057 46.462 1.759 94.542 21.332 137 22.507 48.827 55.506 94.463 94.13 131.84 38.546 37.296 85.919 83.637 130.03 113.97 155.75 107.1 138.98 221.14 115.26 285.52-44.002 119.43-357.01-38.226-356.97-34.775 0.658 54.666-56.952 110.83-117.46 103.91-79.063-9.035-112.25-78.448-128.76-167.16-62.212-334.23 177.7-554.19 243.96-594.85 2.352-1.442 4.674-2.788 6.98-4.079-3.873 9.426-6.676 19.237-8.508 28.632" style="fill:#e1e9ee"/></g><g transform="translate(1587.4 1637.4)"><path d="m0 0c-0.91-7.855-12.223-59.217-24.581-90.137-19.295-48.278-62.772-90.298-77.339-108.73-0.782-0.989 48.133 32.939 87.438 105.76 10.893 20.181 20.642 67.111 21.46 71.156-2.278 5.789-4.951 16.059-6.978 21.945" style="fill:#0f212e"/></g><g transform="translate(1612.6 1565)"><path d="m0 0c-0.465-2.398-9.776-43.303-21.249-64.369-18.05-33.144-52.225-78.757-64.744-94.779-0.942-1.205 49.257 39.24 75.088 90.997 7.588 15.205 13.847 26.63 18.636 42.92-1.277 6.878-6.604 18.266-7.731 25.231" style="fill:#0f212e"/></g><g clip-path="url(#clipPath1123)" style="opacity:.2"><g transform="translate(1044.9 675.14)"><path d="m0 0c111.22 25.132 281.9 178.82 311.73 232.67 83.391 150.54 78.725 243.24 24.849 280.11-42.92 29.366-130.38-16.223-295.92-22.59-176.2-6.776-298.39 86.868-298.26 83.302 1e-3 -0.034-0.023-0.081 3e-3 -0.102 13.63-10.914-54.138-74.164-81.759-225.04-18.251-99.696-14.465-215.67 56.988-294.13 68.365-75.066 185.25-76.158 282.37-54.214" style="fill:#fff"/></g></g><g clip-path="url(#clipPath1139)" style="opacity:.5"><g transform="translate(1575.7 1646)"><path d="m0 0c-13.636-65.726-31.306-133-72.825-185.75 37.61 43.713 64.799 96.332 78.695 152.3 2.914 11.734 4.127 26.649-5.87 33.449" style="fill:#fff"/></g></g><g clip-path="url(#clipPath1155)" style="opacity:.5"><g transform="translate(1608.9 1563.9)"><path d="m0 0c-16.933-52.864-45.869-100.94-74.553-148.46 27.285 37.6 51.291 77.58 71.656 119.34 4.493 9.214 8.69 20.666 2.897 29.123" style="fill:#fff"/></g></g><g clip-path="url(#clipPath1171)" style="opacity:.5"><g transform="translate(1297.8 1023.8)"><path d="m0 0c-1.427-51.36-18.219-102.2-47.666-144.3 24.489 15.019 37.226 43.124 47.748 69.855 11.75 29.848 22.614 60.685 23.875 92.737 1.262 32.053-8.351 65.915-32.084 87.495-31.363 28.517-78.72 29.469-120.72 23.712-85.678-11.744-168.33-44.961-238.3-95.775 24.7 30.455 7.056 79.057-24.694 102.07-27.952 20.26-65.237 27.04-98.532 17.918-33.296-9.123-61.918-33.96-75.641-65.638 26.485 42.767 91.766 52.826 132.42 23.201s52.293-90.788 29.166-135.46c15.016 20.727 37.207 34.98 59.481 47.586 58.031 32.839 120.44 57.926 185.06 74.386 24.427 6.222 49.602 11.246 74.709 9.001 25.107-2.247 50.417-12.611 65.999-32.425 16.153-20.541 19.907-48.24 19.182-74.361" style="fill:#fff"/></g></g><g clip-path="url(#clipPath1187)" style="opacity:.39999"><g transform="translate(1483.1 1099.8)"><path d="m0 0c-3.189-7.973-18.759-78.978-27.642-120.06-4.072-18.826-1.963-38.448 6.007-55.983l44.225-97.293-72.286-63.249 2.258-42.92s54.215 63.25 79.063 99.392c24.848 36.143 51.955 70.027 51.955 70.027z"/></g></g><g transform="translate(1469.6 959.77)"><path d="m0 0s56.473-66.639 71.156-80.192c14.683-13.554 50.826-56.473 50.826-56.473s-74.545-1.13-111.82-33.884c-37.273-32.755-28.237-51.956-28.237-51.956s20.331-85.839 64.38-81.321 59.861 29.366 59.861 29.366l-21.46 51.955s49.697-9.036 70.028-14.683c20.33-5.647 86.968-19.2 143.44 14.683 56.474 33.884 94.876 97.134 90.358 137.8s-58.733 158.12-109.56 220.25c-50.826 62.12-107.3 116.34-107.3 116.34s-76.804 18.071-145.7-100.52c-63.22-108.82-25.977-151.35-25.977-151.35" style="fill:#5e7381"/></g><g clip-path="url(#clipPath1207)" style="opacity:.3"><g transform="translate(1854 894.51)"><path d="m0 0c-3.87-8.458-8.459-16.602-14.214-24.265-27.244-36.276-67.141-58.608-108.54-75.302-24.773-9.99-49.549-19.025-76.472-20.606-29.802-1.75-59.695 1.23-89.518 1.33-28.839 0.097-59.221 0.982-86.984-8.06-8.695-2.833-17.479-6.222-24.844-11.633-4.964-12.087-1.863-18.709-1.863-18.709s20.33-85.839 64.379-81.322c6.287 0.645 11.98 1.714 17.153 3.056-40.118 11.628-37.689 43.09-47.865 67.549-0.892 2.143 0.637 4.354 2.256 5.544 31.092 22.868 116.56-3.863 136.88-9.51 20.331-5.647 86.969-19.201 143.44 14.683s94.875 97.134 90.358 137.8c-0.588 5.278-2.028 11.873-4.172 19.45"/></g></g><g transform="translate(1540.7 770.87)"><path d="m0 0c32.064 0.968 63.193-3.38 95.034-5.294 19.848-1.192 42.769 2.952 37.35 28.003-4.9 22.649-19.103 42.03-31.26 61.271-19.442 30.771-41.035 60.52-65.066 87.887-17.752 20.215-37.616 38.452-57.072 56.989-17.087 16.28-35.408 33.239-51.875 51.666-21.566-65.003 1.731-91.63 1.731-91.63s56.474-66.639 71.156-80.192c14.683-13.554 50.826-56.473 50.826-56.473s-74.544-1.13-111.82-33.884c-19.713-17.324-26.469-30.853-28.463-39.758 0.682 0.47 1.361 0.943 2.078 1.394 25.385 15.991 58.078 19.136 87.378 20.021" style="fill:#e1e9ee"/></g><g clip-path="url(#clipPath1227)" style="opacity:.3"><g transform="translate(1607.7 798.03)"><path d="m0 0c-5.332 8.327-11.012 17.64-18.226 24.9-16.415-0.825-75.197-5.686-107.13-33.478 78.774 29.128 131.06-0.317 125.36 8.578"/></g></g><g clip-path="url(#clipPath1243)" style="opacity:.5"><g transform="translate(1491.2 1085.7)"><path d="m0 0c22.683 39.926 56.555 73.416 96.737 95.644 15.858 8.772 34.208 15.971 51.783 11.549 14.657-3.688 26.134-14.802 36.535-25.766 75.984-80.094 134.94-176.26 171.85-280.32-9.631-15.985-21.547-30.591-35.271-43.237 15.899 26.108 3.824 59.674-9.151 87.352-34.154 72.861-73.942 144.77-132.16 200.32-14.932 14.249-32.85 28.032-53.488 27.959-12.53-0.044-24.419-5.267-35.611-10.902-33.042-16.634-63.82-37.756-91.225-62.605" style="fill:#fff"/></g></g><g transform="translate(985.05 2021.5)"><path d="m0 0c8.588-15.128 9.442-30.996 5.082-46.308-2.103-7.388 8.323-5.447 22.432 5.16-13.949-28.049-63.73-60.626-84.403-73.24-41.804-25.509-79.66-12.961-101 24.638-21.344 37.6-4.122 87.68 38.467 111.86s98.083 15.492 119.43-22.107" style="fill:#193b52"/></g><g transform="translate(973.29 2015.2)"><path d="m0 0c19.093-33.633 1.134-69.489-43.212-96.612-36.186-22.132-71.278-12.854-90.371 20.779s-4.667 77.874 32.221 98.815 82.269 10.651 101.36-22.982" style="fill:#cccbcb"/></g><g transform="translate(965.73 2015.1)"><path d="m0 0c16.538-29.133 0.982-60.191-37.43-83.684-31.343-19.171-61.74-11.134-78.278 17.998-16.538 29.133-4.043 67.454 27.909 85.592 31.952 18.139 71.261 9.227 87.799-19.906" style="fill:#e5e5e4"/></g><g transform="translate(955.83 2017.1)"><path d="m0 0c13.242-23.327 0.787-48.196-29.97-67.007-25.097-15.349-49.436-8.915-62.678 14.412s-3.238 54.01 22.347 68.534c25.584 14.524 57.059 7.388 70.301-15.939" style="fill:#f2f2f2"/></g><g transform="translate(965.96 1982.8)"><path d="m0 0c1.083-27.581-20.398-50.818-47.979-51.901-27.582-1.084-50.818 20.397-51.9 47.978-1.083 27.581 20.398 50.819 47.979 51.902s50.817-20.398 51.9-47.979" style="fill:#709e40"/></g><g transform="translate(946.51 1982)"><path d="m0 0c0.661-16.84-12.455-31.028-29.295-31.69-16.84-0.661-31.028 12.454-31.689 29.295-0.661 16.84 12.455 31.028 29.295 31.69 16.841 0.661 31.028-12.455 31.689-29.295" style="fill:#1a1a1a"/></g><g transform="translate(926.31 1970.8)"><path d="M 0,0 33.792,-25.801 41.05,-9.126 15.645,4.571 42.433,-1.159 43.771,7.936 3.939,14.849 c 0,0 0.088,-2.257 -1.405,-7.402 C 1.04,2.301 0,0 0,0" style="fill:#fff"/></g><g transform="translate(587.85 1855.8)"><path d="m0 0s-31.625-225.89 210.83-353.9c242.46-128.01 420.16-78.309 420.16-78.309s129.51-3.012 234.93 90.356c105.42 93.37 112.95 198.79 112.95 198.79s-46.684 194.27-280.11 266.55c-193.99 60.075-231.92 42.167-293.66 24.095-61.744-18.071-405.1-147.58-405.1-147.58" style="fill:#5e7381"/></g><g clip-path="url(#clipPath1291)" style="opacity:.3"><g transform="translate(789.53 1897.1)"><path d="m0 0c15.518-9.618 34.053-14.309 51.734-18.123 21.232-4.58 42.762-7.723 64.365-9.917 15.904-1.616 31.896-2.99 47.886-3.319 24.119-0.497 47.509 5.561 69.402 15.469 48.758 22.067 91.487 56.562 142.53 73.782 46.35 15.637 100.58 17.438 148.52 8.387 15.191-2.868 30.084-7.097 44.426-12.653-21.708 10.751-45.555 20.421-71.778 28.541-193.99 60.075-231.92 42.167-293.66 24.095-0.091-0.026-0.199-0.06-0.291-0.086-38.714-18.383-77.79-35.827-119.19-46.638-25.201-6.58-52.064-12.4-75.267-24.628-6.777-3.571-17.326-8.848-19.426-17.066-2.032-7.951 4.592-14.024 10.756-17.844"/></g></g><g clip-path="url(#clipPath1307)" style="opacity:.3"><g transform="translate(1429.9 1906.3)"><path d="m0 0c0.052-0.049 0.106-0.094 0.158-0.143 35.626-33.478 62.05-78.501 75.874-125.32 25.182-85.279 7.408-176.61-36.69-252.39 90.652 89.442 97.441 184.28 97.441 184.28s-26.103 108.55-136.78 193.56"/></g></g><g transform="translate(1563.3 1695)"><path d="m0 0c-1.648-11.777-14.683-61.556-28.94-91.089-10.308-21.352-22.664-41.958-36.784-60.979-7.665-10.324-40.565-44.286-47.115-52.771-0.36-0.467 37.278 31.818 51.39 49.473 15.04 18.816 26.967 39.626 38.954 60.509 16.848 29.348 29.836 76.221 29.836 76.221s-6.859 22.081-7.341 18.636" style="fill:#0f212e"/></g><g clip-path="url(#clipPath1327)" style="opacity:.5"><g transform="translate(1447.8 1493.7)"><path d="m0 0c56.116 50.477 96.992 117.68 116.01 190.72 2.545 9.779 4.679 20.301 1.272 29.814-3.545 9.902-12.792 17.728-13.456 28.225-0.529-48.378-11.385-96.617-31.631-140.56-18.205-39.51-43.76-75.279-72.192-108.2" style="fill:#fff"/></g></g><g transform="translate(1350.6 1879.3)"><path d="m0 0c0.856-19.01-5.24-35.09-17.094-47.849-5.719-6.155 9.114-8.931 28.134-5.601-27.527-20.409-92.225-27.431-118.64-29.457-53.413-4.096-84.076 26.938-86.202 74.184-2.127 47.248 39.533 87.501 93.05 89.91s98.625-33.94 100.75-81.187" style="fill:#193b52"/></g><g transform="translate(1340.6 1879.3)"><path d="m0 0c1.902-42.263-33.411-68.289-90.103-72.696-46.261-3.595-75.855 22.878-77.757 65.141s34.133 78.216 80.485 80.302c46.354 2.086 85.472-30.484 87.375-72.747" style="fill:#cccbcb"/></g><g transform="translate(1333.2 1883)"><path d="m0 0c1.648-36.608-28.94-59.151-78.046-62.968-40.071-3.114-65.704 19.816-67.352 56.424s29.565 67.749 69.716 69.556c40.15 1.807 74.034-26.404 75.682-63.012" style="fill:#e5e5e4"/></g><g transform="translate(1324.6 1889.9)"><path d="m0 0c1.319-29.312-23.172-47.363-62.492-50.419-32.085-2.494-52.61 15.867-53.929 45.179-1.319 29.313 23.673 54.248 55.822 55.695 32.148 1.446 59.28-21.143 60.599-50.455" style="fill:#f2f2f2"/></g><g transform="translate(1313.4 1880.3)"><path d="m0 0c1.358-30.164-21.994-55.717-52.158-57.074-30.163-1.358-55.716 21.994-57.074 52.158-1.358 30.163 21.994 55.716 52.158 57.074 30.163 1.358 55.716-21.994 57.074-52.158" style="fill:#709e40"/></g><g transform="translate(1292.1 1879.3)"><path d="m0 0c0.829-18.417-13.429-34.019-31.846-34.848s-34.019 13.429-34.848 31.846 13.429 34.019 31.846 34.848 34.019-13.429 34.848-31.846" style="fill:#1a1a1a"/></g><g transform="translate(1270.1 1866.9)"><path d="m 0,0 37.127,-28.011 7.834,18.286 -27.876,14.823 29.339,-6.1 1.406,9.957 -43.615,7.313 c 0,0 0.111,-2.469 -1.491,-8.106 C 1.123,2.524 0,0 0,0" style="fill:#fff"/></g><g transform="translate(835.96 2066.1)"><path d="m0 0s40.661 34.449 91.487 32.755c30.452-1.015 51.032-9.148 56.207-11.933 2.589-1.394 5.781-0.813 7.685 1.427l5.57 6.553s-18.654 29.06-45.179 27.107c-92.051-6.777-115.77-55.909-115.77-55.909" style="fill:#193b52"/></g><g transform="translate(1248.2 2033.9)"><path d="m0 0 9.036 5.647 1.129 6.777s23.719 6.777 44.614-3.953 56.473-39.531 56.473-39.531-31.296 58.223-64.379 66.074c-33.32 7.906-44.049 1.129-50.261-3.389-6.213-4.518-12.989-18.071-9.036-23.154 3.953-5.082 12.424-8.471 12.424-8.471" style="fill:#193b52"/></g><g transform="translate(1062.3 1539.8)"><path d="m0 0c-103.68-8.703-211.66-13.822-307.84 26.64-2.05-13.446-3.124-27.158-3.124-41.087 0-172.16 162.2-327.69 360.85-311.72 337.13 27.106 325.04 375.98 313.41 406.59-13.993-5.771-244.74-70.472-363.29-80.423" style="fill:#e1e9ee"/></g><g clip-path="url(#clipPath1383)" style="opacity:.2"><g transform="translate(929.7 1312.2)"><path d="m0 0c-90.357 13.553-88.128 26.46-126.5 48.645 63.318-93.895 178.25-157.66 308.98-147.15 76.87 6.18 135.54 29.12 180.24 61.171-75.935-34.156-270.1-86.905-362.72 37.336"/></g></g><g transform="translate(1344.3 1538.9)"><path d="m0 0c60.988 30.494 132.14 108.42 103.29 171.16-10.967 23.848-34.533 45.515-61.556 50.387-22.51 4.058-44.985-2.857-66.199-9.838-25.039-8.239-49.918-15.981-75.917-20.683-122.17-22.093-249.38-8.1-371.2 9.644-56.451 8.222-129.5 22.536-182.43 44.685-44.067 18.439-67.229 39.56-102.43 71.335-0.954-7.325-21.881-217.63 210.86-353.7 231.96-135.61 445.06-13.25 545.59 37.013" style="fill:#e1e9ee"/></g><g transform="translate(724.89 1548.6)"><path d="m0 0s82.82-57.964 242.46-33.131c203.3 31.625 355.4 156.62 355.4 156.62s22.499-213.05-233.42-307.22c-129.19-47.533-224.76-26.817-279.36 15.06-80.324 61.61-85.086 168.67-85.086 168.67" style="fill:#0f212e"/></g><g transform="translate(729.79 1532.4)"><path d="m0 0s71.247-52.839 216.86-32.755c65.509 9.036 118.66 26.049 164.46 41.826 137.39 47.331 195.84 103.88 195.84 103.88s-11.295-207.82-238.18-274.63c-307.7-90.612-338.98 161.69-338.98 161.69" style="fill:#fff"/></g><g clip-path="url(#clipPath1411)" style="opacity:.2"><g transform="translate(1253.2 1505.5)"><path d="m0 0c-10.109-16.284-39.026-44.423-39.763-44.657-3.207-4.151 2.188 27.444 7.33 38.096 6.198 14.048 11.624 28.392 15.176 43.476 1.209 5.131 14.012-24.986 14.315-26.542 0.23-1.184 0.449-2.374 0.734-3.545 0.012-0.047 0.021-0.07 0.033-0.114 2.37-1.12 3.961-3.838 2.175-6.714m-68.243-15.97c0.137 0.642-6.738 8.253-6.614 8.907-0.236 0.3-0.453 0.637-0.638 1.039-3.234 7.064-7.494 13.571-11.294 20.331-1.065 1.894-0.751 3.708 0.223 5.069-0.353 0.023-0.706 0.082-1.054 0.204-3.737 1.309-6.696 3.518-8.958 6.774-1.529 2.202-0.411 5.445 1.762 6.718 2.445 1.433 6.783-1.859 6.814-1.907 0.04-0.041 0.065-0.063 0.124-0.126 0.176-0.194 0.36-0.383 0.55-0.564 0.148-0.142 0.303-0.276 0.459-0.41 0.021-0.015 0.029-0.02 0.052-0.037 0.42-0.276 0.846-0.545 1.298-0.768 0.097-0.046 0.156-0.074 0.211-0.101 0.1-0.036 0.199-0.076 0.299-0.11 2.524-0.883 4.176-3.326 3.43-6.039-0.132-0.479-0.366-0.924-0.645-1.342 1.484 1e-3 2.956-0.7 3.914-2.405 1.612-2.867-10.504 27.128-5.745 29.147 9.419 3.995 37.268 24.118 47.261 21.677 19.377-4.735-32.332-90.187-31.449-86.057m6.777-44.049c-14.516-16.385-61.848-39.819-62.695-39.526-3.068-0.127-19.326 10.064-14.076 10.428 3.014 10.794 29.262 75.118 31.678 74.355 2.815 1.959 48.155-41.801 45.093-45.257m-109.24-17.184c-0.078-0.116-0.147-0.237-0.224-0.353l-0.023 0.018c-0.252-0.332-0.491-0.685-0.744-1.012-0.731-0.943-1.641-1.4-2.589-1.527-0.535-1.632-1.782-2.701-3.216-3.184-1.414-2.744-5.672-3.915-7.916-1.313-10.498 12.168-19.526 26.107-27.153 40.219-6.002 11.106-15.342 26.65-11.759 39.856 1.656 6.105 11.13 3.51 9.47-2.611-3.11-11.459 8.041-27.823 13.5-37.131 3.811-6.499 7.802-12.993 12.107-19.255-1.773 19.214-12.233 37.465-15.499 56.386-1.069 6.192 8.393 8.842 9.469 2.611 0.607-3.518 1.451-7.006 2.428-10.477 1.241-0.475 2.315-1.456 2.843-3.077 0.486-1.49 0.945-2.993 1.413-4.492 1.871-5.618 4.125-11.274 6.309-16.977 1.086 6.392 1.878 12.808 2.038 19.238 0.219 8.811-0.252 18.315 3.367 26.509-0.127 0.594-0.139 1.205-0.042 1.802-0.275 1.997 0.438 4.061 2.291 5.091 16.528 9.187 34.111 15.932 51.999 21.955 4.377 1.474 7.338-3.632 5.545-7.213-4.216-8.419-8.471-16.821-12.779-25.195-6.499-20.784-15.961-40.799-28.093-58.887-3.731-7.558-8.001-14.67-12.742-20.981m-12.746-46.066s-66.841-21.306-69.734-18.531c-12.988 12.453 8.467 107.54 9.675 107.42 2.137 1.491 33.945-57.452 55.541-76.468 2.093-1.843 6.206-10.524 4.518-12.424m-119.72 29.366c-0.032-5.321-41.125 36.001-48.644 54.391-2.181-9.212-1.388 0.973-1.903 1.863-11.43 19.743 15.815 13.565 30.217 16.032 23.392 4.007 63.838 5.945 62.81 4.856 0.205-0.789 0.212-1.614-0.096-2.396-4.197-10.67-12.902-17.381-20.296-25.767-9.953-11.288-21.992-33.527-22.088-48.979m-50.449-45.178c-15.353 5.118-23.149 23.968-24.848 42.167-3.538 8.93 4.688 54.215 3.012 47.06 9.18-44.362 42.653-64.338 67.987-75.199 5.733-2.458-10.008-26.076-46.151-14.028m-47.657 10.067c-13.148 7.71-25.009 17.97-34.509 30.031-0.918 0.144 1.266-7.189 0.468-6.214-9.72 11.876-15.733 64.948-14.683 58.732 5.874-34.78 27.661-59.48 54.675-74.838 4.894-2.783-1.16-10.521-5.951-7.711m-34.124 114.63c5.199 5.605 42.794-4.106 51.662-3.08 4.69 0.543-20.862-61.671-23.342-59.501-27.107 23.719-34.775 55.621-28.32 62.581m-36.06-38.862c3.924-4.887-16.487 19.159-18.347 24.877-1.699 4.862-3.092 9.836-4.169 14.94-0.618 1.015-1.114 2.108-1.419 3.304-0.643 2.515-2.674 11.252-0.913 12.223 0.346 2.225 19.099-3.698 24.672-2.419 2.728 0.626 4.757-0.882 5.641-2.878 1.176-1.054-5.991-49.392-5.465-50.047m329.36 89.263c-45.796-15.777-98.952-32.79-164.46-41.825-145.61-20.085-216.86 32.754-216.86 32.754s31.274-252.3 338.98-161.69c127.27 37.478 186.69 119.32 214.35 183.97-1.424-0.927-30.468 42.464-28.345 44.081 10.786 8.212 20.747 17.433 32.458 24.279 0.501 0.447 1.091 0.78 1.749 0.985 0.648 0.359 1.276 0.747 1.936 1.091 2.531 1.319 7.433-3.131 7.405-4.419 0.022-0.428-0.017-0.852-0.122-1.267-0.534-4.047-1.239-8.041-2.044-12.006-0.531-15.038-6.51-29.991-12.436-43.841 0.176-1.543 0.444-2.874 0.857-3.899 0.124-0.31 0.199-0.604 0.261-0.894 20.035 48.64 22.111 86.557 22.111 86.557s-58.449-56.543-195.84-103.88"/></g></g><g transform="translate(1279.6 1544.4)"><path d="m0 0c-10.064 1.45-38.138 25.509-39.141 26.268-0.545 0.357-0.96 0.624-1.318 0.85 0.523 3.46-0.912 12.052-1.436 10.911-8.379-18.248-16.604-53.411-53.312-101.41-0.16 0.057-42.483 38.091-42.418 38.455 0.495 2.019 0.957 4.028 1.47 5.938 1.686 6.274 4.131 12.781 3.968 19.326-0.013 0.545-14.531-35.155-18.002-43.793-5.264-13.099-44.411-78.658-54.575-92.655-13.051 11.358-24.632 23.256-34.99 37.283-5.063 6.855-21.484 30.364-24.341 48.875-0.269 1.747-2.879-4.617-2.414-6.488-0.152-0.102-0.322-0.167-0.456-0.3-0.388-0.388-20.414-16.574-36.063-40.525-7.397-11.319-18.604-32.61-21.08-48.178-6.508 3.267-13.207 6.045-19.499 9.862-9.035 5.48-16.817 12.736-24.034 20.386-7.363 7.805-13.206 16.465-18.252 25.902-4.381 8.195-6.58 17.682-11.299 25.589 0.886 1.848 1.606 3.765 1.959 5.846 0.042 0.249-0.222 0.506-0.428 0.329-6.761-5.852-18.249-27.061-20.851-33.326-4.623-11.133-9.206-23.97-10.803-36.451-11.707 9.282-22.371 18.157-31.332 30.488-7.88 10.843-11.531 23.26-17.377 34.897-1.705 4.968-3.571 9.859-6.021 14.505-0.215 0.409-0.746 0.17-0.789-0.213-0.476-4.265-0.108-8.736 0.766-13.271-7.324-8.175-12.45-24.836-11.708-37.898-0.195-1.974-0.284-3.98-0.216-5.995-6.807 10.943-15.828 20.24-22.053 31.82-7.466 13.889-8.28 28.989-13.581 43.245-0.187 0.936-0.353 1.875-0.575 2.806-0.047 0.562-0.081 1.125-0.172 1.685-0.051 0.317-0.216 0.538-0.43 0.687-2e-3 8e-3 -3e-3 0.015-6e-3 0.023-0.251 0.902-1.446 0.812-1.735 0-0.043-0.12-0.074-0.243-0.115-0.364-0.01-0.015-0.027-0.026-0.037-0.042-3.688-5.971-3.381-14.618-3.65-21.464-0.225-5.716-0.545-12.711 1.482-18.349 1.059-11.07 14.087-35.236 12.855-31.032-3.12 10.65-5.157 21.39-6.161 32.27 0.279-0.702 0.582-1.39 0.874-2.084 1.838-5.056 4.135-10.17 6.974-14.606 7.323-14.016 17.921-26.621 28.444-38.28 0.196-0.712 0.402-1.408 0.616-2.084 3.718-11.737 13.792-22.65 24.101-28.936 0.8-0.488 1.731 0.475 1.267 1.268-2.542 4.348-5.541 8.316-8.485 12.307-0.836 1.493-1.697 2.984-2.52 4.543-3.551 6.731-5.385 14.302-6.806 21.722-1.57 8.191-1.378 16.656 0.232 24.845 1.344 4.381 2.91 8.684 4.455 12.798 4.249-11.87 11.076-23.499 16.678-32.598 5.134-8.34 10.968-16.186 17.398-23.561 1.738-1.993 4.043-4.889 6.671-7.282 3.077-4.392 6.688-8.549 10.702-12.047 0.539-0.47 1.128-0.658 1.696-0.661 0.193-0.597 0.38-1.2 0.61-1.765 3.206-10.892 9.959-20.682 18.761-24.293 0.767-0.316 1.302 0.679 0.986 1.283-3.469 6.638-7.586 12.207-10.505 18.86-1.002 12.119-2.494 23.674-0.544 36.234 2.278 14.673 7.917 29.362 14.963 42.627 2.662-16.496 15.355-33.024 25.641-44.872 6.613-7.616 15.118-15.665 24.473-22.103 8.5-6.594 17.789-11.994 27.214-14.732 0.026-7e-3 0.05-7e-3 0.077-0.014 0.082-0.488 0.187-0.971 0.295-1.453-0.815-7.949 0.67-17.01 3.426-23.114 0.445-0.984-2.318 31.156 24.064 75.389 16.096 26.986 27.666 36.84 30.994 43.097 2.369-13.625 13.197-28.134 20.387-38.892 9.493-14.201 21.358-27.634 34.276-38.927 0.76-1.061 1.495-2.14 2.214-3.17 1.381-1.978 2.662-4.732 4.632-6.217-0.577-2.728-1.009-5.46-1.229-8.176-0.094-1.163 8.271 11.459 8.278 11.471 7.815 11.171 56.794 95.812 60.749 101.14 1.566-0.936 39.193-31.703 48.297-36.47 1.644-0.861-1.393 7.896-3.858 10.205 0.285 8e-3 0.647-0.047 0.867 0.182 26.094 27.135 43.795 73.633 47.446 86.071 3.588-5.448 17.207-16.348 19.097-17.865 4.248-9.423 1.724-28.969 2.55-29.998-0.478-1.642-0.944-3.287-1.481-4.918-1.78-5.411-4.805-10.594-6.94-15.962-0.04-0.076-0.078-0.153-0.119-0.229-0.242-0.445-0.373-0.878-0.443-1.3-0.903-2.513-1.596-5.07-1.803-7.725-0.115-1.481 1.69-1.833 2.621-1.085 1.677 1.346 3.072 2.998 4.279 4.824 0.67 0.265 1.294 0.753 1.792 1.519 5.314 8.175 9.227 17.011 12.062 26.205 0.099 0.118 0.201 0.232 0.287 0.369 4.241 6.697 9.054 22.685 9.208 23.425 5.384-1.843 7.798 7.752 2.249 8.551" style="fill:#0f212e"/></g><g transform="translate(1351.3 1667.6)"><path d="m0 0c-14.298 14.013-34.257 13.433-51.092 22.385-0.731 0.388-1.708-0.427-1.196-1.195 7.851-11.774 25.98-12.411 37.371-19.556 7.565-4.745 12.951-12.452 17.326-20.025 4.338-7.509 5.299-16.641 10.055-23.734 1.627-2.425 6.071-2.481 6.726 0.879 2.876 14.754-9.225 31.479-19.19 41.246" style="fill:#0f212e"/></g><g clip-path="url(#clipPath1435)" style="opacity:.2"><g transform="translate(733.18 1513.2)"><path d="m0 0c49.697-38.402 205.03-30.341 234.93-24.848 198.53 36.475 305.67 112.12 331.84 132.96 24.184 19.26 49.465 15.083 72.282-1.102-2.529 40.587-46.397 58.674-84.55 68.375 6.917-4.073 14.231-7.505 21.742-10.764 4.11-1.784 2.17-7.039-1.173-8.974-89.404-51.739-177.5-83.364-270.12-103.7-132.18-29.015-207.52-27.728-230.41-22.589-110.69 24.849-130.3 227.08-135.4 249.94-33.073 16.571-54.407 35.937-84.497 63.099-0.871-6.682-18.365-182.31 155.3-316.38 16.693-12.887-28.655-11.572-9.948-26.028"/></g></g><g clip-path="url(#clipPath1451)" style="opacity:.5"><g transform="translate(1405.8 1639.3)"><path d="m0 0c0.846-0.984 2.248-1.245 3.541-1.357 12.219-1.047 24.157 6.259 30.951 16.471 6.792 10.211 11.225 23.092 8.886 35.132-15.03 77.376-84.119 66.42-110.73 56.1-21.419-8.307-42.365-18.551-60.002-33.271 16.482 2.715 33.156 4.274 49.856 4.663 19.211 0.446 39.53-0.992 55.51-11.665 19.098-12.756 28.401-38.516 21.859-60.531-0.551-1.854-1.132-4.076 0.128-5.542" style="fill:#fff"/></g></g><g clip-path="url(#clipPath1467)" style="opacity:.5"><g transform="translate(781.67 1554.6)"><path d="m0 0c-5.127 5.321-10.09 10.797-14.917 16.39 4.51-5.843 9.43-11.357 14.917-16.39m437.18 173.16c-143.88 8.544-447.27 22.59-573.77 117.46 13.086 15.623 64.714 38.22 81.589 49.646-39.893-14.153-94.769-28.812-134.66-42.965-2.725-6.208-2.281-25.536 3.377-29.271 24.737-16.326 49.719-30.647 74.792-43.161 11.999-76.646 45.89-149.76 96.578-208.49-15.088 19.546-25.387 42.945-35.281 65.807-17.784 41.094-35.858 85.507-32.641 129.2 194.72-86.54 391.55-68.906 520.02-38.227" style="fill:#fff"/></g></g><g clip-path="url(#clipPath1483)" style="opacity:.5"><g transform="translate(1302.7 1528.4)"><path d="m0 0c-45.795-85.278-150.83-154.71-244.24-180.08-93.412-25.372-174.21-8.432-265.63 23.383 5.75-20.479 27.637-31.413 47.696-38.49 88.311-31.153 187.72-34.691 275.12-1.06 87.397 33.632 160.88 106.34 187.06 196.25" style="fill:#fff"/></g></g><g clip-path="url(#clipPath1499)" style="opacity:.3"><g transform="translate(1078.8 1306.1)"><path d="m0 0s158.12 72.286 182.22 115.96c24.096 43.673 60.239 120.48 60.239 120.48s79.815-156.62-28.614-251.49c-113.12-98.98-218.36 13.553-218.36 13.553" style="fill:#fff"/></g></g></g></g></g></svg>
