<?xml version="1.0" encoding="UTF-8"?>
<svg width="96.13mm" height="92.042mm" version="1.1" viewBox="0 0 96.13 92.042" xmlns="http://www.w3.org/2000/svg"><g transform="translate(-88.762 -39.312)"><path d="m182.13 39.313c-0.14844 0.0021-0.30083 0.01521-0.44661 0.04133-3e-3 5.29e-4 -6e-3 -5.29e-4 -8e-3 0l-14.717 2.5135c-0.9361 0.1606-1.7208 0.80246-2.0672 1.6867a0.66913 0.66913 0 0 0 0 0.0083l-6.8294 17.512-66.651 1.6621c-0.7665 0.01905-1.4862 0.36512-1.9844 0.94245-0.49848 0.57732-0.73819 1.3449-0.64505 2.1085l3.6793 30.435c0.15187 1.2769 1.2068 2.2894 2.4889 2.3895l47.517 3.7788 9.4176 7.4083a0.66913 0.66913 0 0 0 0.0331 0.0246c0.0101 7e-3 0.0228 0.01 0.0331 0.0167 0.0116 8e-3 0.0214 0.0172 0.0331 0.0246 1.7187 1.283 2.1447 3.0308 1.9018 4.0018-0.13838 0.55351-0.34978 0.96017-0.85169 1.2734-0.50192 0.31326-1.369 0.54001-2.8525 0.45482a0.66913 0.66913 0 0 0-0.0167 0c-0.0476-2e-3 -0.10134-1e-3 -0.14896 0-8e-3 0-0.0169-2.7e-4 -0.0249 0l-56.671 0.16536h-0.0082c-1.4893-0.01-2.7427 1.2396-2.7368 2.7284 0.0058 1.4891 1.2642 2.7334 2.7533 2.712h0.0082l4.1426-8e-3c-1.5393 0.98108-2.5715 2.6974-2.5715 4.6469 0 3.0316 2.4831 5.5147 5.515 5.5147 3.0316 0 5.5147-2.4831 5.5147-5.5147 0-1.96-1.0348-3.6933-2.5879-4.6718l46.667-0.13229c-1.6812 0.948-2.8276 2.7474-2.8276 4.804 0 3.0316 2.4831 5.5147 5.5147 5.5147 3.0319 0 5.515-2.4831 5.515-5.5147 0-2.6331-1.8703-4.8527-4.349-5.3909 2.3434-0.8292 4.1436-2.5387 5.2586-5.1512a0.66913 0.66913 0 0 0 0.0413-0.0992c0.8546-3.4176-0.6612-7.1329-3.787-9.5499a0.66913 0.66913 0 0 0-0.0249-0.0249c-8e-3 -6e-3 -9e-3 -0.0188-0.0164-0.0246a0.66913 0.66913 0 0 0-0.0908-0.091l-6.6725-5.2337 20.811-53.306 13.204-2.249c3e-3 -5.28e-4 6e-3 5.29e-4 8e-3 0 1.3872-0.22302 2.4016-1.5158 2.282-2.9186-0.11958-1.4055-1.3444-2.5079-2.7532-2.4887h2.7e-4zm-26.078 25.962-3.8365 9.8393h-5.0022v-9.616zm-10.749 0.27305v9.5663h-9.2356v-9.3348zm-11.146 0.27278v9.2935h-9.2356v-9.062zm-11.146 0.28099v9.0125h-9.2355v-8.781zm-11.146 0.28125v8.7312h-9.2356v-8.4997zm-11.146 0.27278v8.4585h-6.7718l-1.0004-8.26zm-6.5402 10.36h6.5402v8.6405h-5.4983zm8.4503 0h9.2356v8.6405h-9.2356zm11.146 0h9.2355v8.6405h-9.2355zm11.146 0h9.2356v8.6405h-9.2356zm11.146 0h9.2356v8.6405h-9.2356zm11.146 0h4.2664l-3.3734 8.6405h-0.89296zm-51.758 10.542h5.2668v6.2013l-4.5641-0.3638zm7.1768 0h9.2355v7.0858l-9.2355-0.73581zm11.146 0h9.2355v7.9706l-9.2355-0.7276zm11.146 0h9.2356v8.8635l-9.2356-0.73581zm11.146 0h9.2355v5.2586l-1.7529 4.4897c-0.22754-0.11034-0.47572-0.17806-0.72761-0.19844l-6.7551-0.53737zm11.146 0h0.14049l-0.14049 0.38867zm-46.789 35.041c1.8021 0 3.2412 1.4391 3.2412 3.2412 0 1.8021-1.4391 3.2327-3.2412 3.2327-1.8021 0-3.2411-1.4306-3.2411-3.2327 0-1.8021 1.4391-3.2412 3.2411-3.2412zm52.279 0c1.8021 0 3.2412 1.4391 3.2412 3.2412 0 1.8021-1.4391 3.2327-3.2412 3.2327-1.8021 0-3.2411-1.4306-3.2411-3.2327 0-1.8021 1.4391-3.2412 3.2411-3.2412zm-52.279 1.5378c-0.97896 0-1.7611 0.78211-1.7611 1.7611 0 0.97923 0.78211 1.7529 1.7611 1.7529 0.97896 0 1.7611-0.77364 1.7611-1.7529 0-0.97895-0.78211-1.7611-1.7611-1.7611zm52.279 0c-0.97896 0-1.7611 0.78211-1.7611 1.7611 0 0.97923 0.7821 1.7529 1.7611 1.7529s1.7611-0.77364 1.7611-1.7529c0-0.97895-0.78211-1.7611-1.7611-1.7611z" style="fill:#ff7f00;stroke-width:4.8948"/></g></svg>
