<?xml version="1.0" encoding="UTF-8" standalone="no"?>
<!-- Created with Inkscape (http://www.inkscape.org/) -->

<svg
   xmlns:dc="http://purl.org/dc/elements/1.1/"
   xmlns:cc="http://creativecommons.org/ns#"
   xmlns:rdf="http://www.w3.org/1999/02/22-rdf-syntax-ns#"
   xmlns:svg="http://www.w3.org/2000/svg"
   xmlns="http://www.w3.org/2000/svg"
   xmlns:sodipodi="http://sodipodi.sourceforge.net/DTD/sodipodi-0.dtd"
   xmlns:inkscape="http://www.inkscape.org/namespaces/inkscape"
   width="64.779572mm"
   height="43.534046mm"
   viewBox="0 0 64.779572 43.534046"
   version="1.1"
   id="svg8"
   inkscape:version="0.92.3 (2405546, 2018-03-11)"
   sodipodi:docname="sleep.svg">
  <defs
     id="defs2">
    <linearGradient
       gradientUnits="userSpaceOnUse"
       y2="435.10999"
       y1="424.10999"
       x2="370.75"
       x1="373.5"
       id="c">
      <stop
         id="stop815"
         offset="0"
         stop-color="#d40000" />
      <stop
         id="stop817"
         offset="1"
         stop-color="#ff0d00" />
    </linearGradient>
    <radialGradient
       gradientUnits="userSpaceOnUse"
       r="108.02"
       cy="292.87"
       cx="173.5"
       id="b">
      <stop
         id="stop820"
         offset="0"
         stop-color="#fff000" />
      <stop
         id="stop822"
         offset="1"
         stop-color="#fc0" />
    </radialGradient>
    <radialGradient
       gradientUnits="userSpaceOnUse"
       gradientTransform="matrix(0.01231,-0.48118,0.85498,0.02184,379.85,513.6)"
       r="101.47"
       cy="271.73999"
       cx="594.73999"
       id="a">
      <stop
         id="stop825"
         offset="0"
         stop-color="#fff" />
      <stop
         id="stop827"
         offset="1"
         stop-color="#d5d5d5" />
    </radialGradient>
  </defs>
  <sodipodi:namedview
     id="base"
     pagecolor="#ffffff"
     bordercolor="#666666"
     borderopacity="1.0"
     inkscape:pageopacity="0.0"
     inkscape:pageshadow="2"
     inkscape:zoom="2.8"
     inkscape:cx="53.447258"
     inkscape:cy="68.600232"
     inkscape:document-units="mm"
     inkscape:current-layer="layer1"
     showgrid="false"
     fit-margin-top="0"
     fit-margin-left="0"
     fit-margin-right="0"
     fit-margin-bottom="0"
     inkscape:window-width="1920"
     inkscape:window-height="1017"
     inkscape:window-x="-8"
     inkscape:window-y="-8"
     inkscape:window-maximized="1" />
  <metadata
     id="metadata5">
    <rdf:RDF>
      <cc:Work
         rdf:about="">
        <dc:format>image/svg+xml</dc:format>
        <dc:type
           rdf:resource="http://purl.org/dc/dcmitype/StillImage" />
        <dc:title></dc:title>
      </cc:Work>
    </rdf:RDF>
  </metadata>
  <g
     inkscape:label="Layer 1"
     inkscape:groupmode="layer"
     id="layer1"
     transform="translate(-77.223309,-105.14369)">
    <g
       id="g862"
       transform="matrix(0.23590779,0,0,0.23590779,12.241732,33.542962)">
      <path
         id="path832"
         d="m 232.15,362.74 c -9.0633,6.9286 -60.347,-19.484 -71.751,-19.191 -11.377,0.29319 -59.797,29.983 -69.164,23.52 -9.3902,-6.4786 1.6659,-61.778 -2.1378,-72.534 -3.7945,-10.729 -47.212,-50.392 -43.96,-61.298 3.2598,-10.933 62.801,-15.168 71.855,-22.109 9.0317,-6.9243 27.945,-64.38 39.322,-64.657 11.405,-0.27806 34.657,55.267 44.056,61.732 9.3763,6.4499 67.655,8.4667 71.434,19.201 3.7888,10.761 -42.774,47.189 -46.019,58.126 -3.2368,10.911 15.405,70.297 6.3641,77.209 z"
         transform="matrix(0.76689,0.15519,-0.15519,0.76689,312.89,173.47)"
         inkscape:connector-curvature="0" />
      <path
         id="path834"
         d="m 228,358.36 c -9.0633,6.9286 -55.97,-23.63 -67.375,-23.336 -11.377,0.29319 -56.531,33.234 -65.898,26.771 -9.3902,-6.4786 5.1778,-60.533 1.3742,-71.288 -3.7945,-10.729 -49.076,-43.494 -45.824,-54.4 3.2598,-10.933 59.17,-13.781 68.224,-20.722 9.0317,-6.9243 26.2,-60.115 37.578,-60.392 11.405,-0.27806 31.391,52.016 40.79,58.481 9.3763,6.4499 65.269,6.3416 69.048,17.076 3.7888,10.761 -39.769,45.929 -43.014,56.866 -3.2368,10.911 14.138,64.034 5.0967,70.946 z"
         transform="matrix(0.76689,0.15519,-0.15519,0.76689,312.89,173.47)"
         inkscape:connector-curvature="0"
         style="fill:url(#b)" />
      <path
         id="path836"
         d="m 408.25,392.78 c -2.2056,4.8888 -2.1096,9.7713 -0.65625,13.906 -1.3212,1.1719 -5.5938,3.4375 -5.5938,3.4375 0,0 0.75,1.5 1.375,1.25 0.54605,-0.21842 3.8252,-2.634 4.75,-3.3125 1.0157,2.2983 2.4681,4.287 4.1562,5.875 -0.66143,1.3109 -4.6875,5.0312 -4.6875,5.0312 0,0 1.1192,1.2496 1.6562,0.84375 0.52543,-0.39705 3.9419,-4.7769 4.0938,-4.9688 0.58046,0.45922 1.1626,0.89327 1.7812,1.25 1.3216,0.76202 2.8911,1.3544 4.5938,1.7812 0.13565,1.3792 -1.5,6.75 -1.5,6.75 0,0 1.5833,0.52699 1.8438,-0.0937 0.2549,-0.60761 1.0284,-6.1068 1.0625,-6.3438 6.4991,1.222 14.465,0.0844 18.625,-3.9062 l -0.5,-0.84375 c -7.1839,4.442 -15.695,4.5946 -21.875,1.0312 -6.18,-3.5634 -10.103,-10.819 -8.125,-21.531 l -1,-0.15625 z"
         inkscape:connector-curvature="0" />
      <path
         id="path838"
         d="m 407.09,318.88 c -10.856,6.5052 -16.643,18.951 -25.017,28.44 -4.319,6.8955 -10.712,13.935 -19.671,12.966 -15.026,1.2002 -30.907,-2.5967 -45.312,2.4688 -1.8533,2.1446 0.51528,7.339 2.0938,7.5 6.4376,-5.4072 15.826,-3.2819 23.688,-4.1875 10.725,-0.32324 22.512,2.2917 32.573,-1.6839 13.299,-11.817 20.107,-30.236 35.458,-39.66 3.5655,0.56445 -0.5842,-5.9142 -3.1562,-6.1875 h -0.0312 l -0.625,0.34375 z"
         inkscape:connector-curvature="0"
         style="fill:#fee800" />
      <path
         id="path840"
         d="m 359.25,369.78 c -2.2056,4.8888 -2.1096,9.7713 -0.65625,13.906 -1.3212,1.1719 -5.5938,3.4375 -5.5938,3.4375 0,0 0.75,1.5 1.375,1.25 0.54605,-0.21842 3.8252,-2.634 4.75,-3.3125 1.0157,2.2983 2.4681,4.287 4.1562,5.875 -0.66143,1.3109 -4.6875,5.0312 -4.6875,5.0312 0,0 1.1192,1.2496 1.6562,0.84375 0.52543,-0.39705 3.9419,-4.7769 4.0938,-4.9688 0.58046,0.45922 1.1626,0.89327 1.7812,1.25 1.3216,0.76202 2.8911,1.3544 4.5938,1.7812 0.13565,1.3792 -1.5,6.75 -1.5,6.75 0,0 1.5833,0.52699 1.8438,-0.0937 0.2549,-0.60761 1.0284,-6.1068 1.0625,-6.3438 6.4991,1.222 14.465,0.0844 18.625,-3.9062 l -0.5,-0.84375 c -7.1839,4.442 -15.695,4.5946 -21.875,1.0312 -6.18,-3.5634 -10.103,-10.819 -8.125,-21.531 l -1,-0.15625 z"
         inkscape:connector-curvature="0" />
      <g
         id="g848"
         word-spacing="0"
         letter-spacing="0"
         font-size="40"
         transform="matrix(0.92672,-0.37576,0.37576,0.92672,-39.407,8.0717)"
         style="font-size:40px;font-family:Rufscript;letter-spacing:0;word-spacing:0">
        <path
           id="path842"
           d="m 170.4,417.68 c 0.91585,-0.75517 1.7054,-1.7245 2.6994,-2.3471 4.7431,-1.5871 9.5043,-3.1469 14.073,-5.1961 2.6967,-1.2062 5.4633,-2.2309 8.265,-3.1644 1.5148,-0.55355 3.1572,-0.71622 4.7344,-0.9728 0.62986,0.16112 1.4094,0.0981 1.9514,0.39084 0.36053,0.63552 0.95609,1.2182 0.66612,2 -0.21776,1.2765 -0.0253,2.6738 -0.7979,3.787 -3.7235,7.2568 -7.2226,14.624 -10.785,21.961 l -3.3144,12.052 22.72,-7.2002 c 0.75518,-0.11004 1.3317,0.12723 1.6674,0.83268 0.73749,0.522 0.3933,1.1628 0.02,1.8067 -0.51989,0.97976 -0.88755,2.1194 -1.5002,3.0018 -3.1363,1.3414 -6.309,2.588 -9.5426,3.6762 l -17.762,6.306 -3.1328,-0.26575 c -0.30476,-0.84983 -0.80489,-1.687 -0.98908,-2.5446 1.5973,-5.79 3.1206,-11.605 4.7642,-17.38 l 8.0642,-19.183 -20.621,6.1757 c -0.45807,-0.47135 -1.1902,-0.83588 -1.4818,-1.3721 l 0.3015,-2.3641 z"
           inkscape:connector-curvature="0"
           style="fill:#ffffff" />
        <path
           id="path844"
           d="m 228.16,420.78 c -4.7664,1.9348 -13.02,-1.6222 -15.125,4.4375 1.3446,5.2369 15.565,-1.8306 10.819,4.0344 -3.9627,5.1325 -8.9153,10.759 -10.358,16.959 2.643,4.5135 10.27,0.60548 14.887,1.3215 3.3889,0.26521 9.9768,-0.90626 7.6211,-5.4396 -3.5039,-2.0024 -14.285,2.3982 -12.91,-1.716 3.0728,-6.6963 10.95,-10.547 13.129,-17.472 -0.4855,-3.3531 -5.8057,-2.0851 -8.0625,-2.125 z"
           inkscape:connector-curvature="0"
           style="fill:#ffffff" />
        <path
           id="path846"
           d="m 259.2,424.38 c -5.1251,0.30819 -11.877,-5.8023 -15.758,-0.66058 -0.36101,5.3411 15.297,3.2718 8.918,7.2813 -5.3747,3.606 -11.941,7.2953 -15.269,12.698 1.0616,5.1364 9.5262,3.8955 13.672,6.0675 3.1112,1.3444 9.6882,2.3457 8.9699,-2.6822 -2.6674,-3.0297 -14.303,-2.3474 -11.662,-5.7973 5.0796,-5.3591 13.759,-6.4364 18.072,-12.289 0.52122,-3.3782 -4.7724,-3.8303 -6.9427,-4.6172 z"
           inkscape:connector-curvature="0"
           style="fill:#ffffff" />
      </g>
      <path
         id="path850"
         d="m 355.78,420.89 c 8.2874,8.1929 18.913,18.264 30.956,20.824 l 10.782,2.2482 1.2392,-1.7733 c -4.6847,-15.694 -25.42,-23.221 -42.623,-24.835 z"
         inkscape:connector-curvature="0" />
      <path
         id="path852"
         d="m 359.78,419.89 c 8.2874,8.1929 24.163,21.264 36.206,23.824 l 1.5317,0.24815 -1.2608,-0.27328 c -4.6847,-15.694 -20.17,-17.971 -36.873,-24.085 z"
         inkscape:connector-curvature="0"
         style="fill:url(#c)" />
      <g
         id="g860"
         transform="translate(-153,237)">
        <path
           id="path854"
           d="m 506,243.86 c -26.934,0 -11.525,-57.808 43,-38 13.178,-37.251 67.833,-35.17 85.5,-4.5 63.327,-17.951 86.673,38.451 53.5,42.5 z"
           inkscape:connector-curvature="0" />
        <path
           id="path856"
           d="m 511.5,241.36 c -26.934,-0.15524 -15.275,-53.058 39.25,-33.25 13.178,-37.251 65.083,-34.67 82.75,-4 63.327,-17.951 84.673,34.201 51.5,38.25 z"
           inkscape:connector-curvature="0"
           style="fill:url(#a)" />
        <path
           id="path858"
           d="m 588.94,181.69 c -16.81,0.20988 -32.82,11.502 -37.594,27.719 -15.012,-5.8217 -34.955,-8.2168 -47.062,4.5312 -5.5482,5.8046 -8.3678,16.378 -2.25,22.781 -3.7671,-14.428 9.6185,-27.394 23.188,-29.156 10.015,-1.6843 20.269,0.20112 29.688,3.5625 6.5503,-19.39 28.195,-30.028 47.844,-26.75 3.8291,0.52874 7.6209,1.4612 11.219,2.8125 -7.7067,-3.9372 -16.359,-5.8297 -25.031,-5.5 z m 67.5,19.719 c -6.6611,0.20092 -13.196,1.2345 -19.625,2.875 1.8168,5.5408 7.5776,0.42193 11.672,0.72857 11.537,-2.232 24.809,-1.87 35.297,1.9589 -8.4038,-4.3534 -17.936,-5.8317 -27.344,-5.5625 z"
           inkscape:connector-curvature="0"
           style="fill:#9b9bea" />
      </g>
    </g>
  </g>
</svg>
