<?xml version="1.0" encoding="UTF-8"?>
<svg width="267.43mm" height="198.65mm" version="1.1" viewBox="0 0 267.43 198.65" xmlns="http://www.w3.org/2000/svg" xmlns:xlink="http://www.w3.org/1999/xlink"><defs><linearGradient id="z"><stop stop-color="#4d4d4d" offset="0"/><stop stop-color="#1f1f1f" offset="1"/></linearGradient><linearGradient id="b"><stop stop-color="#ff2a2a" offset="0"/><stop stop-color="#a42727" offset="1"/></linearGradient><linearGradient id="y"><stop stop-color="#fff725" offset="0"/><stop stop-color="#fff725" stop-opacity="0" offset="1"/></linearGradient><linearGradient id="a"><stop stop-color="#fff" offset="0"/><stop stop-color="#b7fdff" offset="1"/></linearGradient><linearGradient id="aa" x1="333.62" x2="410.39" y1="593.71" y2="708.62" gradientTransform="matrix(.29205 0 0 .29205 -113.75 -67.03)" gradientUnits="userSpaceOnUse"><stop stop-color="#fff" offset="0"/><stop stop-color="#72d8db" offset="1"/></linearGradient><linearGradient id="ab" x1="183.97" x2="242.96" y1="492.26" y2="608.32" gradientTransform="matrix(.38197 0 0 .27416 -139.42 -47.852)" gradientUnits="userSpaceOnUse" xlink:href="#z"/><linearGradient id="ac" x1="588.22" x2="645.09" y1="190.97" y2="314.21" gradientTransform="translate(0,308.27)" gradientUnits="userSpaceOnUse" xlink:href="#z"/><linearGradient id="ad" x1="694.64" x2="660" y1="487.67" y2="478.38" gradientTransform="translate(0,308.27)" gradientUnits="userSpaceOnUse" xlink:href="#b"/><linearGradient id="ae" x1="962.19" x2="924.15" y1="549.27" y2="545.98" gradientTransform="translate(0,308.27)" gradientUnits="userSpaceOnUse" xlink:href="#b"/><linearGradient id="af" x1="706.73" x2="669.69" y1="773.97" y2="765.4" gradientUnits="userSpaceOnUse" xlink:href="#a"/><linearGradient id="ag" x1="758.61" x2="690.68" y1="659.79" y2="690.51" gradientUnits="userSpaceOnUse" xlink:href="#a"/><linearGradient id="ah" x1="310.12" x2="311.88" y1="657.9" y2="636.94" gradientUnits="userSpaceOnUse" xlink:href="#a"/><linearGradient id="ai" x1="513.16" x2="483.25" y1="274.92" y2="255.23" gradientTransform="translate(0,308.27)" gradientUnits="userSpaceOnUse" xlink:href="#a"/><linearGradient id="aj" x1="501.55" x2="510.16" y1="417.51" y2="390.49" gradientTransform="translate(0,308.27)" gradientUnits="userSpaceOnUse" xlink:href="#a"/><linearGradient id="ak" x1="876.48" x2="877.01" y1="496.01" y2="520" gradientUnits="userSpaceOnUse" xlink:href="#y"/><linearGradient id="al" x1="331.46" x2="323.88" y1="311.75" y2="303.04" gradientTransform="matrix(.71296 0 0 .71356 -217.49 -120.31)" gradientUnits="userSpaceOnUse" xlink:href="#b"/><linearGradient id="am" x1="220.93" x2="226.08" y1="297.32" y2="304.39" gradientTransform="matrix(.71296 0 0 .71356 -217.49 -120.31)" gradientUnits="userSpaceOnUse" xlink:href="#b"/><linearGradient id="an" x1="216.22" x2="220.34" y1="298.27" y2="305.09" gradientTransform="matrix(.71296 0 0 .71356 -217.49 -120.31)" gradientUnits="userSpaceOnUse" xlink:href="#b"/><linearGradient id="ao" x1="235.51" x2="228.84" y1="257.62" y2="257.62" gradientTransform="matrix(.29205 0 0 .29205 -89.59 10.393)" gradientUnits="userSpaceOnUse" xlink:href="#a"/><linearGradient id="ap" x1="241.75" x2="236.04" y1="283.56" y2="260.27" gradientTransform="matrix(.25511 0 0 .27709 -80.905 14.607)" gradientUnits="userSpaceOnUse"><stop stop-color="#000080" offset="0"/><stop stop-color="#2a97ff" offset="1"/></linearGradient><linearGradient id="aq" x1="310.06" x2="340.95" y1="231.14" y2="217.48" gradientTransform="matrix(.72606 0 0 .74011 -220.45 -127.62)" gradientUnits="userSpaceOnUse" xlink:href="#a"/><linearGradient id="ar" x1="347.25" x2="346.59" y1="181.92" y2="208.44" gradientTransform="matrix(.71296 0 0 .71356 -217.49 -120.31)" gradientUnits="userSpaceOnUse" xlink:href="#a"/><linearGradient id="as" x1="336.46" x2="338.78" y1="291.33" y2="265.57" gradientTransform="matrix(.71296 0 0 .71356 -217.49 -120.31)" gradientUnits="userSpaceOnUse" xlink:href="#a"/><linearGradient id="at" x1="179.33" x2="193.32" y1="345.51" y2="366.72" gradientTransform="matrix(.54179 0 0 .57228 -174.14 -78.619)" gradientUnits="userSpaceOnUse" xlink:href="#y"/><linearGradient id="linearGradient1199" x1="241.75" x2="236.04" y1="283.56" y2="260.27" gradientTransform="matrix(.25511 0 0 .27709 -80.905 14.607)" gradientUnits="userSpaceOnUse" xlink:href="#ap"/></defs><g transform="translate(121.84 13.415)"><path d="m26.698 143.73s-8.2108-3.0198-10.42-5.1646c-2.2093-2.1449-10.547-12.283-12.101-15.207-1.554-2.9237-3.3731-6.4976-3.983-10.941-0.60968-4.4435-0.99332-11.654-0.72687-14.697 0.26644-3.0427 1.3675-10.541 1.8826-14.05 0.51517-3.5086-0.919-3.5647-2.2723-4.1713-1.3533-0.60649-4.0032-0.97832-6.7725-1.1515-2.7692-0.17324-31.622 2.3128-40.553 2.3654-8.9326 0.05259-26.524 1.3663-34.891 1.2594-8.3683-0.10695-17.58-2.4481-20.43-2.0709-2.85 0.37712-3.9605 1.1856-4.5386 2.6678-0.5781 1.4823-1.9026 4.3623-0.65029 5.6568 1.2523 1.2945 2.2862 2.8484 5.2012 3.8707 2.915 1.0222 12.159 2.53 15.77 2.4982 3.6106-0.03168 8.9326-0.05259 8.9326-0.05259s-6.8288 1.0733-10.973 1.0581c-4.1446-0.01515-10.99-0.05819-13.057-0.10018-2.0673-0.04198-2.5546 0.82112-3.2905 2.1502-0.73603 1.3291-1.6621 3.3382-0.36116 4.9157 1.301 1.5774 3.1359 3.2016 5.9435 3.7267 2.8077 0.52502 8.5829 1.1013 12.183 1.1384 3.6006 0.0371 10.369-0.62343 10.369-0.62343s-4.832 1.5969-8.2465 2.1335c-3.4142 0.53665-9.1813 0.51854-10.409 0.89861-1.2277 0.38008-2.4959 1.0353-2.429 1.8077 0.06691 0.77237 0.02267 2.3015 1.6512 3.4895 1.6285 1.1881 2.5369 1.7556 5.4052 1.8678 2.8683 0.11226 6.5559 0.78414 9.4647 0.62123 2.9087-0.16293 8.8738-0.26678 8.8738-0.26678s-1.5049 0.42545-1.616 1.1822c-0.11112 0.75675 0.17229 1.8965 1.5944 2.6485 1.4221 0.75197 4.9097 2.1727 8.2533 2.1176 3.3435-0.0551 12.483 0.32851 14.578 0.79109 2.0957 0.46255 7.3493 3.3623 10.815 5.5478 3.4653 2.1854 7.2343 5.373 11.254 7.4675 4.0196 2.0947 6.9592 4.7915 12.146 6.9186 5.1867 2.1273 17.13 7.356 17.13 7.356z" style="stroke-width:1.4603;stroke:#000"/><path d="m10.177 140.47s-14.468-2.0132-20.75-8.1447c-6.2815-6.1314-19.497-28.34-19.497-28.34s-7.0514 2.6142-9.6713 1.5004c-2.62-1.1138-3.9994-3.3488-3.4899-5.2208 0.50938-1.8721 8.8445-6.6416 8.8445-6.6416s-6.8601 0.92866-9.3403-0.76314c-2.4802-1.6918-3.348-3.2007-2.2358-5.1528 1.1123-1.9521 6.1751-4.0497 6.1751-4.0497s-3.4126-0.01614-4.8736-2.1861c-1.461-2.17-2.1491-3.9553-0.9235-5.5975 1.2256-1.6424 4.7495-3.9145 7.5041-4.6411 2.7546-0.72654 10.028-0.7176 15.527-1.4296 5.4994-0.71197 15.772-1.6245 18.214-0.90199 2.4417 0.72247 3.1829 0.73237 3.7992 1.8415 0.61621 1.1091-1.8504 11.073-1.4478 19.951 0.40267 8.8786 0.61402 19.443 4.1174 25.853 3.5033 6.4101 8.3629 14.607 10.184 16.224 1.8206 1.617 6.8641 4.2677 6.8641 4.2677z" style="fill:url(#aa);stroke-width:.26458"/><path d="m-44.53 81.958s-6.1753 2.2146-7.0747 3.6045c-0.89938 1.3901-1.9599 3.185-0.90963 4.525 1.0502 1.3398 2.5776 3.3457 5.5271 3.7252 0 0-3.7422 0.94943-4.7264 2.2629-0.98434 1.3134-2.1842 3.3757-1.0687 4.3029 1.1155 0.92705 2.8237 3.0173 5.1022 3.3422 2.2786 0.32498 6.5611 0.25574 6.5611 0.25574s-6.2317 3.1855-6.9065 4.3849c-0.67504 1.1993-1.52 2.2454 0.11617 3.5632 1.6362 1.3179 3.0786 3.2471 5.4967 3.3047 2.418 0.0577 11.893-1.5397 11.893-1.5397s15.929 18.37 18.522 20.392c2.5926 2.0229 5.7019 5.6906 8.2225 6.9412 2.5206 1.2505 5.5946 2.6855 9.533 3.5638 3.9387 0.87826 16.044 2.9095 16.044 2.9095l-13.176 2.8986s-13.544-5.2145-20.903-9.0192c-7.3591-3.8049-14.091-7.2798-16.258-8.9198-2.1677-1.6401-13.597-8.5634-16.62-9.0885-3.0236-0.52503-14.453-0.68957-16.85-0.88477-2.3962-0.1952-6.5701-0.81392-8.4827-2.224-1.9129-1.4101-0.17261-2.5923 1.0537-2.9801 1.2263-0.38786 3.3805-1.1183 3.3805-1.1183s-10.752 1.0752-17.366 0.5365-10.8-0.46169-12.243-2.3909c-1.4424-1.9292-0.89382-3.5568 0.0973-3.6852 0.99112-0.12832 6.5829 0.11815 11.7-0.92837 5.1167-1.0465 19.458-5.174 19.458-5.174s-11.554 1.8461-17.583 1.9124c-6.0296 0.0663-17.533-0.24367-20.743-2.6651-3.2092-2.4215-2.7455-4.1258-1.7503-5.5081 0.99521-1.3822 1.4656-1.9014 2.3391-1.8999 0.8735 0.0015 13.421 0.46611 20.06-0.38668 6.6393-0.85279 19.099-2.9038 19.099-2.9038s-14.599 1.4587-22.905 0.57304c-8.3063-0.88565-16.666-1.4273-19.63-4.1772-2.9631-2.7498-2.3621-4.0945-1.3343-5.6832 1.0278-1.5886 0.76207-1.7496 2.7246-2.4957 1.9625-0.74598 7.5176 0.96078 12.31 1.3512 4.7925 0.39038 22.06 0.47304 30.392-0.03284 8.3319-0.50588 16.897-0.64435 16.897-0.64435z" style="fill:url(#ab);stroke-width:.26458"/><g transform="matrix(.23316 0 0 .25372 -81.08 -39.067)" style="stroke-width:1.2007"><path d="m344.73 610.13s-7.9464 26.339-9.9107 37.143-4.4643 23.482-1.0714 31.875c3.3929 8.3929 7.4107 17.232 15.357 21.071 7.9464 3.8393 24.464 7.3214 35.625 5.8929 11.161-1.4286 21.339-6.6964 26.964-12.857 5.625-6.1607 22.589-41.607 30.804-61.607 8.2143-20 18.393-38.393 24.554-52.054 6.1607-13.661 18.304-40.357 23.929-49.464 5.625-9.1072 15.625-24.018 33.214-36.339s35.714-17.946 52.679-21.518c16.964-3.5714 45-5.625 55.268-5.1786s20.089-1.7857 28.839-1.9643c8.75-0.17858 56.161 2.5 68.661 2.6786s40.714 0.0893 55.179-1.1607c14.464-1.25 51.518-7.7678 54.821-6.7857s8.2143 4.2857 10.268 9.5536 4.1071 12.857 1.7857 19.018c-2.3214 6.1607-5.3571 11.964-12.232 14.821-6.875 2.8571-35.446 7.4107-53.214 9.8214s-53.571 0.625-53.125 0.71428c0.44643 0.0893 12.054 5.8036 25.893 7.1429s32.054 5.7143 46.161 5.4464c14.107-0.26786 38.929-2.6786 42.589-0.98215 3.6607 1.6964 5.1786 5.2679 4.7321 7.7679-0.44642 2.5-1.875 13.661-5.4464 19.375-3.5714 5.7143-8.6607 12.143-14.375 14.018s-27.946 4.1964-37.411 3.0357c-9.4643-1.1607-68.482-8.3928-68.482-8.3928s28.214 8.6607 37.946 10.982c9.7321 2.3214 29.672 8.5491 39.673 10.5 10.834 2.1132 15.804 0.66613 18.483 2.9876s1.9338 5.5304-0.11979 8.834-7.5 15.089-15.357 20.268c-7.8571 5.1786-20.357 7.3214-30 6.4286-9.6429-0.89286-37.232-8.0357-47.589-11.607-10.357-3.5714-46.786-11.964-52.054-12.054-5.2679-0.0893-15.357 0.35714-15.357 0.35714s6.3393 7.3214 14.464 10.268 23.393 4.0179 25.089 7.3214 0.53571 6.3393-3.3036 9.5536c-3.8393 3.2143-15 10.714-24.196 10.893s-41.161-11.518-41.161-11.518 3.0357 5.2679 5.1786 6.7857c2.1428 1.5178 8.3036 5.2678 8.9286 7.5893s-2.0536 5.9821-6.3393 8.3036c-4.2857 2.3214-7.8571 3.9286-12.946 4.375-5.0893 0.44643-19.643-3.2143-25.446-5.625-5.8036-2.4107-11.161-5.1786-11.161-5.1786s-0.71429 2.2321-2.3214 2.9464-4.0179 0.89286-4.0179 0.89286 1.9643 1.4286 0.625 4.6428c-1.3393 3.2143-3.6607 5.9822-6.875 7.2322s-10.804 2.5-13.929 5.2678c-3.125 2.7679-14.821 24.643-14.821 24.643s46.786 5.4464 56.964 5.8929 51.429 1.5179 51.429 1.5179 27.321-9.1072 36.25-12.232 22.054-9.2857 25.179-8.125 3.4822 3.5714 3.4822 5.3572c0 1.7857-0.98215 9.375-0.98215 9.375s12.589-1.4286 18.125-2.3214c5.5357-0.89286 10.804-1.7857 13.661-2.2322 2.8571-0.44642 7.4107-3.4821 9.4643-3.3036 2.0536 0.17857 4.375 2.1429 5 5.4464s1.5179 10.536-0.17857 14.375c-1.6964 3.8393-10.982 12.589-16.25 14.821-5.2678 2.2321-30.446 9.4643-41.161 10.179-10.714 0.71429-34.286 1.9643-34.286 1.9643s17.232 3.2143 26.25 3.3928c9.0179 0.17858 19.911 1.4286 25.357 0.98215s14.196-2.4107 15.714-1.3393c1.5179 1.0714 3.0357 2.7679 2.6786 5.0893-0.35714 2.3214-1.1607 7.4107-5 11.071-3.8393 3.6607-7.5 7.5893-14.018 9.1964-6.5179 1.6071-19.821 2.1428-31.25 1.3393s-21.518-2.9464-21.518-2.9464l-5.3571 2.8572s10.893 4.1964 12.679 5.9821c1.7857 1.7857 1.4286 4.7321 0.89286 6.7857-0.53572 2.0536-2.3214 5.3572-2.3214 5.3572s117.23 30.625 122.32 31.607c5.0893 0.98214 22.679 4.9107 28.304 4.1071s32.054-20.179 35.893-22.5c3.8393-2.3214 9.2857 0.71429 10.893 2.6786 1.6071 1.9643 3.6607 4.8214 3.75 7.1429 0.0893 2.3214 0 4.2857 0 4.2857s7.2321-4.1964 11.161-4.1071c3.9286 0.0893 11.607 2.3214 13.125 5.4464 1.5178 3.125 2.0536 5.5357 0.71428 7.0536-1.3393 1.5179-12.411 10.089-14.643 12.411-2.2321 2.3214-3.3928 4.5536-3.3928 4.5536s5.9821 5.5357 12.5 6.5178c6.5179 0.98215 12.054 2.9464 20.536 1.4286 8.4822-1.5179 19.464-4.1072 24.196-2.5893s7.4107 3.75 7.9464 6.5179c0.53571 2.7678-0.89286 7.9464-0.89286 7.9464s3.6607-1.3393 7.5-0.80358 6.875 1.6964 7.2322 5.3572c0.35714 3.6607-3.2143 11.875-3.2143 11.875s1.9643-0.71429 2.9464 0.98214 1.9643 5 0.53571 7.8571c-1.4286 2.8572-7.0536 8.75-11.25 8.4822-4.1964-0.26786-23.75-0.0893-34.018-3.4822-10.268-3.3928-27.143-8.3036-38.929-13.661-11.786-5.3571-34.643-17.857-34.643-17.857l-64.196-16.071s-10.179 3.3928-21.786 0.26785c-11.607-3.125-16.071-11.518-16.071-11.518l-86.518-22.321s-6.7857 3.3036-15.268 4.5536-36.964-1.6071-49.554-3.3036c-12.589-1.6964-45.089-5.7143-45.089-5.7143s-15.982 2.7679-35.179 4.1964-37.679 0-46.607-2.6786-12.5-9.9107-12.5-9.9107-0.80357 3.8393 1.6071 13.571c0 0-14.732-9.0178-18.393-13.661-3.6607-4.6429-5.3571-9.6429-5.3571-9.6429s-0.625 4.0179 0.17857 8.6607 6.4286 17.946 6.4286 17.946-18.929-10.179-23.661-14.286-8.0357-6.6964-8.0357-6.6964-8.2143 0.44643-25-2.7678c-16.786-3.2143-46.607-8.2143-58.393-14.643-11.786-6.4286-28.393-19.554-34.107-31.786-2.7734-5.9368-5.0893-14.554-6.0714-24.643-0.98214-10.089-1.7857-18.839-0.53571-31.518s6.9643-23.304 8.8393-30.982c1.875-7.6786 8.0357-23.571 8.0357-23.571l40.893-23.036z" style="stroke-width:6.0036;stroke:#000"/><path d="m304.11 621.47s-15 40.536-16.071 56.964c-1.0714 16.429 2.5 45 8.75 52.857 6.25 7.8572 21.607 26.786 48.75 34.464 27.143 7.6786 62.321 11.607 62.321 11.607l-5.5357-9.8214s11.964 13.214 16.429 16.071c4.4643 2.8571 16.429 9.8214 16.429 9.8214s-3.0357-8.3929-2.8571-14.643 1.6071-11.339 1.6071-11.339 4.6429 10.804 10.714 16.161 10.357 8.125 10.357 8.125c-2.0536-9.1964-0.35714-16.339-0.35714-16.339s5 10 10.893 13.393c5.8928 3.3929 40.893 6.25 56.25 3.9286s83.75-14.821 83.75-14.821l-41.964 12.679s33.75 5 46.964 5.8928c13.214 0.89286 26.071 5 38.75 1.0714s21.607-6.6071 24.464-12.321c2.8572-5.7143 3.3929-9.2857 0.17857-12.857-3.2143-3.5714-47.679-17.143-47.679-17.143l23.929 3.0357s11.964 0.71429 21.25-5.1786l-17.5-5.5357s36.964 7.5 47.143 6.7857c10.179-0.71429 24.107 2.5 33.393-5.1786 9.2857-7.6786 10.536-13.929 9.4643-15.536-1.0714-1.6071-9.2857 0-15.179 0.35714-5.8928 0.35715-40.714-1.7857-53.214-3.75s-18.571-8.3928-18.571-8.3928 21.964 4.4643 44.107 1.7857 37.679-5.8929 48.571-11.071 16.429-10.179 17.321-16.964c0.89286-6.7857 0.17857-11.25-2.3214-12.321s-7.6786 2.3214-11.964 3.0357c-4.2857 0.71429-37.143 6.25-56.607 8.3929s-67.504 1.3473-86.697 0.33711c-19.193-1.0102-60.862-6.0609-60.862-6.0609s-9.7227 13.637-24.749 19.445-30.178 7.4499-42.3 4.1669-22.981-15.279-22.981-15.279 12.753 8.7126 28.032 5.177c15.279-3.5355 29.421-13.637 33.84-22.097 4.4194-8.46 15.405-31.441 20.961-45.204s14.521-25.885 23.107-34.598c8.5863-8.7126 10.733-9.4702 10.733-9.4702s3.7881 2.0203 8.8388-0.3788c5.0508-2.3991 7.1973-5.8084 7.1973-5.8084s-6.1872-1.894-10.48-6.9448c0 0 13.258 4.672 21.466 3.6618 8.2075-1.0102 21.339-3.0304 25.001-9.3439 3.6618-6.3134 0.25254-10.354-3.4093-12.627-3.6618-2.2728-30.305-9.3439-30.305-9.3439s18.183 3.9143 24.875 3.7881 26.895-2.2728 32.451-7.3236 5.8084-9.4702 4.4194-13.006c-1.389-3.5355-4.9245-9.9753-10.228-12.753s-32.451-9.4702-32.451-9.4702l8.0812-0.37881 7.3236 1.5152s8.5863-0.12627 15.784-5.8084c7.1973-5.6821 11.364-11.112 11.238-16.541s-1.894-10.985-9.0914-14.016c-7.1973-3.0305-12.627-3.0305-19.067-3.283-6.4397-0.25254-10.354 0.12626-10.354 0.12626l12.879-1.894s1.7678-1.0102-0.25254-1.6415c-2.0203-0.63135-27.274 0.12627-38.891 3.283-11.617 3.1567-40.154 5.4296-63.64 22.981-23.486 17.551-40.027 47.225-47.603 64.902-7.5762 17.678-36.365 79.171-42.931 94.197s-10.859 29.673-22.981 40.659-24.622 14.016-40.406 12.627-27.653-6.0609-32.83-12.879c-5.177-6.8185-10.733-17.425-10.354-27.653 0.37881-10.228 7.5761-40.28 10.859-48.992s1.6415-19.193 1.6415-19.193z" style="fill:#fff;stroke-width:1.2007"/><path d="m472.05 705.04s13.125 7.5893 25.268 6.7857c12.143-0.80358 33.929-7.4107 44.196-18.75 10.268-11.339 16.339-27.857 20.268-31.964s16.875-5.8036 19.018-8.5714c2.1429-2.7679 3.125-3.8393 2.6786-6.1607-0.44643-2.3214-3.9286-3.6607-3.9286-3.6607s4.5536 0.625 7.2322-0.53571c2.6786-1.1607 3.2143-5 3.2143-5s14.107 8.4821 23.661 9.8214c9.5536 1.3393 18.304 3.2143 23.482-0.0893 5.1786-3.3036 8.4821-5.5357 7.7679-7.3214-0.71429-1.7857-6.0714-5.0893-9.375-8.2143s-12.589-15.089-12.589-15.089 18.214 9.375 27.768 11.875 17.411 7.2321 28.214 3.8393c10.804-3.3929 14.464-5.0893 16.875-8.2143 2.4107-3.125 4.6428-4.2857 3.9286-6.3393-0.71429-2.0536-8.2143-2.0536-13.393-3.4822s-16.607-4.8214-22.411-10.357c-5.8036-5.5357-5.4464-8.2143-5.4464-8.2143s11.339 1.1607 16.696 0.35715c5.3571-0.80357 33.929 6.25 42.768 8.3036 8.8393 2.0536 44.018 12.857 53.214 14.018 9.1964 1.1607 28.661 0.71428 35.446-6.25 6.7857-6.9643 15.893-19.643 14.107-22.857-1.7857-3.2143-3.6607-0.89285-9.0179-1.7857-5.3571-0.89286-47.768-11.786-64.286-16.339s-47.143-16.518-47.143-16.518 47.946 7.7678 58.304 9.1071c10.357 1.3393 53.839 4.2857 62.946 2.4107s16.161-4.5536 20-9.6428c3.8393-5.0893 9.6429-19.375 8.4821-23.036-1.1607-3.6607-3.3036-5.1786-5.5357-5.1786s-29.732 1.0714-39.911 1.0714-32.054-3.2143-48.571-5.9821c-16.518-2.7679-43.125-13.304-43.125-13.304s42.946 3.9286 71.696 0 49.821-5.2678 55.625-9.6428c5.8036-4.375 9.1071-11.161 9.1071-17.321 0-6.1607-0.53572-11.875-3.8393-15.625s-3.8393-4.8214-7.5-4.8214-10.714 1.6071-15.714 2.2321-36.607 4.1964-54.821 5.8036-58.75-0.71428-75.446-1.3393-21.875-1.4286-34.911-0.80357c-13.036 0.625-25.089 1.6071-25.089 1.6071l-0.44643 1.5179s13.661 0.625 18.571 4.2857 7.3214 9.6429 7.1429 15.446-5.8036 14.196-11.25 17.411c-5.4464 3.2143-14.018 5.8036-14.018 5.8036s12.054 1.875 15.714 5.3571c3.6607 3.4821 10.804 11.25 11.071 17.589 0.26786 6.3393-4.1071 11.518-11.696 14.464-7.5893 2.9464-24.554 4.4643-24.554 4.4643s6.6964 2.9464 7.6786 5.7143c0.98215 2.7679 1.6072 8.0357-0.44642 11.161-2.0536 3.125-9.9107 8.4821-18.75 9.7321s-15.982 1.4286-15.982 1.4286-3.8393 6.5179-9.2857 8.5714-10.357 0.98214-10.357 0.98214-8.6607 6.1607-17.054 17.411c-8.3928 11.25-15.982 26.429-22.411 42.232s-12.679 30-17.857 34.821-9.6429 8.4821-19.375 12.768c-9.7322 4.2857-15.893 5.625-26.607 4.0179z" style="fill:url(#ac);stroke-width:1.2007"/><path d="m678.66 776.38-0.35714 5.2679s123.21 33.304 132.5 35.714c9.2857 2.4107 22.232 5.9821 30 5.0893 7.7678-0.89286 17.5-5.9822 21.518-10.179 4.0179-4.1964 16.339-9.375 17.232-11.25 0.89285-1.875 0.71428-5.0893-2.1429-7.6786-2.8571-2.5893-5.3571-4.9107-10.089-2.5893-4.7321 2.3214-21.161 16.429-28.036 19.732s-18.839 2.0536-25.268 0.625-66.071-15.804-84.643-20.804c-18.571-5-50.714-13.929-50.714-13.929z" style="fill:#8e2100;stroke-width:1.2007"/><path d="m677.41 783.43s142.86 38.214 149.02 39.821c6.1607 1.6071 12.679 1.875 17.054 1.1607 4.375-0.71428 14.821-4.7321 19.643-8.2143 4.8214-3.4822 18.839-12.857 25.982-14.464 7.1428-1.6071 9.5536-0.17857 12.054 1.0714s3.9286 2.7679 4.0179 4.2857c0.0893 1.5179-4.8214 6.6072-9.7322 10-4.9107 3.3929-11.786 7.6786-12.143 14.375-0.35715 6.6964 1.6964 9.2857 4.4643 11.339s18.571 10.804 29.464 14.286c10.893 3.4822 28.125 7.7679 35.357 8.2143s11.607-0.44643 12.946 0.98214 1.0714 4.1072-0.0893 6.0714c-1.1607 1.9643-4.1071 6.0714-10.179 6.0714s-22.679 0.0893-39.732-5.5357c-17.054-5.625-33.661-12.321-45.357-18.929-11.696-6.6071-19.464-10.804-19.464-10.804l-61.607-14.375 4.9107-4.9107s-14.821 6.3393-28.214 3.75-17.321-13.393-17.321-13.393l-1.3393 1.5179-80.357-20.357s5.1786-2.0536 7.8571-5.8929c2.6786-3.8393 2.7679-6.0714 2.7679-6.0714z" style="fill:url(#ad);stroke-width:1.2007"/><path d="m894.02 844.33s20 10.179 32.411 13.393c12.411 3.2143 35.446 5.8036 35.446 5.8036s5.3571-8.5714 3.6607-11.696-4.1964-3.125-7.9464-2.7679-18.036 2.8571-27.857 1.875-35.714-6.6071-35.714-6.6071z" style="fill:url(#ae);stroke-width:1.2007"/><path d="m886.79 828.79s-2.3214 3.0357-1.6071 6.25c0.71428 3.2143 4.6875 6.3393 4.6875 6.3393s33.438 6.6518 41.161 7.0536c7.7232 0.40179 19.598-0.40179 19.598-0.40179s2.0089-5.5804 1.0268-7.7678-2.9464-4.8661-7.2321-5.0893c-4.2857-0.22321-15.938 2.9464-24.598 2.9464-8.6607 0-17.679-0.22321-22.054-2.7232s-10.982-6.6072-10.982-6.6072z" style="fill:#8e2100;stroke-width:1.2007"/><path d="m651.34 760.49s20.192 7.2346 23.125 9.5536c2.0457 1.6172 3.8393 4.6429 3.8393 4.6429s1.6964-2.7679 2.3214-5 1.3393-4.0179-0.26785-5.2679c-1.6072-1.25-13.571-6.5179-13.571-6.5179s-4.6428 2.3214-15.446 2.5893z" style="fill:url(#af);stroke-width:1.2007"/><path d="m663.75 694.59s28.214-8.9286 33.839-11.607 20.446-8.9286 22.5-6.875-0.44643 12.5-0.44643 12.5-19.018 3.3929-26.875 4.1964-29.018 1.7857-29.018 1.7857z" style="fill:url(#ag);stroke-width:1.2007px;stroke:#000"/><path d="m338.15 612.43-37.844 21.906c-3.4093 6.566-4.7659 12.967-9.125 27.188 5.0453-8.5203 12.79-13.969 21.469-13.969 6.5477 0 13.314 4.1078 18.039 9.2914 2.2715-9.978 4.1477-20.8 5.8049-25.198 3.283-8.7126 1.6562-19.219 1.6562-19.219z" style="fill:url(#ah);stroke-width:1.2007"/><path d="m417.7 696.79c19.445-25.001 31.315-55.558 42.426-85.358 11.112-29.8 34.345-74.751 41.416-84.853 7.0711-10.102 21.213-30.305 42.426-37.881 21.213-7.5761 42.426-13.637 54.548-14.142 12.122-0.50507 27.022-2.2728 35.86 1.0102 8.8388 3.283 13.89 3.5355 11.364 9.0914s-6.0609 9.849-18.688 10.354c-12.627 0.50508-57.074-1.7678-83.085 35.355-26.011 37.123-43.689 96.722-60.104 120.21-16.415 23.486-21.971 34.093-31.315 40.406-9.3439 6.3134-34.85 5.8084-34.85 5.8084z" style="fill:url(#ai);stroke-width:1.2007"/><path d="m459.11 697.8s0.75762 33.082 11.617 45.709 20.456 22.476 38.133 19.951 30.557-8.5863 38.133-22.476c7.5761-13.89 2.2728-52.275 2.2728-52.275s-11.364 13.637-23.739 18.94c-12.374 5.3033-22.981 8.0812-35.608 6.8185s-30.81-16.668-30.81-16.668z" style="fill:url(#aj);stroke-width:1.2007"/><path transform="translate(0,308.27)" d="m850.3 516.81s29.8-19.445 37.376-20.708c7.5762-1.2627 11.617-1.0102 13.132 1.2627 1.5152 2.2728-5.8084 9.0914-12.122 14.142-6.3135 5.0508-9.0914 8.5863-9.0914 12.879s-10.607 5.0508-20.708 3.0305c-10.102-2.0203-8.5863-10.607-8.5863-10.607z" style="fill:url(#ak);stroke-width:1.2007"/></g><path d="m-63.767 105.99s-0.09789 4.0475-9.9645 11.374c-43.892 30.679-80.352 70.748 0.98232 36.598 11.268-4.5872 16.876-5.9223 26.934-11.529 10.058-5.6066 40.104-20.578 46.915-24.083 6.8113-3.5041 9.1665-4.4598 9.1665-4.4598s8.0842-1.4654 13.177-3.9501c5.0926-2.4847 12.859-7.3269 15.914-12.169 3.0555-4.842 2.9282-10.958 2.9282-10.958l2.9919 2.1024-1.0185-2.8033 2.5463 1.3379s-0.82753-3.8226-3.2465-7.1356l5.1562 2.0387s-3.5648-7.9641-10.185-10.512c0 0 2.1643-5.6065 3.3101-10.703 1.1458-5.0969-1.6551-14.717-3.9467-19.113-2.2917-4.396-6.0474-9.302-6.0474-9.302s4.1953-0.36533 6.8749-1.3379c2.8845-1.0469 5.7928-2.4847 6.7476-4.2686 0.95486-1.7839 1.2731-5.1606 0.82753-8.6648 0 0-6.493 4.3323-9.8032 5.4792-3.3102 1.1468-7.7662 1.3379-7.7662 1.3379s11.84-5.6065 14.705-9.0473c2.8646-3.4404 6.8113-8.6648 7.0022-13.061 0.19098-4.396-1.9097-7.8363-4.074-10.194-2.1643-2.3573-9.421-5.288-9.421-5.288s0.19098 12.424-2.4826 17.265c-2.6736 4.842-3.6921 6.6259-6.0474 8.856-2.3553 2.2299-4.9652 4.2049-4.9652 4.2049s0.4456-2.5484 0-5.0968c-0.4456-2.5484-1.5914-4.4598-3.2465-5.6703-1.6551-1.2105-4.456-1.8476-4.456-1.8476s1.6551 4.205 1.1458 7.2634c-0.50925 3.0581-3.3738 6.5622-3.3738 6.5622s-11.713-5.1606-21.007-4.6509c-9.2941 0.50969-22.089 1.3379-29.855 5.6066-7.7662 4.2686-16.805 8.856-19.033 13.061-2.228 4.205-2.2917 16.438-2.9919 20.578-0.70023 4.1412-2.0371 13.953-4.2014 17.265-2.1643 3.313-5.0289 4.7146-7.193 7.7728-2.1643 3.0581-4.1377 9.6202-4.1377 9.6202l3.5011-2.6121s-1.4641 2.6759-0.8912 5.4792c0.57291 2.8033 1.6177 6.4202 3.1829 8.856 1.1757 1.8297 3.5987 3.9981 5.3472 5.7977z" style="stroke-width:1.4602;stroke:#000"/><path d="m-0.055721 113.17c-6.7072 5.8091-6.433 8.3084-23.996 16.846-88.219 45.087-133.83 54.147-55.731-6.7707 9.1783-6.6013 16.792-13.939 20.234-19.044 3.4419-5.105 12.264-13.616 16.324-13.792 4.0596-0.17603 14.577 2.8686 17.136 4.4529 2.5593 1.5843 8.0328 4.52 17.651 3.9607 11.197-0.65105 12.62-7.2173 26.741-10.298-4.1246 9.3643-10.599 17.562-18.357 24.644z" style="fill:#ff2a2a;stroke-width:.29205"/><path d="m-3.1439 118.19c19.715-8.1988 32.319-29.463 32.319-29.463s-1.8905-1.5317-7.2023-1.0812c0 0-9.0025 18.381-25.117 30.544z" style="fill:url(#al);stroke-width:.29205"/><path d="m-59.774 90.166c4.3212 3.1535 5.8066 4.8204 5.8066 4.8204-1.8005 2.8382-3.511 4.3248-3.511 4.3248s-2.6107-3.4689-2.2956-9.145z" style="fill:url(#am);stroke-width:.29205"/><path d="m-62.383 104.76 3.0608-3.1535s-3.466-2.3426-4.3212-5.316c-0.85526-2.9733-0.94524-7.118-0.94524-7.118l-3.0608 0.54061s3.691-2.5228 6.8869-1.802c3.1959 0.72077 7.7869 5.9016 7.7869 5.9016s4.5912-4.5501 9.5429-5.0457c4.9513-0.49556 12.649 1.4416 16.295 3.1986 3.646 1.7569 8.3273 4.9555 15.259 4.9105 6.9319-0.04503 9.4524-1.3065 11.793-2.7481 2.3406-1.4416 12.604-8.1539 20.751-8.3794 8.147-0.22549 15.349 4.5951 15.349 4.5951l-5.1314-1.3065s-2.8808 5.0006-6.8418 9.7309c-3.961 4.7303-13.909 13.695-13.909 13.695s11.182-2.8135 17.357-6.5087c6.1747-3.6953 10.026-8.1867 11.745-12.2 1.7187-4.0138 1.4323-9.7794 1.4323-9.7794l2.5145 2.3254-1.3368-2.9307c1.0822 0.38226 2.3871 1.4335 2.3871 1.4335s-1.8779-5.4473-5.3154-7.486l5.6973 2.1024s-3.7876-5.0332-7.8297-6.1481c-4.0422-1.1149-12.89-0.2867-12.89-0.2867s6.4612-1.9432 12.763-1.4335c0 0 4.1058-9.1743 3.8512-15.864-0.25462-6.6896-4.8061-15.259-8.3387-19.591-3.533-4.3323-5.1244-6.5304-5.1244-6.5304s1.8284 1.1123 3.3102 1.4654c2.0052 0.47783 7.4119-1.022 9.3896-1.7839 2.5275-0.97401 5.8246-3.6315 4.997-8.0276 0 0-4.3286 3.313-8.3387 4.205-4.0101 0.89195-14.768 1.7839-14.768 1.7839s12.636-5.0332 18.587-10.481c5.9519-5.4473 7.5431-9.3976 8.0208-12.742 0.47742-3.3448-0.50926-10.863-9.421-13.22 0 0-0.25463 9.3655-2.6418 14.59-2.3871 5.2243-6.111 9.1108-8.3387 11.373-2.228 2.2617-8.8799 5.1606-8.8799 5.1606s2.7229-2.7885 3.1192-5.9251c0.35011-2.7714-0.25462-5.8932-3.883-7.4225 0 0 0.25463 4.9376-0.50926 7.2634-0.76386 2.3254-3.6921 6.0526-3.6921 6.0526s-10.344-5.8295-23.458-5.3199c-13.113 0.50969-20.752 2.421-29.792 7.1356s-15.023 8.7918-16.551 12.615c-1.5278 3.8227-1.5915 17.903-2.2917 21.375-0.7002 3.4722-2.4508 11.468-4.1058 14.654-1.6551 3.1856-5.5063 5.6384-7.0659 7.6451-1.5596 2.0067-2.7373 4.8102-2.7373 4.8102l3.151-3.536s-1.4641 3.8227-1.7187 5.9251c-0.25463 2.1024 0.09548 5.6703 0.09548 5.6703l0.82753-3.1856s0.31828 4.8739 1.4323 7.6772c1.114 2.8033 5.8367 7.4382 5.8367 7.4382z" style="fill:#fff;stroke-width:.29205"/><path d="m-63.325 88.989 1.8005 0.13514c-0.04499 7.3433 3.5559 11.217 3.5559 11.217l-0.58516 0.58566s-5.0414-2.5228-4.7713-11.939z" style="fill:url(#an);stroke-width:.29205"/><path d="m-9.5248 87.512s4.1377-6.1162 9.9942-8.983l0.76386-3.3766 0.70023 2.5484c5.6654-2.7396 12.413-3.8227 12.413-3.8227s-10.185 3.759-13.113 5.6066c-2.9283 1.8476-10.758 8.0276-10.758 8.0276z" style="stroke-width:.29205"/><g transform="matrix(2.4412 0 0 2.4433 1.2162 -145.7)" style="stroke-width:.40945"><path d="m-26.122 93.44s1.9817 0.23468 2.8422 0.78228c0.86049 0.5476 3.1813 1.7992 3.1813 1.7992l-0.93873-1.1734s1.4342 0.2086 2.06-0.18253c0.6258-0.39114 1.2205-1.273 1.4081-2.1643 0.52151-2.4772 0.49543-11.447 0.39114-13.429-0.1043-1.9817-0.88657-4.1199-2.3207-4.2505-1.4342-0.13038-3.3898 3.0247-3.7289 5.2411-0.33898 2.2164-0.88657 8.8137-0.49543 13.246 0 0-0.56739-0.19031-0.86049-0.18253-0.36886 0.0098-1.5385 0.3129-1.5385 0.3129z" style="stroke-width:.11958"/><path d="m-23.149 93.387s0.7562 0.86049 1.8514 0.96481c1.2484 0.1189 1.7731 0.2086 2.3729-0.4433 0.59975-0.6519 1.0169-3.0247 1.043-4.9543 0.02608-1.9296 0.07822-6.7796-0.1043-7.6662-0.18253-0.88657-1.0169-3.103-2.0339-3.2073-1.017-0.1043-2.3729 1.4602-2.7379 2.8422-0.36506 1.382-0.52151 4.0156-0.52151 5.5801 0 1.5645-0.02608 4.5372 0.13038 6.8838z" style="fill:url(#ao);stroke-width:.11958"/><path d="m-17.573 89.223c0 3.0571-1.0608 5.5353-2.3694 5.5353-1.3086 0-2.3694-2.4782-2.3694-5.5353 0-3.0571 1.0608-5.5353 2.3694-5.5353 1.3086 0 2.3694 2.4782 2.3694 5.5353z" style="stroke-width:.1289"/><path d="m-18.107 89.123c0 2.7327-0.84643 4.948-1.8905 4.948s-1.8905-2.2153-1.8905-4.948c0-2.7327 0.84643-4.948 1.8905-4.948s1.8905 2.2153 1.8905 4.948z" style="fill:url(#linearGradient1199);stroke-width:.10886"/><path d="m-18.848 90.168c0 1.3593-0.42103 2.4613-0.9404 2.4613-0.51937 0-0.9404-1.102-0.9404-2.4613 0-1.3593 0.42103-2.4613 0.9404-2.4613 0.51936 0 0.9404 1.102 0.9404 2.4613z" style="stroke-width:.054151"/><path d="m-19.543 86.967c0 1.3593-0.42103 2.4613-0.9404 2.4613-0.51937 0-0.9404-1.102-0.9404-2.4613 0-1.3593 0.42103-2.4613 0.9404-2.4613 0.51936 0 0.9404 1.102 0.9404 2.4613z" style="fill:#fff;stroke-width:.054151"/></g><path d="m36.655 71.01s-9.7241-0.52864-18.541 1.586c-8.8165 2.1146-13.095 3.7005-13.095 3.7005s3.76-19.825 1.4262-26.961c-2.3338-7.1368-7.1309-17.313-14.78-17.974-7.6498-0.66082-22.559-1.3216-31.506 0.79295-8.9458 2.1146-12.576 2.9076-14.78 7.4011-2.2041 4.4935-2.0744 7.0046-2.0744 7.0046s0.12965-8.7229 1.0372-10.969c0.90758-2.2467 8.6866-9.1189 16.466-12.423 7.779-3.3041 12.447-6.0795 22.171-7.1368 9.7241-1.0573 18.191-0.24294 25.93 2.6432 5.3158 1.9825 10.318 4.0804 15.17 8.8547 3.76 3.7006 9.4054 8.737 12.058 13.745 2.149 4.0569 4.4082 8.3262 4.1489 14.274-0.2593 5.9473-3.6303 15.463-3.6303 15.463z" style="fill:url(#aq);stroke-width:.29205"/><path d="m38.814-9.2331s-0.24188 9.3591-2.629 14.584c-2.3871 5.2243-6.127 9.1108-8.3551 11.373-2.228 2.2617-8.8678 5.1733-8.8678 5.1733s2.7229-2.7949 3.1192-5.9315c0.35011-2.7714-0.24826-5.8965-3.8767-7.4253 0 0 0.25144 4.944-0.51244 7.2698-0.51782 1.5764-2.9884 4.9894-3.9089 6.2564 3.1456 1.6342 5.2557 2.9248 8.0785 4.9672 5.3798-2.2206 13.907-6.2377 18.355-10.31 5.9519-5.4473 7.5431-9.3876 8.0208-12.733 0.47743-3.3448-0.51244-10.866-9.4246-13.223zm5.9265 30.461s-4.3223 3.3002-8.333 4.1922c-2.7168 0.60425-10.344 1.5498-13.811 1.8767 2.6632 1.2344 5.1449 3.0218 7.7513 3.7426 1.9868 0.5495 7.4247-1.022 9.4025-1.7839 2.5275-0.97401 5.8182-3.6315 4.9907-8.0276z" style="fill:url(#ar);stroke-width:.29205"/><path d="m-9.4464 88.81c2.9144-3.2058 7.0617-7.0454 10.713-9.1001 7.5131-4.2283 12.287-5.7881 18.455-6.217 10.98-0.76351 14.404-1.5317 18.095 0.2703 3.691 1.802 6.3017 5.1357 6.3017 5.1357l-5.9416-1.7119c4.5012 2.8832 6.2117 7.6587 6.2117 7.6587s-0.90025-0.6307-2.6107-1.8921l1.3503 3.4238s-1.1703-1.9822-2.7008-2.703l-0.72023 8.3794s-8.4621-6.4873-16.114-6.4873c-7.6522 0-13.234 1.8921-18.185 5.0457-4.9513 3.1535-4.9513 4.1447-9.4524 5.0457-4.5012 0.90102-7.2023 1.2614-9.3625-0.90101-2.1603-2.1625 2.3592-4.1845 3.961-5.9467z" style="fill:url(#as);stroke-width:.29205"/><path d="m-43.85 91.468c-4.2557 1.5454-8.2319 5.2588-13.097 10.72-5.1497 7.6696-15.28 16.436-21.253 20.96-19.567 14.026-56.389 47.346-33.643 36.383 8.278-5.2028 98.818-62.058 98.818-62.058s-7.1148 1.3729-10.467 0.3613c-3.3522-1.0117-6.2252-3.5408-9.7825-4.6247-3.3095-0.62853-7.9093-2.641-10.576-1.7414z" style="fill:url(#at);stroke-width:.29205"/><g transform="matrix(2.4412 0 0 2.4433 38.811 -145.7)" style="stroke-width:.40945"><path d="m-26.122 93.44s1.9817 0.23468 2.8422 0.78228c0.86049 0.5476 3.1813 1.7992 3.1813 1.7992l-0.93873-1.1734s1.4342 0.2086 2.06-0.18253c0.6258-0.39114 1.2205-1.273 1.4081-2.1643 0.52151-2.4772 0.49543-11.447 0.39114-13.429-0.1043-1.9817-0.88657-4.1199-2.3207-4.2505-1.4342-0.13038-3.3898 3.0247-3.7289 5.2411-0.33898 2.2164-0.88657 8.8137-0.49543 13.246 0 0-0.56739-0.19031-0.86049-0.18253-0.36886 0.0098-1.5385 0.3129-1.5385 0.3129z" style="stroke-width:.11958"/><path d="m-23.149 93.387s0.7562 0.86049 1.8514 0.96481c1.2484 0.1189 1.7731 0.2086 2.3729-0.4433 0.59975-0.6519 1.0169-3.0247 1.043-4.9543 0.02608-1.9296 0.07822-6.7796-0.1043-7.6662-0.18253-0.88657-1.0169-3.103-2.0339-3.2073-1.017-0.1043-2.3729 1.4602-2.7379 2.8422-0.36506 1.382-0.52151 4.0156-0.52151 5.5801 0 1.5645-0.02608 4.5372 0.13038 6.8838z" style="fill:url(#ao);stroke-width:.11958"/><path d="m-17.573 89.223c0 3.0571-1.0608 5.5353-2.3694 5.5353-1.3086 0-2.3694-2.4782-2.3694-5.5353 0-3.0571 1.0608-5.5353 2.3694-5.5353 1.3086 0 2.3694 2.4782 2.3694 5.5353z" style="stroke-width:.1289"/><path d="m-18.107 89.123c0 2.7327-0.84643 4.948-1.8905 4.948s-1.8905-2.2153-1.8905-4.948c0-2.7327 0.84643-4.948 1.8905-4.948s1.8905 2.2153 1.8905 4.948z" style="fill:url(#linearGradient1199);stroke-width:.10886"/><path d="m-18.848 90.168c0 1.3593-0.42103 2.4613-0.9404 2.4613-0.51937 0-0.9404-1.102-0.9404-2.4613 0-1.3593 0.42103-2.4613 0.9404-2.4613 0.51936 0 0.9404 1.102 0.9404 2.4613z" style="stroke-width:.054151"/><path d="m-19.543 86.967c0 1.3593-0.42103 2.4613-0.9404 2.4613-0.51937 0-0.9404-1.102-0.9404-2.4613 0-1.3593 0.42103-2.4613 0.9404-2.4613 0.51936 0 0.9404 1.102 0.9404 2.4613z" style="fill:#fff;stroke-width:.054151"/></g></g></svg>
