<?xml version="1.0" encoding="UTF-8"?>
<svg width="100mm" height="113.99mm" version="1.1" viewBox="0 0 100 113.99" xmlns="http://www.w3.org/2000/svg" xmlns:xlink="http://www.w3.org/1999/xlink"><defs><linearGradient id="b"><stop stop-color="#fff" offset="0"/><stop stop-color="#fff" stop-opacity="0" offset="1"/></linearGradient><linearGradient id="e-1"><stop stop-color="#232323" offset="0"/><stop stop-color="#797979" stop-opacity=".57368" offset="1"/></linearGradient><linearGradient id="j-3"><stop stop-color="#fff" offset="0"/><stop stop-color="#5a5a5a" offset="1"/></linearGradient><linearGradient id="k-0"><stop stop-color="#434343" offset="0"/><stop stop-color="#fff" offset=".5"/><stop stop-color="#5a5a5a" offset="1"/></linearGradient><linearGradient id="f-6"><stop stop-color="#333" offset="0"/><stop stop-color="#cecece" offset="1"/></linearGradient><linearGradient id="m-0"><stop stop-color="#858585" offset="0"/><stop stop-color="#fff" offset=".5"/><stop stop-color="#939393" offset="1"/></linearGradient><linearGradient id="n-7"><stop stop-color="#502d16" offset="0"/><stop stop-color="#2a170b" offset="1"/></linearGradient><linearGradient id="i-4"><stop stop-color="#6e6e6e" offset="0"/><stop stop-color="#fff" offset=".5"/><stop stop-color="#a1a1a1" offset="1"/></linearGradient><linearGradient id="h-8"><stop stop-color="#898989" offset="0"/><stop stop-color="#e6e6e6" offset=".5"/><stop stop-color="#a4a4a4" offset="1"/></linearGradient><linearGradient id="aj" x1="174.12" x2="175.59" y1="261.89" y2="269.87" gradientUnits="userSpaceOnUse"><stop stop-color="#808080" offset="0"/><stop stop-color="#808080" stop-opacity="0" offset="1"/></linearGradient><linearGradient id="ab-0" x1="742.56" x2="1078.1" y1="-142.12" y2="-138.01" gradientUnits="userSpaceOnUse"><stop stop-color="#800000" offset="0"/><stop stop-color="#ff0c0c" offset=".5"/><stop stop-color="#800000" offset="1"/></linearGradient><linearGradient id="u-9" x1="250.58" x2="275.22" y1="301.44" y2="399.18" gradientTransform="matrix(.97751 0 0 -1 20.911 913.88)" gradientUnits="userSpaceOnUse" xlink:href="#i-4"/><linearGradient id="a-7" x1="181.66" x2="181.87" y1="346.63" y2="356.54" gradientUnits="userSpaceOnUse" xlink:href="#n-7"/><linearGradient id="v-3" x1="348.56" x2="363.18" y1="338.25" y2="380.04" gradientUnits="userSpaceOnUse" spreadMethod="reflect" xlink:href="#i-4"/><linearGradient id="w-2" x1="261.33" x2="264.15" y1="323.81" y2="392.67" gradientUnits="userSpaceOnUse" xlink:href="#i-4"/><linearGradient id="as" x1="202.44" x2="204.38" y1="239.53" y2="243.18" gradientUnits="userSpaceOnUse" xlink:href="#e-1"/><linearGradient id="ar" x1="139.67" x2="141.62" y1="253.88" y2="257.53" gradientUnits="userSpaceOnUse" xlink:href="#e-1"/><linearGradient id="aq" x1="290.38" x2="256.61" y1="-104.74" y2="-104.92" gradientUnits="userSpaceOnUse" spreadMethod="reflect" xlink:href="#k-0"/><linearGradient id="ap" x1="402.3" x2="438.56" y1="222.97" y2="275.64" gradientTransform="matrix(.38806 1.5031 -1.5031 .38806 338.85 -422.5)" gradientUnits="userSpaceOnUse" xlink:href="#f-6"/><linearGradient id="ao" x1="346.51" x2="384" y1="251.22" y2="242.87" gradientTransform="matrix(.38806 1.5214 -1.5031 .39276 341.11 -427)" gradientUnits="userSpaceOnUse" xlink:href="#f-6"/><linearGradient id="an" x1="356.47" x2="344.56" y1="236.08" y2="272.93" gradientTransform="matrix(.4256 1.4365 1.4929 -.40951 -311.5 -224.08)" gradientUnits="userSpaceOnUse" xlink:href="#f-6"/><linearGradient id="am" x1="131.06" x2="175.44" y1="187.53" y2="137.27" gradientUnits="userSpaceOnUse" spreadMethod="reflect" xlink:href="#m-0"/><linearGradient id="al" x1="107.25" x2="234.47" y1="153.8" y2="235.84" gradientUnits="userSpaceOnUse" xlink:href="#j-3"/><linearGradient id="ak" x1="375.71" x2="378.95" y1="233.46" y2="242.64" gradientTransform="matrix(-.33812 -1.4669 1.4678 -.38971 -10.34 893.96)" gradientUnits="userSpaceOnUse" xlink:href="#f-6"/><linearGradient id="ai" x1="129.61" x2="173.99" y1="185.78" y2="135.52" gradientUnits="userSpaceOnUse" spreadMethod="reflect" xlink:href="#m-0"/><linearGradient id="ah" x1="117.21" x2="264.9" y1="279.15" y2="370.09" gradientUnits="userSpaceOnUse" xlink:href="#j-3"/><linearGradient id="ag" x1="-141.81" x2="-141" y1="329.48" y2="333.54" gradientUnits="userSpaceOnUse" xlink:href="#e-1"/><linearGradient id="af" x1="-51.645" x2="-50.207" y1="305.92" y2="309.8" gradientUnits="userSpaceOnUse" xlink:href="#e-1"/><linearGradient id="ae" x1="34.573" x2="36.519" y1="283.32" y2="286.97" gradientUnits="userSpaceOnUse" xlink:href="#e-1"/><linearGradient id="ad-0" x1="231.03" x2="228.87" y1="231.75" y2="218.34" gradientUnits="userSpaceOnUse" xlink:href="#k-0"/><linearGradient id="ac-7" x1="-33.775" x2="-40.452" y1="301.29" y2="276.04" gradientUnits="userSpaceOnUse" spreadMethod="reflect" xlink:href="#k-0"/><linearGradient id="b-4" x1="181.66" x2="181.87" y1="346.63" y2="356.54" gradientTransform="matrix(1.436 -.38204 .38204 1.436 -716.33 -60.124)" gradientUnits="userSpaceOnUse" xlink:href="#n-7"/><linearGradient id="aa-2" x1="45.442" x2="330.59" y1="450" y2="533.55" gradientTransform="matrix(1,0,0,-1,567.66,479.32)" gradientUnits="userSpaceOnUse" spreadMethod="reflect" xlink:href="#h-8"/><linearGradient id="z-6" x1="166.4" x2="300.03" y1="707.51" y2="740.38" gradientTransform="matrix(1,0,0,-1,567.66,479.32)" gradientUnits="userSpaceOnUse" spreadMethod="reflect" xlink:href="#h-8"/><linearGradient id="y-8" x1="722.46" x2="843.39" y1="-54.986" y2="13.5" gradientUnits="userSpaceOnUse" spreadMethod="reflect" xlink:href="#h-8"/><linearGradient id="x-8" x1="836.31" x2="920.28" y1="-39.817" y2="7.4146" gradientUnits="userSpaceOnUse" spreadMethod="reflect" xlink:href="#h-8"/><filter id="c-6-6"><feGaussianBlur stdDeviation="3.84278"/></filter><filter id="o-5-5"><feGaussianBlur stdDeviation="2.77049"/></filter><radialGradient id="l-5-0" cx="142.22" cy="348.25" r="7.7044" gradientTransform="matrix(.63685 .26263 -.65499 1.5883 281.89 -244.82)" gradientUnits="userSpaceOnUse"><stop stop-color="#fff" offset="0"/><stop stop-color="#bfbfbf" offset=".68889"/><stop stop-color="#525252" offset="1"/></radialGradient><radialGradient id="s-8-7" cx="-184.38" cy="586.54" r="73.397" gradientUnits="userSpaceOnUse"><stop stop-color="#fff" offset="0"/><stop stop-color="#cbcbcb" offset=".77778"/><stop stop-color="#8c8c8c" offset="1"/></radialGradient><radialGradient id="d-9-3" cx="423.06" cy="323.66" r="27.464" gradientUnits="userSpaceOnUse" xlink:href="#j-3"/><radialGradient id="p-7-0" cx="243.79" cy="348.82" r="1.0429" gradientTransform="matrix(.074556 3.7015 -5.6889 -.60472 2109.1 -331.35)" gradientUnits="userSpaceOnUse" xlink:href="#b"/><radialGradient id="q-7-5" cx="243.79" cy="348.82" r="1.0429" gradientTransform="matrix(1,-4.9214e-7,2.1959e-6,20.007,-7.6596e-4,-6630.1)" gradientUnits="userSpaceOnUse" xlink:href="#b"/><radialGradient id="t-5-8" cx="243.79" cy="348.82" r="1.0429" gradientTransform="matrix(1.5212,5.2868,-8.4003,1.305,2185.7,-1341.7)" gradientUnits="userSpaceOnUse" xlink:href="#b"/><radialGradient id="r-4-6" cx="426.2" cy="518.42" r="29.133" gradientTransform="matrix(.9872 .68634 -.89224 1.2834 1017.7 -929.81)" gradientUnits="userSpaceOnUse" xlink:href="#b"/><radialGradient id="radialGradient1590" cx="142.22" cy="348.25" r="7.7044" gradientTransform="matrix(.63685 .26263 -.65499 1.5883 281.89 -244.82)" gradientUnits="userSpaceOnUse" xlink:href="#l-5-0"/></defs><g transform="translate(-18.425 -78.011)"><g transform="translate(-59.205 -14.085)"><g transform="translate(23.914,-7.6887)"><g transform="matrix(.13365 0 0 .13307 49.75 100.4)"><g transform="translate(-549.42,489.14)"><path d="m719.41-251.37v217.38c0.74771-0.08381 1.5104-0.125 2.2812-0.125h184.25v-217.25h-186.53zm227.38 0v217.25h185.37v-217.25zm-227.38 261v83.719c0 54.151 49.214 113.96 105.19 158.53 27.987 22.283 56.622 40.622 78.281 53.188 1.0775 0.6251 2.0367 1.1648 3.0625 1.75v-297.06h-184.25c-0.77081 0-1.5335-0.04119-2.2812-0.125zm227.38 0.125v296.69l1.9062-1.0938c21.618-12.505 50.228-30.832 78.219-53.156 55.981-44.649 105.25-104.7 105.25-158.84v-83.594h-185.37z" style="fill-rule:evenodd;fill:url(#ab-0)"/><path d="m721.2-252.57v213.9c0.74027-0.08402 1.4954-0.1253 2.2585-0.1253h3.1867v-208.3h177.23v-5.4822h-182.67zm225.11 0v217.78h5.4452v-212.3h178.08v-5.4822h-183.53zm-225.11 261.64v83.924c1e-5 42.672 30.122 88.84 69.922 128.35-37.082-38.256-64.477-82.15-64.477-122.86v-83.924c0.74027 0.08402 1.4954 0.12532 2.2585 0.12531h176.97v-5.4822h-182.42c-0.76313-3e-5 -1.5183-0.04129-2.2585-0.12531zm225.11 0.12531v297.42l1.8873-1.0964c1.1407-0.6681 2.3791-1.4292 3.558-2.1302v-288.71h178.08v-5.4822h-183.53z" style="fill-rule:evenodd;fill:#500;filter:url(#o-5-5)"/><path d="m685.29-290.13c-1.2972-1e-5 -2.3438 1.1498-2.3438 2.5625v376.28c1e-5 145.1 234.73 261.53 240.5 261.91 5.7592 0.37747 240.53-116.81 240.53-261.91v-376.28c-1e-4 -1.4127-1.0778-2.5625-2.375-2.5625h-476.31zm31.812 34.125h186.53v217.25h-184.25c-0.77081 0-1.5335 0.04118-2.2812 0.125v-217.38zm227.38 0h185.38v217.25h-185.38zm-227.38 261c0.74771 0.08381 1.5104 0.12499 2.2812 0.125h184.25v297.06c-1.0258-0.58525-1.985-1.1249-3.0625-1.75-21.659-12.566-50.295-30.904-78.281-53.188-55.973-44.567-105.19-104.38-105.19-158.53v-83.719zm227.38 0.125h185.38v83.594c0 54.145-49.269 114.19-105.25 158.84-27.99 22.325-56.601 40.651-78.219 53.156l-1.9062 1.0938v-296.69z" style="fill-rule:evenodd;fill:url(#aa-2);stroke-width:4.6228;stroke:url(#z-6)"/><path d="m715.72-258.05v220.44c0.7502-0.08422 1.5154-0.12561 2.2888-0.12561h3.2294v-214.82h183.63v-5.4956h-189.15zm228.13 0v218.32h5.5182v-212.82h180.47v-5.4956h-185.99zm-228.13 262.28v84.13c1e-5 42.777 30.526 89.057 70.859 128.66-37.58-38.35-65.341-82.352-65.341-123.16v-84.13c0.75019 0.08423 1.5154 0.12563 2.2888 0.12562h179.34v-5.4956h-184.86c-0.77336-3e-5 -1.5386-0.04139-2.2888-0.12561zm228.13 0.12561v298.14c0.65021-0.3733 1.245-0.71232 1.9126-1.0991 1.156-0.66974 2.411-1.4327 3.6057-2.1354v-289.41h180.47v-5.4956h-185.99z" style="fill-rule:evenodd;fill:url(#y-8)"/><path d="m979.39-63.802c11.097 12.816 17.849 29.511 17.906 47.781v0.21875c-1e-5 40.515-32.891 73.406-73.406 73.406-18.37 0-35.122-6.8024-48-17.969 13.461 15.524 33.292 25.375 55.438 25.375 40.515 0 73.406-32.891 73.406-73.406v-0.21875c-0.069-22.045-9.8986-41.778-25.344-55.188z" style="fill-rule:evenodd;fill:#333;filter:url(#o-5-5)"/><path transform="translate(1099.1,-616.99)" d="m-96.854 603.66a73.397 73.397 0 1 1-3.6e-4 -0.2292" style="fill-rule:evenodd;fill:#b3b3b3"/><path transform="matrix(.9285 0 0 .91956 1086.9 -569.09)" d="m-96.854 603.66a73.397 73.397 0 1 1-3.6e-4 -0.2292" style="fill-rule:evenodd;fill:url(#s-8-7)"/><path d="m930.18-85.426c-40.515 0-73.406 32.891-73.406 73.406s32.891 73.406 73.406 73.406 73.375-32.891 73.375-73.406v-0.21875c-0.1263-40.434-32.94-73.188-73.375-73.188zm0 5.25c37.543 1e-5 68.008 30.099 68.125 67.281v0.21875c-1e-5 37.256-30.507 67.5-68.125 67.5s-68.156-30.244-68.156-67.5 30.538-67.5 68.156-67.5z" style="fill-rule:evenodd;fill:#333"/><path d="m927.56-88.05c-40.515 0-73.406 32.891-73.406 73.406s32.891 73.406 73.406 73.406 73.375-32.891 73.375-73.406v-0.21875c-0.1262-40.434-32.94-73.188-73.375-73.188zm0 5.25c37.543 1e-5 68.008 30.099 68.125 67.281v0.21875c-1e-5 37.256-30.507 67.5-68.125 67.5s-68.156-30.244-68.156-67.5 30.538-67.5 68.156-67.5z" style="fill-rule:evenodd;fill:url(#x-8)"/><path d="m983.41-9.2234c12.331-1.6603 13.447 11.781 2.4909 28.404s-25.965 26.276-38.295 27.936-17.337-6.5934-6.3813-23.217c10.934-16.591 29.776-31.405 42.116-33.114" style="fill-rule:evenodd;fill:url(#r-4-6)"/><path transform="matrix(.25394 0 0 .24933 752.21 -328.37)" d="m142.37 165.39-11.687-2.3095 10.472 68.417-19.23-66.593-9.7925 6.7845 2.3095-11.687-69.047 11.102 67.223-19.86-6.7845-9.7925 11.687 2.3095-9.842-65.897 18.6 64.073 9.7925-6.7845-2.3095 11.687 67.787-6.6923-65.963 15.45 6.7845 9.7925z" style="fill:#fff;filter:url(#c-6-6)"/><path transform="matrix(.25394 0 0 .24933 1019.4 187.97)" d="m142.37 165.39-11.687-2.3095 10.472 68.417-19.23-66.593-9.7925 6.7845 2.3095-11.687-69.047 11.102 67.223-19.86-6.7845-9.7925 11.687 2.3095-9.842-65.897 18.6 64.073 9.7925-6.7845-2.3095 11.687 67.787-6.6923-65.963 15.45 6.7845 9.7925z" style="fill:#fff;filter:url(#c-6-6)"/><path transform="matrix(.25394 0 0 .24933 882.94 -122.53)" d="m142.37 165.39-11.687-2.3095 10.472 68.417-19.23-66.593-9.7925 6.7845 2.3095-11.687-69.047 11.102 67.223-19.86-6.7845-9.7925 11.687 2.3095-9.842-65.897 18.6 64.073 9.7925-6.7845-2.3095 11.687 67.787-6.6923-65.963 15.45 6.7845 9.7925z" style="fill:#fff;filter:url(#c-6-6)"/></g><g transform="matrix(1.0706 -.86425 .86425 1.0706 202.57 69.896)"><path transform="matrix(1.436 -.38204 .38204 1.436 -722.95 -59.8)" d="m155.18 350.49a7.7044 14.086 0 1 1-4e-5 -0.044" style="fill:url(#radialGradient1590)"/><path d="m-371.79 366.92c2.8034-0.74582 6.7313 4.9349 8.807 12.737l1.7953 6.7483c2.0757 7.8022 1.4899 14.684-1.3135 15.43s-6.7313-4.9349-8.807-12.737l-1.7953-6.7483c-2.0757-7.8022-1.4899-14.684 1.3135-15.43z" style="fill:url(#b-4);stroke-width:1.1368;stroke:#5f3f31"/><path d="m-366.05 365.39c2.8034-0.74582 6.7313 4.9349 8.807 12.737l1.7953 6.7483c2.0757 7.8022 1.4899 14.684-1.3135 15.43s-6.7313-4.9349-8.8071-12.737l-1.7953-6.7483c-2.0757-7.8022-1.4899-14.684 1.3135-15.43z" style="fill:url(#b-4);stroke-width:1.1368;stroke:#5f3f31"/><path d="m-360.3 363.86c2.8034-0.74583 6.7313 4.9349 8.807 12.737l1.7953 6.7483c2.0757 7.8022 1.4899 14.684-1.3135 15.43s-6.7313-4.9349-8.807-12.737l-1.7954-6.7483c-2.0757-7.8022-1.4899-14.684 1.3135-15.43z" style="fill:url(#b-4);stroke-width:1.1368;stroke:#5f3f31"/><path d="m-354.56 362.33c2.8034-0.74582 6.7313 4.9349 8.807 12.737l1.7953 6.7483c2.0757 7.8022 1.4899 14.684-1.3135 15.43s-6.7313-4.9349-8.807-12.737l-1.7954-6.7483c-2.0757-7.8022-1.4899-14.684 1.3135-15.43z" style="fill:url(#b-4);stroke-width:1.1368;stroke:#5f3f31"/><path d="m-348.82 360.8c2.8034-0.74582 6.7313 4.9349 8.807 12.737l1.7953 6.7483c2.0757 7.8022 1.4899 14.684-1.3135 15.43s-6.7313-4.9349-8.807-12.737l-1.7953-6.7483c-2.0757-7.8022-1.4899-14.684 1.3135-15.43z" style="fill:url(#b-4);stroke-width:1.1368;stroke:#5f3f31"/><path d="m-343.07 359.28c2.8034-0.74582 6.7313 4.9349 8.807 12.737l1.7953 6.7483c2.0757 7.8022 1.4899 14.684-1.3135 15.43s-6.7313-4.9349-8.807-12.737l-1.7953-6.7483c-2.0757-7.8022-1.4899-14.684 1.3135-15.43z" style="fill:url(#b-4);stroke-width:1.1368;stroke:#5f3f31"/><path d="m-337.33 357.75c2.8034-0.74582 6.7313 4.9349 8.807 12.737l1.7953 6.7483c2.0757 7.8022 1.4899 14.684-1.3135 15.43s-6.7313-4.9349-8.807-12.737l-1.7953-6.7483c-2.0757-7.8022-1.4899-14.684 1.3135-15.43z" style="fill:url(#b-4);stroke-width:1.1368;stroke:#5f3f31"/><path d="m-331.58 356.22c2.8034-0.74582 6.7313 4.9349 8.807 12.737l1.7953 6.7483c2.0757 7.8022 1.4899 14.684-1.3135 15.43s-6.7313-4.9349-8.8071-12.737l-1.7953-6.7483c-2.0757-7.8022-1.4899-14.684 1.3135-15.43z" style="fill:url(#b-4);stroke-width:1.1368;stroke:#5f3f31"/><path d="m-325.84 354.69c2.8034-0.74582 6.7313 4.9349 8.807 12.737l1.7953 6.7483c2.0757 7.8022 1.4899 14.684-1.3135 15.43s-6.7313-4.9349-8.807-12.737l-1.7953-6.7483c-2.0757-7.8022-1.4899-14.684 1.3135-15.43z" style="fill:url(#b-4);stroke-width:1.1368;stroke:#5f3f31"/><path d="m-320.1 353.16c2.8034-0.74582 6.7313 4.9349 8.807 12.737l1.7953 6.7483c2.0757 7.8022 1.4899 14.684-1.3135 15.43s-6.7313-4.9349-8.807-12.737l-1.7953-6.7483c-2.0757-7.8022-1.4899-14.684 1.3135-15.43z" style="fill:url(#b-4);stroke-width:1.1368;stroke:#5f3f31"/><path d="m-314.35 351.64c2.8034-0.74582 6.7313 4.9349 8.807 12.737l1.7953 6.7483c2.0757 7.8022 1.4899 14.684-1.3135 15.43s-6.7313-4.9349-8.807-12.737l-1.7953-6.7483c-2.0757-7.8022-1.4899-14.684 1.3135-15.43z" style="fill:url(#b-4);stroke-width:1.1368;stroke:#5f3f31"/><path d="m-308.61 350.11c2.8034-0.74582 6.7313 4.9349 8.807 12.737l1.7953 6.7483c2.0757 7.8022 1.4899 14.684-1.3135 15.43s-6.7313-4.9349-8.807-12.737l-1.7953-6.7483c-2.0757-7.8022-1.4899-14.684 1.3135-15.43z" style="fill:url(#b-4);stroke-width:1.1368;stroke:#5f3f31"/><path d="m-302.86 348.58c2.8034-0.74582 6.7313 4.9349 8.807 12.737l1.7953 6.7483c2.0757 7.8022 1.4899 14.684-1.3135 15.43s-6.7313-4.9349-8.807-12.737l-1.7953-6.7483c-2.0757-7.8022-1.4899-14.684 1.3135-15.43z" style="fill:url(#b-4);stroke-width:1.1368;stroke:#5f3f31"/><path d="m-297.12 347.05c2.8034-0.74582 6.7313 4.9349 8.807 12.737l1.7954 6.7483c2.0757 7.8022 1.4899 14.684-1.3135 15.43s-6.7313-4.9349-8.807-12.737l-1.7953-6.7483c-2.0757-7.8022-1.4899-14.684 1.3135-15.43z" style="fill:url(#b-4);stroke-width:1.1368;stroke:#5f3f31"/><path d="m-291.38 345.52c2.8034-0.74582 6.7313 4.9349 8.807 12.737l1.7953 6.7483c2.0757 7.8022 1.4899 14.684-1.3135 15.43s-6.7313-4.9349-8.807-12.737l-1.7953-6.7483c-2.0757-7.8022-1.4899-14.684 1.3135-15.43z" style="fill:url(#b-4);stroke-width:1.1368;stroke:#5f3f31"/><path d="m-285.63 343.99c2.8034-0.74582 6.7313 4.9349 8.807 12.737l1.7953 6.7483c2.0757 7.8022 1.4899 14.684-1.3135 15.43s-6.7313-4.9349-8.807-12.737l-1.7953-6.7483c-2.0757-7.8022-1.4899-14.684 1.3135-15.43z" style="fill:url(#b-4);stroke-width:1.1368;stroke:#5f3f31"/><path d="m-279.89 342.47c2.8034-0.74582 6.7313 4.9349 8.807 12.737l1.7953 6.7483c2.0757 7.8022 1.4899 14.684-1.3135 15.43s-6.7313-4.9349-8.807-12.737l-1.7953-6.7483c-2.0757-7.8022-1.4899-14.684 1.3135-15.43z" style="fill:url(#b-4);stroke-width:1.1368;stroke:#5f3f31"/><path d="m-274.14 340.94c2.8034-0.74582 6.7313 4.9349 8.807 12.737l1.7953 6.7483c2.0757 7.8022 1.4899 14.684-1.3135 15.43s-6.7313-4.9349-8.807-12.737l-1.7953-6.7483c-2.0757-7.8022-1.4899-14.684 1.3135-15.43z" style="fill:url(#b-4);stroke-width:1.1368;stroke:#5f3f31"/><path d="m-268.4 339.41c2.8034-0.74582 6.7313 4.9349 8.807 12.737l1.7954 6.7483c2.0757 7.8022 1.4899 14.684-1.3135 15.43s-6.7313-4.9349-8.807-12.737l-1.7953-6.7483c-2.0757-7.8022-1.4899-14.684 1.3135-15.43z" style="fill:url(#b-4);stroke-width:1.1368;stroke:#5f3f31"/><path d="m-262.66 337.88c2.8034-0.74582 6.7313 4.9349 8.807 12.737l1.7953 6.7483c2.0757 7.8022 1.4899 14.684-1.3135 15.43s-6.7313-4.9349-8.8071-12.737l-1.7953-6.7483c-2.0757-7.8022-1.4899-14.684 1.3135-15.43z" style="fill:url(#b-4);stroke-width:1.1368;stroke:#5f3f31"/><path d="m-256.91 336.35c2.8034-0.74582 6.7313 4.9349 8.807 12.737l1.7953 6.7483c2.0757 7.8022 1.4899 14.684-1.3135 15.43s-6.7313-4.9349-8.8071-12.737l-1.7953-6.7483c-2.0757-7.8022-1.4899-14.684 1.3135-15.43z" style="fill:url(#b-4);stroke-width:1.1368;stroke:#5f3f31"/><path d="m-251.17 334.83c2.8034-0.74582 6.7313 4.9349 8.807 12.737l1.7953 6.7483c2.0757 7.8022 1.4899 14.684-1.3135 15.43s-6.7313-4.9349-8.8071-12.737l-1.7953-6.7483c-2.0757-7.8022-1.4899-14.684 1.3135-15.43z" style="fill:url(#b-4);stroke-width:1.1368;stroke:#5f3f31"/><path d="m-245.42 333.3c2.8034-0.74582 6.7313 4.9349 8.807 12.737l1.7953 6.7483c2.0757 7.8022 1.4899 14.684-1.3135 15.43s-6.7313-4.9349-8.8071-12.737l-1.7953-6.7483c-2.0757-7.8022-1.4899-14.684 1.3135-15.43z" style="fill:url(#b-4);stroke-width:1.1368;stroke:#5f3f31"/><path d="m-239.68 331.77c2.8034-0.74582 6.7313 4.9349 8.807 12.737l1.7953 6.7483c2.0757 7.8022 1.4899 14.684-1.3135 15.43s-6.7313-4.9349-8.8071-12.737l-1.7953-6.7483c-2.0757-7.8022-1.4899-14.684 1.3135-15.43z" style="fill:url(#b-4);stroke-width:1.1368;stroke:#5f3f31"/><path d="m-372.61 407.07c-5.9335 0.64712-11.201-0.9141-11.759-3.4849s3.8059-5.1823 9.7394-5.8295c5.741-0.62612 4.9328-7.8495 7.1854 1.0246 1.8456 7.2712 0.96081 8.2838-4.9591 8.9377" style="fill:url(#t-5-8)"/><path d="m122.61 241.05 7.1941 27.866-358.74 92.616c-4.9292-7.579-7.5517-16.187-7.1941-27.866z" style="fill-rule:evenodd;fill:url(#ac-7)"/><path d="m210.76 218.61c2.8717 2.9687 7.605 26.554 7.605 26.554l47.193-26.824-54.798 0.27047z" style="fill-rule:evenodd;fill:url(#ad-0)"/><path d="m35.967 285.43c-3.508 2.1401-5.9459-0.58175-7.7314-2.6619s4.011 1.2411 5.9371-0.63849-0.25689-8.2028 1.5286-6.1227 3.2898 7.2874 0.2657 9.4231z" style="fill-rule:evenodd;fill:url(#ae);opacity:.63846"/><path transform="matrix(.12583 .13781 -.13781 .12583 22.648 179.12)" d="m456.64 325.73a26.964 26.964 0 1 1-53.928 0 26.964 26.964 0 1 1 53.928 0z" style="fill-rule:evenodd;fill:url(#d-9-3);stroke:#6d6d6d"/><path d="m-50.548 308.2c-3.7636 1.6497-5.814-1.3748-7.304-3.6759s3.808 1.7684 5.9691 0.16445 0.84681-8.163 2.3369-5.862 2.2816 7.6632-1.0019 9.3734z" style="fill-rule:evenodd;fill:url(#af);opacity:.63846"/><path transform="matrix(.12583 .13781 -.13781 .12583 -63.02 201.39)" d="m456.64 325.73a26.964 26.964 0 1 1-53.928 0 26.964 26.964 0 1 1 53.928 0z" style="fill-rule:evenodd;fill:url(#d-9-3);stroke:#6d6d6d"/><path d="m-141.08 331.91c-3.975 1.0419-5.5281-2.2656-6.6406-4.7711s3.4852 2.3412 5.8702 1.0943 2.1108-7.9308 3.2233-5.4253 1.0573 7.9254-2.4529 9.1021z" style="fill-rule:evenodd;fill:url(#ag);opacity:.63846"/><path transform="matrix(.12583 .13781 -.13781 .12583 -152.56 224.25)" d="m456.64 325.73a26.964 26.964 0 1 1-53.928 0 26.964 26.964 0 1 1 53.928 0z" style="fill-rule:evenodd;fill:url(#d-9-3);stroke:#6d6d6d"/><path d="m214.02 218.38 12.343 22.06-6.0092 3.3182-6.3337-25.379z" style="fill-rule:evenodd;fill:#030303;opacity:.28846"/><path d="m286.17 305.99c-43.391 5.1814-71.187-20.422-75.814-54.228l-72.461 18.287c7.6889 36.016-20.771 79.453-43.292 86.961 70.24 45.208 148.95 25.747 191.57-51.02z" style="fill-rule:evenodd;fill:url(#ah)"/><path d="m286.35 306.69c-42.617 76.768-121.31 96.214-191.55 51.006 3.1388-1.0464 6.4007-2.7734 9.6564-5.0983 62.42 32.757 129.33 16.018 170.45-45.208 3.6802 0.0207 7.4998-0.22876 11.443-0.69967zm-75.827-54.226c0.0701 0.51235 0.16641 1.031 0.24714 1.5395-0.17846-0.49076-0.36165-0.97028-0.52898-1.4667z" style="fill:url(#ai)"/><path d="m138.75 270.65 71.906-18.923c-0.98601 6.9956-5.0157 3.7779 1.7743 11.118l-71.091 17.226-2.5891-9.4209z" style="fill-rule:evenodd;fill:url(#aj);opacity:.99231"/><path d="m205.1 253.14c7.4912 48.268 54.639 60.955 80.432 53.114-18.065 3.7139-67.008-2.0068-75.522-54.314l-4.91 1.1992z" style="fill-rule:evenodd;fill:url(#ak)"/><path d="m241.94 132.61c-40.477 16.471-52.405 52.329-40.089 84.15l-72.258 19.075c-10.706-35.237-56.637-59.469-79.977-55.137 39.578-73.559 117.87-94.632 192.32-48.088z" style="fill-rule:evenodd;fill:url(#al)"/><path d="m241.7 132.06c-74.452-46.544-152.73-25.465-192.31 48.094 3.2531-0.60379 6.9433-0.67163 10.918-0.21319 38.762-58.879 105.41-76.619 171.04-42.953 3.2103-1.7996 6.6732-3.4303 10.352-4.9272zm-40.101 84.155c-0.18665-0.48226-0.35347-0.98271-0.52897-1.4667 0.0814 0.51581 0.15322 1.0241 0.24713 1.5395z" style="fill:url(#am)"/><path d="m196.2 218.71c-15.015-45.107 16.944-77.944 45.662-86.352-31.028 12.508-55.686 42.43-40.697 85.053l-4.9652 1.2993z" style="fill-rule:evenodd;fill:url(#an)"/><path d="m135.95 234.72c-13.826-37.97-62.259-60.489-85.2-54.311l-0.03485 0.0598c23.34-4.3847 69.304 20.104 80.01 55.768l5.2247-1.5165z" style="fill-rule:evenodd;fill:url(#ao)"/><path d="m143.35 268.72c6.0619 39.519-25.549 82.434-48.577 88.198l-0.05908-0.0349c22.52-7.5076 51.028-50.929 43.339-86.945l5.2971-1.218z" style="fill-rule:evenodd;fill:url(#ap)"/><path transform="rotate(75.524)" d="m260.17-152.61h36.543v106.67h-36.543z" style="fill-rule:evenodd;fill:url(#aq)"/><path d="m141.06 256c-3.508 2.1401-5.9459-0.58175-7.7314-2.6619s4.011 1.2411 5.9371-0.63849-0.25689-8.2028 1.5286-6.1227 3.2898 7.2874 0.2657 9.4231z" style="fill-rule:evenodd;fill:url(#ar);opacity:.63846"/><path transform="matrix(.12583 .13781 -.13781 .12583 127.88 149.69)" d="m456.64 325.73a26.964 26.964 0 1 1-53.928 0 26.964 26.964 0 1 1 53.928 0z" style="fill-rule:evenodd;fill:url(#d-9-3);stroke:#6d6d6d"/><path d="m203.83 241.64c-3.508 2.1401-5.9459-0.58175-7.7314-2.6619s4.011 1.2411 5.9371-0.63849-0.25689-8.2028 1.5286-6.1227 3.2898 7.2874 0.2657 9.4231z" style="fill-rule:evenodd;fill:url(#as);opacity:.63846"/><path transform="matrix(.12583 .13781 -.13781 .12583 190.67 135.37)" d="m456.64 325.73a26.964 26.964 0 1 1-53.928 0 26.964 26.964 0 1 1 53.928 0z" style="fill-rule:evenodd;fill:url(#d-9-3);stroke:#6d6d6d"/><path transform="matrix(.16115 0 0 .17598 -402.8 342.61)" d="m142.37 165.39-11.687-2.3095 10.472 68.417-19.23-66.593-9.7925 6.7845 2.3095-11.687-69.047 11.102 67.223-19.86-6.7845-9.7925 11.687 2.3095-9.842-65.897 18.6 64.073 9.7925-6.7845-2.3095 11.687 67.787-6.6923-65.963 15.45 6.7845 9.7925z" style="fill:#fff;filter:url(#c-6-6)"/><path transform="matrix(.24168 .087587 -.074491 .20555 -104.12 254.9)" d="m142.37 165.39-11.687-2.3095 10.472 68.417-19.23-66.593-9.7925 6.7845 2.3095-11.687-69.047 11.102 67.223-19.86-6.7845-9.7925 11.687 2.3095-9.842-65.897 18.6 64.073 9.7925-6.7845-2.3095 11.687 67.787-6.6923-65.963 15.45 6.7845 9.7925z" style="fill:#fff;filter:url(#c-6-6)"/><path transform="matrix(.21481 .011218 -.012038 .2305 88.126 80.926)" d="m142.37 165.39-11.687-2.3095 10.472 68.417-19.23-66.593-9.7925 6.7845 2.3095-11.687-69.047 11.102 67.223-19.86-6.7845-9.7925 11.687 2.3095-9.842-65.897 18.6 64.073 9.7925-6.7845-2.3095 11.687 67.787-6.6923-65.963 15.45 6.7845 9.7925z" style="fill:#fff;filter:url(#c-6-6)"/></g><g transform="matrix(1.5916,2.0869,-2.0869,1.5916,565.29,-801.77)"><path d="m240.42 339.88 239.45-5.2125c14.991 2.8196 23.775 7.3625 31.926 15.312-6.9648 7.8038-16.315 16.154-31.926 15.312l-238.8-6.8414-0.65155-18.569z" style="fill:url(#w-2);stroke-width:3.3;stroke:url(#v-3)"/><path transform="translate(-4.358 -.93386)" d="m155.18 350.49a7.7044 14.086 0 1 1-4e-5 -0.044" style="fill:url(#radialGradient1590)"/><path d="m150.18 337.34c1.9522 0 3.5238 4.3741 3.5238 9.8073v4.6993c0 5.4333-1.5716 9.8073-3.5238 9.8073s-3.5238-4.3741-3.5238-9.8073v-4.6993c0-5.4333 1.5716-9.8073 3.5238-9.8073z" style="fill:url(#a-7);stroke-width:.765;stroke:#5f3f31"/><path d="m154.18 337.34c1.9522 0 3.5238 4.3741 3.5238 9.8073v4.6993c0 5.4333-1.5716 9.8073-3.5238 9.8073s-3.5238-4.3741-3.5238-9.8073v-4.6993c0-5.4333 1.5716-9.8073 3.5238-9.8073z" style="fill:url(#a-7);stroke-width:.765;stroke:#5f3f31"/><path d="m158.18 337.34c1.9522 0 3.5238 4.3741 3.5238 9.8073v4.6993c0 5.4333-1.5716 9.8073-3.5238 9.8073s-3.5238-4.3741-3.5238-9.8073v-4.6993c0-5.4333 1.5716-9.8073 3.5238-9.8073z" style="fill:url(#a-7);stroke-width:.765;stroke:#5f3f31"/><path d="m162.18 337.34c1.9522 0 3.5238 4.3741 3.5238 9.8073v4.6993c0 5.4333-1.5716 9.8073-3.5238 9.8073s-3.5238-4.3741-3.5238-9.8073v-4.6993c0-5.4333 1.5716-9.8073 3.5238-9.8073z" style="fill:url(#a-7);stroke-width:.765;stroke:#5f3f31"/><path d="m166.18 337.34c1.9522 0 3.5238 4.3741 3.5238 9.8073v4.6993c0 5.4333-1.5716 9.8073-3.5238 9.8073s-3.5238-4.3741-3.5238-9.8073v-4.6993c0-5.4333 1.5716-9.8073 3.5238-9.8073z" style="fill:url(#a-7);stroke-width:.765;stroke:#5f3f31"/><path d="m170.18 337.34c1.9522 0 3.5238 4.3741 3.5238 9.8073v4.6993c0 5.4333-1.5716 9.8073-3.5238 9.8073s-3.5238-4.3741-3.5238-9.8073v-4.6993c0-5.4333 1.5716-9.8073 3.5238-9.8073z" style="fill:url(#a-7);stroke-width:.765;stroke:#5f3f31"/><path d="m174.18 337.34c1.9522 0 3.5238 4.3741 3.5238 9.8073v4.6993c0 5.4333-1.5716 9.8073-3.5238 9.8073s-3.5238-4.3741-3.5238-9.8073v-4.6993c0-5.4333 1.5716-9.8073 3.5238-9.8073z" style="fill:url(#a-7);stroke-width:.765;stroke:#5f3f31"/><path d="m178.18 337.34c1.9522 0 3.5238 4.3741 3.5238 9.8073v4.6993c0 5.4333-1.5716 9.8073-3.5238 9.8073s-3.5238-4.3741-3.5238-9.8073v-4.6993c0-5.4333 1.5716-9.8073 3.5238-9.8073z" style="fill:url(#a-7);stroke-width:.765;stroke:#5f3f31"/><path d="m182.18 337.34c1.9522 0 3.5238 4.3741 3.5238 9.8073v4.6993c0 5.4333-1.5716 9.8073-3.5238 9.8073s-3.5238-4.3741-3.5238-9.8073v-4.6993c0-5.4333 1.5716-9.8073 3.5238-9.8073z" style="fill:url(#a-7);stroke-width:.765;stroke:#5f3f31"/><path d="m186.18 337.34c1.9522 0 3.5238 4.3741 3.5238 9.8073v4.6993c0 5.4333-1.5716 9.8073-3.5238 9.8073s-3.5238-4.3741-3.5238-9.8073v-4.6993c0-5.4333 1.5716-9.8073 3.5238-9.8073z" style="fill:url(#a-7);stroke-width:.765;stroke:#5f3f31"/><path d="m190.18 337.34c1.9522 0 3.5238 4.3741 3.5238 9.8073v4.6993c0 5.4333-1.5716 9.8073-3.5238 9.8073s-3.5238-4.3741-3.5238-9.8073v-4.6993c0-5.4333 1.5716-9.8073 3.5238-9.8073z" style="fill:url(#a-7);stroke-width:.765;stroke:#5f3f31"/><path d="m194.18 337.34c1.9522 0 3.5238 4.3741 3.5238 9.8073v4.6993c0 5.4333-1.5716 9.8073-3.5238 9.8073s-3.5238-4.3741-3.5238-9.8073v-4.6993c0-5.4333 1.5716-9.8073 3.5238-9.8073z" style="fill:url(#a-7);stroke-width:.765;stroke:#5f3f31"/><path d="m198.18 337.34c1.9522 0 3.5238 4.3741 3.5238 9.8073v4.6993c0 5.4333-1.5716 9.8073-3.5238 9.8073s-3.5238-4.3741-3.5238-9.8073v-4.6993c0-5.4333 1.5716-9.8073 3.5238-9.8073z" style="fill:url(#a-7);stroke-width:.765;stroke:#5f3f31"/><path d="m202.18 337.34c1.9522 0 3.5238 4.3741 3.5238 9.8073v4.6993c0 5.4333-1.5716 9.8073-3.5238 9.8073s-3.5238-4.3741-3.5238-9.8073v-4.6993c0-5.4333 1.5716-9.8073 3.5238-9.8073z" style="fill:url(#a-7);stroke-width:.765;stroke:#5f3f31"/><path d="m206.18 337.34c1.9522 0 3.5238 4.3741 3.5238 9.8073v4.6993c0 5.4333-1.5716 9.8073-3.5238 9.8073s-3.5238-4.3741-3.5238-9.8073v-4.6993c0-5.4333 1.5716-9.8073 3.5238-9.8073z" style="fill:url(#a-7);stroke-width:.765;stroke:#5f3f31"/><path d="m210.18 337.34c1.9522 0 3.5238 4.3741 3.5238 9.8073v4.6993c0 5.4333-1.5716 9.8073-3.5238 9.8073s-3.5238-4.3741-3.5238-9.8073v-4.6993c0-5.4333 1.5716-9.8073 3.5238-9.8073z" style="fill:url(#a-7);stroke-width:.765;stroke:#5f3f31"/><path d="m214.18 337.34c1.9522 0 3.5238 4.3741 3.5238 9.8073v4.6993c0 5.4333-1.5716 9.8073-3.5238 9.8073s-3.5238-4.3741-3.5238-9.8073v-4.6993c0-5.4333 1.5716-9.8073 3.5238-9.8073z" style="fill:url(#a-7);stroke-width:.765;stroke:#5f3f31"/><path d="m218.18 337.34c1.9522 0 3.5238 4.3741 3.5238 9.8073v4.6993c0 5.4333-1.5716 9.8073-3.5238 9.8073s-3.5238-4.3741-3.5238-9.8073v-4.6993c0-5.4333 1.5716-9.8073 3.5238-9.8073z" style="fill:url(#a-7);stroke-width:.765;stroke:#5f3f31"/><path d="m222.18 337.34c1.9522 0 3.5238 4.3741 3.5238 9.8073v4.6993c0 5.4333-1.5716 9.8073-3.5238 9.8073s-3.5238-4.3741-3.5238-9.8073v-4.6993c0-5.4333 1.5716-9.8073 3.5238-9.8073z" style="fill:url(#a-7);stroke-width:.765;stroke:#5f3f31"/><path d="m226.18 337.34c1.9522 0 3.5238 4.3741 3.5238 9.8073v4.6993c0 5.4333-1.5716 9.8073-3.5238 9.8073s-3.5238-4.3741-3.5238-9.8073v-4.6993c0-5.4333 1.5716-9.8073 3.5238-9.8073z" style="fill:url(#a-7);stroke-width:.765;stroke:#5f3f31"/><path d="m230.18 337.34c1.9522 0 3.5238 4.3741 3.5238 9.8073v4.6993c0 5.4333-1.5716 9.8073-3.5238 9.8073s-3.5238-4.3741-3.5238-9.8073v-4.6993c0-5.4333 1.5716-9.8073 3.5238-9.8073z" style="fill:url(#a-7);stroke-width:.765;stroke:#5f3f31"/><path d="m234.18 337.34c1.9522 0 3.5238 4.3741 3.5238 9.8073v4.6993c0 5.4333-1.5716 9.8073-3.5238 9.8073s-3.5238-4.3741-3.5238-9.8073v-4.6993c0-5.4333 1.5716-9.8073 3.5238-9.8073z" style="fill:url(#a-7);stroke-width:.765;stroke:#5f3f31"/><path d="m238.18 337.34c1.9522 0 3.5238 4.3741 3.5238 9.8073v4.6993c0 5.4333-1.5716 9.8073-3.5238 9.8073s-3.5238-4.3741-3.5238-9.8073v-4.6993c0-5.4333 1.5716-9.8073 3.5238-9.8073z" style="fill:url(#a-7);stroke-width:.765;stroke:#5f3f31"/><path d="m242.18 337.34c1.9522 0 3.5238 4.3741 3.5238 9.8073v4.6993c0 5.4333-1.5716 9.8073-3.5238 9.8073s-3.5238-4.3741-3.5238-9.8073v-4.6993c0-5.4333 1.5716-9.8073 3.5238-9.8073z" style="fill:url(#a-7);stroke-width:.765;stroke:#5f3f31"/><path d="m245.77 350.71 0.27493 6.4711 233.44 6.8438c15.26 0.84243 24.411-7.5087 31.219-15.312-0.0718-0.0716 2.9925 1.4196 2.9206 1.3485l-267.86 0.64916z" style="fill:url(#u-9);opacity:.66412"/><path d="m243.68 321.31a2.6062 2.6062 0 0 1 2.6062 2.6062v49.518a2.6062 2.6062 0 0 1-2.6062 2.6062 2.6062 2.6062 0 0 1-2.6062-2.6062v-49.518a2.6062 2.6062 0 0 1 2.6062-2.6062" style="fill:#666"/><path transform="matrix(2.2308,0,0,1.0535,-299.09,-28.836)" d="m244.84 348.82c0 14.082-0.46721 25.51-1.0429 25.51s-1.0429-11.429-1.0429-25.51c0-13.625-1.5995-15.382 0.39557-16.144 1.6347-0.6243 1.6884 2.0106 1.6902 16.064" style="fill:url(#q-7-5)"/><path d="m142.71 363.31c-3.9708-0.60576-7.1266-2.5326-7.0443-4.3009s3.3718-2.7118 7.3426-2.106c3.8419 0.5861 4.5662-4.2514 4.4957 1.9096-0.0577 5.0481-0.80841 5.5536-4.7715 4.9546" style="fill:url(#p-7-0)"/></g><path transform="matrix(.10861 .26309 -.2873 .11861 116.3 -19.875)" d="m142.37 165.39-11.687-2.3095 10.472 68.417-19.23-66.593-9.7925 6.7845 2.3095-11.687-69.047 11.102 67.223-19.86-6.7845-9.7925 11.687 2.3095-9.842-65.897 18.6 64.073 9.7925-6.7845-2.3095 11.687 67.787-6.6923-65.963 15.45 6.7845 9.7925z" style="fill:#fff;filter:url(#c-6-6)"/><path transform="matrix(.0199 .4536 -.38578 .01692 380.8 284.53)" d="m142.37 165.39-11.687-2.3095 10.472 68.417-19.23-66.593-9.7925 6.7845 2.3095-11.687-69.047 11.102 67.223-19.86-6.7845-9.7925 11.687 2.3095-9.842-65.897 18.6 64.073 9.7925-6.7845-2.3095 11.687 67.787-6.6923-65.963 15.45 6.7845 9.7925z" style="fill:#fff;filter:url(#c-6-6)"/><path transform="matrix(.12646 .35825 -.38442 .1357 697.56 740.72)" d="m142.37 165.39-11.687-2.3095 10.472 68.417-19.23-66.593-9.7925 6.7845 2.3095-11.687-69.047 11.102 67.223-19.86-6.7845-9.7925 11.687 2.3095-9.842-65.897 18.6 64.073 9.7925-6.7845-2.3095 11.687 67.787-6.6923-65.963 15.45 6.7845 9.7925z" style="fill:#fff;filter:url(#c-6-6)"/></g></g></g></g></svg>
