<?xml version="1.0" encoding="UTF-8"?>
<svg width="239.06mm" height="193.76mm" version="1.1" viewBox="0 0 239.06 193.76" xmlns="http://www.w3.org/2000/svg"><defs><linearGradient id="a" x1="138.42" x2="243.38" y1="152.64" y2="182.73" gradientTransform="scale(.87648 1.1409)" gradientUnits="userSpaceOnUse"><stop offset="0"/><stop stop-opacity="0" offset="1"/></linearGradient></defs><g transform="translate(19.122 -27.305)"><flowRoot transform="matrix(.26458 0 0 .26458 -71.176 19.314)" font-size="22px" letter-spacing="0px" word-spacing="0px" style="fill:#000000;font-family:'Arial Black';font-size:22px;letter-spacing:0px;line-height:125%;word-spacing:0px" xml:space="preserve"><flowRegion><rect x="835.61" y="1025" width="8.2571" height="165.14"/></flowRegion><flowPara/></flowRoot><g transform="matrix(.11461 -.029743 .049315 .16569 -54.667 96.797)"><path d="m266.26 440.21c-39.16-7.6796-80.177-33.762-100.59-70.904-4.1668-7.5805-5.2479-30.609 1.9914-25.874 61.502 40.225 76.29 28.675 98.788 41.76 15.853 9.22 17.81 58.547-0.18647 55.018z" style="fill:#82af16;stroke-width:3.1997;stroke:#4b660e"/><path d="m163.22 344.19c-1.8602 5.6677-0.46459 18.439 2.4375 23.719 20.416 37.142 61.434 63.227 100.59 70.906 10.65 2.0884 14.32-14.334 12.25-30-1.3785 8.9346-5.3562 15.352-12.25 14-39.16-7.6796-80.178-33.765-100.59-70.906-1.0205-1.8566-1.8641-4.6437-2.4375-7.7188z" style="fill:#729913"/><path d="m165.49 342.81c-1.3072 0.0208-2.1968 1.2713-2.75 3.25 0.81557-0.45421 1.7675-0.3365 2.875 0.5625 57.057 46.315 72.93 36.336 93.969 51.656 9.1582 6.669 11.485 28.008 7.7812 42.094 16.404 0.61142 14.126-46.227-1.2812-55.188-22.498-13.084-37.28-1.5248-98.781-41.75-0.67868-0.44389-1.2758-0.63353-1.8125-0.625z" style="fill:#9ad01a"/><path d="m266.26 440.21c-39.16-7.6796-80.177-33.762-100.59-70.904-4.1668-7.5805-5.2479-30.609 1.9914-25.874 61.502 40.225 76.29 28.675 98.788 41.76 15.853 9.22 17.81 58.547-0.18647 55.018z" style="fill:none;stroke-width:3.1997;stroke:#4b660e"/></g><g transform="matrix(.32095 -.070476 .07179 .31351 -109.57 60.563)"><path d="m594.13 432.05c51.257 20.667 54.751 92.455 57.144 146.03 1.6049 35.918-124.92 38.012-116.4 2.9401 30.099-123.94-11.838-96.776 16.932-132.31 9.198-11.359 28.272-22.328 42.329-16.661z" style="fill:#719913;stroke-width:3.2925;stroke:#6e9615"/><path d="m585.78 432.34c-0.8981 1e-3 -1.8018 0.0599-2.7188 0.15625-3.6678 0.38556-7.4627 1.4942-11.156 3.1562-7.3871 3.324-14.296 8.795-18.688 14.219-7.1277 8.8025-9.6477 13.496-10.156 17.312s0.97134 7.4033 2.5625 14.094c3.1823 13.381 6.1195 38.028-8.9688 100.16-0.94307 3.8832-0.0966 6.9751 2.25 9.8438 2.3466 2.8686 6.332 5.422 11.469 7.4375 10.273 4.031 25.056 5.936 40.062 5.625 0.53157-0.011 1.0618-0.0459 1.5938-0.0625-12.002-0.41994-23.309-2.2873-31.656-5.5625-5.1367-2.0155-9.1222-4.5689-11.469-7.4375-2.3466-2.8686-3.1931-5.9605-2.25-9.8438 15.088-62.128 12.151-86.775 8.9688-100.16-1.5912-6.6904-3.071-10.277-2.5625-14.094s3.0286-8.51 10.156-17.312c4.3918-5.4237 11.3-10.895 18.688-14.219 2.8519-1.2833 5.7575-2.2359 8.625-2.7812-1.5344-0.34132-3.1218-0.53387-4.75-0.53125z" style="fill:#9ad01a"/><path d="m585.78 432.34c-0.84749 9.4e-4 -1.6986 0.0694-2.5625 0.15625 23.836 10.396 36.741 32.421 44.062 58.719 7.4992 26.937 8.9908 58.155 10.188 84.938 0.17676 3.9559-1.3726 7.3715-4.4062 10.531s-7.5934 5.9647-13.188 8.25c-11.188 4.5706-26.431 7.0952-41.438 7.4062-6.3772 0.13217-12.72-0.11989-18.688-0.78125 9.0171 2.0743 19.797 3.007 30.688 2.7812 15.006-0.31101 30.249-2.8356 41.438-7.4062 5.5941-2.2853 10.154-5.0902 13.188-8.25s4.583-6.5754 4.4062-10.531c-1.1967-26.783-2.6883-58-10.188-84.938s-20.85-49.404-45.812-59.469c-2.3944-0.9654-4.9932-1.4106-7.6875-1.4062z" style="fill:#698c11"/><path d="m629.14 575.19c-6.8667-0.54076-15.562 3.1311-18.83 7.5528-2.5267 3.4184-2.6568 9.5494 2.2506 10.811 8.8727 2.2802 23.462-5.3956 25.012-12.072 0.69089-2.9746-4.157-5.9543-8.4332-6.2911z" style="fill:#9eab26"/></g><path d="m112.13 154.14c17.935 2.9042 24.216 25.419 28.836 42.236 3.0965 11.275-37.36 20.948-37.145 9.2198 0.75181-41.443-10.755-29.846-4.0754-43.16 2.1354-4.2568 7.4686-9.0934 12.387-8.2967z" style="fill:none;stroke-width:1.0762;stroke:#4b660e"/><g transform="matrix(.30237 .033785 -.03034 .33099 -135.24 -13.317)"><path d="m594.13 432.05c51.257 20.667 54.751 92.455 57.144 146.03 1.6049 35.918-124.92 38.012-116.4 2.9401 30.099-123.94-11.838-96.776 16.932-132.31 9.198-11.359 28.272-22.328 42.329-16.661z" style="fill:#729913;stroke-width:3.2917;stroke:#4b660e"/><path d="m585.78 432.34c-0.8981 1e-3 -1.8018 0.0599-2.7188 0.15625-3.6678 0.38556-7.4627 1.4942-11.156 3.1562-7.3871 3.324-14.296 8.795-18.688 14.219-7.1277 8.8025-9.6477 13.496-10.156 17.312s0.97134 7.4033 2.5625 14.094c3.1823 13.381 6.1195 38.028-8.9688 100.16-0.94307 3.8832-0.0966 6.9751 2.25 9.8438 2.3466 2.8686 6.332 5.422 11.469 7.4375 10.273 4.031 25.056 5.936 40.062 5.625 0.53157-0.011 1.0618-0.0459 1.5938-0.0625-12.002-0.41994-23.309-2.2873-31.656-5.5625-5.1367-2.0155-9.1222-4.5689-11.469-7.4375-2.3466-2.8686-3.1931-5.9605-2.25-9.8438 15.088-62.128 12.151-86.775 8.9688-100.16-1.5912-6.6904-3.071-10.277-2.5625-14.094s3.0286-8.51 10.156-17.312c4.3918-5.4237 11.3-10.895 18.688-14.219 2.8519-1.2833 5.7575-2.2359 8.625-2.7812-1.5344-0.34132-3.1218-0.53387-4.75-0.53125z" style="fill:#9ad01a"/><path d="m585.78 432.34c-0.84749 9.4e-4 -1.6986 0.0694-2.5625 0.15625 23.836 10.396 36.741 32.421 44.062 58.719 7.4992 26.937 8.9908 58.155 10.188 84.938 0.17676 3.9559-1.3726 7.3715-4.4062 10.531s-7.5934 5.9647-13.188 8.25c-11.188 4.5706-26.431 7.0952-41.438 7.4062-6.3772 0.13217-12.72-0.11989-18.688-0.78125 9.0171 2.0743 19.797 3.007 30.688 2.7812 15.006-0.31101 30.249-2.8356 41.438-7.4062 5.5941-2.2853 10.154-5.0902 13.188-8.25s4.583-6.5754 4.4062-10.531c-1.1967-26.783-2.6883-58-10.188-84.938s-20.85-49.404-45.812-59.469c-2.3944-0.9654-4.9932-1.4106-7.6875-1.4062z" style="fill:#698c11"/><path d="m633 578.69c-5.5396-1.5033-13.963 0.76543-18.112 4.531-3.208 2.9112-5.2987 8.7641-1.6225 10.676 6.6466 3.4571 21.27-1.8004 24.719-7.972 1.5368-2.7496-1.5342-6.299-4.984-7.2352z" style="fill:#a0ad27"/></g><path d="m17.273 157.2c-4.9201 7.1615 5.1476 5.0806-7.183 43.438-1.9537 6.0773 7.2743 10.087 17.144 11.01 3.7071-18.487 7.5444-41.838-6.225-52.941-1.068-0.86115-2.3507-1.334-3.7354-1.5078z" style="fill:#56730f;stroke-width:.28615"/><path d="m101.11 166.79c-0.9235 0.0213-1.8691 0.20203-2.8054 0.49167-0.46357 5.2706 6.7503 4.5335 6.1694 38.465-0.10026 5.8587 9.4505 6.5197 18.912 4.3149-1.2972-16.953-4.175-36.962-19.521-42.823-0.87472-0.33412-1.8048-0.46889-2.7551-0.44703z" style="fill:#56730f;stroke-width:.28615"/><path d="m112.13 154.14c17.934 2.8667 24.209 25.126 28.824 41.752 3.0936 11.147-37.363 20.721-37.148 9.1257 0.76256-40.977-10.747-29.505-4.0642-42.671 2.1365-4.2093 7.4709-8.9926 12.389-8.2063z" style="fill:none;stroke-width:1.0701;stroke:#4b660e"/><path d="m31.294 149.76c14.871 8.5722 13.749 32.451 12.848 50.266-0.60447 11.943-38.926 8.3611-35.285-2.9596 12.861-40.005-0.64334-32.433 9.1334-43.22 3.1258-3.4491 9.2258-6.4355 13.304-4.0844z" style="fill:none;stroke-width:1.0467;stroke:#4b660e"/><path d="m121.38 127.89-5.6282 0.94138-4.7612 5.4573-6.2878 20.812-15.904 11.061-31.443 6.0624-33.517-2.785-22.804-10.885-8.1992-15.316c-3.0591 16.527 8.0843 32.446 30.144 40.278 26.485 9.4028 58.838 4.6191 80.166-10.792 3.4277-2.4768 8.0608-5.5615 10.757-8.5521 10.612-11.77 12.724-24.955 7.4769-36.282z" style="fill:#8d9922;stroke-width:.92774;stroke:#484e11"/><path d="m121.4 129.02-5.6891 0.94279-4.8136 5.4584-6.3606 20.813-16.078 11.065-31.782 6.0703-33.877-2.7765-23.046-10.88-8.2836-15.314c-0.96277 5.1395-0.54009 10.222 1.1736 15.019 4.1002 6.6895 11.598 13.322 21.088 15.743 12.147 3.5457 25.035 4.0899 37.671 4.5688 12.048 0.0952 27.286-1.6324 38.523-5.8372 9.8195-3.7933 19.337-14.063 21.383-23.339 1.722-5.2634 1.2615-11.672 5.7425-15.778 1.6739-0.60425 4.1209-0.42468 6.195-0.6191-0.45472-1.7447-1.0659-3.4634-1.8493-5.1374z" style="fill:#76801d;stroke-width:.26458"/><path d="m118.9 114.76c-1.4618 3.6284-3.096 6.9445-4.9664 9.814-1.5211 2.3658-4.0877 2.5918-6.4192 3.2261-3.5113 7.429-3.4316 16.898-5.5454 24.946-0.57541 3.2639-1.561 6.5919-2.8581 9.8926 2.0741 3.9121 2.5726 3.7126 7.0741 4.6113 2.5641-0.23958 4.6812 0.0455 7.6901-0.89674 9.1169-17.215 10.52-35.304 5.0252-51.595z" style="fill:#5e6617;stroke-width:.45723"/><path d="m97.809 123.89a10.449 25.084 6.5957 1 1-0.87497 2.2056" style="fill:#330203;stroke-width:.40402"/><path d="m-5.6802 149.52c-3.102 14.048 7.9409 27.533 29.882 34.11 26.472 7.9356 58.259 3.8222 79.531-9.4888-8.1052 3.9799-15.313 6.4378-25.133 8.1042-15.935 2.704-33.046 2.1638-47.826-2.2668-12.382-3.7118-21.294-9.6202-26.151-16.591l-2.1895-0.88646z" style="fill:#b6c52c;stroke-width:.26458"/><path d="m100.76 177.92s6.6347 5.383 9.925 5.3742" style="fill:#484f11;stroke-linecap:round;stroke-linejoin:round;stroke-width:1.8284;stroke:#a5b226"/><path d="m121.53 128.03-5.6282 0.94139-4.7612 5.4573-6.2878 20.812-15.904 11.061-31.443 6.0624-33.517-2.785-22.804-10.885-8.1992-15.316c-3.0591 16.527 8.0843 32.446 30.144 40.278 26.485 9.4028 58.838 4.6191 80.166-10.792 3.4277-2.4768 8.0608-5.5615 10.757-8.5521 10.612-11.77 12.724-24.955 7.4769-36.282z" style="fill:none;stroke-width:.92774;stroke:#484e11"/><g transform="matrix(.31774 .087809 -.085826 .34848 -133.32 -43.958)"><path d="m594.13 432.05c51.257 20.667 54.751 92.455 57.144 146.03 1.6049 35.918-124.92 38.012-116.4 2.9401 30.099-123.94-11.838-96.776 16.932-132.31 9.198-11.359 28.272-22.328 42.329-16.661z" style="fill:#82af16;stroke-width:3.2917;stroke:#4b660e"/><path d="m585.78 432.34c-0.8981 1e-3 -1.8018 0.0599-2.7188 0.15625-3.6678 0.38556-7.4627 1.4942-11.156 3.1562-7.3871 3.324-14.296 8.795-18.688 14.219-7.1277 8.8025-9.6477 13.496-10.156 17.312s0.97134 7.4033 2.5625 14.094c3.1823 13.381 6.1195 38.028-8.9688 100.16-0.94307 3.8832-0.0966 6.9751 2.25 9.8438 2.3466 2.8686 6.332 5.422 11.469 7.4375 10.273 4.031 25.056 5.936 40.062 5.625 0.53157-0.011 1.0618-0.0459 1.5938-0.0625-12.002-0.41994-23.309-2.2873-31.656-5.5625-5.1367-2.0155-9.1222-4.5689-11.469-7.4375-2.3466-2.8686-3.1931-5.9605-2.25-9.8438 15.088-62.128 12.151-86.775 8.9688-100.16-1.5912-6.6904-3.071-10.277-2.5625-14.094s3.0286-8.51 10.156-17.312c4.3918-5.4237 11.3-10.895 18.688-14.219 2.8519-1.2833 5.7575-2.2359 8.625-2.7812-1.5344-0.34132-3.1218-0.53387-4.75-0.53125z" style="fill:#9ad01a"/><path d="m585.78 432.34c-0.84749 9.4e-4 -1.6986 0.0694-2.5625 0.15625 23.836 10.396 36.741 32.421 44.062 58.719 7.4992 26.937 8.9908 58.155 10.188 84.938 0.17676 3.9559-1.3726 7.3715-4.4062 10.531s-7.5934 5.9647-13.188 8.25c-11.188 4.5706-26.431 7.0952-41.438 7.4062-6.3772 0.13217-12.72-0.11989-18.688-0.78125 9.0171 2.0743 19.797 3.007 30.688 2.7812 15.006-0.31101 30.249-2.8356 41.438-7.4062 5.5941-2.2853 10.154-5.0902 13.188-8.25s4.583-6.5754 4.4062-10.531c-1.1967-26.783-2.6883-58-10.188-84.938s-20.85-49.404-45.812-59.469c-2.3944-0.9654-4.9932-1.4106-7.6875-1.4062z" style="fill:#729913"/><path d="m630.11 576.54c-6.7397-1.1698-17.55 2.0897-23.202 6.6247-4.3699 3.5059-7.706 10.167-3.3464 11.954 7.8824 3.2325 26.812-3.8851 31.886-11.019 2.2606-3.1784-1.1404-6.8314-5.3375-7.5599z" style="fill:#b6c52c"/></g><g transform="matrix(.32879 -.007567 .0070262 .30524 -97.145 39.876)"><path d="m594.13 432.05c51.257 20.667 54.751 92.455 57.144 146.03 1.6049 35.918-124.92 38.012-116.4 2.9401 30.099-123.94-11.838-96.776 16.932-132.31 9.198-11.359 28.272-22.328 42.329-16.661z" style="fill:#82af16;stroke-width:3.2917;stroke:#4b660e"/><path d="m585.78 432.34c-0.8981 1e-3 -1.8018 0.0599-2.7188 0.15625-3.6678 0.38556-7.4627 1.4942-11.156 3.1562-7.3871 3.324-14.296 8.795-18.688 14.219-7.1277 8.8025-9.6477 13.496-10.156 17.312s0.97134 7.4033 2.5625 14.094c3.1823 13.381 6.1195 38.028-8.9688 100.16-0.94307 3.8832-0.0966 6.9751 2.25 9.8438 2.3466 2.8686 6.332 5.422 11.469 7.4375 10.273 4.031 25.056 5.936 40.062 5.625 0.53157-0.011 1.0618-0.0459 1.5938-0.0625-12.002-0.41994-23.309-2.2873-31.656-5.5625-5.1367-2.0155-9.1222-4.5689-11.469-7.4375-2.3466-2.8686-3.1931-5.9605-2.25-9.8438 15.088-62.128 12.151-86.775 8.9688-100.16-1.5912-6.6904-3.071-10.277-2.5625-14.094s3.0286-8.51 10.156-17.312c4.3918-5.4237 11.3-10.895 18.688-14.219 2.8519-1.2833 5.7575-2.2359 8.625-2.7812-1.5344-0.34132-3.1218-0.53387-4.75-0.53125z" style="fill:#9ad01a"/><path d="m585.78 432.34c-0.84749 9.4e-4 -1.6986 0.0694-2.5625 0.15625 23.836 10.396 36.741 32.421 44.062 58.719 7.4992 26.937 8.9908 58.155 10.188 84.938 0.17676 3.9559-1.3726 7.3715-4.4062 10.531s-7.5934 5.9647-13.188 8.25c-11.188 4.5706-26.431 7.0952-41.438 7.4062-6.3772 0.13217-12.72-0.11989-18.688-0.78125 9.0171 2.0743 19.797 3.007 30.688 2.7812 15.006-0.31101 30.249-2.8356 41.438-7.4062 5.5941-2.2853 10.154-5.0902 13.188-8.25s4.583-6.5754 4.4062-10.531c-1.1967-26.783-2.6883-58-10.188-84.938s-20.85-49.404-45.812-59.469c-2.3944-0.9654-4.9932-1.4106-7.6875-1.4062z" style="fill:#729913"/><path d="m629.67 575.03c-8.1797-1.044-19.717 2.7578-24.877 7.7639-3.9894 3.8702-5.8072 11.073-0.19838 12.848 10.141 3.2089 29.909-4.9517 33.598-12.712 1.6432-3.4573-3.4282-7.2498-8.5221-7.8999z" style="fill:#b6c52c"/></g><path d="m54.265 81.532c-19.225 0.6168-37.944 9.3416-49.829 25.132l-3.62 5.4308c-8.1267 13.764-10.233 22.278-6.1285 36.436 2.055 1.374 4.7114 9.7271 6.9726 10.959 27.67 15.067 63.138 14.958 90.477 1.9681l11.103-28.451 8.7318-6.3429 2.413 1.5946c-6.1132-19.905-9.665-23.913-21.965-36.266-9.6044-9.6459-25.003-10.883-38.158-10.461z" style="fill:#4f4c09;stroke-width:.26458;stroke:#4f4c09"/><path d="m5.4381 160.6c-1.0995 0.5837-2.1212 1.259-2.9737 1.9862-2.3262 1.9843-3.6055 3.3411-4.3017 4.5527 4.769 4.7848 11.194 8.8407 18.679 10.53 3.4327 0.89789 6.9209 1.5759 10.431 2.0984-0.4733-3.6473-1.3286-7.0937-2.7014-10.207-5.4569-1.17-10.684-3.0384-15.352-6.1039-1.3569-0.85385-2.6169-1.813-3.7809-2.8566zm92.155 5.6129c-4.114 0.1972-8.5711 3.1588-10.88 6.0908-2.6972 3.4252-3.3397 4.9868-3.1577 6.5709 5.8744-1.1587 11.546-2.6966 16.48-4.6683 2.4577-1.0124 4.8926-2.4006 7.1984-4.0611-1.98-1.5267-4.2505-2.7562-6.8757-3.5966-0.88258-0.28255-1.8156-0.38104-2.765-0.33554z" style="fill:#5f8010;stroke-width:.28615"/><path d="m18.384 158.77c14.513 11.702 9.4616 37.025 5.6243 55.903-2.5728 12.657-42.957 2.2766-37.24-9.1969 20.201-40.545 4.5444-34.762 16.735-44.617 3.8977-3.1505 10.9-5.2981 14.88-2.0888z" style="fill:none;stroke-width:1.132;stroke:#4b660e"/><path d="m55.128 81.095c-14.506 0.46019-28.739 5.1237-40.27 13.591-1.7219 1.4108-1.4784 1.732-1.2733 3.0887 4.8818 4.2931 13.385 9.7872 16.551 10.189 4.2889 0.5438 21.022-5.4367 23.714-8.4788 1.8571-2.0985 3.6793-10.306 4.1084-16.373 0.12346-0.7997-0.226-2.451-2.8302-2.0157z" style="fill:#baba00;stroke-linecap:round;stroke-linejoin:round;stroke-width:.95671;stroke:#4f4c09"/><path d="m58.216 83.773c-1.628 5.9685-2.6137 14.707-1.4827 17.257 1.5967 3.6012 15.699 13.543 19.987 14.09s21.894-5.1914 24.586-8.246c0.56759-0.64416 0.92755-1.3659 1.4522-2.9205 1.5263-3.348-6.6985-9.6218-9.3472-12.189-7.7028-7.461-18.946-9.9695-29.998-10.551-1.7925 0.06819-4.4582-0.86421-5.1983 2.5592z" style="fill:#adbf8f;stroke-linecap:round;stroke-linejoin:round;stroke-width:.95866;stroke:#4f4c09"/><path d="m10.935 98.314c-2.4413 2.3996-4.7159 5.0152-6.7823 7.8557l-3.6941 5.7505c-4.9054 8.5992-7.6602 15.257-8.2264 22.358-0.5569 2.8871 0.5084 3.7148 0.98695 4.0539 2.8691 2.2683 4.5696 4.491 6.1476 4.7093 4.1553 0.57457 21.917-6.3757 24.52-9.5446 2.6027-3.1689 5.1229-19.737 3.5703-23.48-1.0905-2.6292-8.1619-8.5119-13.714-11.981-0.7407-0.17171-1.92-0.58356-2.8072 0.27876z" style="fill:#ba9500;stroke-linecap:round;stroke-linejoin:round;stroke-width:.96165;stroke:#4f4c09"/><path d="m53.482 101.95c-5.475 0.22872-20.588 5.974-23.153 8.9934-2.7363 3.2205-5.3967 20.051-3.7687 23.852 1.6278 3.8007 15.986 14.293 20.35 14.873 4.364 0.58029 21.383-5.7396 24.119-8.9601s5.3867-20.051 3.7589-23.852c-1.6278-3.8007-15.986-14.293-20.35-14.873-0.27276-0.0363-0.59087-0.0487-0.95586-0.0334z" style="fill:#a6a66c;stroke-linecap:round;stroke-linejoin:round;stroke-width:.99327;stroke:#4f4c09"/><path d="m99.409 108.83c-5.1676 0.21763-19.426 6.3064-21.846 9.2067-2.5813 3.0938-5.0766 19.257-3.5385 22.91 1.5379 3.6531 15.094 13.75 19.213 14.31 0.59214 0.0804 1.4375 0.0201 2.4475-0.14509l8.5569-22.333 8.8546-6.55 2.4512 1.6478c-1.4473-4.7921-2.7509-8.6794-4.0606-12.004-2.6292-5.4568-4.4233-7.5041-12.078-7.0414z" style="fill:#a69400;stroke-linecap:round;stroke-linejoin:round;stroke-width:.94596;stroke:#4f4c09"/><path d="m23.529 136.73c-5.1676 0.21587-22.426 5.4951-24.847 8.3447-1.2818 1.5087-1.5051 3.1099-2.2644 7.8719 0.97385 1.8786 3.9037 6.7371 4.8144 7.2329 12.223 6.6559 25.944 10.393 39.833 11.401 2.1819-5.1469 3.9148-17.65 2.5735-20.781-1.5364-3.5875-15.088-13.49-19.207-14.038-0.25744-0.0342-0.55769-0.0459-0.90218-0.0315z" style="fill:#bfac00;stroke-linecap:round;stroke-linejoin:round;stroke-width:.9375;stroke:#4f4c09"/><path d="m70.241 143.49c-5.5914 0.22562-21.034 5.6843-23.659 8.5386-2.3256 2.5289-4.6022 13.91-4.3611 19.75 17.345 0.71059 34.806-2.1904 50.17-8.3992 0.17626-2.6037 0.0764-4.7842-0.41931-5.8574-1.6556-3.5846-16.299-13.463-20.754-14.003-0.27845-0.0337-0.6033-0.0449-0.97605-0.0298z" style="fill:#a7aa00;stroke-linecap:round;stroke-linejoin:round;stroke-width:.97517;stroke:#4f4c09"/><g transform="matrix(.30401 -.0069966 .0064966 .28223 131.69 120.48)" style="fill:#cbbb00"><path d="m-246.26-144.02c-0.69427-0.0201-1.5071 0.0381-2.4733 0.1875a1.8451 1.7718 0 0 1-0.26034 0c-47.297 0.44333-94.045 15.643-132.25 44.406l0.0326 0.0313c-2.7984 2.356-3.7408 3.6244-4.0354 4.5938-0.25723 0.84651-0.041 2.1833 0.19526 4.0938 1.0856 1.0682 2.2313 2.1776 3.417 3.2812 0.47854-0.44719 0.97205-0.91338 1.5946-1.4375 38.549-29.044 85.699-44.396 133.43-44.844 1.7972-0.27795 3.2676-0.22708 4.4584 0.0313 0.18012-1.5913 0.3228-3.164 0.45561-4.6875a1.8451 1.7718 0 0 1 0-0.125c0.16936-1.0247 6e-3 -2.7973-0.84612-3.9062-0.63905-0.83174-1.6271-1.5647-3.7099-1.625z"/><path d="m-229.15-143.12c-0.75286 6e-3 -1.4487 0.0884-2.1151 0.21967-1.3327 0.26268-2.442 0.74849-3.4492 1.8202-1.0072 1.0716-1.9121 2.8116-2.5381 5.6173a1.8449 1.7793 0 0 1-0.0325 0.0628c-2.8705 10.388-5.2909 23.293-6.5404 34.677-1.0558 9.6189-1.1617 18.275-0.29285 23.003 0.49152-13.44 3.5392-32.068 7.4515-46.225 2.6915-12.063 11.38-8.5346 17.278-8.63 36.289 2.9584 73.087 12.774 97.846 39.824 5.6518 6.1788 19.227 18.337 26.194 29.248 0.1468-1.9474-0.44259-4.3139-1.7246-6.9982-1.7719-3.71-4.7951-7.8752-8.265-11.988-6.94-8.2254-15.621-16.226-20.012-21.026-24.306-26.554-60.558-36.257-96.61-39.196-1.61 0.0108-3.2537-0.1638-4.8158-0.28244-0.8126-0.0618-1.6225-0.13164-2.3754-0.12552z"/><path d="m-391.86-88.098c-0.90147 0.0695-1.6942 0.37874-2.5217 1.2061-8.1404 8.2306-15.747 17.25-22.695 27.056h-0.0316l-12.451 19.885c-16.724 29.957-26.131 53.013-28.495 77.746a1.7872 1.8483 0 0 1-0.0316 0.19559c-0.97677 4.8516-0.61588 7.7796 0.0316 9.5512 0.19874 0.54391 0.43253 0.96563 0.66195 1.3365 2.5769-24.668 12.098-47.792 28.622-77.388l12.577-20.048c7.0082-9.891 14.677-18.986 22.885-27.285 2.9819-2.9815 6.8452-1.4182 9.2673-0.74975 15.155 10.73 33.664 27.596 41.167 38.27-0.17886-2.8313-0.51037-5.0712-1.0087-6.4544-1.39-3.8583-7.8697-11.77-16.171-19.82-8.2254-7.9763-18.234-16.371-27.077-22.656-1.2383-0.35167-2.5598-0.77317-3.7826-0.84755-0.32866-0.0199-0.64516-0.0232-0.94565 0z"/><path d="m-255.96-70.001c-8.3804 0.16919-25.499 4.9666-41.254 11.058-7.8776 3.046-15.48 6.4108-21.587 9.6348-6.1078 3.224-10.771 6.457-12.548 8.6084-1.8963 2.295-4.3256 8.0093-6.4563 15.263-2.1308 7.2541-4.0924 16.121-5.5955 25.031s-2.547 17.877-2.9136 25.428c-0.28592 5.8886-0.0949 10.956 0.49663 14.237 0.80578-22.861 8.3855-59.998 15.495-68.602 8.662-10.483 58.763-29.6 76.78-29.964 1.2011-0.0242 2.2514 0.048 3.1454 0.19866 12.714 2.1428 50.78 32.666 62.643 48.969-0.18808-2.8691-0.53789-5.1555-1.0595-6.5556-1.0393-2.7896-4.8162-7.7756-10.032-13.244-5.2159-5.4681-11.876-11.565-18.839-17.316s-14.239-11.141-20.594-15.23c-6.3554-4.0891-11.93-6.8223-14.866-7.3171-0.75137-0.12661-1.7078-0.22101-2.8143-0.19866z"/><path d="m-101.07-42.088c-1.4045 0.0111-2.8785 0.0646-4.4375 0.12727-0.0104 9e-5 -0.0209 9e-5 -0.0313 0-7.9087 0.16255-24.353 5.486-39.231 11.348-7.4391 2.931-14.345 7.4683-20.113 10.569s-10.166 6.205-11.844 8.2724c-1.7898 2.2053-4.0856 7.6998-6.0938 14.668s-3.8351 15.464-5.25 24.022c-1.4149 8.5583-2.438 17.214-2.7812 24.467-0.26765 5.6565-0.066 10.504 0.5 13.65 0.75425-21.961 7.8846-57.626 14.594-65.893 8.1756-10.074 55.494-30.445 72.5-30.794 24.072-0.96918 30.403 5.9157 38.094 23.381-0.97345-3.1295-1.9372-6.1324-2.9062-8.9724-4.0526-9.5993-7.3977-15.41-12.5-18.74-3.8457-2.5098-8.9374-5.7795-16.5-6.0408-1.2604-0.0436-2.5955-0.0748-4-0.0636z"/><path d="m-357.11 50.608c-7.9428 0.16034-26.627 4.521-43.969 10.094-8.671 2.7864-17.066 5.8966-23.75 8.875s-11.721 6.0498-13.281 7.9375c-2.0014 2.4221-3.1456 4.7901-4.2188 8.8125-1.0394 3.8962-1.9579 9.4976-3.3125 17.469 0.49344 1.0712 1.1504 2.4439 1.875 3.9062 1.8474-10.414 3.1311-15.24 6.625-19.469 8.1756-9.8944 65.307-27.188 82.312-27.531 1.1337-0.0229 2.125 0.0453 2.9688 0.1875 12.013 2.0245 47.968 30.906 59.125 46.281-0.18613-2.7301-0.5361-4.921-1.0312-6.25-0.98095-2.633-4.5145-7.339-9.4375-12.5s-11.24-10.915-17.812-16.344-13.408-10.516-19.406-14.375-11.291-6.4704-14.062-6.9375c-0.70919-0.11955-1.5807-0.17735-2.625-0.15625z"/><path d="m-203.98 78.358c-8.5571 0.15965-26.074 4.7112-42.163 10.469-8.0448 2.8788-15.774 6.0479-22.012 9.0938-6.2375 3.0458-10.999 6.094-12.815 8.125-1.6084 1.799-3.6649 5.8376-5.5113 11.062-1.8464 5.225-3.6056 11.663-5.1056 18.469-2.8523 12.941-4.6975 27.147-4.7337 37.219 0.3951 0.0254 0.78825 0.0384 1.1834 0.0625 2.1188-21.266 8.829-48.988 15.182-56.094 8.8458-9.8944 60.044-27.969 78.444-28.312 1.2266-0.0229 2.2655 0.0453 3.1783 0.1875 12.966 2.0196 51.766 30.753 63.938 46.156-0.17584-2.6703-0.52371-4.824-1.0482-6.125-1.0614-2.633-4.8846-7.339-10.211-12.5-5.3266-5.161-12.161-10.915-19.273-16.344-7.1114-5.4283-14.507-10.516-20.997-14.375-6.4903-3.8595-12.217-6.4392-15.215-6.9062-0.76727-0.1195-1.7102-0.2086-2.8402-0.1875z"/></g><g transform="matrix(.30221 -.0069554 .0063783 .2771 -87.766 46.72)" style="fill:#998a04"><path d="m410.22 365.22c6.376 6.2899 4.8595 5.1095 4.8694 5.2112 6.1132 19.378 4.5916 50.097-3.7845 61.55-7.5081 10.266-42.221-2.9335-58.326-7.2442-29.491-10.497-58.771-24.569-80.415-43.329-0.39606 2.2604-0.76551 4.4006-1.25 7.25 3.0595 6.7318 12.325 24.17 15.281 26 39.682 24.567 84.508 38.922 130.09 43.625 7.563-18.049 13.695-60.917 9.522-72.117-1.6779-4.5037 1.4732-6.7187-6.8238-14.5z"/><path d="m478.78 143.28c-2.8538 18.591-8.0907 38.217-13.094 44.031-9.0814 10.554-64.535 30.369-78.594 28.094-9.4041-1.5219-32.879-18.21-48.906-32.938-0.61487 0.45317-1.2332 0.91496-1.8438 1.375-5.7678 4.8558-4.9778 6.0227-4.4062 10.844 15.725 15.601 43.248 35.727 53.625 37.406 14.059 2.2753 69.544-17.54 78.625-28.094 6.2643-7.28 12.88-36.174 14.75-57.625 0.13944-0.84365 0.1332-1.9783-0.15625-3.0938z"/><path d="m473.78 178.41c-1.8352 13.619-2.2464 26.064-0.21875 31.312 4.977 12.883 50.568 49.246 64.625 51.531s72.388-16.589 81.469-27.188c1.9148-2.2349 3.1574-4.7874 5-10.25 1.2792-2.847 0.66368-6.3489-1.0938-10.156-0.74185 1.4777-1.4962 2.6253-2.4062 3.6875-9.0805 10.598-67.38 29.472-81.438 27.188s-59.679-38.648-64.656-51.531c-1.1396-2.9498-1.5073-8.1682-1.2812-14.594z"/><path d="m377.81 255.47c-2.6138 20.486-8.0122 43.366-13.188 49.844-8.7964 11.009-67.726 34.186-81.344 31.812-5.1713-0.9013-10.583-8.921-19.844-17.188-0.99139-0.79448-2.771-2.3319-3.375-6-0.43973 2.7408-0.82879 5.5093-1.0938 8.2812-2.0494 10.179 1.3898 13.197 2.9375 14.438 9.2607 8.2665 14.672 16.255 19.844 17.156 13.618 2.3734 72.547-20.772 81.344-31.781 6.6691-8.3469 13.778-43.987 14.719-66.562z"/><path d="m532.97 283.59c-2.7121 20.924-8.4299 44.466-13.906 51.094-9.2394 11.182-65.665 32.192-79.969 29.781-14.304-2.4106-60.717-40.751-65.781-54.344-1.2133-3.2566-1.5502-9.1541-1.25-16.375-1.8717 14.384-2.3445 27.556-0.28125 33.094 5.0641 13.593 51.478 51.902 65.781 54.312 14.304 2.4106 70.729-18.568 79.969-29.75 7.029-8.5068 14.499-44.896 15.438-67.812z"/><path d="m539.81 372.25c0.5704 1.0913 1.1516 2.1841 1.75 3.25 5.957 10.612 20.73 19.8 18.125 31.688-1.6674 7.6101-11.986 10.269-19.031 13.594-37.038 11.007-80.798 21.376-118.97 19.906-0.85564 6.8091-1.3063 13.2-1.2188 18.375 56.971 3.93 114.61-4.9217 165.59-25.656 0.7765-9.206 0.61084-16.909-0.9375-20.75-3.5039-8.6921-26.374-28.085-45.312-40.406z"/></g><path d="m105.71 109.88c3.3748 4.0526 6.3497 13.307 4.8559 18.075l2.2396-1.637 2.4373 1.616c-1.4374-4.7046-2.731-8.5212-4.032-11.785-1.3258-2.7189-1.5809-3.8367-2.2403-4.7495-0.47861-0.66268-0.95153-1.4567-3.2602-1.5189zm2.8382 16.35c-0.46308 8e-4 -1.6453 1.7687-5.1993 4.3704-7.379 7.719-7.5708 16.48-15.741 21.743 2.2587 1.3618 4.2497 2.3228 5.4433 2.4826 0.58862 0.0788 1.4304 0.0111 2.4344-0.15132l8.5193-21.925 4.0145-2.9342c-1.7284-0.10899 2.3311-3.5888 0.52853-3.5854z" style="fill:#998a04;stroke-width:.26458"/><g transform="matrix(.30401 -.0069966 .0064966 .28223 -88.591 45.154)" style="fill:none;stroke-linecap:round;stroke-linejoin:round;stroke:#4f4c09"><path d="m469.77 138.99c-47.727 0.44736-94.872 15.802-133.42 44.846-5.7678 4.8558-4.9916 6.0128-4.4201 10.834 15.725 15.601 43.265 35.75 53.642 37.43 14.059 2.2753 69.524-17.539 78.605-28.093 6.2643-7.28 12.877-36.196 14.746-57.648 0.4664-2.8219-0.55755-8.698-9.1525-7.3688z" style="stroke-width:3.2652"/><path d="m479.73 148.73c-5.8039 21.003-11.709 52.922-6.1805 60.992 10.828 15.809 40.592 41.195 64.645 51.526 13.086 5.6202 67.886-16.336 81.454-27.198 2.2974-1.8393 3.1528-4.7613 4.9955-10.224 5.2714-11.732-21.294-34.619-29.808-43.928-24.759-27.049-61.533-36.849-97.822-39.808-5.8984 0.0954-14.592-3.4237-17.284 8.6393z" style="stroke-width:3.2719"/><path d="m323.18 196.37c-8.2078 8.2988-15.884 17.376-22.893 27.267l-12.581 20.063c-16.778 30.053-26.339 53.407-28.738 78.506-2.0494 10.179 1.3903 13.196 2.938 14.437 9.2607 8.2665 14.683 16.276 19.854 17.178 13.618 2.3734 72.539-20.792 81.335-31.801 8.7964-11.009 18.336-69.477 13.515-82.86-3.3863-9.3997-26.189-30.808-44.182-43.547-2.4222-0.66844-6.2682-2.2231-9.2502 0.75843z" style="stroke-width:3.2822"/><path d="m462.79 212.71c-18.017 0.36374-68.138 19.478-76.8 29.961-9.2394 11.182-19.26 70.567-14.196 84.159 5.0641 13.593 51.474 51.918 65.777 54.329 14.304 2.4106 70.733-18.583 79.973-29.765 9.2394-11.182 19.227-70.567 14.163-84.159-2.1759-5.8402-13.211-14.739-25.178-24.868-15.885-13.446-33.97-27.947-40.599-29.461-0.89396-0.15065-1.9389-0.2205-3.14-0.19626z" style="stroke-width:3.3901"/><path d="m613.25 240.83c-5.7696 0.11858-15.297 5.7902-25.335 9.3384-19.549 6.9099-41.781 14.829-47.183 21.485-8.7206 10.746-18.147 67.781-13.368 80.843 4.7797 13.062 48.583 49.924 62.083 52.24 1.9407 0.333 4.7246 0.18818 8.0576-0.31433l29.822-78.392 29.606-22.474 7.9341 6.035c-4.3957-17.088-8.3871-30.96-12.441-42.842-8.2309-19.538-13.974-26.935-39.176-25.92z" style="stroke-width:3.2286"/><path d="m361.68 333.43c-6.3965 0.20192-29.168 7.4338-49.944 14.408-14.547 4.8828-29.009 9.0439-32.376 13.119-4.3283 5.2383-5.1835 10.89-8.0404 27.692 3.0595 6.7318 12.324 24.176 15.28 26.006 39.682 24.567 84.508 38.919 130.09 43.622 7.563-18.049 14.206-62.182 10.033-73.383-4.7797-12.829-48.583-49.003-62.083-51.278-0.84377-0.14219-1.8303-0.22101-2.9637-0.18523z" style="stroke-width:3.1997"/><path d="m514.74 361.18c-8.379 0.15633-21.45 6.7983-36.332 11.861-17.798 6.0548-37.28 11.06-42.098 16.448-7.8371 8.7661-16.183 48.886-15.833 69.585 56.971 3.93 114.6-4.92 165.58-25.655 0.7765-9.206 0.61306-16.936-0.93528-20.777-5.1716-12.829-52.566-49.003-67.173-51.278-0.91293-0.14221-1.98-0.20813-3.2067-0.18524z" style="stroke-width:3.3283"/></g><path d="m101.23 167.26c16.998 5.9205 18.651 27.807 19.814 44.142 0.78002 10.951-40.805 12.548-38.253 1.7782 9.0255-38.058-4.5724-29.451 4.6374-40.513 2.9445-3.5368 9.1388-7.0296 13.8-5.406z" style="fill:none;stroke-width:1.0431;stroke:#4b660e"/><path d="m118.01 122.4c-7.8044 0.43524-14.134 6.6342-15.322 13.636-2.4425 7.3906-7.1922 16.475-12.695 22.651-5.5909 4.6884-16.47 5.811-23.577 7.2305-9.5758 1.3445-19.306 1.0621-28.951 0.92681-11.169-0.71353-23.018-1.9239-32.255-8.3405-6.8323-4.5511-10.837-11.973-12.099-19.578-13.771 1.6251-2.4221 27.546 18.772 32.89 12.277 3.5428 25.299 4.0868 38.071 4.5625 12.178 0.0922 27.585-1.6402 38.944-5.8478 9.9264-3.7957 19.543-14.072 21.614-23.348 1.7418-5.2639 1.2819-11.673 5.8124-15.78 3.7685-1.3466 11.431 1.1751 10.111-5.1393-1.1524-3.0557-5.3181-3.9531-8.4267-3.8629z" style="color:#000000;fill:#8f8f09;stroke-width:.93771;stroke:#4f4c09;text-decoration-line:none;text-indent:0;text-transform:none"/><path d="m118.02 122.4c-7.8007 0.43516-14.125 6.6312-15.313 13.633-2.4413 7.3906-7.1906 16.478-12.691 22.653-5.5883 4.6884-16.464 5.8121-23.568 7.2313-9.5716 1.3444-19.292 1.0571-28.932 0.92176-10.815-0.69133-22.274-1.844-31.374-7.7494 0.48458 0.37624 0.98139 0.74173 1.4983 1.0862 9.2337 6.4167 21.08 7.6248 32.245 8.3383 9.6401 0.13537 19.36 0.42267 28.932-0.92175 7.1038-1.4193 17.98-2.5431 23.568-7.2313 5.5002-6.1751 10.249-15.263 12.691-22.653 1.1877-7.0022 7.512-13.198 15.313-13.633 1.6718-0.0485 3.6462 0.196 5.2962 0.90176-1.685-2.0256-5.0461-2.6527-7.6634-2.5769zm-124.84 16.525c-11.344 1.3392-5.628 19.178 8.5908 28.403-11.617-8.9106-16.274-23.356-8.1616-26.277-0.16568-0.70471-0.31131-1.4155-0.42913-2.1257z" style="color:#000000;fill:#beaf00;stroke-width:.26458;text-decoration-line:none;text-indent:0;text-transform:none"/><path d="m118.02 122.4c-7.8007 0.43516-14.127 6.6342-15.315 13.636-2.4413 7.3906-7.1887 16.475-12.689 22.65-5.5883 4.6884-16.462 5.811-23.566 7.2303-9.5716 1.3444-19.297 1.0618-28.937 0.92649-11.164-0.71364-23.007-1.9241-32.242-8.341-6.8294-4.5511-10.832-11.973-12.094-19.578-13.764 1.6249-2.4207 27.546 18.764 32.89 12.272 3.5428 25.287 4.087 38.055 4.563 12.172 0.0923 27.572-1.6399 38.925-5.8473 9.9219-3.7957 19.534-14.072 21.604-23.348 1.741-5.2639 1.2812-11.673 5.8095-15.78 4.5987-1.9833 11.426 1.1752 10.106-5.139-1.1519-3.0557-5.3157-3.9534-8.4228-3.8632z" style="color:#000000;fill:none;stroke-width:.9375;stroke:#4f4c09;text-decoration-line:none;text-indent:0;text-transform:none"/><path d="m171.94 28.119c-13.261 0.42117-22.894 6.5038-29.72 14.817-1.8581 2.2628-3.3364 4.8806-4.8302 7.3661-5.0546 12.343-5.4061 27.775-8.8626 41.231-3.02 11.757-9.0673 21.813-14.093 29.523-1.5211 2.3658-4.0937 2.5838-6.4253 3.2181-3.5113 7.429-3.431 16.905-5.5449 24.953-0.57539 3.264-1.5518 6.5957-2.8489 9.8964 2.0741 3.9121 2.5775 3.7169 7.079 4.6156 69.358-6.4805 137.9-58.186 103.1-115.84-9.4815-12.117-20.371-19.14-34.403-19.746-1.1803-0.05093-2.3248-0.0667-3.4495-0.03097z" style="fill:#82af16;stroke-width:1.5896;stroke:#4b660f"/><path d="m110.74 123.13c-1.1483 0.31577-2.269-0.18557-3.4174 0.11416-4.415 7.5636-3.948 16.849-6.4701 24.907-0.64582 3.2461-1.8255 6.5904-3.4353 9.9302 0.74735 0.93844 1.917 1.9146 2.497 2.4208 2.488-4.4026 3.6916-9.1616 4.5459-13.454 2.4982-7.9776 2.0019-16.397 6.2799-23.919z" style="color:#000000;fill:#4b660f;stroke-width:.45723;text-decoration-line:none;text-indent:0;text-transform:none"/><path d="m177.82 28.33c8.859 2.9699 16.353 9.0203 23.137 17.688 34.261 56.768-31.634 107.76-99.868 115.51 1.1817 1.48 2.3425 1.5539 5.6034 2.205 69.358-6.4805 137.9-58.176 103.1-115.83-8.928-11.409-19.097-18.295-31.969-19.567z" style="fill:#729913;stroke-width:.45723"/><path d="m167.86 67.736a16.728 12.897 87.428 1 1-25.63 3.1688 16.728 12.897 87.428 1 1 25.63-3.1688z" style="fill:#fff;stroke-width:1.753;stroke:#4b660f"/><path d="m171.59 29.059c-12.318 0.65291-22.122 5.8505-28.726 13.537-2.1556 2.5091-3.2197 5.7943-4.9066 8.6001-4.5916 11.213-5.4307 27.526-8.9847 40.925-3.7769 14.239-10.233 25.365-13.967 29.823 20.479-28.196 17.06-42.931 28.631-71.448 6.0251-10.023 14.816-18.857 27.953-21.438z" style="fill:#9ad01a;stroke-width:.45723"/><path d="m171.94 28.119c-13.624 0.4327-23.11 5.87-29.977 14.521-1.6363 2.0616-3.2302 5.4264-4.5741 7.6616-4.708 11.497-5.2664 26.648-8.4536 39.314-3.2246 12.814-9.0818 23.124-14.502 31.44-1.5211 2.3658-4.0937 2.5838-6.4253 3.2181-3.5113 7.429-3.431 16.905-5.5449 24.953-0.5754 3.264-1.5518 6.5957-2.8489 9.8964 2.0741 3.912 2.5775 3.7169 7.079 4.6156 69.358-6.4805 137.9-58.186 103.1-115.84-9.4816-12.117-20.371-19.14-34.403-19.746-1.1803-0.05093-2.3248-0.0667-3.4495-0.03097z" style="fill:none;stroke-width:1.5896;stroke:#4b660f"/><g transform="matrix(.56064 -.069321 .061231 .66299 -318.76 -26.644)"><path transform="matrix(.15123 0 0 .12713 790.77 212.17)" d="m262.75 171.08a72.435 94.449 0 1 1-144.87 0 72.435 94.449 0 1 1 144.87 0z" style="fill:#7d7dc0;stroke-width:.95609;stroke:url(#a)"/><path transform="matrix(.10902 0 0 .10443 775.26 213.57)" d="m471.53 191.68a66.755 75.276 0 1 1-133.51 0 66.755 75.276 0 1 1 133.51 0z" style="stroke-width:1.2424;stroke:#000"/><path transform="matrix(.094478 0 0 .11871 776.64 211.78)" d="m470.11 149.07a58.941 48.289 0 1 1-117.88 0 58.941 48.289 0 1 1 117.88 0z" style="fill-opacity:.85385;fill:#fff;stroke-width:1.2517;stroke:#000"/><path transform="matrix(.19866 0 0 .21508 734.46 197.83)" d="m426.08 147.65a18.464 17.043 0 1 1-36.927 0 18.464 17.043 0 1 1 36.927 0z" style="fill-opacity:.90769;fill:#fff;stroke-width:0"/></g><path d="m215.68 76.393a11.413 15.856 4.2814 1 1-22.791-1.3062 11.413 15.856 4.2814 1 1 22.791 1.3062z" style="fill:#fff;stroke-width:1.6761;stroke:#4b660f"/><path d="m209.87 76.174a5.4532 7.0294 4.0194 0 1-10.887-0.65147 5.4532 7.0294 4.0194 1 1 10.887 0.65147z" style="fill:#7d7dc0;stroke-width:.45723"/><path d="m207.98 75.865a3.6231 4.602 4.0474 0 1-7.2332-0.43282 3.6231 4.602 4.0474 1 1 7.2332 0.43282z" style="stroke-width:.45723"/><path d="m205.25 73.6a2.7723 3.3562 4.1702 1 1-5.5348-0.33118 2.7723 3.3562 4.1702 1 1 5.5348 0.33118z" style="fill-opacity:.85385;fill:#fff;stroke-width:.45723"/><path d="m204.42 73.43a1.9225 2.1461 4.6239 1 1-3.8382-0.22967 1.9225 2.1461 4.6239 1 1 3.8382 0.22967z" style="fill:#e6e6e6;stroke-width:.45723"/><g transform="matrix(-.79971 .12139 .12693 .79734 1201.1 -183.43)"><path d="m1342.3 141.19s-26.38 45.719-60.384 34.367c-3.0958-1.0336-6.7513-2.8594-8.5606-5.9304" style="fill:none;stroke-linecap:round;stroke-linejoin:round;stroke-width:2.1639;stroke:#4b660f"/><path d="m1281 175.28c1.7297-0.95887 22.68 19.074 27.283 21.123 7.1717 3.1926 16.105 3.2854 21.151-11.022 4.003-14.389 1.3397-28.472 9.6925-39.886-9.6181 10.169-18.667 19.742-31.415 27.116-6.9597 2.1838-10.338 4.8316-26.711 2.6684z" style="fill:#4d0305;stroke-linecap:round;stroke-linejoin:round;stroke-width:2.1434;stroke:#4b660f"/><path d="m1330 180.81c-5.9187-0.33187-16.005 1.6981-18.891 16.368 5.8488 0.69428 10.234 2.0306 16.682-7.978 0.028-0.62042 2.1966-4.2853 2.8047-8.3412-0.2027-0.0173-0.3839-0.0364-0.5958-0.0488z" style="fill:#b10005"/><path d="m1278.3 164.55s-7.0724-0.16715-6.6414 10.846" style="fill:none;stroke-linecap:round;stroke-linejoin:round;stroke-width:2.1434;stroke:#4b660f"/><path d="m1331.3 145.31s9.0021-8.5944 18.526-3.1494" style="fill:none;stroke-linecap:round;stroke-linejoin:round;stroke-width:2.1434;stroke:#4b660f"/><path d="m1281 175.28c1.7297-0.95887 22.68 19.074 27.283 21.123 7.1717 3.1926 16.105 3.2854 21.151-11.022 4.003-14.389 1.3397-28.472 9.6925-39.886-9.6181 10.169-18.667 19.742-31.415 27.116-6.9597 2.1838-10.338 4.8316-26.711 2.6684z" style="fill:none;stroke-linecap:round;stroke-linejoin:round;stroke-width:2.1434;stroke:#4b660f"/></g><path d="m201.97 46.837c0.14927-0.79101-0.0965 2.0748-0.0469 1.7138 7.0618 1.1473 11.262 4.2278 17.586 10.763-5.2972-7.5922-8.9241-9.7845-17.54-12.477z" style="stroke-width:0"/><path d="m173.98 86.334a1.9906 2.1434 0.10587 1 0 3.9801-0.0993 1.9906 2.1434 0.10587 0 0-3.9801 0.0993z" style="fill:#4b660f;stroke-width:.45723"/><path d="m157.73 54.218c3.4123 2.412 5.8955 6.8236 6.3778 12.103 0.78312 8.5682-4.0152 16.18-10.728 17.01-1.4224 0.17591-2.816 0.0335-4.137-0.38281 2.1254 1.5015 4.6136 2.2299 7.1897 1.9115 6.7126-0.82992 11.511-8.4421 10.728-17.01-0.61705-6.7513-4.5187-12.082-9.4306-13.632z" style="fill:#e6e6e6;stroke-width:.45723"/><path d="m207.88 61.102c2.9904 3.0043 4.7471 7.8144 4.4054 13.114-0.45715 7.0901-4.5526 12.834-9.7561 14.41 0.49105 0.71502 1.0027 1.5166 1.4595 2.3717 5.8147-0.93502 10.573-7.0392 11.067-14.717 0.43695-6.777-2.574-12.753-7.1765-15.179z" style="fill:#e6e6e6;stroke-width:.45723"/><path d="m156.07 40.524c-0.28811-0.87314 0.41882 2.3462 0.30835 1.9442-7.8922 2.6452-12.229 6.9512-18.478 15.597 4.9189-9.6556 8.7334-12.841 18.17-17.541z" style="stroke-width:0"/><path d="m152.12 132.01c-0.53622 0.14029 1.4392-0.20881 1.1924-0.15468 1.5839 3.7291 4.2017 5.7658 9.4693 8.6895-5.892-2.289-7.8258-4.0831-10.662-8.5349z" style="fill:#4b660f;stroke-width:0"/><path d="m205.45 93.939s-9.1578-19.291-32.502-14.221" style="fill:#82af16;stroke-linecap:round;stroke-linejoin:round;stroke-width:1.7774;stroke:#4b660f"/><path d="m196.59 89.798a1.6024 1.5717 16.803 1 0 3.1956 0.19223 1.6024 1.5717 16.803 0 0-3.1956-0.19223z" style="fill:#4b660f;stroke-width:.45723"/></g></svg>
