<?xml version="1.0" encoding="UTF-8"?>
<svg width="244.52mm" height="181.8mm" version="1.1" viewBox="0 0 244.52 181.8" xmlns="http://www.w3.org/2000/svg"><defs><clipPath id="clipPath1274"><path d="m371.07 307.96h283.88v-58.459h-283.88z"/></clipPath><clipPath id="clipPath1290"><path d="m477.55 645.43h349.33v-322.13h-349.33z"/></clipPath><clipPath id="clipPath1306"><path d="m769.32 470.48h290.46v-234.22h-290.46z"/></clipPath><clipPath id="clipPath1338"><path d="m555.18 653.28h454.41v-443.78h-454.41z"/></clipPath><clipPath id="clipPath1370"><path d="m874.09 467.93h60.542v-35.105h-60.542z"/></clipPath><clipPath id="clipPath1386"><path d="m796.38 567.88h235.38v-124.08h-235.38z"/></clipPath><clipPath id="clipPath1446"><path d="m890.94 567.91h63.119v-24.993h-63.119z"/></clipPath><clipPath id="clipPath1522"><path d="m943.56 622.74h83.4v-73.529h-83.4z"/></clipPath><clipPath id="clipPath1538"><path d="m951.08 621.12h75.874v-71.904h-75.874z"/></clipPath><clipPath id="clipPath1574"><path d="m752.08 716.95h196.34v-126.58h-196.34z"/></clipPath><clipPath id="clipPath1590"><path d="m793.6 719.71h165.54v-114.34h-165.54z"/></clipPath></defs><g transform="translate(58.964 -51.28)"><g transform="matrix(.35278 0 0 -.35278 185.55 208.25)"><path d="m0 0c-0.232-6.403-4.454-11.979-10.451-14.248-65.694-24.842-91.626-9.573-129.08-11.296-36.841-12.744-81.427-17.688-131.26-15.946-9.029-5.915-23.126-11.629-43.952-17.343-59.83-12.468-93.081-19.022-176.06 2.506-26.734 9.192-31.221 23.809 6.667 21.435 14.46 0.67 24.203 4.31 32.856 8.639 1.554 1.561 3.621 4.606 6.19 8.371-37.179 0.796-33.075 18.508-62.003 16.898-40.726-5.012-45.945-36.34-101.71-23.182-180.14 76.019-21.302 50.963 16.498 82.498 99.621 91.162 85.837 124.56 251.11 155.22 5.914 7.568 13.508 14.611 24.229 21.434 6.171 71.1 27.737 139.56 141.81 144.56 115.17 5.42 114.25-45.6 133.99-121.44 5.338-4.286 15.444-20.469 14.554-47.523 0.032-8.146-3.765-14.85-9.968-20.006 8.959-45.857 8.07-84.102-1.078-115.45 14.198-29.009 38.345-56.377 37.662-75.123" style="fill:#c49a6b"/></g><g transform="matrix(.35278 0 0 -.35278 -189.22 305.93)"><g clip-path="url(#clipPath1274)" style="opacity:.14999"><g transform="translate(617.25 258.99)"><path d="m0 0c-0.033-0.049-0.064-0.094-0.097-0.142 3.085 1.888 5.776 4.28 8.251 7.09 3.543 4.023 6.275 8.715 10.041 12.55 3.292 3.353 7.333 5.554 11.499 7.63 1.763 0.879 3.633 1.681 5.457 2.561 0.02 0.019 0.036 0.039 0.064 0.054 1.491 0.824 2.883 2.075 2.383 3.931-0.456 1.693-1.979 3.059-3.274 4.138-1.849 1.54-3.923 2.815-6.022 3.98-3.249 1.805-6.654 3.412-10.193 4.559-15.106 4.895-31.562 2.076-46.65-1.484-7.485-1.766-14.942-3.701-22.175-6.334-8.151-2.968-16.051-6.565-24.024-9.975-3.676-1.571-7.369-3.107-11.108-4.523-3.985-1.508-8.087-3.106-12.262-3.99-7.319-1.55-14.501-3.857-21.978-4.571-3.7-0.354-7.312-0.201-10.933 0.639-3.636 0.844-7.197 1.892-10.762 2.993-3.615 1.115-7.243 2.204-10.958 2.938-3.174 0.627-6.371 0.792-9.57 1.189-8.121 1.007-16.08 3.229-23.95 5.399-9.176 2.531-18.317 5.215-27.605 7.312-8.502 1.92-17.299 3.521-26.051 3.104-2.088-0.099-4.199-0.342-6.264-0.77 6.356-8.889 30.067-22.448 82.47-44.562 55.763-13.158 60.982 18.17 101.71 23.182 28.927 1.61 24.824-16.102 62.003-16.898" style="fill:#432918"/></g></g></g><g transform="matrix(.35278 0 0 -.35278 -189.22 305.93)"><g clip-path="url(#clipPath1290)" style="opacity:.2"><g transform="translate(477.55 323.3)"><path d="m0 0c107.14 64.221 161.34 108.45 208.11 118.87 9.635 0.956 19.675 2.195 28.317 6.878 4.461 2.417 7.708 5.786 11.213 9.361 2.94 2.999 21.275 3.416 26.449 5.099 3.851 1.252 6.546 5.006 8.531 8.318 0.581 34.014 29.402 128.86 61.555 169.01 1.679 1.573 3.4 3.105 5.152 4.601-62.126-22.881-76.626-77.397-81.502-133.57-10.72-6.824-18.314-13.866-24.228-21.435-122.92-22.8-189.44-99.351-189.44-99.351s-50.883-51.079-54.153-67.774" style="fill:#fff"/></g></g></g><g transform="matrix(.35278 0 0 -.35278 -189.22 305.93)"><g clip-path="url(#clipPath1306)" style="opacity:.2"><g transform="translate(1057.3 273.23)"><path d="m0 0c-3.365 5.747-6.576 11.52-11.746 15.88-13.054 11.011-31.056 12.983-45.992 20.389-0.141 0.069-0.208 0.298-0.113 0.428 3.687 5.028 6.971 10.321 9.823 15.865 2.389 4.646 4.492 9.431 6.542 14.235 1.429 3.347 2.759 6.687 4.469 9.872-0.071 1.861 0.012 3.763 0.255 5.719 0.99 7.962 3.68 15.591 4.633 23.55 0.884 7.375 1.277 14.8 1.608 22.221-0.304 3.443-0.623 6.879-0.926 10.296-1.614 18.202-4.29 36.277-9.028 53.892-4.465-2.327-9.132-4.256-13.994-5.612-9.555-2.666-19.588-2.945-29.302-0.976-11.635 2.357-22.471 7.736-34.22 9.616-6.297 1.007-12.684 0.795-18.898-0.65-6.176-1.436-12.116-4.202-17.839-6.871-11.104-5.178-22.041-11.024-34.183-13.383-9.071-1.762-18.416-2.801-27.663-2.425-8.643 0.351-17.447 2.029-25.041 6.336-7.231 4.1-12.56 10.426-15.941 17.899-0.031 0.031-0.057 0.071-0.074 0.12-0.019 0.052-0.036 0.108-0.053 0.161-0.013 0.028-0.023 0.056-0.036 0.084-0.727 0.201-1.454 0.4-2.181 0.604 0.135-4.122 0.306-8.243 0.526-12.361 1.111-20.833 2.985-41.618 4.185-62.446 0.485-8.431 1.579-16.947 4.24-24.991 1.373-4.151 3.212-8.107 5.644-11.744 2.169-3.243 5.052-6.391 8.881-7.597 6.813-2.146 13.1 3.018 16.924 8.135 4.06 5.433 6.486 11.931 8.042 18.484 2.772 11.678 2.82 23.973 6.586 35.42 1.644 4.997 4.148 9.768 8.031 13.39 4.756 4.437 10.553 6.057 16.695 7.632 17.756 4.553 34.147 13.446 52.149 17.152 7.894 1.626 15.985 2.072 23.962 0.78 4.214-0.683 8.824-1.957 11.525-5.522 2.548-3.365 2.957-7.916 3.232-11.983 0.546-8.083 0.701-16.22 0.91-24.317 0.133-5.155 0.238-10.312 0.375-15.468 0.126-4.751 0.44-9.511 0.488-14.261 0.058-5.706 0.081-11.66 1.997-17.108 0.863-2.453 2.38-5.305 5.066-6.106 2.75-0.82 5.796 1.121 7.911 2.667 4.966 3.63 12.847 11.032 12.532 9.852-17.388-52.217-103.26-77.905-227.94-62.123 39.89-46.483 35.086-52.265 24.834-67.903 1.89-0.891 3.72-2.673 4.739-3.773 0.339-0.366 89.148 3.012 123.92 15.041 37.455 1.723 63.387-13.546 129.08 11.296 3.283 1.242 6.028 3.48 7.884 6.298-0.904 1.479-1.734 2.96-2.522 4.306" style="fill:#432918"/></g></g></g><g transform="matrix(.35278 0 0 -.35278 112.11 150.11)"><path d="m0 0c-0.117 0.228-2.562 1.811-4.394 2.001-5.42 0.562-31.15 4.496-31.504 4.006-0.788-1.092-2.105-9.553-1.916-11.574 6.033-18.963-1.828-89.585 14-88.628 18.166 2.844 23.577 64.325 24.335 74.989 0.342 2.035 1.536 15.227-0.521 19.206" style="fill:#c4b697"/></g><g transform="matrix(.35278 0 0 -.35278 168.84 143.33)"><path d="m0 0c-11.179-1.866-16.541-5.355-38.327-3.493-0.788-1.092-0.852-5.793-0.663-7.815 6.032-18.962-1.829-90.837 13.999-89.881 18.166 2.844 23.577 65.578 24.336 76.242 0.342 2.035 2.487 24.757 0.655 24.947" style="fill:#c4b697"/></g><g transform="matrix(.35278 0 0 -.35278 112.11 150.11)"><path d="m0 0c-0.117 0.228-2.562 1.811-4.394 2.001-2.874 0.298-11.457 1.544-18.94 2.576 1.256-6.34 2.485-12.684 3.512-19.065 2.077-12.901 2.901-25.957 2.843-39.018-0.057-12.896-0.955-25.746-2.242-38.564 14.505 11.379 19.052 63.158 19.742 72.864 0.342 2.035 1.536 15.227-0.521 19.206" style="fill:#d8cd9e"/></g><g transform="matrix(.35278 0 0 -.35278 168.84 143.33)"><path d="m0 0c-7.809-1.304-12.786-3.396-22.498-3.907 0.31-2.427 0.558-4.849 0.768-7.242 1.011-11.519 1.229-23.188 1.446-34.744 0.248-13.216 0.043-26.445-0.773-39.64-0.303-4.904-0.688-9.81-1.163-14.712 15.952 8.391 20.846 65.197 21.565 75.299 0.342 2.034 2.488 24.756 0.655 24.946" style="fill:#d8cd9e"/></g><g transform="matrix(.35278 0 0 -.35278 -189.22 305.93)"><g clip-path="url(#clipPath1338)" style="opacity:.14999"><g transform="translate(1009.4 545.21)"><path d="m0 0c-0.08 0.902-0.184 1.8-0.306 2.696-0.154 14.893-3.698 29.97-7.785 44.205-3.542 12.336-8.181 24.557-16.405 34.593-15.457 18.865-41.91 23.711-65.884 24.325-5.03 0.905-10.124 1.484-15.245 1.846-11.318 0.8-22.699 0.409-33.926-1.235-10.641-1.558-22.065-4.454-31.356-9.979-0.113-0.067-0.262-0.193-0.392-0.342-0.691-0.277-1.38-0.579-2.068-0.912-0.843-0.408-0.515-1.066 0.263-1.27 6.389-1.671 12.454-2.131 19.026-2.529 6.196-0.377 12.367-1.204 18.467-2.346 12.425-2.325 24.498-5.639 36.153-10.58 22.067-9.355 43.742-24.212 56.667-44.811 3.792-6.042 6.426-12.409 9.11-18.981 1.276-3.126 2.455-6.259 3.441-9.491 0.215-0.705 0.399-1.43 0.587-2.155 6e-3 -0.428 0.025-0.857 0.071-1.286 0.314-2.955 1.377-6.032 2.413-8.802 0.995-2.658 2.041-5.138 4.563-6.697 2.265-1.4 5.073-1.846 7.752-1.626 0.957-2.438 6.169-2.75 8.155-1.991 3.021 1.156 5.605 3.208 6.322 6.481 0.771 3.521 0.694 7.319 0.377 10.887" style="fill:#fff"/></g><g transform="translate(793.68 268.09)"><path d="m0 0c-2.713 6.69-7.34 12.61-11.313 18.573-4.1 6.151-8.387 12.195-12.268 18.488-2.024 3.284-3.953 6.644-5.715 10.077-1.241 2.42-11.741 18.885-13.71 26.668-1.454-11.919-1.993-14.025-2.473-18.391-0.542-4.927-3.878-26.516-4.933-30.519-2.465-9.356-5.187-18.64-8.352-27.787-2.862-8.272-5.999-16.794-11.408-23.781-0.125-0.162-0.253-0.319-0.38-0.478-8.677-5.325-18.434-9.028-28.182-11.514-16.339-4.168-33.301-5.731-50.133-5.054-9.614 0.387-19.167 1.657-28.588 3.6-4.082 0.842-8.112 1.847-12.057 3.197-4.593 1.573-8.829 4.031-13.45 5.441-1.232 0.375-2.592 0.588-3.934 0.544-2.359 0.879-4.852 1.445-7.032 1.859-6.569 1.252-13.308 1.398-19.895 0.249-2.192-0.383-5.608-2.152-4.445-4.941 3.26-7.815 15.357-8.601 22.413-10.303 10.248-2.471 20.488-4.982 30.749-7.401 19.704-4.647 39.493-7.601 59.79-7.058 20 0.535 39.862 3.714 59.248 8.571 9.74 2.44 19.388 5.236 28.936 8.342 8.88 2.888 18.065 5.66 26.545 9.608 7.753 3.61 15.456 9.154 16.468 18.292 0.631 5.698-1.731 10.818-5.881 13.718" style="fill:#fff"/></g></g></g><g transform="matrix(.35278 0 0 -.35278 155.12 143.06)"><path d="m0 0c0-17.833-26.185-32.29-58.487-32.29-32.301 0-58.486 14.457-58.486 32.29s26.185 32.29 58.486 32.29c32.302 0 58.487-14.457 58.487-32.29" style="fill:#68564c"/></g><g transform="matrix(.35278 0 0 -.35278 153.24 142.18)"><path d="m0 0c0-16.208-23.799-29.347-53.157-29.347-29.357 0-53.156 13.139-53.156 29.347s23.799 29.347 53.156 29.347c29.358 0 53.157-13.139 53.157-29.347" style="fill:#776a5c"/></g><g transform="matrix(.35278 0 0 -.35278 173.49 124.98)"><path d="m0 0c-3.416 8.716-4.523 34.799-68.638 53.146-8.353-0.814-68.82 0.845-77.049 0.016-14.43-1.452-28.379-8.804-40.828-15.859-10.869-6.161-22.721-13.308-30.113-23.528-24.421-18.783-16.562-59.425 3.982-75.93 48.036-16.287 68.625 0.755 73.31 3.101 47.625 26.953 60.713 8.281 78.452 6.528 18.067-5.086 39.486-4.923 54.149 8.364 12.257 11.106 12.387 29.742 6.735 44.162" style="fill:#91816e"/></g><g transform="matrix(.35278 0 0 -.35278 -189.22 305.93)"><g clip-path="url(#clipPath1370)" style="opacity:.14999"><g transform="translate(919.21 467.93)"><path d="m0 0c-1.813-0.777-3.615-1.581-5.403-2.421-12.861-6.043-25.666-12.42-39.113-17.069-1.155-1.86-0.657-4.083 1.428-5.222 7.961-4.348 16.415-7.49 25.32-9.261 8.95-1.779 17.554-0.943 26.546-0.892 2.287 0.013 5.37 0.712 6.639 2.818-7.016 5.848-12.333 16.305-15.417 32.047" style="fill:#432918"/></g></g></g><g transform="matrix(.35278 0 0 -.35278 -189.22 305.93)"><g clip-path="url(#clipPath1386)" style="opacity:.19"><g transform="translate(1028.3 512.64)"><path d="m0 0c-2.154-5.467-5.406-10.523-9.88-14.81-4.488-4.301-9.908-7.653-15.832-9.563-6.972-2.248-14.425-2.518-21.666-1.752-12.472 1.319-28.09 7.541-40.342 9.984 0.216 1.63 0.112 38.836-1.364 41.235 2.066 1.207 18.056 19.115 22.944 26.87 0.94 1.493-1.323 2.761-2.374 3.052-1.752 0.485-3.753 0.186-5.119-1.058-6.03-5.493-11.944-11.17-18.105-16.513-1.17-1.015-2.437-2.275-3.806-3.348-0.128 0.147-0.251 0.299-0.364 0.463-0.367 0.535-1.763 0.4-1.838-0.314-0.077-0.741-0.411-1.355-0.786-1.953-0.297-0.118-0.598-0.221-0.903-0.297-3.271-0.818-7.154 0.746-10.214 1.78-6.723 2.271-13.152 5.246-19.187 8.981-3.013 1.864-6.057 3.695-8.972 5.712-1.649 1.14-3.226 2.335-4.989 3.302-1.141 0.625-2.909 0.793-3.544 1.066-0.702 0.301-2.493 0.051-2.157-1.047-0.347-0.567-0.416-1.143-0.205-1.725 0.16-0.25 0.32-0.5 0.48-0.751 0.404-0.734 0.938-1.43 1.484-2.065 1.275-1.484 2.848-2.814 4.306-4.111 3.056-2.721 6.306-5.057 9.81-7.167 7.397-4.454 15.459-11.237 23.845-13.355 2.721-0.687 5.529-0.466 8.325-0.428 2.428-18.523 3.343-30.195 1.734-38.507-6.452 0.093-12.879-0.756-19.045-2.807-6.753-2.246-13.162-5.452-19.541-8.574-11.903-5.827-24.231-11.631-37.779-11.527-5.815 0.044-11.775 0.922-16.968 3.662-4.439 2.342-8.127 5.899-10.858 10.09-5.741 8.807-7.435 20.007-6.19 30.315 1.122 9.29 4.979 17.857 10.329 25.416-6.852-4.527-13.296-9.752-17.962-16.203-24.421-18.782-16.562-59.426 3.982-75.93 48.036-16.287 68.625 0.755 73.31 3.101 47.625 26.953 60.713 8.281 78.452 6.528 18.067-5.086 39.486-4.924 54.149 8.364 12.179 11.035 12.383 29.503 6.84 43.884" style="fill:#432918"/></g></g></g><g transform="matrix(.35278 0 0 -.35278 110.89 110.44)"><path d="m0 0c5.157 2.922 10.783 6.38 16.723 7.975 2.293 4.327 3.596 9.258 3.596 14.495 0 17.129-13.885 31.014-31.014 31.014-17.128 0-31.014-13.885-31.014-31.014 0-15.62 11.549-28.537 26.573-30.692 4.927 2.941 10.174 5.411 15.136 8.222" style="fill:#262647"/></g><g transform="matrix(.35278 0 0 -.35278 115.61 102.51)"><path d="m0 0c0-13.303-10.784-24.087-24.087-24.087s-24.087 10.784-24.087 24.087 10.784 24.087 24.087 24.087 24.087-10.784 24.087-24.087" style="fill:#120e16"/></g><g transform="matrix(.35278 0 0 -.35278 106.14 98.564)"><path d="m0 0c0-6.906 5.599-12.505 12.505-12.505 6.907 0 12.505 5.599 12.505 12.505s-5.598 12.505-12.505 12.505c-6.906 0-12.505-5.599-12.505-12.505" style="fill:#fff"/></g><g transform="matrix(.35278 0 0 -.35278 111.2 103.63)"><path d="m0 0c0-4.96-4.021-8.981-8.98-8.981-4.96 0-8.981 4.021-8.981 8.981s4.021 8.981 8.981 8.981c4.959 0 8.98-4.021 8.98-8.981" style="fill:#fff"/></g><g transform="matrix(.35278 0 0 -.35278 100.62 104.93)"><path d="m0 0c0-1.565-1.269-2.834-2.834-2.834-1.566 0-2.835 1.269-2.835 2.834 0 1.566 1.269 2.835 2.835 2.835 1.565 0 2.834-1.269 2.834-2.835" style="fill:#fff"/></g><g transform="matrix(.35278 0 0 -.35278 145.44 103.32)"><path d="m0 0c2.672-0.513 3.386-2.613 5.425-4.142 3.677-2.757 8.577-3.677 12.884-4.996 8.252-2.528 16.05-5.335 23.342-9.572 7.283 5.196 12.037 13.71 12.037 23.339 0 15.828-12.831 28.659-28.659 28.659-15.827 0-28.659-12.831-28.659-28.659 0-1.398 0.105-2.771 0.299-4.116 1.122-0.129 2.24-0.303 3.331-0.513" style="fill:#262647"/></g><g transform="matrix(.35278 0 0 -.35278 147.35 104.78)"><path d="m0 0c3.677-2.757 8.576-3.677 12.884-4.997 5.791-1.774 11.358-3.688 16.684-6.134 7.288 3.656 12.294 11.192 12.294 19.902 0 12.292-9.966 22.258-22.258 22.258-12.293 0-22.258-9.966-22.258-22.258 0-2.648 0.465-5.186 1.313-7.542 0.398-0.423 0.827-0.844 1.341-1.229" style="fill:#120e16"/></g><g transform="matrix(.35278 0 0 -.35278 153.37 98.033)"><path d="m0 0c0-6.382 5.174-11.556 11.556-11.556 6.381 0 11.555 5.174 11.555 11.556s-5.174 11.556-11.555 11.556c-6.382 0-11.556-5.174-11.556-11.556" style="fill:#fff"/></g><g transform="matrix(.35278 0 0 -.35278 158.05 102.71)"><path d="m0 0c0-4.583-3.715-8.299-8.298-8.299-4.584 0-8.299 3.716-8.299 8.299s3.715 8.298 8.299 8.298c4.583 0 8.298-3.715 8.298-8.298" style="fill:#fff"/></g><g transform="matrix(.35278 0 0 -.35278 147.35 104.78)"><path d="m0 0c0.07-0.053 0.143-0.1 0.214-0.151 1.328 0.127 2.371 1.232 2.371 2.594 0 1.446-1.173 2.619-2.62 2.619-1.389 0-2.514-1.085-2.602-2.452 0.834-0.814 1.547-1.793 2.637-2.61" style="fill:#fff"/></g><g transform="matrix(.35278 0 0 -.35278 148.67 104.85)"><path d="m0 0c-0.977 2.432-4.016 3.724-6.276 4.607-6.197 2.422-13.3 2.934-19.89 3.028-5.217 0.074-10.246-0.314-15.259-1.23-7.07-0.598-14.238-1.349-21.032-3.454-3.936-1.219-11.405-6.078-6.952-10.612 1.493-2.201 5.316-3.838 7.084-4.949 4.268-2.683 8.65-5.189 13.126-7.508 2.988-1.548 7.03-3.998 11.052-5.155 3.06-1.373 6.267-2.179 9.651-1.604 6.446 1.096 11.478 7.284 16.167 11.415 2.188 1.928 5.79 4.377 7.772 7.254 0.805 0.601 1.575 1.227 2.291 1.872 1.717 1.547 3.224 3.955 2.266 6.336" style="fill:#ffa4c2"/></g><g transform="matrix(.35278 0 0 -.35278 -189.22 305.93)"><g clip-path="url(#clipPath1446)" style="opacity:.39999"><g transform="translate(890.99 560.03)"><path d="m0 0c-0.017-7e-3 -0.029-0.012-0.045-0.018 1.616-1.084 3.463-1.965 4.546-2.645 4.268-2.683 8.649-5.189 13.126-7.508 2.988-1.548 7.029-3.998 11.052-5.155 3.059-1.373 6.267-2.179 9.65-1.604 6.447 1.096 11.478 7.284 16.168 11.415 2.188 1.928 8.31 7.671 8.576 7.882-6.909 8.308-58.678 6.976-63.073-2.367" style="fill:#e0659d"/></g></g></g><g transform="matrix(.35278 0 0 -.35278 118.05 114.03)"><path d="m0 0c0-2.422-1.963-4.386-4.386-4.386-2.422 0-4.385 1.964-4.385 4.386s1.963 4.386 4.385 4.386c2.423 0 4.386-1.964 4.386-4.386" style="fill:#5e4a45"/></g><g transform="matrix(.35278 0 0 -.35278 124.57 120.79)"><path d="m0 0c0-2.038-1.651-3.689-3.689-3.689-2.037 0-3.689 1.651-3.689 3.689 0 2.037 1.652 3.689 3.689 3.689 2.038 0 3.689-1.652 3.689-3.689" style="fill:#5e4a45"/></g><g transform="matrix(.35278 0 0 -.35278 108.03 118.73)"><path d="m0 0c0-1.485-1.204-2.689-2.69-2.689-1.485 0-2.689 1.204-2.689 2.689s1.204 2.689 2.689 2.689c1.486 0 2.69-1.204 2.69-2.689" style="fill:#5e4a45"/></g><g transform="matrix(.35278 0 0 -.35278 108.02 126.56)"><path d="m0 0c0-1.862-1.509-3.371-3.371-3.371-1.861 0-3.371 1.509-3.371 3.371s1.51 3.371 3.371 3.371c1.862 0 3.371-1.509 3.371-3.371" style="fill:#5e4a45"/></g><g transform="matrix(.35278 0 0 -.35278 117.06 124.32)"><path d="m0 0c0-1.647-1.336-2.983-2.983-2.983s-2.982 1.336-2.982 2.983 1.335 2.983 2.982 2.983 2.983-1.336 2.983-2.983" style="fill:#5e4a45"/></g><g transform="matrix(.35278 0 0 -.35278 152.8 113.59)"><path d="m0 0c0-2.422 1.964-4.386 4.386-4.386s4.386 1.964 4.386 4.386-1.964 4.386-4.386 4.386-4.386-1.964-4.386-4.386" style="fill:#5e4a45"/></g><g transform="matrix(.35278 0 0 -.35278 146.28 120.35)"><path d="m0 0c0-2.037 1.651-3.689 3.689-3.689 2.037 0 3.689 1.652 3.689 3.689 0 2.038-1.652 3.689-3.689 3.689-2.038 0-3.689-1.651-3.689-3.689" style="fill:#5e4a45"/></g><g transform="matrix(.35278 0 0 -.35278 162.82 118.29)"><path d="m0 0c0-1.485 1.204-2.689 2.689-2.689s2.689 1.204 2.689 2.689-1.204 2.689-2.689 2.689-2.689-1.204-2.689-2.689" style="fill:#5e4a45"/></g><g transform="matrix(.35278 0 0 -.35278 162.83 126.12)"><path d="m0 0c0-1.862 1.509-3.371 3.371-3.371 1.861 0 3.371 1.509 3.371 3.371s-1.51 3.371-3.371 3.371c-1.862 0-3.371-1.509-3.371-3.371" style="fill:#5e4a45"/></g><g transform="matrix(.35278 0 0 -.35278 153.79 123.88)"><path d="m0 0c0-1.647 1.336-2.983 2.983-2.983s2.983 1.336 2.983 2.983-1.336 2.983-2.983 2.983-2.983-1.336-2.983-2.983" style="fill:#5e4a45"/></g><g transform="matrix(.35278 0 0 -.35278 182.92 208.66)"><path d="m0 0c-1.735-4.361-5.476-7.619-9.95-9.047-51.734-16.504-64.547-10.77-99.132-5.865 34.761 16.892 60.512 42.524 74.44 78.162 15.081-30.074 41.277-46.552 34.642-63.25m-252.63-30.099c21.193 25.604-37.312 58.785-51.579 96.292 9.01-46.427 63.997-75.786 42.857-96.292h-0.15l-0.301-0.432c-7.156-6.579-22.224-12.544-49.247-18.365-76.364-20.456-142.11-10.601-169.8 0-18.483 3.653-29.134 13.264 5.639 10.652 14.862 0.313 24.824 3.809 34.46 7.518 12.895 8.033 9.624 29.034 44.799 44.485 7.675 3.152-0.671 25.012-5.307 38.32-0.677 1.942-4.524 0.532-3.885-1.109 3.352-8.64 6.666-21.146 5.821-28.671-5.301 5.138-12.957 8.659-22.907 10.607-0.789 0.151-1.579-0.288-1.88-1.033-0.357-0.896 0.113-1.918 1.028-2.218 10.72-3.584 18.79-7.663 21.547-12.732-0.301-0.263-0.626-0.488-0.996-0.658-12.418-3.746-22.305-15.081-29.611-25.099-44.077-5.602-35.118 19.793-68.964 16.221-45.324-6.578-38.846-34.936-96.075-21.403-154.02 59.729-21.302 32.267 19.843 61.609 104.1 116.14 129.26 133 235.24 154.33-2.456-4.473-4.656-9.154-6.817-14.104-0.389-0.889-0.094-1.929 0.708-2.481 0.996-0.676 2.355-0.344 2.926 0.715 14.016 20.663 23.22 27.674 34.547 33.013-0.425-7.187-0.758-14.349-1.071-21.429-0.081-1.835 1.385-3.371 3.227-3.371 1.66 0 3.039 1.26 3.208 2.914 6.616 64.547-8.508 160.53 138.24 175.55 108.66 3.64 111.12-47.48 119.36-97.804-11.535 8.54-27.85 14.793-46.402 18.433l0.018 6e-3c0 14.875-78.663 14.405-78.606 0-20.037-3.834-38.984-10.751-54.316-21.102-15.331-10.35-27.042-24.141-32.599-41.715-5.72-28.251 2.412-46.979 17.957-56.941 8.54-55.75-0.132-105.12 17.712-104.29 16.36 1.642 23.201 41.334 27.017 96.357 16.578 1.986 34.498 8.208 51.371 18.408 12.205 7.374 27.349 8.414 40.268 2.362 7.117-3.333 15.181-5.47 23.452-6.46 8.026-54.723-0.219-99.339 17.412-98.525 15.5 1.555 22.455 42.186 26.384 93.4 37.63-193.4-122.82-204.68-214.53-204.96m117.76 299.62-30.475 19.329c-1.917 14.849 64.967 13.164 65.23 1.429l0.295 0.156c0-0.05-7e-3 -0.1-7e-3 -0.156h-0.288l-21.798-19.661c-3.584-3.228-8.884-3.678-12.957-1.097m-67.729-104.36c-0.715-14.905-4.931-86.15-20.651-88.951-11.466-4.868-7.532 44.554-13.239 94.515 9.561-4.543 21.233-6.353 33.89-5.564m-49.629 68.206c14.216 29.21 45.644 46.546 79.985 54.09 3.79-1.93 26.415-15.77 37.975-22.869 1.178-0.721 2.45-1.184 3.753-1.416 4.386-17.7 4.223-44.88 3.001-65.342-6.491-0.684-12.863-2.826-18.596-6.366-74.559-46.039-124.04-9.524-106.12 41.903m209.17-49.378c-0.627-14.542-4.749-92.798-20.682-95.637-11.498-4.886-7.507 41.202-13.283 91.182 11.929-0.789 23.971 0.752 33.965 4.455m18.107 30.732c-4.129-33.665-45.563-38.852-78.218-21.553-6.454 3.421-13.546 5.018-20.62 4.887 2.099 22.812 3.433 45.042-1.403 65.518 1.328 0.451 2.587 1.165 3.684 2.143l25.87 22.975c23.89-4.736 43-14.485 50.512-28.282 11.422-17.806 21.303-17.13 20.175-45.688m-5.263-138.43c9.148 31.347 10.037 69.591 1.078 115.45 6.202 5.157 9.999 11.861 9.968 20.006 0.89 27.054-9.216 43.238-14.555 47.524-19.736 75.843-18.815 126.86-133.99 121.44-114.07-5-135.64-73.457-141.81-144.56-10.72-6.823-18.314-13.865-24.228-21.434-165.28-30.657-151.49-64.058-251.12-155.22-37.799-31.534-196.64-6.478-16.497-82.498 55.763-13.157 60.982 18.17 101.71 23.183 28.927 1.61 24.824-16.103 62.003-16.898-2.569-3.766-4.636-6.811-6.19-8.371-8.653-4.33-18.396-7.97-32.856-8.64-37.888 2.375-33.402-12.243-6.667-21.434 82.98-21.528 116.23-14.974 176.06-2.507 20.827 5.715 34.924 11.429 43.952 17.344 49.836-1.742 94.422 3.201 131.26 15.945 37.455 1.723 63.387-13.546 129.08 11.297 5.996 2.268 10.219 7.844 10.451 14.248 0.683 18.746-23.465 46.113-37.662 75.122" style="fill:#54433b"/></g><g transform="matrix(.35278 0 0 -.35278 167.73 143.76)"><path d="m0 0c-0.627-14.542-4.749-92.798-20.682-95.636-11.498-4.887-7.507 41.202-13.283 91.182 0.802-0.054-5.442 0.517-4.881 0.45 8.026-54.722-0.219-99.339 17.412-98.524 15.5 1.554 22.455 42.185 26.384 93.4-1.08 5.198-3.378 7.86-4.95 9.128" style="fill:#7f693c"/></g><g transform="matrix(.35278 0 0 -.35278 111.45 150.4)"><path d="m0 0c-0.714-14.906-4.931-86.151-20.651-88.951-11.466-4.869-7.531 44.554-13.239 94.514 0.526-0.249-6.256 3.539-5.232 2.883 8.54-55.751-0.131-105.12 17.713-104.29 16.359 1.641 23.201 41.333 27.016 96.357 0.998 0.119-5.815-0.527-5.607-0.514" style="fill:#7f693c"/></g><g transform="matrix(.35278 0 0 -.35278 147.6 106.26)"><path d="m0 0-21.798-19.661c-3.584-3.227-8.884-3.678-12.957-1.096l-30.475 19.328c-1.917 14.85 64.967 13.164 65.23 1.429m5.94 3.082 0.018 7e-3c0 14.874-78.663 14.404-78.606 0 0-2.274 0-3.84 0.52-5.909 3.79-1.929 26.415-15.77 37.975-22.869 1.178-0.72 2.45-1.184 3.753-1.416 2.344-0.326 3.746-0.297 5.326 0.401 1.328 0.451 2.587 1.165 3.684 2.143l25.87 22.976c1.15 1.493 1.164 2.592 1.46 4.667" style="fill:#e0659d"/></g><g transform="matrix(.35278 0 0 -.35278 174.37 115.61)"><path d="m0 0c-0.291 0.194-0.64 0.308-1.014 0.308-0.381 0-0.735-0.117-1.03-0.317-0.61 0.417-0.913 1.232-0.913 2.166v3.476c0 1.06 0.392 1.968 1.18 2.314 0.233-0.107 0.49-0.171 0.763-0.171 0.277 0 0.537 0.066 0.774 0.177 0.328-0.125 0.625-0.322 0.867-0.579 0.43-0.447 0.275-1.063 0.275-1.741v-3.476c0-0.927-0.3-1.737-0.902-2.157m-2.957 19.494v3.476c0 0.92 0.295 1.725 0.886 2.15 0.298-0.206 0.656-0.327 1.043-0.327 0.405 0 0.778 0.137 1.083 0.361 0.211-0.117 0.405-0.266 0.572-0.443 0.43-0.446 0.275-1.063 0.275-1.741v-3.476c0-0.927-0.3-1.737-0.902-2.157-0.291 0.194-0.64 0.308-1.014 0.308-0.381 0-0.735-0.117-1.03-0.317-0.61 0.418-0.913 1.233-0.913 2.166m3.787-25.94v4.03c1.157 0.689 1.943 1.993 1.943 3.484v5.658c0 1.098-0.429 2.099-1.121 2.825-0.243 0.256-0.521 0.475-0.822 0.655v4.715c1.157 0.689 1.943 1.994 1.943 3.484v5.659c0 1.097-0.429 2.099-1.121 2.824-0.247 0.26-0.53 0.483-0.837 0.664v4.36c1.603 0.965 2.678 2.717 2.678 4.723 0 3.042-2.465 5.513-5.508 5.513-1.941 0-1.294-2.28 0-2.28 2.102 0 3.233-1.126 3.233-3.233 0-1.127-0.333-1.963-0.954-2.506-0.334 0.328-0.79 0.533-1.292 0.533-0.971 0-1.764-0.763-1.831-1.717-0.354-0.461-0.43-1.154-0.013-1.54v-3.835c-1.181-0.683-1.985-2.001-1.985-3.506v-5.659c0-1.514 0.811-2.838 1.999-3.519v-4.645c-1.188-0.68-1.999-2.003-1.999-3.515v-5.658c0-1.514 0.811-2.839 1.999-3.52v-3.994c-1.173-0.685-1.971-1.998-1.971-3.497l1.9-3.178v2.085c0 0.801 0.225 1.514 0.674 1.966 0.329-0.302 0.762-0.491 1.241-0.491 0.519 0 0.988 0.219 1.324 0.567 0.124-0.089 0.24-0.19 0.345-0.302 0.429-0.446 0.275-1.063 0.275-1.74v-3.477c0-0.926-0.3-1.736-0.902-2.156-0.291 0.193-0.64 0.308-1.014 0.308-0.112 0-0.222-0.011-0.328-0.03 0.785-1.736 2.172-5.39 2.172-5.39v2.695c1.156 0.69 1.943 1.994 1.943 3.484v5.659c0 1.097-0.429 2.099-1.121 2.825-0.251 0.263-0.538 0.49-0.85 0.672" style="fill:#2d2825"/></g><g transform="matrix(.35278 0 0 -.35278 -189.22 305.93)"><g clip-path="url(#clipPath1522)" style="opacity:.25"><g transform="translate(944.55 578.18)"><path d="m0 0c-5.823 16.456 14.311 53.692 53.28 42.507 33.339-14.649 39.618-54.359 10.691-71.469-11.295 9.217-27.386 15.566-47.786 19.855-0.827 4.918-7.182 7.558-16.185 9.107" style="fill:#b6ecff"/></g></g></g><g transform="matrix(.35278 0 0 -.35278 -189.22 305.93)"><g clip-path="url(#clipPath1538)" style="opacity:.25"><g transform="translate(1026.8 583.83)"><path d="m0 0c-0.85-0.808-24.907-25.493-27.49-28.303 3.365-1.938 6.448-4.037 9.237-6.312 13.755 8.136 19.544 21.382 18.253 34.615m-24.489 34.661c-1.427 0.781-5.538 2.492-6.073 2.629-5.833-5.759-42.071-41.446-45.137-44.424 3.214-0.96 5.785-2.186 7.478-3.773 5.102 4.799 40.215 42.235 43.732 45.568m20.859-21.602c-2.467 5.267-6.119 10.229-10.875 14.528-4.018-3.802-38.545-40.324-42.613-44.437 6.643-1.716 12.769-3.69 18.33-5.968 3.695 3.888 32.672 33.563 35.158 35.877" style="fill:#f6f6f6"/></g></g></g><g transform="matrix(.35278 0 0 -.35278 173.89 104.53)"><path d="m0 0c-1.738-10.397-5.877-19.415-12.776-26.152-0.871-0.855-1.789-1.674-2.754-2.454-1.889 3.474-3.268 5.04-5.253 6.928 6.858 5.634 11.783 13.677 13.359 23.11 3.458 20.708-10.525 42.028-31.233 45.486-1.253 0.208-2.511 0.347-3.764 0.422-19.461 1.114-38.472-13.931-41.722-33.381-0.352-2.118-0.601-3.966-0.612-5.998-6e-3 -0.219-6e-3 -0.444 0-0.675-3.799 0.687-2.402 0.45-6.865 1.039 0.029 2.332 0.243 4.693 0.636 7.066 3.925 23.514 24.789 39.968 48.009 38.969 1.905-0.081 3.827-0.277 5.756-0.6 25.442-4.244 41.463-28.318 37.219-53.76" style="fill:#2d2825"/></g><g transform="matrix(.35278 0 0 -.35278 173.89 104.53)"><path d="m0 0c-2.41-11.394-4.283-17.669-15.53-28.606-1.102 1.831-1.873 3.285-3.349 4.974 6.859 5.634 13.92 15.631 15.496 25.064 3.458 20.708-10.524 42.028-31.233 45.486-2.603 0.433-5.219 0.566-7.805 0.422-19.461 1.114-38.472-13.931-41.722-33.381-0.352-2.118-0.601-4.641-0.612-6.673-0.589 0.075-1.526 0.334-2.934 0.518 0.029 2.333 0.353 5.214 0.746 7.587 3.7 22.14 22.411 38.022 43.968 38.969 1.905-0.081 3.827-0.277 5.756-0.6 25.442-4.244 41.463-28.318 37.219-53.76" style="fill:#4f5659"/></g><g transform="matrix(.35278 0 0 -.35278 172.43 98.244)"><path d="m0 0c1.625-23.354-3.898-30.182-15.04-41.107l1.136-1.38c13.37 11.726 18.17 22.352 13.904 42.487m-84.624-9.86 1.914-0.276c-0.467 7.598 1.438 15.669 5.655 23.607-4.422-6.681-6.945-14.458-7.569-23.331" style="fill:#92a8ad"/></g><g transform="matrix(.35278 0 0 -.35278 87.416 79.037)"><path d="m0 0c10.103 72.111 25.113 66.391 54.267 74.281 51.509 6.045 58.405-7.505 80.824-35.744 5.661 3.545 9.62 0.699 12.701-5.438 6.502 5.962 13.135 11.972 14.818 16.165 10.391-3.077 15.803-16.261 7.12-25.017-23.008-31.069-57.506-51.371-102.3-62.024-27.412-3.133-56.949 1.905-87.249 9.874-15.735 6.748-18.13 15.225 1.155 26.514z" style="fill:#6b5147"/></g><g transform="matrix(.35278 0 0 -.35278 86.533 79.527)"><path d="m0 0c60.823-5.303 112.74 8.87 143.37 41.416l12.645-16.165c-14.04-17.106-51.257-36.181-87.935-46.377-48.32-9.189-58.147-0.734-69.07 7.219-0.854 5.922-2.296 12.484 0.994 13.907" style="fill:#674668"/></g><g transform="matrix(.35278 0 0 -.35278 -189.22 305.93)"><g clip-path="url(#clipPath1574)" style="opacity:.25"><g transform="translate(929.86 675.85)"><path d="m0 0 7.827-8.834 9.101 25.402c-3.724-5.585-9.108-10.901-14.818-16.165l-4.106 5.033c-11.595-16.385-20.832-28.042-57.602-42.899 28.207 8.526 38.737 11.522 59.598 37.463m18.248-28.221-9.102 2.683c-34.276-38.423-110.26-59.046-159.42-39.618-12.009 5.976-17.035 21.762-4.299 22.617l0.364 1.797 3.615-2.373-0.574-0.55 7.41-6.827c26.013-2.819 52.102-1.962 69.31 4.09-28.52-3.233-58.112-2.466-70.219 2.583 0.058 0.985 0.449 1.94 1.198 2.865 16.704-5.25 34.475-5.595 53.033-2.323-22.654 0.192-41.445 2.562-54.477 8.175h19.34c1.251 36.982 8.735 57.248 41.278 76.205-44.469-3.945-54.143-16.622-61.387-73.8l-18.667-1.389c-22.082-11.961-15.602-22.168 9.776-31.214l1.283-6.115-0.395-2.256c38.363-35.372 179.86 17.361 171.93 45.45" style="fill:#1d1d1b"/></g></g></g><g transform="matrix(.35278 0 0 -.35278 -189.22 305.93)"><g clip-path="url(#clipPath1590)" style="opacity:.2"><g transform="translate(927.86 681.28)"><path d="m0 0c-1.487 2.442-4.544 1.613-9.088 0.463-23.884 33.926-43.726 42.8-80.331 35.686 35.685-8.982 58.189-25.835 65.047-52.032l6.334 5.229-0.372-1.114c-31.537-23.064-63.023-28.384-115.85-29.521 17.1-8.59 90.253-5.101 125.33 29.521zm18.923 11.132-6.248-23.67c-0.196-0.38-0.394-0.758-0.595-1.134l-10.084 8.236c2.281-9.91-35.897-39.814-81.793-48.476 27.962 1.932 56.163 9.73 88.987 35.246-11.94-19.023-32.611-33.505-85.448-57.243 35.647 11.349 71.118 23.066 96.822 55.086 17.302 18.395 11.353 26.703-1.641 31.955" style="fill:#f6f6f6"/></g></g></g><g transform="matrix(.35278 0 0 -.35278 77.697 86.404)"><path d="m0 0c-5.351 3.336-2.012 11.424 8.392 15.786 4.295 1.101 13.99-16.09 33.638-22.103 27.127-2.178 65.653-3.198 126.69 35.951 7.988 5.124 14.372 12.403 18.337 21.026 2.223 4.835 4.273 13.721 5.359 16.41 3.783-1.002 9.879-9.935 6.865-14.668-62.432-81.217-147.64-75.751-199.28-52.402m187.13 65.559c-0.787-2.088-1.683-8.344-2.64-10.546-0.951-2.189-2.063-4.291-3.309-6.302-1.174 1.768-2.371 3.511-3.562 5.138 2.732 1.408 6.316 8.255 9.511 11.71m-80.983-59.972c-21.405-7.04-43.997-11.139-63.089-7.666-2.491 1.089-4.775 2.289-6.892 3.552 22.821-3.711 41.672-2.283 69.981 4.114m65.33 50.192c-16.746-27.005-32.305-29.768-57.847-39.662 28.144 6.82 45.487 16.392 59.598 37.463 1.96-2.578 4.01-5.625 5.616-8.314-3.894-5.24-8.809-9.689-14.492-13.051-10.536-6.23-24.687-13.601-40.328-20.011-28.13-6.818-72.304-12.51-93.786-6.731-2.003 1.519-3.815 3.062-5.465 4.574-0.101 0.713-0.21 1.449-0.312 2.172 15.51-6.05 39.045-6.701 58.331-1.917-20.061-2.927-41.175-1.533-58.695 4.977-0.119 1.533-0.035 2.571 0.519 2.429l1e-3 -1e-3c56.328-5.357 118.74 8.201 142.24 41.52 0.601 0.769 2.437-0.837 4.625-3.448m-10.083 1.142c-29.175-30.501-81.974-39.864-130.17-36.91 6.675 45.891 8.647 64.94 49.744 71.027 51.274 6.425 54.6-2.482 80.428-34.117m-144.37-39.195c1.574-0.209 3.152-0.269 4.737-0.105-0.173-1.436-0.067-3.23 0.297-4.995-1.886 1.856-3.545 3.6-5.034 5.1m-22.303-20.7c49.438-31.879 152.35-29.515 210.55 54.084 3.776 10.572-9.045 20.079-15.572 22.342-3.189-5.19-8.847-14.824-13.702-17.469-4.243 5.392-8.233 8.696-10.591 5.448-30.933 32.997-26.607 42.757-85.195 36.221-45.063-7.198-50.819-24.074-56.253-75.526-4.442-0.77-8.802-0.529-12.48 0.147-0.804 0.383-1.577 0.572-2.337 0.503h-2e-3l-1e-3 -1e-3c-0.41-0.038-0.818-0.145-1.226-0.335-11.181-5.186-21.082-16.718-13.194-25.414" style="fill:#3a3331"/></g></g></svg>
