<?xml version="1.0" encoding="UTF-8"?>
<svg width="100mm" height="100mm" version="1.1" viewBox="0 0 100 100" xmlns="http://www.w3.org/2000/svg" xmlns:xlink="http://www.w3.org/1999/xlink"><defs><style type="text/css"><![CDATA[
    .fil6 {fill:#2B2A29}
    .fil1 {fill:#86776F}
    .fil8 {fill:#EF7F1A}
    .fil5 {fill:#FFED00}
    .fil0 {fill:#46372C}
    .fil2 {fill:#4A3224}
    .fil4 {fill:#523321}
    .fil3 {fill:#695245}
    .fil7 {fill:#FEFEFE;fill-opacity:0.180392}
   ]]></style><clipPath id="clipPath2147"><path d="m557.47 1975.8h1523.9v-1271.1h-1523.9z"/></clipPath><clipPath id="clipPath2163"><path d="m560.71 1965.6h1485.1v-1256.3h-1485.1z"/></clipPath><clipPath id="clipPath2179"><path d="m714.06 1987.6h1317.6v-1297.2h-1317.6z"/></clipPath><clipPath id="clipPath2215"><path d="m1929.1 1284.2h281.86v-367.58h-281.86z"/></clipPath><clipPath id="clipPath2655"><path d="m2045.9 941.15h274.17v-205.78h-274.17z"/></clipPath><clipPath id="clipPath3731"><path d="m1000.7 1879.9h687.26v-554.66h-687.26z"/></clipPath><clipPath id="clipPath3747"><path d="m1067.8 1672.4h620.13v-347.14h-620.13z"/></clipPath></defs><g transform="translate(957.54 -255.49)"><g transform="matrix(.065549 0 0 -.075127 -858.27 326.95)" style="stroke-width:5.0271"><path d="m0 0c-12.778-44.887-28.925-74.347-45.105-93.636-0.079-0.093-0.174-0.201-0.237-0.294-0.678-0.805-1.356-1.595-2.033-2.353-0.095-0.108-0.19-0.201-0.284-0.31-0.426-0.479-0.851-0.943-1.261-1.407-0.504-0.557-1.008-1.099-1.496-1.625-0.678-0.711-1.355-1.422-2.032-2.103-0.677-0.68-1.354-1.345-2.015-1.993-0.676-0.65-1.337-1.283-2.014-1.916-1.353-1.236-2.72-2.441-4.056-3.551-0.661-0.572-1.321-1.111-1.965-1.636-0.157-0.108-0.299-0.231-0.456-0.355-0.361-0.277-0.722-0.555-1.084-0.832-0.581-0.448-1.146-0.879-1.712-1.311-0.518-0.385-1.052-0.77-1.57-1.124-1.366-0.955-2.7-1.863-4.019-2.709-1.599-1.031-3.184-1.968-4.735-2.811-0.769-0.43-1.552-0.844-2.305-1.228-0.376-0.199-0.768-0.398-1.144-0.582-0.768-0.398-1.519-0.75-2.256-1.087-0.376-0.168-0.736-0.337-1.112-0.504-0.987-0.444-1.942-0.841-2.897-1.222-0.125-0.046-0.251-0.091-0.36-0.137-0.72-0.275-1.425-0.533-2.113-0.792-1.408-0.502-2.785-0.942-4.115-1.351-0.641-0.181-1.282-0.363-1.923-0.529-0.313-0.075-0.625-0.165-0.954-0.241-0.626-0.165-1.251-0.3-1.861-0.451-2.125-0.464-4.141-0.804-5.983-1.053-0.407-0.058-0.812-0.102-1.203-0.145-0.327-0.028-0.655-0.072-0.968-0.1-4.403-0.412-7.755-0.257-9.718-0.052l-0.156 1e-3c-0.359 0.035-0.67 0.085-0.919 0.118-0.577 0.068-0.889 0.133-0.889 0.133-0.475-0.854-0.951-1.707-1.458-2.545-0.777-1.397-1.569-2.763-2.378-4.128-106.56-181.85-261.14-88.599-261.14-88.599-12.203-45.142-47.657-56.893-77.464-58.214-0.109-0.014-0.202-0.013-0.312-0.012-0.733-0.041-1.451-0.065-2.168-0.09-0.843-0.023-1.686-0.031-2.513-0.04-2.137-0.027-4.227 8e-3 -6.254 0.089-0.171 1e-3 -0.358 3e-3 -0.546 0.02-4.474 0.165-8.683 0.531-12.533 0.987-0.56 0.068-1.121 0.136-1.667 0.203-0.872 0.101-1.714 0.218-2.523 0.35-1.465 0.201-2.866 0.432-4.175 0.647-0.732 0.131-1.449 0.247-2.118 0.378-0.592 0.114-1.183 0.214-1.745 0.328-1.058 0.212-2.039 0.408-2.942 0.603-3.409 0.734-5.635 1.346-6.319 1.54-0.062 0.016-0.093 0.032-0.125 0.032-0.03 0.016-0.062 0.016-0.077 0.032-90.751-93.892-172.96-110.21-236.35-99.307-79.462 13.654-129.32 70.076-129.32 70.076-2.694-1.239-5.341-2.416-7.972-3.531-1.127-0.489-2.255-0.962-3.382-1.436-2.24-0.946-4.463-1.846-6.655-2.7-1.095-0.427-2.191-0.854-3.287-1.265-1.08-0.411-2.16-0.823-3.24-1.218-1.08-0.396-2.16-0.776-3.224-1.157-1.048-0.365-2.097-0.729-3.129-1.094-0.408-0.137-0.783-0.258-1.174-0.38-0.125-0.045-0.25-0.091-0.376-0.121-2.112-0.714-4.208-1.412-6.258-2.049-0.454-0.136-0.923-0.288-1.376-0.424-1.142-0.349-2.284-0.681-3.41-0.999-0.969-0.288-1.939-0.559-2.893-0.816-1.173-0.332-2.314-0.618-3.471-0.92-0.235-0.06-0.469-0.12-0.688-0.181-0.595-0.15-1.204-0.316-1.798-0.467-2.94-0.737-5.816-1.398-8.66-1.996-0.016 0.016-0.016 0-0.032 0-2.86-0.598-5.657-1.134-8.422-1.577-0.859-0.148-1.702-0.281-2.546-0.413-1.89-0.295-3.75-0.559-5.592-0.776-1.78-0.218-3.544-0.405-5.277-0.576-0.874-0.086-1.733-0.156-2.607-0.226-0.859-0.07-1.702-0.141-2.56-0.195-1.592-0.111-3.184-0.189-4.745-0.253-0.452-0.012-0.905-8e-3 -1.341-0.035-1.108-0.021-2.216-0.058-3.293-0.064-0.545-0.01-1.092-5e-3 -1.637 0-0.968-7e-3 -1.935 2e-3 -2.902 0.011-0.577 0.02-1.154 0.041-1.731 0.062-0.904 0.024-1.809 0.048-2.682 0.087-0.608 0.036-1.2 0.073-1.808 0.11-0.843 0.054-1.684 0.109-2.51 0.163-0.624 0.052-1.232 0.105-1.84 0.157-0.794 0.069-1.589 0.155-2.369 0.24-0.639 0.053-1.262 0.136-1.869 0.204-0.764 0.085-1.497 0.186-2.244 0.286-0.639 0.084-1.262 0.183-1.885 0.266-0.701 0.116-1.402 0.231-2.087 0.347-0.654 0.1-1.309 0.215-1.947 0.33-0.654 0.115-1.293 0.246-1.931 0.376-0.669 0.131-1.324 0.262-1.993 0.393-0.576 0.13-1.137 0.26-1.713 0.389-0.7 0.163-1.416 0.31-2.101 0.488-0.451 0.113-0.902 0.226-1.354 0.339-0.794 0.21-1.587 0.42-2.381 0.631-0.062 0.016-0.109 0.031-0.171 0.048-4.558 1.274-8.897 2.764-13.031 4.439-0.047 0.016-0.094 0.032-0.14 0.048-28.131 11.393-46.639 31.138-58.107 48.043-11.468 16.904-15.895 30.952-15.895 30.952-1.629-0.718-3.241-1.421-4.839-2.077-0.25-0.107-0.5-0.214-0.751-0.306-2.129-0.901-4.228-1.739-6.294-2.516-0.219-0.076-0.438-0.168-0.657-0.244-3.788-1.447-7.481-2.724-11.064-3.83-0.719-0.227-1.423-0.439-2.127-0.652-0.703-0.227-1.407-0.439-2.111-0.62-2.8-0.817-5.536-1.525-8.193-2.125-1.235-0.301-2.439-0.57-3.642-0.809-0.094-0.015-0.203-0.029-0.312-0.06-1.205-0.254-2.407-0.477-3.579-0.685-0.093 1e-3 -0.172-0.029-0.266-0.044-0.64-0.104-1.265-0.207-1.89-0.311-5.608-0.916-10.901-1.398-15.893-1.508h-0.047c-2.013-0.06-3.978-0.042-5.912 0.038-3.447 0.109-6.735 0.42-9.881 0.901-0.779 0.116-1.558 0.233-2.321 0.38-0.748 0.131-1.495 0.263-2.227 0.426-3.784 0.767-7.347 1.783-10.673 2.998-0.421 0.16-0.825 0.304-1.229 0.464-0.358 0.128-0.699 0.271-1.041 0.415-0.513 0.207-1.026 0.415-1.523 0.638-0.621 0.27-1.243 0.541-1.849 0.827-0.497 0.223-0.963 0.446-1.444 0.685-0.373 0.19-0.745 0.365-1.118 0.571-0.341 0.159-0.668 0.334-1.009 0.524-0.575 0.302-1.133 0.619-1.692 0.936-1.133 0.634-2.219 1.299-3.274 1.995-0.526 0.332-1.053 0.68-1.565 1.044-3.597 2.45-6.801 5.147-9.693 7.966-0.418 0.425-0.835 0.834-1.236 1.259-0.882 0.896-1.731 1.825-2.549 2.753-0.417 0.456-0.819 0.927-1.205 1.399-0.4 0.456-0.786 0.927-1.157 1.399-0.355 0.439-0.709 0.879-1.048 1.335-1.125 1.445-2.157 2.905-3.142 4.35-0.509 0.753-1 1.521-1.477 2.275-3.015 4.801-5.25 9.407-6.899 13.337-0.228 0.548-0.442 1.08-0.641 1.597-0.229 0.548-0.427 1.065-0.609 1.581-0.487 1.299-0.882 2.473-1.232 3.521-0.151 0.485-0.287 0.939-0.424 1.361-0.106 0.329-0.196 0.641-0.273 0.923-0.06 0.203-0.105 0.406-0.166 0.579-0.286 1.032-0.452 1.704-0.497 1.923v0.031c-0.015 0.031-0.015 0.047-0.015 0.047-19.85-14.607-44.828-20.214-66.198-21.97-2.592-0.226-5.136-0.39-7.602-0.492-1.638-0.079-3.246-0.127-4.837-0.159-19.549-0.447-33.707 1.928-33.707 1.928-1.54 0.514-3.08 1.027-4.603 1.57-1.369 0.481-2.753 0.977-4.105 1.489-0.187 0.064-0.357 0.128-0.529 0.192-1.445 0.543-2.891 1.102-4.305 1.677-3.529 1.389-6.978 2.855-10.365 4.384-1.895 0.875-3.774 1.75-5.622 2.656-9.256 4.514-17.931 9.538-26.054 15.009-1.287 0.87-2.574 1.755-3.829 2.655-6.696 4.71-13 9.727-18.941 15.038-2.12 1.891-4.193 3.813-6.219 5.766-0.68 0.661-1.36 1.322-2.025 1.984-0.664 0.661-1.33 1.322-1.979 1.984-3.941 4.013-7.694 8.134-11.275 12.378-0.925 1.1-1.836 2.185-2.715 3.301-4.937 6.066-9.512 12.347-13.759 18.797-1.015 1.522-2 3.059-2.969 4.597v0.016c-0.968 1.537-1.922 3.09-2.859 4.659-1.874 3.136-3.686 6.32-5.404 9.517-0.875 1.599-1.718 3.198-2.561 4.812v0.016c-7.082 13.745-12.957 28.04-17.739 42.59-21.421 64.822-21.755 134.52-14.49 182.03 0.53 3.427 1.09 6.729 1.696 9.922 0.165 0.903 0.345 1.806 0.524 2.709 0.164 0.888 0.344 1.76 0.524 2.632 0.881 4.235 1.916 8.359 3.076 12.388 0.773 2.676 1.592 5.305 2.474 7.902 0.448 1.291 0.897 2.581 1.361 3.841 1.392 3.825 2.891 7.539 4.5 11.143 1.067 2.409 2.181 4.769 3.324 7.083 30.445 61.324 87.773 90.581 87.773 90.581-0.91 1.256-1.771 2.512-2.619 3.752-0.553 0.801-1.093 1.601-1.631 2.401 0.015-0.015 0.047-0.031 0.062-0.047-64.652 96.709-1.041 165.25 36.788 194.56 0.723 0.571 1.445 1.11 2.152 1.65 0.691 0.524 1.382 1.032 2.057 1.541 1.021 0.739 2.01 1.463 2.968 2.141 9.735 6.947 16.459 10.551 16.459 10.551-0.238 1.219-0.461 2.438-0.669 3.641-16.417 93.525 55.775 117.62 88.136 123.68 0.156 0.03 0.297 0.06 0.437 0.09 0.406 0.059 0.797 0.133 1.172 0.208 1.578 0.282 3.031 0.518 4.374 0.709 0.281 0.028 0.546 0.073 0.813 0.117 1.155 0.177 2.218 0.308 3.154 0.408 3.217 0.377 5.058 0.469 5.058 0.469-20.973 79.777 30.364 155.29 30.364 155.29 64.795 97.544 191.89 148.54 265.63 167.61 11.992 3.104 23.238 4.686 33.876 4.574 0.764-7e-3 1.512-0.029 2.261-0.051 0.562-0.021 1.107-0.041 1.653-0.078 0.53-0.02 1.045-0.041 1.575-0.077 0.109-0.016 0.218-0.017 0.327-0.034 1.216-0.073 2.416-0.193 3.616-0.313 0.685-0.085 1.356-0.169 2.026-0.253 1.199-0.151 2.383-0.334 3.567-0.547 1.62-0.28 3.223-0.607 4.826-0.996 17.03-3.976 32.56-13.212 47.334-28.461 27.214-28.107 53.64-69.232 53.64-69.232 5.849 35.949 28.66 67.517 39.01 80.323 0.346 0.403 0.662 0.79 0.962 1.161 0.283 0.357 0.552 0.682 0.804 0.991 0.363 0.434 0.694 0.821 0.994 1.177 0.158 0.185 0.299 0.356 0.441 0.51 0.914 1.069 1.544 1.765 1.813 2.074l0.078 0.078c0.064 0.077 0.094 0.108 0.094 0.108s0.173 0.045 0.516 0.12c0.204 0.045 0.47 0.105 0.798 0.18 0.109 0.014 0.219 0.045 0.344 0.075 0.25 0.045 0.515 0.104 0.812 0.18 0.204 0.045 0.422 0.089 0.641 0.134s0.454 0.105 0.688 0.15c0.781 0.164 1.657 0.359 2.657 0.569 0.469 0.104 0.953 0.209 1.469 0.314 0.078 0.015 0.157 0.03 0.235 0.045 0.171 0.045 0.359 0.09 0.547 0.119 0.531 0.12 1.094 0.24 1.672 0.36 0.079 0.014 0.156 0.029 0.234 0.044 4.517 0.942 10.377 2.121 17.315 3.446 0.563 0.12 1.141 0.239 1.735 0.343 0.907 0.179 1.844 0.358 2.812 0.536 0.813 0.149 1.626 0.297 2.47 0.461 0.64 0.119 1.281 0.238 1.937 0.357 1.015 0.194 2.031 0.371 3.078 0.565 0.047 0.015 0.094 0.03 0.125 0.03 0.734 0.133 1.469 0.267 2.204 0.401 1.483 0.267 2.999 0.534 4.531 0.801 2.624 0.46 5.327 0.934 8.108 1.408 0.578 0.104 1.172 0.208 1.765 0.296 1.187 0.208 2.391 0.4 3.609 0.607 0.61 0.104 1.218 0.207 1.828 0.295 1.234 0.207 2.468 0.399 3.718 0.606 0.266 0.045 0.531 0.089 0.797 0.133 2.624 0.413 5.311 0.841 8.061 1.268 1.811 0.281 3.655 0.56 5.528 0.84 0.391 0.058 0.797 0.117 1.203 0.176 2.406 0.352 4.843 0.705 7.311 1.072 1.671 0.235 3.357 0.468 5.045 0.703 1.39 0.19 2.795 0.38 4.217 0.57 1.421 0.205 2.842 0.395 4.279 0.569 1.343 0.175 2.701 0.35 4.06 0.525 2.718 0.35 5.466 0.683 8.245 1.017 1.39 0.175 2.781 0.334 4.171 0.492 0.358 0.044 0.702 0.088 1.046 0.116 1.498 0.173 2.981 0.331 4.481 0.505 1.187 0.13 2.373 0.259 3.575 0.388 1.156 0.131 2.296 0.245 3.435 0.359 2.186 0.23 4.388 0.444 6.589 0.658 1.53 0.158 3.045 0.3 4.574 0.426 1.437 0.128 2.857 0.255 4.294 0.382 0.265 0.029 0.53 0.058 0.78 0.072 2.919 0.238 5.839 0.477 8.773 0.7 3.091 0.237 6.182 0.443 9.288 0.648 12.783 0.82 25.594 1.312 38.151 1.385 0.889 8e-3 1.779 0.015 2.653 7e-3 16.348 0.023 32.251-0.698 47.055-2.424 1.372-0.153 2.743-0.321 4.082-0.505 1.746-0.219 3.475-0.453 5.189-0.687 1.339-0.199 2.664-0.383 3.957-0.582 2.632-0.414 5.202-0.843 7.709-1.286 0.888-0.149 1.776-0.313 2.648-0.477 1.728-0.312 3.426-0.64 5.108-0.983 0.217-0.048 0.419-0.097 0.638-0.13 0.794-0.163 1.588-0.326 2.366-0.49 2.631-0.554 5.216-1.123 7.721-1.739 1.666-0.405 3.315-0.81 4.934-1.23 14.349-3.703 26.492-8.056 36.73-12.595 0.093-0.047 0.187-0.079 0.28-0.127 0.388-0.175 0.761-0.35 1.149-0.51 1.244-0.572 2.486-1.145 3.682-1.718 1.646-0.779 3.246-1.574 4.783-2.368 0.776-0.397 1.537-0.794 2.267-1.19 0.745-0.397 1.475-0.794 2.189-1.19 0.729-0.397 1.427-0.793 2.11-1.189 0.698-0.396 1.381-0.793 2.033-1.189 0.666-0.395 1.319-0.791 1.954-1.171 1.288-0.792 2.513-1.568 3.691-2.343 0.062-0.031 0.141-0.079 0.203-0.111 0.527-0.348 1.038-0.695 1.534-1.028 2.263-1.533 4.325-3.018 6.199-4.455 0.946-0.726 1.844-1.421 2.695-2.115 0.419-0.347 0.837-0.678 1.239-1.025 0.403-0.331 0.79-0.662 1.177-0.993 0.232-0.205 0.464-0.395 0.681-0.584 0.526-0.457 1.005-0.898 1.485-1.323 1.021-0.93 1.949-1.812 2.783-2.646 0.279-0.268 0.542-0.551 0.804-0.803 0.264-0.268 0.51-0.52 0.742-0.771 0.619-0.63 1.175-1.228 1.669-1.794 0.108-0.125 0.216-0.236 0.309-0.346 0.339-0.393 0.663-0.755 0.941-1.1 1.42-1.682 2.051-2.655 2.051-2.655s90.961 57.061 166.34-8.75c75.369-65.811 49.264-152.4 49.264-152.4 94.154 10.001 49.923-80.04 49.923-80.04 83.023-37.225 69.976-118.61 56.157-161.26-0.048-0.108-0.08-0.217-0.112-0.326-0.433-1.307-0.85-2.566-1.267-3.795-0.849-2.441-1.681-4.726-2.481-6.856-0.255-0.7-0.527-1.384-0.782-2.052-0.128-0.326-0.256-0.653-0.383-0.979-0.256-0.653-0.512-1.275-0.751-1.881-0.622-1.507-1.196-2.875-1.722-4.118-0.526-1.228-1.004-2.315-1.433-3.247v-0.016c-1.179-2.61-1.909-4.023-1.909-4.023s10.692-18.176 46.501-58.295c29.726-33.324-13.479-135.79-29.012-169.62-0.175-0.373-0.334-0.73-0.493-1.072-0.096-0.217-0.207-0.451-0.302-0.668-0.223-0.481-0.445-0.948-0.653-1.398-0.159-0.342-0.301-0.668-0.46-0.978-0.112-0.233-0.208-0.451-0.303-0.653-0.143-0.295-0.271-0.59-0.413-0.885-0.16-0.326-0.303-0.637-0.446-0.932-0.048-0.124-0.111-0.233-0.175-0.357-0.159-0.358-0.334-0.699-0.477-1.025-0.095-0.202-0.191-0.389-0.286-0.575-0.096-0.202-0.19-0.388-0.27-0.559-0.032-0.078-0.064-0.14-0.096-0.202-0.016-0.047-0.032-0.078-0.048-0.109-0.047-0.093-0.095-0.202-0.143-0.295-0.016-0.031-0.031-0.062-0.047-0.093-0.032-0.062-0.064-0.109-0.079-0.155-0.032-0.078-0.064-0.14-0.096-0.202-0.143-0.28-0.239-0.482-0.302-0.621-0.016-0.016-0.016-0.032-0.016-0.032-0.032-0.046-0.032-0.077-0.047-0.092-0.017-0.016-0.017-0.032-0.017-0.047l-0.015-0.016s0.015-0.016 0.031-0.031c0.015-0.016 0.046-0.032 0.062-0.063 0.046-0.047 0.108-0.111 0.201-0.189 0.031-0.016 0.062-0.063 0.092-0.095 0.154-0.142 0.356-0.346 0.603-0.598 0.046-0.047 0.108-0.095 0.154-0.157 0.603-0.614 1.438-1.464 2.442-2.565 0.046-0.047 0.092-0.11 0.154-0.157 0.464-0.519 0.973-1.086 1.514-1.699 0.093-0.11 0.185-0.22 0.293-0.33 0.031-0.032 0.062-0.079 0.077-0.11 0.078-0.079 0.154-0.158 0.232-0.252 0.077-0.079 0.154-0.173 0.232-0.267 0.71-0.818 1.465-1.698 2.253-2.657 0.185-0.22 0.37-0.44 0.555-0.66v-0.031c0.509-0.613 1.018-1.242 1.542-1.902 0.109-0.125 0.217-0.251 0.309-0.392 0.633-0.817 1.295-1.666 1.958-2.545 0.201-0.252 0.386-0.503 0.57-0.738 0.833-1.1 1.696-2.262 2.558-3.487 0.062-0.078 0.123-0.172 0.185-0.251 0.231-0.33 0.477-0.675 0.724-1.021 0.077-0.109 0.154-0.204 0.215-0.314 0.308-0.455 0.632-0.91 0.955-1.381 0.031-0.047 0.077-0.11 0.108-0.157 0.293-0.408 0.569-0.832 0.862-1.256 0.462-0.674 0.923-1.381 1.384-2.087 0.832-1.255 1.662-2.573 2.508-3.907 0.015-0.016 0.015-0.047 0.031-0.063 22.14-35.408 48.771-101.99 22.184-195.34" style="fill:#ffa1a9"/></g><g transform="matrix(.065549 0 0 -.075127 -994.08 404.81)" style="stroke-width:5.0271"><g style="stroke-width:5.0271"><g clip-path="url(#clipPath2147)" style="opacity:.10001;stroke-width:5.0271"><g transform="translate(1700.8 1933.5)" style="stroke-width:5.0271"><path d="m0 0c-0.093 0.11-0.201 0.22-0.309 0.346-0.494 0.55-1.05 1.148-1.669 1.793-0.231 0.252-0.478 0.504-0.742 0.772-0.262 0.251-0.525 0.535-0.804 0.802-0.834 0.835-1.762 1.717-2.783 2.646-0.48 0.426-0.959 0.867-1.485 1.324-0.217 0.189-0.449 0.379-0.681 0.584-0.387 0.331-0.774 0.662-1.177 0.993-0.402 0.347-0.82 0.678-1.239 1.025-0.851 0.694-1.749 1.389-2.695 2.115-1.874 1.437-3.936 2.921-6.199 4.455-0.512 0.332-1.023 0.68-1.55 1.013-0.063 0.047-0.125 0.094-0.187 0.126-1.178 0.775-2.403 1.55-3.691 2.342-0.635 0.38-1.288 0.776-1.954 1.172-0.652 0.396-1.335 0.792-2.033 1.189-0.683 0.396-1.381 0.792-2.11 1.189-0.714 0.396-1.444 0.793-2.189 1.19-0.73 0.396-1.491 0.793-2.267 1.19-1.538 0.778-3.137 1.573-4.783 2.368s-3.355 1.575-5.111 2.355c-7.549-6.889-14.419-14.282-18.779-18.72-34.385-34.863-68.282-77.779-85.8-124.17 12.205 11.042 24.632 22.378 37.4 33.541 13.365 11.702 27.119 23.198 41.411 33.941 22.602 17.047 46.528 32.21 72.367 43.316-0.278 0.345-0.602 0.707-0.941 1.1m290.64-521.04c-0.026 0.578-0.052 1.155-0.093 1.717-0.028 0.39-0.071 0.78-0.114 1.171-0.101 1.014-0.232 1.983-0.411 2.936-0.059 0.375-0.133 0.75-0.207 1.109-0.031 0.126-0.061 0.266-0.091 0.391-0.075 0.391-0.18 0.782-0.27 1.157-0.03 0.125-0.06 0.25-0.106 0.375-0.105 0.454-0.241 0.923-0.377 1.361-0.152 0.516-0.319 1.017-0.486 1.502-0.334 0.939-0.685 1.862-1.083 2.755-0.213 0.517-0.442 1.018-0.688 1.504-0.214 0.47-0.444 0.909-0.673 1.363-0.23 0.439-0.476 0.894-0.707 1.332-0.981 1.757-2.058 3.451-3.182 5.115-0.292 0.424-0.569 0.832-0.862 1.255-0.293 0.409-0.585 0.833-0.878 1.241-0.292 0.408-0.585 0.832-0.893 1.24-0.955 1.35-1.941 2.701-2.942 4.082-0.293 0.393-0.586 0.801-0.863 1.209-0.493 0.676-0.955 1.335-1.432 2.026-0.677 1.004-1.37 2.04-2.062 3.107-0.508 0.801-1.015 1.616-1.507 2.463 0 0.016-0.015 0.016-0.015 0.031-0.661 1.098-1.29 2.227-1.904 3.403 4.382-13.908-2.285-40.428-12.027-48.185-44.64-35.535-97.004 10.927-109.59 64.312-10.875 46.085 21.469 103.55 65.139 118.16 1.518 0.517 3.035 0.971 4.583 1.378 1.298 0.332 2.611 0.647 3.955 0.932 3.986 0.868 8.109 1.501 12.278 1.994 16.787 1.953 34.408 1.31 48.534 2.335-12.506 14.216-29.793 27.445-44.086 39.04-7.561 29.597-45.018 63.475-78.643 62.533 9.549 24.825-7.49 52.878-29.493 75.619-1e-3 3e-3 -2e-3 5e-3 -3e-3 8e-3 -0.033 0.033-0.066 0.064-0.098 0.097-1.745 1.801-3.517 3.573-5.313 5.303-5.443 5.275-11.092 10.193-16.62 14.642-0.124 0.095-0.248 0.189-0.356 0.284-0.821 0.662-1.642 1.31-2.447 1.941-0.233 0.173-0.45 0.347-0.667 0.521-0.696 0.552-1.393 1.088-2.09 1.61-5.438 4.136-10.646 7.771-15.33 10.762 39.932-32.809 40.883-77.399 37.527-123.99 33.234-14.591 59.04-24.294 74.81-58.63l-0.312 3e-3c-33.68 1.507-59.908-38.578-74.214-64.592-22.047-40.091-22.834-88.925-1.649-129.86 30.384-58.709 91.414-59.717 145.5-43.829 3.257-14.1 2.456-28.397-0.474-41.91 0.637 1.507 1.306 2.998 1.99 4.49 0.493 1.087 1.018 2.174 1.543 3.261 0.302 0.653 0.604 1.29 0.922 1.926 4.086 8.402 8.544 16.707 12.039 25.27 0.493 1.197 0.957 2.379 1.405 3.575 0.047 0.14 0.111 0.28 0.159 0.42 0.209 0.56 0.4 1.12 0.593 1.695 0.24 0.653 0.464 1.321 0.673 1.991 0.225 0.668 0.433 1.337 0.626 2.006 0.323 1.058 0.613 2.132 0.888 3.205 0.129 0.467 0.243 0.95 0.356 1.417 0.114 0.498 0.227 0.996 0.326 1.494 0.13 0.607 0.26 1.215 0.359 1.822 0.098 0.467 0.181 0.934 0.248 1.402 0.082 0.514 0.164 1.043 0.231 1.557 0.083 0.592 0.167 1.184 0.235 1.776 0.034 0.281 0.052 0.562 0.07 0.842 0.051 0.437 0.086 0.889 0.121 1.325 0.053 0.608 0.089 1.232 0.11 1.84 0.038 0.701 0.06 1.419 0.067 2.136l4e-3 0.468c5e-3 0.593-5e-3 1.186-0.031 1.763m44.181 175.52c-30.748-39.717-100.01-33.19-134.96-63.431 29.519-4.589 66.554-2.555 95.695-9.153 7.15-4.558 13.505-9.014 19.284-13.294 0.254 0.543 0.556 1.18 0.907 1.926 0 0-0.015 0 0 0.016 0.414 0.932 0.907 2.019 1.433 3.246 0.526 1.244 1.1 2.611 1.722 4.119 0.24 0.606 0.495 1.227 0.751 1.88 0.127 0.327 0.255 0.653 0.383 0.979 0.255 0.669 0.527 1.353 0.783 2.052 0.799 2.13 1.631 4.416 2.48 6.857 0.417 1.229 0.834 2.488 1.267 3.795 0.032 0.109 0.064 0.217 0.112 0.326 5.201 16.145 10.312 37.874 10.145 60.682m-691.85 342.45c-0.027 0.406-0.07 0.812-0.129 1.233-0.086 0.828-0.203 1.671-0.367 2.531-0.029 0.249-0.073 0.484-0.134 0.734-0.104 0.594-0.223 1.203-0.358 1.812-0.748 3.517-1.868 7.209-3.285 10.918-0.153 0.407-0.321 0.815-0.473 1.237-0.03 0.094-0.076 0.188-0.106 0.282-0.473 1.143-0.947 2.27-1.451 3.414-1.269 2.866-2.694 5.702-4.229 8.43-0.215 0.377-0.43 0.768-0.66 1.161-0.215 0.376-0.446 0.768-0.676 1.144-0.231 0.377-0.461 0.753-0.692 1.13-0.078-0.015-0.155-0.03-0.234-0.045-0.578-0.135-1.141-0.239-1.672-0.359-0.188-0.03-0.376-0.074-0.547-0.12-0.078-0.015-0.157-0.03-0.235-0.044-0.516-0.105-1-0.21-1.469-0.315-1-0.209-1.876-0.404-2.657-0.568-0.234-0.045-0.469-0.105-0.688-0.15s-0.437-0.09-0.641-0.134c-0.296-0.06-0.577-0.12-0.812-0.18-0.125-0.031-0.235-0.061-0.344-0.075-0.328-0.075-0.594-0.135-0.797-0.18-0.344-0.075-0.516-0.12-0.516-0.12s-0.031-0.031-0.094-0.108c-0.017-0.016-0.048-0.047-0.079-0.078-0.269-0.31-0.899-1.005-1.813-2.074-0.142-0.154-0.283-0.325-0.441-0.51-0.3-0.357-0.631-0.743-0.994-1.177-0.252-0.31-0.521-0.635-0.804-0.991-0.3-0.372-0.616-0.759-0.962-1.161-9.798-12.172-30.778-41.213-37.916-74.874 5.748-11.158 8.367-25.034 11.639-37.605 1.22-4.676 2.521-9.18 4.121-13.297 0.214-0.563 0.442-1.127 0.671-1.675 0.275-0.658 0.55-1.3 0.841-1.926 16.688 25.399 42.679 65.237 48.726 95.615 0.475 2.398 0.547 5.143 0.277 8.125m-176.74 44.55c-0.67 0.084-1.341 0.168-2.026 0.252-1.2 0.12-2.4 0.241-3.616 0.314-0.109 0.017-0.218 0.018-0.327 0.034-0.53 0.036-1.045 0.056-1.575 0.077-0.546 0.036-1.091 0.057-1.653 0.077-0.749 0.023-1.497 0.045-2.261 0.052-10.638 0.112-21.884-1.47-33.876-4.574-73.738-19.079-200.83-70.07-265.63-167.62 0 0-51.337-75.516-30.364-155.29 0 0-1.841-0.092-5.058-0.469-0.936-0.101-1.998-0.231-3.154-0.408-0.267-0.044-0.532-0.089-0.813-0.118-1.343-0.19-2.796-0.426-4.374-0.708-0.375-0.075-0.766-0.149-1.172-0.208-0.14-0.03-0.281-0.06-0.437-0.09-32.361-6.054-104.55-30.154-88.136-123.68 0.208-1.203 0.431-2.422 0.669-3.641 0 0-6.724-3.605-16.459-10.551-0.958-0.678-1.947-1.402-2.968-2.141-0.675-0.509-1.366-1.018-2.057-1.541-0.707-0.54-1.429-1.079-2.152-1.65-37.836-29.304-101.44-97.856-36.791-194.56-0.019 0.018-0.04 0.034-0.059 0.051 0.539-0.8 1.078-1.601 1.631-2.401 0.848-1.24 1.709-2.496 2.619-3.752 0 0-57.328-29.257-87.773-90.581-1.143-2.314-2.257-4.675-3.324-7.083-1.609-3.604-3.108-7.319-4.5-11.144-0.464-1.259-0.913-2.549-1.361-3.84-0.866-2.597-1.701-5.226-2.474-7.902-1.144-4.03-2.18-8.154-3.061-12.389-0.179-0.872-0.359-1.744-0.539-2.631-0.179-0.903-0.359-1.806-0.523-2.71-0.05-0.296-0.099-0.576-0.148-0.872-0.131-0.622-0.246-1.261-0.345-1.9-0.165-0.934-0.33-1.884-0.494-2.834-0.247-1.417-0.479-2.866-0.71-4.315-7.265-47.51-6.931-117.21 14.49-182.03 4.782-14.55 10.657-28.845 17.739-42.59v-0.016c0.843-1.614 1.687-3.213 2.561-4.812 1.718-3.198 3.53-6.381 5.404-9.518 0.937-1.568 1.891-3.121 2.859-4.659v-0.015c0.969-1.538 1.954-3.075 2.969-4.597 4.247-6.45 8.822-12.732 13.759-18.798 0.879-1.115 1.79-2.2 2.715-3.3 3.581-4.244 7.334-8.365 11.275-12.379 0.649-0.661 1.315-1.322 1.979-1.983 0.665-0.662 1.345-1.323 2.025-1.984 2.026-1.953 4.099-3.89 6.219-5.766 5.941-5.311 12.245-10.328 18.941-15.038 1.255-0.901 2.542-1.786 3.829-2.655 8.123-5.471 16.798-10.495 26.054-15.01 1.848-0.905 3.727-1.78 5.622-2.656 3.387-1.528 6.836-2.994 10.365-4.383 1.414-0.575 2.86-1.134 4.305-1.678 0.172-0.064 0.342-0.127 0.529-0.192 1.352-0.511 2.736-1.007 4.105-1.488 1.523-0.544 3.063-1.057 4.603-1.57 0 0 14.158-2.375 33.707-1.929 1.591 0.033 3.199 0.08 4.837 0.159 2.481 0.118 5.01 0.282 7.602 0.493 20.715 1.73 44.848 7.064 64.377 20.707-0.295 0.081-0.607 0.146-0.902 0.226 2.285 4.316 4.68 8.678 7.138 13.07 16.254 29.21 34.535 60.007 38.249 92.794-20.169-13.794-37.555-33.54-57.425-48.755-31.118-23.802-72.37-45.266-109.82-24.21-1.893 1.062-3.724 2.202-5.475 3.403-8.062 5.486-14.816 12.365-20.298 20.198-20.205 28.668-23.855 69.96-15.16 101.48 17.66-18.615 26.766-55.121 55.517-56.536 34.209-1.7 77.672 15.906 87.519 50.665v0.015c1.595 5.586 2.304 11.601 1.973 18.062-38.093-20.712-73.947-28.404-102.19 10.584-9.274 12.782-15.067 24.129-16.717 36.545 0 0.031 0 0.062-0.015 0.093-0.263 1.984-0.416 3.998-0.46 6.041-0.014 0.125-0.013 0.25-0.012 0.39-0.122 7.115 1.07 14.701 3.69 23.178 6.734 21.824 23.185 50.439 49.226 49.36-22.462 5.165-44.736 24.289-50.438 47.302-0.03 0.094-0.061 0.188-0.075 0.297-0.557 2.283-0.941 4.611-1.154 6.968-1.513 17.11 4.817 30.577 15.235 40.606 13.833 13.32 34.863 20.554 54.33 22.109 0.53 0.042 1.077 0.084 1.607 0.126 2.263 0.135 4.495 0.209 6.678 0.204-25.418 12.835-77.136 20.699-90.372 47.197-24.022 48.077-3.374 117.88 25.479 158.6 0.364 0.511 0.727 1.022 1.09 1.518 9.645-18.447 34.515-46.923 57.885-56.979 4.444-1.927 8.832-3.168 13.055-3.566-1.589 1.84-3.194 3.773-4.83 5.785-14.963 18.496-30.94 43.786-35.015 67.425-1.304 7.53-1.393 14.894 0.136 21.821 9.5 42.92 13.05 83.32 62.709 97.969-1.341-34.321 16.228-85.224 49.31-102.84-13.451 16.689-16.403 55.791-14.844 77.974 0.036 0.467 0.071 0.92 0.106 1.372 10.998-13.703 44.307-42.224 72.172-53.693 11.469-4.721 22.029-6.549 29.702-3.265-25.299 10.557-49.741 51.96-58.744 77.375-19.848 55.978 13.756 123.29 46.486 170.01 32.904 46.981 70.385 84.327 111.98 122.68 2.013 1.87 4.058 3.754 6.103 5.623 18.97 17.392 38.544 34.17 59.55 49.001 7.379 5.236 14.958 10.222 22.738 14.924 8.392 5.056 25.664 17.597 40.268 24.733-1.184 0.213-2.368 0.396-3.567 0.547m772.32-943.36c0.418-0.347 0.819-0.74 1.222-1.15 10.167-10.684 14.622-42.188 17.134-55.89 1.888-10.266 2.779-20.336 2.078-30.515-0.342-5.004-1.074-10.036-2.259-15.142-1.511-6.538-7.885-17.976-6.555-24.337 0.18-0.922 0.531-1.737 1.086-2.412 0.492 0.837 0.967 1.675 1.458 2.514 0.507 0.837 0.983 1.691 1.458 2.544 0 0 0.312-0.065 0.889-0.132 0.249-0.034 0.56-0.084 0.919-0.118l0.156-1e-3c1.963-0.205 5.315-0.361 9.718 0.052 0.313 0.028 0.641 0.072 0.968 0.1 0.391 0.043 0.796 0.086 1.203 0.145 1.843 0.248 3.858 0.589 5.983 1.053 0.61 0.151 1.235 0.286 1.861 0.451 0.329 0.076 0.641 0.166 0.954 0.241 0.641 0.166 1.282 0.347 1.923 0.529 1.33 0.409 2.707 0.849 4.115 1.351 0.688 0.259 1.393 0.517 2.113 0.792 0.109 0.045 0.235 0.091 0.36 0.137 0.955 0.381 1.926 0.794 2.897 1.221 0.376 0.168 0.736 0.337 1.112 0.505 0.752 0.352 1.504 0.704 2.256 1.087 0.376 0.184 0.768 0.383 1.144 0.582 0.753 0.383 1.536 0.798 2.305 1.227 1.551 0.86 3.136 1.797 4.735 2.812 1.319 0.846 2.653 1.754 4.019 2.709 0.518 0.354 1.052 0.739 1.571 1.124 0.565 0.432 1.13 0.863 1.711 1.31 0.362 0.278 0.723 0.556 1.084 0.833 0.158 0.123 0.299 0.247 0.456 0.354 0.644 0.541 1.304 1.065 1.965 1.636 1.336 1.111 2.703 2.315 4.056 3.551 0.677 0.633 1.338 1.267 2.014 1.916 0.661 0.649 1.338 1.314 2.015 1.994 0.662 0.68 1.338 1.392 2.032 2.103 0.488 0.526 0.992 1.067 1.496 1.625 0.41 0.464 0.835 0.928 1.261 1.407 0.094 0.109 0.189 0.201 0.284 0.31 0.661 0.758 1.34 1.547 2.033 2.352 0.063 0.093 0.158 0.202 0.237 0.295-15.922 41.731-40.27 77.955-87.467 88.835m-275.07-217.85c-11.943-7.91-36.575-13.239-52.245-7.34-19.915 7.496-38.66 33.764-53.653 48.891 9.103-16.134 15.08-36.561 14.948-56.168-0.086-14.599-4.012-29.523-10.241-43.786 1.149 1.159 2.283 2.272 3.416 3.447h0.016c0.015-0.016 0.047-0.016 0.077-0.032 0.032 0 0.079-0.016 0.125-0.033 0.685-0.193 2.91-0.806 6.319-1.539 0.903-0.195 1.884-0.391 2.942-0.603 0.562-0.115 1.153-0.214 1.745-0.328 0.686-0.131 1.386-0.247 2.118-0.378 1.309-0.215 2.71-0.446 4.175-0.647 0.826-0.117 1.667-0.233 2.523-0.35 0.546-0.068 1.107-0.135 1.667-0.203 3.85-0.456 8.074-0.822 12.533-0.987 0.188-0.017 0.375-0.019 0.546-0.021 2.043-0.065 4.133-0.099 6.254-0.088 25.959 0.232 57.725 7.727 74.714 38.849-8.111 6.937-14.845 14.268-17.979 21.316m-525.74 67.548c-1.128 6.469-1.978 12.42-2.492 17.712-0.312 3.295-0.503 6.338-0.572 9.084-1.023-1.02-1.983-1.963-2.785-2.704-17.398-15.909-32.678-34.099-45.276-54.061-26.874-42.543-36.876-87.549-36.298-137.22 16.893-6.845 37.278-10.681 61.705-9.062 0.858 0.054 1.701 0.125 2.56 0.195 0.874 0.07 1.733 0.14 2.607 0.226 1.733 0.171 3.497 0.358 5.277 0.576 1.842 0.217 3.702 0.481 5.592 0.776 0.844 0.132 1.687 0.265 2.546 0.413 2.765 0.459 5.578 0.979 8.422 1.577 0.016 0 0.016 0.016 0.032 0 1.672 0.359 3.36 0.734 5.064 1.139 1.188 0.27 2.392 0.556 3.596 0.857 0.592 0.145 1.197 0.319 1.793 0.472 0.23 0.059 0.464 0.123 0.695 0.183 1.154 0.301 2.303 0.587 3.469 0.913 0.578 0.151 1.172 0.317 1.751 0.499 0.376 0.09 0.767 0.211 1.142 0.317 1.126 0.317 2.268 0.65 3.41 0.999 0.422 0.136 0.845 0.273 1.267 0.409 0.031 0 0.063 0.015 0.109 0.015 2.055 0.643 4.15 1.339 6.253 2.042 0.125 0.042 0.248 0.08 0.373 0.122 0.399 0.133 0.781 0.25 1.182 0.385 1.032 0.366 2.081 0.73 3.129 1.095 1.064 0.38 2.144 0.76 3.224 1.156s2.16 0.808 3.24 1.219c1.096 0.411 2.192 0.838 3.287 1.265 2.192 0.869 4.415 1.769 6.655 2.7 1.127 0.473 2.255 0.947 3.382 1.436-24.876 41.657-46.556 110.57-54.339 155.27m-161.31 13.915c1.336 2.686 2.824 5.184 4.483 7.478-28.734-34.447-101.59-76.962-144.8-66.758 0.015-0.047 0.031-0.094 0.03-0.14 0.061-0.173 0.106-0.376 0.167-0.58 0.091-0.281 0.182-0.594 0.272-0.922 0.137-0.422 0.273-0.876 0.424-1.361 0.35-1.048 0.745-2.222 1.232-3.521 0.183-0.501 0.397-1.033 0.609-1.581 0.199-0.517 0.413-1.049 0.641-1.597 1.649-3.931 3.884-8.537 6.899-13.338 0.477-0.753 0.969-1.522 1.477-2.275 0.985-1.444 2.017-2.904 3.143-4.349 0.338-0.456 0.693-0.896 1.047-1.336 0.371-0.471 0.757-0.942 1.158-1.398 0.385-0.472 0.787-0.944 1.204-1.4 0.818-0.927 1.667-1.856 2.549-2.753 0.401-0.425 0.819-0.834 1.236-1.259 2.892-2.818 6.096-5.515 9.693-7.966 0.512-0.363 1.039-0.711 1.566-1.043 1.054-0.696 2.14-1.361 3.273-1.996 0.559-0.317 1.117-0.633 1.692-0.935 0.341-0.191 0.668-0.365 1.009-0.524 0.373-0.206 0.745-0.381 1.118-0.572 0.482-0.238 0.947-0.461 1.444-0.684 0.606-0.286 1.228-0.557 1.849-0.828 0.497-0.223 1.01-0.43 1.523-0.638 0.342-0.143 0.683-0.286 1.042-0.415 0.404-0.159 0.807-0.303 1.228-0.463 3.326-1.216 6.889-2.231 10.673-2.998 0.732-0.163 1.479-0.295 2.227-0.426 0.763-0.148 1.542-0.264 2.321-0.38 3.146-0.465 6.435-0.776 9.881-0.901 1.934-0.065 3.899-0.082 5.912-0.038l0.047-1e-3c4.992 0.126 10.285 0.609 15.893 1.509 0.625 0.104 1.25 0.207 1.89 0.311 0.094 0.015 0.173 0.045 0.266 0.044 1.188 0.223 2.374 0.447 3.579 0.685 0.109 0.03 0.218 0.045 0.312 0.06 1.203 0.254 2.407 0.524 3.642 0.809 2.021 0.468 4.101 1.007 6.206 1.583h1e-3c0.065 0.019 0.134 0.038 0.2 0.056 0.596 0.165 1.183 0.316 1.786 0.488 0.313 0.091 0.641 0.181 0.969 0.287 0.376 0.106 0.751 0.212 1.142 0.333 0.704 0.212 1.408 0.424 2.127 0.652 0.64 0.2 1.299 0.431 1.945 0.642 0.056 0.018 0.114 0.037 0.171 0.056 2.917 0.952 5.883 1.978 8.948 3.132 0.219 0.076 0.438 0.168 0.657 0.244 2.066 0.792 4.165 1.631 6.294 2.516 0.251 0.092 0.501 0.198 0.751 0.305 1.316 0.566 2.663 1.13 4.01 1.727-9.104 26.445-12.234 68.169-1.826 96.028 0.832 2.239 1.756 4.398 2.772 6.433m1070 340.5c-0.461 0.706-0.938 1.397-1.4 2.072-0.277 0.439-0.569 0.863-0.846 1.271-0.03 0.047-0.077 0.11-0.108 0.157-0.339 0.486-0.678 0.958-1.001 1.428-0.308 0.44-0.601 0.864-0.893 1.288-0.062 0.078-0.123 0.172-0.185 0.251-0.708 0.989-1.417 1.963-2.111 2.874-0.339 0.471-0.678 0.911-1.017 1.351-0.663 0.879-1.325 1.727-1.958 2.544-0.108 0.126-0.2 0.267-0.309 0.393-0.338 0.424-0.662 0.833-1.002 1.226-0.108 0.141-0.216 0.283-0.34 0.424-0.061 0.079-0.123 0.157-0.184 0.251 0 0-0.016 0.016-0.016 0.032-0.139 0.157-0.277 0.314-0.401 0.456-0.047 0.063-0.109 0.126-0.154 0.204-0.788 0.959-1.543 1.839-2.253 2.657-0.155 0.173-0.31 0.361-0.464 0.519-0.123 0.157-0.247 0.298-0.37 0.44-0.541 0.613-1.05 1.179-1.514 1.698-0.062 0.048-0.108 0.095-0.154 0.158-1.004 1.101-1.839 1.951-2.442 2.565-0.046 0.062-0.108 0.11-0.154 0.157-0.247 0.252-0.449 0.456-0.603 0.598-0.03 0.032-0.061 0.079-0.092 0.095-0.093 0.078-0.155 0.141-0.201 0.188-0.031 0.032-0.047 0.048-0.062 0.064-0.016 0.015-0.031 0.031-0.031 0.031l0.015 0.015c0 0.016 0 0.032 0.017 0.047 0.015 0.015 0.015 0.047 0.047 0.093 0 0 0 0.016 0.016 0.031 0.063 0.14 0.16 0.342 0.302 0.621 0.032 0.063 0.064 0.125 0.096 0.202 0.015 0.047 0.047 0.094 0.079 0.156s0.063 0.14 0.095 0.217c0.032 0.062 0.064 0.109 0.095 0.171 0.016 0.031 0.032 0.062 0.048 0.109 0.032 0.062 0.064 0.14 0.096 0.202 0.08 0.17 0.174 0.357 0.27 0.559 0.063 0.155 0.144 0.31 0.223 0.481 0.031 0.031 0.032 0.063 0.063 0.093 0.143 0.327 0.319 0.668 0.477 1.025 0.064 0.125 0.127 0.233 0.175 0.358 0.143 0.295 0.286 0.605 0.446 0.932 0.142 0.295 0.27 0.59 0.413 0.885 0.095 0.202 0.191 0.419 0.303 0.652 0.159 0.311 0.302 0.637 0.46 0.979 0.208 0.45 0.43 0.916 0.653 1.398-0.016-0.016-0.016-0.016-0.032-0.031-8.893-10.464-20.453-19.157-32.077-26.43-2.871-1.798-5.757-3.504-8.596-5.131-23.928-13.713-49.878-35.378-76.476-42.343 58.926-12.859 119.29-14.936 167.2-55.554-5.088 42.693-20.88 74.659-34.143 94.871" style="fill:#231f20"/></g></g></g></g><g transform="matrix(.065549 0 0 -.075127 -994.08 404.81)" style="stroke-width:5.0271"><g style="stroke-width:5.0271"><g clip-path="url(#clipPath2163)" style="opacity:.10001;stroke-width:5.0271"><g transform="translate(1698.8 1935.6)" style="stroke-width:5.0271"><path d="m0 0c-0.232 0.252-0.479 0.504-0.742 0.771-0.262 0.252-0.525 0.535-0.804 0.803-0.834 0.834-1.762 1.716-2.783 2.646-0.48 0.425-0.96 0.867-1.485 1.324-0.217 0.189-0.45 0.378-0.681 0.583-0.387 0.331-0.775 0.663-1.177 0.994-0.403 0.347-0.821 0.678-1.239 1.025-0.851 0.694-1.749 1.388-2.695 2.114-1.874 1.437-3.936 2.922-6.199 4.456-0.496 0.332-1.007 0.68-1.535 1.028l-0.016-0.016c-8.24-5.525-16.046-13.144-24.395-20.431-26.117-22.802-44.669-50.743-67.108-75.794-3.657-4.085-7.406-8.091-11.326-11.986 16.648 15.884 34.168 31.543 52.736 45.927 22.198 17.207 45.892 32.591 71.427 44.417-0.093 0.11-0.201 0.22-0.31 0.346-0.493 0.566-1.049 1.163-1.668 1.793m-355.18-3.978c-0.087 0.827-0.203 1.671-0.367 2.53-0.029 0.25-0.074 0.484-0.134 0.735-0.104 0.593-0.223 1.203-0.358 1.812-0.748 3.517-1.868 7.208-3.286 10.918-0.152 0.407-0.32 0.814-0.472 1.237-0.03 0.094-0.076 0.188-0.106 0.282-0.474 1.143-0.947 2.27-1.452 3.413-1.268 2.867-2.693 5.703-4.228 8.431-0.215 0.376-0.43 0.768-0.66 1.16-0.216 0.377-0.446 0.769-0.676 1.145-0.231 0.377-0.461 0.753-0.692 1.13-0.256 0.414-0.52 0.813-0.78 1.219-0.59-0.219-1.182-0.432-1.777-0.636 0.033-0.369 0.072-0.737 0.103-1.107 1.134-14.283-0.782-29.381-2.865-40.578-5.298-28.576-15.993-58.897-36.758-79.767 1.221-4.675 2.522-9.179 4.122-13.296 0.213-0.564 0.442-1.127 0.671-1.675 0.275-0.658 0.55-1.3 0.841-1.927 16.687 25.4 42.679 65.237 48.726 95.616 0.475 2.398 0.547 5.142 0.277 8.125-0.027 0.405-0.071 0.811-0.129 1.233m596.94-901.2c-0.249 0.143-0.497 0.285-0.761 0.428 8.466-31.306 20.36-57.995 19.973-86.834-0.177-12.571-2.666-25.542-8.814-39.478-1.577-3.59-3.404-7.254-5.496-10.979 0.61 0.166 1.173 0.348 1.766 0.514 1.315 2.126 2.613 4.266 3.896 6.439 0.809 1.365 1.601 2.73 2.378 4.127 0.507 0.838 0.982 1.692 1.458 2.545 0 0 0.311-0.065 0.888-0.132 0.25-0.034 0.561-0.068 0.919-0.118h0.156c4.395-0.414 15.796-0.673 30.311 5.34 0.377 0.278 0.769 0.524 1.131 0.801-5.275 34.069-12.886 97.689-47.805 117.35m104.38 208.61c-0.03 0.047-0.076 0.109-0.107 0.157-0.323 0.47-0.647 0.926-0.955 1.381-0.015 0.016-0.031 0.031-0.046 0.047-0.046 0.094-0.123 0.189-0.17 0.267-0.246 0.345-0.492 0.691-0.723 1.02-0.062 0.079-0.124 0.173-0.185 0.252-0.709 0.989-1.418 1.962-2.111 2.873-0.139 0.205-0.293 0.409-0.447 0.613-0.185 0.235-0.37 0.487-0.57 0.738-0.663 0.88-1.326 1.728-1.958 2.545-0.108 0.126-0.2 0.267-0.309 0.393-0.339 0.424-0.678 0.833-1.003 1.225-0.107 0.142-0.216 0.283-0.339 0.425-0.2 0.251-0.401 0.503-0.601 0.739-0.047 0.062-0.109 0.125-0.154 0.204-0.788 0.958-1.544 1.839-2.254 2.657-0.185 0.22-0.355 0.424-0.54 0.628-0.108 0.11-0.201 0.221-0.293 0.33-0.541 0.614-1.051 1.18-1.514 1.699-0.062 0.047-0.108 0.094-0.154 0.157-1.004 1.101-1.839 1.951-2.442 2.565-0.046 0.063-0.108 0.11-0.154 0.158-0.247 0.251-0.449 0.456-0.603 0.598-0.031 0.047-0.062 0.078-0.093 0.094-0.093 0.079-0.155 0.142-0.201 0.189-0.015 0.032-0.046 0.048-0.061 0.063-0.016 0.016-0.031 0.032-0.031 0.032l0.015 0.015c0 0.016 0 0.032 0.016 0.047s0.016 0.047 0.048 0.093c0 0 0 0.016 0.016 0.031 0.063 0.14 0.159 0.342 0.302 0.621 0.032 0.062 0.063 0.125 0.095 0.202 0.016 0.047 0.048 0.093 0.08 0.156 0.016 0.03 0.031 0.062 0.047 0.092 0.016 0.047 0.033 0.078 0.048 0.125 0.032 0.062 0.064 0.109 0.095 0.171 0.016 0.031 0.032 0.062 0.048 0.108 0.032 0.063 0.064 0.14 0.096 0.202 0.08 0.171 0.174 0.357 0.269 0.559 0.064 0.156 0.144 0.311 0.223 0.482 0.16 0.342 0.335 0.715 0.541 1.118 0.127 0.28 0.255 0.56 0.414 0.87 0.19 0.404 0.397 0.839 0.62 1.305 0.095 0.202 0.19 0.419 0.303 0.652 0.142 0.311 0.286 0.637 0.46 0.979 0.191 0.435 0.398 0.885 0.621 1.367 0.112 0.217 0.223 0.466 0.334 0.699 0.159 0.342 0.318 0.698 0.493 1.071-11.736-7.521-22.173-18.002-32.904-28.2-8.749-8.328-17.684-16.452-27.66-22.617-14.072-8.7-30.294-13.748-43.06-21.4 32.825 0.544 87.282 14.416 117.3 37.932l0.015 0.015c-0.292 0.424-0.569 0.847-0.862 1.256m-124.43 388.47c-14.54 25.559-69.614 65.634-69.614 65.634s-6.299 48.367-16.517 72.342c-1.313 3.069-2.706 6.03-4.161 8.914-1.778 1.841-3.587 3.635-5.411 5.399-5.459 5.26-11.108 10.178-16.62 14.643-0.125 0.094-0.249 0.189-0.357 0.284-0.82 0.662-1.641 1.309-2.447 1.94-0.232 0.174-0.449 0.348-0.666 0.521-0.697 0.553-1.394 1.089-2.091 1.61-5.438 4.137-10.645 7.772-15.329 10.763 39.931-32.809 40.883-77.4 37.527-123.99 33.233-14.591 59.039-24.294 74.81-58.63l-0.312 2e-3c-0.718 7e-3 -1.389-0.065-2.107-0.058 7.34-11.174 12.469-23.434 15.877-36.319 0.016-0.047 0.016-0.078 0.031-0.125 1.517 0.501 3.005 1.096 4.553 1.503 1.298 0.331 2.611 0.647 3.955 0.931 3.986 0.869 8.109 1.502 12.278 1.995-3.579 11.185-7.503 22.281-13.399 32.645m-781.71-721.18c-0.99-2.456-1.901-4.897-2.766-7.338-9.332-26.277-11.805-51.151-12.469-76.15-0.667-25.389 2.675-50.596 7.957-75.337 2.469-11.566 7.758-25.154 10.635-38.189 0.906 0.194 1.829 0.404 2.75 0.614 3.705 0.871 7.458 1.835 11.305 2.924 1.924 0.544 3.863 1.119 5.819 1.725 8.823 2.728 18.04 6.076 27.655 10.106-26.324 43.605-48.248 106.36-51.161 156.6-0.512 8.803-0.452 17.195 0.275 25.05m-279.04 665.51c-11.992 17.58-30.577 47.73-38.447 76.036-0.218-0.03-0.453-0.059-0.687-0.072-0.937-0.116-1.999-0.247-3.154-0.408-0.267-0.045-0.532-0.089-0.813-0.118-1.328-0.206-2.797-0.442-4.374-0.709-0.376-0.074-0.766-0.149-1.172-0.207-0.141-0.03-0.281-0.06-0.437-0.09-4.376-0.834-9.503-1.988-15.055-3.607 0.495-2.11 1.116-4.237 1.954-6.398 7.543-19.629 17.491-37.284 29.879-54.119 3.56-4.837 7.876-10.507 12.766-16.51 19.947-24.485 49.516-54.376 76.404-54.901-1.366 0.777-2.731 1.631-4.126 2.58-18.511 12.507-39.377 38.934-52.738 58.523m-142.99-127.78c8.41-13.398 33.336-37.631 52.926-42.988 3.486-0.952 6.79-1.31 9.803-0.9-0.52 1.034-1.041 2.084-1.578 3.118-11.508 22.786-24.551 44.774-35.015 67.425-11.366 24.594-19.7 49.971-19.757 77.941-1.022-0.896-1.95-1.698-2.894-2.516 0.137-7.333 0.815-15.139 2.282-23.545 0.208-1.203 0.431-2.421 0.669-3.64 0 0-6.724-3.605-16.459-10.552-0.958-0.677-1.947-1.401-2.968-2.141-0.675-0.508-1.366-1.017-2.057-1.541-0.707-0.54-1.43-1.079-2.152-1.649 3.422-14.726 5.56-31.826 11.151-46.54 1.66-4.414 3.634-8.612 6.049-12.472m1255.2-89.56c0.302 0.637 0.604 1.274 0.922 1.926 4.086 8.402 8.544 16.707 12.039 25.27 0.493 1.197 0.956 2.378 1.404 3.575 0.048 0.14 0.112 0.28 0.16 0.42 0.208 0.56 0.4 1.119 0.593 1.695 0.24 0.653 0.464 1.321 0.673 1.99 0.225 0.669 0.433 1.338 0.626 2.007 0.322 1.058 0.613 2.131 0.888 3.205 0.129 0.467 0.242 0.95 0.355 1.416 0.115 0.499 0.228 0.997 0.327 1.495 0.13 0.607 0.26 1.214 0.359 1.822 0.098 0.467 0.18 0.934 0.247 1.402 0.083 0.513 0.165 1.043 0.232 1.557 0.083 0.592 0.167 1.184 0.235 1.776 0.034 0.281 0.051 0.561 0.07 0.842 0.051 0.436 0.086 0.888 0.121 1.325 0.053 0.608 0.089 1.231 0.11 1.84 0.038 0.701 0.06 1.418 0.066 2.136l4e-3 0.468c6e-3 0.593-4e-3 1.185-0.03 1.763-0.026 0.577-0.052 1.155-0.093 1.717-0.028 0.39-0.072 0.78-0.115 1.17-0.1 1.015-0.231 1.984-0.41 2.937-0.059 0.375-0.134 0.75-0.208 1.109-0.03 0.125-0.06 0.266-0.09 0.391-0.075 0.391-0.18 0.782-0.27 1.157-0.031 0.125-0.061 0.25-0.106 0.375-0.105 0.453-0.241 0.923-0.378 1.361-0.151 0.516-0.318 1.016-0.485 1.502-0.335 0.939-0.685 1.862-1.083 2.755-0.213 0.517-0.442 1.018-0.688 1.504-0.214 0.469-0.444 0.908-0.674 1.363-0.23 0.439-0.475 0.894-0.706 1.332-0.982 1.756-2.058 3.451-3.182 5.115-0.293 0.423-0.569 0.831-0.862 1.255-0.293 0.408-0.585 0.832-0.878 1.24s-0.585 0.833-0.894 1.241c-0.954 1.35-1.94 2.701-2.941 4.082-0.294 0.409-0.57 0.801-0.864 1.209-0.493 0.676-0.954 1.335-1.432 2.026-0.676 1.004-1.369 2.04-2.061 3.107-0.508 0.8-1.015 1.616-1.507 2.463 9.86-32.442 8.287-68.227-1.017-101.6 0.493 1.087 1.018 2.174 1.543 3.261m-1200.9-104.75c-0.699 0.303-1.414 0.559-2.145 0.784-2.738 0.898-5.635 1.33-8.598 1.419 2.335-0.567 4.67-1.103 6.991-1.545 1.26-0.246 2.507-0.46 3.752-0.658m176.18-467.45c0.969 0.272 1.955 0.544 2.955 0.831 6.945 2.043 14.332 4.721 22.114 7.973-12.349 29.75-13.289 70.441 2.105 97.662 2.013 3.569 4.321 6.902 6.907 9.951-1.415-1.125-2.798-2.298-4.135-3.519-31.11-28.154-39.218-77.435-29.946-112.9m-106.98 121.32c-11.862-11.03-26.561-21.737-40.975-30.435-29.205-17.611-62.255-22.302-91.36-1.323-0.542 0.38-1.069 0.775-1.595 1.185-7.468 5.606-14.332 12.469-20.298 20.198-19.335 24.947-29.46 58.998-20.509 89.74-18.654-39.374-20.02-90.058-5.76-132.6 14.874-11.148 31.68-20.785 50.736-28.367 1.414-0.575 2.86-1.134 4.305-1.678 0.171-0.064 0.342-0.128 0.529-0.192 1.352-0.511 2.736-1.007 4.105-1.488 1.523-0.544 3.063-1.057 4.603-1.57 0 0 14.157-2.375 33.707-1.929 1.591 0.032 3.199 0.08 4.837 0.159 2.466 0.102 5.01 0.266 7.602 0.492 21.37 1.756 46.348 7.363 66.198 21.97 0 0 0-0.015 0.015-0.046 1.412 4.276 2.853 8.35 4.4 12.08 0.702 1.725 1.434 3.372 2.198 4.94 13.177 27.132 29.356 56.545 33.866 85.877-11.218-13.937-23.752-25.086-36.604-37.012m-193.93 161c-1.663-23.352 7.068-49.606 21.125-68.25 22.905 19.478 84.615-28.441 91.706-49.736 19.52 12.614 44.971 18.856 54.747 42.228v0.015c-13.645-13.244-30.416-13.513-48.028-8.423-28.083 8.101-59.481 32.378-66.856 61.927-0.903 3.596-1.585 7.533-2.047 11.686 0 0.032 0 0.063-0.014 0.094-0.201 1.968-0.354 3.981-0.46 6.041-0.014 0.125-0.013 0.25-0.012 0.39-1.457 30.229 9.088 68.007 39.153 73.708-18.727 7.642-32.724 26.067-36.676 46.132-0.029 0.094-0.06 0.188-0.075 0.297-1.787 9.313-1.418 18.981 1.644 28.063 2.18 6.47 6.625 13.277 12.438 19.511 12.444 13.364 31.136 24.145 47.339 23.654-34.988 8.586-69.561 31.971-97.619 56.607 0.539-0.8 1.078-1.601 1.632-2.402 0.847-1.24 1.709-2.495 2.618-3.752 0 0-57.327-29.257-87.772-90.58-1.144-2.314-2.257-4.675-3.324-7.083-1.609-3.604-3.108-7.319-4.5-11.144-0.464-1.259-0.913-2.55-1.361-3.84-0.866-2.598-1.701-5.226-2.474-7.902-1.144-4.03-2.181-8.154-3.061-12.389-0.179-0.872-0.359-1.744-0.539-2.632-0.18-0.902-0.359-1.805-0.524-2.709-0.049-0.296-0.099-0.576-0.148-0.872-0.13-0.623-0.245-1.261-0.345-1.9-0.164-0.934-0.329-1.884-0.494-2.834-0.627-3.817-1.193-7.789-1.73-11.887 7.93 17.82 18.144 34.605 32.994 50.007 18.897 19.608 44.231 35.195 67.075 49.65 16.316 10.335 16.429 8.945 32.529 2.356-9.144-22.675-24.564-37.214-23.754-64.847 0.444-14.636 7.675-29.224 8.342-43.285 0.564-11.829 0.669-8.82-5.604-19.417-11.455-19.363-24.223-32.335-25.925-56.482" style="fill:#231f20"/></g></g></g></g><g transform="matrix(.065549 0 0 -.075127 -994.08 404.81)" style="stroke-width:5.0271"><g style="stroke-width:5.0271"><g clip-path="url(#clipPath2179)" style="opacity:.2;stroke-width:5.0271"><g transform="translate(1748.8 1434.9)" style="stroke-width:5.0271"><path d="m0 0c6.767-15.707 78.934-95.793 93.363-52.871 3.703 10.995-18.592 32.942-24.353 40.856-13.712 18.875-26.98 40.242-29.87 63.729-5.026 40.837 15.883 79.379 33.193 116.66 3.582 2.697 6.844 6.395 9.65 11.268 2.472 4.283 2.561 8.915 1.075 13.546 0.558 1.461 1.118 2.922 1.646 4.368-1.048-0.24-2.08-0.527-3.096-0.814-6.862 13.899-26.665 26.823-38.814 28.79 5.399 39.619 26.594 77.019 5.889 112.51 5.413-30.935-44.526-88.306-49.968-106.99-6.875-23.616 14.796-53.997 39.018-64.606-7.523-9.119-13.935-19.435-19.662-30.067-22.405-41.649-38.22-89.472-18.071-136.37m77.095-509.07c-36.559-8.091-77.723-6.235-112.77-16.524-41.073-12.059-24.496-52.158 3.741-68.872 31.59-18.709 71.405-16.232 103.24 1.761 52.134 29.429 79.663 66.85 102.44 120.29-3.479 11.871-5.089 16.659-5.5 21.218-30.093-27.743-48.86-48.506-91.141-57.871m-40.561 862.77c5.101-5.179 9.077-10.409 12.149-15.663-1.171 6.656-4.85 12.102-12.149 15.663m205.93-323.79c-14.977-7.117 8.057-40.334 11.795-51.287 5.622-16.446 3.629-34.928-5.456-49.352 19.073 18.436 33.276 33.001 34.017 52.727 0.554 14.705-18.83 58.137-40.356 47.912m-203.07 389.34c17.181-2.699 69.009-15.462 75.712 11.525 6.09 24.576-27.851 50.623-46.652 56.987-31.305 10.579-69.801 7.388-99.895-5.02-39.786-16.408-99.391-44.006-123.32-80.275 62.256 36.092 143.3 24.779 194.16 16.783m192.11-506.89c7.293 4.332 13.055 10.192 17.297 16.908-5.445-5.254-11.267-10.817-17.297-16.908m-56.827 116.68c-10.908 4.67-20.169 10.463-28.364 20.147-15.633 18.502-25.273 47.635-14.177 75.722-32.008-39.378-30.802-121.2 24.064-139.6 17.729-5.948 49.325 8.63 39.728 32.319-3.997 9.879-13.451 8.077-21.251 11.408m-1168.1-356.89c-13.515-21.326-33.852-50.155-18.799-74.096 14.362-22.842 43.323-25.243 56.058-0.509 18.023 34.965 34.506 75.622 7.501 109.53-11.969 15.021-26.756 23.657-31.47 43.947-3.647 15.742-2.253 40.36 14.937 45.585-17.907 8.602-45.998 2.103-54.416-16.18-11.314-24.607 8.494-42.086 23.03-57.739 18.352-19.774 16.723-29.15 3.159-50.538m604.48 803.23c23.387 3.89 46.844 20.617 70.52 27.157 33.325 9.228 66.234 20.644 99.796 28.543 30.218 7.104 58.628 9.295 88.235 11.038-1.619 0.42-3.268 0.825-4.934 1.23-2.522 0.6-5.09 1.17-7.721 1.74-0.779 0.163-1.572 0.326-2.367 0.489-0.218 0.033-0.42 0.082-0.638 0.131-1.681 0.327-3.379 0.67-5.108 0.982-0.872 0.164-1.759 0.328-2.647 0.477-2.508 0.443-5.077 0.872-7.71 1.286-1.293 0.199-2.617 0.383-3.957 0.582-1.714 0.234-3.443 0.468-5.188 0.687-1.34 0.184-2.711 0.352-4.083 0.505-14.803 1.726-30.707 2.448-47.055 2.424-0.873 8e-3 -1.763 1e-3 -2.652-7e-3 -12.557-0.073-25.369-0.564-38.151-1.385-3.107-0.205-6.197-0.411-9.288-0.648-2.935-0.223-5.854-0.462-8.773-0.7-0.25-0.014-0.516-0.042-0.781-0.071-1.436-0.127-2.857-0.255-4.293-0.382-1.53-0.127-3.045-0.269-4.574-0.427-2.202-0.214-4.403-0.428-6.589-0.657-1.14-0.115-2.279-0.229-3.435-0.359-1.203-0.13-2.389-0.259-3.575-0.389-1.5-0.174-2.983-0.331-4.482-0.505-0.344-0.028-0.688-0.072-1.046-0.115-5.575-0.636-11.087-1.319-16.476-2.034-1.436-0.174-2.858-0.364-4.279-0.57-1.421-0.19-2.827-0.38-4.217-0.57-1.687-0.234-3.374-0.468-5.045-0.703-2.468-0.367-4.905-0.719-7.31-1.072-0.406-0.059-0.812-0.117-1.203-0.176-1.874-0.28-3.717-0.559-5.529-0.839-2.749-0.428-5.437-0.855-8.061-1.269-0.265-0.044-0.53-0.088-0.797-0.133-1.249-0.191-2.499-0.398-3.718-0.606-0.609-0.087-1.218-0.191-1.827-0.295-1.218-0.207-2.422-0.399-3.609-0.606-0.593-0.089-1.187-0.193-1.765-0.297-2.782-0.473-5.484-0.932-8.109-1.408-1.531-0.267-3.047-0.534-4.531-0.801-0.735-0.134-1.469-0.267-2.203-0.401-0.031 0-0.079-0.015-0.125-0.03-1.047-0.193-2.063-0.371-3.079-0.565-0.656-0.119-1.296-0.238-1.937-0.357-0.844-0.163-1.656-0.312-2.469-0.46-0.969-0.179-1.906-0.358-2.812-0.537-0.594-0.104-1.172-0.223-1.75-0.327l0.015-0.016c11.725-14.301 10.515-40.98 11.332-57.554m-604.65-987.52c-15.587-3.821-40.034 7.773-41.064-11.171-2.206-40.162 48.909-28.46 68.204-18.277 31.269 16.5 45.037 39.82 44.327 100.83-8.879-34.783-36.181-62.738-71.467-71.386m280.68 2.565c-54.795 21.041-53.012-119.13-15.774-142.78-9.786 37.199 7.607 66.305 19.881 90.06 8.209 15.899 18.759 43.943-4.107 52.715m214.4 896.58c1.633 32.056-36.593 87.671-65.642 101.07-13.055 6.019-27.312 4.167-40.917-1.113-2.486-1.338-4.941-2.695-7.34-4.069-53.24-30.466-100.69-76.739-132.32-129.3-1.906-3.167-3.769-6.369-5.575-9.604-0.201-3.739-0.099-7.48 0.344-11.16 0.889-1.474 1.919-2.896 3.119-4.247 7.189-8.097 17.831-10.039 28.257-10.443 32.716 11.683 66.389 18.885 98.901 24.327 30.901 5.179 118.89-0.379 121.17 44.541m257.02-923.91c-49.343 20.259-100.64-49.142-127.45-79.925-29.351-33.707-92.968-106.21-146.37-81.063-0.235-1.963-0.095-3.649-0.092-4.991 0.011-2.309-0.423-3.662-3.934-3.833 10.332-13.15 23.196-22.283 37.57-28.263 43.606-18.195 100.95-7.438 142.27 7.645 44.762 16.315 93.811 58.205 115.76 100.92 15.817 30.789 20.778 73.703-17.748 89.512" style="fill:#fff"/></g></g></g></g><g transform="matrix(.065549 0 0 -.075127 -994.08 404.81)" style="stroke-width:5.0271"><g style="stroke-width:5.0271"><g clip-path="url(#clipPath2215)" style="opacity:.2;stroke-width:5.0271"></g></g></g><g transform="matrix(.065549 0 0 -.075127 -994.08 404.81)" style="stroke-width:5.0271"><g style="stroke-width:5.0271"><g clip-path="url(#clipPath2655)" style="opacity:.3;stroke-width:5.0271"></g></g></g><g transform="matrix(.065549 0 0 -.075127 -994.08 404.81)" style="stroke-width:5.0271"><g style="stroke-width:5.0271"><g clip-path="url(#clipPath3731)" style="opacity:.10001;stroke-width:5.0271"><g transform="translate(1282.1 1761.5)" style="stroke-width:5.0271"><path d="m0 0c-5.408 9.615-11.503 18.586-17.918 26.812-9.39-48.756-15.44-131.96-10.073-151.27 1.738 57.395 20.348 110.08 47.825 160.26-0.121-7e-3 -0.128 0.117-0.249 0.109-7.091-11.314-13.659-23.325-19.585-35.907m-23.317-271.56c-0.112-0.172-0.235-0.333-0.347-0.499-6.533 21.461-11.553 43.637-13.952 67.581-2.068-32.431-2.37-62.086-1.2-87.828-15.613-18.122-34.461-32.393-56.564-40.342-24.209-8.704-52.197-9.763-79.607-4.542-41.336 1.925-78.75 25.174-106.4 58.351 27.383-57.075 73.628-95.909 128.55-99.637 43.293-2.923 84.316 16.427 116.84 50.664 3.624 3.778 7.114 7.778 10.484 11.949 3.974 4.875 7.813 9.937 11.428 15.252-2.628 7.033-5.073 14.118-7.388 21.263-0.57 2.611-1.313 5.164-1.847 7.788m336.03 389.96c71.586-131.42 46.79-330.58-43.017-441.18-72.141-80.573-171.84-95.445-186.58-93.525 15.748-8.532 32.714-14.558 50.728-17.635 119.4-20.29 238.53 94.951 266.24 257.55 20.925 122.8-16.418 237.31-87.367 294.8"/></g></g></g></g><g transform="matrix(.065549 0 0 -.075127 -994.08 404.81)" style="stroke-width:5.0271"><g style="stroke-width:5.0271"><g clip-path="url(#clipPath3747)" style="opacity:.10001;stroke-width:5.0271"><g transform="translate(1380.8 1337.8)" style="stroke-width:5.0271"><path d="m0 0c11.204-4.665 22.93-8.14 35.153-10.227 119.4-20.291 238.53 94.951 266.24 257.55 5.08 29.817 6.698 59.135 5.262 87.275-1.659-22.713-5.306-45.293-11.037-67.403-25.825-99.629-90.151-194.17-184.1-240.28-25.767-12.646-53.279-21.231-81.743-25.107-10.024-1.364-19.934-1.934-29.769-1.8m-312.98 65.752c18.636-11.79 39.335-19.006 61.452-20.508 43.293-2.922 84.317 16.428 116.84 50.664 3.624 3.778 7.114 7.779 10.484 11.95 3.974 4.875 7.813 9.937 11.428 15.252-1.419 3.796-2.776 7.61-4.096 11.437-7.467-8.674-15.65-16.672-24.426-23.941-1.238-1.209-2.469-2.408-3.68-3.586-16.922-16.469-35.215-29.56-57.358-37.985-33.745-12.839-76.058-16.974-110.65-3.283"/></g></g></g></g></g></svg>
